<?xml version="1.0" encoding="UTF-8"?>
<svg id="svg1478" width="863.56pt" height="468.21pt" version="1.1" viewBox="0 0 863.56 468.21" xmlns="http://www.w3.org/2000/svg" xmlns:xlink="http://www.w3.org/1999/xlink">
 <defs id="defs1243">
  <style id="style1241" type="text/css">*{stroke-linejoin: round; stroke-linecap: butt}</style>
  <defs id="defs1461">
   <path id="m6bc2c5d3d5" d="m4.5 0-9-4.5v9z" stroke="#262626"/>
  </defs>
  <defs id="defs1360">
   <path id="m1b9ccd28ae" d="m0 6.364 3.8184-6.364-3.8184-6.364-3.8184 6.364z" stroke="#525252" stroke-width="1.5"/>
  </defs>
 </defs>
 <g id="text1350" fill="#262626" aria-label="solar panels">
  <path id="path4474" d="m72.564 103.42q0-0.60424-0.45923-0.93457-0.45117-0.33838-1.5872-0.58007-1.1279-0.2417-1.7966-0.58008-0.66064-0.33838-0.98291-0.80567-0.31421-0.46728-0.31421-1.1118 0-1.0715 0.90234-1.8127 0.9104-0.74121 2.3203-0.74121 1.4824 0 2.4009 0.76538 0.92651 0.76538 0.92651 1.9578h-1.4985q0-0.6123-0.52368-1.0554-0.51562-0.44312-1.3052-0.44312-0.81372 0-1.2729 0.35449t-0.45923 0.92651q0 0.5398 0.427 0.81372 0.427 0.27392 1.5388 0.52368 1.1199 0.24975 1.8127 0.59619t1.0232 0.83789q0.33838 0.4834 0.33838 1.1843 0 1.1682-0.93457 1.8772-0.93457 0.70093-2.425 0.70093-1.0474 0-1.853-0.3706-0.80566-0.37061-1.2649-1.0312-0.45117-0.6687-0.45117-1.4421h1.4905q0.04028 0.74927 0.59619 1.1924 0.56396 0.43506 1.4824 0.43506 0.84595 0 1.3535-0.33838 0.51562-0.34643 0.51562-0.91846z"/>
  <path id="path4476" d="m75.601 101.29q0-1.281 0.49951-2.3042 0.50757-1.0232 1.4019-1.5791 0.90234-0.55591 2.0544-0.55591 1.7805 0 2.8762 1.2327 1.1038 1.2327 1.1038 3.2791v0.10474q0 1.273-0.49146 2.2881-0.4834 1.0071-1.3938 1.571-0.90234 0.56396-2.0786 0.56396-1.7725 0-2.8762-1.2327-1.0957-1.2327-1.0957-3.2629zm1.4985 0.17725q0 1.4502 0.6687 2.3284 0.67676 0.87817 1.8047 0.87817 1.136 0 1.8047-0.88623 0.6687-0.89429 0.6687-2.4976 0-1.4341-0.68482-2.3203-0.67676-0.89429-1.8047-0.89429-1.1038 0-1.7805 0.87817t-0.67676 2.5137z"/>
  <path id="path4478" d="m87.025 105.73h-1.4905v-12.375h1.4905z"/>
  <path id="path4480" d="m94.792 105.73q-0.12891-0.25781-0.20947-0.91846-1.0393 1.0796-2.4814 1.0796-1.2891 0-2.1189-0.7251-0.82178-0.73315-0.82178-1.853 0-1.3616 1.0312-2.1108 1.0393-0.75733 2.9165-0.75733h1.4502v-0.68481q0-0.78149-0.46729-1.2407-0.46728-0.46728-1.3777-0.46728-0.79761 0-1.3374 0.40283-0.5398 0.40283-0.5398 0.97485h-1.4985q0-0.65259 0.45923-1.2568 0.46728-0.6123 1.2568-0.9668 0.79761-0.35449 1.7483-0.35449 1.5066 0 2.3606 0.75732 0.854 0.74927 0.88623 2.0706v4.0122q0 1.2004 0.30615 1.9094v0.12891zm-2.4734-1.136q0.70093 0 1.3293-0.36255 0.62842-0.36254 0.9104-0.94262v-1.7886h-1.1682q-2.7393 0-2.7393 1.6033 0 0.70093 0.46728 1.0957 0.46728 0.39477 1.2004 0.39477z"/>
  <path id="path4482" d="m102.6 98.354q-0.33838-0.0564-0.73316-0.0564-1.4663 0-1.99 1.2488v6.1875h-1.4905v-8.7173h1.4502l0.02417 1.0071q0.73315-1.1682 2.0786-1.1682 0.43506 0 0.66065 0.11279z"/>
  <path id="path4484" d="m115.42 101.47q0 1.99-0.9104 3.2065t-2.4653 1.2166q-1.5872 0-2.4976-1.0071v4.1975h-1.4905v-12.069h1.3616l0.0725 0.9668q0.91041-1.1279 2.5298-1.1279 1.571 0 2.4814 1.1843 0.91845 1.1843 0.91845 3.2952zm-1.4905-0.16919q0-1.4744-0.62841-2.3284-0.62842-0.854-1.7241-0.854-1.3535 0-2.0303 1.2004v4.1653q0.6687 1.1924 2.0464 1.1924 1.0715 0 1.7-0.84595 0.63647-0.854 0.63647-2.5298z"/>
  <path id="path4486" d="m122.69 105.73q-0.12891-0.25781-0.20947-0.91846-1.0393 1.0796-2.4814 1.0796-1.2891 0-2.1189-0.7251-0.82177-0.73315-0.82177-1.853 0-1.3616 1.0312-2.1108 1.0393-0.75733 2.9165-0.75733h1.4502v-0.68481q0-0.78149-0.46729-1.2407-0.46728-0.46728-1.3777-0.46728-0.79761 0-1.3374 0.40283-0.53979 0.40283-0.53979 0.97485h-1.4985q0-0.65259 0.45923-1.2568 0.46729-0.6123 1.2568-0.9668 0.7976-0.35449 1.7483-0.35449 1.5066 0 2.3606 0.75732 0.85401 0.74927 0.88623 2.0706v4.0122q0 1.2004 0.30616 1.9094v0.12891zm-2.4734-1.136q0.70093 0 1.3294-0.36255 0.62841-0.36254 0.9104-0.94262v-1.7886h-1.1682q-2.7392 0-2.7392 1.6033 0 0.70093 0.46728 1.0957 0.46729 0.39477 1.2004 0.39477z"/>
  <path id="path4488" d="m127.7 97.017 0.0483 1.0957q0.99903-1.2568 2.6104-1.2568 2.7634 0 2.7876 3.1179v5.7605h-1.4905v-5.7686q-8e-3 -0.94263-0.43506-1.3938-0.41894-0.45117-1.3132-0.45117-0.7251 0-1.273 0.38672t-0.854 1.0151v6.2117h-1.4905v-8.7173z"/>
  <path id="path4490" d="m139.01 105.9q-1.7725 0-2.8843-1.1602-1.1118-1.1682-1.1118-3.1179v-0.27393q0-1.2971 0.49146-2.3123 0.49951-1.0232 1.3857-1.5952 0.89429-0.58008 1.9336-0.58008 1.7 0 2.6426 1.1199t0.94263 3.2065v0.62036h-5.9055q0.0322 1.2891 0.74927 2.0867 0.7251 0.78955 1.8369 0.78955 0.78955 0 1.3374-0.32227 0.54786-0.32226 0.95874-0.854l0.91041 0.70898q-1.0957 1.6838-3.2871 1.6838zm-0.18531-7.8149q-0.90234 0-1.5146 0.66064-0.6123 0.65259-0.75732 1.8369h4.3667v-0.11279q-0.0644-1.136-0.6123-1.7564-0.54786-0.62842-1.4824-0.62842z"/>
  <path id="path4492" d="m145.75 105.73h-1.4905v-12.375h1.4905z"/>
  <path id="path4494" d="m153.21 103.42q0-0.60424-0.45923-0.93457-0.45117-0.33838-1.5872-0.58007-1.1279-0.2417-1.7966-0.58008-0.66065-0.33838-0.98291-0.80567-0.31421-0.46728-0.31421-1.1118 0-1.0715 0.90234-1.8127 0.9104-0.74121 2.3203-0.74121 1.4824 0 2.4009 0.76538 0.92652 0.76538 0.92652 1.9578h-1.4985q0-0.6123-0.52368-1.0554-0.51563-0.44312-1.3052-0.44312-0.81372 0-1.273 0.35449-0.45922 0.35449-0.45922 0.92651 0 0.5398 0.427 0.81372 0.427 0.27392 1.5388 0.52368 1.1199 0.24975 1.8127 0.59619t1.0232 0.83789q0.33838 0.4834 0.33838 1.1843 0 1.1682-0.93457 1.8772-0.93457 0.70093-2.425 0.70093-1.0474 0-1.853-0.3706-0.80567-0.37061-1.2649-1.0312-0.45117-0.6687-0.45117-1.4421h1.4905q0.0403 0.74927 0.59619 1.1924 0.56397 0.43506 1.4824 0.43506 0.84595 0 1.3535-0.33838 0.51562-0.34643 0.51562-0.91846z"/>
 </g>
 <g id="text1354" fill="#262626" aria-label="swimming pools">
  <path id="path4497" d="m56.704 325.18q0-0.60425-0.45923-0.93457-0.45117-0.33838-1.5872-0.58008-1.1279-0.2417-1.7966-0.58008-0.66064-0.33838-0.98291-0.80566-0.31421-0.46729-0.31421-1.1118 0-1.0715 0.90234-1.8128 0.9104-0.74121 2.3203-0.74121 1.4824 0 2.4009 0.76538 0.92651 0.76539 0.92651 1.9578h-1.4985q0-0.61231-0.52368-1.0554-0.51562-0.44312-1.3052-0.44312-0.81372 0-1.2729 0.3545-0.45923 0.35449-0.45923 0.92651 0 0.53979 0.427 0.81372t1.5388 0.52368q1.1199 0.24976 1.8127 0.59619 0.69287 0.34644 1.0232 0.83789 0.33838 0.4834 0.33838 1.1843 0 1.1682-0.93457 1.8772-0.93457 0.70092-2.425 0.70092-1.0474 0-1.853-0.3706-0.80566-0.37061-1.2649-1.0312-0.45117-0.6687-0.45117-1.4421h1.4905q0.04028 0.74927 0.59619 1.1924 0.56396 0.43506 1.4824 0.43506 0.84595 0 1.3535-0.33838 0.51562-0.34643 0.51562-0.91845z"/>
  <path id="path4499" d="m67.855 325.44 1.6758-6.6628h1.4905l-2.5378 8.7173h-1.2085l-2.1189-6.6064-2.0625 6.6064h-1.2085l-2.5298-8.7173h1.4824l1.7161 6.5259 2.0303-6.5259h1.2004z"/>
  <path id="path4501" d="m74.155 327.49h-1.4905v-8.7173h1.4905zm-1.6113-11.03q0-0.36255 0.21753-0.6123 0.22559-0.24976 0.66064-0.24976t0.66064 0.24976q0.22559 0.24975 0.22559 0.6123t-0.22559 0.60425q-0.22558 0.2417-0.66064 0.2417t-0.66064-0.2417q-0.21753-0.2417-0.21753-0.60425z"/>
  <path id="path4503" d="m77.942 318.78 0.04028 0.96679q0.95874-1.1279 2.5862-1.1279 1.8289 0 2.4895 1.4019 0.43506-0.62842 1.1279-1.0151 0.70093-0.38672 1.6516-0.38672 2.8682 0 2.9165 3.0374v5.8411h-1.4905v-5.7524q0-0.93457-0.427-1.3938-0.427-0.46728-1.4341-0.46728-0.82983 0-1.3777 0.49951-0.54785 0.49145-0.63648 1.3293v5.7847h-1.4985v-5.7122q0-1.9014-1.8611-1.9014-1.4663 0-2.0061 1.2488v6.3647h-1.4905v-8.7173z"/>
  <path id="path4505" d="m92.403 318.78 0.04028 0.96679q0.95874-1.1279 2.5862-1.1279 1.8289 0 2.4895 1.4019 0.43506-0.62842 1.1279-1.0151 0.70093-0.38672 1.6516-0.38672 2.8682 0 2.9165 3.0374v5.8411h-1.4905v-5.7524q0-0.93457-0.427-1.3938-0.427-0.46728-1.4341-0.46728-0.82983 0-1.3777 0.49951-0.54785 0.49145-0.63648 1.3293v5.7847h-1.4985v-5.7122q0-1.9014-1.8611-1.9014-1.4663 0-2.0061 1.2488v6.3647h-1.4905v-8.7173z"/>
  <path id="path4507" d="m107.08 327.49h-1.4905v-8.7173h1.4905zm-1.6113-11.03q0-0.36255 0.21753-0.6123 0.22558-0.24976 0.66064-0.24976t0.66065 0.24976q0.22558 0.24975 0.22558 0.6123t-0.22558 0.60425q-0.22559 0.2417-0.66065 0.2417t-0.66064-0.2417q-0.21753-0.2417-0.21753-0.60425z"/>
  <path id="path4509" d="m110.88 318.78 0.0483 1.0957q0.99902-1.2568 2.6104-1.2568 2.7634 0 2.7876 3.1179v5.7605h-1.4905v-5.7686q-8e-3 -0.94263-0.43506-1.3938-0.41895-0.45117-1.3132-0.45117-0.72509 0-1.2729 0.38672-0.54786 0.38671-0.85401 1.0151v6.2117h-1.4905v-8.7173z"/>
  <path id="path4511" d="m118.22 323.06q0-2.0383 0.94263-3.2388 0.94263-1.2085 2.4976-1.2085 1.5952 0 2.4895 1.1279l0.0725-0.96679h1.3616v8.5078q0 1.6919-1.0071 2.6668-0.99902 0.97485-2.6909 0.97485-0.94263 0-1.845-0.40283-0.90235-0.40283-1.3777-1.1038l0.77344-0.89429q0.95874 1.1843 2.3445 1.1843 1.0876 0 1.6919-0.61231 0.61231-0.6123 0.61231-1.7241v-0.74927q-0.89429 1.0312-2.4412 1.0312-1.5308 0-2.4814-1.2327-0.94263-1.2327-0.94263-3.3596zm1.4985 0.16919q0 1.4744 0.60425 2.3203 0.60425 0.83789 1.6919 0.83789 1.4099 0 2.0706-1.281v-3.98q-0.68482-1.2488-2.0544-1.2488-1.0876 0-1.7 0.84594-0.6123 0.84595-0.6123 2.5056z"/>
  <path id="path4513" d="m139.28 323.23q0 1.99-0.9104 3.2065t-2.4653 1.2166q-1.5872 0-2.4976-1.0071v4.1975h-1.4905v-12.069h1.3616l0.0725 0.96679q0.9104-1.1279 2.5298-1.1279 1.571 0 2.4814 1.1843 0.91845 1.1843 0.91845 3.2952zm-1.4905-0.16919q0-1.4744-0.62841-2.3284-0.62842-0.854-1.7241-0.854-1.3535 0-2.0303 1.2004v4.1653q0.6687 1.1924 2.0464 1.1924 1.0715 0 1.7-0.84595 0.63647-0.854 0.63647-2.5298z"/>
  <path id="path4515" d="m140.78 323.05q0-1.281 0.49951-2.3042 0.50757-1.0232 1.4019-1.5791 0.90234-0.55591 2.0544-0.55591 1.7805 0 2.8762 1.2327 1.1038 1.2327 1.1038 3.279v0.10474q0 1.273-0.49146 2.2881-0.48339 1.0071-1.3938 1.571-0.90235 0.56396-2.0786 0.56396-1.7725 0-2.8762-1.2327-1.0957-1.2327-1.0957-3.2629zm1.4985 0.17725q0 1.4502 0.6687 2.3284 0.67676 0.87817 1.8047 0.87817 1.136 0 1.8047-0.88623 0.6687-0.89429 0.6687-2.4976 0-1.4341-0.68481-2.3203-0.67676-0.89429-1.8047-0.89429-1.1038 0-1.7805 0.87818-0.67676 0.87817-0.67676 2.5137z"/>
  <path id="path4517" d="m150.19 323.05q0-1.281 0.49952-2.3042 0.50756-1.0232 1.4018-1.5791 0.90235-0.55591 2.0544-0.55591 1.7805 0 2.8762 1.2327 1.1038 1.2327 1.1038 3.279v0.10474q0 1.273-0.49146 2.2881-0.4834 1.0071-1.3938 1.571-0.90234 0.56396-2.0786 0.56396-1.7725 0-2.8762-1.2327-1.0957-1.2327-1.0957-3.2629zm1.4985 0.17725q0 1.4502 0.6687 2.3284 0.67676 0.87817 1.8047 0.87817 1.136 0 1.8047-0.88623 0.6687-0.89429 0.6687-2.4976 0-1.4341-0.68482-2.3203-0.67675-0.89429-1.8047-0.89429-1.1038 0-1.7805 0.87818-0.67676 0.87817-0.67676 2.5137z"/>
  <path id="path4519" d="m161.61 327.49h-1.4905v-12.375h1.4905z"/>
  <path id="path4521" d="m169.07 325.18q0-0.60425-0.45923-0.93457-0.45117-0.33838-1.5872-0.58008-1.1279-0.2417-1.7966-0.58008-0.66064-0.33838-0.98291-0.80566-0.31421-0.46729-0.31421-1.1118 0-1.0715 0.90235-1.8128 0.9104-0.74121 2.3203-0.74121 1.4824 0 2.4009 0.76538 0.92651 0.76539 0.92651 1.9578h-1.4985q0-0.61231-0.52368-1.0554-0.51563-0.44312-1.3052-0.44312-0.81372 0-1.273 0.3545-0.45923 0.35449-0.45923 0.92651 0 0.53979 0.427 0.81372 0.42701 0.27393 1.5388 0.52368 1.1199 0.24976 1.8128 0.59619 0.69287 0.34644 1.0232 0.83789 0.33838 0.4834 0.33838 1.1843 0 1.1682-0.93457 1.8772-0.93457 0.70092-2.425 0.70092-1.0474 0-1.853-0.3706-0.80566-0.37061-1.2649-1.0312-0.45117-0.6687-0.45117-1.4421h1.4905q0.0403 0.74927 0.59619 1.1924 0.56396 0.43506 1.4824 0.43506 0.84595 0 1.3535-0.33838 0.51562-0.34643 0.51562-0.91845z"/>
 </g>
 <use id="use1362" transform="translate(-124.06 -80.171)" x="395.60364" y="180" width="100%" height="100%" fill="#525252" stroke="#525252" stroke-width="1.5" xlink:href="#m1b9ccd28ae"/>
 <use id="use1364" transform="translate(-124.06 -80.171)" x="396.32608" y="180" width="100%" height="100%" fill="#525252" stroke="#525252" stroke-width="1.5" xlink:href="#m1b9ccd28ae"/>
 <use id="use1366" transform="translate(-124.06 -80.171)" x="355.30005" y="180" width="100%" height="100%" fill="#525252" stroke="#525252" stroke-width="1.5" xlink:href="#m1b9ccd28ae"/>
 <use id="use1368" transform="translate(-124.06 -80.171)" x="322.65402" y="180" width="100%" height="100%" fill="#525252" stroke="#525252" stroke-width="1.5" xlink:href="#m1b9ccd28ae"/>
 <use id="use1370" transform="translate(-124.06 -80.171)" x="386.90622" y="180" width="100%" height="100%" fill="#525252" stroke="#525252" stroke-width="1.5" xlink:href="#m1b9ccd28ae"/>
 <use id="use1372" transform="translate(-124.06 -80.171)" x="649.95129" y="180" width="100%" height="100%" fill="#525252" stroke="#525252" stroke-width="1.5" xlink:href="#m1b9ccd28ae"/>
 <use id="use1374" transform="translate(-124.06 -80.171)" x="652.86847" y="180" width="100%" height="100%" fill="#525252" stroke="#525252" stroke-width="1.5" xlink:href="#m1b9ccd28ae"/>
 <use id="use1376" transform="translate(-124.06 -80.171)" x="650.72095" y="180" width="100%" height="100%" fill="#525252" stroke="#525252" stroke-width="1.5" xlink:href="#m1b9ccd28ae"/>
 <use id="use1378" transform="translate(-124.06 -80.171)" x="651.88239" y="180" width="100%" height="100%" fill="#525252" stroke="#525252" stroke-width="1.5" xlink:href="#m1b9ccd28ae"/>
 <use id="use1380" transform="translate(-124.06 -80.171)" x="650.55304" y="180" width="100%" height="100%" fill="#525252" stroke="#525252" stroke-width="1.5" xlink:href="#m1b9ccd28ae"/>
 <path id="path1385" transform="translate(-124.06 -80.171)" d="m397.36 179.96h252.58v0.0866h-252.58z" clip-path="url(#p8cb081a753)" fill="#f4e7e7" stroke="#525252" stroke-width="2.25"/>
 <path id="path1387" transform="translate(-124.06 -80.171)" d="m436.87 179.91h212v0.17325h-212z" clip-path="url(#p8cb081a753)" fill="#eedadb" stroke="#525252" stroke-width="2.25"/>
 <path id="path1389" transform="translate(-124.06 -80.171)" d="m442.14 179.83h205.88v0.3465h-205.88z" clip-path="url(#p8cb081a753)" fill="#e9cecf" stroke="#525252" stroke-width="2.25"/>
 <path id="path1391" transform="translate(-124.06 -80.171)" d="m451.12 179.65h194.88v0.693h-194.88z" clip-path="url(#p8cb081a753)" fill="#e3c2c3" stroke="#525252" stroke-width="2.25"/>
 <path id="path1393" transform="translate(-124.06 -80.171)" d="m455.09 179.31h174.49v1.386h-174.49z" clip-path="url(#p8cb081a753)" fill="#ddb5b6" stroke="#525252" stroke-width="2.25"/>
 <path id="path1395" transform="translate(-124.06 -80.171)" d="m464.64 178.61h158.12v2.772h-158.12z" clip-path="url(#p8cb081a753)" fill="#d7a8aa" stroke="#525252" stroke-width="2.25"/>
 <path id="path1397" transform="translate(-124.06 -80.171)" d="m475.7 177.23h141.53v5.544h-141.53z" clip-path="url(#p8cb081a753)" fill="#d29c9e" stroke="#525252" stroke-width="2.25"/>
 <path id="path1399" transform="translate(-124.06 -80.171)" d="m486.12 174.46h127.55v11.088h-127.55z" clip-path="url(#p8cb081a753)" fill="#cc8f91" stroke="#525252" stroke-width="2.25"/>
 <path id="path1401" transform="translate(-124.06 -80.171)" d="m498.98 168.91h106.33v22.176h-106.33z" clip-path="url(#p8cb081a753)" fill="#c68285" stroke="#525252" stroke-width="2.25"/>
 <path id="path1403" transform="translate(-124.06 -80.171)" d="m506.18 157.82h83.336v44.352h-83.336z" clip-path="url(#p8cb081a753)" fill="#c07678" stroke="#525252" stroke-width="2.25"/>
 <path id="path1405" transform="translate(-124.06 -80.171)" d="m519.02 135.65h59.575v88.704h-59.575z" clip-path="url(#p8cb081a753)" fill="#bb696c" stroke="#525252" stroke-width="2.25"/>
 <path id="path1407" transform="translate(-124.06 -80.171)" d="m531.97 91.296h36.626v177.41h-36.626z" clip-path="url(#p8cb081a753)" fill="#b55d60" stroke="#525252" stroke-width="2.25"/>
 <use id="use1410" transform="translate(-124.06 -80.171)" x="519.38922" y="401.76001" width="100%" height="100%" fill="#525252" stroke="#525252" stroke-width="1.5" xlink:href="#m1b9ccd28ae"/>
 <use id="use1412" transform="translate(-124.06 -80.171)" x="538.44781" y="401.76001" width="100%" height="100%" fill="#525252" stroke="#525252" stroke-width="1.5" xlink:href="#m1b9ccd28ae"/>
 <use id="use1414" transform="translate(-124.06 -80.171)" x="532.59344" y="401.76001" width="100%" height="100%" fill="#525252" stroke="#525252" stroke-width="1.5" xlink:href="#m1b9ccd28ae"/>
 <use id="use1416" transform="translate(-124.06 -80.171)" x="484.17538" y="401.76001" width="100%" height="100%" fill="#525252" stroke="#525252" stroke-width="1.5" xlink:href="#m1b9ccd28ae"/>
 <use id="use1418" transform="translate(-124.06 -80.171)" x="515.03534" y="401.76001" width="100%" height="100%" fill="#525252" stroke="#525252" stroke-width="1.5" xlink:href="#m1b9ccd28ae"/>
 <use id="use1420" transform="translate(-124.06 -80.171)" x="508.98209" y="401.76001" width="100%" height="100%" fill="#525252" stroke="#525252" stroke-width="1.5" xlink:href="#m1b9ccd28ae"/>
 <use id="use1422" transform="translate(-124.06 -80.171)" x="921.55066" y="401.76001" width="100%" height="100%" fill="#525252" stroke="#525252" stroke-width="1.5" xlink:href="#m1b9ccd28ae"/>
 <use id="use1424" transform="translate(-124.06 -80.171)" x="892.92773" y="401.76001" width="100%" height="100%" fill="#525252" stroke="#525252" stroke-width="1.5" xlink:href="#m1b9ccd28ae"/>
 <use id="use1426" transform="translate(-124.06 -80.171)" x="912.37634" y="401.76001" width="100%" height="100%" fill="#525252" stroke="#525252" stroke-width="1.5" xlink:href="#m1b9ccd28ae"/>
 <use id="use1428" transform="translate(-124.06 -80.171)" x="904.48236" y="401.76001" width="100%" height="100%" fill="#525252" stroke="#525252" stroke-width="1.5" xlink:href="#m1b9ccd28ae"/>
 <use id="use1430" transform="translate(-124.06 -80.171)" x="891.09399" y="401.76001" width="100%" height="100%" fill="#525252" stroke="#525252" stroke-width="1.5" xlink:href="#m1b9ccd28ae"/>
 <use id="use1432" transform="translate(-124.06 -80.171)" x="906.40302" y="401.76001" width="100%" height="100%" fill="#525252" stroke="#525252" stroke-width="1.5" xlink:href="#m1b9ccd28ae"/>
 <path id="path1437" transform="translate(-124.06 -80.171)" d="m544.79 401.07h342.26v1.386h-342.26z" clip-path="url(#p8cb081a753)" fill="#f4e7e7" stroke="#525252" stroke-width="2.25"/>
 <path id="path1439" transform="translate(-124.06 -80.171)" d="m560.58 400.37h318.54v2.772h-318.54z" clip-path="url(#p8cb081a753)" fill="#ebd3d4" stroke="#525252" stroke-width="2.25"/>
 <path id="path1441" transform="translate(-124.06 -80.171)" d="m570.21 398.99h295.58v5.544h-295.58z" clip-path="url(#p8cb081a753)" fill="#e2bfc1" stroke="#525252" stroke-width="2.25"/>
 <path id="path1443" transform="translate(-124.06 -80.171)" d="m595.65 396.22h258.43v11.088h-258.43z" clip-path="url(#p8cb081a753)" fill="#d9acad" stroke="#525252" stroke-width="2.25"/>
 <path id="path1445" transform="translate(-124.06 -80.171)" d="m622.69 390.67h218.94v22.176h-218.94z" clip-path="url(#p8cb081a753)" fill="#d0989a" stroke="#525252" stroke-width="2.25"/>
 <path id="path1447" transform="translate(-124.06 -80.171)" d="m639.47 379.58h186.66v44.352h-186.66z" clip-path="url(#p8cb081a753)" fill="#c78487" stroke="#525252" stroke-width="2.25"/>
 <path id="path1449" transform="translate(-124.06 -80.171)" d="m659.51 357.41h150.56v88.704h-150.56z" clip-path="url(#p8cb081a753)" fill="#be7073" stroke="#525252" stroke-width="2.25"/>
 <path id="path1451" transform="translate(-124.06 -80.171)" d="m684.78 313.06h105.09v177.41h-105.09z" clip-path="url(#p8cb081a753)" fill="#b55d60" stroke="#525252" stroke-width="2.25"/>
 <path id="path1454" transform="translate(-124.06 -80.171)" d="m549.51 91.296v177.41" clip-path="url(#p8cb081a753)" fill="none" stroke="#262626" stroke-opacity=".45" stroke-width="2.25"/>
 <path id="path1457" transform="translate(-124.06 -80.171)" d="m741.36 313.06v177.41" clip-path="url(#p8cb081a753)" fill="none" stroke="#262626" stroke-opacity=".45" stroke-width="2.25"/>
 <use id="use1463" transform="translate(-124.06 -80.171)" x="972" y="512.64001" width="100%" height="100%" fill="#262626" stroke="#262626" xlink:href="#m6bc2c5d3d5"/>
 <path id="path1468" d="m10.938 432.47h837" fill="none" stroke="#262626" stroke-linecap="square" stroke-width="1.875"/>
 <defs id="defs1476">
  <clipPath id="p8cb081a753">
   <rect id="rect1473" x="135" y="69.12" width="837" height="443.52"/>
  </clipPath>
 </defs>
 <g id="g4318" transform="translate(-124.06 -80.171)" fill="#262626">
  <g id="text1085" aria-label="101">
   <path id="path4524" d="m176.26 535.37h-0.9668v-10.57l-3.1904 1.1843v-0.90234l3.9961-1.4824h0.16114z"/>
   <path id="path4526" d="m188.02 530.48q0 2.4814-0.9104 3.7705-0.9104 1.281-2.6829 1.281-1.7402 0-2.6668-1.2568-0.92651-1.2649-0.95068-3.6738v-2.1028q0-2.4734 0.91846-3.7463 0.91845-1.2729 2.6829-1.2729 1.7402 0 2.6587 1.2327 0.91846 1.2246 0.95068 3.6174zm-0.9668-2.1028q0-2.0142-0.66064-3.0454-0.65259-1.0312-1.9819-1.0312-1.3052 0-1.9658 1.0071-0.66065 1.0071-0.67676 2.9729v2.3042q0 2.0061 0.67676 3.0696 0.68481 1.0635 1.9819 1.0635 1.2891 0 1.9497-1.0393 0.6687-1.0393 0.67675-3.0454z"/>
   <path id="path4528" d="m192.62 528.77h-0.62842v-6.8707l-2.0738 0.76982v-0.58653l2.5975-0.96357h0.10474z" baseline-shift="super"/>
  </g>
  <g id="text1095" aria-label="102">
   <path id="path4531" d="m335.35 535.41h-0.9668v-10.57l-3.1904 1.1843v-0.90235l3.9961-1.4824h0.16113z"/>
   <path id="path4533" d="m347.12 530.52q0 2.4814-0.9104 3.7705-0.9104 1.281-2.6829 1.281-1.7402 0-2.6668-1.2568-0.92651-1.2649-0.95068-3.6738v-2.1028q0-2.4734 0.91846-3.7463t2.6829-1.273q1.7402 0 2.6587 1.2327 0.91846 1.2246 0.95068 3.6174zm-0.96679-2.1028q0-2.0142-0.66065-3.0454-0.65258-1.0312-1.9819-1.0312-1.3052 0-1.9658 1.0071-0.66065 1.0071-0.67676 2.9729v2.3042q0 2.0061 0.67676 3.0696 0.68481 1.0635 1.9819 1.0635 1.2891 0 1.9497-1.0393 0.6687-1.0393 0.67676-3.0454z"/>
   <path id="path4535" d="m353.58 528.81h-4.776v-0.48178l2.6132-2.964q0.64936-0.74887 0.90073-1.2359t0.25137-0.94786q0-0.72268-0.42419-1.1416-0.42418-0.42418-1.1678-0.42418-0.76981 0-1.2464 0.49226-0.47131 0.49226-0.47131 1.2778h-0.62318q0-0.64413 0.28802-1.173 0.29326-0.52892 0.82742-0.82742 0.53939-0.30374 1.2254-0.30374 1.0474 0 1.6339 0.54987 0.59176 0.54986 0.59176 1.4977 0 0.53415-0.33516 1.1678-0.32991 0.63365-1.1678 1.5815l-2.1261 2.4037h4.0062z" baseline-shift="super"/>
  </g>
  <g id="text1105" aria-label="103">
   <path id="path4538" d="m494.76 535.41h-0.9668v-10.57l-3.1904 1.1843v-0.90235l3.9961-1.4824h0.16114z"/>
   <path id="path4540" d="m506.52 530.52q0 2.4814-0.9104 3.7705-0.9104 1.281-2.6829 1.281-1.7402 0-2.6668-1.2568-0.92651-1.2649-0.95068-3.6738v-2.1028q0-2.4734 0.91845-3.7463 0.91846-1.273 2.6829-1.273 1.7402 0 2.6587 1.2327 0.91845 1.2246 0.95068 3.6174zm-0.9668-2.1028q0-2.0142-0.66064-3.0454-0.65259-1.0312-1.9819-1.0312-1.3052 0-1.9658 1.0071-0.66065 1.0071-0.67676 2.9729v2.3042q0 2.0061 0.67676 3.0696 0.68481 1.0635 1.9819 1.0635 1.2891 0 1.9497-1.0393 0.6687-1.0393 0.67675-3.0454z"/>
   <path id="path4542" d="m509.6 524.65h0.64937q0.53939 0 0.94263-0.18853 0.40323-0.19376 0.6127-0.52368 0.21471-0.33515 0.21471-0.76981 0-0.73315-0.41371-1.1469-0.4137-0.41371-1.1888-0.41371-0.73316 0-1.2045 0.43465-0.46608 0.42942-0.46608 1.1364h-0.62841q0-0.59176 0.29849-1.0788 0.2985-0.49226 0.82742-0.75934t1.173-0.26708q1.0369 0 1.6339 0.56558 0.597 0.56558 0.597 1.5501 0 0.54986-0.35087 1.0159-0.34563 0.46084-0.9531 0.69126 0.71221 0.199 1.0788 0.68602 0.36658 0.48179 0.36658 1.1521 0 0.97929-0.6389 1.5763-0.63889 0.597-1.7072 0.597-0.68078 0-1.2516-0.27231-0.56557-0.27232-0.87978-0.75934-0.30897-0.49226-0.30897-1.1416h0.62841q0 0.72792 0.50797 1.1888 0.50798 0.4556 1.304 0.4556 0.81171 0 1.2621-0.41371 0.45561-0.41894 0.45561-1.2097 0-0.76458-0.49226-1.1678-0.48703-0.40324-1.4401-0.40324h-0.62842z" baseline-shift="super"/>
  </g>
  <g id="text1115" aria-label="104">
   <path id="path4545" d="m653.79 535.35h-0.9668v-10.57l-3.1904 1.1843v-0.90234l3.9961-1.4824h0.16113z"/>
   <path id="path4547" d="m665.55 530.46q0 2.4814-0.9104 3.7705-0.91041 1.281-2.6829 1.281-1.7402 0-2.6667-1.2568-0.92652-1.2649-0.95069-3.6738v-2.1028q0-2.4734 0.91846-3.7463t2.6829-1.273q1.7402 0 2.6587 1.2327 0.91846 1.2246 0.95069 3.6174zm-0.9668-2.1028q0-2.0142-0.66065-3.0454-0.65258-1.0312-1.9819-1.0312-1.3052 0-1.9658 1.0071t-0.67676 2.9729v2.3042q0 2.0061 0.67676 3.0696 0.68481 1.0635 1.9819 1.0635 1.2891 0 1.9497-1.0393 0.6687-1.0393 0.67676-3.0454z"/>
   <path id="path4549" d="m671.08 526.3h1.1888v0.52892h-1.1888v1.9272h-0.62842v-1.9272h-3.5872v-0.35611l3.5296-5.3416h0.68603zm-3.4458 0h2.8174v-4.357l-0.27755 0.48178z" baseline-shift="super"/>
  </g>
  <g id="text1125" aria-label="105">
   <path id="path4552" d="m813.24 535.35h-0.96679v-10.57l-3.1904 1.1843v-0.90234l3.9961-1.4824h0.16113z"/>
   <path id="path4554" d="m825 530.46q0 2.4814-0.9104 3.7705-0.9104 1.281-2.6829 1.281-1.7402 0-2.6668-1.2568-0.92652-1.2649-0.95069-3.6738v-2.1028q0-2.4734 0.91846-3.7463t2.6829-1.273q1.7402 0 2.6587 1.2327 0.91846 1.2246 0.95069 3.6174zm-0.9668-2.1028q0-2.0142-0.66064-3.0454-0.65259-1.0312-1.9819-1.0312-1.3052 0-1.9658 1.0071-0.66064 1.0071-0.67676 2.9729v2.3042q0 2.0061 0.67676 3.0696 0.68482 1.0635 1.9819 1.0635 1.2891 0 1.9497-1.0393 0.6687-1.0393 0.67676-3.0454z"/>
   <path id="path4556" d="m827.11 524.85 0.37181-3.7181h3.8124v0.58129h-3.273l-0.26708 2.5765q0.61271-0.41894 1.4349-0.41894 1.0316 0 1.6444 0.67031 0.6127 0.67031 0.6127 1.7858 0 1.2045-0.59699 1.8696-0.597 0.66507-1.681 0.66507-0.995 0-1.6129-0.5551t-0.70697-1.5553h0.60223q0.089 0.78029 0.52892 1.1835 0.43989 0.39799 1.1888 0.39799 0.81694 0 1.2306-0.51844 0.41895-0.51845 0.41895-1.4768 0-0.83789-0.46608-1.3668t-1.2726-0.52892q-0.44513 0-0.77505 0.11521-0.32991 0.10997-0.69649 0.43465z" baseline-shift="super"/>
  </g>
 </g>
 <g id="text1176" fill="#262626" aria-label="area (px²)">
  <path id="path4559" d="m763.34 453.74q-0.15234-0.30469-0.24756-1.0854-1.2283 1.2759-2.9326 1.2759-1.5234 0-2.5042-0.85694-0.97119-0.86645-0.97119-2.1899 0-1.6091 1.2188-2.4946 1.2283-0.89502 3.4468-0.89502h1.7139v-0.80932q0-0.92359-0.55225-1.4663-0.55224-0.55225-1.6282-0.55225-0.94263 0-1.5806 0.47608-0.63794 0.47607-0.63794 1.1521h-1.771q0-0.77124 0.54272-1.4854 0.55225-0.72363 1.4854-1.1426 0.94263-0.41895 2.0662-0.41895 1.7805 0 2.7898 0.89502 1.0093 0.8855 1.0474 2.447v4.7417q0 1.4187 0.36182 2.2566v0.15235zm-2.9231-1.3425q0.82837 0 1.571-0.42847 0.74268-0.42847 1.0759-1.114v-2.1138h-1.3806q-3.2373 0-3.2373 1.8948 0 0.82837 0.55225 1.2949 0.55224 0.46656 1.4187 0.46656z"/>
  <path id="path4561" d="m772.57 445.01q-0.3999-0.0666-0.86645-0.0666-1.7329 0-2.3518 1.4758v7.3125h-1.7615v-10.302h1.7139l0.0286 1.1902q0.86645-1.3806 2.4565-1.3806 0.51416 0 0.78076 0.1333z"/>
  <path id="path4563" d="m778.46 453.93q-2.0947 0-3.4087-1.3711-1.314-1.3806-1.314-3.6848v-0.32373q0-1.533 0.58081-2.7327 0.59034-1.2092 1.6377-1.8852 1.0569-0.68555 2.2852-0.68555 2.009 0 3.123 1.3235 1.114 1.3235 1.114 3.7896v0.73315h-6.9792q0.0381 1.5234 0.8855 2.4661 0.85693 0.9331 2.1709 0.9331 0.93311 0 1.5806-0.38086t1.1331-1.0093l1.0759 0.83789q-1.2949 1.99-3.8848 1.99zm-0.21899-9.2358q-1.0664 0-1.79 0.78076-0.72364 0.77124-0.89502 2.1709h5.1606v-0.13331q-0.0762-1.3425-0.72363-2.0757-0.64746-0.74267-1.752-0.74267z"/>
  <path id="path4565" d="m790.88 453.74q-0.15235-0.30469-0.24756-1.0854-1.2283 1.2759-2.9326 1.2759-1.5234 0-2.5042-0.85694-0.97119-0.86645-0.97119-2.1899 0-1.6091 1.2188-2.4946 1.2283-0.89502 3.4468-0.89502h1.7139v-0.80932q0-0.92359-0.55224-1.4663-0.55225-0.55225-1.6282-0.55225-0.94262 0-1.5806 0.47608-0.63794 0.47607-0.63794 1.1521h-1.771q0-0.77124 0.54273-1.4854 0.55224-0.72363 1.4854-1.1426 0.94262-0.41895 2.0662-0.41895 1.7805 0 2.7898 0.89502 1.0093 0.8855 1.0474 2.447v4.7417q0 1.4187 0.36181 2.2566v0.15235zm-2.9231-1.3425q0.82837 0 1.571-0.42847 0.74268-0.42847 1.0759-1.114v-2.1138h-1.3806q-3.2373 0-3.2373 1.8948 0 0.82837 0.55225 1.2949 0.55224 0.46656 1.4187 0.46656z"/>
  <path id="path4567" d="m799.89 448.11q0-2.1519 0.57129-4.1323 0.58081-1.9805 1.7234-3.5991 1.1426-1.6186 2.3708-2.2852l0.36181 1.1616q-1.3901 1.0664-2.2852 3.2564-0.8855 2.1899-0.97119 4.9036l-0.01 0.80933q0 3.6753 1.3425 6.3794 0.80933 1.6186 1.9233 2.5327l-0.36181 1.0759q-1.2664-0.70459-2.4185-2.3613-2.2471-3.2373-2.2471-7.741z"/>
  <path id="path4569" d="m815.32 448.7q0 2.3518-1.0759 3.7896-1.0759 1.4378-2.9136 1.4378-1.8757 0-2.9517-1.1902v4.9607h-1.7615v-14.263h1.6091l0.0857 1.1426q1.0759-1.333 2.9898-1.333 1.8567 0 2.9326 1.3997 1.0854 1.3997 1.0854 3.8943zm-1.7615-0.19995q0-1.7424-0.74267-2.7517-0.74268-1.0093-2.0376-1.0093-1.5996 0-2.3994 1.4187v4.9226q0.79029 1.4092 2.4185 1.4092 1.2664 0 2.009-0.99975 0.7522-1.0093 0.7522-2.9898z"/>
  <path id="path4571" d="m821.01 447.19 2.2852-3.761h2.0566l-3.3706 5.094 3.4754 5.2083h-2.0376l-2.3804-3.8562-2.3804 3.8562h-2.0471l3.4753-5.2083-3.3706-5.094h2.0376z"/>
  <path id="path4573" d="m832.39 447.39h-5.7034v-1.0283l2.8564-2.6851q1.0378-0.97119 1.0378-1.6282 0-0.46655-0.30469-0.75219-0.30469-0.29517-0.87598-0.29517-0.71411 0-1.0569 0.36182-0.33326 0.36181-0.33326 0.90454h-1.4949q0-1.0854 0.79028-1.79 0.79981-0.70459 2.0566-0.70459 1.2568 0 1.99 0.60937 0.73315 0.59986 0.73315 1.6472 0 0.99023-1.0188 2.009l-0.7998 0.7522-1.6758 1.3806h3.7991z"/>
  <path id="path4575" d="m838.44 448.2q0 2.1233-0.56177 4.0752-0.55224 1.9424-1.7043 3.5896-1.1426 1.6472-2.3994 2.3423l-0.37134-1.0759q1.4663-1.1235 2.3518-3.4849 0.89502-2.3708 0.91406-5.2559v-0.30468q0-1.9995-0.41894-3.7134-0.41895-1.7234-1.1711-3.085-0.74268-1.3616-1.6758-2.1233l0.37134-1.0759q1.2568 0.69507 2.3899 2.3232 1.1426 1.6282 1.7043 3.5896 0.57129 1.9614 0.57129 4.199z"/>
 </g>
</svg>
