<?xml version="1.0" encoding="UTF-8" standalone="no"?>
<!-- Created with Inkscape (http://www.inkscape.org/) -->

<svg
   version="1.1"
   id="svg2"
   width="422.00003"
   height="1184.9998"
   viewBox="0 0 422.00003 1184.9998"
   sodipodi:docname="architecture-resnetyolo.svg"
   inkscape:version="1.2.2 (1:1.2.2+202305151914+b0a8486541)"
   xmlns:inkscape="http://www.inkscape.org/namespaces/inkscape"
   xmlns:sodipodi="http://sodipodi.sourceforge.net/DTD/sodipodi-0.dtd"
   xmlns="http://www.w3.org/2000/svg"
   xmlns:svg="http://www.w3.org/2000/svg">
  <defs
     id="defs6" />
  <sodipodi:namedview
     id="namedview4"
     pagecolor="#ffffff"
     bordercolor="#999999"
     borderopacity="1"
     inkscape:showpageshadow="0"
     inkscape:pageopacity="0"
     inkscape:pagecheckerboard="0"
     inkscape:deskcolor="#d1d1d1"
     showgrid="false"
     inkscape:zoom="0.19915617"
     inkscape:cx="-544.7986"
     inkscape:cy="592.49986"
     inkscape:window-width="1877"
     inkscape:window-height="1037"
     inkscape:window-x="1963"
     inkscape:window-y="43"
     inkscape:window-maximized="1"
     inkscape:current-layer="g10">
    <inkscape:page
       x="0"
       y="0"
       id="page8"
       width="422.00003"
       height="1184.9998" />
  </sodipodi:namedview>
  <g
     id="g10"
     inkscape:groupmode="layer"
     inkscape:label="Page 1"
     transform="matrix(1.3333333,0,0,1.3333333,0,1.7624993e-5)">
    <g
       id="g12">
      <g
         id="g14">
        <path
           d="M 185.75,248.25 V 140.527"
           style="fill:none;stroke:#4d4d4d;stroke-width:1.5;stroke-linecap:butt;stroke-linejoin:miter;stroke-miterlimit:4;stroke-dasharray:none;stroke-opacity:1"
           id="path16" />
      </g>
      <g
         id="g18">
        <path
           d="M 130.75,300.75 V 140.527"
           style="fill:none;stroke:#4d4d4d;stroke-width:1.5;stroke-linecap:butt;stroke-linejoin:miter;stroke-miterlimit:4;stroke-dasharray:none;stroke-opacity:1"
           id="path20" />
      </g>
      <g
         id="g22">
        <path
           d="M 75.75,353.25 V 140.527"
           style="fill:none;stroke:#4d4d4d;stroke-width:1.5;stroke-linecap:butt;stroke-linejoin:miter;stroke-miterlimit:4;stroke-dasharray:none;stroke-opacity:1"
           id="path24" />
      </g>
      <g
         id="g26">
        <path
           d="M 240.75,195.75 V 140.527"
           style="fill:none;stroke:#4d4d4d;stroke-width:1.5;stroke-linecap:butt;stroke-linejoin:miter;stroke-miterlimit:4;stroke-dasharray:none;stroke-opacity:1"
           id="path28" />
      </g>
      <g
         id="g30">
        <path
           d="M 185.75,405.148 V 276.75"
           style="fill:none;stroke:#4d4d4d;stroke-width:1.5;stroke-linecap:butt;stroke-linejoin:miter;stroke-miterlimit:4;stroke-dasharray:none;stroke-opacity:1"
           id="path32" />
      </g>
      <g
         id="g34">
        <path
           d="M 240.75,405.148 V 224.25"
           style="fill:none;stroke:#4d4d4d;stroke-width:1.5;stroke-linecap:butt;stroke-linejoin:miter;stroke-miterlimit:4;stroke-dasharray:none;stroke-opacity:1"
           id="path36" />
      </g>
      <g
         id="g38">
        <path
           d="M 130.75,405.148 V 329.25"
           style="fill:none;stroke:#4d4d4d;stroke-width:1.5;stroke-linecap:butt;stroke-linejoin:miter;stroke-miterlimit:4;stroke-dasharray:none;stroke-opacity:1"
           id="path40" />
      </g>
      <g
         id="g42">
        <path
           d="M 75.75,405.148 V 381.75"
           style="fill:none;stroke:#4d4d4d;stroke-width:1.5;stroke-linecap:butt;stroke-linejoin:miter;stroke-miterlimit:4;stroke-dasharray:none;stroke-opacity:1"
           id="path44" />
      </g>
      <g
         id="g46">
        <path
           d="M 158.25,551.699 V 528.301"
           style="fill:none;stroke:#4d4d4d;stroke-width:1.5;stroke-linecap:butt;stroke-linejoin:miter;stroke-miterlimit:4;stroke-dasharray:none;stroke-opacity:1"
           id="path48" />
      </g>
      <g
         id="g50">
        <path
           d="M 218.25,551.699 V 528.301"
           style="fill:none;stroke:#4d4d4d;stroke-width:1.5;stroke-linecap:butt;stroke-linejoin:miter;stroke-miterlimit:4;stroke-dasharray:none;stroke-opacity:1"
           id="path52" />
      </g>
      <g
         id="g54">
        <path
           d="M 98.25,551.699 V 528.301"
           style="fill:none;stroke:#4d4d4d;stroke-width:1.5;stroke-linecap:butt;stroke-linejoin:miter;stroke-miterlimit:4;stroke-dasharray:none;stroke-opacity:1"
           id="path56" />
      </g>
      <g
         id="g58">
        <path
           d="M 158.25,858.434 V 803.211"
           style="fill:none;stroke:#4d4d4d;stroke-width:1.5;stroke-linecap:butt;stroke-linejoin:miter;stroke-miterlimit:4;stroke-dasharray:none;stroke-opacity:1"
           id="path60" />
      </g>
      <path
         d="m 42,547.5 h 232.5 c 2.078,0 3.75,3.898 3.75,8.75 v 245 c 0,4.852 -1.672,8.75 -3.75,8.75 H 42 c -2.078,0 -3.75,-3.898 -3.75,-8.75 v -245 c 0,-4.852 1.672,-8.75 3.75,-8.75 z"
         style="fill:#5875a4;fill-opacity:1;fill-rule:nonzero;stroke:none"
         id="path62" />
      <path
         d="m 42,843.75 h 232.5 c 2.078,0 3.75,1.672 3.75,3.75 v 30 c 0,2.078 -1.672,3.75 -3.75,3.75 H 42 c -2.078,0 -3.75,-1.672 -3.75,-3.75 v -30 c 0,-2.078 1.672,-3.75 3.75,-3.75 z"
         style="fill:#cb8964;fill-opacity:1;fill-rule:nonzero;stroke:none"
         id="path64" />
      <path
         d="m 140.211,854.789 h 1.582 v 11.996 h -1.582 z"
         style="fill:#ffffff;fill-opacity:1;fill-rule:nonzero;stroke:none"
         id="path66" />
      <path
         d="m 145.871,857.867 0.047,1.121 c 0.684,-0.855 1.574,-1.285 2.672,-1.285 1.883,0 2.832,1.063 2.851,3.192 v 5.89 h -1.527 v -5.902 c -0.004,-0.641 -0.152,-1.117 -0.445,-1.422 -0.285,-0.309 -0.731,-0.465 -1.34,-0.465 -0.496,0 -0.93,0.133 -1.305,0.399 -0.371,0.261 -0.664,0.609 -0.871,1.035 v 6.355 h -1.523 v -8.918 z"
         style="fill:#ffffff;fill-opacity:1;fill-rule:nonzero;stroke:none"
         id="path68" />
      <path
         d="m 161.258,862.426 c 0,1.355 -0.313,2.449 -0.934,3.277 -0.617,0.832 -1.461,1.246 -2.519,1.246 -1.082,0 -1.934,-0.344 -2.555,-1.031 v 4.293 h -1.523 v -12.344 h 1.39 l 0.074,0.992 c 0.621,-0.769 1.485,-1.156 2.59,-1.156 1.071,0 1.914,0.406 2.535,1.211 0.629,0.809 0.942,1.934 0.942,3.371 z m -1.524,-0.172 c 0,-1.008 -0.214,-1.801 -0.644,-2.383 -0.43,-0.582 -1.016,-0.875 -1.762,-0.875 -0.926,0 -1.617,0.41 -2.078,1.231 v 4.257 c 0.457,0.813 1.152,1.219 2.094,1.219 0.73,0 1.308,-0.285 1.738,-0.863 0.434,-0.582 0.652,-1.445 0.652,-2.586 z"
         style="fill:#ffffff;fill-opacity:1;fill-rule:nonzero;stroke:none"
         id="path70" />
      <path
         d="m 168.695,865.902 c -0.59,0.7 -1.461,1.047 -2.609,1.047 -0.953,0 -1.676,-0.273 -2.176,-0.824 -0.496,-0.555 -0.746,-1.375 -0.75,-2.457 v -5.801 h 1.524 v 5.762 c 0,1.351 0.55,2.027 1.648,2.027 1.164,0 1.938,-0.433 2.324,-1.301 v -6.488 h 1.524 v 8.918 h -1.45 z"
         style="fill:#ffffff;fill-opacity:1;fill-rule:nonzero;stroke:none"
         id="path72" />
      <path
         d="m 174.559,855.711 v 2.156 h 1.664 v 1.18 h -1.664 v 5.527 c 0,0.36 0.074,0.629 0.222,0.809 0.149,0.176 0.403,0.265 0.758,0.265 0.176,0 0.418,-0.035 0.727,-0.101 v 1.238 c -0.403,0.11 -0.793,0.164 -1.172,0.164 -0.68,0 -1.196,-0.207 -1.539,-0.617 -0.348,-0.414 -0.52,-0.996 -0.52,-1.758 v -5.527 h -1.625 v -1.18 h 1.625 v -2.156 z"
         style="fill:#ffffff;fill-opacity:1;fill-rule:nonzero;stroke:none"
         id="path74" />
      <path
         d="m 42,107.527 h 232.5 c 2.078,0 3.75,1.672 3.75,3.75 v 30 c 0,2.078 -1.672,3.75 -3.75,3.75 H 42 c -2.078,0 -3.75,-1.672 -3.75,-3.75 v -30 c 0,-2.078 1.672,-3.75 3.75,-3.75 z"
         style="fill:#b55d60;fill-opacity:1;fill-rule:nonzero;stroke:none"
         id="path76" />
      <path
         d="m 143.344,125.031 c 0,1.176 -0.196,2.203 -0.594,3.082 -0.395,0.875 -0.953,1.543 -1.68,2.004 -0.726,0.461 -1.57,0.692 -2.539,0.692 -0.945,0 -1.781,-0.231 -2.511,-0.692 -0.731,-0.469 -1.301,-1.129 -1.708,-1.984 -0.398,-0.863 -0.605,-1.86 -0.617,-2.992 v -0.868 c 0,-1.152 0.2,-2.171 0.602,-3.054 0.402,-0.887 0.969,-1.563 1.699,-2.028 0.734,-0.472 1.574,-0.711 2.52,-0.711 0.961,0 1.808,0.235 2.539,0.704 0.734,0.461 1.3,1.132 1.695,2.019 0.398,0.879 0.594,1.902 0.594,3.07 z m -1.574,-0.773 c 0,-1.422 -0.286,-2.512 -0.856,-3.27 -0.57,-0.765 -1.371,-1.144 -2.398,-1.144 -1,0 -1.789,0.379 -2.364,1.144 -0.574,0.758 -0.867,1.813 -0.882,3.164 v 0.879 c 0,1.379 0.289,2.465 0.863,3.258 0.586,0.785 1.383,1.176 2.398,1.176 1.024,0 1.813,-0.371 2.375,-1.113 0.559,-0.747 0.848,-1.813 0.864,-3.204 z"
         style="fill:#ffffff;fill-opacity:1;fill-rule:nonzero;stroke:none"
         id="path78" />
      <path
         d="m 150.973,129.762 c -0.594,0.699 -1.461,1.047 -2.61,1.047 -0.953,0 -1.675,-0.274 -2.175,-0.825 -0.497,-0.554 -0.747,-1.371 -0.75,-2.453 v -5.801 h 1.523 v 5.758 c 0,1.352 0.551,2.028 1.648,2.028 1.164,0 1.938,-0.434 2.325,-1.301 v -6.485 h 1.523 v 8.915 h -1.449 z"
         style="fill:#ffffff;fill-opacity:1;fill-rule:nonzero;stroke:none"
         id="path80" />
      <path
         d="m 156.836,119.57 v 2.16 h 1.664 v 1.176 h -1.664 v 5.532 c 0,0.355 0.074,0.624 0.223,0.804 0.148,0.176 0.402,0.266 0.757,0.266 0.176,0 0.418,-0.035 0.727,-0.102 v 1.239 c -0.402,0.109 -0.793,0.164 -1.172,0.164 -0.68,0 -1.195,-0.207 -1.539,-0.618 -0.348,-0.414 -0.52,-0.996 -0.52,-1.753 v -5.532 h -1.624 v -1.176 h 1.624 v -2.16 z"
         style="fill:#ffffff;fill-opacity:1;fill-rule:nonzero;stroke:none"
         id="path82" />
      <path
         d="m 167.801,126.285 c 0,1.356 -0.313,2.449 -0.93,3.281 -0.621,0.829 -1.465,1.243 -2.523,1.243 -1.082,0 -1.934,-0.344 -2.555,-1.032 v 4.293 h -1.523 v -12.34 h 1.39 l 0.074,0.989 c 0.621,-0.77 1.485,-1.157 2.59,-1.157 1.071,0 1.918,0.407 2.535,1.211 0.629,0.809 0.942,1.934 0.942,3.372 z m -1.524,-0.172 c 0,-1.008 -0.215,-1.801 -0.644,-2.383 -0.43,-0.582 -1.016,-0.871 -1.762,-0.871 -0.926,0 -1.617,0.407 -2.078,1.227 v 4.258 c 0.457,0.812 1.152,1.222 2.094,1.222 0.73,0 1.308,-0.289 1.738,-0.867 0.434,-0.582 0.652,-1.445 0.652,-2.586 z"
         style="fill:#ffffff;fill-opacity:1;fill-rule:nonzero;stroke:none"
         id="path84" />
      <path
         d="m 175.242,129.762 c -0.594,0.699 -1.465,1.047 -2.613,1.047 -0.949,0 -1.676,-0.274 -2.176,-0.825 -0.496,-0.554 -0.746,-1.371 -0.75,-2.453 v -5.801 h 1.524 v 5.758 c 0,1.352 0.55,2.028 1.648,2.028 1.164,0 1.941,-0.434 2.324,-1.301 v -6.485 h 1.524 v 8.915 h -1.45 z"
         style="fill:#ffffff;fill-opacity:1;fill-rule:nonzero;stroke:none"
         id="path86" />
      <path
         d="m 181.102,119.57 v 2.16 h 1.664 v 1.176 h -1.664 v 5.532 c 0,0.355 0.074,0.624 0.222,0.804 0.149,0.176 0.403,0.266 0.758,0.266 0.176,0 0.418,-0.035 0.727,-0.102 v 1.239 c -0.403,0.109 -0.793,0.164 -1.172,0.164 -0.68,0 -1.196,-0.207 -1.539,-0.618 -0.348,-0.414 -0.52,-0.996 -0.52,-1.753 v -5.532 h -1.625 v -1.176 h 1.625 v -2.16 z"
         style="fill:#ffffff;fill-opacity:1;fill-rule:nonzero;stroke:none"
         id="path88" />
      <path
         d="m 128.453,679.895 h -2.816 v 4.855 h -1.59 v -12 h 3.973 c 1.351,0 2.386,0.309 3.113,0.926 0.73,0.613 1.097,1.508 1.097,2.683 0,0.75 -0.203,1.399 -0.613,1.953 -0.398,0.555 -0.961,0.969 -1.679,1.247 l 2.82,5.089 v 0.102 h -1.699 z m -2.816,-1.293 h 2.429 c 0.786,0 1.411,-0.204 1.872,-0.61 0.468,-0.406 0.699,-0.949 0.699,-1.633 0,-0.742 -0.219,-1.308 -0.664,-1.703 -0.442,-0.398 -1.078,-0.597 -1.914,-0.601 h -2.422 z"
         style="fill:#ffffff;fill-opacity:1;fill-rule:nonzero;stroke:none"
         id="path90" />
      <path
         d="m 137.895,684.914 c -1.211,0 -2.192,-0.394 -2.95,-1.187 -0.757,-0.797 -1.136,-1.86 -1.136,-3.188 v -0.281 c 0,-0.883 0.164,-1.672 0.5,-2.363 0.339,-0.7 0.812,-1.243 1.418,-1.633 0.609,-0.395 1.269,-0.594 1.976,-0.594 1.16,0 2.063,0.383 2.703,1.144 0.645,0.766 0.965,1.86 0.965,3.282 v 0.633 h -6.039 c 0.02,0.878 0.277,1.589 0.766,2.136 0.496,0.535 1.121,0.805 1.879,0.805 0.539,0 0.992,-0.109 1.367,-0.328 0.375,-0.219 0.699,-0.512 0.98,-0.875 l 0.93,0.726 c -0.746,1.149 -1.867,1.723 -3.359,1.723 z m -0.192,-7.992 c -0.613,0 -1.129,0.223 -1.547,0.676 -0.418,0.445 -0.676,1.07 -0.777,1.879 h 4.469 v -0.118 c -0.043,-0.773 -0.254,-1.371 -0.629,-1.797 -0.371,-0.425 -0.879,-0.64 -1.516,-0.64 z"
         style="fill:#ffffff;fill-opacity:1;fill-rule:nonzero;stroke:none"
         id="path92" />
      <path
         d="m 148.312,682.383 c 0,-0.41 -0.156,-0.731 -0.468,-0.953 -0.309,-0.235 -0.852,-0.43 -1.625,-0.594 -0.77,-0.168 -1.383,-0.363 -1.836,-0.594 -0.453,-0.23 -0.785,-0.508 -1.008,-0.824 -0.211,-0.32 -0.32,-0.699 -0.32,-1.137 0,-0.73 0.308,-1.347 0.922,-1.855 0.621,-0.504 1.414,-0.758 2.375,-0.758 1.011,0 1.828,0.262 2.453,0.781 0.633,0.524 0.949,1.192 0.949,2.004 h -1.531 c 0,-0.418 -0.18,-0.777 -0.535,-1.078 -0.352,-0.305 -0.797,-0.453 -1.336,-0.453 -0.555,0 -0.989,0.121 -1.301,0.363 -0.317,0.238 -0.473,0.555 -0.473,0.945 0,0.368 0.149,0.645 0.438,0.832 0.293,0.188 0.816,0.368 1.574,0.536 0.765,0.172 1.383,0.375 1.855,0.609 0.473,0.238 0.821,0.523 1.047,0.859 0.231,0.329 0.344,0.731 0.344,1.211 0,0.797 -0.316,1.438 -0.957,1.918 -0.637,0.481 -1.461,0.719 -2.477,0.719 -0.714,0 -1.347,-0.129 -1.898,-0.379 -0.547,-0.254 -0.981,-0.605 -1.293,-1.055 -0.309,-0.457 -0.461,-0.949 -0.461,-1.476 h 1.523 c 0.028,0.512 0.231,0.918 0.61,1.219 0.387,0.297 0.89,0.445 1.519,0.445 0.575,0 1.036,-0.113 1.383,-0.344 0.352,-0.238 0.527,-0.551 0.527,-0.941 z"
         style="fill:#ffffff;fill-opacity:1;fill-rule:nonzero;stroke:none"
         id="path94" />
      <path
         d="m 153.254,675.832 0.051,1.121 c 0.679,-0.855 1.57,-1.285 2.668,-1.285 1.882,0 2.836,1.062 2.851,3.187 v 5.895 h -1.523 v -5.902 c -0.008,-0.641 -0.156,-1.118 -0.446,-1.426 -0.285,-0.305 -0.734,-0.461 -1.343,-0.461 -0.496,0 -0.93,0.133 -1.301,0.398 -0.375,0.262 -0.668,0.61 -0.875,1.036 v 6.355 h -1.524 v -8.918 z"
         style="fill:#ffffff;fill-opacity:1;fill-rule:nonzero;stroke:none"
         id="path96" />
      <path
         d="m 164.758,684.914 c -1.207,0 -2.192,-0.394 -2.949,-1.187 -0.758,-0.797 -1.137,-1.86 -1.137,-3.188 v -0.281 c 0,-0.883 0.168,-1.672 0.504,-2.363 0.34,-0.7 0.812,-1.243 1.418,-1.633 0.609,-0.395 1.265,-0.594 1.976,-0.594 1.157,0 2.059,0.383 2.703,1.144 0.641,0.766 0.961,1.86 0.961,3.282 v 0.633 h -6.039 c 0.024,0.878 0.278,1.589 0.766,2.136 0.496,0.535 1.121,0.805 1.879,0.805 0.539,0 0.996,-0.109 1.371,-0.328 0.371,-0.219 0.699,-0.512 0.98,-0.875 l 0.93,0.726 c -0.746,1.149 -1.867,1.723 -3.363,1.723 z m -0.188,-7.992 c -0.617,0 -1.132,0.223 -1.55,0.676 -0.418,0.445 -0.676,1.07 -0.774,1.879 h 4.465 v -0.118 c -0.043,-0.773 -0.25,-1.371 -0.625,-1.797 -0.375,-0.425 -0.879,-0.64 -1.516,-0.64 z"
         style="fill:#ffffff;fill-opacity:1;fill-rule:nonzero;stroke:none"
         id="path98" />
      <path
         d="m 172.055,673.676 v 2.156 h 1.664 v 1.18 h -1.664 v 5.527 c 0,0.359 0.074,0.629 0.222,0.809 0.149,0.175 0.403,0.265 0.758,0.265 0.176,0 0.418,-0.035 0.727,-0.101 v 1.238 c -0.403,0.109 -0.793,0.164 -1.172,0.164 -0.68,0 -1.195,-0.207 -1.539,-0.617 -0.348,-0.414 -0.52,-1 -0.52,-1.758 v -5.527 h -1.625 v -1.18 h 1.625 v -2.156 z"
         style="fill:#ffffff;fill-opacity:1;fill-rule:nonzero;stroke:none"
         id="path100" />
      <path
         d="m 176.031,678.734 0.61,-5.984 h 6.148 v 1.41 h -4.855 l -0.364,3.27 c 0.59,-0.344 1.258,-0.516 2.004,-0.516 1.094,0 1.961,0.359 2.606,1.086 0.64,0.719 0.961,1.695 0.961,2.926 0,1.234 -0.332,2.211 -1.004,2.926 -0.664,0.707 -1.594,1.062 -2.793,1.062 -1.059,0 -1.926,-0.293 -2.598,-0.883 -0.668,-0.586 -1.051,-1.398 -1.144,-2.437 h 1.441 c 0.094,0.687 0.34,1.203 0.734,1.554 0.395,0.348 0.918,0.52 1.567,0.52 0.707,0 1.261,-0.242 1.664,-0.723 0.406,-0.484 0.609,-1.152 0.609,-2.004 0,-0.8 -0.219,-1.445 -0.66,-1.929 -0.434,-0.489 -1.012,-0.731 -1.738,-0.731 -0.664,0 -1.184,0.145 -1.563,0.438 l -0.406,0.328 z"
         style="fill:#ffffff;fill-opacity:1;fill-rule:nonzero;stroke:none"
         id="path102" />
      <path
         d="m 192.32,679.633 c 0,1.785 -0.304,3.109 -0.914,3.98 -0.609,0.867 -1.562,1.301 -2.859,1.301 -1.281,0 -2.227,-0.422 -2.844,-1.269 -0.613,-0.852 -0.933,-2.122 -0.953,-3.809 v -2.035 c 0,-1.762 0.305,-3.071 0.914,-3.93 0.609,-0.855 1.563,-1.285 2.867,-1.285 1.289,0 2.239,0.414 2.852,1.246 0.609,0.824 0.922,2.098 0.937,3.82 z m -1.523,-2.086 c 0,-1.289 -0.184,-2.231 -0.543,-2.817 -0.363,-0.593 -0.938,-0.89 -1.723,-0.89 -0.781,0 -1.347,0.293 -1.707,0.883 -0.355,0.586 -0.539,1.488 -0.551,2.707 v 2.441 c 0,1.297 0.188,2.254 0.559,2.875 0.379,0.617 0.949,0.922 1.715,0.922 0.754,0 1.308,-0.289 1.672,-0.871 0.367,-0.582 0.562,-1.5 0.578,-2.754 z"
         style="fill:#ffffff;fill-opacity:1;fill-rule:nonzero;stroke:none"
         id="path104" />
      <path
         d="m 42,401.25 h 232.5 c 2.078,0 3.75,1.949 3.75,4.375 v 122.5 c 0,2.426 -1.672,4.375 -3.75,4.375 H 42 c -2.078,0 -3.75,-1.949 -3.75,-4.375 v -122.5 c 0,-2.426 1.672,-4.375 3.75,-4.375 z"
         style="fill:#71aec0;fill-opacity:1;fill-rule:nonzero;stroke:none"
         id="path106" />
      <path
         d="m 150.285,467.574 h -5.039 v 5.301 h -1.582 v -12 h 7.438 v 1.305 h -5.856 v 4.101 h 5.039 z"
         style="fill:#ffffff;fill-opacity:1;fill-rule:nonzero;stroke:none"
         id="path108" />
      <path
         d="m 154.566,468.176 v 4.699 h -1.582 v -12 h 4.426 c 1.313,0 2.336,0.336 3.082,1.008 0.746,0.668 1.117,1.555 1.117,2.66 0,1.164 -0.367,2.062 -1.093,2.695 -0.731,0.625 -1.77,0.938 -3.125,0.938 z m 0,-1.293 h 2.844 c 0.844,0 1.492,-0.199 1.942,-0.594 0.453,-0.398 0.675,-0.977 0.675,-1.73 0,-0.715 -0.222,-1.286 -0.675,-1.711 -0.45,-0.43 -1.067,-0.653 -1.856,-0.668 h -2.93 z"
         style="fill:#ffffff;fill-opacity:1;fill-rule:nonzero;stroke:none"
         id="path110" />
      <path
         d="m 172.836,472.875 h -1.594 l -6.039,-9.246 v 9.246 h -1.59 v -12 h 1.59 l 6.059,9.289 v -9.289 h 1.574 z"
         style="fill:#ffffff;fill-opacity:1;fill-rule:nonzero;stroke:none"
         id="path112" />
      <path
         d="m 42,348.75 h 67.5 c 2.078,0 3.75,1.672 3.75,3.75 v 30 c 0,2.078 -1.672,3.75 -3.75,3.75 H 42 c -2.078,0 -3.75,-1.672 -3.75,-3.75 v -30 c 0,-2.078 1.672,-3.75 3.75,-3.75 z"
         style="fill:#5875a4;fill-opacity:1;fill-rule:nonzero;stroke:none"
         id="path114" />
      <path
         d="m 58.492,373.5 h -7.859 v -1.098 l 4.152,-4.613 c 0.613,-0.699 1.035,-1.266 1.27,-1.699 0.234,-0.438 0.351,-0.891 0.351,-1.36 0,-0.625 -0.187,-1.14 -0.566,-1.539 -0.379,-0.402 -0.887,-0.601 -1.516,-0.601 -0.758,0 -1.351,0.215 -1.773,0.648 -0.418,0.43 -0.625,1.028 -0.625,1.797 h -1.524 c 0,-1.101 0.352,-1.996 1.063,-2.676 0.711,-0.683 1.664,-1.023 2.859,-1.023 1.114,0 1.996,0.293 2.645,0.883 0.648,0.582 0.972,1.359 0.972,2.332 0,1.179 -0.753,2.586 -2.257,4.219 l -3.215,3.484 h 6.023 z"
         style="fill:#ffffff;fill-opacity:1;fill-rule:nonzero;stroke:none"
         id="path116" />
      <path
         d="m 73.488,369.691 c -0.148,1.27 -0.621,2.25 -1.41,2.942 -0.785,0.687 -1.832,1.031 -3.14,1.031 -1.418,0 -2.555,-0.508 -3.411,-1.523 -0.851,-1.02 -1.277,-2.379 -1.277,-4.082 v -1.153 c 0,-1.113 0.199,-2.094 0.594,-2.941 0.398,-0.848 0.965,-1.492 1.695,-1.945 0.731,-0.458 1.578,-0.684 2.539,-0.684 1.274,0 2.297,0.359 3.067,1.07 0.769,0.711 1.214,1.692 1.343,2.949 h -1.593 c -0.137,-0.953 -0.434,-1.644 -0.899,-2.074 -0.453,-0.429 -1.094,-0.644 -1.918,-0.644 -1.012,0 -1.805,0.375 -2.383,1.121 -0.57,0.75 -0.855,1.812 -0.855,3.191 v 1.16 c 0,1.301 0.273,2.336 0.816,3.106 0.543,0.769 1.305,1.156 2.282,1.156 0.878,0 1.55,-0.199 2.019,-0.594 0.473,-0.402 0.785,-1.097 0.938,-2.086 z"
         style="fill:#ffffff;fill-opacity:1;fill-rule:nonzero;stroke:none"
         id="path118" />
      <path
         d="m 74.988,368.957 c 0,-0.871 0.168,-1.656 0.512,-2.355 0.344,-0.7 0.824,-1.235 1.434,-1.614 0.613,-0.379 1.312,-0.57 2.101,-0.57 1.211,0 2.192,0.422 2.942,1.262 0.75,0.84 1.128,1.957 1.128,3.351 v 0.11 c 0,0.867 -0.167,1.648 -0.503,2.339 -0.329,0.688 -0.805,1.223 -1.426,1.606 -0.617,0.387 -1.324,0.578 -2.125,0.578 -1.211,0 -2.192,-0.422 -2.942,-1.262 -0.75,-0.84 -1.121,-1.953 -1.121,-3.336 z m 1.532,0.184 c 0,0.988 0.23,1.781 0.683,2.379 0.461,0.601 1.078,0.898 1.848,0.898 0.773,0 1.39,-0.301 1.844,-0.906 0.457,-0.61 0.683,-1.461 0.683,-2.555 0,-0.977 -0.23,-1.769 -0.699,-2.371 -0.461,-0.609 -1.078,-0.914 -1.844,-0.914 -0.754,0 -1.359,0.297 -1.824,0.898 -0.461,0.598 -0.691,1.453 -0.691,2.571 z"
         style="fill:#ffffff;fill-opacity:1;fill-rule:nonzero;stroke:none"
         id="path120" />
      <path
         d="m 86.453,364.582 0.047,1.121 c 0.684,-0.855 1.574,-1.285 2.672,-1.285 1.883,0 2.832,1.062 2.851,3.187 v 5.895 h -1.527 v -5.902 c -0.004,-0.641 -0.152,-1.118 -0.441,-1.426 -0.289,-0.305 -0.735,-0.461 -1.344,-0.461 -0.496,0 -0.93,0.133 -1.305,0.394 -0.371,0.266 -0.664,0.614 -0.871,1.04 v 6.355 h -1.523 v -8.918 z"
         style="fill:#ffffff;fill-opacity:1;fill-rule:nonzero;stroke:none"
         id="path122" />
      <path
         d="m 97.25,371.43 2.207,-6.848 h 1.559 L 97.82,373.5 h -1.164 l -3.23,-8.918 h 1.558 z"
         style="fill:#ffffff;fill-opacity:1;fill-rule:nonzero;stroke:none"
         id="path124" />
      <path
         d="m 207,191.25 h 67.5 c 2.078,0 3.75,1.672 3.75,3.75 v 30 c 0,2.078 -1.672,3.75 -3.75,3.75 H 207 c -2.078,0 -3.75,-1.672 -3.75,-3.75 v -30 c 0,-2.078 1.672,-3.75 3.75,-3.75 z"
         style="fill:#5875a4;fill-opacity:1;fill-rule:nonzero;stroke:none"
         id="path126" />
      <path
         d="m 223.492,216 h -7.859 v -1.098 l 4.152,-4.613 c 0.613,-0.699 1.035,-1.266 1.27,-1.699 0.234,-0.438 0.351,-0.891 0.351,-1.36 0,-0.625 -0.187,-1.14 -0.566,-1.539 -0.379,-0.402 -0.887,-0.601 -1.516,-0.601 -0.758,0 -1.351,0.215 -1.773,0.648 -0.418,0.43 -0.625,1.028 -0.625,1.797 h -1.524 c 0,-1.101 0.352,-1.996 1.063,-2.676 0.711,-0.683 1.664,-1.023 2.859,-1.023 1.114,0 1.996,0.293 2.645,0.883 0.648,0.582 0.972,1.359 0.972,2.332 0,1.179 -0.753,2.586 -2.257,4.219 l -3.215,3.484 h 6.023 z"
         style="fill:#ffffff;fill-opacity:1;fill-rule:nonzero;stroke:none"
         id="path128" />
      <path
         d="m 238.488,212.191 c -0.148,1.27 -0.621,2.25 -1.41,2.942 -0.785,0.687 -1.832,1.031 -3.14,1.031 -1.418,0 -2.555,-0.508 -3.411,-1.523 -0.851,-1.02 -1.277,-2.379 -1.277,-4.082 v -1.153 c 0,-1.113 0.199,-2.094 0.594,-2.941 0.398,-0.848 0.965,-1.492 1.695,-1.945 0.731,-0.458 1.578,-0.684 2.539,-0.684 1.274,0 2.297,0.359 3.067,1.07 0.769,0.711 1.214,1.692 1.343,2.949 h -1.593 c -0.137,-0.953 -0.434,-1.644 -0.899,-2.074 -0.453,-0.429 -1.094,-0.644 -1.918,-0.644 -1.012,0 -1.805,0.375 -2.383,1.121 -0.57,0.75 -0.855,1.812 -0.855,3.191 v 1.16 c 0,1.301 0.273,2.336 0.816,3.106 0.543,0.769 1.305,1.156 2.282,1.156 0.878,0 1.55,-0.199 2.019,-0.594 0.473,-0.402 0.785,-1.097 0.938,-2.086 z"
         style="fill:#ffffff;fill-opacity:1;fill-rule:nonzero;stroke:none"
         id="path130" />
      <path
         d="m 239.988,211.457 c 0,-0.871 0.168,-1.656 0.512,-2.355 0.344,-0.7 0.824,-1.235 1.434,-1.614 0.613,-0.379 1.312,-0.57 2.101,-0.57 1.211,0 2.192,0.422 2.942,1.262 0.75,0.84 1.128,1.957 1.128,3.351 v 0.11 c 0,0.867 -0.167,1.648 -0.503,2.339 -0.329,0.688 -0.805,1.223 -1.426,1.606 -0.617,0.387 -1.324,0.578 -2.125,0.578 -1.211,0 -2.192,-0.422 -2.942,-1.262 -0.75,-0.84 -1.121,-1.953 -1.121,-3.336 z m 1.532,0.184 c 0,0.988 0.23,1.781 0.683,2.379 0.461,0.601 1.078,0.898 1.848,0.898 0.773,0 1.39,-0.301 1.844,-0.906 0.457,-0.61 0.683,-1.461 0.683,-2.555 0,-0.977 -0.23,-1.769 -0.699,-2.371 -0.461,-0.609 -1.078,-0.914 -1.844,-0.914 -0.754,0 -1.359,0.297 -1.824,0.898 -0.461,0.598 -0.691,1.453 -0.691,2.571 z"
         style="fill:#ffffff;fill-opacity:1;fill-rule:nonzero;stroke:none"
         id="path132" />
      <path
         d="m 251.453,207.082 0.047,1.121 c 0.684,-0.855 1.574,-1.285 2.672,-1.285 1.883,0 2.832,1.062 2.851,3.187 V 216 h -1.527 v -5.902 c -0.004,-0.641 -0.152,-1.118 -0.441,-1.426 -0.289,-0.305 -0.735,-0.461 -1.344,-0.461 -0.496,0 -0.93,0.133 -1.305,0.394 -0.371,0.266 -0.664,0.614 -0.871,1.04 V 216 h -1.523 v -8.918 z"
         style="fill:#ffffff;fill-opacity:1;fill-rule:nonzero;stroke:none"
         id="path134" />
      <path
         d="m 262.25,213.93 2.207,-6.848 h 1.559 L 262.82,216 h -1.164 l -3.23,-8.918 h 1.558 z"
         style="fill:#ffffff;fill-opacity:1;fill-rule:nonzero;stroke:none"
         id="path136" />
      <path
         d="m 152,243.75 h 67.5 c 2.078,0 3.75,1.672 3.75,3.75 v 30 c 0,2.078 -1.672,3.75 -3.75,3.75 H 152 c -2.078,0 -3.75,-1.672 -3.75,-3.75 v -30 c 0,-2.078 1.672,-3.75 3.75,-3.75 z"
         style="fill:#5875a4;fill-opacity:1;fill-rule:nonzero;stroke:none"
         id="path138" />
      <path
         d="m 168.492,268.5 h -7.859 v -1.098 l 4.152,-4.613 c 0.613,-0.699 1.035,-1.266 1.27,-1.699 0.234,-0.438 0.351,-0.891 0.351,-1.36 0,-0.625 -0.187,-1.14 -0.566,-1.539 -0.379,-0.402 -0.887,-0.601 -1.516,-0.601 -0.758,0 -1.351,0.215 -1.773,0.648 -0.418,0.43 -0.625,1.028 -0.625,1.797 h -1.524 c 0,-1.101 0.352,-1.996 1.063,-2.676 0.711,-0.683 1.664,-1.023 2.859,-1.023 1.114,0 1.996,0.293 2.645,0.883 0.648,0.582 0.972,1.359 0.972,2.332 0,1.179 -0.753,2.586 -2.257,4.219 l -3.215,3.484 h 6.023 z"
         style="fill:#ffffff;fill-opacity:1;fill-rule:nonzero;stroke:none"
         id="path140" />
      <path
         d="m 183.488,264.691 c -0.148,1.27 -0.621,2.25 -1.41,2.942 -0.785,0.687 -1.832,1.031 -3.14,1.031 -1.418,0 -2.555,-0.508 -3.411,-1.523 -0.851,-1.02 -1.277,-2.379 -1.277,-4.082 v -1.153 c 0,-1.113 0.199,-2.094 0.594,-2.941 0.398,-0.848 0.965,-1.492 1.695,-1.945 0.731,-0.458 1.578,-0.684 2.539,-0.684 1.274,0 2.297,0.359 3.067,1.07 0.769,0.711 1.214,1.692 1.343,2.949 h -1.593 c -0.137,-0.953 -0.434,-1.644 -0.899,-2.074 -0.453,-0.429 -1.094,-0.644 -1.918,-0.644 -1.012,0 -1.805,0.375 -2.383,1.121 -0.57,0.75 -0.855,1.812 -0.855,3.191 v 1.16 c 0,1.301 0.273,2.336 0.816,3.106 0.543,0.769 1.305,1.156 2.282,1.156 0.878,0 1.55,-0.199 2.019,-0.594 0.473,-0.402 0.785,-1.097 0.938,-2.086 z"
         style="fill:#ffffff;fill-opacity:1;fill-rule:nonzero;stroke:none"
         id="path142" />
      <path
         d="m 184.988,263.957 c 0,-0.871 0.168,-1.656 0.512,-2.355 0.344,-0.7 0.824,-1.235 1.434,-1.614 0.613,-0.379 1.312,-0.57 2.101,-0.57 1.211,0 2.192,0.422 2.942,1.262 0.75,0.84 1.128,1.957 1.128,3.351 v 0.11 c 0,0.867 -0.167,1.648 -0.503,2.339 -0.329,0.688 -0.805,1.223 -1.426,1.606 -0.617,0.387 -1.324,0.578 -2.125,0.578 -1.211,0 -2.192,-0.422 -2.942,-1.262 -0.75,-0.84 -1.121,-1.953 -1.121,-3.336 z m 1.532,0.184 c 0,0.988 0.23,1.781 0.683,2.379 0.461,0.601 1.078,0.898 1.848,0.898 0.773,0 1.39,-0.301 1.844,-0.906 0.457,-0.61 0.683,-1.461 0.683,-2.555 0,-0.977 -0.23,-1.769 -0.699,-2.371 -0.461,-0.609 -1.078,-0.914 -1.844,-0.914 -0.754,0 -1.359,0.297 -1.824,0.898 -0.461,0.598 -0.691,1.453 -0.691,2.571 z"
         style="fill:#ffffff;fill-opacity:1;fill-rule:nonzero;stroke:none"
         id="path144" />
      <path
         d="m 196.453,259.582 0.047,1.121 c 0.684,-0.855 1.574,-1.285 2.672,-1.285 1.883,0 2.832,1.062 2.851,3.187 v 5.895 h -1.527 v -5.902 c -0.004,-0.641 -0.152,-1.118 -0.441,-1.426 -0.289,-0.305 -0.735,-0.461 -1.344,-0.461 -0.496,0 -0.93,0.133 -1.305,0.394 -0.371,0.266 -0.664,0.614 -0.871,1.04 v 6.355 h -1.523 v -8.918 z"
         style="fill:#ffffff;fill-opacity:1;fill-rule:nonzero;stroke:none"
         id="path146" />
      <path
         d="m 207.25,266.43 2.207,-6.848 h 1.559 l -3.196,8.918 h -1.164 l -3.23,-8.918 h 1.558 z"
         style="fill:#ffffff;fill-opacity:1;fill-rule:nonzero;stroke:none"
         id="path148" />
      <path
         d="m 97,296.25 h 67.5 c 2.078,0 3.75,1.672 3.75,3.75 v 30 c 0,2.078 -1.672,3.75 -3.75,3.75 H 97 c -2.078,0 -3.75,-1.672 -3.75,-3.75 v -30 c 0,-2.078 1.672,-3.75 3.75,-3.75 z"
         style="fill:#5875a4;fill-opacity:1;fill-rule:nonzero;stroke:none"
         id="path150" />
      <path
         d="m 113.492,321 h -7.859 v -1.098 l 4.152,-4.613 c 0.613,-0.699 1.035,-1.266 1.27,-1.699 0.234,-0.438 0.351,-0.891 0.351,-1.36 0,-0.625 -0.187,-1.14 -0.566,-1.539 -0.379,-0.402 -0.887,-0.601 -1.516,-0.601 -0.758,0 -1.351,0.215 -1.773,0.648 -0.418,0.43 -0.625,1.028 -0.625,1.797 h -1.524 c 0,-1.101 0.352,-1.996 1.063,-2.676 0.711,-0.683 1.664,-1.023 2.859,-1.023 1.114,0 1.996,0.293 2.645,0.883 0.648,0.582 0.972,1.359 0.972,2.332 0,1.179 -0.753,2.586 -2.257,4.219 l -3.215,3.484 h 6.023 z"
         style="fill:#ffffff;fill-opacity:1;fill-rule:nonzero;stroke:none"
         id="path152" />
      <path
         d="m 128.488,317.191 c -0.148,1.27 -0.621,2.25 -1.41,2.942 -0.785,0.687 -1.832,1.031 -3.14,1.031 -1.418,0 -2.555,-0.508 -3.411,-1.523 -0.851,-1.02 -1.277,-2.379 -1.277,-4.082 v -1.153 c 0,-1.113 0.199,-2.094 0.594,-2.941 0.398,-0.848 0.965,-1.492 1.695,-1.945 0.731,-0.458 1.578,-0.684 2.539,-0.684 1.274,0 2.297,0.359 3.067,1.07 0.769,0.711 1.214,1.692 1.343,2.949 h -1.593 c -0.137,-0.953 -0.434,-1.644 -0.895,-2.074 -0.457,-0.429 -1.098,-0.644 -1.922,-0.644 -1.012,0 -1.805,0.375 -2.383,1.121 -0.57,0.75 -0.855,1.812 -0.855,3.191 v 1.16 c 0,1.301 0.273,2.336 0.816,3.106 0.543,0.769 1.305,1.156 2.282,1.156 0.878,0 1.55,-0.199 2.019,-0.594 0.473,-0.402 0.785,-1.097 0.938,-2.086 z"
         style="fill:#ffffff;fill-opacity:1;fill-rule:nonzero;stroke:none"
         id="path154" />
      <path
         d="m 129.988,316.457 c 0,-0.871 0.168,-1.656 0.512,-2.355 0.344,-0.7 0.824,-1.235 1.434,-1.614 0.613,-0.379 1.312,-0.57 2.101,-0.57 1.211,0 2.192,0.422 2.942,1.262 0.75,0.84 1.128,1.957 1.128,3.351 v 0.11 c 0,0.867 -0.167,1.648 -0.503,2.339 -0.329,0.688 -0.805,1.223 -1.426,1.606 -0.617,0.387 -1.324,0.578 -2.125,0.578 -1.211,0 -2.192,-0.422 -2.942,-1.262 -0.75,-0.84 -1.121,-1.953 -1.121,-3.336 z m 1.532,0.184 c 0,0.988 0.23,1.781 0.683,2.379 0.461,0.601 1.078,0.898 1.848,0.898 0.773,0 1.39,-0.301 1.844,-0.906 0.457,-0.61 0.683,-1.461 0.683,-2.555 0,-0.977 -0.23,-1.769 -0.699,-2.371 -0.461,-0.609 -1.078,-0.914 -1.844,-0.914 -0.754,0 -1.359,0.297 -1.824,0.898 -0.461,0.598 -0.691,1.453 -0.691,2.571 z"
         style="fill:#ffffff;fill-opacity:1;fill-rule:nonzero;stroke:none"
         id="path156" />
      <path
         d="m 141.453,312.082 0.047,1.121 c 0.684,-0.855 1.574,-1.285 2.672,-1.285 1.883,0 2.832,1.062 2.851,3.187 V 321 h -1.527 v -5.902 c -0.004,-0.641 -0.152,-1.118 -0.441,-1.426 -0.289,-0.305 -0.735,-0.461 -1.344,-0.461 -0.496,0 -0.93,0.133 -1.305,0.394 -0.371,0.266 -0.664,0.614 -0.871,1.04 V 321 h -1.523 v -8.918 z"
         style="fill:#ffffff;fill-opacity:1;fill-rule:nonzero;stroke:none"
         id="path158" />
      <path
         d="m 152.25,318.93 2.207,-6.848 h 1.559 L 152.82,321 h -1.164 l -3.23,-8.918 h 1.558 z"
         style="fill:#ffffff;fill-opacity:1;fill-rule:nonzero;stroke:none"
         id="path160" />
      <g
         id="g162">
        <path
           d="m 8.25,177 h 300 v 647.25 h -300 z"
           style="fill:none;stroke:#cccccc;stroke-width:1.5;stroke-linecap:round;stroke-linejoin:miter;stroke-miterlimit:4;stroke-dasharray:3, 8.99999;stroke-dashoffset:0;stroke-opacity:1"
           id="path164" />
      </g>
    </g>
  </g>
</svg>
