<?xml version="1.0" encoding="UTF-8" standalone="no"?>
<!-- Created with Inkscape (http://www.inkscape.org/) -->

<svg
   version="1.1"
   id="svg2"
   width="844"
   height="1185"
   viewBox="0 0 844 1185"
   sodipodi:docname="architecture-resnetyolo-fusion.svg"
   inkscape:version="1.2.2 (1:1.2.2+202305151914+b0a8486541)"
   xmlns:inkscape="http://www.inkscape.org/namespaces/inkscape"
   xmlns:sodipodi="http://sodipodi.sourceforge.net/DTD/sodipodi-0.dtd"
   xmlns="http://www.w3.org/2000/svg"
   xmlns:svg="http://www.w3.org/2000/svg">
  <defs
     id="defs6" />
  <sodipodi:namedview
     id="namedview4"
     pagecolor="#ffffff"
     bordercolor="#999999"
     borderopacity="1"
     inkscape:showpageshadow="0"
     inkscape:pageopacity="0"
     inkscape:pagecheckerboard="0"
     inkscape:deskcolor="#d1d1d1"
     showgrid="false"
     inkscape:zoom="0.19915612"
     inkscape:cx="-333.9089"
     inkscape:cy="592.5"
     inkscape:window-width="1877"
     inkscape:window-height="1037"
     inkscape:window-x="1963"
     inkscape:window-y="43"
     inkscape:window-maximized="1"
     inkscape:current-layer="g10">
    <inkscape:page
       x="0"
       y="0"
       id="page8"
       width="844"
       height="1185" />
  </sodipodi:namedview>
  <g
     id="g10"
     inkscape:groupmode="layer"
     inkscape:label="Page 1"
     transform="matrix(1.3333333,0,0,1.3333333,0,2.9625e-5)">
    <g
       id="g12">
      <g
         id="g14">
        <path
           d="M 316.5,444.371 V 420.969"
           style="fill:none;stroke:#4d4d4d;stroke-width:1.5;stroke-linecap:butt;stroke-linejoin:miter;stroke-miterlimit:4;stroke-dasharray:none;stroke-opacity:1"
           id="path16" />
      </g>
      <g
         id="g18">
        <path
           d="M 209,444.371 V 420.969"
           style="fill:none;stroke:#4d4d4d;stroke-width:1.5;stroke-linecap:butt;stroke-linejoin:miter;stroke-miterlimit:4;stroke-dasharray:none;stroke-opacity:1"
           id="path20" />
      </g>
      <g
         id="g22">
        <path
           d="M 424,444.371 V 420.969"
           style="fill:none;stroke:#4d4d4d;stroke-width:1.5;stroke-linecap:butt;stroke-linejoin:miter;stroke-miterlimit:4;stroke-dasharray:none;stroke-opacity:1"
           id="path24" />
      </g>
      <g
         id="g26">
        <path
           d="m 158.25,552.887 141,-77.016"
           style="fill:none;stroke:#4d4d4d;stroke-width:1.5;stroke-linecap:butt;stroke-linejoin:miter;stroke-miterlimit:4;stroke-dasharray:none;stroke-opacity:1"
           id="path28" />
      </g>
      <g
         id="g30">
        <path
           d="m 218.25,552.887 256,-77.016"
           style="fill:none;stroke:#4d4d4d;stroke-width:1.5;stroke-linecap:butt;stroke-linejoin:miter;stroke-miterlimit:4;stroke-dasharray:none;stroke-opacity:1"
           id="path32" />
      </g>
      <g
         id="g34">
        <path
           d="m 98.25,552.887 26,-77.016"
           style="fill:none;stroke:#4d4d4d;stroke-width:1.5;stroke-linecap:butt;stroke-linejoin:miter;stroke-miterlimit:4;stroke-dasharray:none;stroke-opacity:1"
           id="path36" />
      </g>
      <g
         id="g38">
        <path
           d="M 158.25,858.434 V 803.211"
           style="fill:none;stroke:#4d4d4d;stroke-width:1.5;stroke-linecap:butt;stroke-linejoin:miter;stroke-miterlimit:4;stroke-dasharray:none;stroke-opacity:1"
           id="path40" />
      </g>
      <path
         d="m 42,843.75 h 232.5 c 2.078,0 3.75,1.672 3.75,3.75 v 30 c 0,2.078 -1.672,3.75 -3.75,3.75 H 42 c -2.078,0 -3.75,-1.672 -3.75,-3.75 v -30 c 0,-2.078 1.672,-3.75 3.75,-3.75 z"
         style="fill:#cb8964;fill-opacity:1;fill-rule:nonzero;stroke:none"
         id="path42" />
      <path
         d="m 147.629,863.645 h -2.817 v 4.855 h -1.593 v -12 h 3.972 c 1.352,0 2.391,0.309 3.118,0.926 0.73,0.613 1.093,1.508 1.093,2.683 0,0.75 -0.203,1.399 -0.609,1.953 -0.402,0.555 -0.961,0.969 -1.68,1.247 l 2.817,5.089 v 0.102 h -1.696 z m -2.817,-1.293 h 2.43 c 0.785,0 1.41,-0.204 1.871,-0.61 0.465,-0.406 0.699,-0.949 0.699,-1.633 0,-0.742 -0.222,-1.308 -0.667,-1.703 -0.438,-0.398 -1.075,-0.597 -1.911,-0.601 h -2.422 z"
         style="fill:#ffffff;fill-opacity:1;fill-rule:nonzero;stroke:none"
         id="path44" />
      <path
         d="m 162.465,866.926 c -0.406,0.582 -0.977,1.019 -1.707,1.308 -0.723,0.286 -1.57,0.43 -2.535,0.43 -0.981,0 -1.848,-0.23 -2.606,-0.684 -0.758,-0.46 -1.344,-1.117 -1.762,-1.96 -0.414,-0.848 -0.625,-1.829 -0.636,-2.942 v -1.047 c 0,-1.808 0.422,-3.207 1.261,-4.203 0.848,-0.996 2.032,-1.492 3.559,-1.492 1.254,0 2.262,0.32 3.023,0.965 0.766,0.637 1.231,1.543 1.403,2.719 h -1.582 c -0.297,-1.586 -1.242,-2.383 -2.836,-2.383 -1.059,0 -1.863,0.375 -2.414,1.121 -0.543,0.742 -0.817,1.82 -0.824,3.23 v 0.981 c 0,1.347 0.308,2.418 0.925,3.215 0.614,0.789 1.446,1.187 2.496,1.187 0.594,0 1.114,-0.066 1.555,-0.199 0.445,-0.133 0.817,-0.356 1.106,-0.668 v -2.695 h -2.778 v -1.286 h 4.352 z"
         style="fill:#ffffff;fill-opacity:1;fill-rule:nonzero;stroke:none"
         id="path46" />
      <path
         d="m 165.098,868.5 v -12 h 3.922 c 1.304,0 2.281,0.27 2.933,0.809 0.66,0.539 0.988,1.336 0.988,2.39 0,0.559 -0.156,1.059 -0.476,1.492 -0.317,0.426 -0.754,0.758 -1.301,0.997 0.648,0.179 1.16,0.527 1.531,1.039 0.379,0.503 0.571,1.109 0.571,1.812 0,1.074 -0.352,1.922 -1.047,2.535 -0.699,0.617 -1.684,0.926 -2.957,0.926 z m 1.582,-5.613 v 4.316 h 2.613 c 0.734,0 1.316,-0.187 1.738,-0.566 0.43,-0.387 0.645,-0.914 0.645,-1.582 0,-1.446 -0.785,-2.168 -2.36,-2.168 z m 0,-1.27 h 2.39 c 0.692,0 1.246,-0.172 1.657,-0.519 0.418,-0.344 0.625,-0.813 0.625,-1.407 0,-0.66 -0.192,-1.136 -0.575,-1.433 -0.386,-0.305 -0.972,-0.453 -1.757,-0.453 h -2.34 z"
         style="fill:#ffffff;fill-opacity:1;fill-rule:nonzero;stroke:none"
         id="path48" />
      <path
         d="m 128.453,754.895 h -2.816 v 4.855 h -1.59 v -12 h 3.973 c 1.351,0 2.386,0.309 3.113,0.926 0.73,0.613 1.097,1.508 1.097,2.683 0,0.75 -0.203,1.399 -0.613,1.953 -0.398,0.555 -0.961,0.969 -1.679,1.247 l 2.82,5.089 v 0.102 h -1.699 z m -2.816,-1.293 h 2.429 c 0.786,0 1.411,-0.204 1.872,-0.61 0.468,-0.406 0.699,-0.949 0.699,-1.633 0,-0.742 -0.219,-1.308 -0.664,-1.703 -0.442,-0.398 -1.078,-0.597 -1.914,-0.601 h -2.422 z"
         style="fill:#ffffff;fill-opacity:1;fill-rule:nonzero;stroke:none"
         id="path50" />
      <path
         d="m 137.895,759.914 c -1.211,0 -2.192,-0.394 -2.95,-1.187 -0.757,-0.797 -1.136,-1.86 -1.136,-3.188 v -0.281 c 0,-0.883 0.164,-1.672 0.5,-2.363 0.339,-0.7 0.812,-1.243 1.418,-1.633 0.609,-0.395 1.269,-0.594 1.976,-0.594 1.16,0 2.063,0.383 2.703,1.144 0.645,0.766 0.965,1.86 0.965,3.282 v 0.633 h -6.039 c 0.02,0.878 0.277,1.589 0.766,2.136 0.496,0.535 1.121,0.805 1.879,0.805 0.539,0 0.992,-0.109 1.367,-0.328 0.375,-0.219 0.699,-0.512 0.98,-0.875 l 0.93,0.726 c -0.746,1.149 -1.867,1.723 -3.359,1.723 z m -0.192,-7.992 c -0.613,0 -1.129,0.223 -1.547,0.676 -0.418,0.445 -0.676,1.07 -0.777,1.879 h 4.469 v -0.118 c -0.043,-0.773 -0.254,-1.371 -0.629,-1.797 -0.371,-0.425 -0.879,-0.64 -1.516,-0.64 z"
         style="fill:#ffffff;fill-opacity:1;fill-rule:nonzero;stroke:none"
         id="path52" />
      <path
         d="m 148.312,757.383 c 0,-0.41 -0.156,-0.731 -0.468,-0.953 -0.309,-0.235 -0.852,-0.43 -1.625,-0.594 -0.77,-0.168 -1.383,-0.363 -1.836,-0.594 -0.453,-0.23 -0.785,-0.508 -1.008,-0.824 -0.211,-0.32 -0.32,-0.699 -0.32,-1.137 0,-0.73 0.308,-1.347 0.922,-1.855 0.621,-0.504 1.414,-0.758 2.375,-0.758 1.011,0 1.828,0.262 2.453,0.781 0.633,0.524 0.949,1.192 0.949,2.004 h -1.531 c 0,-0.418 -0.18,-0.777 -0.535,-1.078 -0.352,-0.305 -0.797,-0.453 -1.336,-0.453 -0.555,0 -0.989,0.121 -1.301,0.363 -0.317,0.238 -0.473,0.555 -0.473,0.945 0,0.368 0.149,0.645 0.438,0.832 0.293,0.188 0.816,0.368 1.574,0.536 0.765,0.172 1.383,0.375 1.855,0.609 0.473,0.238 0.821,0.523 1.047,0.859 0.231,0.329 0.344,0.731 0.344,1.211 0,0.797 -0.316,1.438 -0.957,1.918 -0.637,0.481 -1.461,0.719 -2.477,0.719 -0.714,0 -1.347,-0.129 -1.898,-0.379 -0.547,-0.254 -0.981,-0.605 -1.293,-1.055 -0.309,-0.457 -0.461,-0.949 -0.461,-1.476 h 1.523 c 0.028,0.512 0.231,0.918 0.61,1.219 0.387,0.297 0.89,0.445 1.519,0.445 0.575,0 1.036,-0.113 1.383,-0.344 0.352,-0.238 0.527,-0.551 0.527,-0.941 z"
         style="fill:#ffffff;fill-opacity:1;fill-rule:nonzero;stroke:none"
         id="path54" />
      <path
         d="m 153.254,750.832 0.051,1.121 c 0.679,-0.855 1.57,-1.285 2.668,-1.285 1.882,0 2.836,1.062 2.851,3.187 v 5.895 h -1.523 v -5.902 c -0.008,-0.641 -0.156,-1.118 -0.446,-1.426 -0.285,-0.305 -0.734,-0.461 -1.343,-0.461 -0.496,0 -0.93,0.133 -1.301,0.398 -0.375,0.262 -0.668,0.61 -0.875,1.036 v 6.355 h -1.524 v -8.918 z"
         style="fill:#ffffff;fill-opacity:1;fill-rule:nonzero;stroke:none"
         id="path56" />
      <path
         d="m 164.809,759.914 c -1.207,0 -2.192,-0.394 -2.95,-1.187 -0.757,-0.797 -1.136,-1.86 -1.136,-3.188 v -0.281 c 0,-0.883 0.168,-1.672 0.504,-2.363 0.339,-0.7 0.812,-1.243 1.414,-1.633 0.613,-0.395 1.269,-0.594 1.98,-0.594 1.156,0 2.059,0.383 2.703,1.144 0.641,0.766 0.961,1.86 0.961,3.282 v 0.633 h -6.039 c 0.024,0.878 0.277,1.589 0.766,2.136 0.496,0.535 1.121,0.805 1.879,0.805 0.539,0 0.996,-0.109 1.367,-0.328 0.375,-0.219 0.703,-0.512 0.98,-0.875 l 0.934,0.726 c -0.746,1.149 -1.867,1.723 -3.363,1.723 z m -0.188,-7.992 c -0.617,0 -1.133,0.223 -1.551,0.676 -0.418,0.445 -0.675,1.07 -0.773,1.879 h 4.465 v -0.118 c -0.043,-0.773 -0.254,-1.371 -0.625,-1.797 -0.375,-0.425 -0.879,-0.64 -1.516,-0.64 z"
         style="fill:#ffffff;fill-opacity:1;fill-rule:nonzero;stroke:none"
         id="path58" />
      <path
         d="m 172.105,748.676 v 2.156 h 1.665 v 1.18 h -1.665 v 5.527 c 0,0.359 0.075,0.629 0.223,0.809 0.149,0.175 0.399,0.265 0.758,0.265 0.176,0 0.418,-0.035 0.723,-0.101 v 1.238 c -0.399,0.109 -0.789,0.164 -1.168,0.164 -0.68,0 -1.196,-0.207 -1.539,-0.617 -0.348,-0.414 -0.52,-1 -0.52,-1.758 v -5.527 h -1.625 v -1.18 h 1.625 v -2.156 z"
         style="fill:#ffffff;fill-opacity:1;fill-rule:nonzero;stroke:none"
         id="path60" />
      <path
         d="m 176.082,753.734 0.609,-5.984 h 6.149 v 1.41 h -4.856 l -0.363,3.274 c 0.59,-0.348 1.258,-0.52 2.004,-0.52 1.094,0 1.961,0.359 2.605,1.086 0.641,0.719 0.961,1.695 0.961,2.926 0,1.234 -0.332,2.211 -1.003,2.926 -0.665,0.707 -1.598,1.062 -2.793,1.062 -1.063,0 -1.926,-0.293 -2.598,-0.883 -0.668,-0.586 -1.051,-1.398 -1.145,-2.437 h 1.442 c 0.094,0.687 0.34,1.203 0.734,1.554 0.395,0.348 0.918,0.52 1.567,0.52 0.707,0 1.261,-0.242 1.664,-0.723 0.406,-0.484 0.609,-1.152 0.609,-2.004 0,-0.8 -0.219,-1.445 -0.66,-1.925 -0.434,-0.493 -1.012,-0.735 -1.738,-0.735 -0.665,0 -1.184,0.145 -1.567,0.438 l -0.402,0.328 z"
         style="fill:#ffffff;fill-opacity:1;fill-rule:nonzero;stroke:none"
         id="path62" />
      <path
         d="m 192.371,754.633 c 0,1.785 -0.305,3.109 -0.914,3.98 -0.609,0.867 -1.562,1.301 -2.859,1.301 -1.282,0 -2.227,-0.422 -2.844,-1.269 -0.613,-0.852 -0.934,-2.122 -0.953,-3.809 v -2.035 c 0,-1.762 0.304,-3.071 0.914,-3.93 0.609,-0.855 1.562,-1.285 2.867,-1.285 1.289,0 2.238,0.414 2.852,1.246 0.609,0.824 0.921,2.098 0.937,3.82 z m -1.523,-2.086 c 0,-1.289 -0.184,-2.231 -0.543,-2.817 -0.364,-0.593 -0.938,-0.89 -1.723,-0.89 -0.781,0 -1.352,0.293 -1.707,0.883 -0.355,0.586 -0.539,1.488 -0.551,2.711 v 2.437 c 0,1.297 0.188,2.254 0.559,2.875 0.379,0.617 0.949,0.922 1.715,0.922 0.754,0 1.308,-0.289 1.672,-0.871 0.367,-0.582 0.562,-1.5 0.578,-2.754 z"
         style="fill:#ffffff;fill-opacity:1;fill-rule:nonzero;stroke:none"
         id="path64" />
      <g
         id="g66">
        <path
           d="M 344,141.816 V 34.094"
           style="fill:none;stroke:#4d4d4d;stroke-width:1.5;stroke-linecap:butt;stroke-linejoin:miter;stroke-miterlimit:4;stroke-dasharray:none;stroke-opacity:1"
           id="path68" />
      </g>
      <g
         id="g70">
        <path
           d="M 289,194.316 V 34.094"
           style="fill:none;stroke:#4d4d4d;stroke-width:1.5;stroke-linecap:butt;stroke-linejoin:miter;stroke-miterlimit:4;stroke-dasharray:none;stroke-opacity:1"
           id="path72" />
      </g>
      <g
         id="g74">
        <path
           d="M 234,246.816 V 34.094"
           style="fill:none;stroke:#4d4d4d;stroke-width:1.5;stroke-linecap:butt;stroke-linejoin:miter;stroke-miterlimit:4;stroke-dasharray:none;stroke-opacity:1"
           id="path76" />
      </g>
      <g
         id="g78">
        <path
           d="M 399,89.316 V 34.094"
           style="fill:none;stroke:#4d4d4d;stroke-width:1.5;stroke-linecap:butt;stroke-linejoin:miter;stroke-miterlimit:4;stroke-dasharray:none;stroke-opacity:1"
           id="path80" />
      </g>
      <g
         id="g82">
        <path
           d="M 344,298.715 V 170.316"
           style="fill:none;stroke:#4d4d4d;stroke-width:1.5;stroke-linecap:butt;stroke-linejoin:miter;stroke-miterlimit:4;stroke-dasharray:none;stroke-opacity:1"
           id="path84" />
      </g>
      <g
         id="g86">
        <path
           d="M 399,298.715 V 117.816"
           style="fill:none;stroke:#4d4d4d;stroke-width:1.5;stroke-linecap:butt;stroke-linejoin:miter;stroke-miterlimit:4;stroke-dasharray:none;stroke-opacity:1"
           id="path88" />
      </g>
      <g
         id="g90">
        <path
           d="M 289,298.715 V 222.816"
           style="fill:none;stroke:#4d4d4d;stroke-width:1.5;stroke-linecap:butt;stroke-linejoin:miter;stroke-miterlimit:4;stroke-dasharray:none;stroke-opacity:1"
           id="path92" />
      </g>
      <g
         id="g94">
        <path
           d="M 234,298.715 V 275.316"
           style="fill:none;stroke:#4d4d4d;stroke-width:1.5;stroke-linecap:butt;stroke-linejoin:miter;stroke-miterlimit:4;stroke-dasharray:none;stroke-opacity:1"
           id="path96" />
      </g>
      <path
         d="m 200.25,1.094 h 232.5 c 2.078,0 3.75,1.672 3.75,3.75 v 30 c 0,2.078 -1.672,3.75 -3.75,3.75 h -232.5 c -2.078,0 -3.75,-1.672 -3.75,-3.75 v -30 c 0,-2.078 1.672,-3.75 3.75,-3.75 z"
         style="fill:#b55d60;fill-opacity:1;fill-rule:nonzero;stroke:none"
         id="path98" />
      <path
         d="m 301.594,18.602 c 0,1.175 -0.196,2.203 -0.594,3.082 -0.395,0.871 -0.953,1.539 -1.68,2 -0.726,0.461 -1.57,0.691 -2.539,0.691 -0.945,0 -1.781,-0.23 -2.511,-0.691 -0.731,-0.465 -1.301,-1.129 -1.708,-1.985 -0.398,-0.863 -0.605,-1.859 -0.617,-2.992 v -0.863 c 0,-1.156 0.2,-2.172 0.602,-3.059 0.402,-0.883 0.969,-1.558 1.699,-2.027 0.734,-0.473 1.574,-0.707 2.52,-0.707 0.961,0 1.808,0.234 2.539,0.699 0.734,0.461 1.3,1.133 1.695,2.02 0.398,0.878 0.594,1.902 0.594,3.074 z m -1.574,-0.778 c 0,-1.422 -0.286,-2.512 -0.856,-3.269 -0.57,-0.762 -1.371,-1.145 -2.398,-1.145 -1,0 -1.789,0.383 -2.364,1.145 -0.574,0.757 -0.867,1.812 -0.882,3.164 v 0.883 c 0,1.378 0.289,2.46 0.863,3.253 0.582,0.786 1.383,1.18 2.398,1.18 1.024,0 1.813,-0.371 2.375,-1.113 0.559,-0.746 0.848,-1.817 0.864,-3.207 z"
         style="fill:#ffffff;fill-opacity:1;fill-rule:nonzero;stroke:none"
         id="path100" />
      <path
         d="m 309.223,23.332 c -0.594,0.695 -1.461,1.043 -2.61,1.043 -0.953,0 -1.675,-0.273 -2.175,-0.824 -0.497,-0.555 -0.747,-1.371 -0.75,-2.453 v -5.801 h 1.523 v 5.758 c 0,1.351 0.551,2.027 1.648,2.027 1.164,0 1.938,-0.434 2.325,-1.301 v -6.484 h 1.523 v 8.914 h -1.449 z"
         style="fill:#ffffff;fill-opacity:1;fill-rule:nonzero;stroke:none"
         id="path102" />
      <path
         d="m 315.086,13.137 v 2.16 h 1.664 v 1.18 h -1.664 v 5.527 c 0,0.355 0.074,0.625 0.223,0.808 0.148,0.176 0.402,0.262 0.757,0.262 0.176,0 0.418,-0.031 0.727,-0.097 v 1.234 c -0.402,0.109 -0.793,0.164 -1.172,0.164 -0.68,0 -1.195,-0.203 -1.539,-0.617 -0.348,-0.41 -0.52,-0.996 -0.52,-1.754 v -5.527 h -1.624 v -1.18 h 1.624 v -2.16 z"
         style="fill:#ffffff;fill-opacity:1;fill-rule:nonzero;stroke:none"
         id="path104" />
      <path
         d="m 326.051,19.852 c 0,1.359 -0.313,2.453 -0.93,3.281 -0.621,0.828 -1.465,1.242 -2.523,1.242 -1.082,0 -1.934,-0.34 -2.555,-1.027 v 4.293 H 318.52 V 15.297 h 1.39 l 0.074,0.988 c 0.621,-0.769 1.485,-1.152 2.59,-1.152 1.071,0 1.918,0.402 2.535,1.211 0.629,0.808 0.942,1.929 0.942,3.371 z m -1.524,-0.172 c 0,-1.004 -0.215,-1.797 -0.644,-2.383 -0.43,-0.582 -1.016,-0.871 -1.762,-0.871 -0.926,0 -1.617,0.41 -2.078,1.226 v 4.262 c 0.457,0.813 1.152,1.219 2.094,1.219 0.73,0 1.308,-0.289 1.738,-0.867 0.434,-0.582 0.652,-1.442 0.652,-2.586 z"
         style="fill:#ffffff;fill-opacity:1;fill-rule:nonzero;stroke:none"
         id="path106" />
      <path
         d="m 333.492,23.332 c -0.594,0.695 -1.465,1.043 -2.613,1.043 -0.949,0 -1.676,-0.273 -2.176,-0.824 -0.496,-0.555 -0.746,-1.371 -0.75,-2.453 v -5.801 h 1.524 v 5.758 c 0,1.351 0.55,2.027 1.648,2.027 1.164,0 1.941,-0.434 2.324,-1.301 v -6.484 h 1.524 v 8.914 h -1.45 z"
         style="fill:#ffffff;fill-opacity:1;fill-rule:nonzero;stroke:none"
         id="path108" />
      <path
         d="m 339.352,13.137 v 2.16 h 1.664 v 1.18 h -1.664 v 5.527 c 0,0.355 0.074,0.625 0.222,0.808 0.149,0.176 0.403,0.262 0.758,0.262 0.176,0 0.418,-0.031 0.727,-0.097 v 1.234 c -0.403,0.109 -0.793,0.164 -1.172,0.164 -0.68,0 -1.196,-0.203 -1.539,-0.617 -0.348,-0.41 -0.52,-0.996 -0.52,-1.754 v -5.527 h -1.625 v -1.18 h 1.625 v -2.16 z"
         style="fill:#ffffff;fill-opacity:1;fill-rule:nonzero;stroke:none"
         id="path110" />
      <path
         d="m 200.25,242.316 h 67.5 c 2.078,0 3.75,1.672 3.75,3.75 v 30 c 0,2.079 -1.672,3.75 -3.75,3.75 h -67.5 c -2.078,0 -3.75,-1.671 -3.75,-3.75 v -30 c 0,-2.078 1.672,-3.75 3.75,-3.75 z"
         style="fill:#5875a4;fill-opacity:1;fill-rule:nonzero;stroke:none"
         id="path112" />
      <path
         d="m 216.742,267.066 h -7.859 v -1.097 l 4.152,-4.614 c 0.613,-0.695 1.035,-1.261 1.27,-1.695 0.234,-0.441 0.351,-0.894 0.351,-1.359 0,-0.629 -0.187,-1.141 -0.566,-1.543 -0.379,-0.403 -0.887,-0.602 -1.516,-0.602 -0.758,0 -1.351,0.219 -1.773,0.653 -0.418,0.425 -0.625,1.027 -0.625,1.796 h -1.524 c 0,-1.105 0.352,-2 1.063,-2.679 0.711,-0.68 1.664,-1.024 2.859,-1.024 1.114,0 1.996,0.297 2.645,0.883 0.648,0.582 0.972,1.36 0.972,2.332 0,1.18 -0.753,2.586 -2.257,4.219 l -3.215,3.484 h 6.023 z"
         style="fill:#ffffff;fill-opacity:1;fill-rule:nonzero;stroke:none"
         id="path114" />
      <path
         d="m 231.754,263.258 c -0.149,1.269 -0.617,2.25 -1.41,2.941 -0.785,0.688 -1.832,1.031 -3.141,1.031 -1.414,0 -2.551,-0.507 -3.41,-1.523 -0.852,-1.016 -1.277,-2.375 -1.277,-4.078 v -1.156 c 0,-1.114 0.199,-2.094 0.593,-2.942 0.403,-0.843 0.969,-1.492 1.7,-1.941 0.73,-0.457 1.574,-0.688 2.535,-0.688 1.277,0 2.297,0.36 3.066,1.075 0.77,0.707 1.219,1.691 1.344,2.949 h -1.59 c -0.137,-0.957 -0.437,-1.649 -0.898,-2.078 -0.457,-0.426 -1.098,-0.641 -1.922,-0.641 -1.008,0 -1.805,0.371 -2.379,1.121 -0.574,0.746 -0.86,1.809 -0.86,3.188 v 1.16 c 0,1.304 0.274,2.34 0.817,3.109 0.543,0.77 1.305,1.153 2.281,1.153 0.879,0 1.555,-0.2 2.02,-0.594 0.472,-0.403 0.785,-1.094 0.941,-2.086 z"
         style="fill:#ffffff;fill-opacity:1;fill-rule:nonzero;stroke:none"
         id="path116" />
      <path
         d="m 233.254,262.527 c 0,-0.875 0.172,-1.66 0.512,-2.359 0.347,-0.695 0.824,-1.234 1.433,-1.613 0.613,-0.379 1.317,-0.571 2.102,-0.571 1.215,0 2.195,0.422 2.941,1.262 0.754,0.84 1.129,1.957 1.129,3.356 v 0.105 c 0,0.867 -0.168,1.648 -0.504,2.34 -0.328,0.687 -0.805,1.223 -1.426,1.605 -0.613,0.387 -1.324,0.578 -2.125,0.578 -1.207,0 -2.187,-0.418 -2.941,-1.261 -0.746,-0.84 -1.121,-1.953 -1.121,-3.336 z m 1.535,0.18 c 0,0.988 0.227,1.781 0.684,2.383 0.461,0.598 1.074,0.898 1.843,0.898 0.774,0 1.391,-0.304 1.848,-0.906 0.453,-0.613 0.684,-1.461 0.684,-2.555 0,-0.98 -0.235,-1.769 -0.703,-2.375 -0.461,-0.609 -1.075,-0.914 -1.844,-0.914 -0.754,0 -1.36,0.301 -1.821,0.899 -0.46,0.597 -0.691,1.457 -0.691,2.57 z"
         style="fill:#ffffff;fill-opacity:1;fill-rule:nonzero;stroke:none"
         id="path118" />
      <path
         d="m 244.719,258.152 0.051,1.118 c 0.679,-0.856 1.57,-1.286 2.668,-1.286 1.886,0 2.835,1.067 2.851,3.192 v 5.89 h -1.523 v -5.898 c -0.008,-0.645 -0.157,-1.121 -0.446,-1.426 -0.285,-0.308 -0.734,-0.461 -1.343,-0.461 -0.497,0 -0.93,0.129 -1.301,0.395 -0.375,0.262 -0.664,0.609 -0.875,1.039 v 6.351 h -1.524 v -8.914 z"
         style="fill:#ffffff;fill-opacity:1;fill-rule:nonzero;stroke:none"
         id="path120" />
      <path
         d="m 255.516,264.996 2.211,-6.844 h 1.554 l -3.195,8.914 h -1.164 l -3.227,-8.914 h 1.555 z"
         style="fill:#ffffff;fill-opacity:1;fill-rule:nonzero;stroke:none"
         id="path122" />
      <path
         d="m 365.25,84.816 h 67.5 c 2.078,0 3.75,1.672 3.75,3.75 v 30 c 0,2.079 -1.672,3.75 -3.75,3.75 h -67.5 c -2.078,0 -3.75,-1.671 -3.75,-3.75 v -30 c 0,-2.078 1.672,-3.75 3.75,-3.75 z"
         style="fill:#5875a4;fill-opacity:1;fill-rule:nonzero;stroke:none"
         id="path124" />
      <path
         d="m 381.742,109.566 h -7.859 v -1.097 l 4.152,-4.614 c 0.613,-0.695 1.035,-1.261 1.27,-1.695 0.234,-0.441 0.351,-0.894 0.351,-1.359 0,-0.629 -0.187,-1.141 -0.566,-1.543 -0.379,-0.403 -0.887,-0.602 -1.516,-0.602 -0.758,0 -1.351,0.219 -1.773,0.653 -0.418,0.425 -0.625,1.027 -0.625,1.796 h -1.524 c 0,-1.105 0.352,-2 1.063,-2.679 0.711,-0.68 1.664,-1.024 2.859,-1.024 1.114,0 1.996,0.297 2.645,0.883 0.648,0.582 0.972,1.36 0.972,2.332 0,1.18 -0.753,2.586 -2.257,4.219 l -3.215,3.484 h 6.023 z"
         style="fill:#ffffff;fill-opacity:1;fill-rule:nonzero;stroke:none"
         id="path126" />
      <path
         d="m 396.754,105.758 c -0.149,1.269 -0.617,2.25 -1.41,2.941 -0.785,0.688 -1.832,1.031 -3.141,1.031 -1.414,0 -2.551,-0.507 -3.41,-1.523 -0.852,-1.016 -1.277,-2.375 -1.277,-4.078 v -1.156 c 0,-1.114 0.199,-2.094 0.593,-2.942 0.403,-0.843 0.969,-1.492 1.7,-1.941 0.73,-0.457 1.574,-0.688 2.535,-0.688 1.277,0 2.297,0.36 3.066,1.075 0.77,0.707 1.219,1.691 1.344,2.949 h -1.59 c -0.137,-0.957 -0.437,-1.649 -0.898,-2.078 -0.457,-0.426 -1.098,-0.641 -1.922,-0.641 -1.008,0 -1.805,0.371 -2.379,1.121 -0.574,0.746 -0.86,1.809 -0.86,3.188 v 1.16 c 0,1.304 0.274,2.34 0.817,3.109 0.543,0.766 1.305,1.153 2.281,1.153 0.879,0 1.555,-0.2 2.02,-0.594 0.472,-0.403 0.785,-1.094 0.941,-2.086 z"
         style="fill:#ffffff;fill-opacity:1;fill-rule:nonzero;stroke:none"
         id="path128" />
      <path
         d="m 398.254,105.027 c 0,-0.875 0.172,-1.66 0.512,-2.359 0.347,-0.695 0.824,-1.234 1.433,-1.613 0.613,-0.379 1.317,-0.571 2.102,-0.571 1.215,0 2.195,0.422 2.941,1.262 0.754,0.84 1.129,1.957 1.129,3.356 v 0.105 c 0,0.867 -0.168,1.648 -0.504,2.34 -0.328,0.687 -0.805,1.223 -1.426,1.605 -0.613,0.387 -1.324,0.578 -2.125,0.578 -1.207,0 -2.187,-0.418 -2.941,-1.261 -0.746,-0.84 -1.121,-1.953 -1.121,-3.336 z m 1.535,0.18 c 0,0.988 0.227,1.781 0.684,2.383 0.461,0.598 1.074,0.898 1.843,0.898 0.774,0 1.391,-0.304 1.848,-0.906 0.453,-0.613 0.684,-1.465 0.684,-2.555 0,-0.98 -0.235,-1.769 -0.703,-2.375 -0.461,-0.609 -1.075,-0.914 -1.844,-0.914 -0.754,0 -1.36,0.301 -1.821,0.899 -0.46,0.597 -0.691,1.457 -0.691,2.57 z"
         style="fill:#ffffff;fill-opacity:1;fill-rule:nonzero;stroke:none"
         id="path130" />
      <path
         d="m 409.719,100.652 0.051,1.118 c 0.679,-0.856 1.57,-1.286 2.668,-1.286 1.886,0 2.835,1.063 2.851,3.192 v 5.89 h -1.523 v -5.898 c -0.008,-0.645 -0.157,-1.121 -0.446,-1.426 -0.285,-0.308 -0.734,-0.461 -1.343,-0.461 -0.497,0 -0.93,0.129 -1.301,0.395 -0.375,0.262 -0.664,0.609 -0.875,1.039 v 6.351 h -1.524 v -8.914 z"
         style="fill:#ffffff;fill-opacity:1;fill-rule:nonzero;stroke:none"
         id="path132" />
      <path
         d="m 420.516,107.496 2.211,-6.844 h 1.554 l -3.195,8.914 h -1.164 l -3.227,-8.914 h 1.555 z"
         style="fill:#ffffff;fill-opacity:1;fill-rule:nonzero;stroke:none"
         id="path134" />
      <path
         d="m 310.25,137.316 h 67.5 c 2.078,0 3.75,1.672 3.75,3.75 v 30 c 0,2.079 -1.672,3.75 -3.75,3.75 h -67.5 c -2.078,0 -3.75,-1.671 -3.75,-3.75 v -30 c 0,-2.078 1.672,-3.75 3.75,-3.75 z"
         style="fill:#5875a4;fill-opacity:1;fill-rule:nonzero;stroke:none"
         id="path136" />
      <path
         d="m 326.742,162.066 h -7.859 v -1.097 l 4.152,-4.614 c 0.613,-0.695 1.035,-1.261 1.27,-1.695 0.234,-0.441 0.351,-0.894 0.351,-1.359 0,-0.629 -0.187,-1.141 -0.566,-1.543 -0.379,-0.403 -0.887,-0.602 -1.516,-0.602 -0.758,0 -1.351,0.219 -1.773,0.653 -0.418,0.425 -0.625,1.027 -0.625,1.796 h -1.524 c 0,-1.105 0.352,-2 1.063,-2.679 0.711,-0.68 1.664,-1.024 2.859,-1.024 1.114,0 1.996,0.297 2.645,0.883 0.648,0.582 0.972,1.36 0.972,2.332 0,1.18 -0.753,2.586 -2.257,4.219 l -3.215,3.484 h 6.023 z"
         style="fill:#ffffff;fill-opacity:1;fill-rule:nonzero;stroke:none"
         id="path138" />
      <path
         d="m 341.754,158.258 c -0.149,1.269 -0.617,2.25 -1.41,2.941 -0.785,0.688 -1.832,1.031 -3.141,1.031 -1.414,0 -2.551,-0.507 -3.41,-1.523 -0.852,-1.016 -1.277,-2.375 -1.277,-4.078 v -1.156 c 0,-1.114 0.199,-2.094 0.593,-2.942 0.403,-0.843 0.969,-1.492 1.7,-1.941 0.73,-0.457 1.574,-0.688 2.535,-0.688 1.277,0 2.297,0.36 3.066,1.075 0.77,0.707 1.219,1.691 1.344,2.949 h -1.59 c -0.137,-0.957 -0.437,-1.649 -0.898,-2.078 -0.457,-0.426 -1.098,-0.641 -1.922,-0.641 -1.008,0 -1.805,0.371 -2.379,1.121 -0.574,0.746 -0.86,1.809 -0.86,3.188 v 1.16 c 0,1.304 0.274,2.34 0.817,3.109 0.543,0.77 1.305,1.153 2.281,1.153 0.879,0 1.555,-0.2 2.02,-0.594 0.472,-0.403 0.785,-1.094 0.941,-2.086 z"
         style="fill:#ffffff;fill-opacity:1;fill-rule:nonzero;stroke:none"
         id="path140" />
      <path
         d="m 343.254,157.527 c 0,-0.875 0.172,-1.66 0.512,-2.359 0.347,-0.695 0.824,-1.234 1.433,-1.613 0.613,-0.379 1.317,-0.571 2.102,-0.571 1.215,0 2.195,0.422 2.941,1.262 0.754,0.84 1.129,1.957 1.129,3.356 v 0.105 c 0,0.867 -0.168,1.648 -0.504,2.34 -0.328,0.687 -0.805,1.223 -1.426,1.605 -0.613,0.387 -1.324,0.578 -2.125,0.578 -1.207,0 -2.187,-0.418 -2.941,-1.261 -0.746,-0.84 -1.121,-1.953 -1.121,-3.336 z m 1.535,0.18 c 0,0.988 0.227,1.781 0.684,2.383 0.461,0.598 1.074,0.898 1.843,0.898 0.774,0 1.391,-0.304 1.848,-0.906 0.453,-0.613 0.684,-1.461 0.684,-2.555 0,-0.98 -0.235,-1.769 -0.703,-2.375 -0.461,-0.609 -1.075,-0.914 -1.844,-0.914 -0.754,0 -1.36,0.301 -1.821,0.899 -0.46,0.597 -0.691,1.457 -0.691,2.57 z"
         style="fill:#ffffff;fill-opacity:1;fill-rule:nonzero;stroke:none"
         id="path142" />
      <path
         d="m 354.719,153.152 0.051,1.118 c 0.679,-0.856 1.57,-1.286 2.668,-1.286 1.886,0 2.835,1.067 2.851,3.192 v 5.89 h -1.523 v -5.898 c -0.008,-0.645 -0.157,-1.121 -0.446,-1.426 -0.285,-0.308 -0.734,-0.461 -1.343,-0.461 -0.497,0 -0.93,0.129 -1.301,0.395 -0.375,0.262 -0.664,0.609 -0.875,1.039 v 6.351 h -1.524 v -8.914 z"
         style="fill:#ffffff;fill-opacity:1;fill-rule:nonzero;stroke:none"
         id="path144" />
      <path
         d="m 365.516,159.996 2.211,-6.844 h 1.554 l -3.195,8.914 h -1.164 l -3.227,-8.914 h 1.555 z"
         style="fill:#ffffff;fill-opacity:1;fill-rule:nonzero;stroke:none"
         id="path146" />
      <path
         d="m 255.25,189.816 h 67.5 c 2.078,0 3.75,1.672 3.75,3.75 v 30 c 0,2.079 -1.672,3.75 -3.75,3.75 h -67.5 c -2.078,0 -3.75,-1.671 -3.75,-3.75 v -30 c 0,-2.078 1.672,-3.75 3.75,-3.75 z"
         style="fill:#5875a4;fill-opacity:1;fill-rule:nonzero;stroke:none"
         id="path148" />
      <path
         d="m 271.742,214.566 h -7.859 v -1.097 l 4.152,-4.614 c 0.613,-0.695 1.035,-1.261 1.27,-1.695 0.234,-0.441 0.351,-0.894 0.351,-1.359 0,-0.629 -0.187,-1.141 -0.566,-1.543 -0.379,-0.403 -0.887,-0.602 -1.516,-0.602 -0.758,0 -1.351,0.219 -1.773,0.653 -0.418,0.425 -0.625,1.027 -0.625,1.796 h -1.524 c 0,-1.105 0.352,-2 1.063,-2.679 0.711,-0.68 1.664,-1.024 2.859,-1.024 1.114,0 1.996,0.297 2.645,0.883 0.648,0.582 0.972,1.36 0.972,2.332 0,1.18 -0.753,2.586 -2.257,4.219 l -3.215,3.484 h 6.023 z"
         style="fill:#ffffff;fill-opacity:1;fill-rule:nonzero;stroke:none"
         id="path150" />
      <path
         d="m 286.754,210.758 c -0.149,1.269 -0.617,2.25 -1.41,2.941 -0.785,0.688 -1.832,1.031 -3.141,1.031 -1.414,0 -2.551,-0.507 -3.41,-1.523 -0.852,-1.016 -1.277,-2.375 -1.277,-4.078 v -1.156 c 0,-1.114 0.199,-2.094 0.593,-2.942 0.403,-0.843 0.969,-1.492 1.7,-1.941 0.73,-0.457 1.574,-0.688 2.535,-0.688 1.277,0 2.297,0.36 3.066,1.075 0.77,0.707 1.219,1.691 1.344,2.949 h -1.59 c -0.137,-0.957 -0.437,-1.649 -0.898,-2.078 -0.457,-0.426 -1.098,-0.641 -1.922,-0.641 -1.008,0 -1.805,0.371 -2.379,1.121 -0.574,0.746 -0.86,1.809 -0.86,3.188 v 1.16 c 0,1.304 0.274,2.34 0.817,3.109 0.543,0.77 1.305,1.153 2.281,1.153 0.879,0 1.555,-0.2 2.02,-0.594 0.472,-0.403 0.785,-1.094 0.941,-2.086 z"
         style="fill:#ffffff;fill-opacity:1;fill-rule:nonzero;stroke:none"
         id="path152" />
      <path
         d="m 288.254,210.027 c 0,-0.875 0.172,-1.66 0.512,-2.359 0.347,-0.695 0.824,-1.234 1.433,-1.613 0.613,-0.379 1.317,-0.571 2.102,-0.571 1.215,0 2.195,0.422 2.941,1.262 0.754,0.84 1.129,1.957 1.129,3.356 v 0.105 c 0,0.867 -0.168,1.648 -0.504,2.34 -0.328,0.687 -0.805,1.223 -1.426,1.605 -0.613,0.387 -1.324,0.578 -2.125,0.578 -1.207,0 -2.187,-0.418 -2.941,-1.261 -0.746,-0.84 -1.121,-1.953 -1.121,-3.336 z m 1.535,0.18 c 0,0.988 0.227,1.781 0.684,2.383 0.461,0.598 1.074,0.898 1.843,0.898 0.774,0 1.391,-0.304 1.848,-0.906 0.453,-0.613 0.684,-1.461 0.684,-2.555 0,-0.98 -0.235,-1.769 -0.703,-2.375 -0.461,-0.609 -1.075,-0.914 -1.844,-0.914 -0.754,0 -1.36,0.301 -1.821,0.899 -0.46,0.597 -0.691,1.457 -0.691,2.57 z"
         style="fill:#ffffff;fill-opacity:1;fill-rule:nonzero;stroke:none"
         id="path154" />
      <path
         d="m 299.719,205.652 0.051,1.118 c 0.679,-0.856 1.57,-1.286 2.668,-1.286 1.886,0 2.835,1.067 2.851,3.192 v 5.89 h -1.523 v -5.898 c -0.008,-0.645 -0.157,-1.121 -0.446,-1.426 -0.285,-0.308 -0.734,-0.461 -1.343,-0.461 -0.497,0 -0.93,0.129 -1.301,0.395 -0.375,0.262 -0.664,0.609 -0.875,1.039 v 6.351 h -1.524 v -8.914 z"
         style="fill:#ffffff;fill-opacity:1;fill-rule:nonzero;stroke:none"
         id="path156" />
      <path
         d="m 310.516,212.496 2.211,-6.844 h 1.554 l -3.195,8.914 h -1.164 l -3.227,-8.914 h 1.555 z"
         style="fill:#ffffff;fill-opacity:1;fill-rule:nonzero;stroke:none"
         id="path158" />
      <g
         id="g160">
        <path
           d="m 474.75,552.887 -141,-77.016"
           style="fill:none;stroke:#4d4d4d;stroke-width:1.5;stroke-linecap:butt;stroke-linejoin:miter;stroke-miterlimit:4;stroke-dasharray:none;stroke-opacity:1"
           id="path162" />
      </g>
      <g
         id="g164">
        <path
           d="m 534.75,552.887 -26,-77.016"
           style="fill:none;stroke:#4d4d4d;stroke-width:1.5;stroke-linecap:butt;stroke-linejoin:miter;stroke-miterlimit:4;stroke-dasharray:none;stroke-opacity:1"
           id="path166" />
      </g>
      <g
         id="g168">
        <path
           d="m 414.75,552.887 -256,-77.016"
           style="fill:none;stroke:#4d4d4d;stroke-width:1.5;stroke-linecap:butt;stroke-linejoin:miter;stroke-miterlimit:4;stroke-dasharray:none;stroke-opacity:1"
           id="path170" />
      </g>
      <g
         id="g172">
        <path
           d="M 474.75,858.434 V 803.211"
           style="fill:none;stroke:#4d4d4d;stroke-width:1.5;stroke-linecap:butt;stroke-linejoin:miter;stroke-miterlimit:4;stroke-dasharray:none;stroke-opacity:1"
           id="path174" />
      </g>
      <path
         d="M 358.5,843.75 H 591 c 2.078,0 3.75,1.672 3.75,3.75 v 30 c 0,2.078 -1.672,3.75 -3.75,3.75 H 358.5 c -2.078,0 -3.75,-1.672 -3.75,-3.75 v -30 c 0,-2.078 1.672,-3.75 3.75,-3.75 z"
         style="fill:#cb8964;fill-opacity:1;fill-rule:nonzero;stroke:none"
         id="path176" />
      <path
         d="m 453.871,867.113 v -11.996 h 3.387 c 1.043,0 1.965,0.231 2.769,0.692 0.801,0.461 1.418,1.117 1.852,1.968 0.441,0.852 0.664,1.832 0.668,2.934 v 0.766 c 0,1.132 -0.219,2.125 -0.66,2.976 -0.434,0.852 -1.055,1.504 -1.871,1.961 -0.805,0.457 -1.746,0.688 -2.825,0.699 z m 1.582,-10.695 v 9.402 h 1.664 c 1.219,0 2.168,-0.379 2.844,-1.136 0.68,-0.758 1.019,-1.836 1.019,-3.239 v -0.699 c 0,-1.363 -0.32,-2.422 -0.964,-3.172 -0.637,-0.758 -1.543,-1.144 -2.719,-1.156 z"
         style="fill:#ffffff;fill-opacity:1;fill-rule:nonzero;stroke:none"
         id="path178" />
      <path
         d="m 468.383,867.277 c -1.207,0 -2.192,-0.394 -2.949,-1.183 -0.758,-0.797 -1.137,-1.86 -1.137,-3.192 v -0.277 c 0,-0.887 0.168,-1.676 0.504,-2.367 0.34,-0.696 0.812,-1.242 1.418,-1.629 0.609,-0.399 1.265,-0.594 1.976,-0.594 1.16,0 2.059,0.379 2.703,1.145 0.641,0.761 0.965,1.855 0.965,3.277 v 0.637 h -6.043 c 0.024,0.879 0.278,1.59 0.77,2.133 0.492,0.539 1.117,0.808 1.875,0.808 0.539,0 0.996,-0.109 1.371,-0.328 0.371,-0.223 0.699,-0.512 0.98,-0.875 l 0.93,0.727 c -0.746,1.144 -1.867,1.718 -3.363,1.718 z m -0.188,-7.992 c -0.617,0 -1.133,0.227 -1.55,0.676 -0.418,0.445 -0.676,1.074 -0.774,1.879 h 4.465 v -0.113 c -0.043,-0.778 -0.25,-1.375 -0.625,-1.797 -0.375,-0.43 -0.879,-0.645 -1.516,-0.645 z"
         style="fill:#ffffff;fill-opacity:1;fill-rule:nonzero;stroke:none"
         id="path180" />
      <path
         d="m 481.145,862.754 c 0,1.359 -0.313,2.453 -0.934,3.281 -0.621,0.828 -1.461,1.242 -2.52,1.242 -1.082,0 -1.933,-0.339 -2.554,-1.027 v 4.293 h -1.524 v -12.344 h 1.391 l 0.074,0.989 c 0.621,-0.77 1.484,-1.153 2.586,-1.153 1.074,0 1.918,0.403 2.539,1.211 0.625,0.809 0.942,1.93 0.942,3.371 z m -1.528,-0.172 c 0,-1.004 -0.215,-1.797 -0.64,-2.383 -0.43,-0.582 -1.016,-0.871 -1.766,-0.871 -0.922,0 -1.613,0.41 -2.074,1.227 v 4.261 c 0.453,0.813 1.152,1.219 2.093,1.219 0.731,0 1.309,-0.289 1.739,-0.867 0.433,-0.582 0.648,-1.441 0.648,-2.586 z"
         style="fill:#ffffff;fill-opacity:1;fill-rule:nonzero;stroke:none"
         id="path182" />
      <path
         d="m 485.148,856.039 v 2.16 h 1.664 v 1.18 h -1.664 v 5.527 c 0,0.356 0.075,0.625 0.219,0.809 0.149,0.176 0.403,0.262 0.762,0.262 0.176,0 0.414,-0.032 0.723,-0.098 v 1.234 c -0.399,0.11 -0.79,0.164 -1.168,0.164 -0.684,0 -1.196,-0.203 -1.543,-0.617 -0.344,-0.41 -0.52,-0.996 -0.52,-1.754 v -5.527 H 482 v -1.18 h 1.621 v -2.16 z"
         style="fill:#ffffff;fill-opacity:1;fill-rule:nonzero;stroke:none"
         id="path184" />
      <path
         d="m 490.105,859.277 c 0.676,-0.828 1.555,-1.242 2.637,-1.242 1.883,0 2.832,1.063 2.848,3.188 v 5.89 h -1.524 v -5.898 c -0.004,-0.645 -0.152,-1.117 -0.445,-1.426 -0.285,-0.309 -0.73,-0.461 -1.344,-0.461 -0.492,0 -0.925,0.133 -1.3,0.395 -0.372,0.265 -0.665,0.609 -0.872,1.039 v 6.351 h -1.527 v -12.656 h 1.527 z"
         style="fill:#ffffff;fill-opacity:1;fill-rule:nonzero;stroke:none"
         id="path186" />
      <path
         d="m 444.953,754.895 h -2.816 v 4.855 h -1.59 v -12 h 3.973 c 1.351,0 2.386,0.309 3.113,0.926 0.73,0.613 1.097,1.508 1.097,2.683 0,0.75 -0.203,1.399 -0.613,1.953 -0.398,0.555 -0.961,0.969 -1.679,1.247 l 2.82,5.089 v 0.102 h -1.699 z m -2.816,-1.293 h 2.429 c 0.786,0 1.411,-0.204 1.872,-0.61 0.468,-0.406 0.699,-0.949 0.699,-1.633 0,-0.742 -0.219,-1.308 -0.664,-1.703 -0.442,-0.398 -1.078,-0.597 -1.914,-0.601 h -2.422 z"
         style="fill:#ffffff;fill-opacity:1;fill-rule:nonzero;stroke:none"
         id="path188" />
      <path
         d="m 454.395,759.914 c -1.211,0 -2.192,-0.394 -2.95,-1.187 -0.757,-0.797 -1.136,-1.86 -1.136,-3.188 v -0.281 c 0,-0.883 0.164,-1.672 0.5,-2.363 0.339,-0.7 0.812,-1.243 1.418,-1.633 0.609,-0.395 1.269,-0.594 1.976,-0.594 1.16,0 2.063,0.383 2.703,1.144 0.645,0.766 0.965,1.86 0.965,3.282 v 0.633 h -6.039 c 0.02,0.878 0.277,1.589 0.766,2.136 0.496,0.535 1.121,0.805 1.879,0.805 0.539,0 0.992,-0.109 1.367,-0.328 0.375,-0.219 0.699,-0.512 0.98,-0.875 l 0.93,0.726 c -0.746,1.149 -1.867,1.723 -3.359,1.723 z m -0.192,-7.992 c -0.613,0 -1.129,0.223 -1.547,0.676 -0.418,0.445 -0.676,1.07 -0.777,1.879 h 4.469 v -0.118 c -0.043,-0.773 -0.254,-1.371 -0.629,-1.797 -0.371,-0.425 -0.879,-0.64 -1.516,-0.64 z"
         style="fill:#ffffff;fill-opacity:1;fill-rule:nonzero;stroke:none"
         id="path190" />
      <path
         d="m 464.812,757.383 c 0,-0.41 -0.156,-0.731 -0.468,-0.953 -0.309,-0.235 -0.852,-0.43 -1.625,-0.594 -0.77,-0.168 -1.383,-0.363 -1.836,-0.594 -0.453,-0.23 -0.785,-0.508 -1.008,-0.824 -0.211,-0.32 -0.32,-0.699 -0.32,-1.137 0,-0.73 0.308,-1.347 0.922,-1.855 0.621,-0.504 1.414,-0.758 2.375,-0.758 1.011,0 1.828,0.262 2.453,0.781 0.633,0.524 0.949,1.192 0.949,2.004 h -1.531 c 0,-0.418 -0.18,-0.777 -0.535,-1.078 -0.352,-0.305 -0.797,-0.453 -1.336,-0.453 -0.555,0 -0.989,0.121 -1.301,0.363 -0.317,0.238 -0.473,0.555 -0.473,0.945 0,0.368 0.149,0.645 0.438,0.832 0.293,0.188 0.816,0.368 1.574,0.536 0.765,0.172 1.383,0.375 1.855,0.609 0.473,0.238 0.821,0.523 1.047,0.859 0.231,0.329 0.344,0.731 0.344,1.211 0,0.797 -0.316,1.438 -0.957,1.918 -0.637,0.481 -1.461,0.719 -2.477,0.719 -0.714,0 -1.347,-0.129 -1.898,-0.379 -0.547,-0.254 -0.981,-0.605 -1.293,-1.055 -0.309,-0.457 -0.461,-0.949 -0.461,-1.476 h 1.523 c 0.028,0.512 0.231,0.918 0.61,1.219 0.387,0.297 0.89,0.445 1.519,0.445 0.575,0 1.036,-0.113 1.383,-0.344 0.352,-0.238 0.527,-0.551 0.527,-0.941 z"
         style="fill:#ffffff;fill-opacity:1;fill-rule:nonzero;stroke:none"
         id="path192" />
      <path
         d="m 469.754,750.832 0.051,1.121 c 0.679,-0.855 1.57,-1.285 2.668,-1.285 1.882,0 2.836,1.062 2.851,3.187 v 5.895 h -1.523 v -5.902 c -0.008,-0.641 -0.156,-1.118 -0.446,-1.426 -0.285,-0.305 -0.734,-0.461 -1.343,-0.461 -0.496,0 -0.93,0.133 -1.301,0.398 -0.375,0.262 -0.668,0.61 -0.875,1.036 v 6.355 h -1.524 v -8.918 z"
         style="fill:#ffffff;fill-opacity:1;fill-rule:nonzero;stroke:none"
         id="path194" />
      <path
         d="m 481.309,759.914 c -1.207,0 -2.192,-0.394 -2.95,-1.187 -0.757,-0.797 -1.136,-1.86 -1.136,-3.188 v -0.281 c 0,-0.883 0.168,-1.672 0.504,-2.363 0.339,-0.7 0.812,-1.243 1.414,-1.633 0.613,-0.395 1.269,-0.594 1.98,-0.594 1.156,0 2.059,0.383 2.703,1.144 0.641,0.766 0.961,1.86 0.961,3.282 v 0.633 h -6.039 c 0.024,0.878 0.277,1.589 0.766,2.136 0.496,0.535 1.121,0.805 1.879,0.805 0.539,0 0.996,-0.109 1.367,-0.328 0.375,-0.219 0.703,-0.512 0.98,-0.875 l 0.934,0.726 c -0.746,1.149 -1.867,1.723 -3.363,1.723 z m -0.188,-7.992 c -0.617,0 -1.133,0.223 -1.551,0.676 -0.418,0.445 -0.675,1.07 -0.773,1.879 h 4.465 v -0.118 c -0.043,-0.773 -0.254,-1.371 -0.625,-1.797 -0.375,-0.425 -0.879,-0.64 -1.516,-0.64 z"
         style="fill:#ffffff;fill-opacity:1;fill-rule:nonzero;stroke:none"
         id="path196" />
      <path
         d="m 488.605,748.676 v 2.156 h 1.665 v 1.18 h -1.665 v 5.527 c 0,0.359 0.075,0.629 0.223,0.809 0.149,0.175 0.399,0.265 0.758,0.265 0.176,0 0.418,-0.035 0.723,-0.101 v 1.238 c -0.399,0.109 -0.789,0.164 -1.168,0.164 -0.68,0 -1.196,-0.207 -1.539,-0.617 -0.348,-0.414 -0.52,-1 -0.52,-1.758 v -5.527 h -1.625 v -1.18 h 1.625 v -2.156 z"
         style="fill:#ffffff;fill-opacity:1;fill-rule:nonzero;stroke:none"
         id="path198" />
      <path
         d="m 492.582,753.734 0.609,-5.984 h 6.149 v 1.41 h -4.856 l -0.363,3.274 c 0.59,-0.348 1.258,-0.52 2.004,-0.52 1.094,0 1.961,0.359 2.605,1.086 0.641,0.719 0.961,1.695 0.961,2.926 0,1.234 -0.332,2.211 -1.003,2.926 -0.665,0.707 -1.598,1.062 -2.793,1.062 -1.063,0 -1.926,-0.293 -2.598,-0.883 -0.668,-0.586 -1.051,-1.398 -1.145,-2.437 h 1.442 c 0.094,0.687 0.34,1.203 0.734,1.554 0.395,0.348 0.918,0.52 1.567,0.52 0.707,0 1.261,-0.242 1.664,-0.723 0.406,-0.484 0.609,-1.152 0.609,-2.004 0,-0.8 -0.219,-1.445 -0.66,-1.925 -0.434,-0.493 -1.012,-0.735 -1.738,-0.735 -0.665,0 -1.184,0.145 -1.567,0.438 l -0.402,0.328 z"
         style="fill:#ffffff;fill-opacity:1;fill-rule:nonzero;stroke:none"
         id="path200" />
      <path
         d="m 508.871,754.633 c 0,1.785 -0.305,3.109 -0.914,3.98 -0.609,0.867 -1.562,1.301 -2.859,1.301 -1.282,0 -2.227,-0.422 -2.844,-1.269 -0.613,-0.852 -0.934,-2.122 -0.953,-3.809 v -2.035 c 0,-1.762 0.304,-3.071 0.914,-3.93 0.609,-0.855 1.562,-1.285 2.867,-1.285 1.289,0 2.238,0.414 2.852,1.246 0.609,0.824 0.921,2.098 0.937,3.82 z m -1.523,-2.086 c 0,-1.289 -0.184,-2.231 -0.543,-2.817 -0.364,-0.593 -0.938,-0.89 -1.723,-0.89 -0.781,0 -1.352,0.293 -1.707,0.883 -0.355,0.586 -0.539,1.488 -0.551,2.711 v 2.437 c 0,1.297 0.188,2.254 0.559,2.875 0.379,0.617 0.949,0.922 1.715,0.922 0.754,0 1.308,-0.289 1.672,-0.871 0.367,-0.582 0.562,-1.5 0.578,-2.754 z"
         style="fill:#ffffff;fill-opacity:1;fill-rule:nonzero;stroke:none"
         id="path202" />
      <path
         d="m 240.25,439.871 h 152.5 c 2.078,0 3.75,1.672 3.75,3.75 v 30 c 0,2.078 -1.672,3.75 -3.75,3.75 h -152.5 c -2.078,0 -3.75,-1.672 -3.75,-3.75 v -30 c 0,-2.078 1.672,-3.75 3.75,-3.75 z"
         style="fill:#857aab;fill-opacity:1;fill-rule:nonzero;stroke:none"
         id="path204" />
      <path
         d="m 306.613,459.203 h -4.773 v 5.024 h -1.5 v -11.375 h 7.047 v 1.234 h -5.547 v 3.891 h 4.773 z"
         style="fill:#ffffff;fill-opacity:1;fill-rule:nonzero;stroke:none"
         id="path206" />
      <path
         d="m 313.988,463.391 c -0.562,0.664 -1.386,0.992 -2.476,0.992 -0.903,0 -1.59,-0.258 -2.063,-0.781 -0.469,-0.524 -0.707,-1.301 -0.711,-2.329 v -5.5 h 1.446 v 5.461 c 0,1.282 0.519,1.922 1.562,1.922 1.106,0 1.84,-0.41 2.203,-1.234 v -6.149 h 1.446 v 8.454 h -1.375 z"
         style="fill:#ffffff;fill-opacity:1;fill-rule:nonzero;stroke:none"
         id="path208" />
      <path
         d="m 322.508,461.984 c 0,-0.39 -0.149,-0.691 -0.446,-0.906 -0.292,-0.219 -0.804,-0.406 -1.539,-0.562 -0.73,-0.157 -1.312,-0.344 -1.742,-0.563 -0.429,-0.219 -0.746,-0.476 -0.953,-0.781 -0.203,-0.301 -0.305,-0.66 -0.305,-1.078 0,-0.692 0.289,-1.278 0.875,-1.758 0.586,-0.477 1.336,-0.719 2.25,-0.719 0.957,0 1.735,0.25 2.329,0.742 0.597,0.496 0.898,1.129 0.898,1.899 h -1.453 c 0,-0.395 -0.172,-0.735 -0.508,-1.024 -0.336,-0.285 -0.758,-0.429 -1.266,-0.429 -0.527,0 -0.937,0.117 -1.234,0.343 -0.297,0.231 -0.445,0.532 -0.445,0.899 0,0.351 0.136,0.613 0.414,0.789 0.273,0.18 0.773,0.348 1.492,0.508 0.723,0.164 1.309,0.355 1.758,0.578 0.445,0.226 0.777,0.496 0.992,0.812 0.219,0.313 0.328,0.696 0.328,1.149 0,0.758 -0.305,1.363 -0.906,1.82 -0.606,0.453 -1.391,0.68 -2.352,0.68 -0.679,0 -1.277,-0.117 -1.797,-0.36 -0.523,-0.238 -0.929,-0.57 -1.226,-1 -0.293,-0.429 -0.438,-0.898 -0.438,-1.398 h 1.446 c 0.027,0.484 0.218,0.871 0.578,1.156 0.363,0.281 0.844,0.422 1.437,0.422 0.547,0 0.985,-0.109 1.313,-0.328 0.332,-0.223 0.5,-0.52 0.5,-0.891 z"
         style="fill:#ffffff;fill-opacity:1;fill-rule:nonzero;stroke:none"
         id="path210" />
      <path
         d="m 329.332,464.383 c -1.144,0 -2.078,-0.375 -2.797,-1.125 -0.719,-0.754 -1.078,-1.762 -1.078,-3.024 v -0.265 c 0,-0.836 0.16,-1.586 0.477,-2.242 0.324,-0.661 0.773,-1.176 1.343,-1.547 0.578,-0.375 1.203,-0.563 1.875,-0.563 1.102,0 1.953,0.363 2.563,1.086 0.609,0.727 0.914,1.762 0.914,3.109 v 0.602 h -5.727 c 0.024,0.836 0.266,1.508 0.727,2.024 0.469,0.511 1.062,0.765 1.781,0.765 0.512,0 0.945,-0.101 1.297,-0.312 0.355,-0.207 0.664,-0.485 0.93,-0.829 l 0.883,0.688 c -0.708,1.09 -1.77,1.633 -3.188,1.633 z m -0.18,-7.578 c -0.582,0 -1.07,0.215 -1.468,0.64 -0.395,0.422 -0.641,1.016 -0.735,1.782 h 4.235 v -0.11 c -0.039,-0.734 -0.239,-1.301 -0.594,-1.703 -0.352,-0.406 -0.832,-0.609 -1.438,-0.609 z"
         style="fill:#ffffff;fill-opacity:1;fill-rule:nonzero;stroke:none"
         id="path212" />
      <path
         d="m 65.25,439.871 h 152.5 c 2.078,0 3.75,1.672 3.75,3.75 v 30 c 0,2.078 -1.672,3.75 -3.75,3.75 H 65.25 c -2.078,0 -3.75,-1.672 -3.75,-3.75 v -30 c 0,-2.078 1.672,-3.75 3.75,-3.75 z"
         style="fill:#857aab;fill-opacity:1;fill-rule:nonzero;stroke:none"
         id="path214" />
      <path
         d="m 131.613,459.203 h -4.773 v 5.024 h -1.5 v -11.375 h 7.047 v 1.234 h -5.547 v 3.891 h 4.773 z"
         style="fill:#ffffff;fill-opacity:1;fill-rule:nonzero;stroke:none"
         id="path216" />
      <path
         d="m 138.988,463.391 c -0.562,0.664 -1.386,0.992 -2.476,0.992 -0.903,0 -1.59,-0.258 -2.063,-0.781 -0.469,-0.524 -0.707,-1.301 -0.711,-2.329 v -5.5 h 1.446 v 5.461 c 0,1.282 0.519,1.922 1.562,1.922 1.106,0 1.84,-0.41 2.203,-1.234 v -6.149 h 1.446 v 8.454 h -1.375 z"
         style="fill:#ffffff;fill-opacity:1;fill-rule:nonzero;stroke:none"
         id="path218" />
      <path
         d="m 147.508,461.984 c 0,-0.39 -0.149,-0.691 -0.446,-0.906 -0.292,-0.219 -0.804,-0.406 -1.539,-0.562 -0.73,-0.157 -1.308,-0.344 -1.742,-0.563 -0.426,-0.219 -0.746,-0.476 -0.953,-0.781 -0.203,-0.301 -0.305,-0.66 -0.305,-1.078 0,-0.692 0.293,-1.278 0.875,-1.758 0.59,-0.477 1.34,-0.719 2.25,-0.719 0.957,0 1.735,0.25 2.329,0.742 0.597,0.496 0.898,1.129 0.898,1.899 h -1.453 c 0,-0.395 -0.168,-0.735 -0.508,-1.024 -0.332,-0.285 -0.754,-0.429 -1.266,-0.429 -0.527,0 -0.937,0.117 -1.234,0.343 -0.297,0.231 -0.445,0.532 -0.445,0.899 0,0.351 0.136,0.613 0.414,0.789 0.277,0.18 0.773,0.348 1.492,0.508 0.723,0.164 1.309,0.355 1.758,0.578 0.449,0.226 0.777,0.496 0.992,0.812 0.219,0.313 0.328,0.696 0.328,1.149 0,0.758 -0.301,1.363 -0.906,1.82 -0.606,0.453 -1.387,0.68 -2.352,0.68 -0.675,0 -1.277,-0.117 -1.797,-0.36 -0.519,-0.238 -0.929,-0.57 -1.226,-1 -0.293,-0.429 -0.438,-0.898 -0.438,-1.398 h 1.446 c 0.027,0.484 0.218,0.871 0.578,1.156 0.363,0.281 0.844,0.422 1.437,0.422 0.547,0 0.985,-0.109 1.313,-0.328 0.332,-0.223 0.5,-0.52 0.5,-0.891 z"
         style="fill:#ffffff;fill-opacity:1;fill-rule:nonzero;stroke:none"
         id="path220" />
      <path
         d="m 154.332,464.383 c -1.144,0 -2.078,-0.375 -2.797,-1.125 -0.719,-0.754 -1.078,-1.762 -1.078,-3.024 v -0.265 c 0,-0.836 0.16,-1.586 0.477,-2.242 0.324,-0.661 0.773,-1.176 1.343,-1.547 0.578,-0.375 1.203,-0.563 1.875,-0.563 1.102,0 1.953,0.363 2.563,1.086 0.609,0.727 0.914,1.762 0.914,3.109 v 0.602 h -5.727 c 0.024,0.836 0.266,1.508 0.727,2.024 0.469,0.511 1.062,0.765 1.781,0.765 0.512,0 0.945,-0.101 1.297,-0.312 0.355,-0.207 0.664,-0.485 0.93,-0.829 l 0.883,0.688 c -0.708,1.09 -1.77,1.633 -3.188,1.633 z m -0.18,-7.578 c -0.582,0 -1.07,0.215 -1.468,0.64 -0.395,0.422 -0.641,1.016 -0.735,1.782 h 4.235 v -0.11 c -0.039,-0.734 -0.239,-1.301 -0.594,-1.703 -0.352,-0.406 -0.832,-0.609 -1.438,-0.609 z"
         style="fill:#ffffff;fill-opacity:1;fill-rule:nonzero;stroke:none"
         id="path222" />
      <path
         d="m 415.25,439.871 h 152.5 c 2.078,0 3.75,1.672 3.75,3.75 v 30 c 0,2.078 -1.672,3.75 -3.75,3.75 h -152.5 c -2.078,0 -3.75,-1.672 -3.75,-3.75 v -30 c 0,-2.078 1.672,-3.75 3.75,-3.75 z"
         style="fill:#857aab;fill-opacity:1;fill-rule:nonzero;stroke:none"
         id="path224" />
      <path
         d="m 481.613,459.203 h -4.773 v 5.024 h -1.5 v -11.375 h 7.047 v 1.234 h -5.547 v 3.891 h 4.773 z"
         style="fill:#ffffff;fill-opacity:1;fill-rule:nonzero;stroke:none"
         id="path226" />
      <path
         d="m 488.988,463.391 c -0.562,0.664 -1.386,0.992 -2.476,0.992 -0.903,0 -1.59,-0.258 -2.063,-0.781 -0.469,-0.524 -0.707,-1.301 -0.711,-2.329 v -5.5 h 1.446 v 5.461 c 0,1.282 0.519,1.922 1.562,1.922 1.106,0 1.84,-0.41 2.203,-1.234 v -6.149 h 1.446 v 8.454 h -1.375 z"
         style="fill:#ffffff;fill-opacity:1;fill-rule:nonzero;stroke:none"
         id="path228" />
      <path
         d="m 497.508,461.984 c 0,-0.39 -0.149,-0.691 -0.446,-0.906 -0.292,-0.219 -0.804,-0.406 -1.539,-0.562 -0.73,-0.157 -1.312,-0.344 -1.742,-0.563 -0.429,-0.219 -0.746,-0.476 -0.953,-0.781 -0.203,-0.301 -0.305,-0.66 -0.305,-1.078 0,-0.692 0.289,-1.278 0.875,-1.758 0.586,-0.477 1.336,-0.719 2.25,-0.719 0.957,0 1.735,0.25 2.329,0.742 0.597,0.496 0.898,1.129 0.898,1.899 h -1.453 c 0,-0.395 -0.172,-0.735 -0.508,-1.024 -0.336,-0.285 -0.758,-0.429 -1.266,-0.429 -0.527,0 -0.937,0.117 -1.234,0.343 -0.297,0.231 -0.445,0.532 -0.445,0.899 0,0.351 0.136,0.613 0.414,0.789 0.273,0.18 0.773,0.348 1.492,0.508 0.723,0.164 1.309,0.355 1.758,0.578 0.445,0.226 0.777,0.496 0.992,0.812 0.219,0.313 0.328,0.696 0.328,1.149 0,0.758 -0.305,1.363 -0.906,1.82 -0.606,0.453 -1.391,0.68 -2.352,0.68 -0.679,0 -1.277,-0.117 -1.797,-0.36 -0.523,-0.238 -0.929,-0.57 -1.226,-1 -0.293,-0.429 -0.438,-0.898 -0.438,-1.398 h 1.446 c 0.023,0.484 0.218,0.871 0.578,1.156 0.363,0.281 0.844,0.422 1.437,0.422 0.547,0 0.985,-0.109 1.313,-0.328 0.332,-0.223 0.5,-0.52 0.5,-0.891 z"
         style="fill:#ffffff;fill-opacity:1;fill-rule:nonzero;stroke:none"
         id="path230" />
      <path
         d="m 504.332,464.383 c -1.144,0 -2.078,-0.375 -2.797,-1.125 -0.719,-0.754 -1.078,-1.762 -1.078,-3.024 v -0.265 c 0,-0.836 0.16,-1.586 0.477,-2.242 0.324,-0.661 0.773,-1.176 1.343,-1.547 0.578,-0.375 1.203,-0.563 1.875,-0.563 1.102,0 1.953,0.363 2.563,1.086 0.609,0.727 0.914,1.762 0.914,3.109 v 0.602 h -5.727 c 0.024,0.836 0.266,1.508 0.727,2.024 0.469,0.511 1.062,0.765 1.781,0.765 0.512,0 0.945,-0.101 1.297,-0.312 0.355,-0.207 0.664,-0.485 0.93,-0.829 l 0.883,0.688 c -0.708,1.09 -1.77,1.633 -3.188,1.633 z m -0.18,-7.578 c -0.582,0 -1.07,0.215 -1.468,0.64 -0.395,0.422 -0.641,1.016 -0.735,1.782 h 4.235 v -0.11 c -0.039,-0.734 -0.239,-1.301 -0.594,-1.703 -0.352,-0.406 -0.832,-0.609 -1.438,-0.609 z"
         style="fill:#ffffff;fill-opacity:1;fill-rule:nonzero;stroke:none"
         id="path232" />
      <g
         id="g234">
        <path
           d="M 8.457,58.094 H 624.34 V 824.25 H 8.457 Z"
           style="fill:none;stroke:#cccccc;stroke-width:1.5;stroke-linecap:round;stroke-linejoin:miter;stroke-miterlimit:4;stroke-dasharray:3.00002, 9.00006;stroke-dashoffset:0;stroke-opacity:1"
           id="path236" />
      </g>
      <path
         d="m 200.25,294.219 h 232.5 c 2.078,0 3.75,1.957 3.75,4.375 v 122.5 c 0,2.429 -1.672,4.375 -3.75,4.375 h -232.5 c -2.078,0 -3.75,-1.946 -3.75,-4.375 v -122.5 c 0,-2.418 1.672,-4.375 3.75,-4.375 z"
         style="fill:#71aec0;fill-opacity:1;fill-rule:nonzero;stroke:none"
         id="path238" />
      <path
         d="m 308.535,360.547 h -5.039 v 5.297 h -1.582 v -11.996 h 7.438 v 1.3 h -5.856 v 4.106 h 5.039 z"
         style="fill:#ffffff;fill-opacity:1;fill-rule:nonzero;stroke:none"
         id="path240" />
      <path
         d="m 312.816,361.148 v 4.696 h -1.582 v -11.996 h 4.426 c 1.313,0 2.336,0.336 3.082,1.004 0.746,0.671 1.117,1.558 1.117,2.664 0,1.164 -0.367,2.062 -1.093,2.691 -0.731,0.629 -1.77,0.941 -3.125,0.941 z m 0,-1.293 h 2.844 c 0.844,0 1.492,-0.199 1.942,-0.593 0.453,-0.403 0.675,-0.981 0.675,-1.731 0,-0.715 -0.222,-1.285 -0.675,-1.715 -0.45,-0.429 -1.067,-0.652 -1.856,-0.668 h -2.93 z"
         style="fill:#ffffff;fill-opacity:1;fill-rule:nonzero;stroke:none"
         id="path242" />
      <path
         d="m 331.086,365.844 h -1.594 l -6.039,-9.246 v 9.246 h -1.59 v -11.996 h 1.59 l 6.059,9.285 v -9.285 h 1.574 z"
         style="fill:#ffffff;fill-opacity:1;fill-rule:nonzero;stroke:none"
         id="path244" />
      <path
         d="m 42,547.5 h 232.5 c 2.078,0 3.75,3.898 3.75,8.75 v 245 c 0,4.852 -1.672,8.75 -3.75,8.75 H 42 c -2.078,0 -3.75,-3.898 -3.75,-8.75 v -245 c 0,-4.852 1.672,-8.75 3.75,-8.75 z"
         style="fill:#5875a4;fill-opacity:1;fill-rule:nonzero;stroke:none"
         id="path246" />
      <path
         d="m 128.52,679.895 h -2.817 v 4.855 h -1.59 v -12 h 3.973 c 1.352,0 2.387,0.309 3.113,0.926 0.731,0.613 1.098,1.508 1.098,2.683 0,0.75 -0.203,1.399 -0.613,1.953 -0.399,0.555 -0.961,0.969 -1.68,1.247 l 2.82,5.089 v 0.102 h -1.699 z m -2.817,-1.293 h 2.43 c 0.785,0 1.41,-0.204 1.871,-0.61 0.469,-0.406 0.699,-0.949 0.699,-1.633 0,-0.742 -0.219,-1.308 -0.664,-1.703 -0.441,-0.398 -1.078,-0.597 -1.914,-0.601 h -2.422 z"
         style="fill:#ffffff;fill-opacity:1;fill-rule:nonzero;stroke:none"
         id="path248" />
      <path
         d="m 137.961,684.914 c -1.211,0 -2.191,-0.394 -2.949,-1.187 -0.758,-0.797 -1.137,-1.86 -1.137,-3.188 v -0.281 c 0,-0.883 0.164,-1.672 0.5,-2.363 0.34,-0.7 0.813,-1.243 1.418,-1.633 0.609,-0.395 1.269,-0.594 1.977,-0.594 1.16,0 2.062,0.383 2.703,1.144 0.644,0.766 0.965,1.86 0.965,3.282 v 0.633 h -6.04 c 0.02,0.878 0.278,1.589 0.766,2.136 0.496,0.535 1.121,0.805 1.879,0.805 0.539,0 0.992,-0.109 1.367,-0.328 0.375,-0.219 0.699,-0.512 0.981,-0.875 l 0.929,0.726 c -0.746,1.149 -1.867,1.723 -3.359,1.723 z m -0.191,-7.992 c -0.614,0 -1.129,0.223 -1.547,0.676 -0.418,0.445 -0.676,1.07 -0.778,1.879 h 4.469 v -0.118 c -0.047,-0.773 -0.254,-1.371 -0.629,-1.797 -0.371,-0.425 -0.879,-0.64 -1.515,-0.64 z"
         style="fill:#ffffff;fill-opacity:1;fill-rule:nonzero;stroke:none"
         id="path250" />
      <path
         d="m 148.379,682.383 c 0,-0.41 -0.156,-0.731 -0.469,-0.953 -0.308,-0.235 -0.851,-0.43 -1.625,-0.594 -0.769,-0.168 -1.383,-0.363 -1.836,-0.594 -0.453,-0.23 -0.785,-0.508 -1.008,-0.824 -0.211,-0.32 -0.32,-0.699 -0.32,-1.137 0,-0.73 0.309,-1.347 0.922,-1.855 0.621,-0.504 1.414,-0.758 2.375,-0.758 1.012,0 1.828,0.262 2.453,0.781 0.633,0.524 0.949,1.192 0.949,2.004 h -1.531 c 0,-0.418 -0.18,-0.777 -0.535,-1.078 -0.352,-0.305 -0.797,-0.453 -1.336,-0.453 -0.555,0 -0.988,0.121 -1.301,0.363 -0.316,0.238 -0.472,0.555 -0.472,0.945 0,0.368 0.148,0.645 0.437,0.832 0.293,0.188 0.816,0.368 1.574,0.536 0.766,0.172 1.383,0.375 1.856,0.609 0.472,0.238 0.82,0.523 1.047,0.859 0.23,0.329 0.343,0.731 0.343,1.211 0,0.797 -0.316,1.438 -0.957,1.918 -0.636,0.481 -1.461,0.719 -2.476,0.719 -0.715,0 -1.348,-0.129 -1.899,-0.379 -0.547,-0.254 -0.98,-0.605 -1.293,-1.055 -0.308,-0.457 -0.461,-0.949 -0.461,-1.476 h 1.524 c 0.027,0.512 0.23,0.918 0.609,1.219 0.387,0.297 0.891,0.445 1.52,0.445 0.574,0 1.035,-0.113 1.383,-0.344 0.351,-0.238 0.527,-0.551 0.527,-0.941 z"
         style="fill:#ffffff;fill-opacity:1;fill-rule:nonzero;stroke:none"
         id="path252" />
      <path
         d="m 153.32,675.832 0.051,1.121 c 0.68,-0.855 1.57,-1.285 2.668,-1.285 1.883,0 2.836,1.062 2.852,3.187 v 5.895 h -1.524 v -5.902 c -0.008,-0.641 -0.156,-1.118 -0.445,-1.426 -0.285,-0.305 -0.734,-0.461 -1.344,-0.461 -0.496,0 -0.93,0.133 -1.301,0.398 -0.375,0.262 -0.668,0.61 -0.875,1.036 v 6.355 h -1.523 v -8.918 z"
         style="fill:#ffffff;fill-opacity:1;fill-rule:nonzero;stroke:none"
         id="path254" />
      <path
         d="m 164.824,684.914 c -1.207,0 -2.191,-0.394 -2.949,-1.187 -0.758,-0.797 -1.137,-1.86 -1.137,-3.188 v -0.281 c 0,-0.883 0.168,-1.672 0.504,-2.363 0.34,-0.7 0.813,-1.243 1.418,-1.633 0.61,-0.395 1.266,-0.594 1.977,-0.594 1.156,0 2.058,0.383 2.703,1.144 0.64,0.766 0.961,1.86 0.961,3.282 v 0.633 h -6.039 c 0.023,0.878 0.277,1.589 0.765,2.136 0.496,0.535 1.121,0.805 1.879,0.805 0.539,0 0.996,-0.109 1.371,-0.328 0.371,-0.219 0.7,-0.512 0.981,-0.875 l 0.93,0.726 c -0.747,1.149 -1.868,1.723 -3.364,1.723 z m -0.187,-7.992 c -0.617,0 -1.133,0.223 -1.551,0.676 -0.418,0.445 -0.676,1.07 -0.774,1.879 h 4.465 v -0.118 c -0.043,-0.773 -0.25,-1.371 -0.625,-1.797 -0.375,-0.425 -0.879,-0.64 -1.515,-0.64 z"
         style="fill:#ffffff;fill-opacity:1;fill-rule:nonzero;stroke:none"
         id="path256" />
      <path
         d="m 172.121,673.676 v 2.156 h 1.664 v 1.18 h -1.664 v 5.527 c 0,0.359 0.074,0.629 0.223,0.809 0.148,0.175 0.402,0.265 0.758,0.265 0.175,0 0.418,-0.035 0.726,-0.101 v 1.238 c -0.402,0.109 -0.793,0.164 -1.172,0.164 -0.679,0 -1.195,-0.207 -1.539,-0.617 -0.347,-0.414 -0.519,-1 -0.519,-1.758 v -5.527 h -1.625 v -1.18 h 1.625 v -2.156 z"
         style="fill:#ffffff;fill-opacity:1;fill-rule:nonzero;stroke:none"
         id="path258" />
      <path
         d="m 176.098,678.734 0.609,-5.984 h 6.148 v 1.41 H 178 l -0.363,3.274 c 0.59,-0.348 1.258,-0.52 2.004,-0.52 1.093,0 1.961,0.359 2.605,1.086 0.641,0.719 0.961,1.695 0.961,2.926 0,1.234 -0.332,2.211 -1.004,2.926 -0.664,0.707 -1.594,1.062 -2.793,1.062 -1.058,0 -1.926,-0.293 -2.598,-0.883 -0.667,-0.586 -1.05,-1.398 -1.144,-2.437 h 1.441 c 0.094,0.687 0.34,1.203 0.735,1.554 0.394,0.348 0.918,0.52 1.566,0.52 0.707,0 1.262,-0.242 1.664,-0.723 0.406,-0.484 0.61,-1.152 0.61,-2.004 0,-0.8 -0.219,-1.445 -0.661,-1.925 -0.433,-0.493 -1.011,-0.735 -1.738,-0.735 -0.664,0 -1.183,0.145 -1.562,0.438 l -0.407,0.328 z"
         style="fill:#ffffff;fill-opacity:1;fill-rule:nonzero;stroke:none"
         id="path260" />
      <path
         d="m 192.387,679.633 c 0,1.785 -0.305,3.109 -0.914,3.98 -0.61,0.867 -1.563,1.301 -2.86,1.301 -1.281,0 -2.226,-0.422 -2.843,-1.269 -0.614,-0.852 -0.934,-2.122 -0.954,-3.809 v -2.035 c 0,-1.762 0.305,-3.071 0.914,-3.93 0.61,-0.855 1.563,-1.285 2.868,-1.285 1.289,0 2.238,0.414 2.851,1.246 0.61,0.824 0.922,2.098 0.938,3.82 z m -1.524,-2.086 c 0,-1.289 -0.183,-2.231 -0.543,-2.817 -0.363,-0.593 -0.937,-0.89 -1.722,-0.89 -0.782,0 -1.348,0.293 -1.707,0.883 -0.356,0.586 -0.539,1.488 -0.551,2.711 v 2.437 c 0,1.297 0.187,2.254 0.558,2.875 0.379,0.617 0.95,0.922 1.715,0.922 0.754,0 1.309,-0.289 1.672,-0.871 0.367,-0.582 0.563,-1.5 0.578,-2.754 z"
         style="fill:#ffffff;fill-opacity:1;fill-rule:nonzero;stroke:none"
         id="path262" />
      <path
         d="M 358.5,547.5 H 591 c 2.078,0 3.75,3.898 3.75,8.75 v 245 c 0,4.852 -1.672,8.75 -3.75,8.75 H 358.5 c -2.078,0 -3.75,-3.898 -3.75,-8.75 v -245 c 0,-4.852 1.672,-8.75 3.75,-8.75 z"
         style="fill:#5875a4;fill-opacity:1;fill-rule:nonzero;stroke:none"
         id="path264" />
      <path
         d="m 445.02,679.895 h -2.817 v 4.855 h -1.59 v -12 h 3.973 c 1.352,0 2.387,0.309 3.113,0.926 0.731,0.613 1.098,1.508 1.098,2.683 0,0.75 -0.203,1.399 -0.613,1.953 -0.399,0.555 -0.961,0.969 -1.68,1.247 l 2.82,5.089 v 0.102 h -1.699 z m -2.817,-1.293 h 2.43 c 0.785,0 1.41,-0.204 1.871,-0.61 0.469,-0.406 0.699,-0.949 0.699,-1.633 0,-0.742 -0.219,-1.308 -0.664,-1.703 -0.441,-0.398 -1.078,-0.597 -1.914,-0.601 h -2.422 z"
         style="fill:#ffffff;fill-opacity:1;fill-rule:nonzero;stroke:none"
         id="path266" />
      <path
         d="m 454.461,684.914 c -1.211,0 -2.191,-0.394 -2.949,-1.187 -0.758,-0.797 -1.137,-1.86 -1.137,-3.188 v -0.281 c 0,-0.883 0.164,-1.672 0.5,-2.363 0.34,-0.7 0.813,-1.243 1.418,-1.633 0.609,-0.395 1.269,-0.594 1.977,-0.594 1.16,0 2.062,0.383 2.703,1.144 0.644,0.766 0.965,1.86 0.965,3.282 v 0.633 h -6.04 c 0.02,0.878 0.278,1.589 0.766,2.136 0.496,0.535 1.121,0.805 1.879,0.805 0.539,0 0.992,-0.109 1.367,-0.328 0.375,-0.219 0.699,-0.512 0.981,-0.875 l 0.929,0.726 c -0.746,1.149 -1.867,1.723 -3.359,1.723 z m -0.191,-7.992 c -0.614,0 -1.129,0.223 -1.547,0.676 -0.418,0.445 -0.676,1.07 -0.778,1.879 h 4.469 v -0.118 c -0.047,-0.773 -0.254,-1.371 -0.629,-1.797 -0.371,-0.425 -0.879,-0.64 -1.515,-0.64 z"
         style="fill:#ffffff;fill-opacity:1;fill-rule:nonzero;stroke:none"
         id="path268" />
      <path
         d="m 464.879,682.383 c 0,-0.41 -0.156,-0.731 -0.469,-0.953 -0.308,-0.235 -0.851,-0.43 -1.625,-0.594 -0.769,-0.168 -1.383,-0.363 -1.836,-0.594 -0.453,-0.23 -0.785,-0.508 -1.008,-0.824 -0.211,-0.32 -0.32,-0.699 -0.32,-1.137 0,-0.73 0.309,-1.347 0.922,-1.855 0.621,-0.504 1.414,-0.758 2.375,-0.758 1.012,0 1.828,0.262 2.453,0.781 0.633,0.524 0.949,1.192 0.949,2.004 h -1.531 c 0,-0.418 -0.18,-0.777 -0.535,-1.078 -0.352,-0.305 -0.797,-0.453 -1.336,-0.453 -0.555,0 -0.988,0.121 -1.301,0.363 -0.316,0.238 -0.472,0.555 -0.472,0.945 0,0.368 0.148,0.645 0.437,0.832 0.293,0.188 0.816,0.368 1.574,0.536 0.766,0.172 1.383,0.375 1.856,0.609 0.472,0.238 0.82,0.523 1.047,0.859 0.23,0.329 0.343,0.731 0.343,1.211 0,0.797 -0.316,1.438 -0.957,1.918 -0.636,0.481 -1.461,0.719 -2.476,0.719 -0.715,0 -1.348,-0.129 -1.899,-0.379 -0.547,-0.254 -0.98,-0.605 -1.293,-1.055 -0.308,-0.457 -0.461,-0.949 -0.461,-1.476 h 1.524 c 0.027,0.512 0.23,0.918 0.609,1.219 0.387,0.297 0.891,0.445 1.52,0.445 0.574,0 1.035,-0.113 1.383,-0.344 0.351,-0.238 0.527,-0.551 0.527,-0.941 z"
         style="fill:#ffffff;fill-opacity:1;fill-rule:nonzero;stroke:none"
         id="path270" />
      <path
         d="m 469.82,675.832 0.051,1.121 c 0.68,-0.855 1.57,-1.285 2.668,-1.285 1.883,0 2.836,1.062 2.852,3.187 v 5.895 h -1.524 v -5.902 c -0.008,-0.641 -0.156,-1.118 -0.445,-1.426 -0.285,-0.305 -0.734,-0.461 -1.344,-0.461 -0.496,0 -0.93,0.133 -1.301,0.398 -0.375,0.262 -0.668,0.61 -0.875,1.036 v 6.355 h -1.523 v -8.918 z"
         style="fill:#ffffff;fill-opacity:1;fill-rule:nonzero;stroke:none"
         id="path272" />
      <path
         d="m 481.324,684.914 c -1.207,0 -2.191,-0.394 -2.949,-1.187 -0.758,-0.797 -1.137,-1.86 -1.137,-3.188 v -0.281 c 0,-0.883 0.168,-1.672 0.504,-2.363 0.34,-0.7 0.813,-1.243 1.418,-1.633 0.61,-0.395 1.266,-0.594 1.977,-0.594 1.156,0 2.058,0.383 2.703,1.144 0.64,0.766 0.961,1.86 0.961,3.282 v 0.633 h -6.039 c 0.023,0.878 0.277,1.589 0.765,2.136 0.496,0.535 1.121,0.805 1.879,0.805 0.539,0 0.996,-0.109 1.371,-0.328 0.371,-0.219 0.7,-0.512 0.981,-0.875 l 0.93,0.726 c -0.747,1.149 -1.868,1.723 -3.364,1.723 z m -0.187,-7.992 c -0.617,0 -1.133,0.223 -1.551,0.676 -0.418,0.445 -0.676,1.07 -0.774,1.879 h 4.465 v -0.118 c -0.043,-0.773 -0.25,-1.371 -0.625,-1.797 -0.375,-0.425 -0.879,-0.64 -1.515,-0.64 z"
         style="fill:#ffffff;fill-opacity:1;fill-rule:nonzero;stroke:none"
         id="path274" />
      <path
         d="m 488.621,673.676 v 2.156 h 1.664 v 1.18 h -1.664 v 5.527 c 0,0.359 0.074,0.629 0.223,0.809 0.148,0.175 0.402,0.265 0.758,0.265 0.175,0 0.418,-0.035 0.726,-0.101 v 1.238 c -0.402,0.109 -0.793,0.164 -1.172,0.164 -0.679,0 -1.195,-0.207 -1.539,-0.617 -0.347,-0.414 -0.519,-1 -0.519,-1.758 v -5.527 h -1.625 v -1.18 h 1.625 v -2.156 z"
         style="fill:#ffffff;fill-opacity:1;fill-rule:nonzero;stroke:none"
         id="path276" />
      <path
         d="m 492.598,678.734 0.609,-5.984 h 6.148 v 1.41 H 494.5 l -0.363,3.274 c 0.59,-0.348 1.258,-0.52 2.004,-0.52 1.093,0 1.961,0.359 2.605,1.086 0.641,0.719 0.961,1.695 0.961,2.926 0,1.234 -0.332,2.211 -1.004,2.926 -0.664,0.707 -1.594,1.062 -2.793,1.062 -1.058,0 -1.926,-0.293 -2.598,-0.883 -0.667,-0.586 -1.05,-1.398 -1.144,-2.437 h 1.441 c 0.094,0.687 0.34,1.203 0.735,1.554 0.394,0.348 0.918,0.52 1.566,0.52 0.707,0 1.262,-0.242 1.664,-0.723 0.406,-0.484 0.61,-1.152 0.61,-2.004 0,-0.8 -0.219,-1.445 -0.661,-1.925 -0.433,-0.493 -1.011,-0.735 -1.738,-0.735 -0.664,0 -1.183,0.145 -1.562,0.438 l -0.407,0.328 z"
         style="fill:#ffffff;fill-opacity:1;fill-rule:nonzero;stroke:none"
         id="path278" />
      <path
         d="m 508.887,679.633 c 0,1.785 -0.305,3.109 -0.914,3.98 -0.61,0.867 -1.563,1.301 -2.86,1.301 -1.281,0 -2.226,-0.422 -2.843,-1.269 -0.614,-0.852 -0.934,-2.122 -0.954,-3.809 v -2.035 c 0,-1.762 0.305,-3.071 0.914,-3.93 0.61,-0.855 1.563,-1.285 2.868,-1.285 1.289,0 2.238,0.414 2.851,1.246 0.61,0.824 0.922,2.098 0.938,3.82 z m -1.524,-2.086 c 0,-1.289 -0.183,-2.231 -0.543,-2.817 -0.363,-0.593 -0.937,-0.89 -1.722,-0.89 -0.782,0 -1.348,0.293 -1.707,0.883 -0.356,0.586 -0.539,1.488 -0.551,2.711 v 2.437 c 0,1.297 0.187,2.254 0.558,2.875 0.379,0.617 0.95,0.922 1.715,0.922 0.754,0 1.309,-0.289 1.672,-0.871 0.367,-0.582 0.563,-1.5 0.578,-2.754 z"
         style="fill:#ffffff;fill-opacity:1;fill-rule:nonzero;stroke:none"
         id="path280" />
    </g>
  </g>
</svg>
