<?xml version="1.0" encoding="UTF-8" standalone="no"?>
<svg
   viewBox="0 0 325 35" version="1.1" xmlns="http://www.w3.org/2000/svg" xmlns:svg="http://www.w3.org/2000/svg"
   data-length="1"
>
   <style>
      svg[data-animattr~="0"] g     { transition: translate 1.5s linear; translate: 110px; }
      svg[data-animattr~="0"] .hide { transition: opacity 250ms ease; opacity: 0; }

      svg[data-animattr~="0"] #n16 { transition-delay: 0ms; }
      svg[data-animattr~="0"] #n15 { transition-delay: 115ms; }
      svg[data-animattr~="0"] #n14 { transition-delay: 230ms; }
      svg[data-animattr~="0"] #n13 { transition-delay: 345ms; }
      svg[data-animattr~="0"] #n12 { transition-delay: 460ms; }
      svg[data-animattr~="0"] #n11 { transition-delay: 575ms; }
      svg[data-animattr~="0"] #n10 { transition-delay: 690ms; }
      svg[data-animattr~="0"] #n9  { transition-delay: 805ms; }
      svg[data-animattr~="0"] #n8  { transition-delay: 920ms; }
      svg[data-animattr~="0"] #n7  { transition-delay: 1035ms; }
      svg[data-animattr~="0"] #n6  { transition-delay: 1150ms; }
      svg[data-animattr~="0"] #n5  { transition-delay: 1265ms; }
   </style>
	<g transform="translate(-236.20941,-96.826945)" fill="#8c8c8c">
		<path id="root" d="m 246.09998,113.28416 h 1.9375 q 1.60937,0 2.8125,-0.57754 1.20312,-0.59358 1.82812,-1.60428 0.64064,-1.02674 0.64064,-2.35829 0,-2.24599 -1.23438,-3.51337 -1.23438,-1.26738 -3.54689,-1.26738 -2.18749,0 -3.59375,1.33155 -1.39062,1.31551 -1.39062,3.48128 h -1.875 q 0,-1.81283 0.89062,-3.30481 0.89064,-1.50802 2.46876,-2.3262 1.57812,-0.81818 3.49999,-0.81818 3.09376,0 4.87501,1.73262 1.78125,1.73262 1.78125,4.74866 0,1.68449 -1.04687,3.11231 -1.03126,1.41176 -2.84375,2.11764 2.12499,0.60963 3.21875,2.10161 1.09375,1.47593 1.09375,3.52941 0,3 -1.90625,4.82888 -1.90626,1.82888 -5.09375,1.82888 -2.03126,0 -3.73439,-0.83423 -1.6875,-0.83422 -2.625,-2.32621 -0.92187,-1.50801 -0.92187,-3.49732 h 1.87501 q 0,2.22994 1.51562,3.64172 1.51562,1.39571 3.89063,1.39571 2.42187,0 3.76562,-1.26737 1.35937,-1.28343 1.35937,-3.70589 0,-2.34224 -1.46874,-3.57754 -1.45313,-1.23529 -4.29688,-1.23529 h -1.875 z" />
		<path id="dot"  d="m 260.30311,124.85101 q 0,-0.5615 0.34375,-0.94652 0.35937,-0.40107 0.98437,-0.40107 0.62501,0 0.98438,0.40107 0.35937,0.38502 0.35937,0.94652 0,0.5615 -0.35937,0.93048 -0.35937,0.35294 -0.98438,0.35294 -0.625,0 -0.98437,-0.35294 -0.34375,-0.36898 -0.34375,-0.93048 z" />
		<path id="n1"   d="m 277.02187,126.00609 h -1.87501 v -21.04814 l -6.18749,2.35829 v -1.79679 l 7.75,-2.95187 h 0.3125 z" />
		<path id="n2"   d="m 298.03749,118.48203 h 3.54688 v 1.62031 h -3.54688 v 5.90375 h -1.87499 v -5.90375 h -10.70314 v -1.09091 l 10.53126,-16.36364 h 2.04687 z m -10.28125,0 h 8.40626 v -13.3476 l -0.82813,1.47593 z" />
		<path id="n3"   d="m 313.49062,126.00609 h -1.87499 v -21.04814 l -6.1875,2.35829 v -1.79679 l 7.74999,-2.95187 h 0.3125 z" />
		<path id="n4"   d="m 324.2875,114.03817 1.10938,-11.39038 h 11.37501 v 1.78075 h -9.76563 l -0.79688,7.89305 q 1.82813,-1.28342 4.28125,-1.28342 3.07813,0 4.90625,2.05347 1.82813,2.05348 1.82813,5.4706 0,3.68984 -1.78125,5.72727 -1.78125,2.03744 -5.01563,2.03744 -2.96875,0 -4.8125,-1.70054 -1.84375,-1.70054 -2.10937,-4.76471 h 1.79687 q 0.26563,2.39038 1.57813,3.62567 1.3125,1.21925 3.54687,1.21925 2.43751,0 3.67189,-1.58823 1.24999,-1.58823 1.24999,-4.52407 0,-2.56685 -1.39063,-4.18716 -1.39062,-1.62033 -3.79687,-1.62033 -1.32812,0 -2.3125,0.35295 -0.98438,0.33689 -2.07813,1.33155 z" />
		<path id="n5"   class="hide" d="m 352.92815,115.19325 q -1.00001,1.50803 -2.48437,2.34225 -1.48438,0.81818 -3.21876,0.81818 -1.9375,0 -3.42188,-1.02673 -1.48437,-1.02675 -2.29688,-2.83958 -0.8125,-1.81283 -0.8125,-3.96257 0,-2.31017 0.85938,-4.20321 0.875,-1.89305 2.42188,-2.93583 1.5625,-1.05882 3.59375,-1.05882 3.42187,0 5.32813,2.47059 1.90625,2.45454 1.90625,6.9786 v 1.73263 q 0,6.32086 -2.62501,9.49733 -2.62499,3.17647 -8.01562,3.17647 h -0.34375 l 0.0156,-1.66845 h 0.65625 q 4.07812,-0.0641 6.20313,-2.37433 2.125,-2.31016 2.23437,-6.94653 z m -5.46876,1.50803 q 1.87501,0 3.35939,-1.13904 1.5,-1.15508 2.12499,-2.98396 v -1.10695 q 0,-3.5615 -1.45313,-5.51872 -1.4375,-1.97327 -3.89062,-1.97327 -2.21875,0 -3.64063,1.84492 -1.42187,1.82888 -1.42187,4.62033 0,2.67915 1.35937,4.47594 1.375,1.78075 3.5625,1.78075 z" />
		<path id="n6"   class="hide" d="m 373.74066,126.00609 h -14.25001 v -1.47593 l 7.79688,-9.08023 q 1.9375,-2.29411 2.6875,-3.78609 0.75,-1.49198 0.75,-2.90375 0,-2.2139 -1.26563,-3.49732 -1.26563,-1.29947 -3.48437,-1.29947 -2.29688,0 -3.71875,1.50802 -1.40626,1.50802 -1.40626,3.91444 h -1.85937 q 0,-1.97326 0.85937,-3.59358 0.875,-1.62032 2.46876,-2.53476 1.60937,-0.93048 3.65625,-0.93048 3.125,0 4.875,1.68449 1.76563,1.68449 1.76563,4.58824 0,1.63636 -1,3.57754 -0.98438,1.94117 -3.48439,4.84492 l -6.34375,7.36363 h 11.95314 z" />
		<path id="n7"   class="hide" d="m 388.75629,102.47132 v 1.6845 h -0.21875 q -4.07813,0 -6.42188,2.47058 -2.34374,2.45455 -2.59374,6.83423 0.93749,-1.33155 2.39062,-2.05347 1.45313,-0.73798 3.25,-0.73798 3,0 4.76562,2.1337 1.78126,2.11765 1.78126,5.5508 0,2.27807 -0.82813,4.10695 -0.82813,1.82888 -2.375,2.85562 -1.54688,1.0107 -3.53126,1.0107 -3.26562,0 -5.31249,-2.42246 -2.04688,-2.4385 -2.04688,-6.28878 v -1.92513 q 0,-6.27274 2.78125,-9.70589 2.78126,-3.4492 7.89063,-3.51337 z m -3.89062,9.85027 q -1.78126,0 -3.32813,1.09091 -1.53126,1.07487 -2.04688,2.74332 v 1.63636 q 0,3.04813 1.51562,4.97327 1.53126,1.92513 3.96875,1.92513 2.18751,0 3.53126,-1.78075 1.35937,-1.78075 1.35937,-4.49198 0,-2.75936 -1.35937,-4.42781 -1.34375,-1.66845 -3.64062,-1.66845 z" />
		<path id="n8"   class="hide" d="m 397.22504,114.03817 1.10938,-11.39038 h 11.375 v 1.78075 h -9.76562 l -0.79688,7.89305 q 1.82812,-1.28342 4.28125,-1.28342 3.07812,0 4.90625,2.05347 1.82812,2.05348 1.82812,5.4706 0,3.68984 -1.78124,5.72727 -1.78125,2.03744 -5.01563,2.03744 -2.96875,0 -4.8125,-1.70054 -1.84376,-1.70054 -2.10938,-4.76471 h 1.79688 q 0.26562,2.39038 1.57813,3.62567 1.3125,1.21925 3.54687,1.21925 2.4375,0 3.67188,-1.58823 1.24999,-1.58823 1.24999,-4.52407 0,-2.56685 -1.39062,-4.18716 -1.39063,-1.62033 -3.79688,-1.62033 -1.32812,0 -2.3125,0.35295 -0.98438,0.33689 -2.07812,1.33155 z" />
		<path id="n9"   class="hide" d="m 418.35005,113.28416 h 1.9375 q 1.60937,0 2.8125,-0.57754 1.20312,-0.59358 1.82812,-1.60428 0.64063,-1.02674 0.64063,-2.35829 0,-2.24599 -1.23437,-3.51337 -1.23438,-1.26738 -3.54689,-1.26738 -2.18749,0 -3.59375,1.33155 -1.39062,1.31551 -1.39062,3.48128 h -1.875 q 0,-1.81283 0.89062,-3.30481 0.89063,-1.50802 2.46876,-2.3262 1.57812,-0.81818 3.49999,-0.81818 3.09376,0 4.87501,1.73262 1.78125,1.73262 1.78125,4.74866 0,1.68449 -1.04687,3.11231 -1.03126,1.41176 -2.84376,2.11764 2.125,0.60963 3.21876,2.10161 1.09374,1.47593 1.09374,3.52941 0,3 -1.90624,4.82888 -1.90626,1.82888 -5.09375,1.82888 -2.03126,0 -3.73439,-0.83423 -1.6875,-0.83422 -2.625,-2.32621 -0.92187,-1.50801 -0.92187,-3.49732 h 1.875 q 0,2.22994 1.51563,3.64172 1.51562,1.39571 3.89063,1.39571 2.42187,0 3.76562,-1.26737 1.35937,-1.28343 1.35937,-3.70589 0,-2.34224 -1.46874,-3.57754 -1.45313,-1.23529 -4.29688,-1.23529 h -1.875 z" />
		<path id="n10"  class="hide" d="m 433.6938,114.03817 1.10938,-11.39038 h 11.375 v 1.78075 h -9.76563 l -0.79687,7.89305 q 1.82813,-1.28342 4.28125,-1.28342 3.07813,0 4.90625,2.05347 1.82813,2.05348 1.82813,5.4706 0,3.68984 -1.78125,5.72727 -1.78126,2.03744 -5.01563,2.03744 -2.96876,0 -4.8125,-1.70054 -1.84375,-1.70054 -2.10938,-4.76471 h 1.79688 q 0.26562,2.39038 1.57812,3.62567 1.3125,1.21925 3.54688,1.21925 2.43749,0 3.67187,-1.58823 1.25001,-1.58823 1.25001,-4.52407 0,-2.56685 -1.39063,-4.18716 -1.39062,-1.62033 -3.79688,-1.62033 -1.32813,0 -2.31249,0.35295 -0.98438,0.33689 -2.07813,1.33155 z" />
		<path id="n11"  class="hide" d="m 464.06881,108.66384 q 0,1.81283 -1.03125,3.25669 -1.03125,1.4278 -2.71875,2.1016 1.96875,0.68984 3.15625,2.22995 1.1875,1.5401 1.1875,3.5615 0,3 -1.98438,4.7647 -1.98437,1.74867 -5.24999,1.74867 -3.29689,0 -5.28126,-1.74867 -1.96875,-1.74866 -1.96875,-4.7647 0,-1.98932 1.14062,-3.54546 1.14063,-1.55615 3.125,-2.24599 -1.6875,-0.6738 -2.6875,-2.1016 -0.99999,-1.44386 -0.99999,-3.25669 0,-2.90375 1.81249,-4.62032 1.82813,-1.71658 4.82813,-1.71658 3,0 4.82813,1.73262 1.84375,1.73262 1.84375,4.60428 z m -1.28125,11.16578 q 0,-2.18182 -1.51562,-3.57754 -1.51563,-1.41177 -3.87501,-1.41177 -2.35937,0 -3.85937,1.37968 -1.5,1.37968 -1.5,3.60963 0,2.22995 1.45312,3.5615 1.45313,1.3155 3.93751,1.3155 2.42187,0 3.89062,-1.3155 1.46875,-1.31551 1.46875,-3.5615 z m -0.59375,-11.18183 q 0,-2.00534 -1.35938,-3.33689 -1.34374,-1.3476 -3.4375,-1.3476 -2.125,0 -3.45313,1.29947 -1.3125,1.28342 -1.3125,3.38502 0,2.05349 1.3125,3.30482 1.32813,1.25134 3.46875,1.25134 2.10938,0 3.43751,-1.25134 1.34375,-1.26739 1.34375,-3.30482 z" />
		<path id="n12"  class="hide" d="m 480.56881,115.19325 q -1,1.50803 -2.48437,2.34225 -1.48438,0.81818 -3.21876,0.81818 -1.9375,0 -3.42187,-1.02673 -1.48438,-1.02675 -2.29688,-2.83958 -0.8125,-1.81283 -0.8125,-3.96257 0,-2.31017 0.85938,-4.20321 0.875,-1.89305 2.42188,-2.93583 1.56249,-1.05882 3.59375,-1.05882 3.42187,0 5.32813,2.47059 1.90625,2.45454 1.90625,6.9786 v 1.73263 q 0,6.32086 -2.62501,9.49733 -2.625,3.17647 -8.01562,3.17647 h -0.34375 l 0.0156,-1.66845 h 0.65625 q 4.07813,-0.0641 6.20313,-2.37433 2.125,-2.31016 2.23437,-6.94653 z m -5.46875,1.50803 q 1.875,0 3.35938,-1.13904 1.5,-1.15508 2.125,-2.98396 v -1.10695 q 0,-3.5615 -1.45313,-5.51872 -1.4375,-1.97327 -3.89063,-1.97327 -2.21874,0 -3.64062,1.84492 -1.42187,1.82888 -1.42187,4.62033 0,2.67915 1.35937,4.47594 1.375,1.78075 3.5625,1.78075 z" />
		<path id="n13"  class="hide" d="m 501.14696,103.75475 -9.71875,22.25134 h -1.95313 l 9.65626,-21.72193 h -12.93751 v -1.63637 h 14.95313 z" />
		<path id="n14"  class="hide" d="m 517.03759,115.19325 q -1,1.50803 -2.48438,2.34225 -1.48438,0.81818 -3.21875,0.81818 -1.9375,0 -3.42188,-1.02673 -1.48437,-1.02675 -2.29687,-2.83958 -0.8125,-1.81283 -0.8125,-3.96257 0,-2.31017 0.85938,-4.20321 0.87499,-1.89305 2.42187,-2.93583 1.5625,-1.05882 3.59375,-1.05882 3.42188,0 5.32813,2.47059 1.90625,2.45454 1.90625,6.9786 v 1.73263 q 0,6.32086 -2.625,9.49733 -2.625,3.17647 -8.01563,3.17647 h -0.34374 l 0.0156,-1.66845 h 0.65624 q 4.07813,-0.0641 6.20313,-2.37433 2.12501,-2.31016 2.23438,-6.94653 z m -5.46875,1.50803 q 1.87499,0 3.35937,-1.13904 1.50001,-1.15508 2.12501,-2.98396 v -1.10695 q 0,-3.5615 -1.45313,-5.51872 -1.4375,-1.97327 -3.89063,-1.97327 -2.21875,0 -3.64062,1.84492 -1.42188,1.82888 -1.42188,4.62033 0,2.67915 1.35938,4.47594 1.375,1.78075 3.5625,1.78075 z" />
		<path id="n15"  class="hide" d="m 527.75632,113.28416 h 1.93751 q 1.60938,0 2.8125,-0.57754 1.20312,-0.59358 1.82812,-1.60428 0.64063,-1.02674 0.64063,-2.35829 0,-2.24599 -1.23437,-3.51337 -1.23438,-1.26738 -3.54688,-1.26738 -2.18751,0 -3.59375,1.33155 -1.39063,1.31551 -1.39063,3.48128 h -1.875 q 0,-1.81283 0.89062,-3.30481 0.89063,-1.50802 2.46875,-2.3262 1.57813,-0.81818 3.50001,-0.81818 3.09375,0 4.875,1.73262 1.78125,1.73262 1.78125,4.74866 0,1.68449 -1.04688,3.11231 -1.03124,1.41176 -2.84375,2.11764 2.12501,0.60963 3.21875,2.10161 1.09376,1.47593 1.09376,3.52941 0,3 -1.90626,4.82888 -1.90625,1.82888 -5.09375,1.82888 -2.03125,0 -3.73437,-0.83423 -1.6875,-0.83422 -2.62501,-2.32621 -0.92187,-1.50801 -0.92187,-3.49732 h 1.875 q 0,2.22994 1.51562,3.64172 1.51564,1.39571 3.89063,1.39571 2.42188,0 3.76563,-1.26737 1.35938,-1.28343 1.35938,-3.70589 0,-2.34224 -1.46875,-3.57754 -1.45314,-1.23529 -4.29688,-1.23529 h -1.87501 z" />
		<path id="n16"  class="hide" d="m 556.08447,126.00609 h -14.25 v -1.47593 l 7.79687,-9.08023 q 1.93751,-2.29411 2.68751,-3.78609 0.75,-1.49198 0.75,-2.90375 0,-2.2139 -1.26563,-3.49732 -1.26562,-1.29947 -3.48437,-1.29947 -2.29688,0 -3.71876,1.50802 -1.40624,1.50802 -1.40624,3.91444 h -1.85938 q 0,-1.97326 0.85937,-3.59358 0.87501,-1.62032 2.46875,-2.53476 1.60938,-0.93048 3.65626,-0.93048 3.125,0 4.875,1.68449 1.76562,1.68449 1.76562,4.58824 0,1.63636 -1,3.57754 -0.98437,1.94117 -3.48437,4.84492 l -6.34375,7.36363 h 11.95312 z" />
	</g>
</svg>
