<?xml version="1.0" encoding="UTF-8" standalone="no"?>
<svg
   version="1.1" viewBox="0 0 1046.6297 312.47601" xmlns="http://www.w3.org/2000/svg" xmlns:svg="http://www.w3.org/2000/svg"
   data-length="3"
>
   <style>
      svg[data-animattr] .white {
         transition: opacity 750ms;
      }
      svg[data-animattr] .red {
         transition: opacity 750ms;
         opacity: 0;
      }
      
      svg[data-animattr~="0"] #conv1-white { opacity: 0; }
      svg[data-animattr~="0"] #conv1-red   { opacity: 1; transition-delay: 500ms; }

      svg[data-animattr~="1"] #featuremap-white  { opacity: 0; }
      svg[data-animattr~="1"] #featuremap-red    { opacity: 1; transition-delay: 500ms; }
      svg[data-animattr~="1"] #featuremap-bottom { transition: translate 1s ease-in-out; translate: 0px -15px; }

      svg[data-animattr~="2"] #conv2-white { opacity: 0; }
      svg[data-animattr~="2"] #conv2-red   { opacity: 1; transition-delay: 500ms; }
   </style>
	<defs>
		<clipPath clipPathUnits="userSpaceOnUse" id="clipPath4623">
			<path style="fill:#8c8c8c;fill-opacity:0.4;stroke:none;stroke-width:1px;stroke-linecap:butt;stroke-linejoin:miter;stroke-opacity:1" d="M 523.31382,214.10106 395.72396,121.17687 h -8.43659 V 293.96749 H 660.83668 V 121.17687 h -9.92941 z" id="path4625" />
		</clipPath>
	</defs>
	<g id="g3768">
		<path d="m 271.92696,110.22801 108.31333,26.088 v 39.844 l -108.31333,26.08933 z" style="fill:#5875a4;fill-opacity:1;fill-rule:nonzero;stroke:none;stroke-width:1.33333" id="path14" />
      <g id="conv1-red" class="red">
   		<path d="m 284.48963,155.49692 h 1.084 c 0.68133,-0.0107 1.21866,-0.188 1.60933,-0.53734 0.39067,-0.348 0.588,-0.82266 0.588,-1.416 0,-1.33333 -0.66667,-2 -1.99467,-2 -0.62533,0 -1.12533,0.18267 -1.5,0.54134 -0.36933,0.35466 -0.552,0.82266 -0.552,1.412 h -1.448 c 0,-0.90134 0.328,-1.64667 0.984,-2.24 0.66134,-0.59867 1.5,-0.90134 2.516,-0.90134 1.07334,0 1.91734,0.28667 2.52667,0.85467 0.60933,0.568 0.91066,1.35467 0.91066,2.364 0,0.49467 -0.16133,0.97467 -0.48399,1.43867 -0.31734,0.46266 -0.75067,0.812 -1.30267,1.04133 0.62533,0.19733 1.104,0.52533 1.44267,0.984 0.34399,0.45867 0.51599,1.016 0.51599,1.67733 0,1.02 -0.33333,1.83334 -0.99999,2.432 -0.66667,0.59867 -1.53067,0.896 -2.59867,0.896 -1.068,0 -1.93733,-0.28666 -2.60933,-0.864 -0.66667,-0.57866 -1,-1.344 -1,-2.292 h 1.45333 c 0,0.59867 0.192,1.07734 0.58267,1.43734 0.39066,0.35866 0.91733,0.54133 1.57333,0.54133 0.69733,0 1.22933,-0.18267 1.59867,-0.54667 0.36933,-0.364 0.55733,-0.89066 0.55733,-1.57333 0,-0.66133 -0.20267,-1.16667 -0.60933,-1.52 -0.40667,-0.35467 -0.99467,-0.53733 -1.76,-0.54667 h -1.084 z" style="fill:#c44e52;fill-opacity:1;fill-rule:nonzero;stroke:none;stroke-width:1.33333" />
   		<path d="m 298.49496,157.03825 c 0,1.69333 -0.292,2.948 -0.86934,3.77067 -0.57866,0.82266 -1.48,1.23466 -2.70933,1.23466 -1.21333,0 -2.11333,-0.40133 -2.69733,-1.20266 -0.58267,-0.808 -0.88534,-2.01067 -0.90667,-3.60934 v -1.928 c 0,-1.672 0.292,-2.916 0.87067,-3.72933 0.57733,-0.812 1.484,-1.21867 2.71866,-1.21867 1.224,0 2.12534,0.396 2.70267,1.18267 0.57867,0.78133 0.87467,1.98933 0.89067,3.62533 z m -1.448,-1.97867 c 0,-1.224 -0.172,-2.11466 -0.516,-2.672 -0.34267,-0.56266 -0.88534,-0.844 -1.62934,-0.844 -0.74,0 -1.28133,0.28134 -1.62,0.83867 -0.33866,0.55733 -0.51066,1.41067 -0.52133,2.568 v 2.312 c 0,1.22933 0.17733,2.14 0.532,2.72933 0.35867,0.58267 0.9,0.87467 1.624,0.87467 0.71467,0 1.24,-0.276 1.584,-0.828 0.34933,-0.552 0.53067,-1.42133 0.54667,-2.60933 z" style="fill:#c44e52;fill-opacity:1;fill-rule:nonzero;stroke:none;stroke-width:1.33333" id="path34" />
      </g>
      <g id="conv1-white" class="white">
         <path d="m 284.48963,155.53467 h 1.084 c 0.68133,-0.009 1.21866,-0.18666 1.60933,-0.536 0.39067,-0.34933 0.588,-0.82266 0.588,-1.416 0,-1.33333 -0.66667,-2 -1.99467,-2 -0.62533,0 -1.12533,0.18134 -1.5,0.54134 -0.36933,0.35333 -0.552,0.82266 -0.552,1.41066 h -1.448 c 0,-0.9 0.328,-1.64533 0.984,-2.23866 0.66134,-0.59867 1.5,-0.90134 2.516,-0.90134 1.07334,0 1.91734,0.28667 2.52667,0.85467 0.60933,0.56667 0.91066,1.35333 0.91066,2.364 0,0.49467 -0.16133,0.97467 -0.48399,1.43733 -0.31734,0.464 -0.75067,0.81334 -1.30267,1.04134 0.62533,0.19866 1.104,0.52666 1.44267,0.98533 0.34399,0.45733 0.51599,1.01467 0.51599,1.676 0,1.02133 -0.33333,1.83467 -0.99999,2.43333 -0.66667,0.59867 -1.53067,0.896 -2.59867,0.896 -1.068,0 -1.93733,-0.28666 -2.60933,-0.86533 -0.66667,-0.57733 -1,-1.344 -1,-2.292 h 1.45333 c 0,0.6 0.192,1.07867 0.58267,1.43867 0.39066,0.35866 0.91733,0.54133 1.57333,0.54133 0.69733,0 1.22933,-0.18267 1.59867,-0.54667 0.36933,-0.36533 0.55733,-0.89066 0.55733,-1.57333 0,-0.66133 -0.20267,-1.16667 -0.60933,-1.52133 -0.40667,-0.35334 -0.99467,-0.536 -1.76,-0.54667 h -1.084 z" style="fill:#ffffff;fill-opacity:1;fill-rule:nonzero;stroke:none;stroke-width:1.33333" id="path16" />
         <path d="m 298.81229,161.92534 h -7.452 v -1.036 l 3.93733,-4.37467 c 0.58267,-0.66133 0.984,-1.19866 1.20267,-1.60933 0.224,-0.41733 0.33867,-0.84933 0.33867,-1.292 0,-0.59333 -0.18267,-1.07867 -0.54134,-1.45867 -0.36,-0.38 -0.83866,-0.572 -1.43866,-0.572 -0.71867,0 -1.276,0.208 -1.676,0.61867 -0.396,0.40667 -0.59467,0.97467 -0.59467,1.704 h -1.448 c 0,-1.04667 0.33867,-1.896 1.01067,-2.54133 0.67733,-0.64667 1.57866,-0.96934 2.708,-0.96934 1.05733,0 1.896,0.28134 2.51066,0.83867 0.61467,0.552 0.92267,1.28667 0.92267,2.208 0,1.12 -0.71333,2.45333 -2.14133,4 l -3.04667,3.308 h 5.708 z" style="fill:#ffffff;fill-opacity:1;fill-rule:nonzero;stroke:none;stroke-width:1.33333" id="path18" />
      </g>
		<path d="m 307.27629,156.56134 1.87467,-3.088 h 1.688 l -2.76534,4.18133 2.848,4.27067 h -1.672 l -1.952,-3.16133 -1.95333,3.16133 h -1.67733 l 2.84933,-4.27067 -2.76667,-4.18133 h 1.672 z" style="fill:#ffffff;fill-opacity:1;fill-rule:nonzero;stroke:none;stroke-width:1.33333" id="path20" />
		<path d="m 318.31229,155.53467 h 1.084 c 0.68267,-0.009 1.21867,-0.18666 1.60933,-0.536 0.39067,-0.34933 0.588,-0.82266 0.588,-1.416 0,-1.33333 -0.66666,-2 -1.99466,-2 -0.62534,0 -1.12534,0.18134 -1.5,0.54134 -0.36934,0.35333 -0.552,0.82266 -0.552,1.41066 h -1.448 c 0,-0.9 0.328,-1.64533 0.984,-2.23866 0.66266,-0.59867 1.5,-0.90134 2.516,-0.90134 1.07333,0 1.91733,0.28667 2.52666,0.85467 0.60934,0.56667 0.91067,1.35333 0.91067,2.364 0,0.49467 -0.16133,0.97467 -0.484,1.43733 -0.31733,0.464 -0.74933,0.81334 -1.30267,1.04134 0.62534,0.19866 1.10534,0.52666 1.444,0.98533 0.34267,0.45733 0.51467,1.01467 0.51467,1.676 0,1.02133 -0.33333,1.83467 -1,2.43333 -0.66667,0.59867 -1.53067,0.896 -2.59867,0.896 -1.068,0 -1.93733,-0.28666 -2.60933,-0.86533 -0.66667,-0.57733 -1,-1.344 -1,-2.292 h 1.45333 c 0,0.6 0.192,1.07867 0.58267,1.43867 0.39067,0.35866 0.91733,0.54133 1.57333,0.54133 0.69734,0 1.22934,-0.18267 1.59867,-0.54667 0.37067,-0.36533 0.55733,-0.89066 0.55733,-1.57333 0,-0.66133 -0.20266,-1.16667 -0.60933,-1.52133 -0.40667,-0.35334 -0.99467,-0.536 -1.76,-0.54667 h -1.084 z" style="fill:#ffffff;fill-opacity:1;fill-rule:nonzero;stroke:none;stroke-width:1.33333" id="path22" />
		<path d="m 332.12029,156.56134 1.87467,-3.088 h 1.688 l -2.76667,4.18133 2.85467,4.27067 h -1.672 l -1.95334,-3.16133 -1.95333,3.16133 h -1.68133 l 2.85333,-4.27067 -2.76533,-4.18133 h 1.672 z" style="fill:#ffffff;fill-opacity:1;fill-rule:nonzero;stroke:none;stroke-width:1.33333" id="path24" />
		<path d="m 343.16162,155.53467 h 1.084 c 0.68134,-0.009 1.21867,-0.18666 1.60934,-0.536 0.39066,-0.34933 0.588,-0.82266 0.588,-1.416 0,-1.33333 -0.66667,-2 -1.99467,-2 -0.62533,0 -1.12533,0.18134 -1.5,0.54134 -0.36933,0.35333 -0.552,0.82266 -0.552,1.41066 h -1.448 c 0,-0.9 0.328,-1.64533 0.984,-2.23866 0.66133,-0.59867 1.5,-0.90134 2.516,-0.90134 1.07333,0 1.916,0.28667 2.52533,0.85467 0.60934,0.56667 0.912,1.35333 0.912,2.364 0,0.49467 -0.16133,0.97467 -0.484,1.43733 -0.31866,0.464 -0.75066,0.81334 -1.30266,1.04134 0.62533,0.19866 1.104,0.52666 1.44266,0.98533 0.344,0.45733 0.516,1.01467 0.516,1.676 0,1.02133 -0.33333,1.83467 -1,2.43333 -0.66666,0.59867 -1.532,0.896 -2.59866,0.896 -1.068,0 -1.93734,-0.28666 -2.60934,-0.86533 -0.66666,-0.57733 -1,-1.344 -1,-2.292 h 1.45334 c 0,0.6 0.192,1.07867 0.58266,1.43867 0.39067,0.35866 0.91734,0.54133 1.57334,0.54133 0.69733,0 1.22933,-0.18267 1.59866,-0.54667 0.36934,-0.36533 0.55734,-0.89066 0.55734,-1.57333 0,-0.66133 -0.20267,-1.16667 -0.60934,-1.52133 -0.40666,-0.35334 -0.99466,-0.536 -1.76,-0.54667 h -1.084 z" style="fill:#ffffff;fill-opacity:1;fill-rule:nonzero;stroke:none;stroke-width:1.33333" id="path26" />
		<path d="m 356.96962,156.56134 1.87467,-3.088 h 1.68667 l -2.76534,4.18133 2.85467,4.27067 h -1.672 l -1.95333,-3.16133 -1.95334,3.16133 h -1.68133 l 2.85333,-4.27067 -2.76533,-4.18133 h 1.672 z" style="fill:#ffffff;fill-opacity:1;fill-rule:nonzero;stroke:none;stroke-width:1.33333" id="path28" />
		<path d="m 367.95896,155.53467 h 1.088 c 0.68266,-0.009 1.21866,-0.18666 1.60933,-0.536 0.39067,-0.34933 0.584,-0.82266 0.584,-1.416 0,-1.33333 -0.66133,-2 -1.99067,-2 -0.624,0 -1.124,0.18134 -1.5,0.54134 -0.36933,0.35333 -0.55733,0.82266 -0.55733,1.41066 h -1.44267 c 0,-0.9 0.32934,-1.64533 0.98534,-2.23866 0.66133,-0.59867 1.5,-0.90134 2.51466,-0.90134 1.07334,0 1.912,0.28667 2.52134,0.85467 0.60933,0.56667 0.91733,1.35333 0.91733,2.364 0,0.49467 -0.16267,0.97467 -0.48533,1.43733 -0.31734,0.464 -0.75467,0.81334 -1.30667,1.04134 0.62533,0.19866 1.10933,0.52666 1.448,0.98533 0.344,0.45733 0.51467,1.01467 0.51467,1.676 0,1.02133 -0.33334,1.83467 -1,2.43333 -0.66667,0.59867 -1.536,0.896 -2.604,0.896 -1.06667,0 -1.93734,-0.28666 -2.60934,-0.86533 -0.66666,-0.57733 -1,-1.344 -1,-2.292 h 1.45334 c 0,0.6 0.19866,1.07867 0.58933,1.43867 0.39067,0.35866 0.91067,0.54133 1.56667,0.54133 0.69866,0 1.23466,-0.18267 1.604,-0.54667 0.37066,-0.36533 0.55333,-0.89066 0.55333,-1.57333 0,-0.66133 -0.204,-1.16667 -0.60933,-1.52133 -0.40667,-0.35334 -0.99067,-0.536 -1.756,-0.54667 h -1.088 z" style="fill:#ffffff;fill-opacity:1;fill-rule:nonzero;stroke:none;stroke-width:1.33333" id="path30" />
		<g id="g3269" transform="matrix(0.89914489,0,0,0.89898772,-8.7855424,-8.7866805)" style="stroke-width:1.11226">
			<path d="M 153.068,99.218821 294.48933,202.56838 153.068,305.92768 11.656,202.57326 Z" style="fill:#857aab;fill-opacity:1;fill-rule:nonzero;stroke:#5c5180;stroke-width:2.22452;stroke-linecap:butt;stroke-linejoin:miter;stroke-miterlimit:4;stroke-dasharray:none;stroke-opacity:1" id="path42" />
			<path d="M 153.068,99.218821 294.48933,202.56838 153.068,305.92768 11.656,202.57326 Z" style="fill:none;stroke:#5c5180;stroke-width:2.22452;stroke-linecap:butt;stroke-linejoin:miter;stroke-miterlimit:4;stroke-dasharray:none;stroke-opacity:1" id="path46" />
			<path d="m 294.97333,164.57251 v 38.00563 M 11.172,164.57251 v 38.00075" style="fill:none;stroke:#5c5180;stroke-width:2.21911;stroke-linecap:butt;stroke-linejoin:miter;stroke-miterlimit:4;stroke-dasharray:none;stroke-opacity:1" id="path50" />
			<path d="M 153.07333,61.208931 294.49466,164.56823 153.07866,267.9217 11.656,164.57311 Z" style="fill:#857aab;fill-opacity:1;fill-rule:nonzero;stroke:#5c5180;stroke-width:2.22452;stroke-linecap:butt;stroke-linejoin:miter;stroke-miterlimit:4;stroke-dasharray:none;stroke-opacity:1" id="path54" />
			<path d="m 153.07866,267.92134 -0.0107,38.00533" style="fill:none;stroke:#5c5180;stroke-width:2.21911;stroke-linecap:butt;stroke-linejoin:miter;stroke-miterlimit:4;stroke-dasharray:none;stroke-opacity:1" id="path58" />
		</g>
		<g id="g3662" transform="translate(-24.158642,-25.412505)">
			<path d="m 94.005331,163.63067 h 1.448 c 0.910667,-0.016 1.625333,-0.256 2.145333,-0.71867 0.521334,-0.46933 0.781334,-1.09466 0.781334,-1.88533 0,-1.78133 -0.885334,-2.66667 -2.656,-2.66667 -0.833334,0 -1.5,0.23867 -2,0.71867 -0.494667,0.468 -0.74,1.09867 -0.74,1.88533 h -1.926667 c 0,-1.204 0.437333,-2.19866 1.312,-2.99066 0.881333,-0.80134 2,-1.19734 3.354667,-1.19734 1.432,0 2.552,0.37467 3.364,1.136 0.813333,0.75467 1.218662,1.80667 1.218662,3.156 0,0.656 -0.21333,1.296 -0.645329,1.916 -0.421333,0.61467 -1.005333,1.07867 -1.74,1.38534 0.833333,0.26133 1.474667,0.69866 1.928,1.31333 0.457329,0.60933 0.686669,1.35333 0.686669,2.23867 0,1.36 -0.44267,2.43866 -1.333336,3.24 -0.890666,0.79733 -2.046666,1.19866 -3.468,1.19866 -1.422666,0 -2.584,-0.38666 -3.48,-1.15733 -0.890666,-0.77067 -1.333333,-1.79067 -1.333333,-3.052 h 1.938667 c 0,0.79733 0.26,1.43733 0.78,1.91733 0.521333,0.47867 1.22,0.71867 2.094666,0.71867 0.932,0 1.64,-0.24533 2.134667,-0.72933 0.494667,-0.48934 0.74,-1.188 0.74,-2.09334 0,-0.88533 -0.270667,-1.56266 -0.812,-2.032 -0.542667,-0.47333 -1.324,-0.71866 -2.344,-0.72933 h -1.448 z" style="fill:#ffffff;fill-opacity:1;fill-rule:nonzero;stroke:none;stroke-width:1.33333" id="path60" />
			<path d="m 112.416,164.99467 2.50133,-4.11467 h 2.24933 l -3.688,5.57334 3.80267,5.69733 H 115.052 l -2.604,-4.21867 -2.604,4.21867 h -2.24 l 3.80266,-5.69733 -3.688,-5.57334 h 2.22934 z" style="fill:#ffffff;fill-opacity:1;fill-rule:nonzero;stroke:none;stroke-width:1.33333" id="path62" />
			<path d="m 132.40666,167.05734 h 2.104 v 1.57333 h -2.104 v 3.52 h -1.93733 v -3.52 h -6.90667 v -1.136 l 6.792,-10.51067 h 2.052 z m -6.65733,0 h 4.72 V 159.62 l -0.22933,0.416 z" style="fill:#ffffff;fill-opacity:1;fill-rule:nonzero;stroke:none;stroke-width:1.33333" id="path64" />
			<path d="m 142.636,172.15067 h -1.93867 v -12.844 l -3.88533,1.428 V 158.984 l 5.52133,-2.072 h 0.30267 z" style="fill:#ffffff;fill-opacity:1;fill-rule:nonzero;stroke:none;stroke-width:1.33333" id="path66" />
			<path d="m 155.83333,156.97334 v 1.636 h -0.35467 c -1.5,0.0267 -2.69733,0.46933 -3.58266,1.33333 -0.89067,0.86 -1.40667,2.07333 -1.54134,3.636 0.796,-0.91733 1.88534,-1.376 3.27067,-1.376 1.31733,0 2.36933,0.464 3.156,1.396 0.792,0.928 1.188,2.13067 1.188,3.604 0,1.56267 -0.428,2.81333 -1.28133,3.75067 -0.84934,0.93733 -1.99067,1.40666 -3.41734,1.40666 -1.45333,0 -2.63066,-0.55733 -3.53066,-1.66666 -0.90667,-1.12 -1.35467,-2.55734 -1.35467,-4.31334 v -0.74 c 0,-2.79066 0.59333,-4.92666 1.78133,-6.39466 1.19334,-1.48 2.96934,-2.24 5.32267,-2.272 z m -2.53067,6.83333 c -0.66266,0 -1.272,0.19867 -1.824,0.59467 -0.55733,0.396 -0.94266,0.89066 -1.156,1.48933 v 0.708 c 0,1.25067 0.28134,2.256 0.844,3.02133 0.56267,0.76 1.26,1.14534 2.104,1.14534 0.86534,0 1.54667,-0.32267 2.04134,-0.95867 0.5,-0.64 0.75066,-1.47867 0.75066,-2.50933 0,-1.04267 -0.256,-1.88534 -0.76,-2.52134 -0.5,-0.64533 -1.16666,-0.96933 -2,-0.96933 z" style="fill:#ffffff;fill-opacity:1;fill-rule:nonzero;stroke:none;stroke-width:1.33333" id="path68" />
			<path d="m 169.552,164.99467 2.5,-4.11467 h 2.25066 l -3.688,5.57334 3.80134,5.69733 h -2.228 l -2.604,-4.21867 -2.60534,4.21867 H 164.74 l 3.80133,-5.69733 -3.68667,-5.57334 h 2.228 z" style="fill:#ffffff;fill-opacity:1;fill-rule:nonzero;stroke:none;stroke-width:1.33333" id="path70" />
			<path d="m 189.536,167.05734 h 2.104 v 1.57333 h -2.104 v 3.52 h -1.93734 v -3.52 h -6.90533 v -1.136 L 187.484,156.984 h 2.052 z m -6.656,0 h 4.71866 V 159.62 l -0.22933,0.416 z" style="fill:#ffffff;fill-opacity:1;fill-rule:nonzero;stroke:none;stroke-width:1.33333" id="path72" />
			<path d="m 199.70266,172.15067 h -1.93733 v -12.844 l -3.88533,1.428 V 158.984 l 5.52133,-2.072 h 0.30133 z" style="fill:#ffffff;fill-opacity:1;fill-rule:nonzero;stroke:none;stroke-width:1.33333" id="path74" />
			<path d="m 212.96399,156.97334 v 1.636 h -0.35466 c -1.5,0.0267 -2.69734,0.46933 -3.58267,1.33333 -0.89067,0.86 -1.40667,2.07333 -1.54267,3.636 0.79734,-0.91733 1.88534,-1.376 3.27067,-1.376 1.31867,0 2.37067,0.464 3.15733,1.396 0.79067,0.928 1.18667,2.13067 1.18667,3.604 0,1.56267 -0.42667,2.81333 -1.28133,3.75067 -0.848,0.93733 -1.98934,1.40666 -3.416,1.40666 -1.45334,0 -2.63067,-0.55733 -3.532,-1.66666 -0.90534,-1.12 -1.35334,-2.55734 -1.35334,-4.31334 v -0.74 c 0,-2.79066 0.59334,-4.92666 1.78134,-6.39466 1.192,-1.48 2.968,-2.24 5.32266,-2.272 z m -2.532,6.83333 c -0.66133,0 -1.27066,0.19867 -1.82266,0.59467 -0.55734,0.396 -0.94267,0.89066 -1.156,1.48933 v 0.708 c 0,1.25067 0.28133,2.256 0.844,3.02133 0.56266,0.76 1.26,1.14534 2.104,1.14534 0.864,0 1.54666,-0.32267 2.04133,-0.95867 0.5,-0.64 0.75067,-1.47867 0.75067,-2.50933 0,-1.04267 -0.256,-1.88534 -0.76134,-2.52134 -0.5,-0.64533 -1.16666,-0.96933 -2,-0.96933 z" style="fill:#ffffff;fill-opacity:1;fill-rule:nonzero;stroke:none;stroke-width:1.33333" id="path76" />
		</g>
		<g id="g4406" clip-path="url(#clipPath4623)">
         <g id="featuremap-bottom">
            <path d="m 523.30902,98.38021 127.15827,92.9247 -127.15947,92.93255 -127.15347,-92.92818 z" style="fill:#857aab;fill-opacity:1;fill-rule:nonzero;stroke:#5c5180;stroke-width:1.99999;stroke-linecap:butt;stroke-linejoin:miter;stroke-miterlimit:4;stroke-dasharray:none;stroke-opacity:1" id="path80" />
            <path d="m 650.90727,121.17687 v 70.14627 M 395.72396,121.17687 v 70.14189" style="fill:none;stroke:#5c5180;stroke-width:1.99513;stroke-linecap:butt;stroke-linejoin:miter;stroke-miterlimit:4;stroke-dasharray:none;stroke-opacity:1" id="path84" />
            <path d="m 523.31262,214.10062 -0.004,70.13693" style="fill:none;stroke:#5c5180;stroke-width:1.99513;stroke-linecap:butt;stroke-linejoin:miter;stroke-miterlimit:4;stroke-dasharray:none;stroke-opacity:1" id="path92" />
         </g>
		</g>
		<path d="M 523.31262,28.238539 650.47209,121.17286 523.31382,214.10106 396.15915,121.17724 Z" style="fill:#857aab;fill-opacity:1;fill-rule:nonzero;stroke:#5c5180;stroke-width:1.99999;stroke-linecap:butt;stroke-linejoin:miter;stroke-miterlimit:4;stroke-dasharray:none;stroke-opacity:1" id="path88" />
		<g id="g3677" transform="translate(-61.92664,-14.441624)">
         <g id="featuremap-red" class="red">
   			<path d="m 522.46399,143.69558 h 1.448 c 0.91066,-0.016 1.624,-0.25466 2.14533,-0.71866 0.52133,-0.468 0.78133,-1.09334 0.78133,-1.88534 0,-1.78133 -0.88533,-2.66666 -2.656,-2.66666 -0.83333,0 -1.5,0.24 -2,0.71866 -0.48933,0.46934 -0.74,1.09867 -0.74,1.88534 h -1.92666 c 0,-1.20267 0.43733,-2.19734 1.312,-2.98934 0.88533,-0.80266 2,-1.19733 3.35466,-1.19733 1.432,0 2.552,0.37467 3.364,1.13467 0.81334,0.75466 1.21867,1.808 1.21867,3.156 0,0.656 -0.21333,1.29733 -0.64533,1.91733 -0.42267,0.61467 -1,1.07733 -1.74,1.38533 0.83333,0.26 1.48,0.69734 1.92666,1.312 0.45867,0.60934 0.688,1.35467 0.688,2.24 0,1.35867 -0.44266,2.43734 -1.33333,3.24 -0.88533,0.796 -2.04133,1.19734 -3.468,1.19734 -1.42267,0 -2.584,-0.38534 -3.48,-1.156 -0.88533,-0.77067 -1.33333,-1.792 -1.33333,-3.052 h 1.93733 c 0,0.796 0.26133,1.43733 0.78133,1.916 0.52134,0.48 1.21867,0.71866 2.09467,0.71866 0.932,0 1.64533,-0.244 2.13467,-0.72933 0.49466,-0.48933 0.74,-1.18667 0.74,-2.09333 0,-0.88534 -0.27067,-1.56267 -0.81334,-2.03067 -0.54133,-0.47467 -1.32266,-0.71867 -2.34266,-0.72933 h -1.448 z" style="fill:#c44e52;fill-opacity:1;fill-rule:nonzero;stroke:none;stroke-width:1.33333" id="path118" />
   			<path d="m 541.13999,145.74758 c 0,2.256 -0.38534,3.932 -1.156,5.032 -0.77067,1.09334 -1.97334,1.64534 -3.61467,1.64534 -1.61467,0 -2.812,-0.536 -3.59333,-1.604 -0.776,-1.07867 -1.17734,-2.68267 -1.208,-4.812 v -2.57334 c 0,-2.22933 0.38533,-3.88533 1.156,-4.96933 0.77066,-1.08267 1.97866,-1.624 3.62533,-1.624 1.63467,0 2.83333,0.52 3.604,1.572 0.77067,1.04133 1.16667,2.65067 1.18667,4.83333 z m -1.92667,-2.63466 c 0,-1.636 -0.22933,-2.824 -0.68667,-3.56267 -0.45866,-0.75067 -1.18266,-1.12533 -2.17733,-1.12533 -0.98533,0 -1.704,0.36933 -2.156,1.11466 -0.448,0.74 -0.68267,1.88534 -0.69867,3.42667 v 3.084 c 0,1.63467 0.24,2.84933 0.708,3.63467 0.48,0.776 1.204,1.16666 2.16667,1.16666 0.95333,0 1.65733,-0.36933 2.11467,-1.104 0.46933,-0.73866 0.70933,-1.896 0.72933,-3.47866 z" style="fill:#c44e52;fill-opacity:1;fill-rule:nonzero;stroke:none;stroke-width:1.33333" id="path120" />
         </g>
         <g id="featuremap-white" class="white">
   			<path d="m 522.46399,143.63067 h 1.448 c 0.91066,-0.016 1.624,-0.256 2.14533,-0.71867 0.52133,-0.46933 0.78133,-1.09466 0.78133,-1.88533 0,-1.78133 -0.88533,-2.66666 -2.656,-2.66666 -0.83333,0 -1.5,0.23866 -2,0.71866 -0.48933,0.468 -0.74,1.09867 -0.74,1.88533 h -1.92666 c 0,-1.20399 0.43733,-2.19866 1.312,-2.99066 0.88533,-0.80133 2,-1.19733 3.35466,-1.19733 1.432,0 2.552,0.37466 3.364,1.136 0.81334,0.75466 1.21867,1.80666 1.21867,3.15599 0,0.656 -0.21333,1.296 -0.64533,1.916 -0.42267,0.61467 -1,1.07867 -1.74,1.38534 0.83333,0.26133 1.48,0.69866 1.92666,1.31333 0.45867,0.60933 0.688,1.35333 0.688,2.23867 0,1.36 -0.44266,2.43866 -1.33333,3.24 -0.88533,0.79733 -2.04133,1.19866 -3.468,1.19866 -1.42267,0 -2.584,-0.38666 -3.48,-1.15733 -0.88533,-0.77067 -1.33333,-1.79067 -1.33333,-3.052 h 1.93733 c 0,0.79733 0.26133,1.43733 0.78133,1.91733 0.52134,0.47867 1.21867,0.71867 2.09467,0.71867 0.932,0 1.64533,-0.24533 2.13467,-0.72933 0.49466,-0.48934 0.74,-1.188 0.74,-2.09334 0,-0.88533 -0.27067,-1.56266 -0.81334,-2.032 -0.54133,-0.47333 -1.32266,-0.71866 -2.34266,-0.72933 h -1.448 z" style="fill:#ffffff;fill-opacity:1;fill-rule:nonzero;stroke:none;stroke-width:1.33333" id="path94" />
   			<path d="m 541.56799,152.15067 h -9.93734 v -1.38533 l 5.24934,-5.83334 c 0.78133,-0.88533 1.31333,-1.59866 1.604,-2.14533 0.30266,-0.55733 0.448,-1.13067 0.448,-1.71867 0,-0.79199 -0.23867,-1.44266 -0.71867,-1.94799 -0.47867,-0.51067 -1.11467,-0.76 -1.916,-0.76 -0.95867,0 -1.704,0.27066 -2.24,0.82266 -0.52667,0.54134 -0.792,1.296 -0.792,2.27067 h -1.92667 c 0,-1.396 0.448,-2.52667 1.344,-3.38533 0.90534,-0.86534 2.10934,-1.292 3.61467,-1.292 1.41067,0 2.52533,0.36933 3.34267,1.11466 0.824,0.73467 1.22933,1.71867 1.22933,2.948 0,1.48933 -0.948,3.27067 -2.85333,5.33333 l -4.06267,4.40667 h 7.61467 z" style="fill:#ffffff;fill-opacity:1;fill-rule:nonzero;stroke:none;stroke-width:1.33333" id="path96" />
         </g>
			<path d="m 552.84932,144.99467 2.5,-4.11467 h 2.24933 l -3.68666,5.57334 3.80133,5.69733 h -2.22933 l -2.604,-4.21867 -2.604,4.21867 h -2.24 l 3.80266,-5.69733 -3.688,-5.57334 h 2.22934 z" style="fill:#ffffff;fill-opacity:1;fill-rule:nonzero;stroke:none;stroke-width:1.33333" id="path98" />
			<path d="m 572.89599,147.05734 h 2.104 v 1.57333 h -2.104 v 3.52 h -1.93734 v -3.52 h -6.90666 v -1.136 l 6.792,-10.51066 h 2.052 z m -6.656,0 h 4.71866 v -7.43733 l -0.22933,0.416 z" style="fill:#ffffff;fill-opacity:1;fill-rule:nonzero;stroke:none;stroke-width:1.33333" id="path100" />
			<path d="m 583.06265,152.15067 h -1.93733 v -12.844 l -3.88533,1.428 v -1.75066 l 5.52,-2.072 h 0.30266 z" style="fill:#ffffff;fill-opacity:1;fill-rule:nonzero;stroke:none;stroke-width:1.33333" id="path102" />
			<path d="m 596.25999,136.97334 v 1.636 h -0.35334 c -1.5,0.0267 -2.69333,0.46933 -3.584,1.33333 -0.89066,0.86 -1.40133,2.07333 -1.54133,3.636 0.79733,-0.91733 1.89067,-1.376 3.27067,-1.376 1.31733,0 2.36933,0.464 3.156,1.396 0.792,0.928 1.188,2.13067 1.188,3.604 0,1.56267 -0.42667,2.81333 -1.28134,3.75067 -0.84933,0.93733 -1.984,1.40666 -3.41733,1.40666 -1.452,0 -2.62933,-0.55733 -3.53067,-1.66666 -0.90133,-1.12 -1.35466,-2.55734 -1.35466,-4.31334 v -0.74 c 0,-2.79066 0.59466,-4.92666 1.78133,-6.39466 1.19333,-1.48 2.96933,-2.24 5.324,-2.272 z m -2.53067,6.83333 c -0.66133,0 -1.26533,0.19867 -1.82267,0.59467 -0.55733,0.396 -0.94266,0.89066 -1.15733,1.48933 v 0.708 c 0,1.25067 0.28133,2.256 0.844,3.02133 0.56267,0.76 1.26667,1.14534 2.104,1.14534 0.87067,0 1.548,-0.32267 2.04267,-0.95867 0.5,-0.64 0.74933,-1.47867 0.74933,-2.50933 0,-1.04267 -0.25467,-1.88534 -0.76,-2.52134 -0.5,-0.64533 -1.16667,-0.96933 -2,-0.96933 z" style="fill:#ffffff;fill-opacity:1;fill-rule:nonzero;stroke:none;stroke-width:1.33333" id="path104" />
			<path d="m 609.97865,144.99467 2.5,-4.11467 h 2.25067 l -3.688,5.57334 3.80266,5.69733 h -2.22933 l -2.604,-4.21867 -2.604,4.21867 h -2.24 l 3.80267,-5.69733 -3.688,-5.57334 h 2.22933 z" style="fill:#ffffff;fill-opacity:1;fill-rule:nonzero;stroke:none;stroke-width:1.33333" id="path106" />
			<path d="m 629.96398,147.05734 h 2.104 v 1.57333 h -2.104 v 3.52 h -1.93733 v -3.52 h -6.90667 v -1.136 l 6.792,-10.51066 h 2.052 z m -6.65733,0 h 4.72 v -7.43733 l -0.22933,0.416 z" style="fill:#ffffff;fill-opacity:1;fill-rule:nonzero;stroke:none;stroke-width:1.33333" id="path108" />
			<path d="m 640.19332,152.15067 h -1.93867 v -12.844 l -3.88533,1.428 v -1.75066 l 5.52133,-2.072 h 0.30267 z" style="fill:#ffffff;fill-opacity:1;fill-rule:nonzero;stroke:none;stroke-width:1.33333" id="path110" />
			<path d="m 653.39065,136.97334 v 1.636 h -0.35467 c -1.5,0.0267 -2.692,0.46933 -3.58266,1.33333 -0.88534,0.86 -1.40134,2.07333 -1.54134,3.636 0.80134,-0.91733 1.89067,-1.376 3.27067,-1.376 1.32267,0 2.37467,0.464 3.156,1.396 0.792,0.928 1.188,2.13067 1.188,3.604 0,1.56267 -0.428,2.81333 -1.28133,3.75067 -0.844,0.93733 -1.98534,1.40666 -3.41734,1.40666 -1.448,0 -2.62533,-0.55733 -3.53066,-1.66666 -0.90134,-1.12 -1.35467,-2.55734 -1.35467,-4.31334 v -0.74 c 0,-2.79066 0.59333,-4.92666 1.78133,-6.39466 1.19734,-1.48 2.96934,-2.24 5.32267,-2.272 z m -2.53067,6.83333 c -0.65733,0 -1.26666,0.19867 -1.824,0.59467 -0.552,0.396 -0.93733,0.89066 -1.156,1.48933 v 0.708 c 0,1.25067 0.28134,2.256 0.844,3.02133 0.56267,0.76 1.26534,1.14534 2.104,1.14534 0.86934,0 1.552,-0.32267 2.04134,-0.95867 0.5,-0.64 0.75066,-1.47867 0.75066,-2.50933 0,-1.04267 -0.25066,-1.88534 -0.76,-2.52134 -0.5,-0.64533 -1.16666,-0.96933 -2,-0.96933 z" style="fill:#ffffff;fill-opacity:1;fill-rule:nonzero;stroke:none;stroke-width:1.33333" id="path112" />
		</g>
		<path d="m 666.39095,110.22801 108.30666,26.088 v 39.844 l -108.30666,26.08933 z" style="fill:#5875a4;fill-opacity:1;fill-rule:nonzero;stroke:none;stroke-width:1.33333" id="path122" />
		<path d="m 676.36028,150.54534 v 1.224 h -0.26667 c -1.124,0.0213 -2.02,0.35467 -2.68666,1 -0.66667,0.64667 -1.052,1.55733 -1.15734,2.72933 0.6,-0.688 1.41734,-1.03066 2.45334,-1.03066 0.99066,0 1.78133,0.348 2.37066,1.04666 0.59334,0.69734 0.89067,1.59867 0.89067,2.70267 0,1.172 -0.324,2.10933 -0.964,2.81333 -0.636,0.70267 -1.48933,1.052 -2.56267,1.052 -1.088,0 -1.968,-0.41733 -2.64533,-1.25066 -0.67733,-0.83867 -1.016,-1.916 -1.016,-3.23467 v -0.552 c 0,-2.09333 0.44267,-3.692 1.33333,-4.796 0.896,-1.10933 2.22934,-1.67733 3.99467,-1.704 z m -1.896,5.12533 c -0.49467,0 -0.95333,0.14534 -1.37067,0.44267 -0.416,0.29733 -0.70266,0.672 -0.864,1.12 v 0.53067 c 0,0.93733 0.208,1.69333 0.62934,2.26666 0.42266,0.572 0.948,0.85867 1.57866,0.85867 0.65067,0 1.16134,-0.24 1.532,-0.71867 0.37467,-0.47866 0.56134,-1.10933 0.56134,-1.88533 0,-0.78133 -0.18667,-1.412 -0.56667,-1.89067 -0.376,-0.484 -0.876,-0.724 -1.5,-0.724 z" style="fill:#ffffff;fill-opacity:1;fill-rule:nonzero;stroke:none;stroke-width:1.33333" id="path124" />
		<path d="m 685.76561,158.10801 h 1.57867 v 1.17733 h -1.57867 v 2.64 h -1.45333 v -2.64 h -5.176 v -0.84933 l 5.09333,-7.88534 h 1.536 z m -4.98933,0 h 3.536 v -5.57734 l -0.172,0.312 z" style="fill:#ffffff;fill-opacity:1;fill-rule:nonzero;stroke:none;stroke-width:1.33333" id="path126" />
		<path d="m 695.57895,156.56134 1.87466,-3.088 h 1.68667 l -2.76533,4.18133 2.84933,4.27067 h -1.672 l -1.95333,-3.16133 -1.95334,3.16133 h -1.676 l 2.848,-4.27067 -2.76533,-4.18133 h 1.672 z" style="fill:#ffffff;fill-opacity:1;fill-rule:nonzero;stroke:none;stroke-width:1.33333" id="path128" />
      <g id="conv2-red" class="red">
         <path d="m 706.6002,155.53101 h 1.088 c 0.68266,-0.0107 1.21866,-0.188 1.60933,-0.53734 0.39067,-0.348 0.584,-0.82266 0.584,-1.416 0,-1.33333 -0.66133,-2 -1.99067,-2 -0.624,0 -1.124,0.18267 -1.5,0.54134 -0.36933,0.35466 -0.55733,0.82266 -0.55733,1.412 h -1.44267 c 0,-0.90134 0.32934,-1.64667 0.98534,-2.24 0.66133,-0.59867 1.5,-0.90134 2.51466,-0.90134 1.07334,0 1.912,0.28667 2.52134,0.85467 0.60933,0.568 0.91733,1.35467 0.91733,2.364 0,0.49467 -0.16267,0.97467 -0.48533,1.43867 -0.31734,0.46266 -0.75467,0.812 -1.30667,1.04133 0.62533,0.19733 1.10933,0.52533 1.448,0.984 0.344,0.45867 0.51467,1.016 0.51467,1.67733 0,1.02 -0.33334,1.83334 -1,2.432 -0.66667,0.59867 -1.536,0.896 -2.604,0.896 -1.06667,0 -1.93734,-0.28666 -2.60934,-0.864 -0.66666,-0.57866 -1,-1.344 -1,-2.292 h 1.45334 c 0,0.59867 0.19866,1.07734 0.58933,1.43734 0.39067,0.35866 0.91067,0.54133 1.56667,0.54133 0.69866,0 1.23466,-0.18267 1.604,-0.54667 0.37066,-0.364 0.55333,-0.89066 0.55333,-1.57333 0,-0.66133 -0.204,-1.16667 -0.61067,-1.52 -0.40533,-0.35467 -0.98933,-0.53733 -1.75466,-0.54667 h -1.088 z" style="fill:#c44e52;fill-opacity:1;fill-rule:nonzero;stroke:none;stroke-width:1.33333" id="path142" />
         <path d="m 720.61086,157.07234 c 0,1.69333 -0.292,2.948 -0.87066,3.77067 -0.57734,0.82266 -1.47867,1.23466 -2.708,1.23466 -1.21334,0 -2.11467,-0.40133 -2.69867,-1.20266 -0.58267,-0.808 -0.88533,-2.01067 -0.90533,-3.60934 v -1.928 c 0,-1.672 0.292,-2.916 0.86933,-3.72933 0.57867,-0.812 1.484,-1.21867 2.71867,-1.21867 1.224,0 2.12533,0.396 2.704,1.18267 0.57733,0.78133 0.87466,1.98933 0.89066,3.62533 z m -1.448,-1.97867 c 0,-1.224 -0.172,-2.11466 -0.516,-2.672 -0.344,-0.56266 -0.88533,-0.844 -1.63066,-0.844 -0.73867,0 -1.28134,0.28134 -1.62,0.83867 -0.33867,0.55733 -0.50934,1.41067 -0.52,2.568 v 2.312 c 0,1.22933 0.17733,2.14 0.53066,2.72933 0.36,0.58267 0.90134,0.87467 1.62534,0.87467 0.71333,0 1.24,-0.276 1.58266,-0.828 0.34934,-0.552 0.532,-1.42133 0.548,-2.60933 z" style="fill:#c44e52;fill-opacity:1;fill-rule:nonzero;stroke:none;stroke-width:1.33333" id="path144" />
      </g>
      <g id="conv2-white" class="white">
		   <path d="m 706.61495,155.53467 h 1.08266 c 0.68267,-0.009 1.21867,-0.18666 1.60934,-0.536 0.39066,-0.34933 0.58933,-0.82266 0.58933,-1.416 0,-1.33333 -0.66667,-2 -1.99467,-2 -0.62533,0 -1.12533,0.18134 -1.5,0.54134 -0.37066,0.35333 -0.552,0.82266 -0.552,1.41066 h -1.448 c 0,-0.9 0.328,-1.64533 0.984,-2.23866 0.66134,-0.59867 1.5,-0.90134 2.516,-0.90134 1.072,0 1.916,0.28667 2.52534,0.85467 0.60933,0.56667 0.912,1.35333 0.912,2.364 0,0.49467 -0.16134,0.97467 -0.484,1.43733 -0.31867,0.464 -0.75067,0.81334 -1.30267,1.04134 0.62533,0.19866 1.104,0.52666 1.44267,0.98533 0.344,0.45733 0.516,1.01467 0.516,1.676 0,1.02133 -0.33334,1.83467 -1,2.43333 -0.66667,0.59867 -1.532,0.896 -2.59867,0.896 -1.068,0 -1.93867,-0.28666 -2.60933,-0.86533 -0.66667,-0.57733 -1,-1.344 -1,-2.292 h 1.452 c 0,0.6 0.19333,1.07867 0.584,1.43867 0.39066,0.35866 0.916,0.54133 1.57333,0.54133 0.69733,0 1.228,-0.18267 1.59867,-0.54667 0.36933,-0.36533 0.55733,-0.89066 0.55733,-1.57333 0,-0.66133 -0.204,-1.16667 -0.60933,-1.52133 -0.40667,-0.35334 -0.99467,-0.536 -1.76134,-0.54667 h -1.08266 z" style="fill:#ffffff;fill-opacity:1;fill-rule:nonzero;stroke:none;stroke-width:1.33333" id="path130" />
		   <path d="m 720.94295,161.92534 h -7.45334 v -1.036 l 3.93734,-4.37467 c 0.584,-0.66133 0.98533,-1.19866 1.204,-1.60933 0.224,-0.41733 0.33333,-0.84933 0.33333,-1.292 0,-0.59333 -0.17733,-1.07867 -0.53733,-1.45867 -0.35867,-0.38 -0.83867,-0.572 -1.43734,-0.572 -0.71866,0 -1.28133,0.208 -1.68266,0.61867 -0.39467,0.40667 -0.59334,0.97467 -0.59334,1.704 h -1.44266 c 0,-1.04667 0.33333,-1.896 1.00533,-2.54133 0.67733,-0.64667 1.58267,-0.96934 2.71333,-0.96934 1.05734,0 1.89067,0.28134 2.50534,0.83867 0.61466,0.552 0.92133,1.28667 0.92133,2.208 0,1.12 -0.71333,2.45333 -2.14,4 l -3.04667,3.308 h 5.71334 z" style="fill:#ffffff;fill-opacity:1;fill-rule:nonzero;stroke:none;stroke-width:1.33333" id="path132" />
      </g>
		<path d="m 729.44828,156.56134 1.87467,-3.088 h 1.688 l -2.76534,4.18133 2.85334,4.27067 h -1.672 l -1.95334,-3.16133 -1.952,3.16133 h -1.68266 l 2.85466,-4.27067 -2.76666,-4.18133 h 1.672 z" style="fill:#ffffff;fill-opacity:1;fill-rule:nonzero;stroke:none;stroke-width:1.33333" id="path134" />
		<path d="m 740.43761,155.53467 h 1.088 c 0.68267,-0.009 1.22,-0.18666 1.61067,-0.536 0.38933,-0.34933 0.58267,-0.82266 0.58267,-1.416 0,-1.33333 -0.66134,-2 -1.98934,-2 -0.62533,0 -1.12533,0.18134 -1.5,0.54134 -0.37066,0.35333 -0.55733,0.82266 -0.55733,1.41066 h -1.44267 c 0,-0.9 0.328,-1.64533 0.984,-2.23866 0.66134,-0.59867 1.5,-0.90134 2.516,-0.90134 1.07334,0 1.91067,0.28667 2.52,0.85467 0.60934,0.56667 0.91734,1.35333 0.91734,2.364 0,0.49467 -0.16134,0.97467 -0.484,1.43733 -0.31867,0.464 -0.756,0.81334 -1.308,1.04134 0.62533,0.19866 1.10933,0.52666 1.448,0.98533 0.344,0.45733 0.516,1.01467 0.516,1.676 0,1.02133 -0.33334,1.83467 -1,2.43333 -0.66667,0.59867 -1.536,0.896 -2.604,0.896 -1.068,0 -1.93734,-0.28666 -2.60934,-0.86533 -0.66666,-0.57733 -1,-1.344 -1,-2.292 h 1.45334 c 0,0.6 0.19733,1.07867 0.588,1.43867 0.39066,0.35866 0.912,0.54133 1.568,0.54133 0.69733,0 1.23466,-0.18267 1.604,-0.54667 0.36933,-0.36533 0.552,-0.89066 0.552,-1.57333 0,-0.66133 -0.20267,-1.16667 -0.60934,-1.52133 -0.40666,-0.35334 -0.98933,-0.536 -1.756,-0.54667 h -1.088 z" style="fill:#ffffff;fill-opacity:1;fill-rule:nonzero;stroke:none;stroke-width:1.33333" id="path136" />
		<path d="m 754.24961,156.56134 1.876,-3.088 h 1.68667 l -2.76533,4.18133 2.84933,4.27067 h -1.672 l -1.95333,-3.16133 -1.95334,3.16133 h -1.67733 l 2.84933,-4.27067 -2.76533,-4.18133 h 1.672 z" style="fill:#ffffff;fill-opacity:1;fill-rule:nonzero;stroke:none;stroke-width:1.33333" id="path138" />
		<path d="m 765.28695,155.53467 h 1.08266 c 0.68267,-0.009 1.21867,-0.18666 1.60934,-0.536 0.39066,-0.34933 0.58933,-0.82266 0.58933,-1.416 0,-1.33333 -0.66667,-2 -1.99467,-2 -0.62533,0 -1.12533,0.18134 -1.5,0.54134 -0.37066,0.35333 -0.552,0.82266 -0.552,1.41066 h -1.448 c 0,-0.9 0.328,-1.64533 0.984,-2.23866 0.66134,-0.59867 1.5,-0.90134 2.516,-0.90134 1.072,0 1.916,0.28667 2.52534,0.85467 0.60933,0.56667 0.912,1.35333 0.912,2.364 0,0.49467 -0.16134,0.97467 -0.48534,1.43733 -0.31733,0.464 -0.74933,0.81334 -1.30133,1.04134 0.62533,0.19866 1.104,0.52666 1.44267,0.98533 0.344,0.45733 0.516,1.01467 0.516,1.676 0,1.02133 -0.33334,1.83467 -1,2.43333 -0.66667,0.59867 -1.532,0.896 -2.6,0.896 -1.06667,0 -1.93734,-0.28666 -2.60934,-0.86533 -0.66666,-0.57733 -1,-1.344 -1,-2.292 h 1.45334 c 0,0.6 0.19333,1.07867 0.584,1.43867 0.39066,0.35866 0.916,0.54133 1.572,0.54133 0.69866,0 1.22933,-0.18267 1.6,-0.54667 0.36933,-0.36533 0.55733,-0.89066 0.55733,-1.57333 0,-0.66133 -0.204,-1.16667 -0.60933,-1.52133 -0.40667,-0.35334 -0.99467,-0.536 -1.76134,-0.54667 h -1.08266 z" style="fill:#ffffff;fill-opacity:1;fill-rule:nonzero;stroke:none;stroke-width:1.33333" id="path140" />
		<g id="g3651" transform="matrix(0.89914584,0,0,0.89928146,-1.1504824,-8.8406845)" style="stroke-width:1.11208">
			<path d="m 1021.9893,149.21947 141.428,103.34859 -141.428,103.35833 -141.41066,-103.35345 z" style="fill:#857aab;fill-opacity:1;fill-rule:nonzero;stroke:#5c5180;stroke-width:2.22415;stroke-linecap:butt;stroke-linejoin:miter;stroke-miterlimit:4;stroke-dasharray:none;stroke-opacity:1" id="path152" />
			<g id="g3642" style="stroke-width:1.11208">
				<path d="M 1163.9066,114.57331 V 252.58903 M 880.09864,114.57331 v 138.00987" style="fill:none;stroke:#5c5180;stroke-width:2.21875;stroke-linecap:butt;stroke-linejoin:miter;stroke-miterlimit:4;stroke-dasharray:none;stroke-opacity:1" id="path156" />
				<path d="M 1021.9946,11.208278 1163.4213,114.56758 1022,217.92104 880.58264,114.57245 Z" style="fill:#857aab;fill-opacity:1;fill-rule:nonzero;stroke:#5c5180;stroke-width:2.22415;stroke-linecap:butt;stroke-linejoin:miter;stroke-miterlimit:4;stroke-dasharray:none;stroke-opacity:1" id="path160" />
			</g>
			<path d="m 1022,217.92134 -0.011,138.00533" style="fill:none;stroke:#5c5180;stroke-width:2.21875;stroke-linecap:butt;stroke-linejoin:miter;stroke-miterlimit:4;stroke-dasharray:none;stroke-opacity:1" id="path164" />
		</g>
		<g id="g3689" transform="translate(-104.13828,-20.382843)">
			<path d="m 961.48931,106.90667 v 1.63467 h -0.35333 c -1.5,0.0267 -2.69334,0.46933 -3.584,1.33333 -0.89067,0.86 -1.40134,2.07334 -1.54134,3.636 0.796,-0.91733 1.89067,-1.37466 3.27067,-1.37466 1.31733,0 2.36933,0.46266 3.156,1.39466 0.792,0.928 1.188,2.13067 1.188,3.60534 0,1.56133 -0.428,2.812 -1.28133,3.74933 -0.84934,0.93733 -1.984,1.40667 -3.41734,1.40667 -1.45333,0 -2.62933,-0.55734 -3.53066,-1.66667 -0.90134,-1.12 -1.35467,-2.55733 -1.35467,-4.31333 v -0.73867 c 0,-2.792 0.59467,-4.928 1.78133,-6.396 1.19334,-1.48 2.96934,-2.24 5.32267,-2.27067 z m -2.53067,6.83334 c -0.66133,0 -1.26533,0.19733 -1.82266,0.59333 -0.55734,0.396 -0.94267,0.89067 -1.15734,1.48933 v 0.708 c 0,1.25067 0.28134,2.256 0.844,3.02134 0.56267,0.76 1.26534,1.14533 2.104,1.14533 0.87067,0 1.54667,-0.32267 2.04267,-0.95733 0.5,-0.64134 0.74933,-1.48 0.74933,-2.51067 0,-1.04133 -0.25466,-1.88533 -0.76,-2.52133 -0.5,-0.64534 -1.16666,-0.968 -2,-0.968 z" style="fill:#ffffff;fill-opacity:1;fill-rule:nonzero;stroke:none;stroke-width:1.33333" id="path166" />
			<path d="m 974.03064,116.98934 h 2.10534 v 1.57333 h -2.10534 v 3.52 h -1.93733 v -3.52 h -6.90533 v -1.136 l 6.79066,-10.50933 h 2.052 z m -6.656,0 h 4.71867 v -7.43733 l -0.22933,0.41733 z" style="fill:#ffffff;fill-opacity:1;fill-rule:nonzero;stroke:none;stroke-width:1.33333" id="path168" />
			<path d="m 987.10931,114.92667 2.5,-4.11466 h 2.25067 l -3.688,5.57333 3.80133,5.69733 h -2.228 l -2.60533,-4.21866 -2.604,4.21866 h -2.23867 l 3.80133,-5.69733 -3.68666,-5.57333 h 2.228 z" style="fill:#ffffff;fill-opacity:1;fill-rule:nonzero;stroke:none;stroke-width:1.33333" id="path170" />
			<path d="m 1007.1613,116.98934 h 2.104 v 1.57333 h -2.104 v 3.52 h -1.9373 v -3.52 h -6.90669 v -1.136 l 6.79199,-10.50933 h 2.052 z m -6.656,0 h 4.7187 v -7.43733 l -0.2294,0.41733 z" style="fill:#ffffff;fill-opacity:1;fill-rule:nonzero;stroke:none;stroke-width:1.33333" id="path172" />
			<path d="m 1017.328,122.08267 h -1.9374 v -12.84266 l -3.8853,1.42666 v -1.74933 l 5.5213,-2.07333 h 0.3014 z" style="fill:#ffffff;fill-opacity:1;fill-rule:nonzero;stroke:none;stroke-width:1.33333" id="path174" />
			<path d="m 1030.5266,106.90667 v 1.63467 h -0.3546 c -1.5,0.0267 -2.6987,0.46933 -3.584,1.33333 -0.8907,0.86 -1.4054,2.07334 -1.5414,3.636 0.7974,-0.91733 1.8854,-1.37466 3.2707,-1.37466 1.3187,0 2.3707,0.46266 3.156,1.39466 0.792,0.928 1.188,2.13067 1.188,3.60534 0,1.56133 -0.4267,2.812 -1.2813,3.74933 -0.8494,0.93733 -1.9894,1.40667 -3.416,1.40667 -1.4534,0 -2.6307,-0.55734 -3.532,-1.66667 -0.9054,-1.12 -1.3534,-2.55733 -1.3534,-4.31333 v -0.73867 c 0,-2.792 0.5934,-4.928 1.7814,-6.396 1.192,-1.48 2.968,-2.24 5.3226,-2.27067 z m -2.532,6.83334 c -0.6613,0 -1.2706,0.19733 -1.8226,0.59333 -0.5574,0.396 -0.9427,0.89067 -1.156,1.48933 v 0.708 c 0,1.25067 0.2813,2.256 0.844,3.02134 0.5613,0.76 1.26,1.14533 2.104,1.14533 0.864,0 1.5466,-0.32267 2.0413,-0.95733 0.5,-0.64134 0.7493,-1.48 0.7493,-2.51067 0,-1.04133 -0.2546,-1.88533 -0.76,-2.52133 -0.5,-0.64534 -1.1666,-0.968 -2,-0.968 z" style="fill:#ffffff;fill-opacity:1;fill-rule:nonzero;stroke:none;stroke-width:1.33333" id="path176" />
			<path d="m 1044.2453,114.92667 2.5,-4.11466 h 2.2493 l -3.688,5.57333 3.8027,5.69733 h -2.2293 l -2.604,-4.21866 -2.604,4.21866 h -2.24 l 3.8026,-5.69733 -3.688,-5.57333 h 2.2294 z" style="fill:#ffffff;fill-opacity:1;fill-rule:nonzero;stroke:none;stroke-width:1.33333" id="path178" />
			<path d="m 1064.2293,116.98934 h 2.104 v 1.57333 h -2.104 v 3.52 h -1.9373 v -3.52 h -6.9067 v -1.136 l 6.792,-10.50933 h 2.052 z m -6.656,0 h 4.7187 v -7.43733 l -0.2294,0.41733 z" style="fill:#ffffff;fill-opacity:1;fill-rule:nonzero;stroke:none;stroke-width:1.33333" id="path180" />
			<path d="m 1074.4586,122.08267 h -1.9373 v -12.84266 l -3.8853,1.42666 v -1.74933 l 5.52,-2.07333 h 0.3026 z" style="fill:#ffffff;fill-opacity:1;fill-rule:nonzero;stroke:none;stroke-width:1.33333" id="path182" />
			<path d="m 1087.656,106.90667 v 1.63467 h -0.3534 c -1.5,0.0267 -2.6986,0.46933 -3.584,1.33333 -0.8906,0.86 -1.4066,2.07334 -1.5413,3.636 0.796,-0.91733 1.8853,-1.37466 3.2707,-1.37466 1.3173,0 2.3693,0.46266 3.156,1.39466 0.792,0.928 1.188,2.13067 1.188,3.60534 0,1.56133 -0.428,2.812 -1.2814,3.74933 -0.8493,0.93733 -1.9893,1.40667 -3.4173,1.40667 -1.4533,0 -2.6293,-0.55734 -3.5307,-1.66667 -0.9066,-1.12 -1.3546,-2.55733 -1.3546,-4.31333 v -0.73867 c 0,-2.792 0.5946,-4.928 1.7813,-6.396 1.1933,-1.48 2.9693,-2.24 5.3227,-2.27067 z m -2.5307,6.83334 c -0.6613,0 -1.2707,0.19733 -1.8227,0.59333 -0.5573,0.396 -0.9426,0.89067 -1.1573,1.48933 v 0.708 c 0,1.25067 0.2813,2.256 0.844,3.02134 0.5627,0.76 1.2613,1.14533 2.104,1.14533 0.8653,0 1.5467,-0.32267 2.0427,-0.95733 0.5,-0.64134 0.7493,-1.48 0.7493,-2.51067 0,-1.04133 -0.2547,-1.88533 -0.76,-2.52133 -0.5,-0.64534 -1.1667,-0.968 -2,-0.968 z" style="fill:#ffffff;fill-opacity:1;fill-rule:nonzero;stroke:none;stroke-width:1.33333" id="path184" />
		</g>
	</g>
</svg>
