<?xml version="1.0" encoding="UTF-8" standalone="no"?>
<svg
   viewBox="0 0 282.10576 79.659998" version="1.1" xmlns="http://www.w3.org/2000/svg" xmlns:svg="http://www.w3.org/2000/svg"
   data-length="2"
>
	<style>
      svg[data-animattr] :where(#dwconv, #pwconv) {
         transition: opacity 750ms;
         opacity: 0;
      }
      svg[data-animattr~="0"] #dwconv { opacity: 1; }
      svg[data-animattr~="1"] #pwconv { opacity: 1; }
	</style>
	<path d="M 93.429235,0 V 79.660003" stroke="#8c8c8c" stroke-width="1.05833" />
	<g id="conv" transform="translate(-5.2803566,-15.423114)">
		<path fill="#857aab" stroke="#5c5180" stroke-width="0.529165" d="M 43.146122,35.824112 80.563484,63.17049 43.14612,90.51687 5.7287577,63.170491 Z" id="path347" />
		<path d="m 29.111291,70.203775 v 10.05433 L 43.147114,90.515995 56.994328,80.395948 V 70.341618 L 43.147109,80.466745 29.111291,70.203775" fill="#5875a4" id="path349" style="stroke-width:1.16974" />
		<path fill="none" stroke="#5c5180" stroke-width="0.529165" d="M 43.146122,35.824112 80.563484,63.17049 43.14612,90.51687 5.7287577,63.170491 Z" id="path351" />
		<path d="M 80.674278,53.116352 V 63.17073 M 5.619425,53.1156 v 10.054377" fill="none" stroke="#5c5180" stroke-width="0.52788" id="path353" />
		<g stroke="#5c5180" id="g361" style="stroke-width:1.16974">
			<path fill="#857aab" stroke-width="0.618988" d="M 72.495842,163.12083 H 125.41251 V 216.0375 H 72.495842 Z" transform="matrix(0.70709971,0.51678192,-0.70709971,0.51678192,107.22862,-95.993502)" id="path355" />
			<path fill="#5875a4" stroke-width="0.607096" d="m 105.56286,196.45459 h 19.85456 v 19.58782 h -19.85456 z" transform="matrix(0.70709971,0.51678192,-0.70709971,0.51678192,107.22862,-95.993502)" id="path357" />
			<path d="m 78.978135,163.12083 v 52.91667 m 6.614583,-52.91667 v 52.91667 m 6.614584,-52.91667 v 52.91667 m 6.614583,-52.91667 v 52.91667 m 6.614585,-52.91667 v 52.91667 m 6.61458,-52.91667 v 52.91667 m 6.61459,-52.91667 v 52.91667 m 6.48228,-6.48228 H 72.23126 m 52.91666,-6.61459 H 72.23126 m 52.91666,-6.61458 H 72.23126 m 52.91666,-6.61458 H 72.23126 m 52.91666,-6.61459 H 72.23126 m 52.91666,-6.61458 H 72.23126 m 52.91666,-6.61458 H 72.23126" fill="none" stroke-width="0.309494" transform="matrix(0.70709971,0.51678192,-0.70709971,0.51678192,107.22862,-95.993502)" id="path359" />
		</g>
		<path d="M 43.147115,80.462448 V 90.516826 M 56.994328,70.342353 V 80.396731 M 29.111292,70.20451 v 10.054378" fill="none" stroke="#5c5180" stroke-width="0.52788" id="path363" />
	</g>
	<g id="dwconv" stroke="#5c5180" style="stroke-width:1.16974" transform="translate(-5.2803566,-15.423114)">
		<path fill="#857aab" stroke-width="0.618988" d="M 43.06435,97.172241 H 95.981018 V 150.08891 H 43.06435 Z" transform="matrix(0.70709971,0.51678192,-0.70709971,0.51678192,192.53205,-36.649363)" id="path365" />
		<path fill="#cc8963" stroke-width="0.621937" d="m 76.136765,130.51102 h 19.846489 v 19.58013 H 76.136765 Z" transform="matrix(0.70709971,0.51678192,-0.70709971,0.51678192,192.53205,-36.649363)" id="path367" />
		<path d="m 49.546636,97.172234 10e-7,52.916676 m 6.614581,-52.916676 -3e-6,52.916666 m 6.614591,-52.916663 -5e-6,52.916663 m 6.614583,-52.916668 3e-6,52.916668 m 6.614582,-52.916665 -4e-6,52.916665 m 6.61459,-52.916663 -4e-6,52.916663 m 6.61458,-52.916665 6e-6,52.916665" fill="none" stroke-width="0.309494" transform="matrix(0.70709971,0.51678192,-0.70709971,0.51678192,192.53205,-36.649363)" id="path369" />
		<path d="M 96.108141,143.60662 H 42.799758 m 53.308385,-6.61459 H 42.79976 m 53.308378,-6.61458 -53.308375,1e-5 m 53.308378,-6.61459 H 42.799759 m 53.308384,-6.61459 H 42.79976 M 96.108138,110.5337 H 42.79976 m 53.308383,-6.61458 H 42.79976" fill="none" stroke-width="0.310637" transform="matrix(0.70709971,0.51678192,-0.70709971,0.51678192,192.53205,-36.649363)" id="path371" />
		<path fill="#857aab" stroke-width="0.618988" d="M 68.930664,90.624138 H 121.84733 V 143.54081 H 68.930664 Z" transform="matrix(0.70709971,0.51678192,-0.70709971,0.51678192,169.61162,-51.660285)" id="path373" />
		<path fill="#5f9e6e" stroke-width="0.621937" d="m 102.00307,123.96291 h 19.84649 v 19.58013 h -19.84649 z" transform="matrix(0.70709971,0.51678192,-0.70709971,0.51678192,169.61162,-51.660285)" id="path375" />
		<path d="m 75.412949,90.624131 10e-7,52.916679 m 6.614581,-52.916679 -3e-6,52.916669 m 6.614591,-52.916666 -5e-6,52.916666 m 6.614583,-52.916671 3e-6,52.916671 m 6.61458,-52.916668 V 143.5408 m 6.61459,-52.916666 -1e-5,52.916666 m 6.61458,-52.916668 10e-6,52.916668" fill="none" stroke-width="0.309494" transform="matrix(0.70709971,0.51678192,-0.70709971,0.51678192,169.61162,-51.660285)" id="path377" />
		<path d="M 121.97445,137.05852 H 68.666071 m 53.308389,-6.61459 H 68.666073 m 53.308377,-6.61458 -53.308374,10e-6 m 53.308374,-6.61459 H 68.666072 m 53.308388,-6.61459 H 68.666073 M 121.97445,103.9856 H 68.666073 M 121.97446,97.371017 H 68.666073" fill="none" stroke-width="0.310637" transform="matrix(0.70709971,0.51678192,-0.70709971,0.51678192,169.61162,-51.660285)" id="path379" />
		<path fill="#857aab" stroke-width="0.618988" d="M 30.016222,154.42137 H 82.93289 v 52.91667 H 30.016222 Z" transform="matrix(0.70709971,0.51678192,-0.70709971,0.51678192,242.23972,-69.546891)" id="path381" />
		<path fill="#b55d60" stroke-width="0.621937" d="m 63.088623,187.76015 h 19.846489 v 19.58013 H 63.088623 Z" transform="matrix(0.70709971,0.51678192,-0.70709971,0.51678192,242.23972,-69.546891)" id="path383" />
		<path d="m 36.498506,154.42137 10e-7,52.91668 m 6.614581,-52.91668 -3e-6,52.91667 m 6.614591,-52.91667 -5e-6,52.91667 m 6.614583,-52.91668 3e-6,52.91668 m 6.61458,-52.91667 v 52.91667 m 6.61459,-52.91667 -1e-5,52.91667 m 6.61458,-52.91667 1e-5,52.91667" fill="none" stroke-width="0.309494" transform="matrix(0.70709971,0.51678192,-0.70709971,0.51678192,242.23972,-69.546891)" id="path385" />
		<path d="M 83.060007,200.85576 H 29.751628 m 53.308389,-6.61459 H 29.75163 m 53.308377,-6.61458 -53.308374,1e-5 m 53.308374,-6.61459 H 29.751629 m 53.308388,-6.61459 H 29.75163 m 53.308377,-6.61458 H 29.75163 m 53.308387,-6.61459 H 29.75163" fill="none" stroke-width="0.310637" transform="matrix(0.70709971,0.51678192,-0.70709971,0.51678192,242.23972,-69.546891)" id="path387" />
	</g>
	<g id="pwconv" transform="translate(-5.2803566,-15.423114)">
		<path fill="#857aab" stroke="#5c5180" stroke-width="0.529165" d="M 249.52036,35.824192 286.93772,63.170571 249.52036,90.516948 212.103,63.17057 Z" id="path391" />
		<path d="m 249.52208,80.46674 4.49278,-3.28856 v 10.05433 l -4.49278,3.283488 -4.68139,-3.42133 v -10.04926 z" fill="#5875a4" id="path393" style="stroke-width:1.16974" />
		<path fill="none" stroke="#5c5180" stroke-width="0.529165" d="M 249.52036,35.824192 286.93772,63.170571 249.52036,90.516948 212.103,63.17057 Z" id="path395" />
		<path d="M 287.04924,53.116258 V 63.170636 M 211.99439,53.115505 v 10.054378" fill="none" stroke="#5c5180" stroke-width="0.52788" id="path397" />
		<g stroke="#5c5180" id="g405" style="stroke-width:1.16974">
			<path fill="#857aab" stroke-width="0.618988" d="m 0.264583,243.81874 h 52.916668 v 52.91667 H 0.264583 Z" transform="matrix(0.70709971,0.51678192,-0.70709971,0.51678192,421.74071,-100.36893)" id="path399" />
			<path d="m 6.746875,243.81874 v 52.91667 m 6.614583,-52.91667 v 52.91667 m 6.614584,-52.91667 v 52.91667 m 6.614583,-52.91667 v 52.91667 m 6.614583,-52.91667 v 52.91667 m 6.614584,-52.91667 v 52.91667 m 6.614583,-52.91667 v 52.91667 m 6.482289,-6.48228 H 0 m 52.916664,-6.61459 H 0 m 52.916664,-6.61458 H 0 m 52.916664,-6.61458 H 0 m 52.916664,-6.61459 H 0 m 52.916664,-6.61458 H 0 m 52.916664,-6.61458 H 0" fill="none" stroke-width="0.309494" transform="matrix(0.70709971,0.51678192,-0.70709971,0.51678192,421.74071,-100.36893)" id="path401" />
			<path fill="#5875a4" stroke-width="0.607513" d="m 186.52534,181.63792 h 6.62539 v 6.35866 h -6.62539 z" transform="matrix(0.70709971,0.51678192,-0.70709971,0.51678192,245.87744,-116.50335)" id="path403" />
		</g>
		<path d="m 249.52208,80.462354 v 10.054378 m 4.49278,-13.337881 v 10.054377 m -9.17417,-10.192221 v 10.054378" fill="none" stroke="#5c5180" stroke-width="0.52788" id="path407" />
	</g>
</svg>
