<?xml version="1.0" encoding="UTF-8"?>
<svg
	version="1.1" viewBox="0 0 579.1 551.6" xmlns="http://www.w3.org/2000/svg" xmlns:xlink="http://www.w3.org/1999/xlink"
	data-length="1"
>
	<style>
		<!-- TEXT -->
		svg[data-animattr] :where(#circle-orange, #circle-green, #circle-red) {
			transition: opacity 250ms ease;
			opacity: 0;
		}
		svg[data-animattr~="0"] #circle-orange { opacity: 1; }

		<!-- MARKERS -->
		svg[data-animattr] :where(.square, .triangle) {
			opacity: 0;
		}

		<!-- LINES -->
		svg[data-animattr] .line {
			stroke-dasharray: 1;
			stroke-dashoffset: 1;
		}
	</style>
	<defs id="defs1363">
		<path id="m94472a5fad" d="m4.5 0-9-4.5v9z" stroke="#262626" />
		<path id="mc12a14e273" d="m0-4.5-4.5 9h9z" stroke="#262626" />
		<path id="mf17f08839e" d="m0-4.3301-4.3301 8.6603h8.6603z" stroke="#5f9e6e" stroke-width="1.5" />
		<path id="mc975f4aab9" d="m0-4.3301-4.3301 8.6603h8.6603z" stroke="#5975a4" stroke-width="1.5" />
		<path id="me7cdbaf6b7" d="m0-4.3301-4.3301 8.6603h8.6603z" stroke="#b55d60" stroke-width="1.5" />
		<path id="m1de8609d2a" d="m0-4.3301-4.3301 8.6603h8.6603z" stroke="#cc8963" stroke-width="1.5" />
		<path id="mf2aa05dcc8" d="m0 4.3301c1.1484 0 2.2498-0.45625 3.0619-1.2683 0.81202-0.81202 1.2683-1.9135 1.2683-3.0619s-0.45625-2.2498-1.2683-3.0619c-0.81202-0.81202-1.9135-1.2683-3.0619-1.2683s-2.2498 0.45625-3.0619 1.2683c-0.81202 0.81202-1.2683 1.9135-1.2683 3.0619s0.45625 2.2498 1.2683 3.0619c0.81202 0.81202 1.9135 1.2683 3.0619 1.2683z" stroke="#b55d60" stroke-width="1.5" />
		<path id="mbe95dc89ac" d="m0 4.3301c1.1484 0 2.2498-0.45625 3.0619-1.2683 0.81202-0.81202 1.2683-1.9135 1.2683-3.0619s-0.45625-2.2498-1.2683-3.0619c-0.81202-0.81202-1.9135-1.2683-3.0619-1.2683s-2.2498 0.45625-3.0619 1.2683c-0.81202 0.81202-1.2683 1.9135-1.2683 3.0619s0.45625 2.2498 1.2683 3.0619c0.81202 0.81202 1.9135 1.2683 3.0619 1.2683z" stroke="#5975a4" stroke-width="1.5" />
		<path id="m9012874150" d="m0 4.3301c1.1484 0 2.2498-0.45625 3.0619-1.2683 0.81202-0.81202 1.2683-1.9135 1.2683-3.0619s-0.45625-2.2498-1.2683-3.0619c-0.81202-0.81202-1.9135-1.2683-3.0619-1.2683s-2.2498 0.45625-3.0619 1.2683c-0.81202 0.81202-1.2683 1.9135-1.2683 3.0619s0.45625 2.2498 1.2683 3.0619c0.81202 0.81202 1.9135 1.2683 3.0619 1.2683z" stroke="#cc8963" stroke-width="1.5" />
		<path id="m19efad9a26" d="m0 4.3301c1.1484 0 2.2498-0.45625 3.0619-1.2683 0.81202-0.81202 1.2683-1.9135 1.2683-3.0619s-0.45625-2.2498-1.2683-3.0619c-0.81202-0.81202-1.9135-1.2683-3.0619-1.2683s-2.2498 0.45625-3.0619 1.2683c-0.81202 0.81202-1.2683 1.9135-1.2683 3.0619s0.45625 2.2498 1.2683 3.0619c0.81202 0.81202 1.9135 1.2683 3.0619 1.2683z" stroke="#5f9e6e" stroke-width="1.5" />
		<path id="m461f1dab51" d="m-4.3301 4.3301h8.6603v-8.6603h-8.6603z" stroke="#5975a4" stroke-width="1.5" />
		<path id="mce6571ba4c" d="m-4.3301 4.3301h8.6603v-8.6603h-8.6603z" stroke="#cc8963" stroke-width="1.5" />
		<path id="m22c8fb29ac" d="m-4.3301 4.3301h8.6603v-8.6603h-8.6603z" stroke="#b55d60" stroke-width="1.5" />
		<path id="m6d134d8d33" d="m-4.3301 4.3301h8.6603v-8.6603h-8.6603z" stroke="#5f9e6e" stroke-width="1.5" />
	</defs>
	<g id="g2802" transform="translate(-44.241 -67.733)" fill="#262626">
		<g id="text1371" aria-label="0">
			<path id="path6394" d="m84.553 600.25q0 2.4814-0.9104 3.7705-0.9104 1.281-2.6829 1.281-1.7402 0-2.6667-1.2568-0.92651-1.2649-0.95068-3.6738v-2.1028q0-2.4734 0.91846-3.7463t2.6829-1.273q1.7402 0 2.6587 1.2327 0.91846 1.2246 0.95068 3.6174zm-0.9668-2.1028q0-2.0142-0.66064-3.0454-0.65259-1.0312-1.9819-1.0312-1.3052 0-1.9658 1.0071-0.66064 1.0071-0.67676 2.9729v2.3042q0 2.0061 0.67676 3.0696 0.68482 1.0635 1.9819 1.0635 1.2891 0 1.9497-1.0393 0.6687-1.0393 0.67676-3.0454z" fill="#262626" />
		</g>
		<g id="text1375" aria-label="10">
			<path id="path6397" d="m133.52 605.14h-0.96679v-10.57l-3.1904 1.1843v-0.90235l3.9961-1.4824h0.16113z" />
			<path id="path6399" d="m145.25 600.25q0 2.4814-0.9104 3.7705-0.9104 1.281-2.6829 1.281-1.7402 0-2.6668-1.2568-0.92651-1.2649-0.95068-3.6738v-2.1028q0-2.4734 0.91845-3.7463 0.91846-1.273 2.6829-1.273 1.7402 0 2.6587 1.2327 0.91845 1.2246 0.95068 3.6174zm-0.9668-2.1028q0-2.0142-0.66064-3.0454-0.65259-1.0312-1.9819-1.0312-1.3052 0-1.9658 1.0071-0.66065 1.0071-0.67676 2.9729v2.3042q0 2.0061 0.67676 3.0696 0.68481 1.0635 1.9819 1.0635 1.2891 0 1.9497-1.0393 0.6687-1.0393 0.67675-3.0454z" />
		</g>
		<g id="text1379" aria-label="20">
			<path id="path6402" d="m191.82 605.14h-7.3477v-0.74121l4.0203-4.5601q0.99902-1.1521 1.3857-1.9014 0.38672-0.74927 0.38672-1.4583 0-1.1118-0.65259-1.7563-0.65259-0.65259-1.7966-0.65259-1.1843 0-1.9175 0.75732-0.7251 0.75733-0.7251 1.9658h-0.95874q0-0.99096 0.44312-1.8047 0.45117-0.81373 1.273-1.273 0.82983-0.46729 1.8852-0.46729 1.6113 0 2.5137 0.84595 0.9104 0.84595 0.9104 2.3042 0 0.82177-0.51562 1.7966-0.50757 0.97485-1.7966 2.4331l-3.271 3.698h6.1633z" />
			<path id="path6404" d="m200.69 600.25q0 2.4814-0.9104 3.7705-0.9104 1.281-2.6829 1.281-1.7402 0-2.6668-1.2568-0.92651-1.2649-0.95068-3.6738v-2.1028q0-2.4734 0.91845-3.7463 0.91846-1.273 2.6829-1.273 1.7402 0 2.6587 1.2327 0.91845 1.2246 0.95068 3.6174zm-0.9668-2.1028q0-2.0142-0.66064-3.0454-0.65259-1.0312-1.9819-1.0312-1.3052 0-1.9658 1.0071-0.66065 1.0071-0.67676 2.9729v2.3042q0 2.0061 0.67676 3.0696 0.68481 1.0635 1.9819 1.0635 1.2891 0 1.9497-1.0393 0.6687-1.0393 0.67675-3.0454z" />
		</g>
		<g id="text1383" aria-label="30">
			<path id="path6407" d="m242.54 598.75h0.99902q0.82983 0 1.4502-0.29004 0.62037-0.2981 0.94263-0.80567 0.33032-0.51562 0.33032-1.1843 0-1.1279-0.63647-1.7644-0.63648-0.63647-1.8289-0.63647-1.1279 0-1.853 0.6687-0.71704 0.66064-0.71704 1.7483h-0.96679q0-0.9104 0.45923-1.6597 0.45922-0.75732 1.2729-1.1682 0.81373-0.41089 1.8047-0.41089 1.5952 0 2.5137 0.87012 0.91846 0.87012 0.91846 2.3848 0 0.84595-0.53979 1.563-0.53174 0.70899-1.4663 1.0635 1.0957 0.30615 1.6597 1.0554 0.56396 0.74121 0.56396 1.7725 0 1.5066-0.98291 2.425t-2.6265 0.91846q-1.0474 0-1.9255-0.41895-0.87012-0.41895-1.3535-1.1682-0.47534-0.75733-0.47534-1.7564h0.9668q0 1.1199 0.78149 1.8289 0.7815 0.70092 2.0061 0.70092 1.2488 0 1.9416-0.63647 0.70092-0.64453 0.70092-1.8611 0-1.1763-0.75732-1.7966-0.74927-0.62037-2.2156-0.62037h-0.96679z" />
			<path id="path6409" d="m256.62 600.25q0 2.4814-0.9104 3.7705-0.9104 1.281-2.6829 1.281-1.7402 0-2.6668-1.2568-0.92652-1.2649-0.95069-3.6738v-2.1028q0-2.4734 0.91846-3.7463t2.6829-1.273q1.7402 0 2.6587 1.2327 0.91846 1.2246 0.95069 3.6174zm-0.9668-2.1028q0-2.0142-0.66064-3.0454-0.65259-1.0312-1.9819-1.0312-1.3052 0-1.9658 1.0071-0.66064 1.0071-0.67676 2.9729v2.3042q0 2.0061 0.67676 3.0696 0.68482 1.0635 1.9819 1.0635 1.2891 0 1.9497-1.0393 0.6687-1.0393 0.67676-3.0454z" />
		</g>
		<g id="text1387" aria-label="40">
			<path id="path6412" d="m302 601.36h1.8289v0.81372h-1.8289v2.9648h-0.9668v-2.9648h-5.5188v-0.54785l5.4302-8.2178h1.0554zm-5.3013 0h4.3345v-6.7031l-0.427 0.74121z" />
			<path id="path6414" d="m312.3 600.25q0 2.4814-0.9104 3.7705-0.9104 1.281-2.6829 1.281-1.7402 0-2.6668-1.2568-0.92651-1.2649-0.95068-3.6738v-2.1028q0-2.4734 0.91846-3.7463t2.6829-1.273q1.7402 0 2.6587 1.2327 0.91846 1.2246 0.95068 3.6174zm-0.96679-2.1028q0-2.0142-0.66065-3.0454-0.65258-1.0312-1.9819-1.0312-1.3052 0-1.9658 1.0071-0.66065 1.0071-0.67676 2.9729v2.3042q0 2.0061 0.67676 3.0696 0.68481 1.0635 1.9819 1.0635 1.2891 0 1.9497-1.0393 0.6687-1.0393 0.67676-3.0454z" />
		</g>
		<g id="text1391" aria-label="50">
			<path id="path6417" d="m352.37 599.13 0.57202-5.7202h5.8652v0.89429h-5.0354l-0.41089 3.9639q0.94263-0.64453 2.2075-0.64453 1.5872 0 2.5298 1.0312 0.94263 1.0312 0.94263 2.7473 0 1.853-0.91846 2.8762-0.91845 1.0232-2.5862 1.0232-1.5308 0-2.4814-0.85401-0.95069-0.854-1.0876-2.3928h0.92651q0.13697 1.2004 0.81373 1.8208 0.67675 0.6123 1.8288 0.6123 1.2568 0 1.8933-0.7976 0.64453-0.79761 0.64453-2.272 0-1.2891-0.71704-2.1028t-1.9578-0.81372q-0.68481 0-1.1924 0.17725-0.50757 0.16919-1.0715 0.6687z" />
			<path id="path6419" d="m367.93 600.25q0 2.4814-0.9104 3.7705-0.9104 1.281-2.6829 1.281-1.7402 0-2.6668-1.2568-0.92651-1.2649-0.95068-3.6738v-2.1028q0-2.4734 0.91846-3.7463 0.91845-1.273 2.6829-1.273 1.7402 0 2.6587 1.2327 0.91846 1.2246 0.95068 3.6174zm-0.96679-2.1028q0-2.0142-0.66065-3.0454-0.65259-1.0312-1.9819-1.0312-1.3052 0-1.9658 1.0071-0.66065 1.0071-0.67676 2.9729v2.3042q0 2.0061 0.67676 3.0696 0.68481 1.0635 1.9819 1.0635 1.2891 0 1.9497-1.0393 0.6687-1.0393 0.67676-3.0454z" />
		</g>
		<g id="text1395" aria-label="60">
			<path id="path6422" d="m413.32 593.32v0.84595h-0.11279q-2.1028 0-3.3113 1.2407-1.2085 1.2327-1.3374 3.4321 0.48339-0.6687 1.2327-1.0312 0.74927-0.37061 1.6758-0.37061 1.5469 0 2.4573 1.0715 0.91846 1.0635 0.91846 2.7876 0 1.144-0.42701 2.0625-0.427 0.91846-1.2246 1.4341-0.7976 0.50757-1.8208 0.50757-1.6838 0-2.7392-1.2166-1.0554-1.2246-1.0554-3.1582v-0.9668q0-3.1501 1.4341-4.8743 1.4341-1.7322 4.0686-1.7644zm-2.0061 4.9468q-0.91846 0-1.7161 0.54785-0.78955 0.53979-1.0554 1.3777v0.82177q0 1.5308 0.7815 2.4976 0.78955 0.9668 2.0464 0.9668 1.1279 0 1.8208-0.89429 0.70093-0.89429 0.70093-2.2559 0-1.3857-0.70093-2.2236-0.69287-0.83789-1.8772-0.83789z" />
			<path id="path6424" d="m423.85 600.25q0 2.4814-0.9104 3.7705-0.9104 1.281-2.6829 1.281-1.7402 0-2.6668-1.2568-0.92651-1.2649-0.95068-3.6738v-2.1028q0-2.4734 0.91845-3.7463 0.91846-1.273 2.6829-1.273 1.7402 0 2.6587 1.2327 0.91845 1.2246 0.95068 3.6174zm-0.9668-2.1028q0-2.0142-0.66064-3.0454-0.65259-1.0312-1.9819-1.0312-1.3052 0-1.9658 1.0071-0.66064 1.0071-0.67675 2.9729v2.3042q0 2.0061 0.67675 3.0696 0.68482 1.0635 1.9819 1.0635 1.2891 0 1.9497-1.0393 0.6687-1.0393 0.67675-3.0454z" />
		</g>
		<g id="text1399" aria-label="70">
			<path id="path6427" d="m470.96 593.97-5.0112 11.175h-1.0071l4.979-10.909h-6.6709v-0.82178h7.7102z" />
			<path id="path6429" d="m479.95 600.25q0 2.4814-0.9104 3.7705-0.9104 1.281-2.6829 1.281-1.7402 0-2.6667-1.2568-0.92652-1.2649-0.95069-3.6738v-2.1028q0-2.4734 0.91846-3.7463t2.6829-1.273q1.7402 0 2.6587 1.2327 0.91846 1.2246 0.95069 3.6174zm-0.9668-2.1028q0-2.0142-0.66065-3.0454-0.65258-1.0312-1.9819-1.0312-1.3052 0-1.9658 1.0071-0.66064 1.0071-0.67676 2.9729v2.3042q0 2.0061 0.67676 3.0696 0.68481 1.0635 1.9819 1.0635 1.2891 0 1.9497-1.0393 0.6687-1.0393 0.67676-3.0454z" />
		</g>
	</g>
	<g id="text1403" fill="#262626" aria-label="TIME (MS)">
		<path id="path6432" d="m465.12 524.77h-4.4561v12.359h-1.8186v-12.359h-4.4465v-1.5044h10.721z" />
		<path id="path6434" d="m469.13 537.13h-1.8281v-13.863h1.8281z" />
		<path id="path6436" d="m474.84 523.26 4.5322 11.312 4.5322-11.312h2.3708v13.863h-1.8281v-5.3987l0.17139-5.8272-4.5513 11.226h-1.3997l-4.5418-11.197 0.18091 5.7986v5.3987h-1.8281v-13.863z" />
		<path id="path6438" d="m497.34 530.72h-6.0081v4.9131h6.9792v1.4949h-8.8074v-13.863h8.7122v1.5044h-6.884v4.4561h6.0081z" />
		<path id="path6440" d="m505.07 531.5q0-2.1518 0.57129-4.1323 0.58081-1.9805 1.7234-3.5991t2.3708-2.2852l0.36182 1.1616q-1.3901 1.0664-2.2852 3.2564-0.8855 2.1899-0.97119 4.9036l-0.01 0.80932q0 3.6753 1.3425 6.3794 0.80932 1.6186 1.9233 2.5327l-0.36182 1.0759q-1.2664-0.70459-2.4185-2.3613-2.2471-3.2373-2.2471-7.741z" />
		<path id="path6442" d="m514.44 523.26 4.5322 11.312 4.5322-11.312h2.3708v13.863h-1.8281v-5.3987l0.17139-5.8272-4.5513 11.226h-1.3997l-4.5418-11.197 0.18091 5.7986v5.3987h-1.8281v-13.863z" />
		<path id="path6444" d="m533.19 530.95q-2.3518-0.67603-3.4277-1.6567-1.0664-0.99024-1.0664-2.4375 0-1.6377 1.3044-2.7041 1.314-1.0759 3.4087-1.0759 1.4282 0 2.5422 0.55225 1.1235 0.55224 1.7329 1.5234 0.6189 0.97119 0.6189 2.1233h-1.8376q0-1.2568-0.79981-1.9709-0.7998-0.72364-2.2566-0.72364-1.352 0-2.1138 0.59986-0.75219 0.59033-0.75219 1.6472 0 0.84742 0.71411 1.4378 0.72363 0.58081 2.447 1.0664 1.7329 0.4856 2.7041 1.0759 0.98071 0.58081 1.4473 1.3616 0.47607 0.78077 0.47607 1.8376 0 1.6853-1.314 2.7041-1.314 1.0093-3.5134 1.0093-1.4282 0-2.666-0.54272-1.2378-0.55225-1.9138-1.5044-0.6665-0.95215-0.6665-2.1614h1.8376q0 1.2568 0.92358 1.99 0.9331 0.72364 2.4851 0.72364 1.4473 0 2.2185-0.59033 0.77124-0.59034 0.77124-1.6091 0-1.0188-0.71411-1.571-0.71411-0.56177-2.5898-1.1045z" />
		<path id="path6446" d="m544.46 531.59q0 2.1233-0.56177 4.0752-0.55225 1.9424-1.7044 3.5896-1.1426 1.6472-2.3994 2.3423l-0.37134-1.0759q1.4663-1.1235 2.3518-3.4849 0.89502-2.3708 0.91406-5.2559v-0.30469q0-1.9995-0.41895-3.7134-0.41894-1.7234-1.1711-3.085-0.74267-1.3616-1.6758-2.1233l0.37134-1.0759q1.2568 0.69507 2.3899 2.3232 1.1426 1.6282 1.7044 3.5896 0.57129 1.9614 0.57129 4.199z" />
	</g>
	<g id="g2745" transform="translate(-39.244 -59.642)" fill="#262626">
		<g id="text1407" aria-label="50">
			<path id="path6449" d="m51.722 576.65 0.57202-5.7202h5.8652v0.89429h-5.0354l-0.41089 3.9639q0.94263-0.64453 2.2075-0.64453 1.5872 0 2.5298 1.0312t0.94263 2.7473q0 1.853-0.91846 2.8762-0.91846 1.0232-2.5862 1.0232-1.5308 0-2.4814-0.854-0.95068-0.85401-1.0876-2.3928h0.92651q0.13696 1.2004 0.81372 1.8208 0.67676 0.6123 1.8289 0.6123 1.2568 0 1.8933-0.79761 0.64453-0.7976 0.64453-2.272 0-1.2891-0.71704-2.1028t-1.9578-0.81372q-0.68482 0-1.1924 0.17724-0.50757 0.16919-1.0715 0.6687z" />
			<path id="path6451" d="m67.287 577.77q0 2.4814-0.9104 3.7705-0.9104 1.281-2.6829 1.281-1.7402 0-2.6667-1.2568-0.92651-1.2649-0.95068-3.6738v-2.1028q0-2.4734 0.91846-3.7463 0.91846-1.273 2.6829-1.273 1.7402 0 2.6587 1.2327 0.91846 1.2246 0.95068 3.6174zm-0.9668-2.1028q0-2.0142-0.66064-3.0454-0.65259-1.0312-1.9819-1.0312-1.3052 0-1.9658 1.0071-0.66064 1.0071-0.67676 2.9729v2.3042q0 2.0061 0.67676 3.0696 0.68482 1.0635 1.9819 1.0635 1.2891 0 1.9497-1.0393 0.6687-1.0393 0.67676-3.0454z" />
		</g>
		<g id="text1411" aria-label="55">
			<path id="path6454" d="m51.597 451.94 0.57202-5.7202h5.8652v0.89429h-5.0354l-0.41089 3.9639q0.94263-0.64453 2.2075-0.64453 1.5872 0 2.5298 1.0312t0.94263 2.7473q0 1.853-0.91846 2.8762-0.91846 1.0232-2.5862 1.0232-1.5308 0-2.4814-0.854-0.95068-0.85401-1.0876-2.3928h0.92651q0.13696 1.2004 0.81372 1.8208 0.67676 0.6123 1.8289 0.6123 1.2568 0 1.8933-0.79761 0.64453-0.79761 0.64453-2.272 0-1.2891-0.71704-2.1028-0.71704-0.81372-1.9578-0.81372-0.68482 0-1.1924 0.17724-0.50757 0.16919-1.0715 0.6687z" />
			<path id="path6456" d="m60.741 451.94 0.57202-5.7202h5.8652v0.89429h-5.0354l-0.41089 3.9639q0.94263-0.64453 2.2075-0.64453 1.5872 0 2.5298 1.0312t0.94263 2.7473q0 1.853-0.91846 2.8762-0.91846 1.0232-2.5862 1.0232-1.5308 0-2.4814-0.854-0.95068-0.85401-1.0876-2.3928h0.92651q0.13696 1.2004 0.81372 1.8208 0.67676 0.6123 1.8289 0.6123 1.2568 0 1.8933-0.79761 0.64453-0.79761 0.64453-2.272 0-1.2891-0.71704-2.1028t-1.9578-0.81372q-0.68482 0-1.1924 0.17724-0.50757 0.16919-1.0715 0.6687z" />
		</g>
		<g id="text1415" aria-label="60">
			<path id="path6459" d="m56.911 321.36v0.84594h-0.11279q-2.1028 0-3.3113 1.2407-1.2085 1.2327-1.3374 3.4321 0.4834-0.6687 1.2327-1.0312 0.74927-0.3706 1.6758-0.3706 1.5469 0 2.4573 1.0715 0.91846 1.0635 0.91846 2.7876 0 1.144-0.427 2.0625t-1.2246 1.4341q-0.79761 0.50757-1.8208 0.50757-1.6838 0-2.7393-1.2166-1.0554-1.2246-1.0554-3.1582v-0.96679q0-3.1502 1.4341-4.8743 1.4341-1.7322 4.0686-1.7644zm-2.0061 4.9468q-0.91846 0-1.7161 0.54785-0.78955 0.5398-1.0554 1.3777v0.82178q0 1.5308 0.78149 2.4976 0.78955 0.96679 2.0464 0.96679 1.1279 0 1.8208-0.89428 0.70093-0.89429 0.70093-2.2559 0-1.3858-0.70093-2.2236-0.69287-0.83789-1.8772-0.83789z" />
			<path id="path6461" d="m67.441 328.29q0 2.4814-0.9104 3.7705-0.9104 1.281-2.6829 1.281-1.7402 0-2.6667-1.2568-0.92651-1.2649-0.95068-3.6738v-2.1028q0-2.4734 0.91846-3.7463 0.91846-1.273 2.6829-1.273 1.7402 0 2.6587 1.2327 0.91846 1.2246 0.95068 3.6174zm-0.9668-2.1028q0-2.0142-0.66064-3.0454-0.65259-1.0312-1.9819-1.0312-1.3052 0-1.9658 1.0071-0.66064 1.0071-0.67676 2.9729v2.3042q0 2.0061 0.67676 3.0696 0.68482 1.0635 1.9819 1.0635 1.2891 0 1.9497-1.0393 0.6687-1.0393 0.67676-3.0454z" />
		</g>
		<g id="text1419" aria-label="65">
			<path id="path6464" d="m56.786 196.59v0.84594h-0.11279q-2.1028 0-3.3113 1.2407-1.2085 1.2327-1.3374 3.4321 0.4834-0.6687 1.2327-1.0312 0.74927-0.3706 1.6758-0.3706 1.5469 0 2.4573 1.0715 0.91846 1.0635 0.91846 2.7876 0 1.144-0.427 2.0625t-1.2246 1.4341q-0.79761 0.50757-1.8208 0.50757-1.6838 0-2.7393-1.2166-1.0554-1.2246-1.0554-3.1582v-0.96679q0-3.1502 1.4341-4.8743 1.4341-1.7322 4.0686-1.7644zm-2.0061 4.9468q-0.91846 0-1.7161 0.54785-0.78955 0.5398-1.0554 1.3777v0.82178q0 1.5308 0.78149 2.4976 0.78955 0.96679 2.0464 0.96679 1.1279 0 1.8208-0.89428 0.70093-0.89429 0.70093-2.2559 0-1.3858-0.70093-2.2236-0.69287-0.83789-1.8772-0.83789z" />
			<path id="path6466" d="m60.895 202.39 0.57202-5.7202h5.8652v0.89429h-5.0354l-0.41089 3.9639q0.94263-0.64453 2.2075-0.64453 1.5872 0 2.5298 1.0312t0.94263 2.7473q0 1.853-0.91846 2.8762-0.91846 1.0232-2.5862 1.0232-1.5308 0-2.4814-0.854-0.95068-0.85401-1.0876-2.3928h0.92651q0.13696 1.2004 0.81372 1.8208 0.67676 0.61231 1.8289 0.61231 1.2568 0 1.8933-0.79761 0.64453-0.79761 0.64453-2.272 0-1.2891-0.71704-2.1028t-1.9578-0.81372q-0.68481 0-1.1924 0.17724-0.50757 0.16919-1.0715 0.6687z" />
		</g>
	</g>
	<g id="text1423" transform="rotate(-90)" fill="#262626" aria-label="AP (%)">
		<path id="path6469" d="m-74.549 22.026h-5.8081l-1.3044 3.6182h-1.8853l5.2939-13.863h1.5996l5.3035 13.863h-1.8757zm-5.2559-1.5044h4.7131l-2.3613-6.4841z" />
		<path id="path6471" d="m-67.656 20.217v5.4272h-1.8281v-13.863h5.113q2.2756 0 3.561 1.1616 1.2949 1.1616 1.2949 3.0754 0 2.0186-1.2664 3.1135-1.2568 1.0854-3.6086 1.0854zm0-1.4949h3.2849q1.4663 0 2.2471-0.68555 0.78076-0.69507 0.78076-1.9995 0-1.2378-0.78076-1.9805-0.78076-0.74268-2.1423-0.77124h-3.3896z" />
		<path id="path6473" d="m-52.698 20.017q0-2.1519 0.57129-4.1323 0.58081-1.9805 1.7234-3.5991 1.1426-1.6187 2.3708-2.2852l0.36182 1.1616q-1.3901 1.0664-2.2852 3.2563-0.8855 2.1899-0.97119 4.9036l-0.0095 0.80933q0 3.6753 1.3425 6.3794 0.80933 1.6187 1.9233 2.5327l-0.36182 1.0759q-1.2664-0.70459-2.4185-2.3613-2.2471-3.2373-2.2471-7.741z" />
		<path id="path6475" d="m-46.299 14.447q0-1.2473 0.79028-2.0566 0.7998-0.80933 2.0471-0.80933 1.2664 0 2.0471 0.81885 0.79028 0.80933 0.79028 2.1042v0.67603q0 1.2568-0.7998 2.0566-0.79028 0.79028-2.0186 0.79028-1.2378 0-2.0471-0.79028-0.80933-0.7998-0.80933-2.1233zm1.314 0.73316q0 0.74268 0.41894 1.2283 0.41895 0.47607 1.1235 0.47607 0.67602 0 1.0854-0.46655 0.41894-0.46655 0.41894-1.2759v-0.69507q0-0.74268-0.40942-1.2283-0.40942-0.4856-1.114-0.4856-0.70459 0-1.114 0.4856-0.40942 0.4856-0.40942 1.2664zm5.4368 7.0649q0-1.2473 0.79028-2.0471 0.7998-0.80933 2.0471-0.80933 1.2473 0 2.0471 0.7998 0.7998 0.7998 0.7998 2.1233v0.67603q0 1.2473-0.7998 2.0566-0.79028 0.7998-2.0281 0.7998t-2.0471-0.79028q-0.80933-0.7998-0.80933-2.1233zm1.314 0.74268q0 0.7522 0.41894 1.2378 0.41894 0.47607 1.1235 0.47607 0.68555 0 1.095-0.46655 0.40942-0.47607 0.40942-1.2854v-0.70459q0-0.7522-0.41895-1.2283-0.40942-0.47607-1.1045-0.47607-0.67602 0-1.1045 0.47607-0.41894 0.46655-0.41894 1.2664zm-4.8084 1.6091-0.99976-0.62842 6.7698-10.835 0.99976 0.62842z" />
		<path id="path6477" d="m-27.618 20.112q0 2.1233-0.56177 4.0752-0.55225 1.9424-1.7043 3.5896-1.1426 1.6472-2.3994 2.3423l-0.37134-1.0759q1.4663-1.1235 2.3518-3.4849 0.89502-2.3708 0.91406-5.2559v-0.30469q0-1.9995-0.41895-3.7134-0.41894-1.7234-1.1711-3.085-0.74268-1.3616-1.6758-2.1233l0.37134-1.0759q1.2568 0.69507 2.3899 2.3232 1.1426 1.6282 1.7043 3.5896 0.57129 1.9614 0.57129 4.199z" />
	</g>
	<g id="circle-blue">
		<use transform="translate(-44.241 -59.642)" x="448.72198" y="354.6828" width="100%" height="100%" fill="#5975a4" stroke="#5975a4" stroke-width="1.5" xlink:href="#mbe95dc89ac" />
		<g id="text1557" fill="#5975a4" aria-label="YOLOV2">
			<path id="path6480" d="m414.38 280.96 3.0615-5.8894h1.7564l-4.0444 7.3557v4.3748h-1.5469v-4.3748l-4.0444-7.3557h1.7725z" />
			<path id="path6482" d="m429.5 281.31q0 1.7241-0.58008 3.0132-0.58007 1.281-1.6436 1.9578-1.0635 0.67675-2.4814 0.67675-1.3857 0-2.4573-0.67675-1.0715-0.68482-1.6677-1.9416-0.58813-1.2649-0.60424-2.9246v-0.84594q0-1.6919 0.58813-2.989 0.58814-1.2971 1.6597-1.9819 1.0796-0.69287 2.4653-0.69287 1.4099 0 2.4814 0.68481 1.0796 0.67676 1.6597 1.9739 0.58008 1.2891 0.58008 3.0051zm-1.5388-0.75733q0-2.0867-0.83789-3.1985-0.83789-1.1199-2.3445-1.1199-1.4663 0-2.3122 1.1199-0.8379 1.1118-0.86207 3.0938v0.86206q0 2.0222 0.84595 3.1824 0.85401 1.1521 2.3445 1.1521 1.4985 0 2.3203-1.0876 0.82177-1.0957 0.84594-3.134z" />
			<path id="path6484" d="m433.38 285.53h5.5591v1.2649h-7.114v-11.73h1.5549z" />
			<path id="path6486" d="m449.2 281.31q0 1.7241-0.58008 3.0132-0.58008 1.281-1.6436 1.9578-1.0635 0.67675-2.4814 0.67675-1.3857 0-2.4573-0.67675-1.0715-0.68482-1.6677-1.9416-0.58813-1.2649-0.60425-2.9246v-0.84594q0-1.6919 0.58814-2.989 0.58813-1.2971 1.6597-1.9819 1.0796-0.69287 2.4653-0.69287 1.4099 0 2.4814 0.68481 1.0796 0.67676 1.6597 1.9739 0.58008 1.2891 0.58008 3.0051zm-1.5388-0.75733q0-2.0867-0.83789-3.1985-0.83789-1.1199-2.3445-1.1199-1.4663 0-2.3123 1.1199-0.83789 1.1118-0.86206 3.0938v0.86206q0 2.0222 0.84595 3.1824 0.854 1.1521 2.3445 1.1521 1.4985 0 2.3203-1.0876 0.82178-1.0957 0.84595-3.134z" />
			<path id="path6488" d="m455.23 284.75 3.3516-9.676h1.6919l-4.3506 11.73h-1.3696l-4.3425-11.73h1.6838z" />
			<path id="path6490" d="m469.14 286.8h-7.686v-1.0715l4.0606-4.5117q0.90234-1.0232 1.2407-1.6597 0.34643-0.64453 0.34643-1.3294 0-0.91845-0.5559-1.5066-0.55591-0.58813-1.4824-0.58813-1.1118 0-1.7322 0.63647-0.61231 0.62842-0.61231 1.7564h-1.4905q0-1.6194 1.0393-2.6184 1.0474-0.99902 2.7956-0.99902 1.6355 0 2.5862 0.86206 0.95068 0.854 0.95068 2.28 0 1.7322-2.2075 4.125l-3.1421 3.408h5.8894z" />
		</g>
	</g>
	<g id="circle-orange">
		<use transform="translate(-44.241 -59.642)" x="214.92" y="509.36041" width="100%" height="100%" fill="#cc8963" stroke="#cc8963" stroke-width="1.5" xlink:href="#m9012874150" />
		<g id="text1560" fill="#cc8963" aria-label="MOBILE YOLOV2">
			<path id="path6493" d="m177.76 429.75 3.835 9.5713 3.835-9.5713h2.0061v11.73h-1.5469v-4.5681l0.14502-4.9307-3.8511 9.4988h-1.1843l-3.843-9.4746 0.15308 4.9065v4.5681h-1.5469v-11.73z" />
			<path id="path6495" d="m199.19 435.99q0 1.7241-0.58008 3.0132-0.58008 1.281-1.6436 1.9578-1.0635 0.67676-2.4814 0.67676-1.3857 0-2.4573-0.67676-1.0715-0.68482-1.6677-1.9416-0.58814-1.2649-0.60425-2.9246v-0.84595q0-1.6919 0.58813-2.989 0.58814-1.2971 1.6597-1.9819 1.0796-0.69287 2.4653-0.69287 1.4099 0 2.4814 0.68482 1.0796 0.67675 1.6597 1.9739 0.58008 1.2891 0.58008 3.0051zm-1.5388-0.75732q0-2.0867-0.83789-3.1985-0.83789-1.1199-2.3445-1.1199-1.4663 0-2.3122 1.1199-0.83789 1.1118-0.86206 3.0938v0.86206q0 2.0222 0.84595 3.1824 0.854 1.1521 2.3445 1.1521 1.4985 0 2.3203-1.0876 0.82178-1.0957 0.84595-3.134z" />
			<path id="path6497" d="m201.51 441.48v-11.73h3.835q1.9094 0 2.8682 0.78955 0.9668 0.78956 0.9668 2.3364 0 0.82178-0.46728 1.4582-0.46729 0.62842-1.273 0.97486 0.95068 0.26587 1.4985 1.0151 0.55591 0.74121 0.55591 1.7725 0 1.5791-1.0232 2.4814-1.0232 0.90234-2.8923 0.90234zm1.5469-5.4866v4.2217h2.554q1.0796 0 1.7-0.55591 0.62842-0.56396 0.62842-1.5469 0-2.1189-2.3042-2.1189zm0-1.2407h2.3364q1.0151 0 1.6194-0.50757 0.61231-0.50757 0.61231-1.3777 0-0.96679-0.56397-1.4018-0.56396-0.44312-1.7161-0.44312h-2.2881z" />
			<path id="path6499" d="m213.44 441.48h-1.5469v-11.73h1.5469z" />
			<path id="path6501" d="m217.82 440.21h5.5591v1.2649h-7.114v-11.73h1.5549z" />
			<path id="path6503" d="m231.78 436.06h-5.0837v4.1572h5.9055v1.2649h-7.4524v-11.73h7.3718v1.273h-5.825v3.7705h5.0837z" />
			<path id="path6505" d="m242.19 435.64 3.0615-5.8894h1.7564l-4.0444 7.3557v4.3748h-1.5469v-4.3748l-4.0444-7.3557h1.7725z" />
			<path id="path6507" d="m257.31 435.99q0 1.7241-0.58008 3.0132-0.58007 1.281-1.6436 1.9578t-2.4814 0.67676q-1.3857 0-2.4573-0.67676-1.0715-0.68482-1.6677-1.9416-0.58813-1.2649-0.60424-2.9246v-0.84595q0-1.6919 0.58813-2.989 0.58814-1.2971 1.6597-1.9819 1.0796-0.69287 2.4653-0.69287 1.4099 0 2.4814 0.68482 1.0796 0.67675 1.6597 1.9739 0.58008 1.2891 0.58008 3.0051zm-1.5388-0.75732q0-2.0867-0.83789-3.1985-0.83789-1.1199-2.3445-1.1199-1.4663 0-2.3123 1.1199-0.83789 1.1118-0.86206 3.0938v0.86206q0 2.0222 0.84595 3.1824 0.85401 1.1521 2.3445 1.1521 1.4985 0 2.3203-1.0876 0.82177-1.0957 0.84594-3.134z" />
			<path id="path6509" d="m261.18 440.21h5.5591v1.2649h-7.114v-11.73h1.5549z" />
			<path id="path6511" d="m277.01 435.99q0 1.7241-0.58008 3.0132-0.58008 1.281-1.6436 1.9578-1.0635 0.67676-2.4814 0.67676-1.3857 0-2.4573-0.67676-1.0715-0.68482-1.6677-1.9416-0.58813-1.2649-0.60425-2.9246v-0.84595q0-1.6919 0.58814-2.989 0.58813-1.2971 1.6597-1.9819 1.0796-0.69287 2.4653-0.69287 1.4099 0 2.4814 0.68482 1.0796 0.67675 1.6597 1.9739 0.58008 1.2891 0.58008 3.0051zm-1.5388-0.75732q0-2.0867-0.83789-3.1985-0.83789-1.1199-2.3445-1.1199-1.4663 0-2.3123 1.1199-0.83789 1.1118-0.86206 3.0938v0.86206q0 2.0222 0.84595 3.1824 0.854 1.1521 2.3445 1.1521 1.4985 0 2.3203-1.0876 0.82178-1.0957 0.84595-3.134z" />
			<path id="path6513" d="m283.03 439.42 3.3516-9.676h1.6919l-4.3506 11.73h-1.3696l-4.3425-11.73h1.6838z" />
			<path id="path6515" d="m296.95 441.48h-7.686v-1.0715l4.0606-4.5117q0.90234-1.0232 1.2407-1.6597 0.34643-0.64453 0.34643-1.3293 0-0.91846-0.5559-1.5066-0.55591-0.58814-1.4824-0.58814-1.1118 0-1.7322 0.63648-0.61231 0.62841-0.61231 1.7563h-1.4905q0-1.6194 1.0393-2.6184 1.0474-0.99902 2.7956-0.99902 1.6355 0 2.5862 0.86206 0.95068 0.85401 0.95068 2.28 0 1.7322-2.2075 4.125l-3.1421 3.408h5.8894z" />
		</g>
	</g>
	<g id="circle-green">
		<use transform="translate(-44.241 -59.642)" x="523.49402" y="122.6664" width="100%" height="100%" fill="#5f9e6e" stroke="#5f9e6e" stroke-width="1.5" xlink:href="#m19efad9a26" />
		<g id="text1563" fill="#5f9e6e" aria-label="YOLOV2 UP">
			<path id="path6518" d="m489.15 48.942 3.0615-5.8894h1.7563l-4.0444 7.3557v4.3748h-1.5469v-4.3748l-4.0444-7.3557h1.7725z" />
			<path id="path6520" d="m504.27 49.297q0 1.7241-0.58008 3.0132-0.58008 1.281-1.6436 1.9578-1.0635 0.67676-2.4814 0.67676-1.3857 0-2.4573-0.67676-1.0715-0.68482-1.6677-1.9417-0.58814-1.2649-0.60425-2.9246v-0.84595q0-1.6919 0.58814-2.989 0.58813-1.2971 1.6597-1.9819 1.0796-0.69287 2.4653-0.69287 1.4099 0 2.4814 0.68481 1.0796 0.67676 1.6597 1.9739 0.58008 1.2891 0.58008 3.0051zm-1.5388-0.75732q0-2.0867-0.83789-3.1985-0.83789-1.1199-2.3445-1.1199-1.4663 0-2.3123 1.1199-0.83789 1.1118-0.86206 3.0938v0.86206q0 2.0222 0.84595 3.1824 0.854 1.1521 2.3445 1.1521 1.4985 0 2.3203-1.0876 0.82178-1.0957 0.84595-3.134z" />
			<path id="path6522" d="m508.15 53.518h5.5591v1.2649h-7.114v-11.73h1.5549z" />
			<path id="path6524" d="m523.97 49.297q0 1.7241-0.58008 3.0132-0.58007 1.281-1.6436 1.9578-1.0635 0.67676-2.4814 0.67676-1.3857 0-2.4573-0.67676-1.0715-0.68482-1.6677-1.9417-0.58813-1.2649-0.60424-2.9246v-0.84595q0-1.6919 0.58813-2.989 0.58814-1.2971 1.6597-1.9819 1.0796-0.69287 2.4653-0.69287 1.4099 0 2.4814 0.68481 1.0796 0.67676 1.6597 1.9739 0.58008 1.2891 0.58008 3.0051zm-1.5388-0.75732q0-2.0867-0.83789-3.1985-0.83789-1.1199-2.3445-1.1199-1.4663 0-2.3122 1.1199-0.8379 1.1118-0.86207 3.0938v0.86206q0 2.0222 0.84595 3.1824 0.85401 1.1521 2.3445 1.1521 1.4985 0 2.3203-1.0876 0.82177-1.0957 0.84594-3.134z" />
			<path id="path6526" d="m530 52.729 3.3516-9.676h1.6919l-4.3506 11.73h-1.3696l-4.3425-11.73h1.6838z" />
			<path id="path6528" d="m543.91 54.783h-7.686v-1.0715l4.0606-4.5117q0.90234-1.0232 1.2407-1.6597 0.34644-0.64453 0.34644-1.3293 0-0.91846-0.55591-1.5066t-1.4824-0.58814q-1.1118 0-1.7322 0.63648-0.6123 0.62842-0.6123 1.7563h-1.4905q0-1.6194 1.0393-2.6184 1.0474-0.99902 2.7957-0.99902 1.6355 0 2.5862 0.86206 0.95068 0.854 0.95068 2.28 0 1.7322-2.2075 4.125l-3.1421 3.408h5.8894z" />
			<path id="path6530" d="m558.22 43.053v7.9761q-8e-3 1.6597-1.0474 2.7151-1.0312 1.0554-2.8037 1.1843l-0.41089 0.01611q-1.9255 0-3.0696-1.0393-1.144-1.0393-1.1602-2.8601v-7.9922h1.5308v7.9438q0 1.2729 0.70093 1.9819 0.70093 0.70093 1.998 0.70093 1.3132 0 2.0061-0.70093 0.70093-0.70093 0.70093-1.9739v-7.9519z" />
			<path id="path6532" d="m562.21 50.191v4.5923h-1.5469v-11.73h4.3264q1.9255 0 3.0132 0.98291 1.0957 0.98291 1.0957 2.6023 0 1.708-1.0715 2.6345-1.0635 0.91846-3.0535 0.91846zm0-1.2649h2.7795q1.2407 0 1.9014-0.58008 0.66064-0.58814 0.66064-1.6919 0-1.0474-0.66064-1.6758-0.66065-0.62842-1.8128-0.65259h-2.8682z" />
		</g>
	</g>
	<g id="circle-red">
		<use transform="translate(-44.241 -59.642)" x="286.90201" y="344.70361" width="100%" height="100%" fill="#b55d60" stroke="#b55d60" stroke-width="1.5" xlink:href="#mf2aa05dcc8" />
		<g id="text1566" fill="#b55d60" aria-label="MOBILE YOLOV2 UP">
			<path id="path6535" d="m249.74 265.09 3.835 9.5713 3.835-9.5713h2.0061v11.73h-1.5469v-4.5681l0.14502-4.9307-3.8511 9.4988h-1.1843l-3.843-9.4746 0.15308 4.9065v4.5681h-1.5469v-11.73z" />
			<path id="path6537" d="m271.17 271.33q0 1.7241-0.58008 3.0132-0.58007 1.281-1.6436 1.9578t-2.4814 0.67676q-1.3857 0-2.4573-0.67676-1.0715-0.68482-1.6677-1.9416-0.58813-1.2649-0.60424-2.9246v-0.84595q0-1.6919 0.58813-2.989t1.6597-1.9819q1.0796-0.69287 2.4653-0.69287 1.4099 0 2.4814 0.68482 1.0796 0.67675 1.6597 1.9739 0.58008 1.2891 0.58008 3.0051zm-1.5388-0.75732q0-2.0867-0.83789-3.1985-0.83789-1.1199-2.3445-1.1199-1.4663 0-2.3123 1.1199-0.83789 1.1118-0.86206 3.0938v0.86206q0 2.0222 0.84595 3.1824 0.854 1.1521 2.3445 1.1521 1.4985 0 2.3203-1.0876 0.82177-1.0957 0.84594-3.134z" />
			<path id="path6539" d="m273.49 276.82v-11.73h3.835q1.9094 0 2.8682 0.78956 0.9668 0.78955 0.9668 2.3364 0 0.82178-0.46729 1.4582-0.46728 0.62842-1.273 0.97486 0.95068 0.26587 1.4985 1.0151 0.5559 0.74121 0.5559 1.7725 0 1.5791-1.0232 2.4814t-2.8923 0.90234zm1.5469-5.4866v4.2217h2.554q1.0796 0 1.7-0.55591 0.62841-0.56396 0.62841-1.5469 0-2.1189-2.3042-2.1189zm0-1.2407h2.3364q1.0151 0 1.6194-0.50757 0.6123-0.50757 0.6123-1.3777 0-0.96679-0.56396-1.4018-0.56397-0.44312-1.7161-0.44312h-2.2881z" />
			<path id="path6541" d="m285.42 276.82h-1.5469v-11.73h1.5469z" />
			<path id="path6543" d="m289.8 275.56h5.5591v1.2649h-7.114v-11.73h1.5549z" />
			<path id="path6545" d="m303.76 271.4h-5.0837v4.1572h5.9055v1.2649h-7.4524v-11.73h7.3718v1.273h-5.825v3.7705h5.0837z" />
			<path id="path6547" d="m314.17 270.98 3.0615-5.8894h1.7563l-4.0444 7.3557v4.3748h-1.5469v-4.3748l-4.0444-7.3557h1.7725z" />
			<path id="path6549" d="m329.29 271.33q0 1.7241-0.58008 3.0132-0.58008 1.281-1.6436 1.9578-1.0635 0.67676-2.4814 0.67676-1.3857 0-2.4573-0.67676-1.0715-0.68482-1.6677-1.9416-0.58814-1.2649-0.60425-2.9246v-0.84595q0-1.6919 0.58814-2.989 0.58813-1.2971 1.6597-1.9819 1.0796-0.69287 2.4653-0.69287 1.4099 0 2.4814 0.68482 1.0796 0.67675 1.6597 1.9739 0.58008 1.2891 0.58008 3.0051zm-1.5388-0.75732q0-2.0867-0.83789-3.1985-0.83789-1.1199-2.3445-1.1199-1.4663 0-2.3123 1.1199-0.83789 1.1118-0.86206 3.0938v0.86206q0 2.0222 0.84595 3.1824 0.854 1.1521 2.3445 1.1521 1.4985 0 2.3203-1.0876 0.82178-1.0957 0.84595-3.134z" />
			<path id="path6551" d="m333.17 275.56h5.5591v1.2649h-7.114v-11.73h1.5549z" />
			<path id="path6553" d="m348.99 271.33q0 1.7241-0.58007 3.0132-0.58008 1.281-1.6436 1.9578t-2.4814 0.67676q-1.3858 0-2.4573-0.67676-1.0715-0.68482-1.6677-1.9416-0.58814-1.2649-0.60425-2.9246v-0.84595q0-1.6919 0.58813-2.989 0.58814-1.2971 1.6597-1.9819 1.0796-0.69287 2.4653-0.69287 1.4099 0 2.4814 0.68482 1.0796 0.67675 1.6597 1.9739 0.58007 1.2891 0.58007 3.0051zm-1.5388-0.75732q0-2.0867-0.83789-3.1985-0.83789-1.1199-2.3445-1.1199-1.4663 0-2.3122 1.1199-0.83789 1.1118-0.86206 3.0938v0.86206q0 2.0222 0.84594 3.1824 0.85401 1.1521 2.3445 1.1521 1.4985 0 2.3203-1.0876 0.82177-1.0957 0.84594-3.134z" />
			<path id="path6555" d="m355.02 274.77 3.3516-9.676h1.6919l-4.3506 11.73h-1.3696l-4.3425-11.73h1.6838z" />
			<path id="path6557" d="m368.93 276.82h-7.686v-1.0715l4.0606-4.5117q0.90234-1.0232 1.2407-1.6597 0.34644-0.64453 0.34644-1.3293 0-0.91846-0.55591-1.5066-0.55591-0.58814-1.4824-0.58814-1.1118 0-1.7322 0.63648-0.6123 0.62841-0.6123 1.7563h-1.4905q0-1.6194 1.0393-2.6184 1.0474-0.99903 2.7957-0.99903 1.6355 0 2.5862 0.86206 0.95068 0.85401 0.95068 2.28 0 1.7322-2.2075 4.125l-3.1421 3.408h5.8894z" />
			<path id="path6559" d="m383.24 265.09v7.9761q-8e-3 1.6597-1.0474 2.7151-1.0312 1.0554-2.8037 1.1843l-0.41089 0.0161q-1.9255 0-3.0696-1.0393t-1.1602-2.8601v-7.9922h1.5308v7.9438q0 1.273 0.70093 1.9819 0.70093 0.70092 1.998 0.70092 1.3132 0 2.0061-0.70092 0.70093-0.70093 0.70093-1.9739v-7.9519z" />
			<path id="path6561" d="m387.23 272.23v4.5923h-1.5469v-11.73h4.3264q1.9255 0 3.0132 0.98291 1.0957 0.98292 1.0957 2.6023 0 1.708-1.0715 2.6345-1.0635 0.91846-3.0535 0.91846zm0-1.2649h2.7795q1.2407 0 1.9014-0.58008 0.66064-0.58814 0.66064-1.6919 0-1.0474-0.66064-1.6758-0.66065-0.62842-1.8128-0.65259h-2.8682z" />
		</g>
	</g>
	<g class="square">
		<use id="use1438" transform="translate(-44.241 -59.642)" x="117.828" y="489.40201" width="100%" height="100%" fill="#5975a4" stroke="#5975a4" stroke-width="1.5" xlink:href="#m461f1dab51" />
		<use id="use1462" transform="translate(-44.241 -59.642)" x="121.176" y="521.83441" width="100%" height="100%" fill="#cc8963" stroke="#cc8963" stroke-width="1.5" xlink:href="#mce6571ba4c" />
		<use id="use1486" transform="translate(-44.241 -59.642)" x="105.552" y="227.448" width="100%" height="100%" fill="#5f9e6e" stroke="#5f9e6e" stroke-width="1.5" xlink:href="#m6d134d8d33" />
		<use id="use1510" transform="translate(-44.241 -59.642)" x="113.922" y="319.75562" width="100%" height="100%" fill="#b55d60" stroke="#b55d60" stroke-width="1.5" xlink:href="#m22c8fb29ac" />
	</g>
	<g class="triangle">
		<use id="use1446" transform="translate(-44.241 -59.642)" x="104.994" y="489.40201" width="100%" height="100%" fill="#5975a4" stroke="#5975a4" stroke-width="1.5" xlink:href="#mc975f4aab9" />
		<use id="use1470" transform="translate(-44.241 -59.642)" x="111.69" y="531.8136" width="100%" height="100%" fill="#cc8963" stroke="#cc8963" stroke-width="1.5" xlink:href="#m1de8609d2a" />
		<use id="use1494" transform="translate(-44.241 -59.642)" x="105.552" y="232.43761" width="100%" height="100%" fill="#5f9e6e" stroke="#5f9e6e" stroke-width="1.5" xlink:href="#mf17f08839e" />
		<use id="use1518" transform="translate(-44.241 -59.642)" x="117.27" y="322.2504" width="100%" height="100%" fill="#b55d60" stroke="#b55d60" stroke-width="1.5" xlink:href="#me7cdbaf6b7" />
	</g>
	<path class="line" id="line-blue" pathLength="1" transform="translate(-44.241 -59.642)" d="m448.72 354.68-330.89 134.72h-12.834" clip-path="url(#p68f6559b0e)" fill="none" stroke="#5975a4" stroke-linecap="round" stroke-width="1.5" />
	<path class="line" id="line-orange" pathLength="1" transform="translate(-44.241 -59.642)" d="m214.92 509.36-93.744 12.474-9.486 9.9792" clip-path="url(#p68f6559b0e)" fill="none" stroke="#cc8963" stroke-linecap="round" stroke-width="1.5" />
	<path class="line" id="line-green" pathLength="1" transform="translate(-44.241 -59.642)" d="m523.49 122.67-417.94 104.78v4.9896" clip-path="url(#p68f6559b0e)" fill="none" stroke="#5f9e6e" stroke-linecap="round" stroke-width="1.5" />
	<path class="line" id="line-red" pathLength="1" transform="translate(-44.241 -59.642)" d="m286.9 344.7-172.98-24.948 3.348 2.4948" clip-path="url(#p68f6559b0e)" fill="none" stroke="#b55d60" stroke-linecap="round" stroke-width="1.5" />
	<use id="use1538" transform="translate(-29.241 -59.642)" x="583.20001" y="576.71997" width="100%" height="100%" fill="#262626" stroke="#262626" xlink:href="#m94472a5fad" />
	<use id="use1546" transform="translate(-44.241 -59.642)" x="81" y="77.760002" width="100%" height="100%" fill="#262626" stroke="#262626" xlink:href="#mc12a14e273" />
	<path id="path1551" d="m36.759 517.08v-498.96" fill="none" stroke="#262626" stroke-linecap="square" stroke-width="1.875" />
	<path id="path1554" d="m36.759 517.08h517.2" fill="none" stroke="#262626" stroke-linecap="square" stroke-width="1.875" />
	<defs id="defs1574">
		<clipPath id="p68f6559b0e">
			<rect id="rect1571" x="81" y="77.76" width="502.2" height="498.96" />
		</clipPath>
	</defs>
	<g id="text1674" transform="translate(151.99 -29.586)" fill="#262626" stop-color="#000000" aria-label="IR SURVEILLANCE">
		<path id="path6564" d="m61.326 53.64h-1.8281v-13.863h1.8281z" stop-color="#000000" />
		<path id="path6566" d="m69.753 48.031h-3.2563v5.6082h-1.8376v-13.863h4.5894q2.3423 0 3.5991 1.0664 1.2664 1.0664 1.2664 3.104 0 1.2949-0.70459 2.2566-0.69507 0.96167-1.9424 1.4377l3.2563 5.8843v0.11426h-1.9614zm-3.2563-1.4949h2.8088q1.3616 0 2.1614-0.70459 0.80933-0.70459 0.80933-1.8853 0-1.2854-0.77124-1.9709-0.76172-0.68555-2.209-0.69507h-2.7993z" stop-color="#000000" />
		<path id="path6568" d="m85.587 47.46q-2.3518-0.67602-3.4277-1.6567-1.0664-0.99023-1.0664-2.4375 0-1.6377 1.3044-2.7041 1.314-1.0759 3.4087-1.0759 1.4282 0 2.5422 0.55225 1.1235 0.55225 1.7329 1.5234 0.6189 0.97119 0.6189 2.1233h-1.8376q0-1.2568-0.7998-1.9709-0.7998-0.72363-2.2566-0.72363-1.3521 0-2.1138 0.59985-0.7522 0.59033-0.7522 1.6472 0 0.84741 0.71411 1.4377 0.72363 0.58081 2.447 1.0664 1.7329 0.4856 2.7041 1.0759 0.98071 0.58081 1.4473 1.3616 0.47608 0.78076 0.47608 1.8376 0 1.6853-1.314 2.7041-1.314 1.0093-3.5134 1.0093-1.4282 0-2.666-0.54272-1.2378-0.55225-1.9138-1.5044-0.6665-0.95215-0.6665-2.1614h1.8376q0 1.2568 0.92358 1.99 0.9331 0.72363 2.4851 0.72363 1.4473 0 2.2185-0.59033t0.77124-1.6091q0-1.0188-0.71411-1.571-0.71411-0.56177-2.5898-1.1045z" stop-color="#000000" />
		<path id="path6570" d="m102.83 39.776v9.4263q-0.01 1.9614-1.2378 3.2087-1.2188 1.2473-3.3135 1.3997l-0.4856 0.01904q-2.2756 0-3.6277-1.2283-1.3521-1.2283-1.3711-3.3801v-9.4453h1.8091v9.3882q0 1.5044 0.82837 2.3423 0.82837 0.82837 2.3613 0.82837 1.552 0 2.3709-0.82837 0.82837-0.82837 0.82837-2.3328v-9.3977z" stop-color="#000000" />
		<path id="path6572" d="m110.8 48.031h-3.2564v5.6082h-1.8376v-13.863h4.5894q2.3423 0 3.5991 1.0664 1.2664 1.0664 1.2664 3.104 0 1.2949-0.70459 2.2566-0.69507 0.96167-1.9424 1.4377l3.2564 5.8843v0.11426h-1.9614zm-3.2564-1.4949h2.8088q1.3616 0 2.1614-0.70459 0.80933-0.70459 0.80933-1.8853 0-1.2854-0.77124-1.9709-0.76172-0.68555-2.209-0.69507h-2.7993z" stop-color="#000000" />
		<path id="path6574" d="m122.13 51.212 3.9609-11.435h1.9995l-5.1416 13.863h-1.6186l-5.1321-13.863h1.99z" stop-color="#000000" />
		<path id="path6576" d="m137.78 47.232h-6.008v4.9131h6.9792v1.4949h-8.8074v-13.863h8.7122v1.5044h-6.884v4.4561h6.008z" stop-color="#000000" />
		<path id="path6578" d="m142.99 53.64h-1.8281v-13.863h1.8281z" stop-color="#000000" />
		<path id="path6580" d="m148.17 52.145h6.5698v1.4949h-8.4075v-13.863h1.8376z" stop-color="#000000" />
		<path id="path6582" d="m158.66 52.145h6.5698v1.4949h-8.4075v-13.863h1.8376z" stop-color="#000000" />
		<path id="path6584" d="m175.16 50.021h-5.8081l-1.3044 3.6182h-1.8852l5.2939-13.863h1.5996l5.3035 13.863h-1.8757zm-5.2559-1.5044h4.7131l-2.3613-6.4841z" stop-color="#000000" />
		<path id="path6586" d="m190.88 53.64h-1.8376l-6.9792-10.683v10.683h-1.8376v-13.863h1.8376l6.9983 10.731v-10.731h1.8186z" stop-color="#000000" />
		<path id="path6588" d="m204.32 49.241q-0.25708 2.1995-1.6282 3.3992-1.3616 1.1902-3.6277 1.1902-2.4566 0-3.9419-1.7615-1.4758-1.7615-1.4758-4.7131v-1.333q0-1.9329 0.68555-3.3992 0.69507-1.4663 1.9614-2.2471 1.2664-0.79028 2.9326-0.79028 2.209 0 3.542 1.2378 1.333 1.2283 1.552 3.4087h-1.8376q-0.23804-1.6567-1.0378-2.3994-0.79029-0.74268-2.2185-0.74268-1.752 0-2.7517 1.2949-0.99023 1.2949-0.99023 3.6848v1.3425q0 2.2566 0.94262 3.5896 0.94263 1.333 2.6375 1.333 1.5234 0 2.3328-0.68555 0.81885-0.69507 1.0854-2.4089z" stop-color="#000000" />
		<path id="path6590" d="m214.65 47.232h-6.0081v4.9131h6.9792v1.4949h-8.8074v-13.863h8.7122v1.5044h-6.884v4.4561h6.0081z" stop-color="#000000" />
	</g>
	<g id="g5175" transform="translate(-376.32 197.93)" stroke-linejoin="round">
		<g id="g5135" transform="translate(60.561 214.85)">
			<path id="use3614-6" d="m606.91 92.142c0.86128 0 1.6874-0.34219 2.2964-0.9512 0.60901-0.60901 0.9512-1.4351 0.9512-2.2964 0-0.86127-0.34219-1.6874-0.9512-2.2964-0.60901-0.60901-1.4351-0.9512-2.2964-0.9512-0.86127 0-1.6874 0.34219-2.2964 0.9512-0.60902 0.60901-0.9512 1.4351-0.9512 2.2964 0 0.86127 0.34218 1.6874 0.9512 2.2964 0.60901 0.60901 1.4351 0.9512 2.2964 0.9512z" fill="#8c8c8c" stroke="#8c8c8c" stroke-linejoin="round" stroke-width="1.125" />
			<g id="text1731" transform="translate(-35.593 -73.08)" fill="#262626" stop-color="#000000" aria-label="BASE">
				<path id="path6593" d="m652.08 167.84v-11.73h3.4644q1.8852 0 2.8601 0.7815 0.97486 0.77344 0.97486 2.2881 0 0.9104-0.49951 1.5872-0.49146 0.6687-1.3535 0.95874 1.0232 0.22559 1.6436 1.0071 0.62842 0.7815 0.62842 1.8047 0 1.5549-1.0071 2.4331-0.99902 0.87011-2.7876 0.87011zm0.99097-5.6396v4.8018h2.9729q1.273 0 2.0142-0.64453 0.74927-0.65259 0.74927-1.8047 0-1.0876-0.71705-1.7161-0.70898-0.63648-1.9658-0.63648zm0-0.82983h2.707q1.2407-0.0242 1.9175-0.58008 0.68481-0.56396 0.68481-1.6355 0-1.1279-0.70898-1.6597-0.70093-0.5398-2.127-0.5398h-2.4734z" stop-color="#000000" />
				<path id="path6595" d="m668.52 164.55h-5.3254l-1.2085 3.2871h-1.0393l4.4392-11.73h0.94263l4.4392 11.73h-1.0312zm-5.0193-0.84594h4.7051l-2.3525-6.3889z" stop-color="#000000" />
				<path id="path6597" d="m679.13 164.96q0-0.97486-0.68481-1.5388-0.68482-0.57202-2.5056-1.0796-1.8208-0.51563-2.6587-1.1199-1.1924-0.854-1.1924-2.2397 0-1.3455 1.1038-2.1834 1.1118-0.84595 2.8359-0.84595 1.1682 0 2.0867 0.45117 0.92652 0.45117 1.4341 1.2568 0.50756 0.80566 0.50756 1.7966h-0.99902q0-1.2004-0.82178-1.9255-0.82177-0.73315-2.2075-0.73315-1.3455 0-2.1431 0.60425-0.79761 0.59619-0.79761 1.563 0 0.89429 0.71704 1.4583 0.71704 0.56396 2.2961 0.99902 1.5791 0.427 2.3928 0.89429 0.81372 0.45923 1.2246 1.1038 0.41089 0.64453 0.41089 1.5227 0 1.3857-1.1118 2.2236-1.1038 0.8379-2.9165 0.8379-1.2407 0-2.28-0.44312-1.0312-0.44311-1.571-1.2407-0.53174-0.79761-0.53174-1.8289h0.99097q0 1.2407 0.92651 1.9578t2.4653 0.71704q1.3696 0 2.1995-0.60424 0.82983-0.60425 0.82983-1.6033z" stop-color="#000000" />
				<path id="path6599" d="m688.74 162.22h-5.4866v4.7856h6.3084v0.83789h-7.2993v-11.73h7.259v0.84595h-6.2681v4.4231h5.4866z" stop-color="#000000" />
			</g>
		</g>
		<g id="g5130" transform="translate(127.71 184.27)">
			<path id="use3622-2" d="m603.66 122.64h6.4952v-6.4952h-6.4952z" fill="#8c8c8c" stroke="#8c8c8c" stroke-linejoin="round" stroke-width="1.125" />
			<g id="text1731-5" transform="translate(-35.593 -42.583)" fill="#262626" stop-color="#000000" aria-label="PRUNED">
				<path id="path6602" d="m653.07 163.06v4.7776h-0.99097v-11.73h3.9961q1.8289 0 2.8843 0.93457 1.0635 0.93457 1.0635 2.5701 0 1.6516-1.0232 2.554-1.0151 0.89428-2.9487 0.89428zm0-0.83789h3.0051q1.4421 0 2.1995-0.68481 0.75732-0.68481 0.75732-1.9094 0-1.2166-0.75732-1.9336-0.74927-0.7251-2.135-0.74121h-3.0696z" stop-color="#000000" />
				<path id="path6604" d="m666.62 162.96h-3.408v4.8823h-0.99903v-11.73h3.8108q1.8772 0 2.9326 0.9104t1.0554 2.5459q0 1.1279-0.66064 1.99-0.66065 0.86206-1.7725 1.1924l2.9326 4.9871v0.10473h-1.0554zm-3.408-0.84595h3.0374q1.2488 0 2.0061-0.70898 0.75732-0.70899 0.75732-1.8369 0-1.2407-0.78955-1.9255-0.78955-0.68482-2.2156-0.68482h-2.7956z" stop-color="#000000" />
				<path id="path6606" d="m680.79 156.11v8.0083q-8e-3 1.1843-0.52368 2.0625-0.51563 0.87818-1.4583 1.3535-0.93457 0.46729-2.1511 0.46729-1.853 0-2.9729-1.0071-1.1118-1.0151-1.1521-2.8037v-8.0808h0.98291v7.9358q0 1.4824 0.84595 2.3042 0.84595 0.81372 2.2961 0.81372 1.4502 0 2.2881-0.82177 0.84594-0.82178 0.84594-2.2881v-7.9438z" stop-color="#000000" />
				<path id="path6608" d="m692.29 167.84h-0.99096l-6.7434-10.039v10.039h-0.99902v-11.73h0.99902l6.7515 10.047v-10.047h0.98291z" stop-color="#000000" />
				<path id="path6610" d="m701.75 162.22h-5.4866v4.7856h6.3084v0.83789h-7.2993v-11.73h7.259v0.84595h-6.2681v4.4231h5.4866z" stop-color="#000000" />
				<path id="path6612" d="m704.66 167.84v-11.73h3.279q1.4421 0 2.5862 0.66065 1.144 0.65259 1.7805 1.8772 0.64453 1.2246 0.64453 2.7876v1.0796q0 1.571-0.63647 2.7876-0.63648 1.2166-1.7966 1.8772-1.1521 0.66064-2.6506 0.66064zm0.99096-10.885v10.047h2.2236q1.853 0 2.9729-1.2246 1.1199-1.2327 1.1199-3.3274v-1.0312q0-2.0222-1.1038-3.2388t-2.9084-1.2246z" stop-color="#000000" />
			</g>
		</g>
		<g id="g5125" transform="translate(218.24 147.08)">
			<path id="use3630-8" d="m606.91 153.42-3.2476 6.4952h6.4952z" fill="#8c8c8c" stroke="#8c8c8c" stroke-linejoin="round" stroke-width="1.125" />
			<g id="text1731-5-2" transform="translate(-35.085 -6.2483)" fill="#262626" stop-color="#000000" aria-label="QUANTISED">
				<path id="path6615" d="m660.71 162.61q0 1.6758-0.59619 2.9246-0.58814 1.2407-1.6838 1.8772l2.135 1.8611-0.68481 0.61231-2.3928-2.0706q-0.66064 0.18531-1.3455 0.18531-1.3374 0-2.3848-0.66065-1.0393-0.66064-1.6113-1.8691-0.57202-1.2166-0.58008-2.8037v-1.3132q0-1.6033 0.56397-2.8359 0.57202-1.2407 1.6113-1.9014 1.0393-0.6687 2.3848-0.6687 1.3696 0 2.4089 0.66065 1.0393 0.66064 1.6033 1.8933 0.57202 1.2327 0.57202 2.844zm-0.99097-1.273q0-2.1189-0.95874-3.3193t-2.6345-1.2004q-1.6274 0-2.6023 1.2085-0.9668 1.2004-0.9668 3.3596v1.2246q0 2.0867 0.95874 3.3113 0.9668 1.2166 2.6265 1.2166 1.6758 0 2.6265-1.2004 0.95068-1.2004 0.95068-3.3516z" stop-color="#000000" />
				<path id="path6617" d="m671.33 156.11v8.0083q-8e-3 1.1843-0.52369 2.0625-0.51562 0.87818-1.4582 1.3535-0.93457 0.46729-2.1511 0.46729-1.853 0-2.9729-1.0071-1.1118-1.0151-1.1521-2.8037v-8.0808h0.98291v7.9358q0 1.4824 0.84595 2.3042 0.84594 0.81372 2.2961 0.81372 1.4502 0 2.2881-0.82177 0.84595-0.82178 0.84595-2.2881v-7.9438z" stop-color="#000000" />
				<path id="path6619" d="m680.24 164.55h-5.3254l-1.2085 3.2871h-1.0393l4.4392-11.73h0.94263l4.4392 11.73h-1.0312zm-5.0193-0.84594h4.7051l-2.3525-6.3889z" stop-color="#000000" />
				<path id="path6621" d="m692.95 167.84h-0.99097l-6.7434-10.039v10.039h-0.99902v-11.73h0.99902l6.7515 10.047v-10.047h0.98291z" stop-color="#000000" />
				<path id="path6623" d="m703.89 156.96h-4.0203v10.885h-0.99096v-10.885h-4.0122v-0.84595h9.0234z" stop-color="#000000" />
				<path id="path6625" d="m706.99 167.84h-0.99096v-11.73h0.99096z" stop-color="#000000" />
				<path id="path6627" d="m716.81 164.96q0-0.97486-0.68482-1.5388-0.68481-0.57202-2.5056-1.0796-1.8208-0.51563-2.6587-1.1199-1.1924-0.854-1.1924-2.2397 0-1.3455 1.1038-2.1834 1.1118-0.84595 2.8359-0.84595 1.1682 0 2.0867 0.45117 0.92652 0.45117 1.4341 1.2568 0.50757 0.80566 0.50757 1.7966h-0.99902q0-1.2004-0.82178-1.9255-0.82178-0.73315-2.2075-0.73315-1.3455 0-2.1431 0.60425-0.79761 0.59619-0.79761 1.563 0 0.89429 0.71704 1.4583 0.71704 0.56396 2.2961 0.99902 1.5791 0.427 2.3928 0.89429 0.81372 0.45923 1.2246 1.1038t0.41089 1.5227q0 1.3857-1.1118 2.2236-1.1038 0.8379-2.9165 0.8379-1.2407 0-2.28-0.44312-1.0312-0.44311-1.571-1.2407-0.53174-0.79761-0.53174-1.8289h0.99097q0 1.2407 0.92651 1.9578t2.4653 0.71704q1.3696 0 2.1995-0.60424 0.82984-0.60425 0.82984-1.6033z" stop-color="#000000" />
				<path id="path6629" d="m726.42 162.22h-5.4866v4.7856h6.3084v0.83789h-7.2993v-11.73h7.259v0.84595h-6.2681v4.4231h5.4866z" stop-color="#000000" />
				<path id="path6631" d="m729.33 167.84v-11.73h3.279q1.4421 0 2.5862 0.66065 1.144 0.65259 1.7805 1.8772 0.64453 1.2246 0.64453 2.7876v1.0796q0 1.571-0.63647 2.7876-0.63648 1.2166-1.7966 1.8772-1.1521 0.66064-2.6506 0.66064zm0.99096-10.885v10.047h2.2236q1.853 0 2.9729-1.2246 1.1199-1.2327 1.1199-3.3274v-1.0312q0-2.0222-1.1038-3.2388t-2.9084-1.2246z" stop-color="#000000" />
			</g>
		</g>
	</g>
</svg>
