<?xml version="1.0" encoding="UTF-8"?>
<svg
	version="1.1" viewBox="0 0 569.58 551.6" xmlns="http://www.w3.org/2000/svg" xmlns:xlink="http://www.w3.org/1999/xlink"
	data-length="1"
>
	<style>
		<!-- TEXT -->
		svg[data-animattr] :where(#circle-orange, #circle-green, #circle-red) {
			transition: opacity 250ms ease;
			opacity: 0;
		}
		svg[data-animattr~="0"] #circle-orange { opacity: 1; }

		<!-- MARKERS -->
		svg[data-animattr] :where(.square, .triangle) {
			opacity: 0;
		}

		<!-- LINES -->
		svg[data-animattr] .line {
			stroke-dasharray: 1;
			stroke-dashoffset: 1;
		}
	</style>
	<defs id="defs3507">
		<path id="mc9fe87e902" d="m0-4.3301-4.3301 8.6603h8.6603z" stroke-width="1.5" />
		<path id="ma1b0d5503e" d="m0 4.3301c1.1484 0 2.2498-0.45625 3.0619-1.2683 0.81202-0.81202 1.2683-1.9135 1.2683-3.0619s-0.45625-2.2498-1.2683-3.0619c-0.81202-0.81202-1.9135-1.2683-3.0619-1.2683s-2.2498 0.45625-3.0619 1.2683c-0.81202 0.81202-1.2683 1.9135-1.2683 3.0619s0.45625 2.2498 1.2683 3.0619c0.81202 0.81202 1.9135 1.2683 3.0619 1.2683z" stroke-width="1.5" />
		<path id="ma1c8768e36" d="m0-4.5-4.5 9h9z" stroke="#262626" />
		<path id="mf73a5676b2" d="m0-4.3301-4.3301 8.6603h8.6603z" stroke-width="1.5" />
		<path id="ma06b53b74f" d="m-4.3301 4.3301h8.6603v-8.6603h-8.6603z" stroke-width="1.5" />
		<path id="m36a0a566af" d="m-4.3301 4.3301h8.6603v-8.6603h-8.6603z" stroke-width="1.5" />
		<path id="ma7bdf03081" d="m0 4.3301c1.1484 0 2.2498-0.45625 3.0619-1.2683 0.81202-0.81202 1.2683-1.9135 1.2683-3.0619s-0.45625-2.2498-1.2683-3.0619c-0.81202-0.81202-1.9135-1.2683-3.0619-1.2683s-2.2498 0.45625-3.0619 1.2683c-0.81202 0.81202-1.2683 1.9135-1.2683 3.0619s0.45625 2.2498 1.2683 3.0619c0.81202 0.81202 1.9135 1.2683 3.0619 1.2683z" stroke-width="1.5" />
		<path id="m15bfeed542" d="m0-4.3301-4.3301 8.6603h8.6603z" stroke-width="1.5" />
		<path id="mb19a64e732" d="m-4.3301 4.3301h8.6603v-8.6603h-8.6603z" stroke-width="1.5" />
		<path id="m761dd5ee65" d="m0 4.3301c1.1484 0 2.2498-0.45625 3.0619-1.2683 0.81202-0.81202 1.2683-1.9135 1.2683-3.0619s-0.45625-2.2498-1.2683-3.0619c-0.81202-0.81202-1.9135-1.2683-3.0619-1.2683s-2.2498 0.45625-3.0619 1.2683c-0.81202 0.81202-1.2683 1.9135-1.2683 3.0619s0.45625 2.2498 1.2683 3.0619c0.81202 0.81202 1.9135 1.2683 3.0619 1.2683z" stroke-width="1.5" />
		<path id="m752178a763" d="m0 4.3301c1.1484 0 2.2498-0.45625 3.0619-1.2683 0.81202-0.81202 1.2683-1.9135 1.2683-3.0619s-0.45625-2.2498-1.2683-3.0619c-0.81202-0.81202-1.9135-1.2683-3.0619-1.2683s-2.2498 0.45625-3.0619 1.2683c-0.81202 0.81202-1.2683 1.9135-1.2683 3.0619s0.45625 2.2498 1.2683 3.0619c0.81202 0.81202 1.9135 1.2683 3.0619 1.2683z" stroke-width="1.5" />
		<path id="m6c80c061d0" d="m0-4.3301-4.3301 8.6603h8.6603z" stroke-width="1.5" />
		<path id="md9ae572146" d="m4.5 0-9-4.5v9z" stroke="#262626" />
		<path id="m4513212936" d="m-4.3301 4.3301h8.6603v-8.6603h-8.6603z" stroke-width="1.5" />
	</defs>
	<g id="g4521" transform="translate(-44.241 -70.544)" fill="#262626">
		<g id="text3515" aria-label="0">
			<path id="path5799" d="m84.553 603.06q0 2.4814-0.9104 3.7705-0.9104 1.281-2.6829 1.281-1.7402 0-2.6667-1.2568-0.92651-1.2649-0.95068-3.6738v-2.1028q0-2.4734 0.91846-3.7463t2.6829-1.273q1.7402 0 2.6587 1.2327 0.91846 1.2246 0.95068 3.6174zm-0.9668-2.1028q0-2.0142-0.66064-3.0454-0.65259-1.0312-1.9819-1.0312-1.3052 0-1.9658 1.0071-0.66064 1.0071-0.67676 2.9729v2.3042q0 2.0061 0.67676 3.0696 0.68482 1.0635 1.9819 1.0635 1.2891 0 1.9497-1.0393 0.6687-1.0393 0.67676-3.0454z" fill="#262626" />
		</g>
		<g id="text3519" aria-label="10">
			<path id="path5802" d="m154.98 607.95h-0.96679v-10.57l-3.1904 1.1843v-0.90234l3.9961-1.4824h0.16113z" />
			<path id="path5804" d="m166.71 603.06q0 2.4814-0.9104 3.7705-0.9104 1.281-2.6829 1.281-1.7402 0-2.6668-1.2568-0.92651-1.2649-0.95068-3.6738v-2.1028q0-2.4734 0.91846-3.7463 0.91845-1.273 2.6829-1.273 1.7402 0 2.6587 1.2327 0.91846 1.2246 0.95068 3.6174zm-0.96679-2.1028q0-2.0142-0.66065-3.0454-0.65259-1.0312-1.9819-1.0312-1.3052 0-1.9658 1.0071-0.66065 1.0071-0.67676 2.9729v2.3042q0 2.0061 0.67676 3.0696 0.68481 1.0635 1.9819 1.0635 1.2891 0 1.9497-1.0393 0.6687-1.0393 0.67676-3.0454z" />
		</g>
		<g id="text3523" aria-label="20">
			<path id="path5807" d="m234.74 607.95h-7.3476v-0.74121l4.0203-4.5601q0.99903-1.1521 1.3857-1.9014 0.38672-0.74927 0.38672-1.4582 0-1.1118-0.65258-1.7564-0.65259-0.65259-1.7966-0.65259-1.1843 0-1.9175 0.75733-0.72509 0.75732-0.72509 1.9658h-0.95874q0-0.99097 0.44311-1.8047 0.45117-0.81372 1.273-1.273 0.82983-0.46728 1.8852-0.46728 1.6113 0 2.5137 0.84594 0.9104 0.84595 0.9104 2.3042 0 0.82178-0.51563 1.7966-0.50757 0.97486-1.7966 2.4331l-3.271 3.698h6.1633z" />
			<path id="path5809" d="m243.62 603.06q0 2.4814-0.9104 3.7705-0.9104 1.281-2.6829 1.281-1.7402 0-2.6667-1.2568-0.92652-1.2649-0.95069-3.6738v-2.1028q0-2.4734 0.91846-3.7463t2.6829-1.273q1.7402 0 2.6587 1.2327 0.91846 1.2246 0.95069 3.6174zm-0.9668-2.1028q0-2.0142-0.66065-3.0454-0.65258-1.0312-1.9819-1.0312-1.3052 0-1.9658 1.0071-0.66064 1.0071-0.67676 2.9729v2.3042q0 2.0061 0.67676 3.0696 0.68482 1.0635 1.9819 1.0635 1.2891 0 1.9497-1.0393 0.6687-1.0393 0.67676-3.0454z" />
		</g>
		<g id="text3527" aria-label="30">
			<path id="path5812" d="m306.93 601.56h0.99902q0.82984 0 1.4502-0.29004 0.62036-0.29809 0.94262-0.80566 0.33033-0.51563 0.33033-1.1843 0-1.1279-0.63648-1.7644-0.63647-0.63648-1.8288-0.63648-1.1279 0-1.853 0.66871-0.71704 0.66064-0.71704 1.7483h-0.9668q0-0.9104 0.45923-1.6597 0.45923-0.75733 1.273-1.1682 0.81372-0.41089 1.8047-0.41089 1.5952 0 2.5137 0.87011 0.91845 0.87012 0.91845 2.3848 0 0.84595-0.53979 1.563-0.53174 0.70898-1.4663 1.0635 1.0957 0.30615 1.6597 1.0554 0.56396 0.74121 0.56396 1.7725 0 1.5066-0.98291 2.425-0.98291 0.91846-2.6265 0.91846-1.0474 0-1.9255-0.41894-0.87012-0.41895-1.3535-1.1682-0.47535-0.75732-0.47535-1.7563h0.9668q0 1.1199 0.78149 1.8288 0.7815 0.70093 2.0061 0.70093 1.2488 0 1.9416-0.63647 0.70093-0.64453 0.70093-1.8611 0-1.1763-0.75733-1.7966-0.74927-0.62036-2.2156-0.62036h-0.9668z" />
			<path id="path5814" d="m321 603.06q0 2.4814-0.9104 3.7705-0.9104 1.281-2.6829 1.281-1.7402 0-2.6668-1.2568-0.92651-1.2649-0.95068-3.6738v-2.1028q0-2.4734 0.91845-3.7463 0.91846-1.273 2.6829-1.273 1.7402 0 2.6587 1.2327 0.91845 1.2246 0.95068 3.6174zm-0.9668-2.1028q0-2.0142-0.66064-3.0454-0.65259-1.0312-1.9819-1.0312-1.3052 0-1.9658 1.0071-0.66065 1.0071-0.67676 2.9729v2.3042q0 2.0061 0.67676 3.0696 0.68481 1.0635 1.9819 1.0635 1.2891 0 1.9497-1.0393 0.6687-1.0393 0.67675-3.0454z" />
		</g>
		<g id="text3531" aria-label="40">
			<path id="path5817" d="m387.85 604.17h1.8289v0.81373h-1.8289v2.9648h-0.9668v-2.9648h-5.5188v-0.54786l5.4302-8.2178h1.0554zm-5.3013 0h4.3345v-6.7031l-0.427 0.74121z" />
			<path id="path5819" d="m398.15 603.06q0 2.4814-0.9104 3.7705-0.9104 1.281-2.6829 1.281-1.7402 0-2.6668-1.2568-0.92651-1.2649-0.95068-3.6738v-2.1028q0-2.4734 0.91846-3.7463t2.6829-1.273q1.7402 0 2.6587 1.2327 0.91846 1.2246 0.95068 3.6174zm-0.96679-2.1028q0-2.0142-0.66065-3.0454-0.65258-1.0312-1.9819-1.0312-1.3052 0-1.9658 1.0071-0.66065 1.0071-0.67676 2.9729v2.3042q0 2.0061 0.67676 3.0696 0.68481 1.0635 1.9819 1.0635 1.2891 0 1.9497-1.0393 0.6687-1.0393 0.67676-3.0454z" />
		</g>
		<g id="text3535" aria-label="50">
			<path id="path5822" d="m459.67 601.94 0.57202-5.7202h5.8652v0.89429h-5.0354l-0.41089 3.9639q0.94262-0.64453 2.2075-0.64453 1.5872 0 2.5298 1.0312 0.94263 1.0312 0.94263 2.7473 0 1.853-0.91846 2.8762-0.91845 1.0232-2.5862 1.0232-1.5308 0-2.4814-0.854-0.95069-0.85401-1.0876-2.3928h0.92651q0.13697 1.2004 0.81372 1.8208 0.67676 0.6123 1.8289 0.6123 1.2568 0 1.8933-0.79761 0.64453-0.7976 0.64453-2.272 0-1.2891-0.71704-2.1028t-1.9578-0.81372q-0.68482 0-1.1924 0.17724-0.50757 0.16919-1.0715 0.6687z" />
			<path id="path5824" d="m475.24 603.06q0 2.4814-0.9104 3.7705-0.9104 1.281-2.6829 1.281-1.7402 0-2.6668-1.2568-0.92651-1.2649-0.95068-3.6738v-2.1028q0-2.4734 0.91845-3.7463 0.91846-1.273 2.6829-1.273 1.7402 0 2.6587 1.2327 0.91845 1.2246 0.95068 3.6174zm-0.9668-2.1028q0-2.0142-0.66064-3.0454-0.65259-1.0312-1.9819-1.0312-1.3052 0-1.9658 1.0071-0.66065 1.0071-0.67676 2.9729v2.3042q0 2.0061 0.67676 3.0696 0.68481 1.0635 1.9819 1.0635 1.2891 0 1.9497-1.0393 0.6687-1.0393 0.67675-3.0454z" />
		</g>
	</g>
	<g id="text3539" fill="#262626" aria-label="TIME (MS)">
		<path id="path5827" d="m465.12 524.77h-4.4561v12.359h-1.8186v-12.359h-4.4465v-1.5044h10.721z" />
		<path id="path5829" d="m469.13 537.13h-1.8281v-13.863h1.8281z" />
		<path id="path5831" d="m474.84 523.26 4.5322 11.312 4.5322-11.312h2.3708v13.863h-1.8281v-5.3987l0.17139-5.8272-4.5513 11.226h-1.3997l-4.5418-11.197 0.18091 5.7986v5.3987h-1.8281v-13.863z" />
		<path id="path5833" d="m497.34 530.72h-6.0081v4.9131h6.9792v1.4949h-8.8074v-13.863h8.7122v1.5044h-6.884v4.4561h6.0081z" />
		<path id="path5835" d="m505.07 531.5q0-2.1518 0.57129-4.1323 0.58081-1.9805 1.7234-3.5991t2.3708-2.2852l0.36182 1.1616q-1.3901 1.0664-2.2852 3.2564-0.8855 2.1899-0.97119 4.9036l-0.01 0.80932q0 3.6753 1.3425 6.3794 0.80932 1.6186 1.9233 2.5327l-0.36182 1.0759q-1.2664-0.70459-2.4185-2.3613-2.2471-3.2373-2.2471-7.741z" />
		<path id="path5837" d="m514.44 523.26 4.5322 11.312 4.5322-11.312h2.3708v13.863h-1.8281v-5.3987l0.17139-5.8272-4.5513 11.226h-1.3997l-4.5418-11.197 0.18091 5.7986v5.3987h-1.8281v-13.863z" />
		<path id="path5839" d="m533.19 530.95q-2.3518-0.67603-3.4277-1.6567-1.0664-0.99024-1.0664-2.4375 0-1.6377 1.3044-2.7041 1.314-1.0759 3.4087-1.0759 1.4282 0 2.5422 0.55225 1.1235 0.55224 1.7329 1.5234 0.6189 0.97119 0.6189 2.1233h-1.8376q0-1.2568-0.79981-1.9709-0.7998-0.72364-2.2566-0.72364-1.352 0-2.1138 0.59986-0.75219 0.59033-0.75219 1.6472 0 0.84742 0.71411 1.4378 0.72363 0.58081 2.447 1.0664 1.7329 0.4856 2.7041 1.0759 0.98071 0.58081 1.4473 1.3616 0.47607 0.78077 0.47607 1.8376 0 1.6853-1.314 2.7041-1.314 1.0093-3.5134 1.0093-1.4282 0-2.666-0.54272-1.2378-0.55225-1.9138-1.5044-0.6665-0.95215-0.6665-2.1614h1.8376q0 1.2568 0.92358 1.99 0.9331 0.72364 2.4851 0.72364 1.4473 0 2.2185-0.59033 0.77124-0.59034 0.77124-1.6091 0-1.0188-0.71411-1.571-0.71411-0.56177-2.5898-1.1045z" />
		<path id="path5841" d="m544.46 531.59q0 2.1233-0.56177 4.0752-0.55225 1.9424-1.7044 3.5896-1.1426 1.6472-2.3994 2.3423l-0.37134-1.0759q1.4663-1.1235 2.3518-3.4849 0.89502-2.3708 0.91406-5.2559v-0.30469q0-1.9995-0.41895-3.7134-0.41894-1.7234-1.1711-3.085-0.74267-1.3616-1.6758-2.1233l0.37134-1.0759q1.2568 0.69507 2.3899 2.3232 1.1426 1.6282 1.7044 3.5896 0.57129 1.9614 0.57129 4.199z" />
	</g>
	<g id="g4527" transform="translate(-27.782 -59.642)" fill="#262626">
		<g id="text3543" aria-label="50">
			<path id="path5844" d="m40.26 576.65 0.57202-5.7202h5.8652v0.89429h-5.0354l-0.41089 3.9639q0.94263-0.64453 2.2075-0.64453 1.5872 0 2.5298 1.0312t0.94263 2.7473q0 1.853-0.91846 2.8762-0.91846 1.0232-2.5862 1.0232-1.5308 0-2.4814-0.854-0.95068-0.85401-1.0876-2.3928h0.92651q0.13696 1.2004 0.81372 1.8208 0.67676 0.6123 1.8289 0.6123 1.2568 0 1.8933-0.79761 0.64453-0.7976 0.64453-2.272 0-1.2891-0.71704-2.1028t-1.9578-0.81372q-0.68481 0-1.1924 0.17724-0.50757 0.16919-1.0715 0.6687z" />
			<path id="path5846" d="m55.825 577.77q0 2.4814-0.9104 3.7705-0.9104 1.281-2.6829 1.281-1.7402 0-2.6667-1.2568-0.92651-1.2649-0.95068-3.6738v-2.1028q0-2.4734 0.91846-3.7463 0.91846-1.273 2.6829-1.273 1.7402 0 2.6587 1.2327 0.91846 1.2246 0.95068 3.6174zm-0.9668-2.1028q0-2.0142-0.66064-3.0454-0.65259-1.0312-1.9819-1.0312-1.3052 0-1.9658 1.0071-0.66064 1.0071-0.67676 2.9729v2.3042q0 2.0061 0.67676 3.0696 0.68481 1.0635 1.9819 1.0635 1.2891 0 1.9497-1.0393 0.6687-1.0393 0.67676-3.0454z" />
		</g>
		<g id="text3547" aria-label="55">
			<path id="path5849" d="m40.135 451.94 0.57202-5.7202h5.8652v0.89429h-5.0354l-0.41089 3.9639q0.94263-0.64453 2.2075-0.64453 1.5872 0 2.5298 1.0312t0.94263 2.7473q0 1.853-0.91846 2.8762-0.91846 1.0232-2.5862 1.0232-1.5308 0-2.4814-0.854-0.95068-0.85401-1.0876-2.3928h0.92651q0.13696 1.2004 0.81372 1.8208 0.67676 0.6123 1.8289 0.6123 1.2568 0 1.8933-0.79761 0.64453-0.79761 0.64453-2.272 0-1.2891-0.71704-2.1028t-1.9578-0.81372q-0.68481 0-1.1924 0.17724-0.50757 0.16919-1.0715 0.6687z" />
			<path id="path5851" d="m49.279 451.94 0.57202-5.7202h5.8652v0.89429h-5.0354l-0.41089 3.9639q0.94263-0.64453 2.2075-0.64453 1.5872 0 2.5298 1.0312t0.94263 2.7473q0 1.853-0.91846 2.8762-0.91846 1.0232-2.5862 1.0232-1.5308 0-2.4814-0.854-0.95068-0.85401-1.0876-2.3928h0.92651q0.13696 1.2004 0.81372 1.8208 0.67676 0.6123 1.8289 0.6123 1.2568 0 1.8933-0.79761 0.64453-0.79761 0.64453-2.272 0-1.2891-0.71704-2.1028t-1.9578-0.81372q-0.68481 0-1.1924 0.17724-0.50757 0.16919-1.0715 0.6687z" />
		</g>
		<g id="text3551" aria-label="60">
			<path id="path5854" d="m45.448 321.36v0.84594h-0.11279q-2.1028 0-3.3113 1.2407-1.2085 1.2327-1.3374 3.4321 0.4834-0.6687 1.2327-1.0312 0.74927-0.3706 1.6758-0.3706 1.5469 0 2.4573 1.0715 0.91846 1.0635 0.91846 2.7876 0 1.144-0.427 2.0625t-1.2246 1.4341q-0.79761 0.50757-1.8208 0.50757-1.6838 0-2.7393-1.2166-1.0554-1.2246-1.0554-3.1582v-0.96679q0-3.1502 1.4341-4.8743 1.4341-1.7322 4.0686-1.7644zm-2.0061 4.9468q-0.91846 0-1.7161 0.54785-0.78955 0.5398-1.0554 1.3777v0.82178q0 1.5308 0.78149 2.4976 0.78955 0.96679 2.0464 0.96679 1.1279 0 1.8208-0.89428 0.70093-0.89429 0.70093-2.2559 0-1.3858-0.70093-2.2236-0.69287-0.83789-1.8772-0.83789z" />
			<path id="path5856" d="m55.979 328.29q0 2.4814-0.9104 3.7705-0.9104 1.281-2.6829 1.281-1.7402 0-2.6667-1.2568-0.92651-1.2649-0.95068-3.6738v-2.1028q0-2.4734 0.91846-3.7463 0.91846-1.273 2.6829-1.273 1.7402 0 2.6587 1.2327 0.91846 1.2246 0.95068 3.6174zm-0.9668-2.1028q0-2.0142-0.66064-3.0454-0.65259-1.0312-1.9819-1.0312-1.3052 0-1.9658 1.0071-0.66064 1.0071-0.67676 2.9729v2.3042q0 2.0061 0.67676 3.0696 0.68481 1.0635 1.9819 1.0635 1.2891 0 1.9497-1.0393 0.6687-1.0393 0.67676-3.0454z" />
		</g>
		<g id="text3555" aria-label="65">
			<path id="path5859" d="m45.324 196.59v0.84594h-0.11279q-2.1028 0-3.3113 1.2407-1.2085 1.2327-1.3374 3.4321 0.4834-0.6687 1.2327-1.0312 0.74927-0.3706 1.6758-0.3706 1.5469 0 2.4573 1.0715 0.91846 1.0635 0.91846 2.7876 0 1.144-0.427 2.0625t-1.2246 1.4341q-0.79761 0.50757-1.8208 0.50757-1.6838 0-2.7393-1.2166-1.0554-1.2246-1.0554-3.1582v-0.96679q0-3.1502 1.4341-4.8743 1.4341-1.7322 4.0686-1.7644zm-2.0061 4.9468q-0.91846 0-1.7161 0.54785-0.78955 0.5398-1.0554 1.3777v0.82178q0 1.5308 0.78149 2.4976 0.78955 0.96679 2.0464 0.96679 1.1279 0 1.8208-0.89428 0.70093-0.89429 0.70093-2.2559 0-1.3858-0.70093-2.2236-0.69287-0.83789-1.8772-0.83789z" />
			<path id="path5861" d="m49.432 202.39 0.57202-5.7202h5.8652v0.89429h-5.0354l-0.41089 3.9639q0.94263-0.64453 2.2075-0.64453 1.5872 0 2.5298 1.0312t0.94263 2.7473q0 1.853-0.91846 2.8762-0.91846 1.0232-2.5862 1.0232-1.5308 0-2.4814-0.854-0.95068-0.85401-1.0876-2.3928h0.92651q0.13696 1.2004 0.81372 1.8208 0.67676 0.61231 1.8289 0.61231 1.2568 0 1.8933-0.79761 0.64453-0.79761 0.64453-2.272 0-1.2891-0.71704-2.1028t-1.9578-0.81372q-0.68481 0-1.1924 0.17724-0.50757 0.16919-1.0715 0.6687z" />
		</g>
	</g>
	<g id="text3559" transform="rotate(-90)" fill="#262626" aria-label="AP (%)">
		<path id="path5864" d="m-74.549 22.026h-5.8081l-1.3044 3.6182h-1.8853l5.2939-13.863h1.5996l5.3035 13.863h-1.8757zm-5.2559-1.5044h4.7131l-2.3613-6.4841z" />
		<path id="path5866" d="m-67.656 20.217v5.4272h-1.8281v-13.863h5.113q2.2756 0 3.561 1.1616 1.2949 1.1616 1.2949 3.0754 0 2.0186-1.2664 3.1135-1.2568 1.0854-3.6086 1.0854zm0-1.4949h3.2849q1.4663 0 2.2471-0.68555 0.78076-0.69507 0.78076-1.9995 0-1.2378-0.78076-1.9805-0.78076-0.74268-2.1423-0.77124h-3.3896z" />
		<path id="path5868" d="m-52.698 20.017q0-2.1519 0.57129-4.1323 0.58081-1.9805 1.7234-3.5991 1.1426-1.6187 2.3708-2.2852l0.36182 1.1616q-1.3901 1.0664-2.2852 3.2563-0.8855 2.1899-0.97119 4.9036l-0.0095 0.80933q0 3.6753 1.3425 6.3794 0.80933 1.6187 1.9233 2.5327l-0.36182 1.0759q-1.2664-0.70459-2.4185-2.3613-2.2471-3.2373-2.2471-7.741z" />
		<path id="path5870" d="m-46.299 14.447q0-1.2473 0.79028-2.0566 0.7998-0.80933 2.0471-0.80933 1.2664 0 2.0471 0.81885 0.79028 0.80933 0.79028 2.1042v0.67603q0 1.2568-0.7998 2.0566-0.79028 0.79028-2.0186 0.79028-1.2378 0-2.0471-0.79028-0.80933-0.7998-0.80933-2.1233zm1.314 0.73316q0 0.74268 0.41894 1.2283 0.41895 0.47607 1.1235 0.47607 0.67602 0 1.0854-0.46655 0.41894-0.46655 0.41894-1.2759v-0.69507q0-0.74268-0.40942-1.2283-0.40942-0.4856-1.114-0.4856-0.70459 0-1.114 0.4856-0.40942 0.4856-0.40942 1.2664zm5.4368 7.0649q0-1.2473 0.79028-2.0471 0.7998-0.80933 2.0471-0.80933 1.2473 0 2.0471 0.7998 0.7998 0.7998 0.7998 2.1233v0.67603q0 1.2473-0.7998 2.0566-0.79028 0.7998-2.0281 0.7998t-2.0471-0.79028q-0.80933-0.7998-0.80933-2.1233zm1.314 0.74268q0 0.7522 0.41894 1.2378 0.41894 0.47607 1.1235 0.47607 0.68555 0 1.095-0.46655 0.40942-0.47607 0.40942-1.2854v-0.70459q0-0.7522-0.41895-1.2283-0.40942-0.47607-1.1045-0.47607-0.67602 0-1.1045 0.47607-0.41894 0.46655-0.41894 1.2664zm-4.8084 1.6091-0.99976-0.62842 6.7698-10.835 0.99976 0.62842z" />
		<path id="path5872" d="m-27.618 20.112q0 2.1233-0.56177 4.0752-0.55225 1.9424-1.7043 3.5896-1.1426 1.6472-2.3994 2.3423l-0.37134-1.0759q1.4663-1.1235 2.3518-3.4849 0.89502-2.3708 0.91406-5.2559v-0.30469q0-1.9995-0.41895-3.7134-0.41894-1.7234-1.1711-3.085-0.74268-1.3616-1.6758-2.1233l0.37134-1.0759q1.2568 0.69507 2.3899 2.3232 1.1426 1.6282 1.7043 3.5896 0.57129 1.9614 0.57129 4.199z" />
	</g>
	<g id="circle-blue">
		<use transform="translate(-44.241 -59.642)" x="419.40555" y="252.396" width="100%" height="100%" fill="#5975a4" stroke="#5975a4" stroke-width="1.5" xlink:href="#ma7bdf03081" />
		<g id="text3693" fill="#5975a4" aria-label="YOLOV2">
			<path id="path5875" d="m385.06 178.67 3.0615-5.8894h1.7564l-4.0444 7.3557v4.3748h-1.5469v-4.3748l-4.0444-7.3557h1.7725z" />
			<path id="path5877" d="m400.18 179.03q0 1.7241-0.58008 3.0132-0.58008 1.281-1.6436 1.9578-1.0635 0.67675-2.4814 0.67675-1.3857 0-2.4573-0.67675-1.0715-0.68482-1.6677-1.9416-0.58814-1.2649-0.60425-2.9246v-0.84595q0-1.6919 0.58813-2.989 0.58814-1.2971 1.6597-1.9819 1.0796-0.69287 2.4653-0.69287 1.4099 0 2.4814 0.68481 1.0796 0.67676 1.6597 1.9739 0.58008 1.2891 0.58008 3.0051zm-1.5388-0.75732q0-2.0867-0.83789-3.1985-0.83789-1.1199-2.3445-1.1199-1.4663 0-2.3122 1.1199-0.83789 1.1118-0.86206 3.0938v0.86206q0 2.0222 0.84595 3.1824 0.854 1.1521 2.3445 1.1521 1.4985 0 2.3203-1.0876 0.82178-1.0957 0.84595-3.134z" />
			<path id="path5879" d="m404.06 183.25h5.5591v1.2649h-7.114v-11.73h1.5549z" />
			<path id="path5881" d="m419.88 179.03q0 1.7241-0.58008 3.0132-0.58007 1.281-1.6436 1.9578-1.0635 0.67675-2.4814 0.67675-1.3857 0-2.4573-0.67675-1.0715-0.68482-1.6677-1.9416-0.58813-1.2649-0.60424-2.9246v-0.84595q0-1.6919 0.58813-2.989 0.58814-1.2971 1.6597-1.9819 1.0796-0.69287 2.4653-0.69287 1.4099 0 2.4814 0.68481 1.0796 0.67676 1.6597 1.9739 0.58008 1.2891 0.58008 3.0051zm-1.5388-0.75732q0-2.0867-0.83789-3.1985-0.83789-1.1199-2.3445-1.1199-1.4663 0-2.3122 1.1199-0.8379 1.1118-0.86207 3.0938v0.86206q0 2.0222 0.84595 3.1824 0.85401 1.1521 2.3445 1.1521 1.4985 0 2.3203-1.0876 0.82177-1.0957 0.84594-3.134z" />
			<path id="path5883" d="m425.91 182.46 3.3516-9.676h1.6919l-4.3506 11.73h-1.3696l-4.3425-11.73h1.6838z" />
			<path id="path5885" d="m439.82 184.51h-7.686v-1.0715l4.0606-4.5117q0.90234-1.0232 1.2407-1.6597 0.34644-0.64453 0.34644-1.3293 0-0.91846-0.55591-1.5066-0.55591-0.58813-1.4824-0.58813-1.1118 0-1.7322 0.63647-0.6123 0.62842-0.6123 1.7564h-1.4905q0-1.6194 1.0393-2.6184 1.0474-0.99902 2.7957-0.99902 1.6355 0 2.5862 0.86206 0.95068 0.854 0.95068 2.28 0 1.7322-2.2075 4.125l-3.1421 3.408h5.8894z" />
		</g>
	</g>
	<g id="circle-orange">
		<use transform="translate(-44.241 -59.642)" x="199.98277" y="437.0112" width="100%" height="100%" fill="#cc8963" stroke="#cc8963" stroke-width="1.5" xlink:href="#m752178a763" />
		<g id="text3696" fill="#cc8963" aria-label="MOBILE YOLOV2">
			<path id="path5888" d="m162.82 357.4 3.835 9.5713 3.835-9.5713h2.0061v11.73h-1.5469v-4.5681l0.14502-4.9307-3.8511 9.4988h-1.1843l-3.843-9.4746 0.15307 4.9065v4.5681h-1.5469v-11.73z" />
			<path id="path5890" d="m184.25 363.64q0 1.7241-0.58008 3.0132-0.58008 1.281-1.6436 1.9578-1.0635 0.67675-2.4814 0.67675-1.3857 0-2.4573-0.67675-1.0715-0.68482-1.6677-1.9417-0.58813-1.2649-0.60425-2.9246v-0.84594q0-1.6919 0.58814-2.989 0.58813-1.2971 1.6597-1.9819 1.0796-0.69287 2.4653-0.69287 1.4099 0 2.4814 0.68481 1.0796 0.67676 1.6597 1.9739 0.58008 1.2891 0.58008 3.0051zm-1.5388-0.75733q0-2.0867-0.83789-3.1985-0.83789-1.1199-2.3445-1.1199-1.4663 0-2.3123 1.1199-0.83789 1.1118-0.86206 3.0938v0.86206q0 2.0222 0.84595 3.1824 0.854 1.1521 2.3445 1.1521 1.4985 0 2.3203-1.0876 0.82177-1.0957 0.84594-3.134z" />
			<path id="path5892" d="m186.57 369.13v-11.73h3.835q1.9094 0 2.8682 0.78955 0.9668 0.78955 0.9668 2.3364 0 0.82178-0.46729 1.4582-0.46729 0.62842-1.273 0.97485 0.95068 0.26587 1.4985 1.0151 0.5559 0.74121 0.5559 1.7725 0 1.5791-1.0232 2.4814-1.0232 0.90234-2.8923 0.90234zm1.5469-5.4866v4.2217h2.554q1.0796 0 1.7-0.55591 0.62842-0.56397 0.62842-1.5469 0-2.1189-2.3042-2.1189zm0-1.2407h2.3364q1.0151 0 1.6194-0.50757 0.6123-0.50757 0.6123-1.3777 0-0.9668-0.56396-1.4018-0.56397-0.44312-1.7161-0.44312h-2.2881z" />
			<path id="path5894" d="m198.5 369.13h-1.5469v-11.73h1.5469z" />
			<path id="path5896" d="m202.89 367.86h5.5591v1.2649h-7.114v-11.73h1.5549z" />
			<path id="path5898" d="m216.84 363.71h-5.0837v4.1572h5.9055v1.2649h-7.4524v-11.73h7.3718v1.273h-5.825v3.7705h5.0837z" />
			<path id="path5900" d="m227.25 363.29 3.0615-5.8894h1.7563l-4.0444 7.3557v4.3748h-1.5469v-4.3748l-4.0444-7.3557h1.7725z" />
			<path id="path5902" d="m242.37 363.64q0 1.7241-0.58008 3.0132-0.58008 1.281-1.6436 1.9578-1.0635 0.67675-2.4814 0.67675-1.3857 0-2.4573-0.67675-1.0715-0.68482-1.6677-1.9417-0.58814-1.2649-0.60425-2.9246v-0.84594q0-1.6919 0.58813-2.989 0.58814-1.2971 1.6597-1.9819 1.0796-0.69287 2.4653-0.69287 1.4099 0 2.4814 0.68481 1.0796 0.67676 1.6597 1.9739 0.58008 1.2891 0.58008 3.0051zm-1.5388-0.75733q0-2.0867-0.83789-3.1985-0.83789-1.1199-2.3445-1.1199-1.4663 0-2.3122 1.1199-0.83789 1.1118-0.86206 3.0938v0.86206q0 2.0222 0.84595 3.1824 0.854 1.1521 2.3445 1.1521 1.4985 0 2.3203-1.0876 0.82178-1.0957 0.84595-3.134z" />
			<path id="path5904" d="m246.25 367.86h5.5591v1.2649h-7.114v-11.73h1.5549z" />
			<path id="path5906" d="m262.07 363.64q0 1.7241-0.58008 3.0132-0.58007 1.281-1.6436 1.9578-1.0635 0.67675-2.4814 0.67675-1.3857 0-2.4573-0.67675-1.0715-0.68482-1.6677-1.9417-0.58813-1.2649-0.60424-2.9246v-0.84594q0-1.6919 0.58813-2.989 0.58814-1.2971 1.6597-1.9819 1.0796-0.69287 2.4653-0.69287 1.4099 0 2.4814 0.68481 1.0796 0.67676 1.6597 1.9739 0.58008 1.2891 0.58008 3.0051zm-1.5388-0.75733q0-2.0867-0.83789-3.1985-0.83789-1.1199-2.3445-1.1199-1.4663 0-2.3122 1.1199-0.8379 1.1118-0.86207 3.0938v0.86206q0 2.0222 0.84595 3.1824 0.85401 1.1521 2.3445 1.1521 1.4985 0 2.3203-1.0876 0.82177-1.0957 0.84594-3.134z" />
			<path id="path5908" d="m268.1 367.07 3.3516-9.676h1.6919l-4.3506 11.73h-1.3696l-4.3425-11.73h1.6838z" />
			<path id="path5910" d="m282.01 369.13h-7.686v-1.0715l4.0606-4.5117q0.90234-1.0232 1.2407-1.6597 0.34644-0.64453 0.34644-1.3294 0-0.91845-0.55591-1.5066-0.55591-0.58813-1.4824-0.58813-1.1118 0-1.7322 0.63647-0.6123 0.62842-0.6123 1.7564h-1.4905q0-1.6194 1.0393-2.6184 1.0474-0.99902 2.7957-0.99902 1.6355 0 2.5862 0.86206 0.95068 0.854 0.95068 2.28 0 1.7322-2.2075 4.125l-3.1421 3.408h5.8894z" />
		</g>
	</g>
	<g id="circle-green">
		<use transform="translate(-44.241 -59.642)" x="483.53262" y="197.51041" width="100%" height="100%" fill="#5f9e6e" stroke="#5f9e6e" stroke-width="1.5" xlink:href="#ma1b0d5503e" />
		<g id="text3699" fill="#5f9e6e" aria-label="YOLOV2 UP">
			<path id="path5913" d="m449.19 123.79 3.0615-5.8894h1.7564l-4.0444 7.3557v4.3748h-1.5469v-4.3748l-4.0444-7.3557h1.7725z" />
			<path id="path5915" d="m464.31 124.14q0 1.7241-0.58008 3.0132-0.58008 1.281-1.6436 1.9578-1.0635 0.67675-2.4814 0.67675-1.3857 0-2.4573-0.67675-1.0715-0.68482-1.6677-1.9416-0.58813-1.2649-0.60424-2.9246v-0.84595q0-1.6919 0.58813-2.989 0.58813-1.2971 1.6597-1.9819 1.0796-0.69287 2.4653-0.69287 1.4099 0 2.4814 0.68481 1.0796 0.67676 1.6597 1.9739 0.58008 1.2891 0.58008 3.0051zm-1.5388-0.75732q0-2.0867-0.83789-3.1985-0.83789-1.1199-2.3445-1.1199-1.4663 0-2.3123 1.1199-0.83789 1.1118-0.86206 3.0938v0.86206q0 2.0222 0.84595 3.1824 0.854 1.1521 2.3445 1.1521 1.4985 0 2.3203-1.0876 0.82177-1.0957 0.84594-3.134z" />
			<path id="path5917" d="m468.19 128.36h5.5591v1.2649h-7.114v-11.73h1.5549z" />
			<path id="path5919" d="m484.01 124.14q0 1.7241-0.58008 3.0132-0.58008 1.281-1.6436 1.9578-1.0635 0.67675-2.4814 0.67675-1.3857 0-2.4573-0.67675-1.0715-0.68482-1.6677-1.9416-0.58814-1.2649-0.60425-2.9246v-0.84595q0-1.6919 0.58814-2.989 0.58813-1.2971 1.6597-1.9819 1.0796-0.69287 2.4653-0.69287 1.4099 0 2.4814 0.68481 1.0796 0.67676 1.6597 1.9739 0.58008 1.2891 0.58008 3.0051zm-1.5388-0.75732q0-2.0867-0.83789-3.1985-0.83789-1.1199-2.3445-1.1199-1.4663 0-2.3123 1.1199-0.83789 1.1118-0.86206 3.0938v0.86206q0 2.0222 0.84595 3.1824 0.854 1.1521 2.3445 1.1521 1.4985 0 2.3203-1.0876 0.82178-1.0957 0.84595-3.134z" />
			<path id="path5921" d="m490.04 127.57 3.3516-9.676h1.6919l-4.3506 11.73h-1.3696l-4.3425-11.73h1.6838z" />
			<path id="path5923" d="m503.95 129.63h-7.686v-1.0715l4.0605-4.5117q0.90235-1.0232 1.2407-1.6597 0.34643-0.64453 0.34643-1.3293 0-0.91846-0.55591-1.5066-0.5559-0.58813-1.4824-0.58813-1.1118 0-1.7322 0.63647-0.61231 0.62842-0.61231 1.7564h-1.4905q0-1.6194 1.0393-2.6184 1.0474-0.99902 2.7956-0.99902 1.6355 0 2.5862 0.86206 0.95069 0.854 0.95069 2.28 0 1.7322-2.2075 4.125l-3.1421 3.408h5.8894z" />
			<path id="path5925" d="m518.26 117.9v7.9761q-8e-3 1.6597-1.0474 2.7151-1.0312 1.0554-2.8037 1.1843l-0.41089 0.0161q-1.9255 0-3.0696-1.0393-1.144-1.0393-1.1602-2.8601v-7.9922h1.5308v7.9438q0 1.273 0.70093 1.9819 0.70092 0.70093 1.998 0.70093 1.3132 0 2.0061-0.70093 0.70093-0.70092 0.70093-1.9739v-7.9519z" />
			<path id="path5927" d="m522.25 125.03v4.5923h-1.5469v-11.73h4.3264q1.9255 0 3.0132 0.98291 1.0957 0.98291 1.0957 2.6023 0 1.708-1.0715 2.6345-1.0635 0.91846-3.0535 0.91846zm0-1.2649h2.7795q1.2407 0 1.9014-0.58007 0.66065-0.58814 0.66065-1.6919 0-1.0474-0.66065-1.6758-0.66064-0.62842-1.8127-0.65259h-2.8682z" />
		</g>
	</g>
	<g id="circle-red">
		<use transform="translate(-44.241 -59.642)" x="264.10983" y="374.6412" width="100%" height="100%" fill="#b55d60" stroke="#b55d60" stroke-width="1.5" xlink:href="#m761dd5ee65" />
		<g id="text3702" fill="#b55d60" aria-label="MOBILE YOLOV2 UP">
			<path id="path5930" d="m226.95 295.03 3.835 9.5713 3.835-9.5713h2.0061v11.73h-1.5469v-4.5681l0.14502-4.9307-3.8511 9.4988h-1.1843l-3.843-9.4746 0.15308 4.9065v4.5681h-1.5469v-11.73z" />
			<path id="path5932" d="m248.38 301.27q0 1.7241-0.58008 3.0132-0.58008 1.281-1.6436 1.9578-1.0635 0.67676-2.4814 0.67676-1.3857 0-2.4573-0.67676-1.0715-0.68481-1.6677-1.9416-0.58814-1.2649-0.60425-2.9246v-0.84595q0-1.6919 0.58813-2.989 0.58814-1.2971 1.6597-1.9819 1.0796-0.69287 2.4653-0.69287 1.4099 0 2.4814 0.68482 1.0796 0.67676 1.6597 1.9739 0.58008 1.2891 0.58008 3.0051zm-1.5388-0.75732q0-2.0867-0.83789-3.1985-0.83789-1.1199-2.3445-1.1199-1.4663 0-2.3122 1.1199-0.83789 1.1118-0.86206 3.0938v0.86206q0 2.0222 0.84595 3.1824 0.854 1.1521 2.3445 1.1521 1.4985 0 2.3203-1.0876 0.82178-1.0957 0.84595-3.134z" />
			<path id="path5934" d="m250.7 306.76v-11.73h3.835q1.9094 0 2.8682 0.78955 0.9668 0.78955 0.9668 2.3364 0 0.82178-0.46728 1.4582-0.46729 0.62842-1.273 0.97486 0.95068 0.26587 1.4985 1.0151 0.55591 0.74121 0.55591 1.7725 0 1.5791-1.0232 2.4814-1.0232 0.90235-2.8923 0.90235zm1.5469-5.4866v4.2217h2.554q1.0796 0 1.7-0.55591 0.62842-0.56396 0.62842-1.5469 0-2.1189-2.3042-2.1189zm0-1.2407h2.3364q1.0151 0 1.6194-0.50757 0.61231-0.50757 0.61231-1.3777 0-0.9668-0.56397-1.4019-0.56396-0.44311-1.7161-0.44311h-2.2881z" />
			<path id="path5936" d="m262.63 306.76h-1.5469v-11.73h1.5469z" />
			<path id="path5938" d="m267.01 305.49h5.5591v1.2649h-7.114v-11.73h1.5549z" />
			<path id="path5940" d="m280.97 301.34h-5.0837v4.1572h5.9055v1.2649h-7.4524v-11.73h7.3718v1.273h-5.825v3.7705h5.0837z" />
			<path id="path5942" d="m291.38 300.92 3.0615-5.8894h1.7564l-4.0444 7.3557v4.3748h-1.5469v-4.3748l-4.0444-7.3557h1.7725z" />
			<path id="path5944" d="m306.5 301.27q0 1.7241-0.58008 3.0132-0.58007 1.281-1.6436 1.9578t-2.4814 0.67676q-1.3857 0-2.4573-0.67676-1.0715-0.68481-1.6677-1.9416-0.58813-1.2649-0.60424-2.9246v-0.84595q0-1.6919 0.58813-2.989t1.6597-1.9819q1.0796-0.69287 2.4653-0.69287 1.4099 0 2.4814 0.68482 1.0796 0.67676 1.6597 1.9739 0.58008 1.2891 0.58008 3.0051zm-1.5388-0.75732q0-2.0867-0.83789-3.1985-0.83789-1.1199-2.3445-1.1199-1.4663 0-2.3123 1.1199-0.83789 1.1118-0.86206 3.0938v0.86206q0 2.0222 0.84595 3.1824 0.854 1.1521 2.3445 1.1521 1.4985 0 2.3203-1.0876 0.82177-1.0957 0.84594-3.134z" />
			<path id="path5946" d="m310.37 305.49h5.5591v1.2649h-7.114v-11.73h1.5549z" />
			<path id="path5948" d="m326.2 301.27q0 1.7241-0.58008 3.0132-0.58008 1.281-1.6436 1.9578-1.0635 0.67676-2.4814 0.67676-1.3857 0-2.4573-0.67676-1.0715-0.68481-1.6677-1.9416-0.58814-1.2649-0.60425-2.9246v-0.84595q0-1.6919 0.58814-2.989 0.58813-1.2971 1.6597-1.9819 1.0796-0.69287 2.4653-0.69287 1.4099 0 2.4814 0.68482 1.0796 0.67676 1.6597 1.9739 0.58008 1.2891 0.58008 3.0051zm-1.5388-0.75732q0-2.0867-0.83789-3.1985-0.83789-1.1199-2.3445-1.1199-1.4663 0-2.3123 1.1199-0.83789 1.1118-0.86206 3.0938v0.86206q0 2.0222 0.84595 3.1824 0.854 1.1521 2.3445 1.1521 1.4985 0 2.3203-1.0876 0.82178-1.0957 0.84595-3.134z" />
			<path id="path5950" d="m332.22 304.7 3.3516-9.676h1.6919l-4.3506 11.73h-1.3696l-4.3425-11.73h1.6838z" />
			<path id="path5952" d="m346.14 306.76h-7.686v-1.0715l4.0606-4.5117q0.90234-1.0232 1.2407-1.6597 0.34643-0.64454 0.34643-1.3294 0-0.91846-0.5559-1.5066-0.55591-0.58814-1.4824-0.58814-1.1118 0-1.7322 0.63648-0.61231 0.62842-0.61231 1.7564h-1.4905q0-1.6194 1.0393-2.6184 1.0474-0.99903 2.7956-0.99903 1.6355 0 2.5862 0.86206 0.95069 0.85401 0.95069 2.28 0 1.7322-2.2075 4.125l-3.1421 3.408h5.8894z" />
			<path id="path5954" d="m360.45 295.03v7.9761q-8e-3 1.6597-1.0474 2.7151-1.0312 1.0554-2.8037 1.1843l-0.41089 0.0161q-1.9255 0-3.0696-1.0393-1.144-1.0393-1.1602-2.8601v-7.9922h1.5308v7.9438q0 1.273 0.70093 1.9819 0.70093 0.70093 1.998 0.70093 1.3132 0 2.0061-0.70093 0.70093-0.70093 0.70093-1.9739v-7.9519z" />
			<path id="path5956" d="m364.43 302.17v4.5923h-1.5469v-11.73h4.3264q1.9255 0 3.0132 0.98291 1.0957 0.98291 1.0957 2.6023 0 1.708-1.0715 2.6345-1.0635 0.91846-3.0535 0.91846zm0-1.2649h2.7796q1.2407 0 1.9014-0.58008 0.66065-0.58814 0.66065-1.6919 0-1.0474-0.66065-1.6758-0.66064-0.62841-1.8127-0.65258h-2.8682z" />
		</g>
	</g>
	<g class="square">
		<use id="use3574" transform="translate(-44.241 -59.642)" x="254.06584" y="312.27121" width="100%" height="100%" fill="#5975a4" stroke="#5975a4" stroke-width="1.5" xlink:href="#ma06b53b74f" />
		<use id="use3598" transform="translate(-44.241 -59.642)" x="182.98523" y="476.92801" width="100%" height="100%" fill="#cc8963" stroke="#cc8963" stroke-width="1.5" xlink:href="#mb19a64e732" />
		<use id="use3622" transform="translate(-44.241 -59.642)" x="278.78955" y="222.4584" width="100%" height="100%" fill="#5f9e6e" stroke="#5f9e6e" stroke-width="1.5" xlink:href="#m4513212936" />
		<use id="use3646" transform="translate(-44.241 -59.642)" x="183.75784" y="419.54761" width="100%" height="100%" fill="#b55d60" stroke="#b55d60" stroke-width="1.5" xlink:href="#m36a0a566af" />
	</g>
	<g class="triangle">
		<use id="use3582" transform="translate(-44.241 -59.642)" x="177.57692" y="312.27121" width="100%" height="100%" fill="#5975a4" stroke="#5975a4" stroke-width="1.5" xlink:href="#mf73a5676b2" />
		<use id="use3606" transform="translate(-44.241 -59.642)" x="169.07816" y="476.92801" width="100%" height="100%" fill="#cc8963" stroke="#cc8963" stroke-width="1.5" xlink:href="#m15bfeed542" />
		<use id="use3630" transform="translate(-44.241 -59.642)" x="182.98523" y="222.4584" width="100%" height="100%" fill="#5f9e6e" stroke="#5f9e6e" stroke-width="1.5" xlink:href="#mc9fe87e902" />
		<use id="use3654" transform="translate(-44.241 -59.642)" x="177.57692" y="419.54761" width="100%" height="100%" fill="#b55d60" stroke="#b55d60" stroke-width="1.5" xlink:href="#m6c80c061d0" />
	</g>
	<path class="line" id="line-blue" pathLength="1" transform="translate(-44.241 -59.642)" d="m419.41 252.4-165.34 59.875h-76.489" clip-path="url(#pa30b3ab5d0)" fill="none" stroke="#5975a4" stroke-linecap="round" stroke-width="1.5" />
	<path class="line" id="line-orange" pathLength="1" transform="translate(-44.241 -59.642)" d="m199.98 437.01-16.998 39.917h-13.907" clip-path="url(#pa30b3ab5d0)" fill="none" stroke="#cc8963" stroke-linecap="round" stroke-width="1.5" />
	<path class="line" id="line-green" pathLength="1" transform="translate(-44.241 -59.642)" d="m483.53 197.51-204.74 24.948h-95.804" clip-path="url(#pa30b3ab5d0)" fill="none" stroke="#5f9e6e" stroke-linecap="round" stroke-width="1.5" />
	<path class="line" id="line-red" pathLength="1" transform="translate(-44.241 -59.642)" d="m264.11 374.64-80.352 44.906h-6.1809" clip-path="url(#pa30b3ab5d0)" fill="none" stroke="#b55d60" stroke-linecap="round" stroke-width="1.5" />
	<use id="use3674" transform="translate(-29.241 -59.642)" x="583.20001" y="576.71997" width="100%" height="100%" fill="#262626" stroke="#262626" xlink:href="#md9ae572146" />
	<use id="use3682" transform="translate(-44.241 -59.642)" x="81" y="77.760002" width="100%" height="100%" fill="#262626" stroke="#262626" xlink:href="#ma1c8768e36" />
	<path id="path3687" d="m36.759 517.08v-498.96" fill="none" stroke="#262626" stroke-linecap="square" stroke-width="1.875" />
	<path id="path3690" d="m36.759 517.08h517.2" fill="none" stroke="#262626" stroke-linecap="square" stroke-width="1.875" />
	<defs id="defs3710">
		<clipPath id="pa30b3ab5d0">
			<rect id="rect3707" x="81" y="77.76" width="502.2" height="498.96" />
		</clipPath>
	</defs>
	<g id="text1674" transform="translate(125.33 -29.586)" fill="#262626" stop-color="#000000" aria-label="PASCAL VOC">
		<path id="path5959" d="m105.33 48.212v5.4272h-1.8281v-13.863h5.113q2.2756 0 3.561 1.1616 1.2949 1.1616 1.2949 3.0754 0 2.0186-1.2664 3.1135-1.2568 1.0854-3.6086 1.0854zm0-1.4949h3.2849q1.4663 0 2.2471-0.68555 0.78076-0.69507 0.78076-1.9995 0-1.2378-0.78076-1.9805-0.78077-0.74268-2.1423-0.77124h-3.3896z" stop-color="#000000" />
		<path id="path5961" d="m122.15 50.021h-5.8081l-1.3044 3.6182h-1.8853l5.294-13.863h1.5996l5.3035 13.863h-1.8757zm-5.2559-1.5044h4.7131l-2.3613-6.4841z" stop-color="#000000" />
		<path id="path5963" d="m131.3 47.46q-2.3518-0.67602-3.4277-1.6567-1.0664-0.99023-1.0664-2.4375 0-1.6377 1.3044-2.7041 1.314-1.0759 3.4087-1.0759 1.4282 0 2.5422 0.55225 1.1235 0.55225 1.7329 1.5234 0.6189 0.97119 0.6189 2.1233h-1.8376q0-1.2568-0.7998-1.9709-0.79981-0.72363-2.2566-0.72363-1.3521 0-2.1138 0.59985-0.7522 0.59033-0.7522 1.6472 0 0.84741 0.71411 1.4377 0.72363 0.58081 2.447 1.0664 1.7329 0.4856 2.7041 1.0759 0.98072 0.58081 1.4473 1.3616 0.47607 0.78076 0.47607 1.8376 0 1.6853-1.314 2.7041-1.314 1.0093-3.5134 1.0093-1.4282 0-2.666-0.54272-1.2378-0.55225-1.9138-1.5044-0.66651-0.95215-0.66651-2.1614h1.8376q0 1.2568 0.92358 1.99 0.93311 0.72363 2.4851 0.72363 1.4473 0 2.2185-0.59033t0.77124-1.6091q0-1.0188-0.71411-1.571-0.71412-0.56177-2.5898-1.1045z" stop-color="#000000" />
		<path id="path5965" d="m148.98 49.241q-0.25708 2.1995-1.6282 3.3992-1.3616 1.1902-3.6277 1.1902-2.4565 0-3.9419-1.7615-1.4758-1.7615-1.4758-4.7131v-1.333q0-1.9329 0.68555-3.3992 0.69507-1.4663 1.9614-2.2471 1.2664-0.79028 2.9326-0.79028 2.209 0 3.542 1.2378 1.333 1.2283 1.552 3.4087h-1.8376q-0.23804-1.6567-1.0378-2.3994-0.79028-0.74268-2.2185-0.74268-1.752 0-2.7517 1.2949-0.99023 1.2949-0.99023 3.6848v1.3425q0 2.2566 0.94263 3.5896 0.94262 1.333 2.6374 1.333 1.5234 0 2.3328-0.68555 0.81885-0.69507 1.0854-2.4089z" stop-color="#000000" />
		<path id="path5967" d="m159.13 50.021h-5.8081l-1.3044 3.6182h-1.8852l5.2939-13.863h1.5996l5.3035 13.863h-1.8757zm-5.2559-1.5044h4.7131l-2.3613-6.4841z" stop-color="#000000" />
		<path id="path5969" d="m166.03 52.145h6.5698v1.4949h-8.4075v-13.863h1.8376z" stop-color="#000000" />
		<path id="path5971" d="m184.11 51.212 3.9609-11.435h1.9995l-5.1416 13.863h-1.6186l-5.1321-13.863h1.99z" stop-color="#000000" />
		<path id="path5973" d="m202.46 47.155q0 2.0376-0.68555 3.561-0.68555 1.5139-1.9424 2.3137-1.2568 0.7998-2.9326 0.7998-1.6377 0-2.904-0.7998-1.2664-0.80933-1.971-2.2947-0.69507-1.4949-0.71411-3.4563v-0.99976q0-1.9995 0.69507-3.5325 0.69506-1.533 1.9614-2.3423 1.2759-0.81885 2.9136-0.81885 1.6663 0 2.9326 0.80933 1.2759 0.7998 1.9614 2.3328 0.68555 1.5234 0.68555 3.5515zm-1.8186-0.89502q0-2.4661-0.99023-3.78-0.99024-1.3235-2.7708-1.3235-1.7329 0-2.7327 1.3235-0.99023 1.314-1.0188 3.6562v1.0188q0 2.3899 0.99976 3.761 1.0093 1.3616 2.7708 1.3616 1.771 0 2.7422-1.2854 0.97119-1.2949 0.99975-3.7039z" stop-color="#000000" />
		<path id="path5975" d="m215.4 49.241q-0.25708 2.1995-1.6282 3.3992-1.3616 1.1902-3.6277 1.1902-2.4565 0-3.9419-1.7615-1.4758-1.7615-1.4758-4.7131v-1.333q0-1.9329 0.68555-3.3992 0.69506-1.4663 1.9614-2.2471 1.2664-0.79028 2.9326-0.79028 2.209 0 3.542 1.2378 1.333 1.2283 1.552 3.4087h-1.8376q-0.23804-1.6567-1.0378-2.3994-0.79028-0.74268-2.2185-0.74268-1.752 0-2.7517 1.2949-0.99023 1.2949-0.99023 3.6848v1.3425q0 2.2566 0.94262 3.5896 0.94263 1.333 2.6374 1.333 1.5234 0 2.3328-0.68555 0.81885-0.69507 1.0854-2.4089z" stop-color="#000000" />
	</g>
	<g id="g5175" transform="translate(-376.32 197.93)">
		<g id="g5135" transform="translate(60.561 214.85)">
			<use id="use3614-6" transform="translate(123.37 -108.62)" x="483.53262" y="197.51041" width="100%" height="100%" fill="#8c8c8c" stroke="#8c8c8c" stroke-linejoin="round" stroke-width="1.5" xlink:href="#ma1b0d5503e" />
			<g id="text1731" transform="translate(-35.593 -73.08)" fill="#262626" stop-color="#000000" aria-label="BASE">
				<path id="path5978" d="m652.08 167.84v-11.73h3.4644q1.8852 0 2.8601 0.7815 0.97486 0.77344 0.97486 2.2881 0 0.9104-0.49951 1.5872-0.49146 0.6687-1.3535 0.95874 1.0232 0.22559 1.6436 1.0071 0.62842 0.7815 0.62842 1.8047 0 1.5549-1.0071 2.4331-0.99902 0.87011-2.7876 0.87011zm0.99097-5.6396v4.8018h2.9729q1.273 0 2.0142-0.64453 0.74927-0.65259 0.74927-1.8047 0-1.0876-0.71705-1.7161-0.70898-0.63648-1.9658-0.63648zm0-0.82983h2.707q1.2407-0.0242 1.9175-0.58008 0.68481-0.56396 0.68481-1.6355 0-1.1279-0.70898-1.6597-0.70093-0.5398-2.127-0.5398h-2.4734z" stop-color="#000000" />
				<path id="path5980" d="m668.52 164.55h-5.3254l-1.2085 3.2871h-1.0393l4.4392-11.73h0.94263l4.4392 11.73h-1.0312zm-5.0193-0.84594h4.7051l-2.3525-6.3889z" stop-color="#000000" />
				<path id="path5982" d="m679.13 164.96q0-0.97486-0.68481-1.5388-0.68482-0.57202-2.5056-1.0796-1.8208-0.51563-2.6587-1.1199-1.1924-0.854-1.1924-2.2397 0-1.3455 1.1038-2.1834 1.1118-0.84595 2.8359-0.84595 1.1682 0 2.0867 0.45117 0.92652 0.45117 1.4341 1.2568 0.50756 0.80566 0.50756 1.7966h-0.99902q0-1.2004-0.82178-1.9255-0.82177-0.73315-2.2075-0.73315-1.3455 0-2.1431 0.60425-0.79761 0.59619-0.79761 1.563 0 0.89429 0.71704 1.4583 0.71704 0.56396 2.2961 0.99902 1.5791 0.427 2.3928 0.89429 0.81372 0.45923 1.2246 1.1038 0.41089 0.64453 0.41089 1.5227 0 1.3857-1.1118 2.2236-1.1038 0.8379-2.9165 0.8379-1.2407 0-2.28-0.44312-1.0312-0.44311-1.571-1.2407-0.53174-0.79761-0.53174-1.8289h0.99097q0 1.2407 0.92651 1.9578t2.4653 0.71704q1.3696 0 2.1995-0.60424 0.82983-0.60425 0.82983-1.6033z" stop-color="#000000" />
				<path id="path5984" d="m688.74 162.22h-5.4866v4.7856h6.3084v0.83789h-7.2993v-11.73h7.259v0.84595h-6.2681v4.4231h5.4866z" stop-color="#000000" />
			</g>
		</g>
		<g id="g5130" transform="translate(127.71 184.27)">
			<use id="use3622-2" transform="translate(328.12 -103.07)" x="278.78955" y="222.4584" width="100%" height="100%" fill="#8c8c8c" stroke="#8c8c8c" stroke-linejoin="round" stroke-width="1.5" xlink:href="#m4513212936" />
			<g id="text1731-5" transform="translate(-35.593 -42.583)" fill="#262626" stop-color="#000000" aria-label="PRUNED">
				<path id="path5987" d="m653.07 163.06v4.7776h-0.99097v-11.73h3.9961q1.8289 0 2.8843 0.93457 1.0635 0.93457 1.0635 2.5701 0 1.6516-1.0232 2.554-1.0151 0.89428-2.9487 0.89428zm0-0.83789h3.0051q1.4421 0 2.1995-0.68481 0.75732-0.68481 0.75732-1.9094 0-1.2166-0.75732-1.9336-0.74927-0.7251-2.135-0.74121h-3.0696z" stop-color="#000000" />
				<path id="path5989" d="m666.62 162.96h-3.408v4.8823h-0.99903v-11.73h3.8108q1.8772 0 2.9326 0.9104t1.0554 2.5459q0 1.1279-0.66064 1.99-0.66065 0.86206-1.7725 1.1924l2.9326 4.9871v0.10473h-1.0554zm-3.408-0.84595h3.0374q1.2488 0 2.0061-0.70898 0.75732-0.70899 0.75732-1.8369 0-1.2407-0.78955-1.9255-0.78955-0.68482-2.2156-0.68482h-2.7956z" stop-color="#000000" />
				<path id="path5991" d="m680.79 156.11v8.0083q-8e-3 1.1843-0.52368 2.0625-0.51563 0.87818-1.4583 1.3535-0.93457 0.46729-2.1511 0.46729-1.853 0-2.9729-1.0071-1.1118-1.0151-1.1521-2.8037v-8.0808h0.98291v7.9358q0 1.4824 0.84595 2.3042 0.84595 0.81372 2.2961 0.81372 1.4502 0 2.2881-0.82177 0.84594-0.82178 0.84594-2.2881v-7.9438z" stop-color="#000000" />
				<path id="path5993" d="m692.29 167.84h-0.99096l-6.7434-10.039v10.039h-0.99902v-11.73h0.99902l6.7515 10.047v-10.047h0.98291z" stop-color="#000000" />
				<path id="path5995" d="m701.75 162.22h-5.4866v4.7856h6.3084v0.83789h-7.2993v-11.73h7.259v0.84595h-6.2681v4.4231h5.4866z" stop-color="#000000" />
				<path id="path5997" d="m704.66 167.84v-11.73h3.279q1.4421 0 2.5862 0.66065 1.144 0.65259 1.7805 1.8772 0.64453 1.2246 0.64453 2.7876v1.0796q0 1.571-0.63647 2.7876-0.63648 1.2166-1.7966 1.8772-1.1521 0.66064-2.6506 0.66064zm0.99096-10.885v10.047h2.2236q1.853 0 2.9729-1.2246 1.1199-1.2327 1.1199-3.3274v-1.0312q0-2.0222-1.1038-3.2388t-2.9084-1.2246z" stop-color="#000000" />
			</g>
		</g>
		<g id="g5125" transform="translate(218.24 147.08)">
			<use id="use3630-8" transform="translate(423.92 -65.79)" x="182.98523" y="222.4584" width="100%" height="100%" fill="#8c8c8c" stroke="#8c8c8c" stroke-linejoin="round" stroke-width="1.5" xlink:href="#mc9fe87e902" />
			<g id="text1731-5-2" transform="translate(-35.085 -6.2483)" fill="#262626" stop-color="#000000" aria-label="QUANTISED">
				<path id="path6000" d="m660.71 162.61q0 1.6758-0.59619 2.9246-0.58814 1.2407-1.6838 1.8772l2.135 1.8611-0.68481 0.61231-2.3928-2.0706q-0.66064 0.18531-1.3455 0.18531-1.3374 0-2.3848-0.66065-1.0393-0.66064-1.6113-1.8691-0.57202-1.2166-0.58008-2.8037v-1.3132q0-1.6033 0.56397-2.8359 0.57202-1.2407 1.6113-1.9014 1.0393-0.6687 2.3848-0.6687 1.3696 0 2.4089 0.66065 1.0393 0.66064 1.6033 1.8933 0.57202 1.2327 0.57202 2.844zm-0.99097-1.273q0-2.1189-0.95874-3.3193t-2.6345-1.2004q-1.6274 0-2.6023 1.2085-0.9668 1.2004-0.9668 3.3596v1.2246q0 2.0867 0.95874 3.3113 0.9668 1.2166 2.6265 1.2166 1.6758 0 2.6265-1.2004 0.95068-1.2004 0.95068-3.3516z" stop-color="#000000" />
				<path id="path6002" d="m671.33 156.11v8.0083q-8e-3 1.1843-0.52369 2.0625-0.51562 0.87818-1.4582 1.3535-0.93457 0.46729-2.1511 0.46729-1.853 0-2.9729-1.0071-1.1118-1.0151-1.1521-2.8037v-8.0808h0.98291v7.9358q0 1.4824 0.84595 2.3042 0.84594 0.81372 2.2961 0.81372 1.4502 0 2.2881-0.82177 0.84595-0.82178 0.84595-2.2881v-7.9438z" stop-color="#000000" />
				<path id="path6004" d="m680.24 164.55h-5.3254l-1.2085 3.2871h-1.0393l4.4392-11.73h0.94263l4.4392 11.73h-1.0312zm-5.0193-0.84594h4.7051l-2.3525-6.3889z" stop-color="#000000" />
				<path id="path6006" d="m692.95 167.84h-0.99097l-6.7434-10.039v10.039h-0.99902v-11.73h0.99902l6.7515 10.047v-10.047h0.98291z" stop-color="#000000" />
				<path id="path6008" d="m703.89 156.96h-4.0203v10.885h-0.99096v-10.885h-4.0122v-0.84595h9.0234z" stop-color="#000000" />
				<path id="path6010" d="m706.99 167.84h-0.99096v-11.73h0.99096z" stop-color="#000000" />
				<path id="path6012" d="m716.81 164.96q0-0.97486-0.68482-1.5388-0.68481-0.57202-2.5056-1.0796-1.8208-0.51563-2.6587-1.1199-1.1924-0.854-1.1924-2.2397 0-1.3455 1.1038-2.1834 1.1118-0.84595 2.8359-0.84595 1.1682 0 2.0867 0.45117 0.92652 0.45117 1.4341 1.2568 0.50757 0.80566 0.50757 1.7966h-0.99902q0-1.2004-0.82178-1.9255-0.82178-0.73315-2.2075-0.73315-1.3455 0-2.1431 0.60425-0.79761 0.59619-0.79761 1.563 0 0.89429 0.71704 1.4583 0.71704 0.56396 2.2961 0.99902 1.5791 0.427 2.3928 0.89429 0.81372 0.45923 1.2246 1.1038t0.41089 1.5227q0 1.3857-1.1118 2.2236-1.1038 0.8379-2.9165 0.8379-1.2407 0-2.28-0.44312-1.0312-0.44311-1.571-1.2407-0.53174-0.79761-0.53174-1.8289h0.99097q0 1.2407 0.92651 1.9578t2.4653 0.71704q1.3696 0 2.1995-0.60424 0.82984-0.60425 0.82984-1.6033z" stop-color="#000000" />
				<path id="path6014" d="m726.42 162.22h-5.4866v4.7856h6.3084v0.83789h-7.2993v-11.73h7.259v0.84595h-6.2681v4.4231h5.4866z" stop-color="#000000" />
				<path id="path6016" d="m729.33 167.84v-11.73h3.279q1.4421 0 2.5862 0.66065 1.144 0.65259 1.7805 1.8772 0.64453 1.2246 0.64453 2.7876v1.0796q0 1.571-0.63647 2.7876-0.63648 1.2166-1.7966 1.8772-1.1521 0.66064-2.6506 0.66064zm0.99096-10.885v10.047h2.2236q1.853 0 2.9729-1.2246 1.1199-1.2327 1.1199-3.3274v-1.0312q0-2.0222-1.1038-3.2388t-2.9084-1.2246z" stop-color="#000000" />
			</g>
		</g>
	</g>
</svg>
