<?xml version="1.0" encoding="UTF-8" standalone="no"?>
<svg
   width="500pt"
   height="500pt"
   viewBox="0 0 500 500"
   version="1.1"
   inkscape:version="1.2.2 (1:1.2.2+202305151914+b0a8486541)"
   xmlns:inkscape="http://www.inkscape.org/namespaces/inkscape"
   xmlns:sodipodi="http://sodipodi.sourceforge.net/DTD/sodipodi-0.dtd"
   xmlns="http://www.w3.org/2000/svg"
   xmlns:svg="http://www.w3.org/2000/svg"
   xmlns:rdf="http://www.w3.org/1999/02/22-rdf-syntax-ns#"
   xmlns:cc="http://creativecommons.org/ns#"
   xmlns:dc="http://purl.org/dc/elements/1.1/">
  <path
     id="path1684"
     d="m 249.99902,98.478516 c -2.28579,0 -4.57076,0.418984 -6.73828,1.255371 L 12.080566,188.96924 C 4.3473486,191.90248 0,199.35082 0,206.47266 c 0,7.12183 4.3473486,14.56872 12.080566,17.50195 l 92.954594,35.79492 v 74.11524 c -0.0355,5.24994 2.14024,10.28163 5.98974,13.85156 l 0.0249,0.0234 0.022,0.022 c 78.69626,71.65319 199.15823,71.65319 277.85449,0 l 0.0234,-0.022 0.0249,-0.0234 c 3.84953,-3.56991 6.02527,-8.60162 5.98975,-13.85156 V 259.77686 L 429.7877,246.4147 v 32.88134 c -21.85845,8.40696 -25.01785,43.63503 -7.71386,59.47559 l -11.32178,19.54101 c -5.2395,8.17229 -2.02574,20.54524 6.92432,25.64795 l 0.009,0.004 0.007,0.003 c 2.85265,1.61686 6.08282,2.4549 9.36182,2.4331 6.63375,-0.0411 12.74824,-3.8848 16.09277,-9.35742 l 5.3584,-9.05859 5.36279,9.05859 c 3.29155,5.48452 9.46376,9.35742 16.1001,9.35742 h 0.007 0.007 c 14.09555,0 22.7352,-16.95225 16.28759,-28.07812 l -0.0278,-0.0469 -11.70556,-19.57031 c 17.4957,-14.58696 13.54106,-48.75249 -7.53956,-59.25 V 232.1354 l 20.92275,-8.04214 0.006,-0.004 c 7.72851,-2.9346 12.07324,-10.3818 12.07324,-17.50196 0,-5.52445 -2.6759,-11.17853 -7.45898,-14.83593 v -0.99756 L 487.9585,188.98389 256.73877,99.733887 c -2.16752,-0.836388 -4.45247,-1.255371 -6.73828,-1.255371 z m 0,38.844724 179.19434,69.09815 L 249.99902,275.62061 70.806152,206.42139 Z M 142.4751,274.2041 l 100.91015,39.05567 0.13184,0.0454 c 4.20133,1.44044 8.76402,1.44044 12.96533,0 l 0.13184,-0.0454 100.91015,-39.05567 v 51.16406 c -62.44765,51.61781 -152.60165,51.61781 -215.04931,0 z"
  />
</svg>
