<?xml version="1.0" encoding="UTF-8" standalone="no"?>
<svg
   version="1.1"
   viewBox="0 0 500 500"
   width="500pt"
   height="500pt"
   inkscape:version="1.2.2 (1:1.2.2+202305151914+b0a8486541)"
   xmlns:inkscape="http://www.inkscape.org/namespaces/inkscape"
   xmlns:sodipodi="http://sodipodi.sourceforge.net/DTD/sodipodi-0.dtd"
   xmlns="http://www.w3.org/2000/svg"
   xmlns:svg="http://www.w3.org/2000/svg">
  <path d="M 250.03587,8.9068767e-5 C 210.1329,8.9068767e-5 170.1711,14.437342 138.74633,43.217567 77.153275,99.62918 67.834699,193.39003 116.34247,260.75081 l 0.0195,0.0273 c 0.005,0.007 0.009,0.0147 0.0137,0.0215 l 0.0858,0.11894 0.12487,0.16196 c 19.94761,25.68133 30.7219,57.08934 30.7219,89.40275 0,10.79908 4.29841,21.16227 11.93362,28.79409 7.63541,7.6321 18.00312,11.92583 28.80385,11.92583 h 123.98222 c 10.80072,0 21.17006,-4.29341 28.80581,-11.92583 7.63492,-7.6315 11.93558,-17.99438 11.93558,-28.79409 0,-32.33746 10.66862,-63.82246 30.60091,-89.48275 l 0.0391,-0.0508 0.12095,-0.16585 0.0469,-0.0684 C 432.11776,193.36107 422.9388,99.6442 361.32932,43.217567 329.90536,14.437064 289.93882,8.9068767e-5 250.03587,8.9068767e-5 Z m 0,40.060410931233 c 30.16946,0 60.28351,10.885639 84.16571,32.758962 h 9.7e-4 l 0.0274,0.02536 c 47.74334,43.751898 54.15391,116.253558 14.72773,167.609448 l -0.0995,0.1288 -0.0293,0.041 c -23.39716,31.88421 -36.21066,70.2932 -36.21066,109.8593 0,0.18954 -0.0293,0.26544 -0.17171,0.4078 h -0.004 c -0.13931,0.13927 -0.22173,0.17366 -0.4156,0.17366 H 188.04574 c -0.1939,0 -0.27606,-0.0322 -0.41756,-0.17366 -0.14039,-0.14033 -0.1678,-0.21409 -0.1678,-0.4078 0,-39.55186 -12.72567,-78.0226 -36.13456,-109.91979 l 0.0761,0.10537 -0.13268,-0.19318 -0.0683,-0.0801 -0.006,-0.008 C 111.76106,189.01531 118.10663,116.56612 165.87213,72.819462 189.75434,50.946133 219.86641,40.0605 250.03587,40.0605 Z m -61.84964,365.40211 c -11.11859,-0.15765 -20.36289,8.95135 -20.36289,20.07214 0,11.12083 9.24584,20.22387 20.36289,20.06632 h 123.70319 c 11.11715,0.15762 20.36289,-8.94477 20.36289,-20.06632 0,-11.12152 -9.2443,-20.22969 -20.36289,-20.07214 z m 30.92483,54.39586 0.0702,9.7e-4 c -11.11827,-0.15712 -20.3629,8.95136 -20.3629,20.07216 0,11.12072 9.24593,20.2236 20.3629,20.0663 h 61.715 c 11.11677,0.15709 20.36093,-8.94629 20.36093,-20.0663 0,-11.12002 -9.24252,-20.22949 -20.36093,-20.07216 l 0.0702,-9.7e-4 z" />
</svg>
