<?xml version="1.0" encoding="UTF-8"?>
<svg id="svg1617" width="978.1pt" height="30pt" version="1.1" viewBox="0 0 978.1 30" xmlns="http://www.w3.org/2000/svg">
 <defs id="defs1335">
  <style id="style1333" type="text/css">*{stroke-linejoin: round; stroke-linecap: butt}</style>
  <clipPath id="p81e9caa6e8-9">
   <rect id="rect1612-0" x="144" y="69.12" width="892.8" height="443.52"/>
  </clipPath>
  <clipPath id="p81e9caa6e8-1">
   <rect id="rect1612-04" x="144" y="69.12" width="892.8" height="443.52"/>
  </clipPath>
  <clipPath id="p81e9caa6e8-7">
   <rect id="rect1612-08" x="144" y="69.12" width="892.8" height="443.52"/>
  </clipPath>
  <clipPath id="p81e9caa6e8-4">
   <rect id="rect1612-7" x="144" y="69.12" width="892.8" height="443.52"/>
  </clipPath>
 </defs>
 <defs id="defs1615">
  <clipPath id="p81e9caa6e8">
   <rect id="rect1612" x="144" y="69.12" width="892.8" height="443.52"/>
  </clipPath>
 </defs>
 <g id="g10322" transform="translate(-31.715 55.749)">
  <g id="g8033" transform="translate(89.564)">
   <rect id="rect3789" x="149.62" y="-49.624" width="17.75" height="17.75" color="#000000" fill="#5875a4" stop-color="#000000" stroke="#fff" stroke-width="1.5" style="-inkscape-stroke:none;font-variation-settings:normal;paint-order:fill markers stroke"/>
   <g id="text4732" fill="#262626" stop-color="#000000" aria-label="Yolt">
    <path id="path10404" d="m178.31-40.435 3.6182-6.9602h2.0757l-4.7798 8.6931v5.1702h-1.8281v-5.1702l-4.7798-8.6931h2.0947z" stop-color="#000000"/>
    <path id="path10406" d="m184.43-38.778q0-1.5139 0.59033-2.7231 0.59985-1.2092 1.6567-1.8662 1.0664-0.65698 2.428-0.65698 2.1042 0 3.3992 1.4568 1.3044 1.4568 1.3044 3.8752v0.12378q0 1.5044-0.58081 2.7041-0.57129 1.1902-1.6472 1.8567-1.0664 0.6665-2.4565 0.6665-2.0947 0-3.3992-1.4568-1.2949-1.4568-1.2949-3.8562zm1.771 0.20947q0 1.7139 0.79029 2.7517 0.7998 1.0378 2.1328 1.0378 1.3425 0 2.1328-1.0474 0.79029-1.0569 0.79029-2.9517 0-1.6948-0.80933-2.7422-0.7998-1.0569-2.1328-1.0569-1.3044 0-2.1042 1.0378-0.79981 1.0378-0.79981 2.9707z" stop-color="#000000"/>
    <path id="path10408" d="m197.93-33.532h-1.7615v-14.625h1.7615z" stop-color="#000000"/>
    <path id="path10410" d="m203.14-46.329v2.4946h1.9233v1.3616h-1.9233v6.3889q0 0.6189 0.25708 0.93311 0.25708 0.30469 0.87597 0.30469 0.30469 0 0.83789-0.11426v1.4282q-0.69507 0.19043-1.352 0.19043-1.1807 0-1.7805-0.71411-0.59985-0.71411-0.59985-2.0281v-6.3889h-1.8757v-1.3616h1.8757v-2.4946z" stop-color="#000000"/>
   </g>
  </g>
  <g id="g8041" transform="translate(570.48)">
   <rect id="rect8035" x="149.62" y="-49.624" width="17.75" height="17.75" color="#000000" fill="#b55d60" stop-color="#000000" stroke="#fff" stroke-width="1.5" style="-inkscape-stroke:none;font-variation-settings:normal;paint-order:fill markers stroke"/>
   <g id="text8039" fill="#262626" stop-color="#000000" aria-label="YoloV3">
    <path id="path10413" d="m178.31-40.435 3.6182-6.9602h2.0757l-4.7798 8.6931v5.1702h-1.8281v-5.1702l-4.7798-8.6931h2.0947z" stop-color="#000000"/>
    <path id="path10415" d="m184.43-38.778q0-1.5139 0.59033-2.7231 0.59985-1.2092 1.6567-1.8662 1.0664-0.65698 2.428-0.65698 2.1042 0 3.3992 1.4568 1.3044 1.4568 1.3044 3.8752v0.12378q0 1.5044-0.58081 2.7041-0.57129 1.1902-1.6472 1.8567-1.0664 0.6665-2.4565 0.6665-2.0947 0-3.3992-1.4568-1.2949-1.4568-1.2949-3.8562zm1.771 0.20947q0 1.7139 0.79029 2.7517 0.7998 1.0378 2.1328 1.0378 1.3425 0 2.1328-1.0474 0.79029-1.0569 0.79029-2.9517 0-1.6948-0.80933-2.7422-0.7998-1.0569-2.1328-1.0569-1.3044 0-2.1042 1.0378-0.79981 1.0378-0.79981 2.9707z" stop-color="#000000"/>
    <path id="path10417" d="m197.93-33.532h-1.7615v-14.625h1.7615z" stop-color="#000000"/>
    <path id="path10419" d="m200.28-38.778q0-1.5139 0.59033-2.7231 0.59986-1.2092 1.6567-1.8662 1.0664-0.65698 2.428-0.65698 2.1042 0 3.3992 1.4568 1.3044 1.4568 1.3044 3.8752v0.12378q0 1.5044-0.58081 2.7041-0.57129 1.1902-1.6472 1.8567-1.0664 0.6665-2.4565 0.6665-2.0947 0-3.3992-1.4568-1.2949-1.4568-1.2949-3.8562zm1.771 0.20947q0 1.7139 0.79028 2.7517 0.7998 1.0378 2.1328 1.0378 1.3425 0 2.1328-1.0474 0.79029-1.0569 0.79029-2.9517 0-1.6948-0.80933-2.7422-0.7998-1.0569-2.1328-1.0569-1.3044 0-2.1042 1.0378-0.7998 1.0378-0.7998 2.9707z" stop-color="#000000"/>
    <path id="path10421" d="m216.74-35.96 3.9609-11.435h1.9995l-5.1416 13.863h-1.6186l-5.1321-13.863h1.99z" stop-color="#000000"/>
    <path id="path10423" d="m226.66-41.32h1.3235q1.2473-0.01904 1.9614-0.65698 0.71412-0.63794 0.71412-1.7234 0-2.4375-2.428-2.4375-1.1426 0-1.8281 0.65698-0.67602 0.64746-0.67602 1.7234h-1.7615q0-1.6472 1.1997-2.7327 1.2092-1.095 3.0659-1.095 1.9614 0 3.0754 1.0378 1.114 1.0378 1.114 2.885 0 0.90454-0.59033 1.752-0.58081 0.84741-1.5901 1.2664 1.1426 0.36182 1.7615 1.1997 0.62842 0.83789 0.62842 2.0471 0 1.8662-1.2188 2.9612t-3.1706 1.095q-1.9519 0-3.1802-1.0569-1.2188-1.0569-1.2188-2.7898h1.771q0 1.095 0.71411 1.752 0.71411 0.65698 1.9138 0.65698 1.2759 0 1.9519-0.6665 0.67603-0.6665 0.67603-1.9138 0-1.2092-0.74268-1.8567-0.74267-0.64746-2.1423-0.6665h-1.3235z" stop-color="#000000"/>
   </g>
  </g>
  <g id="g8634" transform="translate(235.22)">
   <rect id="rect8628" x="149.62" y="-49.624" width="17.75" height="17.75" color="#000000" fill="#cc8963" stop-color="#000000" stroke="#fff" stroke-width="1.5" style="-inkscape-stroke:none;font-variation-settings:normal;paint-order:fill markers stroke"/>
   <g id="text8632" fill="#262626" stop-color="#000000" aria-label="DYolo">
    <path id="path10426" d="m172.62-33.532v-13.863h3.9133q1.8091 0 3.1992 0.7998 1.3901 0.7998 2.1423 2.2756 0.76172 1.4758 0.77124 3.3896v0.8855q0 1.9614-0.76172 3.4373-0.7522 1.4758-2.1614 2.2661-1.3996 0.79028-3.2659 0.80933zm1.8281-12.359v10.864h1.9233q2.1138 0 3.2849-1.314 1.1807-1.314 1.1807-3.7419v-0.80933q0-2.3613-1.114-3.6658-1.1045-1.314-3.1421-1.333z" stop-color="#000000"/>
    <path id="path10428" d="m189.63-40.435 3.6182-6.9602h2.0757l-4.7798 8.6931v5.1702h-1.8281v-5.1702l-4.7798-8.6931h2.0947z" stop-color="#000000"/>
    <path id="path10430" d="m195.75-38.778q0-1.5139 0.59034-2.7231 0.59985-1.2092 1.6567-1.8662 1.0664-0.65698 2.428-0.65698 2.1042 0 3.3992 1.4568 1.3044 1.4568 1.3044 3.8752v0.12378q0 1.5044-0.58081 2.7041-0.57129 1.1902-1.6472 1.8567-1.0664 0.6665-2.4565 0.6665-2.0947 0-3.3992-1.4568-1.2949-1.4568-1.2949-3.8562zm1.771 0.20947q0 1.7139 0.79028 2.7517 0.79981 1.0378 2.1328 1.0378 1.3425 0 2.1328-1.0474 0.79028-1.0569 0.79028-2.9517 0-1.6948-0.80933-2.7422-0.7998-1.0569-2.1328-1.0569-1.3044 0-2.1042 1.0378-0.7998 1.0378-0.7998 2.9707z" stop-color="#000000"/>
    <path id="path10432" d="m209.25-33.532h-1.7615v-14.625h1.7615z" stop-color="#000000"/>
    <path id="path10434" d="m211.61-38.778q0-1.5139 0.59033-2.7231 0.59985-1.2092 1.6567-1.8662 1.0664-0.65698 2.428-0.65698 2.1042 0 3.3992 1.4568 1.3044 1.4568 1.3044 3.8752v0.12378q0 1.5044-0.58081 2.7041-0.57129 1.1902-1.6472 1.8567-1.0664 0.6665-2.4565 0.6665-2.0947 0-3.3992-1.4568-1.2949-1.4568-1.2949-3.8562zm1.771 0.20947q0 1.7139 0.79028 2.7517 0.79981 1.0378 2.1328 1.0378 1.3425 0 2.1328-1.0474 0.79028-1.0569 0.79028-2.9517 0-1.6948-0.80932-2.7422-0.79981-1.0569-2.1328-1.0569-1.3044 0-2.1042 1.0378-0.79981 1.0378-0.79981 2.9707z" stop-color="#000000"/>
   </g>
  </g>
  <g id="g9389" transform="translate(396.75)">
   <rect id="rect9383" x="149.62" y="-49.624" width="17.75" height="17.75" color="#000000" fill="#5f9e6e" stop-color="#000000" stroke="#fff" stroke-width="1.5" style="-inkscape-stroke:none;font-variation-settings:normal;paint-order:fill markers stroke"/>
   <g id="text9387" fill="#262626" stop-color="#000000" aria-label="YoloV2">
    <path id="path10437" d="m178.31-40.435 3.6182-6.9602h2.0757l-4.7798 8.6931v5.1702h-1.8281v-5.1702l-4.7798-8.6931h2.0947z" stop-color="#000000"/>
    <path id="path10439" d="m184.43-38.778q0-1.5139 0.59033-2.7231 0.59985-1.2092 1.6567-1.8662 1.0664-0.65698 2.428-0.65698 2.1042 0 3.3992 1.4568 1.3044 1.4568 1.3044 3.8752v0.12378q0 1.5044-0.58081 2.7041-0.57129 1.1902-1.6472 1.8567-1.0664 0.6665-2.4565 0.6665-2.0947 0-3.3992-1.4568-1.2949-1.4568-1.2949-3.8562zm1.771 0.20947q0 1.7139 0.79029 2.7517 0.7998 1.0378 2.1328 1.0378 1.3425 0 2.1328-1.0474 0.79029-1.0569 0.79029-2.9517 0-1.6948-0.80933-2.7422-0.7998-1.0569-2.1328-1.0569-1.3044 0-2.1042 1.0378-0.79981 1.0378-0.79981 2.9707z" stop-color="#000000"/>
    <path id="path10441" d="m197.93-33.532h-1.7615v-14.625h1.7615z" stop-color="#000000"/>
    <path id="path10443" d="m200.28-38.778q0-1.5139 0.59033-2.7231 0.59986-1.2092 1.6567-1.8662 1.0664-0.65698 2.428-0.65698 2.1042 0 3.3992 1.4568 1.3044 1.4568 1.3044 3.8752v0.12378q0 1.5044-0.58081 2.7041-0.57129 1.1902-1.6472 1.8567-1.0664 0.6665-2.4565 0.6665-2.0947 0-3.3992-1.4568-1.2949-1.4568-1.2949-3.8562zm1.771 0.20947q0 1.7139 0.79028 2.7517 0.7998 1.0378 2.1328 1.0378 1.3425 0 2.1328-1.0474 0.79029-1.0569 0.79029-2.9517 0-1.6948-0.80933-2.7422-0.7998-1.0569-2.1328-1.0569-1.3044 0-2.1042 1.0378-0.7998 1.0378-0.7998 2.9707z" stop-color="#000000"/>
    <path id="path10445" d="m216.74-35.96 3.9609-11.435h1.9995l-5.1416 13.863h-1.6186l-5.1321-13.863h1.99z" stop-color="#000000"/>
    <path id="path10447" d="m233.18-33.532h-9.0835v-1.2664l4.7988-5.332q1.0664-1.2092 1.4663-1.9614 0.40942-0.76172 0.40942-1.571 0-1.0854-0.65698-1.7805-0.65698-0.69507-1.752-0.69507-1.314 0-2.0471 0.7522-0.72363 0.74268-0.72363 2.0757h-1.7615q0-1.9138 1.2283-3.0945 1.2378-1.1807 3.304-1.1807 1.9329 0 3.0564 1.0188 1.1235 1.0093 1.1235 2.6946 0 2.0471-2.6089 4.875l-3.7134 4.0276h6.9602z" stop-color="#000000"/>
   </g>
  </g>
 </g>
</svg>
