<?xml version="1.0" encoding="UTF-8" standalone="no"?>
<svg
	viewBox="0 0 750.00003 370" version="1.1" xmlns="http://www.w3.org/2000/svg" xmlns:svg="http://www.w3.org/2000/svg"
	data-length="1" data-smil="['&gt;fuse_move_fw']"
>
	<rect stroke-width="3" stroke="#7f7f7f" fill="#ffffff" ry="0.49041599" rx="0.60409498" y="39.76738" x="7.4188499" height="96.59726" width="96.59726" id="rect2" style="stroke:#8c8c8c" />
	<g aria-label="RGB" id="text6" style="font-size:40px;line-height:125%;letter-spacing:0;word-spacing:0;fill:#8c8c8c">
		<path d="M 30.541698,90.780861 H 23.862011 V 102.28477 H 20.09248 V 73.847267 h 9.414062 q 4.804688,0 7.382813,2.1875 2.597656,2.1875 2.597656,6.367188 0,2.65625 -1.445313,4.628906 -1.425781,1.972656 -3.984375,2.949219 l 6.679688,12.07031 v 0.23438 h -4.023438 z m -6.679687,-3.066406 h 5.761719 q 2.792968,0 4.433593,-1.445313 1.660157,-1.445312 1.660157,-3.867187 0,-2.636719 -1.582032,-4.042969 -1.5625,-1.40625 -4.53125,-1.425781 h -5.742187 z" style="font-family:Roboto;-inkscape-font-specification:Roboto" id="path310" />
		<path d="m 65.737011,98.554298 q -1.445313,2.070312 -4.042969,3.105472 -2.578125,1.01562 -6.015625,1.01562 -3.476562,0 -6.171875,-1.62109 -2.695312,-1.640627 -4.179687,-4.648439 -1.464844,-3.007813 -1.503907,-6.972656 v -2.480469 q 0,-6.425781 2.988282,-9.960938 3.007812,-3.535156 8.4375,-3.535156 4.453125,0 7.167968,2.285156 2.714844,2.265625 3.320313,6.445313 h -3.75 q -1.054688,-5.644531 -6.71875,-5.644531 -3.769531,0 -5.722656,2.65625 -1.933594,2.636718 -1.953125,7.65625 v 2.324218 q 0,4.785157 2.1875,7.617188 2.1875,2.8125 5.917968,2.8125 2.109375,0 3.691407,-0.46875 1.582031,-0.46875 2.617187,-1.582031 v -6.386719 h -6.582031 v -3.046875 h 10.3125 z" style="font-family:Roboto;-inkscape-font-specification:Roboto" id="path312" />
		<path d="M 71.987011,102.28477 V 73.847267 h 9.296875 q 4.628906,0 6.953125,1.914063 2.34375,1.914062 2.34375,5.664062 0,1.992188 -1.132813,3.535156 -1.132812,1.523438 -3.085937,2.363282 2.304687,0.644531 3.632812,2.460937 1.347657,1.796875 1.347657,4.296875 0,3.828125 -2.480469,6.015628 -2.480469,2.1875 -7.011719,2.1875 z m 3.75,-13.300784 v 10.234375 h 6.191406 q 2.617188,0 4.121094,-1.347656 1.523437,-1.367188 1.523437,-3.75 0,-5.136719 -5.585937,-5.136719 z m 0,-3.007813 h 5.664062 q 2.460938,0 3.925782,-1.230468 1.484375,-1.230469 1.484375,-3.339844 0,-2.34375 -1.367188,-3.398438 -1.367187,-1.074218 -4.160156,-1.074218 h -5.546875 z" style="font-family:Roboto;-inkscape-font-specification:Roboto" id="path314" />
	</g>
	<rect stroke-width="3" stroke="#7f7f7f" fill="#ffffff" ry="0.49041599" rx="0.60409498" y="233.63539" x="7.4188499" height="96.59726" width="96.59726" id="rect10" style="stroke:#8c8c8c" />
	<g aria-label="D" id="text14" style="font-size:40px;line-height:125%;letter-spacing:0;word-spacing:0;fill:#8c8c8c">
		<path d="m 45.434284,296.15277 v -28.4375 h 8.027344 q 3.710937,0 6.5625,1.64063 2.851562,1.64062 4.394531,4.66796 1.5625,3.02735 1.582031,6.95313 v 1.81641 q 0,4.02343 -1.5625,7.05078 -1.542968,3.02734 -4.433593,4.64843 -2.871094,1.6211 -6.699219,1.66016 z m 3.75,-25.35156 v 22.28515 h 3.945313 q 4.335937,0 6.738281,-2.69531 2.421875,-2.69531 2.421875,-7.67578 v -1.66016 q 0,-4.84375 -2.285156,-7.51953 -2.265625,-2.69531 -6.445313,-2.73437 z" style="font-family:Roboto;-inkscape-font-specification:Roboto" id="path317" />
	</g>
	<g id="network" clip-path="url(#clip-right)">
		<path fill="#2ca02c" d="m 132.33787,103.28438 550.14844,43.33381 c 0.87905,0.0889 1.59484,0.63251 1.59484,1.41821 v 73.92721 c 0,0.78568 -0.71579,1.32934 -1.59484,1.4182 l -550.14844,43.33381 c -0.87905,0.0889 -1.59482,-0.63252 -1.59482,-1.4182 V 104.70259 c 0,-0.7857 0.71577,-1.50707 1.59482,-1.41821 z" id="path38" style="fill:#5f9e6e" />
		<g aria-label="NETWORK" id="text42" style="font-size:58.6676px;line-height:125%;font-family:Roboto;-inkscape-font-specification:Roboto;letter-spacing:0;word-spacing:0;stroke-width:1.46669" transform="translate(-41.336077)">
			<path d="m 538.76763,199.21854 h -3.76954 l -14.3164,-21.91407 v 21.91407 h -3.76953 v -28.4375 h 3.76953 l 14.35547,22.01172 v -22.01172 h 3.73047 z" style="font-size:40px;fill:#ffffff;stroke-width:2.15118" id="path320" />
			<path d="m 558.2859,186.07401 h -12.32422 v 10.07812 h 14.31641 v 3.06641 h -18.06641 v -28.4375 h 17.8711 v 3.08593 h -14.1211 v 9.14063 h 12.32422 z" style="font-size:40px;fill:#ffffff;stroke-width:2.15118" id="path322" />
			<path d="m 584.98512,173.86697 h -9.14063 v 25.35157 h -3.73046 v -25.35157 h -9.1211 v -3.08593 h 21.99219 z" style="font-size:40px;fill:#ffffff;stroke-width:2.15118" id="path324" />
			<path d="m 595.62965,190.25369 0.54688,3.75 0.80078,-3.3789 5.625,-19.84375 h 3.16406 l 5.48828,19.84375 0.78125,3.4375 0.60547,-3.82813 4.41406,-19.45312 h 3.76953 l -6.89453,28.4375 h -3.41797 l -5.85937,-20.72266 -0.44922,-2.16797 -0.44922,2.16797 -6.07422,20.72266 h -3.41797 l -6.875,-28.4375 h 3.75 z" style="font-size:40px;fill:#ffffff;stroke-width:2.15118" id="path326" />
			<path d="m 645.96872,185.91776 q 0,4.17968 -1.40625,7.30468 -1.40625,3.10547 -3.98438,4.7461 -2.57812,1.64062 -6.01562,1.64062 -3.35938,0 -5.95703,-1.64062 -2.59766,-1.66016 -4.04297,-4.70703 -1.42578,-3.06641 -1.46484,-7.08985 v -2.05078 q 0,-4.10156 1.42578,-7.24609 1.42578,-3.14453 4.02343,-4.80469 2.61719,-1.67969 5.97657,-1.67969 3.41797,0 6.01562,1.66016 2.61719,1.64062 4.02344,4.78515 1.40625,3.125 1.40625,7.28516 z m -3.73047,-1.83594 q 0,-5.0586 -2.03125,-7.75391 -2.03125,-2.71484 -5.68359,-2.71484 -3.55469,0 -5.60547,2.71484 -2.03125,2.69531 -2.08985,7.5 v 2.08985 q 0,4.90234 2.05079,7.71484 2.07031,2.79297 5.68359,2.79297 3.63281,0 5.625,-2.63672 1.99219,-2.65625 2.05078,-7.59766 z" style="font-size:40px;fill:#ffffff;stroke-width:2.15118" id="path328" />
			<path d="m 660.02341,187.71463 h -6.67969 v 11.50391 h -3.76953 v -28.4375 h 9.41406 q 4.80469,0 7.38281,2.1875 2.59766,2.1875 2.59766,6.36718 0,2.65625 -1.44531,4.62891 -1.42578,1.97266 -3.98438,2.94922 l 6.67969,12.07031 v 0.23438 h -4.02344 z m -6.67969,-3.06641 h 5.76172 q 2.79297,0 4.43359,-1.44531 1.66016,-1.44531 1.66016,-3.86719 0,-2.63671 -1.58203,-4.04296 -1.5625,-1.40625 -4.53125,-1.42579 h -5.74219 z" style="font-size:40px;fill:#ffffff;stroke-width:2.15118" id="path330" />
			<path d="m 681.44919,185.99588 -3.47656,3.61328 v 9.60938 h -3.75 v -28.4375 h 3.75 v 14.0625 l 12.63671,-14.0625 h 4.53125 l -11.1914,12.55859 12.07031,15.87891 h -4.49219 z" style="font-size:40px;fill:#ffffff;stroke-width:2.15118" id="path332" />
		</g>
	</g>
	<g id="subnets" clip-path="url(#clip-left)">
		<g id="subnet1">
			<path fill="#1f77b4" d="M 131.20283,32.351702 683.0281,82.351708 c 0.59934,0.0606 1.08737,0.43125 1.08737,0.96694 v 9.4947 c 0,0.53568 -0.48803,0.90635 -1.08737,0.96694 L 131.20283,143.78029 c -0.59934,0.0606 -1.08736,-0.43126 -1.08736,-0.96694 V 33.318642 c 0,-0.53569 0.48802,-1.02753 1.08736,-0.96694 z" id="path18" style="fill:#5875a4" />
			<g aria-label="SUBNET 1" id="text22" style="font-size:40px;line-height:125%;font-family:Roboto;-inkscape-font-specification:Roboto;letter-spacing:0;word-spacing:0" transform="translate(-58.280474,-48.173022)">
				<path d="m 223.32748,137.782 q -4.82421,-1.38672 -7.03125,-3.39844 -2.1875,-2.03125 -2.1875,-5 0,-3.35937 2.67579,-5.54687 2.69531,-2.20704 6.99218,-2.20704 2.92969,0 5.21485,1.13282 2.30468,1.13281 3.55468,3.125 1.26954,1.99218 1.26954,4.35547 h -3.76954 q 0,-2.57813 -1.64062,-4.04297 -1.64063,-1.48438 -4.62891,-1.48438 -2.77343,0 -4.33593,1.23047 -1.54297,1.21094 -1.54297,3.37891 0,1.73828 1.46484,2.94922 1.48438,1.1914 5.01953,2.1875 3.55469,0.99609 5.54688,2.20703 2.01172,1.1914 2.96875,2.79297 0.97656,1.60156 0.97656,3.76953 0,3.45703 -2.69531,5.54687 -2.69532,2.07031 -7.20703,2.07031 -2.92969,0 -5.46875,-1.11328 -2.53907,-1.13281 -3.92579,-3.08593 -1.36718,-1.95313 -1.36718,-4.4336 h 3.76953 q 0,2.57813 1.89453,4.08203 1.91406,1.48438 5.09766,1.48438 2.96875,0 4.55078,-1.21094 1.58203,-1.21094 1.58203,-3.30078 0,-2.08984 -1.46485,-3.22266 -1.46484,-1.15234 -5.3125,-2.26562 z" style="fill:#ffffff" id="path335" />
				<path d="m 257.25288,122.02028 v 19.33594 q -0.0195,4.02343 -2.53906,6.58203 -2.5,2.55859 -6.79688,2.87109 l -0.99609,0.0391 q -4.66797,0 -7.44141,-2.51953 -2.77344,-2.51953 -2.8125,-6.93359 v -19.375 h 3.71094 v 19.25781 q 0,3.08594 1.69922,4.80469 1.69922,1.69922 4.84375,1.69922 3.18359,0 4.86328,-1.69922 1.69922,-1.69922 1.69922,-4.78516 v -19.27734 z" style="fill:#ffffff" id="path337" />
				<path d="m 260.1171,150.45778 v -28.4375 h 9.29687 q 4.62891,0 6.95313,1.91406 2.34375,1.91406 2.34375,5.66406 0,1.99219 -1.13282,3.53516 -1.13281,1.52344 -3.08593,2.36328 2.30468,0.64453 3.63281,2.46094 1.34766,1.79687 1.34766,4.29687 0,3.82813 -2.48047,6.01563 -2.48047,2.1875 -7.01172,2.1875 z m 3.75,-13.30078 v 10.23437 h 6.1914 q 2.61719,0 4.1211,-1.34765 1.52343,-1.36719 1.52343,-3.75 0,-5.13672 -5.58593,-5.13672 z m 0,-3.00781 h 5.66406 q 2.46094,0 3.92578,-1.23047 1.48438,-1.23047 1.48438,-3.33985 0,-2.34375 -1.36719,-3.39843 -1.36719,-1.07422 -4.16016,-1.07422 h -5.54687 z" style="fill:#ffffff" id="path339" />
				<path d="m 303.82116,150.45778 h -3.76953 l -14.31641,-21.91406 v 21.91406 h -3.76953 v -28.4375 h 3.76953 l 14.35547,22.01172 v -22.01172 h 3.73047 z" style="fill:#ffffff" id="path341" />
				<path d="m 322.71788,137.31325 h -12.32421 v 10.07812 h 14.3164 v 3.06641 h -18.0664 v -28.4375 h 17.87109 v 3.08594 h -14.12109 v 9.14062 h 12.32421 z" style="fill:#ffffff" id="path343" />
				<path d="m 348.79555,125.10622 h -9.14062 v 25.35156 h -3.73047 v -25.35156 h -9.12109 v -3.08594 h 21.99218 z" style="fill:#ffffff" id="path345" />
				<path d="m 368.1815,150.45778 h -3.63282 v -24.08203 l -7.28515,2.67578 v -3.28125 l 10.35156,-3.88672 h 0.56641 z" style="fill:#ffffff" id="path347" />
			</g>
		</g>
		<g id="subnet2">
			<path fill="#1f77b4" d="m 131.20283,226.21972 551.82527,50 c 0.59934,0.0606 1.08737,0.43125 1.08737,0.96694 v 9.4947 c 0,0.53568 -0.48803,0.90635 -1.08737,0.96694 l -551.82527,50 c -0.59934,0.0606 -1.08736,-0.43126 -1.08736,-0.96694 v -109.4947 c 0,-0.53569 0.48802,-1.02753 1.08736,-0.96694 z" id="path24" style="fill:#5875a4" />
			<g aria-label="SUBNET 2" id="text28" style="font-size:40px;line-height:125%;font-family:Roboto;-inkscape-font-specification:Roboto;letter-spacing:0;word-spacing:0" transform="translate(-58.280474,-48.173022)">
				<path d="m 219.94858,331.65002 q -4.82422,-1.38671 -7.03125,-3.39843 -2.1875,-2.03125 -2.1875,-5 0,-3.35938 2.67578,-5.54688 2.69531,-2.20703 6.99219,-2.20703 2.92968,0 5.21484,1.13281 2.30469,1.13282 3.55469,3.125 1.26953,1.99219 1.26953,4.35547 h -3.76953 q 0,-2.57812 -1.64063,-4.04297 -1.64062,-1.48437 -4.6289,-1.48437 -2.77344,0 -4.33594,1.23047 -1.54297,1.21093 -1.54297,3.3789 0,1.73828 1.46484,2.94922 1.48438,1.19141 5.01954,2.1875 3.55468,0.9961 5.54687,2.20703 2.01172,1.19141 2.96875,2.79297 0.97656,1.60156 0.97656,3.76953 0,3.45703 -2.69531,5.54688 -2.69531,2.07031 -7.20703,2.07031 -2.92969,0 -5.46875,-1.11328 -2.53906,-1.13281 -3.92578,-3.08594 -1.36719,-1.95312 -1.36719,-4.43359 h 3.76953 q 0,2.57812 1.89453,4.08203 1.91407,1.48437 5.09766,1.48437 2.96875,0 4.55078,-1.21093 1.58203,-1.21094 1.58203,-3.30078 0,-2.08985 -1.46484,-3.22266 -1.46485,-1.15234 -5.3125,-2.26563 z" style="fill:#ffffff" id="path350" />
				<path d="m 253.87397,315.88831 v 19.33593 q -0.0195,4.02344 -2.53906,6.58203 -2.5,2.5586 -6.79688,2.8711 l -0.99609,0.0391 q -4.66797,0 -7.44141,-2.51953 -2.77343,-2.51953 -2.8125,-6.93359 v -19.375 h 3.71094 v 19.25781 q 0,3.08594 1.69922,4.80469 1.69922,1.69921 4.84375,1.69921 3.18359,0 4.86328,-1.69921 1.69922,-1.69922 1.69922,-4.78516 v -19.27734 z" style="fill:#ffffff" id="path352" />
				<path d="m 256.73819,344.32581 v -28.4375 h 9.29688 q 4.6289,0 6.95312,1.91406 2.34375,1.91406 2.34375,5.66406 0,1.99219 -1.13281,3.53516 -1.13281,1.52343 -3.08594,2.36328 2.30469,0.64453 3.63281,2.46094 1.34766,1.79687 1.34766,4.29687 0,3.82813 -2.48047,6.01563 -2.48047,2.1875 -7.01172,2.1875 z m 3.75,-13.30079 v 10.23438 h 6.19141 q 2.61718,0 4.12109,-1.34766 1.52344,-1.36718 1.52344,-3.75 0,-5.13672 -5.58594,-5.13672 z m 0,-3.00781 h 5.66406 q 2.46094,0 3.92578,-1.23047 1.48438,-1.23047 1.48438,-3.33984 0,-2.34375 -1.36719,-3.39844 -1.36719,-1.07422 -4.16015,-1.07422 h -5.54688 z" style="fill:#ffffff" id="path354" />
				<path d="m 300.44225,344.32581 h -3.76953 l -14.3164,-21.91407 v 21.91407 h -3.76954 v -28.4375 h 3.76954 l 14.35546,22.01171 v -22.01171 h 3.73047 z" style="fill:#ffffff" id="path356" />
				<path d="m 319.33898,331.18127 h -12.32422 v 10.07813 h 14.31641 v 3.06641 h -18.06641 v -28.4375 h 17.87109 v 3.08593 h -14.12109 v 9.14063 h 12.32422 z" style="fill:#ffffff" id="path358" />
				<path d="m 345.41665,318.97424 h -9.14063 v 25.35157 h -3.73047 v -25.35157 h -9.12109 v -3.08593 h 21.99219 z" style="fill:#ffffff" id="path360" />
				<path d="m 371.5604,344.32581 h -18.63281 v -2.59766 l 9.84375,-10.9375 q 2.1875,-2.48047 3.00781,-4.02344 0.83985,-1.5625 0.83985,-3.22265 0,-2.22657 -1.34766,-3.65235 -1.34766,-1.42578 -3.59375,-1.42578 -2.69531,0 -4.19922,1.54297 -1.48437,1.52344 -1.48437,4.25781 h -3.61328 q 0,-3.92578 2.51953,-6.34765 2.53906,-2.42188 6.77734,-2.42188 3.96484,0 6.26953,2.08984 2.30469,2.07032 2.30469,5.52735 0,4.19922 -5.35156,10 l -7.61719,8.26172 h 14.27734 z" style="fill:#ffffff" id="path362" />
			</g>
		</g>
	</g>
	<g id="fusion">
		<animateMotion id="fuse_move_fw" begin="click" dur="1s" path="m0,0 h220" calcMode="spline" keyTimes="0;1" keySplines="0.25 0.1 0.25 1.0" fill="freeze" />
		<animateMotion id="fuse_move_bw" begin="fuse_move_fw.end+100ms" dur="1s" path="m220,0 h-410" calcMode="spline" keyTimes="0;1" keySplines="0.25 0.1 0.25 1.0" fill="freeze" />
		<animateMotion begin="fuse_move_bw.end+100ms" dur="0.5s" path="m-190,0 h190" calcMode="spline" keyTimes="0;1" keySplines="0 0 .58 1" fill="freeze" />
		<g id="fuse_layer" transform="rotate(90,172.57803,-178.13222)">
			<rect fill="#d62728" ry="0.96694201" rx="1.0873671" y="-431.69775" x="377.53723" height="71.428581" width="316.34604" id="rect30" style="fill:#b55d60;stroke:none;stroke-width:40;stroke-dasharray:none;stroke-opacity:1;paint-order:stroke fill markers" />
			<g aria-label="Fuse layer" id="text34" style="font-size:40px;line-height:125%;letter-spacing:0;word-spacing:0;fill:#ffffff">
				<path d="m 463.05402,-397.80963 h -11.9336 v 12.55859 h -3.75 v -28.4375 h 17.61719 v 3.08594 h -13.86719 v 9.72656 h 11.9336 z" style="font-family:Roboto;-inkscape-font-specification:Roboto" id="path365" />
				<path d="m 481.53058,-387.34088 q -2.10938,2.48047 -6.19141,2.48047 -3.3789,0 -5.15625,-1.95313 -1.75781,-1.97265 -1.77734,-5.82031 v -13.75 h 3.61328 v 13.65234 q 0,4.80469 3.90625,4.80469 4.14062,0 5.50781,-3.08594 v -15.37109 h 3.61328 v 21.13281 h -3.4375 z" style="font-family:Roboto;-inkscape-font-specification:Roboto" id="path367" />
				<path d="m 502.83917,-390.85651 q 0,-1.46484 -1.11328,-2.26562 -1.09375,-0.82031 -3.84766,-1.40625 -2.73437,-0.58594 -4.35546,-1.40625 -1.60157,-0.82031 -2.38282,-1.95313 -0.76172,-1.13281 -0.76172,-2.69531 0,-2.59766 2.1875,-4.39453 2.20704,-1.79688 5.625,-1.79688 3.59375,0 5.82032,1.85547 2.24609,1.85547 2.24609,4.7461 h -3.63281 q 0,-1.48438 -1.26953,-2.5586 -1.25,-1.07422 -3.16407,-1.07422 -1.97265,0 -3.08593,0.85938 -1.11328,0.85937 -1.11328,2.24609 0,1.3086 1.03515,1.97266 1.03516,0.66406 3.73047,1.26953 2.71484,0.60547 4.39453,1.44531 1.67969,0.83985 2.48047,2.03125 0.82031,1.17188 0.82031,2.8711 0,2.83203 -2.26562,4.55078 -2.26563,1.69922 -5.87891,1.69922 -2.53906,0 -4.49219,-0.89844 -1.95312,-0.89844 -3.0664,-2.5 -1.09375,-1.62109 -1.09375,-3.49609 h 3.61328 q 0.0977,1.8164 1.44531,2.89062 1.36719,1.05469 3.59375,1.05469 2.05078,0 3.28125,-0.82031 1.25,-0.83985 1.25,-2.22657 z" style="font-family:Roboto;-inkscape-font-specification:Roboto" id="path369" />
				<path d="m 519.92902,-384.86041 q -4.29688,0 -6.99219,-2.8125 -2.69531,-2.83203 -2.69531,-7.5586 v -0.66406 q 0,-3.14453 1.1914,-5.60547 1.21094,-2.48047 3.35938,-3.86719 2.16797,-1.40625 4.6875,-1.40625 4.12109,0 6.40625,2.71485 2.28515,2.71484 2.28515,7.77344 v 1.5039 h -14.3164 q 0.0781,3.125 1.8164,5.0586 1.75782,1.91406 4.45313,1.91406 1.91406,0 3.24219,-0.78125 1.32812,-0.78125 2.32421,-2.07031 l 2.20704,1.71875 q -2.65625,4.08203 -7.96875,4.08203 z m -0.44922,-18.94532 q -2.1875,0 -3.67188,1.60157 -1.48437,1.58203 -1.83594,4.45312 h 10.58594 v -0.27344 q -0.15625,-2.7539 -1.48437,-4.25781 -1.32813,-1.52344 -3.59375,-1.52344 z" style="font-family:Roboto;-inkscape-font-specification:Roboto" id="path371" />
				<path d="m 546.17902,-385.25104 h -3.61329 v -30 h 3.61329 z" style="font-family:Roboto;-inkscape-font-specification:Roboto" id="path373" />
				<path d="m 565.00714,-385.25104 q -0.3125,-0.625 -0.50781,-2.22656 -2.51953,2.61719 -6.01563,2.61719 -3.125,0 -5.13672,-1.75782 -1.99218,-1.77734 -1.99218,-4.49218 0,-3.30078 2.5,-5.11719 2.51953,-1.83594 7.07031,-1.83594 h 3.51562 v -1.66015 q 0,-1.89454 -1.13281,-3.00782 -1.13281,-1.13281 -3.33984,-1.13281 -1.9336,0 -3.24219,0.97656 -1.30859,0.97657 -1.30859,2.36328 h -3.63282 q 0,-1.58203 1.11329,-3.04687 1.13281,-1.48438 3.04687,-2.34375 1.93359,-0.85938 4.23828,-0.85938 3.65235,0 5.72266,1.83594 2.07031,1.81641 2.14844,5.01953 v 9.72657 q 0,2.91015 0.74218,4.6289 v 0.3125 z m -5.99609,-2.7539 q 1.69922,0 3.22265,-0.87891 1.52344,-0.87891 2.20703,-2.28516 v -4.33593 h -2.83203 q -6.64062,0 -6.64062,3.88671 0,1.69922 1.13281,2.65625 1.13281,0.95704 2.91016,0.95704 z" style="font-family:Roboto;-inkscape-font-specification:Roboto" id="path375" />
				<path d="m 580.33917,-390.54401 4.92188,-15.83984 h 3.86718 l -8.49609,24.39453 q -1.97266,5.27344 -6.26953,5.27344 l -0.68359,-0.0586 -1.34766,-0.2539 v -2.92969 l 0.97656,0.0781 q 1.83594,0 2.85156,-0.74219 1.03516,-0.74219 1.69922,-2.71485 l 0.80078,-2.14843 -7.53906,-20.89844 h 3.94531 z" style="font-family:Roboto;-inkscape-font-specification:Roboto" id="path377" />
				<path d="m 600.86652,-384.86041 q -4.29688,0 -6.99219,-2.8125 -2.69531,-2.83203 -2.69531,-7.5586 v -0.66406 q 0,-3.14453 1.1914,-5.60547 1.21094,-2.48047 3.35938,-3.86719 2.16797,-1.40625 4.6875,-1.40625 4.12109,0 6.40625,2.71485 2.28515,2.71484 2.28515,7.77344 v 1.5039 h -14.3164 q 0.0781,3.125 1.8164,5.0586 1.75782,1.91406 4.45313,1.91406 1.91406,0 3.24219,-0.78125 1.32812,-0.78125 2.32421,-2.07031 l 2.20704,1.71875 q -2.65625,4.08203 -7.96875,4.08203 z m -0.44922,-18.94532 q -2.1875,0 -3.67188,1.60157 -1.48437,1.58203 -1.83594,4.45312 h 10.58594 v -0.27344 q -0.15625,-2.7539 -1.48437,-4.25781 -1.32813,-1.52344 -3.59375,-1.52344 z" style="font-family:Roboto;-inkscape-font-specification:Roboto" id="path379" />
				<path d="m 623.50323,-403.14166 q -0.82031,-0.13672 -1.77734,-0.13672 -3.55469,0 -4.82422,3.02734 v 15 h -3.61328 v -21.13281 h 3.51563 l 0.0586,2.44141 q 1.77734,-2.83204 5.03906,-2.83204 1.05469,0 1.60156,0.27344 z" style="font-family:Roboto;-inkscape-font-specification:Roboto" id="path381" />
			</g>
		</g>
		<clipPath id="clip-left">
			<animateMotion id="clipl_move_fw" begin="fuse_move_fw.begin" dur="1s" path="m0,0 h220" calcMode="spline" keyTimes="0;1" keySplines="0.25 0.1 0.25 1.0" fill="freeze" />
			<animateMotion id="clipl_move_bw" begin="clipl_move_fw.end+100ms" dur="1s" path="m220,0 h-410" calcMode="spline" keyTimes="0;1" keySplines="0.25 0.1 0.25 1.0" fill="freeze" />
			<animateMotion begin="clipl_move_bw.end+100ms" dur="0.5s" path="m-190,0 h190" calcMode="spline" keyTimes="0;1" keySplines="0 0 .58 1" fill="freeze" />
			<rect width="454.60001" height="310.82599" x="-334.71542" y="26.826981" transform="scale(-1,1)" />
		</clipPath>
		<clipPath id="clip-right"> 
			<animateMotion id="clipr_move_fw" begin="fuse_move_fw.begin" dur="1s" path="m0,0 h220" calcMode="spline" keyTimes="0;1" keySplines="0.25 0.1 0.25 1.0" fill="freeze" />
			<animateMotion id="clipr_move_bw" begin="clipr_move_fw.end+100ms" dur="1s" path="m220,0 h-410" calcMode="spline" keyTimes="0;1" keySplines="0.25 0.1 0.25 1.0" fill="freeze" />
			<animateMotion begin="clipr_move_bw.end+100ms" dur="0.5s" path="m-190,0 h190" calcMode="spline" keyTimes="0;1" keySplines="0 0 .58 1" fill="freeze" />
			<rect width="437.97145" height="310.82599" x="-884.11548" y="26.826981" transform="scale(-1,1)" />
		</clipPath>
	</g>
</svg>
