<?xml version="1.0" encoding="UTF-8"?>
<svg id="svg15133" width="606.3pt" height="488.98pt" version="1.1" viewBox="0 0 606.3 488.98" xmlns="http://www.w3.org/2000/svg" xmlns:xlink="http://www.w3.org/1999/xlink">
	<defs id="defs15056">
		<path id="m4bae54e5d7" d="m4.5 0-9-4.5v9z" stroke="#262626" />
		<clipPath id="clip-m4bae54e5d7">
			<rect x="43.068" y="0" width="800" height="600" transform="scale(0.75)" />
		</clipPath>
	</defs>
	<g id="g16425" transform="translate(-57.318 -62.2)" fill="#262626">
		<g id="text14727" aria-label="80">
			<path id="path4425" d="m88.868 528.28q0 0.91041-0.53174 1.6355-0.53174 0.71704-1.4019 1.0554 1.0151 0.34644 1.6274 1.1199 0.6123 0.77343 0.6123 1.7886 0 1.5066-1.0232 2.3928-1.0232 0.87818-2.707 0.87818-1.7 0-2.7231-0.87818-1.0151-0.87817-1.0151-2.3928 0-0.99902 0.58814-1.7805 0.58814-0.78149 1.6113-1.1279-0.87012-0.33838-1.3857-1.0554-0.51562-0.72509-0.51562-1.6355 0-1.4582 0.93457-2.3203 0.94263-0.86206 2.4895-0.86206t2.4895 0.87012q0.95068 0.87012 0.95068 2.3122zm-0.66064 5.6074q0-1.0957-0.78149-1.7966-0.78149-0.70899-1.998-0.70899-1.2166 0-1.99 0.69287-0.77344 0.69287-0.77344 1.8128 0 1.1199 0.74927 1.7886 0.74927 0.66065 2.0303 0.66065 1.2488 0 2.0061-0.66065 0.75732-0.66064 0.75732-1.7886zm-0.30615-5.6155q0-1.0071-0.70093-1.6758-0.69287-0.67676-1.7725-0.67676-1.0957 0-1.7805 0.65259-0.67676 0.64453-0.67676 1.7 0 1.0312 0.67676 1.6597 0.68481 0.62841 1.7886 0.62841 1.0876 0 1.7725-0.62841 0.69287-0.63648 0.69287-1.6597z" />
			<path id="path4427" d="m98.173 532.1q0 2.4814-0.9104 3.7705-0.9104 1.281-2.6829 1.281-1.7402 0-2.6667-1.2568-0.92651-1.2649-0.95068-3.6738v-2.1028q0-2.4734 0.91846-3.7463t2.6829-1.273q1.7402 0 2.6587 1.2327 0.91846 1.2246 0.95068 3.6174zm-0.9668-2.1028q0-2.0142-0.66064-3.0454-0.65259-1.0312-1.9819-1.0312-1.3052 0-1.9658 1.0071-0.66064 1.0071-0.67676 2.9729v2.3042q0 2.0061 0.67676 3.0696 0.68481 1.0635 1.9819 1.0635 1.2891 0 1.9497-1.0393 0.6687-1.0393 0.67676-3.0454z" />
		</g>
		<g id="text14731" aria-label="85">
			<path id="path4430" d="m228.31 528.28q0 0.91041-0.53174 1.6355-0.53174 0.71704-1.4019 1.0554 1.0151 0.34644 1.6274 1.1199 0.61231 0.77343 0.61231 1.7886 0 1.5066-1.0232 2.3928-1.0232 0.87818-2.707 0.87818-1.7 0-2.7231-0.87818-1.0151-0.87817-1.0151-2.3928 0-0.99902 0.58814-1.7805 0.58813-0.78149 1.6113-1.1279-0.87012-0.33838-1.3858-1.0554-0.51562-0.72509-0.51562-1.6355 0-1.4582 0.93457-2.3203 0.94263-0.86206 2.4895-0.86206 1.5469 0 2.4895 0.87012 0.95069 0.87012 0.95069 2.3122zm-0.66065 5.6074q0-1.0957-0.78149-1.7966-0.7815-0.70899-1.998-0.70899t-1.99 0.69287-0.77344 1.8128q0 1.1199 0.74927 1.7886 0.74927 0.66065 2.0303 0.66065 1.2488 0 2.0061-0.66065 0.75732-0.66064 0.75732-1.7886zm-0.30615-5.6155q0-1.0071-0.70093-1.6758-0.69287-0.67676-1.7725-0.67676-1.0957 0-1.7805 0.65259-0.67675 0.64453-0.67675 1.7 0 1.0312 0.67675 1.6597 0.68482 0.62841 1.7886 0.62841 1.0876 0 1.7725-0.62841 0.69287-0.63648 0.69287-1.6597z" />
			<path id="path4432" d="m231.19 530.98 0.57203-5.7202h5.8652v0.89429h-5.0354l-0.41089 3.9639q0.94263-0.64453 2.2075-0.64453 1.5872 0 2.5298 1.0312 0.94262 1.0312 0.94262 2.7473 0 1.853-0.91845 2.8762-0.91846 1.0232-2.5862 1.0232-1.5308 0-2.4814-0.85401-0.95068-0.854-1.0876-2.3928h0.92652q0.13696 1.2004 0.81372 1.8208 0.67675 0.61231 1.8288 0.61231 1.2568 0 1.8933-0.79761 0.64454-0.79761 0.64454-2.272 0-1.2891-0.71704-2.1028-0.71705-0.81372-1.9578-0.81372-0.68481 0-1.1924 0.17725-0.50757 0.16919-1.0715 0.6687z" />
		</g>
		<g id="text14735" aria-label="90">
			<path id="path4435" d="m367 531.56q-0.51562 0.75732-1.281 1.1763-0.76538 0.41089-1.6597 0.41089-0.99902 0-1.7644-0.51563-0.76538-0.51562-1.1843-1.426-0.41895-0.91041-0.41895-1.99 0-1.1602 0.44312-2.1108 0.45117-0.95069 1.2488-1.4744 0.80566-0.53174 1.853-0.53174 1.7644 0 2.7473 1.2407 0.98291 1.2327 0.98291 3.5046v0.87012q0 3.1743-1.3535 4.7695-1.3535 1.5952-4.133 1.5952h-0.17725l8e-3 -0.83789h0.33838q2.1028-0.0322 3.1985-1.1924 1.0957-1.1602 1.1521-3.4885zm-2.8198 0.75732q0.9668 0 1.7322-0.57202 0.77343-0.58008 1.0957-1.4985v-0.55591q0-1.7886-0.74927-2.7715-0.74121-0.99096-2.0061-0.99096-1.144 0-1.8772 0.92651-0.73315 0.91846-0.73315 2.3203 0 1.3455 0.70092 2.2478 0.70899 0.89429 1.8369 0.89429z" />
			<path id="path4437" d="m377.2 532.1q0 2.4814-0.9104 3.7705-0.9104 1.281-2.6829 1.281-1.7402 0-2.6668-1.2568-0.92651-1.2649-0.95068-3.6738v-2.1028q0-2.4734 0.91845-3.7463 0.91846-1.273 2.6829-1.273 1.7402 0 2.6587 1.2327 0.91845 1.2246 0.95068 3.6174zm-0.9668-2.1028q0-2.0142-0.66064-3.0454-0.65259-1.0312-1.9819-1.0312-1.3052 0-1.9658 1.0071-0.66064 1.0071-0.67675 2.9729v2.3042q0 2.0061 0.67675 3.0696 0.68482 1.0635 1.9819 1.0635 1.2891 0 1.9497-1.0393 0.6687-1.0393 0.67675-3.0454z" />
		</g>
		<g id="text14739" aria-label="95">
			<path id="path4440" d="m506.44 531.56q-0.51563 0.75732-1.281 1.1763-0.76538 0.41089-1.6597 0.41089-0.99902 0-1.7644-0.51563-0.76538-0.51562-1.1843-1.426-0.41894-0.91041-0.41894-1.99 0-1.1602 0.44311-2.1108 0.45118-0.95069 1.2488-1.4744 0.80567-0.53174 1.853-0.53174 1.7644 0 2.7473 1.2407 0.98291 1.2327 0.98291 3.5046v0.87012q0 3.1743-1.3535 4.7695-1.3535 1.5952-4.1331 1.5952h-0.17724l8e-3 -0.83789h0.33838q2.1028-0.0322 3.1985-1.1924 1.0957-1.1602 1.1521-3.4885zm-2.8198 0.75732q0.9668 0 1.7322-0.57202 0.77344-0.58008 1.0957-1.4985v-0.55591q0-1.7886-0.74926-2.7715-0.74121-0.99096-2.0061-0.99096-1.144 0-1.8772 0.92651-0.73316 0.91846-0.73316 2.3203 0 1.3455 0.70093 2.2478 0.70898 0.89429 1.8369 0.89429z" />
			<path id="path4442" d="m510.22 530.98 0.57202-5.7202h5.8652v0.89429h-5.0354l-0.41089 3.9639q0.94263-0.64453 2.2075-0.64453 1.5872 0 2.5298 1.0312 0.94263 1.0312 0.94263 2.7473 0 1.853-0.91846 2.8762-0.91845 1.0232-2.5862 1.0232-1.5308 0-2.4814-0.85401-0.95069-0.854-1.0876-2.3928h0.92651q0.13697 1.2004 0.81373 1.8208 0.67675 0.61231 1.8288 0.61231 1.2568 0 1.8933-0.79761 0.64453-0.79761 0.64453-2.272 0-1.2891-0.71704-2.1028t-1.9578-0.81372q-0.68481 0-1.1924 0.17725-0.50757 0.16919-1.0715 0.6687z" />
		</g>
	</g>
	<g id="text14763" transform="rotate(-90)" fill="#262626" aria-label="PCB SCREWS">
		<path id="path4445" d="m-125.51 18.626v5.4272h-1.8281v-13.863h5.113q2.2756 0 3.561 1.1616 1.2949 1.1616 1.2949 3.0754 0 2.0186-1.2664 3.1135-1.2568 1.0854-3.6086 1.0854zm0-1.4949h3.2849q1.4663 0 2.2471-0.68555 0.78076-0.69507 0.78076-1.9995 0-1.2378-0.78076-1.9805-0.78077-0.74268-2.1423-0.77124h-3.3896z" />
		<path id="path4447" d="m-104.84 19.655q-0.25708 2.1995-1.6282 3.3992-1.3616 1.1902-3.6277 1.1902-2.4566 0-3.9419-1.7615-1.4758-1.7615-1.4758-4.7131v-1.333q0-1.9329 0.68555-3.3992 0.69507-1.4663 1.9614-2.2471 1.2664-0.79028 2.9326-0.79028 2.209 0 3.542 1.2378 1.333 1.2283 1.552 3.4087h-1.8376q-0.23804-1.6567-1.0378-2.3994-0.79029-0.74268-2.2185-0.74268-1.752 0-2.7517 1.2949-0.99023 1.2949-0.99023 3.6848v1.3425q0 2.2566 0.94263 3.5896 0.94262 1.333 2.6374 1.333 1.5234 0 2.3328-0.68555 0.81885-0.69507 1.0854-2.4089z" />
		<path id="path4449" d="m-102.34 24.054v-13.863h4.5322q2.2566 0 3.3896 0.9331 1.1426 0.93311 1.1426 2.7612 0 0.97119-0.55225 1.7234-0.55225 0.74268-1.5044 1.1521 1.1235 0.31421 1.771 1.1997 0.65698 0.87598 0.65698 2.0947 0 1.8662-1.2092 2.9326-1.2092 1.0664-3.4182 1.0664zm1.8281-6.4841v4.9893h3.0183q1.2759 0 2.009-0.65698 0.74268-0.6665 0.74268-1.8281 0-2.5042-2.7231-2.5042zm0-1.4663h2.7612q1.1997 0 1.9138-0.59985 0.72363-0.59985 0.72363-1.6282 0-1.1426-0.6665-1.6567-0.6665-0.52368-2.0281-0.52368h-2.7041z" />
		<path id="path4451" d="m-81.292 17.874q-2.3518-0.67603-3.4277-1.6567-1.0664-0.99023-1.0664-2.4375 0-1.6377 1.3044-2.7041 1.314-1.0759 3.4087-1.0759 1.4282 0 2.5422 0.55225 1.1235 0.55225 1.7329 1.5234 0.6189 0.97119 0.6189 2.1233h-1.8376q0-1.2568-0.7998-1.9709-0.7998-0.72363-2.2566-0.72363-1.3521 0-2.1138 0.59985-0.7522 0.59033-0.7522 1.6472 0 0.84741 0.71411 1.4377 0.72363 0.58081 2.447 1.0664 1.7329 0.4856 2.7041 1.0759 0.98071 0.58081 1.4473 1.3616 0.47607 0.78076 0.47607 1.8376 0 1.6853-1.314 2.7041-1.314 1.0093-3.5134 1.0093-1.4282 0-2.666-0.54272-1.2378-0.55225-1.9138-1.5044-0.6665-0.95215-0.6665-2.1614h1.8376q0 1.2568 0.92358 1.99 0.93311 0.72363 2.4851 0.72363 1.4473 0 2.2185-0.59033 0.77124-0.59033 0.77124-1.6091t-0.71411-1.571q-0.71411-0.56177-2.5898-1.1045z" />
		<path id="path4453" d="m-63.611 19.655q-0.25708 2.1995-1.6282 3.3992-1.3616 1.1902-3.6277 1.1902-2.4565 0-3.9419-1.7615-1.4758-1.7615-1.4758-4.7131v-1.333q0-1.9329 0.68555-3.3992 0.69507-1.4663 1.9614-2.2471 1.2664-0.79028 2.9326-0.79028 2.209 0 3.542 1.2378 1.333 1.2283 1.552 3.4087h-1.8376q-0.23804-1.6567-1.0378-2.3994-0.79028-0.74268-2.2185-0.74268-1.752 0-2.7517 1.2949-0.99023 1.2949-0.99023 3.6848v1.3425q0 2.2566 0.94263 3.5896t2.6375 1.333q1.5234 0 2.3328-0.68555 0.81885-0.69507 1.0854-2.4089z" />
		<path id="path4455" d="m-56.032 18.446h-3.2563v5.6082h-1.8376v-13.863h4.5894q2.3423 0 3.5991 1.0664 1.2664 1.0664 1.2664 3.104 0 1.2949-0.70459 2.2566-0.69507 0.96167-1.9424 1.4377l3.2563 5.8843v0.11426h-1.9614zm-3.2563-1.4949h2.8088q1.3616 0 2.1614-0.70459 0.80933-0.70459 0.80933-1.8853 0-1.2854-0.77124-1.9709-0.76172-0.68555-2.209-0.69507h-2.7993z" />
		<path id="path4457" d="m-41.274 17.646h-6.0081v4.9131h6.9792v1.4949h-8.8074v-13.863h8.7122v1.5044h-6.884v4.4561h6.0081z" />
		<path id="path4459" d="m-35.037 19.683 0.2666 1.8281 0.39038-1.6472 2.7422-9.6738h1.5425l2.6755 9.6738 0.38086 1.6758 0.29517-1.8662 2.1519-9.4834h1.8376l-3.3611 13.863h-1.6663l-2.8564-10.102-0.219-1.0569-0.21899 1.0569-2.9612 10.102h-1.6663l-3.3516-13.863h1.8281z" />
		<path id="path4461" d="m-16.642 17.874q-2.3518-0.67603-3.4277-1.6567-1.0664-0.99023-1.0664-2.4375 0-1.6377 1.3044-2.7041 1.314-1.0759 3.4087-1.0759 1.4282 0 2.5422 0.55225 1.1235 0.55225 1.7329 1.5234 0.6189 0.97119 0.6189 2.1233h-1.8376q0-1.2568-0.7998-1.9709-0.7998-0.72363-2.2566-0.72363-1.3521 0-2.1138 0.59985-0.7522 0.59033-0.7522 1.6472 0 0.84741 0.71411 1.4377 0.72363 0.58081 2.447 1.0664 1.7329 0.4856 2.7041 1.0759 0.98071 0.58081 1.4473 1.3616 0.47607 0.78076 0.47607 1.8376 0 1.6853-1.314 2.7041-1.314 1.0093-3.5134 1.0093-1.4282 0-2.666-0.54272-1.2378-0.55225-1.9138-1.5044-0.6665-0.95215-0.6665-2.1614h1.8376q0 1.2568 0.92358 1.99 0.93311 0.72363 2.4851 0.72363 1.4473 0 2.2185-0.59033 0.77124-0.59033 0.77124-1.6091t-0.71411-1.571q-0.71411-0.56177-2.5898-1.1045z" />
	</g>
	<g clip-path="url(#clip-m4bae54e5d7)">
		<g transform="scale(.75)">
			<path id="path14767" d="m43.576 28.832v28.5h596.21v-28.5h-596.21z" fill="#5875a4" stroke="#fff" stroke-width="2" />
			<path id="path14818" d="m43.576 64.457v28.5h398.07v-28.5h-398.07z" fill="#cc8963" stroke="#fff" stroke-width="2" />
			<path id="path14869" d="m43.576 100.08v28.498h592.96v-28.498h-592.96z" fill="#5f9e6e" stroke="#fff" stroke-width="2" />
			<path id="path14872" d="m43.576 135.71v28.5h292.64v-28.5h-292.64z" fill="#5f9e6e" stroke="#fff" stroke-width="2" />
			<path id="path14875" d="m43.576 171.33v28.498h246.55v-28.498h-246.55z" fill="#5f9e6e" stroke="#fff" stroke-width="2" />
			<path id="path14878" d="m43.576 206.95v28.5h439.86v-28.5h-439.86z" fill="#5f9e6e" stroke="#fff" stroke-width="2" />
			<path id="path14881" d="m43.576 242.58v28.498h313.72v-28.498h-313.72z" fill="#5f9e6e" stroke="#fff" stroke-width="2" />
			<path id="path14884" d="m43.576 278.2v28.5h527.65v-28.5h-527.65z" fill="#5f9e6e" stroke="#fff" stroke-width="2" />
			<path id="path14887" d="m43.576 313.83v28.498h372.36v-28.498h-372.36z" fill="#5f9e6e" stroke="#fff" stroke-width="2" />
			<path id="path14890" d="m43.576 349.45v28.5h525.11v-28.5h-525.11z" fill="#5f9e6e" stroke="#fff" stroke-width="2" />
			<path id="path14893" d="m43.576 385.07v28.498h539.48v-28.498h-539.48z" fill="#5f9e6e" stroke="#fff" stroke-width="2" />
			<path id="path14896" d="m43.576 420.7v28.5h619.42v-28.5h-619.42z" fill="#5f9e6e" stroke="#fff" stroke-width="2" />
			<path id="path14899" d="m43.576 456.32v28.5h509.47v-28.5h-509.47z" fill="#5f9e6e" stroke="#fff" stroke-width="2" />
			<path id="path14902" d="m43.576 491.95v28.5h534.28v-28.5h-534.28z" fill="#5f9e6e" stroke="#fff" stroke-width="2" />
			<path id="path14905" d="m43.576 527.57v28.5h525.97v-28.5h-525.97z" fill="#5f9e6e" stroke="#fff" stroke-width="2" />
			<path id="path14908" d="m43.576 563.2v28.498h563.8v-28.498h-563.8z" fill="#5f9e6e" stroke="#fff" stroke-width="2" />
		</g>
	</g>
	<use id="use15058" transform="translate(-57.318 -58.182)" x="648" y="512.64001" width="100%" height="100%" fill="#262626" stroke="#262626" xlink:href="#m4bae54e5d7" />
	<path id="path15063" d="m32.682 454.46v-443.52" fill="none" stroke="#262626" stroke-linecap="square" stroke-width="1.875" />
	<path id="path15066" d="m32.682 454.46h558" fill="none" stroke="#262626" stroke-linecap="square" stroke-width="1.875" />
	<g id="text15069" fill="#fff" aria-label="RGB">
		<path id="path4464" d="m45.952 33.74h-1.7505v3.9038h-2.1973v-10.664h3.9624q1.8896 0 2.915 0.84228 1.0254 0.84228 1.0254 2.3804 0 1.0913-0.47607 1.8237-0.46875 0.7251-1.4282 1.1572l2.3071 4.3579v0.10254h-2.3584zm-1.7505-1.7798h1.7725q0.82764 0 1.2817-0.41748 0.4541-0.4248 0.4541-1.1646 0-0.75439-0.43213-1.1865-0.4248-0.43213-1.311-0.43213h-1.7651z" />
		<path id="path4466" d="m60.014 36.296q-0.59326 0.71045-1.6772 1.106-1.084 0.38818-2.4023 0.38818-1.3843 0-2.4316-0.60059-1.04-0.60791-1.6113-1.7578-0.56396-1.1499-0.57861-2.7026v-0.7251q0-1.5967 0.53467-2.7612 0.54199-1.1719 1.5527-1.7871 1.0181-0.62256 2.3804-0.62256 1.897 0 2.9663 0.9082 1.0693 0.90088 1.2671 2.6294h-2.1387q-0.14648-0.91553-0.65186-1.3403-0.49805-0.4248-1.377-0.4248-1.1206 0-1.7065 0.84229-0.58594 0.84228-0.59326 2.5049v0.68115q0 1.6772 0.63721 2.5342 0.63721 0.85693 1.8677 0.85693 1.2378 0 1.7651-0.52734v-1.8384h-1.9995v-1.6187h4.1968z" />
		<path id="path4468" d="m61.794 37.644v-10.664h3.7354q1.9409 0 2.9443 0.74707 1.0034 0.73975 1.0034 2.1753 0 0.78369-0.40283 1.3843-0.40283 0.59326-1.1206 0.87158 0.82031 0.20508 1.2891 0.82764 0.47608 0.62256 0.47608 1.5234 0 1.5381-0.98145 2.3291-0.98144 0.79102-2.7979 0.80566zm2.1973-4.6436v2.8784h1.8823q0.77637 0 1.2085-0.36621 0.43945-0.37354 0.43945-1.0254 0-1.4648-1.5161-1.4868zm0-1.5527h1.626q1.6626-0.0293 1.6626-1.3257 0-0.7251-0.4248-1.04-0.41748-0.32227-1.3257-0.32227h-1.5381z" />
	</g>
	<g id="text15072" fill="#fff" aria-label="96.0%">
		<path id="path4471" d="m437.77 33.021q-0.46729 0.55591-1.1199 0.89429-0.64453 0.33838-1.418 0.33838-1.0151 0-1.7725-0.49951-0.74927-0.49951-1.1602-1.4019-0.41089-0.9104-0.41089-2.0061 0-1.1763 0.44312-2.1189 0.45117-0.94263 1.273-1.4421 0.82177-0.49951 1.9175-0.49951 1.7402 0 2.7392 1.3052 1.0071 1.2971 1.0071 3.5449v0.43506q0 3.4241-1.3535 5.0032-1.3535 1.571-4.0847 1.6113h-0.29004v-1.2568h0.31421q1.845-0.03223 2.8359-0.95874 0.99097-0.93457 1.0796-2.9487zm-2.2961 0q0.74926 0 1.3777-0.45923 0.63648-0.45923 0.92652-1.136v-0.59619q0-1.4663-0.63648-2.3848-0.63647-0.91846-1.6113-0.91846-0.98291 0-1.5791 0.75732-0.59619 0.74927-0.59619 1.9819 0 1.2004 0.57202 1.9819 0.58008 0.77344 1.5469 0.77344z" />
		<path id="path4473" d="m447.17 26.439v1.2649h-0.27393q-1.7402 0.03223-2.7715 1.0312-1.0312 0.99902-1.1924 2.8118 0.92651-1.0635 2.5298-1.0635 1.5308 0 2.4412 1.0796 0.91846 1.0796 0.91846 2.7876 0 1.8127-0.99097 2.9004-0.98291 1.0876-2.6426 1.0876-1.6838 0-2.7312-1.2891-1.0474-1.2971-1.0474-3.3354v-0.57202q0-3.2388 1.3777-4.9468 1.3857-1.7161 4.1169-1.7563zm-1.9578 5.2852q-0.76539 0-1.4099 0.45923-0.64453 0.45923-0.89428 1.1521v0.54785q0 1.4502 0.65258 2.3364 0.65259 0.88623 1.6274 0.88623 1.0071 0 1.5791-0.74121 0.58008-0.74121 0.58008-1.9416 0-1.2085-0.58814-1.9497-0.58008-0.74927-1.5469-0.74927z" />
		<path id="path4475" d="m450.77 37.396q0-0.38672 0.22558-0.64453 0.23365-0.25781 0.69287-0.25781 0.45923 0 0.69288 0.25781 0.2417 0.25781 0.2417 0.64453 0 0.37061-0.2417 0.62036-0.23365 0.24976-0.69288 0.24976-0.45922 0-0.69287-0.24976-0.22558-0.24976-0.22558-0.62036z" />
		<path id="path4477" d="m462.29 33.174q0 2.6184-0.89429 3.8914t-2.7956 1.2729q-1.8772 0-2.7796-1.2407-0.90234-1.2488-0.93457-3.7222v-1.99q0-2.5862 0.89429-3.843t2.8037-1.2568q1.8933 0 2.7876 1.2166 0.89429 1.2085 0.91846 3.7383zm-1.4905-2.0383q0-1.8933-0.53174-2.7554-0.53174-0.87012-1.6838-0.87012-1.144 0-1.6677 0.86206-0.52368 0.86206-0.5398 2.6506v2.3848q0 1.9014 0.54785 2.8118 0.55591 0.90234 1.6758 0.90234 1.1038 0 1.6355-0.854 0.5398-0.854 0.56397-2.6909z" />
		<path id="path4479" d="m464.07 28.703q0-1.0554 0.66871-1.7402 0.67675-0.68482 1.7322-0.68482 1.0715 0 1.7322 0.69287 0.6687 0.68482 0.6687 1.7805v0.57202q0 1.0635-0.67676 1.7402-0.6687 0.6687-1.708 0.6687-1.0474 0-1.7322-0.6687-0.68482-0.67676-0.68482-1.7966zm1.1118 0.62036q0 0.62842 0.35449 1.0393 0.3545 0.40283 0.95069 0.40283 0.57202 0 0.91845-0.39478 0.3545-0.39478 0.3545-1.0796v-0.58814q0-0.62842-0.34644-1.0393-0.34643-0.41089-0.94263-0.41089-0.59619 0-0.94262 0.41089-0.34644 0.41089-0.34644 1.0715zm4.6003 5.978q0-1.0554 0.6687-1.7322 0.67676-0.68481 1.7322-0.68481t1.7322 0.67676q0.67676 0.67676 0.67676 1.7966v0.57202q0 1.0554-0.67676 1.7402-0.6687 0.67676-1.7161 0.67676-1.0474 0-1.7322-0.6687-0.68482-0.67676-0.68482-1.7966zm1.1118 0.62842q0 0.63647 0.35449 1.0474 0.35449 0.40283 0.95069 0.40283 0.58007 0 0.92651-0.39478 0.34643-0.40283 0.34643-1.0876v-0.59619q0-0.63648-0.35449-1.0393-0.34643-0.40283-0.93457-0.40283-0.57202 0-0.93457 0.40283-0.35449 0.39478-0.35449 1.0715zm-4.0686 1.3616-0.84595-0.53174 5.7283-9.1685 0.84595 0.53174z" />
	</g>
	<g id="text15075" fill="#fff" aria-label="D">
		<path id="path4482" d="m42.004 64.362v-10.664h3.2812q1.4062 0 2.5122 0.63721 1.1133 0.62988 1.7358 1.8018 0.62256 1.1646 0.62256 2.6514v0.49072q0 1.4868-0.61523 2.644-0.60791 1.1572-1.7212 1.7944-1.1133 0.63721-2.5122 0.64453zm2.1973-8.8843v7.1191h1.062q1.2891 0 1.9702-0.84228t0.6958-2.4097v-0.56396q0-1.626-0.67383-2.4609-0.67383-0.84228-1.9702-0.84228z" fill="#fff" />
	</g>
	<g id="text15078" fill="#fff" aria-label="90.7%">
		<path id="path4485" d="m289.17 59.739q-0.46729 0.55591-1.1199 0.89429-0.64453 0.33838-1.418 0.33838-1.0151 0-1.7725-0.49951-0.74926-0.49951-1.1602-1.4019-0.41089-0.9104-0.41089-2.0061 0-1.1763 0.44312-2.1189 0.45117-0.94263 1.2729-1.4421 0.82178-0.49951 1.9175-0.49951 1.7402 0 2.7393 1.3052 1.0071 1.2971 1.0071 3.5449v0.43506q0 3.4241-1.3535 5.0032-1.3535 1.571-4.0847 1.6113h-0.29004v-1.2568h0.31421q1.845-0.03223 2.8359-0.95874 0.99096-0.93457 1.0796-2.9487zm-2.2961 0q0.74926 0 1.3777-0.45923 0.63648-0.45923 0.92651-1.136v-0.59619q0-1.4663-0.63647-2.3848t-1.6113-0.91846q-0.98291 0-1.5791 0.75732-0.59619 0.74927-0.59619 1.9819 0 1.2004 0.57202 1.9819 0.58008 0.77344 1.5469 0.77344z" />
		<path id="path4487" d="m300.08 59.892q0 2.6184-0.89429 3.8914t-2.7956 1.2729q-1.8772 0-2.7795-1.2407-0.90235-1.2488-0.93457-3.7222v-1.99q0-2.5862 0.89428-3.843 0.89429-1.2568 2.8037-1.2568 1.8933 0 2.7876 1.2166 0.89429 1.2085 0.91846 3.7383zm-1.4905-2.0383q0-1.8933-0.53174-2.7554-0.53174-0.87012-1.6838-0.87012-1.144 0-1.6677 0.86206t-0.5398 2.6506v2.3848q0 1.9014 0.54786 2.8118 0.5559 0.90234 1.6758 0.90234 1.1038 0 1.6355-0.854 0.53979-0.854 0.56396-2.6909z" />
		<path id="path4489" d="m302.17 64.114q0-0.38672 0.22558-0.64453 0.23364-0.25781 0.69287-0.25781t0.69287 0.25781q0.2417 0.25781 0.2417 0.64453 0 0.3706-0.2417 0.62036-0.23364 0.24976-0.69287 0.24976t-0.69287-0.24976q-0.22558-0.24976-0.22558-0.62036z" />
		<path id="path4491" d="m313.9 54.003-4.8582 10.893h-1.563l4.842-10.506h-6.3486v-1.2246h7.9277z" />
		<path id="path4493" d="m315.46 55.421q0-1.0554 0.6687-1.7402 0.67676-0.68482 1.7322-0.68482 1.0715 0 1.7322 0.69287 0.6687 0.68481 0.6687 1.7805v0.57202q0 1.0635-0.67676 1.7402-0.6687 0.6687-1.708 0.6687-1.0474 0-1.7322-0.6687-0.68482-0.67676-0.68482-1.7966zm1.1118 0.62036q0 0.62842 0.35449 1.0393 0.35449 0.40283 0.95068 0.40283 0.57203 0 0.91846-0.39478 0.35449-0.39478 0.35449-1.0796v-0.58814q0-0.62842-0.34643-1.0393-0.34644-0.41089-0.94263-0.41089t-0.94263 0.41089q-0.34643 0.41089-0.34643 1.0715zm4.6003 5.978q0-1.0554 0.6687-1.7322 0.67676-0.68481 1.7322-0.68481t1.7322 0.67676q0.67676 0.67676 0.67676 1.7966v0.57202q0 1.0554-0.67676 1.7402-0.6687 0.67676-1.7161 0.67676-1.0474 0-1.7322-0.6687-0.68482-0.67676-0.68482-1.7966zm1.1118 0.62842q0 0.63648 0.35449 1.0474 0.35449 0.40283 0.95068 0.40283 0.58008 0 0.92652-0.39478 0.34643-0.40283 0.34643-1.0876v-0.59619q0-0.63648-0.35449-1.0393-0.34644-0.40283-0.93457-0.40283-0.57202 0-0.93457 0.40283-0.35449 0.39478-0.35449 1.0715zm-4.0686 1.3616-0.84594-0.53174 5.7283-9.1685 0.84595 0.53174z" />
	</g>
	<g id="text15081" fill="#fff" aria-label="RGBD 0">
		<path id="path4496" d="m45.952 87.176h-1.7505v3.9038h-2.1973v-10.664h3.9624q1.8896 0 2.915 0.84228 1.0254 0.84228 1.0254 2.3804 0 1.0913-0.47607 1.8237-0.46875 0.7251-1.4282 1.1572l2.3071 4.3579v0.10254h-2.3584zm-1.7505-1.7798h1.7725q0.82764 0 1.2817-0.41748 0.4541-0.4248 0.4541-1.1646 0-0.7544-0.43213-1.1865-0.4248-0.43213-1.311-0.43213h-1.7651z" />
		<path id="path4498" d="m60.014 89.732q-0.59326 0.71045-1.6772 1.106-1.084 0.38818-2.4023 0.38818-1.3843 0-2.4316-0.60059-1.04-0.60791-1.6113-1.7578-0.56396-1.1499-0.57861-2.7026v-0.7251q0-1.5967 0.53467-2.7612 0.54199-1.1719 1.5527-1.7871 1.0181-0.62256 2.3804-0.62256 1.897 0 2.9663 0.9082 1.0693 0.90088 1.2671 2.6294h-2.1387q-0.14648-0.91553-0.65186-1.3403-0.49805-0.4248-1.377-0.4248-1.1206 0-1.7065 0.84228-0.58594 0.84228-0.59326 2.5049v0.68115q0 1.6772 0.63721 2.5342 0.63721 0.85693 1.8677 0.85693 1.2378 0 1.7651-0.52734v-1.8384h-1.9995v-1.6187h4.1968z" />
		<path id="path4500" d="m61.794 91.08v-10.664h3.7354q1.9409 0 2.9443 0.74707 1.0034 0.73975 1.0034 2.1753 0 0.78369-0.40283 1.3843-0.40283 0.59326-1.1206 0.87158 0.82031 0.20508 1.2891 0.82764 0.47608 0.62256 0.47608 1.5234 0 1.5381-0.98145 2.3291-0.98144 0.79102-2.7979 0.80566zm2.1973-4.6436v2.8784h1.8823q0.77637 0 1.2085-0.36621 0.43945-0.37354 0.43945-1.0254 0-1.4648-1.5161-1.4868zm0-1.5527h1.626q1.6626-0.0293 1.6626-1.3257 0-0.7251-0.4248-1.04-0.41748-0.32227-1.3257-0.32227h-1.5381z" />
		<path id="path4502" d="m71.367 91.08v-10.664h3.2812q1.4062 0 2.5122 0.63721 1.1133 0.62988 1.7358 1.8018 0.62256 1.1646 0.62256 2.6514v0.49072q0 1.4868-0.61523 2.644-0.60791 1.1572-1.7212 1.7944-1.1133 0.63721-2.5122 0.64453zm2.1973-8.8843v7.1191h1.062q1.2891 0 1.9702-0.84228 0.68115-0.84229 0.6958-2.4097v-0.56396q0-1.626-0.67383-2.4609-0.67383-0.84228-1.9702-0.84228z" />
		<path id="path4504" d="m91.801 86.671q0 2.2119-0.91553 3.3838-0.91553 1.1719-2.6807 1.1719-1.7432 0-2.666-1.1499-0.92285-1.1499-0.94482-3.2959v-1.9629q0-2.2339 0.92285-3.3911 0.93018-1.1572 2.6733-1.1572t2.666 1.1499q0.92285 1.1426 0.94482 3.2886zm-2.1167-2.1533q0-1.3257-0.36621-1.9263-0.35889-0.60791-1.1279-0.60791-0.74707 0-1.106 0.57861-0.35156 0.57129-0.37354 1.7944v2.5928q0 1.3037 0.35156 1.9409 0.35889 0.62988 1.1426 0.62988 0.77637 0 1.1206-0.60791t0.35889-1.8604z" />
	</g>
	<g id="text15084" fill="#fff" aria-label="RGBD 2">
		<path id="path4507" d="m45.952 113.89h-1.7505v3.9038h-2.1973v-10.664h3.9624q1.8896 0 2.915 0.84228 1.0254 0.84229 1.0254 2.3804 0 1.0913-0.47607 1.8237-0.46875 0.7251-1.4282 1.1572l2.3071 4.3579v0.10254h-2.3584zm-1.7505-1.7798h1.7725q0.82764 0 1.2817-0.41748 0.4541-0.42481 0.4541-1.1646 0-0.7544-0.43213-1.1865-0.4248-0.43213-1.311-0.43213h-1.7651z" />
		<path id="path4509" d="m60.014 116.45q-0.59326 0.71045-1.6772 1.106-1.084 0.38818-2.4023 0.38818-1.3843 0-2.4316-0.60058-1.04-0.60791-1.6113-1.7578-0.56396-1.1499-0.57861-2.7026v-0.7251q0-1.5967 0.53467-2.7612 0.54199-1.1719 1.5527-1.7871 1.0181-0.62256 2.3804-0.62256 1.897 0 2.9663 0.90821 1.0693 0.90088 1.2671 2.6294h-2.1387q-0.14648-0.91553-0.65186-1.3403-0.49805-0.42481-1.377-0.42481-1.1206 0-1.7065 0.84229-0.58594 0.84228-0.59326 2.5049v0.68115q0 1.6772 0.63721 2.5342 0.63721 0.85694 1.8677 0.85694 1.2378 0 1.7651-0.52735v-1.8384h-1.9995v-1.6187h4.1968z" />
		<path id="path4511" d="m61.794 117.8v-10.664h3.7354q1.9409 0 2.9443 0.74707 1.0034 0.73974 1.0034 2.1753 0 0.78369-0.40283 1.3843-0.40283 0.59326-1.1206 0.87158 0.82031 0.20508 1.2891 0.82764 0.47608 0.62256 0.47608 1.5234 0 1.5381-0.98145 2.3291-0.98144 0.79101-2.7979 0.80566zm2.1973-4.6436v2.8784h1.8823q0.77637 0 1.2085-0.36621 0.43945-0.37353 0.43945-1.0254 0-1.4648-1.5161-1.4868zm0-1.5527h1.626q1.6626-0.0293 1.6626-1.3257 0-0.7251-0.4248-1.04-0.41748-0.32227-1.3257-0.32227h-1.5381z" />
		<path id="path4513" d="m71.367 117.8v-10.664h3.2812q1.4062 0 2.5122 0.6372 1.1133 0.62989 1.7358 1.8018 0.62256 1.1646 0.62256 2.6514v0.49072q0 1.4868-0.61523 2.644-0.60791 1.1572-1.7212 1.7944-1.1133 0.63721-2.5122 0.64453zm2.1973-8.8843v7.1191h1.062q1.2891 0 1.9702-0.84228 0.68115-0.84229 0.6958-2.4097v-0.56396q0-1.626-0.67383-2.4609-0.67383-0.84229-1.9702-0.84229z" />
		<path id="path4515" d="m91.933 117.8h-7.3096v-1.4502l3.4497-3.6768q0.71045-0.77637 1.0474-1.355 0.34424-0.57862 0.34424-1.0986 0-0.71045-0.35889-1.1133-0.35889-0.41015-1.0254-0.41015-0.71777 0-1.1353 0.49804-0.41016 0.49073-0.41016 1.2964h-2.124q0-0.97412 0.46143-1.7798 0.46875-0.80566 1.3184-1.2598 0.84961-0.46143 1.9263-0.46143 1.6479 0 2.5562 0.79102 0.91553 0.79101 0.91553 2.2339 0 0.79101-0.41016 1.6113-0.41016 0.82032-1.4062 1.9116l-2.4243 2.5562h4.585z" />
	</g>
	<g id="text15087" fill="#fff" aria-label="RGBD 4">
		<path id="path4518" d="m45.952 140.61h-1.7505v3.9038h-2.1973v-10.664h3.9624q1.8896 0 2.915 0.84228 1.0254 0.84229 1.0254 2.3804 0 1.0913-0.47607 1.8237-0.46875 0.72509-1.4282 1.1572l2.3071 4.3579v0.10254h-2.3584zm-1.7505-1.7798h1.7725q0.82764 0 1.2817-0.41748 0.4541-0.42481 0.4541-1.1646 0-0.7544-0.43213-1.1865-0.4248-0.43213-1.311-0.43213h-1.7651z" />
		<path id="path4520" d="m60.014 143.17q-0.59326 0.71045-1.6772 1.106-1.084 0.38819-2.4023 0.38819-1.3843 0-2.4316-0.60059-1.04-0.60791-1.6113-1.7578-0.56396-1.1499-0.57861-2.7026v-0.7251q0-1.5967 0.53467-2.7612 0.54199-1.1719 1.5527-1.7871 1.0181-0.62256 2.3804-0.62256 1.897 0 2.9663 0.90821 1.0693 0.90088 1.2671 2.6294h-2.1387q-0.14648-0.91553-0.65186-1.3403-0.49805-0.4248-1.377-0.4248-1.1206 0-1.7065 0.84228-0.58594 0.84229-0.59326 2.5049v0.68116q0 1.6772 0.63721 2.5342 0.63721 0.85693 1.8677 0.85693 1.2378 0 1.7651-0.52734v-1.8384h-1.9995v-1.6187h4.1968z" />
		<path id="path4522" d="m61.794 144.52v-10.664h3.7354q1.9409 0 2.9443 0.74707 1.0034 0.73975 1.0034 2.1753 0 0.78369-0.40283 1.3843-0.40283 0.59326-1.1206 0.87158 0.82031 0.20508 1.2891 0.82764 0.47608 0.62256 0.47608 1.5234 0 1.5381-0.98145 2.3291-0.98144 0.79101-2.7979 0.80566zm2.1973-4.6436v2.8784h1.8823q0.77637 0 1.2085-0.36621 0.43945-0.37353 0.43945-1.0254 0-1.4648-1.5161-1.4868zm0-1.5527h1.626q1.6626-0.0293 1.6626-1.3257 0-0.7251-0.4248-1.04-0.41748-0.32227-1.3257-0.32227h-1.5381z" />
		<path id="path4524" d="m71.367 144.52v-10.664h3.2812q1.4062 0 2.5122 0.63721 1.1133 0.62988 1.7358 1.8018 0.62256 1.1646 0.62256 2.6514v0.49072q0 1.4868-0.61523 2.644-0.60791 1.1572-1.7212 1.7944-1.1133 0.63721-2.5122 0.64453zm2.1973-8.8843v7.1191h1.062q1.2891 0 1.9702-0.84228 0.68115-0.84229 0.6958-2.4097v-0.56396q0-1.626-0.67383-2.4609-0.67383-0.84229-1.9702-0.84229z" />
		<path id="path4526" d="m90.886 140.5h1.2085v1.7065h-1.2085v2.3071h-2.1167v-2.3071h-4.3726l-0.09522-1.333 4.4458-7.0239h2.1387zm-4.4751 0h2.3584v-3.7646l-0.13916 0.2417z" />
	</g>
	<g id="text15090" fill="#fff" aria-label="RGBD 6">
		<path id="path4529" d="m45.952 167.33h-1.7505v3.9038h-2.1973v-10.664h3.9624q1.8896 0 2.915 0.84228 1.0254 0.84229 1.0254 2.3804 0 1.0913-0.47607 1.8237-0.46875 0.7251-1.4282 1.1572l2.3071 4.3579v0.10254h-2.3584zm-1.7505-1.7798h1.7725q0.82764 0 1.2817-0.41748 0.4541-0.42481 0.4541-1.1646 0-0.75439-0.43213-1.1865-0.4248-0.43213-1.311-0.43213h-1.7651z" />
		<path id="path4531" d="m60.014 169.89q-0.59326 0.71045-1.6772 1.106-1.084 0.38818-2.4023 0.38818-1.3843 0-2.4316-0.60058-1.04-0.60791-1.6113-1.7578-0.56396-1.1499-0.57861-2.7026v-0.7251q0-1.5967 0.53467-2.7612 0.54199-1.1719 1.5527-1.7871 1.0181-0.62256 2.3804-0.62256 1.897 0 2.9663 0.90821 1.0693 0.90087 1.2671 2.6294h-2.1387q-0.14648-0.91553-0.65186-1.3403-0.49805-0.42481-1.377-0.42481-1.1206 0-1.7065 0.84229-0.58594 0.84228-0.59326 2.5049v0.68115q0 1.6772 0.63721 2.5342 0.63721 0.85694 1.8677 0.85694 1.2378 0 1.7651-0.52735v-1.8384h-1.9995v-1.6186h4.1968z" />
		<path id="path4533" d="m61.794 171.23v-10.664h3.7354q1.9409 0 2.9443 0.74707 1.0034 0.73974 1.0034 2.1753 0 0.78369-0.40283 1.3843-0.40283 0.59326-1.1206 0.87158 0.82031 0.20508 1.2891 0.82764 0.47608 0.62256 0.47608 1.5234 0 1.5381-0.98145 2.3291-0.98144 0.79101-2.7979 0.80566zm2.1973-4.6436v2.8784h1.8823q0.77637 0 1.2085-0.36621 0.43945-0.37353 0.43945-1.0254 0-1.4648-1.5161-1.4868zm0-1.5527h1.626q1.6626-0.0293 1.6626-1.3257 0-0.7251-0.4248-1.04-0.41748-0.32227-1.3257-0.32227h-1.5381z" />
		<path id="path4535" d="m71.367 171.23v-10.664h3.2812q1.4062 0 2.5122 0.6372 1.1133 0.62989 1.7358 1.8018 0.62256 1.1646 0.62256 2.6514v0.49072q0 1.4868-0.61523 2.644-0.60791 1.1572-1.7212 1.7944-1.1133 0.63721-2.5122 0.64453zm2.1973-8.8843v7.1191h1.062q1.2891 0 1.9702-0.84228 0.68115-0.84229 0.6958-2.4097v-0.56396q0-1.626-0.67383-2.4609-0.67383-0.84229-1.9702-0.84229z" />
		<path id="path4537" d="m90.366 160.46v1.7432h-0.20508q-1.4355 0.022-2.3145 0.74707-0.87158 0.7251-1.0474 2.0142 0.84961-0.86426 2.146-0.86426 1.3916 0 2.2119 0.99609 0.82031 0.9961 0.82031 2.6221 0 1.04-0.4541 1.8823-0.44678 0.84228-1.2744 1.311-0.82031 0.46875-1.8604 0.46875-1.6846 0-2.7246-1.1719-1.0327-1.1719-1.0327-3.1274v-0.76172q0-1.7358 0.65186-3.0615 0.65918-1.333 1.8823-2.0581 1.2305-0.73242 2.8491-0.73975zm-2.0654 5.3394q-0.5127 0-0.93018 0.271-0.41748 0.26367-0.61524 0.70312v0.64453q0 1.062 0.41748 1.6626 0.41748 0.59326 1.1719 0.59326 0.68115 0 1.0986-0.53467 0.4248-0.54199 0.4248-1.3989 0-0.87158-0.4248-1.4062-0.4248-0.53467-1.1426-0.53467z" />
	</g>
	<g id="text15093" fill="#fff" aria-label="RGBD 8">
		<path id="path4540" d="m45.952 194.05h-1.7505v3.9038h-2.1973v-10.664h3.9624q1.8896 0 2.915 0.84229 1.0254 0.84228 1.0254 2.3804 0 1.0913-0.47607 1.8237-0.46875 0.72509-1.4282 1.1572l2.3071 4.3579v0.10254h-2.3584zm-1.7505-1.7798h1.7725q0.82764 0 1.2817-0.41748 0.4541-0.42481 0.4541-1.1646 0-0.7544-0.43213-1.1865-0.4248-0.43212-1.311-0.43212h-1.7651z" />
		<path id="path4542" d="m60.014 196.6q-0.59326 0.71045-1.6772 1.106-1.084 0.38819-2.4023 0.38819-1.3843 0-2.4316-0.60059-1.04-0.60791-1.6113-1.7578-0.56396-1.1499-0.57861-2.7026v-0.7251q0-1.5967 0.53467-2.7612 0.54199-1.1719 1.5527-1.7871 1.0181-0.62255 2.3804-0.62255 1.897 0 2.9663 0.9082 1.0693 0.90088 1.2671 2.6294h-2.1387q-0.14648-0.91552-0.65186-1.3403-0.49805-0.4248-1.377-0.4248-1.1206 0-1.7065 0.84228-0.58594 0.84229-0.59326 2.5049v0.68115q0 1.6772 0.63721 2.5342 0.63721 0.85693 1.8677 0.85693 1.2378 0 1.7651-0.52734v-1.8384h-1.9995v-1.6186h4.1968z" />
		<path id="path4544" d="m61.794 197.95v-10.664h3.7354q1.9409 0 2.9443 0.74707 1.0034 0.73975 1.0034 2.1753 0 0.7837-0.40283 1.3843-0.40283 0.59326-1.1206 0.87158 0.82031 0.20508 1.2891 0.82764 0.47608 0.62256 0.47608 1.5234 0 1.5381-0.98145 2.3291-0.98144 0.79101-2.7979 0.80566zm2.1973-4.6436v2.8784h1.8823q0.77637 0 1.2085-0.36621 0.43945-0.37354 0.43945-1.0254 0-1.4648-1.5161-1.4868zm0-1.5527h1.626q1.6626-0.0293 1.6626-1.3257 0-0.7251-0.4248-1.04-0.41748-0.32226-1.3257-0.32226h-1.5381z" />
		<path id="path4546" d="m71.367 197.95v-10.664h3.2812q1.4062 0 2.5122 0.63721 1.1133 0.62988 1.7358 1.8018 0.62256 1.1646 0.62256 2.6514v0.49073q0 1.4868-0.61523 2.644-0.60791 1.1572-1.7212 1.7944-1.1133 0.63721-2.5122 0.64453zm2.1973-8.8843v7.1191h1.062q1.2891 0 1.9702-0.84229 0.68115-0.84228 0.6958-2.4097v-0.56396q0-1.626-0.67383-2.4609-0.67383-0.84228-1.9702-0.84228z" />
		<path id="path4548" d="m91.574 190.12q0 0.77637-0.38818 1.377-0.38818 0.60058-1.0693 0.95947 0.77637 0.37353 1.2305 1.0327 0.4541 0.65186 0.4541 1.5381 0 1.4209-0.9668 2.2485-0.9668 0.82032-2.6294 0.82032-1.6626 0-2.6367-0.82764t-0.97412-2.2412q0-0.88623 0.4541-1.5454 0.4541-0.65918 1.2231-1.0254-0.68115-0.35889-1.0693-0.95947-0.38086-0.60059-0.38086-1.377 0-1.3623 0.9082-2.168 0.9082-0.81298 2.4683-0.81298 1.5527 0 2.4609 0.80566 0.91553 0.79834 0.91553 2.1753zm-1.897 4.7534q0-0.6958-0.40283-1.1133t-1.084-0.41748q-0.67383 0-1.0767 0.41748-0.40283 0.41016-0.40283 1.1133 0 0.68115 0.39551 1.0986t1.0986 0.41748q0.68848 0 1.0767-0.40283 0.39551-0.40283 0.39551-1.1133zm-0.21973-4.6509q0-0.62256-0.32959-0.99609-0.32959-0.38086-0.93018-0.38086-0.59326 0-0.92285 0.36621t-0.32959 1.0107q0 0.63721 0.32959 1.0254 0.32959 0.38819 0.93018 0.38819t0.92285-0.38819q0.32959-0.38818 0.32959-1.0254z" />
	</g>
	<g id="text15096" fill="#fff" aria-label="RGBD 10">
		<path id="path4551" d="m45.952 220.77h-1.7505v3.9038h-2.1973v-10.664h3.9624q1.8896 0 2.915 0.84228 1.0254 0.84229 1.0254 2.3804 0 1.0913-0.47607 1.8237-0.46875 0.72509-1.4282 1.1572l2.3071 4.3579v0.10254h-2.3584zm-1.7505-1.7798h1.7725q0.82764 0 1.2817-0.41748 0.4541-0.42481 0.4541-1.1646 0-0.7544-0.43213-1.1865-0.4248-0.43213-1.311-0.43213h-1.7651z" />
		<path id="path4553" d="m60.014 223.32q-0.59326 0.71044-1.6772 1.106-1.084 0.38819-2.4023 0.38819-1.3843 0-2.4316-0.60059-1.04-0.60791-1.6113-1.7578-0.56396-1.1499-0.57861-2.7026v-0.7251q0-1.5967 0.53467-2.7612 0.54199-1.1719 1.5527-1.7871 1.0181-0.62256 2.3804-0.62256 1.897 0 2.9663 0.90821 1.0693 0.90088 1.2671 2.6294h-2.1387q-0.14648-0.91552-0.65186-1.3403-0.49805-0.4248-1.377-0.4248-1.1206 0-1.7065 0.84228-0.58594 0.84229-0.59326 2.5049v0.68116q0 1.6772 0.63721 2.5342 0.63721 0.85693 1.8677 0.85693 1.2378 0 1.7651-0.52734v-1.8384h-1.9995v-1.6187h4.1968z" />
		<path id="path4555" d="m61.794 224.67v-10.664h3.7354q1.9409 0 2.9443 0.74707 1.0034 0.73975 1.0034 2.1753 0 0.78369-0.40283 1.3843-0.40283 0.59326-1.1206 0.87158 0.82031 0.20508 1.2891 0.82764 0.47608 0.62256 0.47608 1.5234 0 1.5381-0.98145 2.3291-0.98144 0.79101-2.7979 0.80566zm2.1973-4.6436v2.8784h1.8823q0.77637 0 1.2085-0.36621 0.43945-0.37353 0.43945-1.0254 0-1.4648-1.5161-1.4868zm0-1.5527h1.626q1.6626-0.0293 1.6626-1.3257 0-0.7251-0.4248-1.04-0.41748-0.32227-1.3257-0.32227h-1.5381z" />
		<path id="path4557" d="m71.367 224.67v-10.664h3.2812q1.4062 0 2.5122 0.63721 1.1133 0.62988 1.7358 1.8018 0.62256 1.1646 0.62256 2.6514v0.49072q0 1.4868-0.61523 2.644-0.60791 1.1572-1.7212 1.7944-1.1133 0.63721-2.5122 0.64453zm2.1973-8.8843v7.1191h1.062q1.2891 0 1.9702-0.84228 0.68115-0.84229 0.6958-2.4097v-0.56396q0-1.626-0.67383-2.4609-0.67383-0.84229-1.9702-0.84229z" />
		<path id="path4559" d="m89.765 224.67h-2.1167v-8.1592l-2.5269 0.78369v-1.7212l4.4165-1.582h0.22705z" />
		<path id="path4561" d="m100.41 220.26q0 2.2119-0.91552 3.3838-0.91553 1.1719-2.6807 1.1719-1.7432 0-2.666-1.1499-0.92285-1.1499-0.94482-3.2959v-1.9629q0-2.2339 0.92285-3.3911 0.93018-1.1572 2.6733-1.1572t2.666 1.1499q0.92285 1.1426 0.94482 3.2886zm-2.1167-2.1533q0-1.3257-0.36621-1.9263-0.35889-0.60791-1.1279-0.60791-0.74707 0-1.106 0.57862-0.35156 0.57128-0.37354 1.7944v2.5928q0 1.3037 0.35156 1.9409 0.35889 0.62988 1.1426 0.62988 0.77637 0 1.1206-0.60791t0.35889-1.8604z" />
	</g>
	<g id="text15099" fill="#fff" aria-label="RGBD 12">
		<path id="path4564" d="m45.952 247.48h-1.7505v3.9038h-2.1973v-10.664h3.9624q1.8896 0 2.915 0.84228 1.0254 0.84229 1.0254 2.3804 0 1.0913-0.47607 1.8237-0.46875 0.7251-1.4282 1.1572l2.3071 4.3579v0.10254h-2.3584zm-1.7505-1.7798h1.7725q0.82764 0 1.2817-0.41748 0.4541-0.42481 0.4541-1.1646 0-0.7544-0.43213-1.1865-0.4248-0.43213-1.311-0.43213h-1.7651z" />
		<path id="path4566" d="m60.014 250.04q-0.59326 0.71045-1.6772 1.106-1.084 0.38818-2.4023 0.38818-1.3843 0-2.4316-0.60058-1.04-0.60791-1.6113-1.7578-0.56396-1.1499-0.57861-2.7026v-0.7251q0-1.5967 0.53467-2.7612 0.54199-1.1719 1.5527-1.7871 1.0181-0.62256 2.3804-0.62256 1.897 0 2.9663 0.90821 1.0693 0.90088 1.2671 2.6294h-2.1387q-0.14648-0.91553-0.65186-1.3403-0.49805-0.42481-1.377-0.42481-1.1206 0-1.7065 0.84229-0.58594 0.84228-0.59326 2.5049v0.68115q0 1.6772 0.63721 2.5342 0.63721 0.85694 1.8677 0.85694 1.2378 0 1.7651-0.52735v-1.8384h-1.9995v-1.6187h4.1968z" />
		<path id="path4568" d="m61.794 251.39v-10.664h3.7354q1.9409 0 2.9443 0.74707 1.0034 0.73974 1.0034 2.1753 0 0.78369-0.40283 1.3843-0.40283 0.59326-1.1206 0.87158 0.82031 0.20508 1.2891 0.82764 0.47608 0.62256 0.47608 1.5234 0 1.5381-0.98145 2.3291-0.98144 0.79101-2.7979 0.80566zm2.1973-4.6436v2.8784h1.8823q0.77637 0 1.2085-0.36621 0.43945-0.37353 0.43945-1.0254 0-1.4648-1.5161-1.4868zm0-1.5527h1.626q1.6626-0.0293 1.6626-1.3257 0-0.7251-0.4248-1.04-0.41748-0.32227-1.3257-0.32227h-1.5381z" />
		<path id="path4570" d="m71.367 251.39v-10.664h3.2812q1.4062 0 2.5122 0.6372 1.1133 0.62989 1.7358 1.8018 0.62256 1.1646 0.62256 2.6514v0.49072q0 1.4868-0.61523 2.644-0.60791 1.1572-1.7212 1.7944-1.1133 0.63721-2.5122 0.64453zm2.1973-8.8843v7.1191h1.062q1.2891 0 1.9702-0.84228 0.68115-0.84229 0.6958-2.4097v-0.56396q0-1.626-0.67383-2.4609-0.67383-0.84229-1.9702-0.84229z" />
		<path id="path4572" d="m89.765 251.39h-2.1167v-8.1592l-2.5269 0.78369v-1.7212l4.4165-1.582h0.22705z" />
		<path id="path4574" d="m100.54 251.39h-7.3096v-1.4502l3.4497-3.6768q0.71045-0.77637 1.0474-1.355 0.34424-0.57862 0.34424-1.0986 0-0.71045-0.35889-1.1133-0.35889-0.41015-1.0254-0.41015-0.71777 0-1.1353 0.49804-0.41016 0.49073-0.41016 1.2964h-2.124q0-0.97412 0.46143-1.7798 0.46875-0.80566 1.3184-1.2598 0.84961-0.46143 1.9263-0.46143 1.6479 0 2.5562 0.79102 0.91553 0.79101 0.91553 2.2339 0 0.79101-0.41016 1.6113-0.41016 0.82032-1.4062 1.9116l-2.4243 2.5562h4.585z" />
	</g>
	<g id="text15102" fill="#fff" aria-label="RGBD 14">
		<path id="path4577" d="m45.952 274.2h-1.7505v3.9038h-2.1973v-10.664h3.9624q1.8896 0 2.915 0.84228 1.0254 0.84229 1.0254 2.3804 0 1.0913-0.47607 1.8237-0.46875 0.7251-1.4282 1.1572l2.3071 4.3579v0.10254h-2.3584zm-1.7505-1.7798h1.7725q0.82764 0 1.2817-0.41749 0.4541-0.4248 0.4541-1.1646 0-0.75439-0.43213-1.1865-0.4248-0.43213-1.311-0.43213h-1.7651z" />
		<path id="path4579" d="m60.014 276.76q-0.59326 0.71045-1.6772 1.106-1.084 0.38818-2.4023 0.38818-1.3843 0-2.4316-0.60058-1.04-0.60791-1.6113-1.7578-0.56396-1.1499-0.57861-2.7026v-0.7251q0-1.5967 0.53467-2.7612 0.54199-1.1719 1.5527-1.7871 1.0181-0.62256 2.3804-0.62256 1.897 0 2.9663 0.90821 1.0693 0.90087 1.2671 2.6294h-2.1387q-0.14648-0.91553-0.65186-1.3403-0.49805-0.42481-1.377-0.42481-1.1206 0-1.7065 0.84229-0.58594 0.84228-0.59326 2.5049v0.68115q0 1.6772 0.63721 2.5342 0.63721 0.85694 1.8677 0.85694 1.2378 0 1.7651-0.52735v-1.8384h-1.9995v-1.6186h4.1968z" />
		<path id="path4581" d="m61.794 278.11v-10.664h3.7354q1.9409 0 2.9443 0.74707 1.0034 0.73974 1.0034 2.1753 0 0.78369-0.40283 1.3843-0.40283 0.59326-1.1206 0.87158 0.82031 0.20508 1.2891 0.82764 0.47608 0.62255 0.47608 1.5234 0 1.5381-0.98145 2.3291-0.98144 0.79102-2.7979 0.80567zm2.1973-4.6436v2.8784h1.8823q0.77637 0 1.2085-0.36621 0.43945-0.37353 0.43945-1.0254 0-1.4648-1.5161-1.4868zm0-1.5527h1.626q1.6626-0.0293 1.6626-1.3257 0-0.7251-0.4248-1.04-0.41748-0.32227-1.3257-0.32227h-1.5381z" />
		<path id="path4583" d="m71.367 278.11v-10.664h3.2812q1.4062 0 2.5122 0.6372 1.1133 0.62989 1.7358 1.8018 0.62256 1.1646 0.62256 2.6514v0.49072q0 1.4868-0.61523 2.644-0.60791 1.1572-1.7212 1.7944-1.1133 0.6372-2.5122 0.64453zm2.1973-8.8843v7.1191h1.062q1.2891 0 1.9702-0.84228 0.68115-0.84229 0.6958-2.4097v-0.56397q0-1.626-0.67383-2.4609-0.67383-0.84229-1.9702-0.84229z" />
		<path id="path4585" d="m89.765 278.11h-2.1167v-8.1592l-2.5269 0.78369v-1.7212l4.4165-1.582h0.22705z" />
		<path id="path4587" d="m99.492 274.09h1.2085v1.7065h-1.2085v2.3071h-2.1167v-2.3071h-4.3726l-0.09521-1.333 4.4458-7.0239h2.1387zm-4.4751 0h2.3584v-3.7646l-0.13916 0.2417z" />
	</g>
	<g id="text15105" fill="#fff" aria-label="RGBD 16">
		<path id="path4590" d="m45.952 300.92h-1.7505v3.9038h-2.1973v-10.664h3.9624q1.8896 0 2.915 0.84229 1.0254 0.84228 1.0254 2.3804 0 1.0913-0.47607 1.8237-0.46875 0.7251-1.4282 1.1572l2.3071 4.3579v0.10254h-2.3584zm-1.7505-1.7798h1.7725q0.82764 0 1.2817-0.41748 0.4541-0.4248 0.4541-1.1646 0-0.75439-0.43213-1.1865-0.4248-0.43213-1.311-0.43213h-1.7651z" />
		<path id="path4592" d="m60.014 303.48q-0.59326 0.71045-1.6772 1.106-1.084 0.38818-2.4023 0.38818-1.3843 0-2.4316-0.60058-1.04-0.60791-1.6113-1.7578-0.56396-1.1499-0.57861-2.7026v-0.7251q0-1.5967 0.53467-2.7612 0.54199-1.1719 1.5527-1.7871 1.0181-0.62256 2.3804-0.62256 1.897 0 2.9663 0.9082 1.0693 0.90088 1.2671 2.6294h-2.1387q-0.14648-0.91553-0.65186-1.3403-0.49805-0.42481-1.377-0.42481-1.1206 0-1.7065 0.84229-0.58594 0.84228-0.59326 2.5049v0.68115q0 1.6772 0.63721 2.5342t1.8677 0.85693q1.2378 0 1.7651-0.52734v-1.8384h-1.9995v-1.6186h4.1968z" />
		<path id="path4594" d="m61.794 304.82v-10.664h3.7354q1.9409 0 2.9443 0.74707 1.0034 0.73975 1.0034 2.1753 0 0.78369-0.40283 1.3843-0.40283 0.59326-1.1206 0.87158 0.82031 0.20508 1.2891 0.82763 0.47608 0.62256 0.47608 1.5234 0 1.5381-0.98145 2.3291-0.98144 0.79102-2.7979 0.80567zm2.1973-4.6436v2.8784h1.8823q0.77637 0 1.2085-0.36621 0.43945-0.37354 0.43945-1.0254 0-1.4648-1.5161-1.4868zm0-1.5527h1.626q1.6626-0.0293 1.6626-1.3257 0-0.72509-0.4248-1.04-0.41748-0.32227-1.3257-0.32227h-1.5381z" />
		<path id="path4596" d="m71.367 304.82v-10.664h3.2812q1.4062 0 2.5122 0.63721 1.1133 0.62988 1.7358 1.8018 0.62256 1.1646 0.62256 2.6514v0.49072q0 1.4868-0.61523 2.644-0.60791 1.1572-1.7212 1.7944-1.1133 0.6372-2.5122 0.64453zm2.1973-8.8843v7.1191h1.062q1.2891 0 1.9702-0.84228 0.68115-0.84229 0.6958-2.4097v-0.56397q0-1.626-0.67383-2.4609-0.67383-0.84228-1.9702-0.84228z" />
		<path id="path4598" d="m89.765 304.82h-2.1167v-8.1592l-2.5269 0.78369v-1.7212l4.4165-1.582h0.22705z" />
		<path id="path4600" d="m98.972 294.05v1.7432h-0.20508q-1.4355 0.022-2.3145 0.74707-0.87158 0.72509-1.0474 2.0142 0.84961-0.86426 2.146-0.86426 1.3916 0 2.2119 0.99609 0.82031 0.9961 0.82031 2.6221 0 1.04-0.4541 1.8823-0.44678 0.84228-1.2744 1.311-0.82031 0.46875-1.8604 0.46875-1.6846 0-2.7246-1.1719-1.0327-1.1719-1.0327-3.1274v-0.76171q0-1.7358 0.65186-3.0615 0.65918-1.333 1.8823-2.0581 1.2305-0.73242 2.8491-0.73975zm-2.0654 5.3394q-0.5127 0-0.93018 0.27099-0.41748 0.26367-0.61524 0.70313v0.64453q0 1.062 0.41748 1.6626 0.41748 0.59326 1.1719 0.59326 0.68115 0 1.0986-0.53467 0.4248-0.54199 0.4248-1.3989 0-0.87158-0.4248-1.4062-0.4248-0.53466-1.1426-0.53466z" />
	</g>
	<g id="text15108" fill="#fff" aria-label="RGBD 18">
		<path id="path4603" d="m45.952 327.64h-1.7505v3.9038h-2.1973v-10.664h3.9624q1.8896 0 2.915 0.84229 1.0254 0.84228 1.0254 2.3804 0 1.0913-0.47607 1.8237-0.46875 0.7251-1.4282 1.1572l2.3071 4.3579v0.10254h-2.3584zm-1.7505-1.7798h1.7725q0.82764 0 1.2817-0.41748 0.4541-0.4248 0.4541-1.1646 0-0.75439-0.43213-1.1865-0.4248-0.43213-1.311-0.43213h-1.7651z" />
		<path id="path4605" d="m60.014 330.2q-0.59326 0.71045-1.6772 1.106-1.084 0.38818-2.4023 0.38818-1.3843 0-2.4316-0.60059-1.04-0.60791-1.6113-1.7578-0.56396-1.1499-0.57861-2.7026v-0.72509q0-1.5967 0.53467-2.7612 0.54199-1.1719 1.5527-1.7871 1.0181-0.62256 2.3804-0.62256 1.897 0 2.9663 0.9082 1.0693 0.90088 1.2671 2.6294h-2.1387q-0.14648-0.91553-0.65186-1.3403-0.49805-0.4248-1.377-0.4248-1.1206 0-1.7065 0.84228-0.58594 0.84229-0.59326 2.5049v0.68115q0 1.6772 0.63721 2.5342t1.8677 0.85693q1.2378 0 1.7651-0.52734v-1.8384h-1.9995v-1.6186h4.1968z" />
		<path id="path4607" d="m61.794 331.54v-10.664h3.7354q1.9409 0 2.9443 0.74707 1.0034 0.73975 1.0034 2.1753 0 0.78369-0.40283 1.3843-0.40283 0.59327-1.1206 0.87159 0.82031 0.20507 1.2891 0.82763 0.47608 0.62256 0.47608 1.5234 0 1.5381-0.98145 2.3291-0.98144 0.79102-2.7979 0.80567zm2.1973-4.6436v2.8784h1.8823q0.77637 0 1.2085-0.36621 0.43945-0.37354 0.43945-1.0254 0-1.4648-1.5161-1.4868zm0-1.5527h1.626q1.6626-0.0293 1.6626-1.3257 0-0.72509-0.4248-1.04-0.41748-0.32226-1.3257-0.32226h-1.5381z" />
		<path id="path4609" d="m71.367 331.54v-10.664h3.2812q1.4062 0 2.5122 0.63721 1.1133 0.62988 1.7358 1.8018 0.62256 1.1646 0.62256 2.6514v0.49072q0 1.4868-0.61523 2.644-0.60791 1.1572-1.7212 1.7944-1.1133 0.63721-2.5122 0.64454zm2.1973-8.8843v7.1191h1.062q1.2891 0 1.9702-0.84229 0.68115-0.84228 0.6958-2.4097v-0.56397q0-1.626-0.67383-2.4609-0.67383-0.84228-1.9702-0.84228z" />
		<path id="path4611" d="m89.765 331.54h-2.1167v-8.1592l-2.5269 0.78369v-1.7212l4.4165-1.582h0.22705z" />
		<path id="path4613" d="m100.18 323.71q0 0.77636-0.38818 1.377-0.38818 0.60058-1.0693 0.95947 0.77637 0.37354 1.2305 1.0327 0.4541 0.65185 0.4541 1.5381 0 1.4209-0.9668 2.2485-0.9668 0.82031-2.6294 0.82031-1.6626 0-2.6367-0.82764-0.97412-0.82763-0.97412-2.2412 0-0.88623 0.4541-1.5454 0.4541-0.65918 1.2231-1.0254-0.68115-0.35889-1.0693-0.95947-0.38086-0.60059-0.38086-1.377 0-1.3623 0.9082-2.168 0.9082-0.81299 2.4683-0.81299 1.5527 0 2.4609 0.80566 0.91553 0.79834 0.91553 2.1753zm-1.897 4.7534q0-0.6958-0.40283-1.1133t-1.084-0.41748q-0.67383 0-1.0767 0.41748-0.40283 0.41016-0.40283 1.1133 0 0.68116 0.39551 1.0986t1.0986 0.41748q0.68848 0 1.0767-0.40283 0.39551-0.40284 0.39551-1.1133zm-0.21973-4.6509q0-0.62255-0.32959-0.99609-0.32959-0.38086-0.93018-0.38086-0.59326 0-0.92285 0.36621t-0.32959 1.0107q0 0.63721 0.32959 1.0254 0.32959 0.38818 0.93018 0.38818t0.92285-0.38818q0.32959-0.38819 0.32959-1.0254z" />
	</g>
	<g id="text15111" fill="#fff" aria-label="96.7%">
		<path id="path4616" d="m455.18 326.92q-0.46729 0.55591-1.1199 0.89429-0.64453 0.33837-1.418 0.33837-1.0151 0-1.7725-0.49951-0.74926-0.49951-1.1602-1.4018-0.41089-0.9104-0.41089-2.0061 0-1.1763 0.44311-2.1189 0.45118-0.94263 1.273-1.4421 0.82178-0.49951 1.9175-0.49951 1.7402 0 2.7393 1.3052 1.0071 1.2971 1.0071 3.5449v0.43506q0 3.4241-1.3535 5.0032-1.3535 1.571-4.0847 1.6113h-0.29004v-1.2568h0.31421q1.845-0.0322 2.8359-0.95874 0.99096-0.93457 1.0796-2.9487zm-2.2962 0q0.74927 0 1.3777-0.45923 0.63647-0.45923 0.92651-1.136v-0.59619q0-1.4663-0.63647-2.3848-0.63648-0.91846-1.6113-0.91846-0.98291 0-1.5791 0.75732-0.59619 0.74927-0.59619 1.9819 0 1.2004 0.57202 1.9819 0.58008 0.77344 1.5469 0.77344z" />
		<path id="path4618" d="m464.58 320.34v1.2649h-0.27393q-1.7402 0.0322-2.7715 1.0312-1.0312 0.99902-1.1924 2.8118 0.92652-1.0635 2.5298-1.0635 1.5308 0 2.4412 1.0796 0.91846 1.0796 0.91846 2.7876 0 1.8128-0.99097 2.9004-0.98291 1.0876-2.6426 1.0876-1.6838 0-2.7312-1.2891-1.0474-1.2971-1.0474-3.3354v-0.57202q0-3.2388 1.3777-4.9468 1.3858-1.7161 4.117-1.7564zm-1.9578 5.2852q-0.76538 0-1.4099 0.45923t-0.89429 1.1521v0.54785q0 1.4502 0.65259 2.3364 0.65259 0.88623 1.6274 0.88623 1.0071 0 1.5791-0.74122 0.58008-0.74121 0.58008-1.9416 0-1.2085-0.58813-1.9497-0.58008-0.74927-1.5469-0.74927z" />
		<path id="path4620" d="m468.18 331.29q0-0.38671 0.22559-0.64453 0.23364-0.25781 0.69287-0.25781t0.69287 0.25781q0.2417 0.25782 0.2417 0.64453 0 0.37061-0.2417 0.62037-0.23364 0.24975-0.69287 0.24975t-0.69287-0.24975q-0.22559-0.24976-0.22559-0.62037z" />
		<path id="path4622" d="m479.91 321.18-4.8582 10.893h-1.563l4.842-10.506h-6.3486v-1.2246h7.9277z" />
		<path id="path4624" d="m481.48 322.6q0-1.0554 0.6687-1.7402 0.67676-0.68482 1.7322-0.68482 1.0715 0 1.7322 0.69287 0.6687 0.68482 0.6687 1.7805v0.57202q0 1.0635-0.67676 1.7402-0.6687 0.6687-1.708 0.6687-1.0474 0-1.7322-0.6687-0.68482-0.67676-0.68482-1.7966zm1.1118 0.62036q0 0.62842 0.35449 1.0393 0.35449 0.40283 0.95068 0.40283 0.57203 0 0.91846-0.39478 0.35449-0.39477 0.35449-1.0796v-0.58813q0-0.62842-0.34643-1.0393-0.34644-0.41089-0.94263-0.41089t-0.94263 0.41089q-0.34643 0.41089-0.34643 1.0715zm4.6003 5.978q0-1.0554 0.6687-1.7322 0.67676-0.68481 1.7322-0.68481t1.7322 0.67675q0.67675 0.67676 0.67675 1.7966v0.57203q0 1.0554-0.67675 1.7402-0.6687 0.67676-1.7161 0.67676-1.0474 0-1.7322-0.6687-0.68481-0.67676-0.68481-1.7966zm1.1118 0.62842q0 0.63647 0.35449 1.0474 0.35449 0.40283 0.95068 0.40283 0.58008 0 0.92652-0.39477 0.34643-0.40284 0.34643-1.0876v-0.59619q0-0.63648-0.35449-1.0393-0.34644-0.40283-0.93457-0.40283-0.57202 0-0.93457 0.40283-0.35449 0.39478-0.35449 1.0715zm-4.0686 1.3616-0.84594-0.53174 5.7283-9.1685 0.84594 0.53174z" />
	</g>
	<g id="text15114" fill="#fff" aria-label="RGBD 20">
		<path id="path4627" d="m45.952 354.36h-1.7505v3.9038h-2.1973v-10.664h3.9624q1.8896 0 2.915 0.84229 1.0254 0.84228 1.0254 2.3804 0 1.0913-0.47607 1.8237-0.46875 0.7251-1.4282 1.1572l2.3071 4.3579v0.10253h-2.3584zm-1.7505-1.7798h1.7725q0.82764 0 1.2817-0.41748 0.4541-0.4248 0.4541-1.1646 0-0.7544-0.43213-1.1865-0.4248-0.43213-1.311-0.43213h-1.7651z" />
		<path id="path4629" d="m60.014 356.91q-0.59326 0.71045-1.6772 1.106-1.084 0.38818-2.4023 0.38818-1.3843 0-2.4316-0.60059-1.04-0.60791-1.6113-1.7578-0.56396-1.1499-0.57861-2.7026v-0.72509q0-1.5967 0.53467-2.7612 0.54199-1.1719 1.5527-1.7871 1.0181-0.62256 2.3804-0.62256 1.897 0 2.9663 0.9082 1.0693 0.90088 1.2671 2.6294h-2.1387q-0.14648-0.91553-0.65186-1.3403-0.49805-0.4248-1.377-0.4248-1.1206 0-1.7065 0.84228-0.58594 0.84229-0.59326 2.5049v0.68115q0 1.6772 0.63721 2.5342 0.63721 0.85693 1.8677 0.85693 1.2378 0 1.7651-0.52734v-1.8384h-1.9995v-1.6186h4.1968z" />
		<path id="path4631" d="m61.794 358.26v-10.664h3.7354q1.9409 0 2.9443 0.74707 1.0034 0.73975 1.0034 2.1753 0 0.78369-0.40283 1.3843-0.40283 0.59326-1.1206 0.87158 0.82031 0.20508 1.2891 0.82764 0.47608 0.62256 0.47608 1.5234 0 1.5381-0.98145 2.3291-0.98144 0.79102-2.7979 0.80566zm2.1973-4.6436v2.8784h1.8823q0.77637 0 1.2085-0.36621 0.43945-0.37354 0.43945-1.0254 0-1.4648-1.5161-1.4868zm0-1.5527h1.626q1.6626-0.0293 1.6626-1.3257 0-0.7251-0.4248-1.04-0.41748-0.32226-1.3257-0.32226h-1.5381z" />
		<path id="path4633" d="m71.367 358.26v-10.664h3.2812q1.4062 0 2.5122 0.63721 1.1133 0.62988 1.7358 1.8018 0.62256 1.1646 0.62256 2.6514v0.49073q0 1.4868-0.61523 2.644-0.60791 1.1572-1.7212 1.7944-1.1133 0.63721-2.5122 0.64453zm2.1973-8.8843v7.1191h1.062q1.2891 0 1.9702-0.84229 0.68115-0.84228 0.6958-2.4097v-0.56396q0-1.626-0.67383-2.4609-0.67383-0.84228-1.9702-0.84228z" />
		<path id="path4635" d="m91.933 358.26h-7.3096v-1.4502l3.4497-3.6768q0.71045-0.77637 1.0474-1.355 0.34424-0.57861 0.34424-1.0986 0-0.71045-0.35889-1.1133-0.35889-0.41016-1.0254-0.41016-0.71777 0-1.1353 0.49805-0.41016 0.49072-0.41016 1.2964h-2.124q0-0.97412 0.46143-1.7798 0.46875-0.80567 1.3184-1.2598 0.84961-0.46142 1.9263-0.46142 1.6479 0 2.5562 0.79101 0.91553 0.79102 0.91553 2.2339 0 0.79102-0.41016 1.6113-0.41016 0.82031-1.4062 1.9116l-2.4243 2.5562h4.585z" />
		<path id="path4637" d="m100.41 353.85q0 2.2119-0.91552 3.3838-0.91553 1.1719-2.6807 1.1719-1.7432 0-2.666-1.1499-0.92285-1.1499-0.94482-3.2959v-1.9629q0-2.2339 0.92285-3.3911 0.93018-1.1572 2.6733-1.1572t2.666 1.1499q0.92285 1.1426 0.94482 3.2886zm-2.1167-2.1533q0-1.3257-0.36621-1.9263-0.35889-0.60791-1.1279-0.60791-0.74707 0-1.106 0.57862-0.35156 0.57129-0.37354 1.7944v2.5928q0 1.3037 0.35156 1.9409 0.35889 0.62989 1.1426 0.62989 0.77637 0 1.1206-0.60791t0.35889-1.8604z" />
	</g>
	<g id="text15117" fill="#fff" aria-label="RGBD 22">
		<path id="path4640" d="m45.952 381.08h-1.7505v3.9038h-2.1973v-10.664h3.9624q1.8896 0 2.915 0.84229 1.0254 0.84228 1.0254 2.3804 0 1.0913-0.47607 1.8237-0.46875 0.72509-1.4282 1.1572l2.3071 4.3579v0.10254h-2.3584zm-1.7505-1.7798h1.7725q0.82764 0 1.2817-0.41748 0.4541-0.42481 0.4541-1.1646 0-0.7544-0.43213-1.1865-0.4248-0.43212-1.311-0.43212h-1.7651z" />
		<path id="path4642" d="m60.014 383.63q-0.59326 0.71045-1.6772 1.106-1.084 0.38819-2.4023 0.38819-1.3843 0-2.4316-0.60059-1.04-0.60791-1.6113-1.7578-0.56396-1.1499-0.57861-2.7026v-0.7251q0-1.5967 0.53467-2.7612 0.54199-1.1719 1.5527-1.7871 1.0181-0.62255 2.3804-0.62255 1.897 0 2.9663 0.9082 1.0693 0.90088 1.2671 2.6294h-2.1387q-0.14648-0.91552-0.65186-1.3403-0.49805-0.4248-1.377-0.4248-1.1206 0-1.7065 0.84228-0.58594 0.84229-0.59326 2.5049v0.68116q0 1.6772 0.63721 2.5342 0.63721 0.85693 1.8677 0.85693 1.2378 0 1.7651-0.52734v-1.8384h-1.9995v-1.6186h4.1968z" />
		<path id="path4644" d="m61.794 384.98v-10.664h3.7354q1.9409 0 2.9443 0.74707 1.0034 0.73975 1.0034 2.1753 0 0.7837-0.40283 1.3843-0.40283 0.59326-1.1206 0.87158 0.82031 0.20508 1.2891 0.82764 0.47608 0.62256 0.47608 1.5234 0 1.5381-0.98145 2.3291-0.98144 0.79101-2.7979 0.80566zm2.1973-4.6436v2.8784h1.8823q0.77637 0 1.2085-0.36621 0.43945-0.37354 0.43945-1.0254 0-1.4648-1.5161-1.4868zm0-1.5527h1.626q1.6626-0.0293 1.6626-1.3257 0-0.7251-0.4248-1.04-0.41748-0.32226-1.3257-0.32226h-1.5381z" />
		<path id="path4646" d="m71.367 384.98v-10.664h3.2812q1.4062 0 2.5122 0.63721 1.1133 0.62988 1.7358 1.8018 0.62256 1.1646 0.62256 2.6514v0.49073q0 1.4868-0.61523 2.644-0.60791 1.1572-1.7212 1.7944-1.1133 0.63721-2.5122 0.64453zm2.1973-8.8843v7.1191h1.062q1.2891 0 1.9702-0.84229 0.68115-0.84228 0.6958-2.4097v-0.56396q0-1.626-0.67383-2.4609-0.67383-0.84228-1.9702-0.84228z" />
		<path id="path4648" d="m91.933 384.98h-7.3096v-1.4502l3.4497-3.6768q0.71045-0.77637 1.0474-1.355 0.34424-0.57861 0.34424-1.0986 0-0.71045-0.35889-1.1133-0.35889-0.41016-1.0254-0.41016-0.71777 0-1.1353 0.49805-0.41016 0.49072-0.41016 1.2964h-2.124q0-0.97412 0.46143-1.7798 0.46875-0.80567 1.3184-1.2598 0.84961-0.46142 1.9263-0.46142 1.6479 0 2.5562 0.79101 0.91553 0.79102 0.91553 2.2339 0 0.79101-0.41016 1.6113-0.41016 0.82031-1.4062 1.9116l-2.4243 2.5562h4.585z" />
		<path id="path4650" d="m100.54 384.98h-7.3096v-1.4502l3.4497-3.6768q0.71045-0.77637 1.0474-1.355 0.34424-0.57861 0.34424-1.0986 0-0.71045-0.35889-1.1133-0.35889-0.41016-1.0254-0.41016-0.71777 0-1.1353 0.49805-0.41016 0.49072-0.41016 1.2964h-2.124q0-0.97412 0.46143-1.7798 0.46875-0.80567 1.3184-1.2598 0.84961-0.46142 1.9263-0.46142 1.6479 0 2.5562 0.79101 0.91553 0.79102 0.91553 2.2339 0 0.79101-0.41016 1.6113-0.41016 0.82031-1.4062 1.9116l-2.4243 2.5562h4.585z" />
	</g>
	<g id="text15120" fill="#fff" aria-label="RGBD 24">
		<path id="path4653" d="m45.952 407.79h-1.7505v3.9038h-2.1973v-10.664h3.9624q1.8896 0 2.915 0.84228 1.0254 0.84229 1.0254 2.3804 0 1.0913-0.47607 1.8237-0.46875 0.72509-1.4282 1.1572l2.3071 4.3579v0.10254h-2.3584zm-1.7505-1.7798h1.7725q0.82764 0 1.2817-0.41748 0.4541-0.42481 0.4541-1.1646 0-0.7544-0.43213-1.1865-0.4248-0.43213-1.311-0.43213h-1.7651z" />
		<path id="path4655" d="m60.014 410.35q-0.59326 0.71045-1.6772 1.106-1.084 0.38819-2.4023 0.38819-1.3843 0-2.4316-0.60059-1.04-0.60791-1.6113-1.7578-0.56396-1.1499-0.57861-2.7026v-0.7251q0-1.5967 0.53467-2.7612 0.54199-1.1719 1.5527-1.7871 1.0181-0.62256 2.3804-0.62256 1.897 0 2.9663 0.90821 1.0693 0.90088 1.2671 2.6294h-2.1387q-0.14648-0.91553-0.65186-1.3403-0.49805-0.4248-1.377-0.4248-1.1206 0-1.7065 0.84228-0.58594 0.84229-0.59326 2.5049v0.68116q0 1.6772 0.63721 2.5342 0.63721 0.85693 1.8677 0.85693 1.2378 0 1.7651-0.52735v-1.8384h-1.9995v-1.6187h4.1968z" />
		<path id="path4657" d="m61.794 411.7v-10.664h3.7354q1.9409 0 2.9443 0.74707 1.0034 0.73974 1.0034 2.1753 0 0.78369-0.40283 1.3843-0.40283 0.59326-1.1206 0.87158 0.82031 0.20508 1.2891 0.82764 0.47608 0.62256 0.47608 1.5234 0 1.5381-0.98145 2.3291-0.98144 0.79101-2.7979 0.80566zm2.1973-4.6436v2.8784h1.8823q0.77637 0 1.2085-0.36621 0.43945-0.37353 0.43945-1.0254 0-1.4648-1.5161-1.4868zm0-1.5527h1.626q1.6626-0.0293 1.6626-1.3257 0-0.7251-0.4248-1.04-0.41748-0.32227-1.3257-0.32227h-1.5381z" />
		<path id="path4659" d="m71.367 411.7v-10.664h3.2812q1.4062 0 2.5122 0.63721 1.1133 0.62988 1.7358 1.8018 0.62256 1.1646 0.62256 2.6514v0.49072q0 1.4868-0.61523 2.644-0.60791 1.1572-1.7212 1.7944-1.1133 0.63721-2.5122 0.64453zm2.1973-8.8843v7.1191h1.062q1.2891 0 1.9702-0.84228 0.68115-0.84229 0.6958-2.4097v-0.56396q0-1.626-0.67383-2.4609-0.67383-0.84229-1.9702-0.84229z" />
		<path id="path4661" d="m91.933 411.7h-7.3096v-1.4502l3.4497-3.6768q0.71045-0.77637 1.0474-1.355 0.34424-0.57862 0.34424-1.0986 0-0.71044-0.35889-1.1133-0.35889-0.41015-1.0254-0.41015-0.71777 0-1.1353 0.49804-0.41016 0.49073-0.41016 1.2964h-2.124q0-0.97412 0.46143-1.7798 0.46875-0.80567 1.3184-1.2598 0.84961-0.46143 1.9263-0.46143 1.6479 0 2.5562 0.79102 0.91553 0.79102 0.91553 2.2339 0 0.79101-0.41016 1.6113-0.41016 0.82032-1.4062 1.9116l-2.4243 2.5562h4.585z" />
		<path id="path4663" d="m99.492 407.68h1.2085v1.7065h-1.2085v2.3071h-2.1167v-2.3071h-4.3726l-0.09521-1.333 4.4458-7.0239h2.1387zm-4.4751 0h2.3584v-3.7646l-0.13916 0.2417z" />
	</g>
	<g id="text15123" fill="#fff" aria-label="RGBD 26">
		<path id="path4666" d="m45.952 434.51h-1.7505v3.9038h-2.1973v-10.664h3.9624q1.8896 0 2.915 0.84228 1.0254 0.84229 1.0254 2.3804 0 1.0913-0.47607 1.8237-0.46875 0.7251-1.4282 1.1572l2.3071 4.3579v0.10254h-2.3584zm-1.7505-1.7798h1.7725q0.82764 0 1.2817-0.41748 0.4541-0.42481 0.4541-1.1646 0-0.75439-0.43213-1.1865-0.4248-0.43213-1.311-0.43213h-1.7651z" />
		<path id="path4668" d="m60.014 437.07q-0.59326 0.71045-1.6772 1.106-1.084 0.38818-2.4023 0.38818-1.3843 0-2.4316-0.60058-1.04-0.60791-1.6113-1.7578-0.56396-1.1499-0.57861-2.7026v-0.7251q0-1.5967 0.53467-2.7612 0.54199-1.1719 1.5527-1.7871 1.0181-0.62256 2.3804-0.62256 1.897 0 2.9663 0.90821 1.0693 0.90087 1.2671 2.6294h-2.1387q-0.14648-0.91553-0.65186-1.3403-0.49805-0.42481-1.377-0.42481-1.1206 0-1.7065 0.84229-0.58594 0.84228-0.59326 2.5049v0.68115q0 1.6772 0.63721 2.5342 0.63721 0.85694 1.8677 0.85694 1.2378 0 1.7651-0.52735v-1.8384h-1.9995v-1.6186h4.1968z" />
		<path id="path4670" d="m61.794 438.42v-10.664h3.7354q1.9409 0 2.9443 0.74707 1.0034 0.73974 1.0034 2.1753 0 0.78369-0.40283 1.3843-0.40283 0.59326-1.1206 0.87158 0.82031 0.20508 1.2891 0.82764 0.47608 0.62256 0.47608 1.5234 0 1.5381-0.98145 2.3291-0.98144 0.79101-2.7979 0.80566zm2.1973-4.6436v2.8784h1.8823q0.77637 0 1.2085-0.36621 0.43945-0.37353 0.43945-1.0254 0-1.4648-1.5161-1.4868zm0-1.5527h1.626q1.6626-0.0293 1.6626-1.3257 0-0.7251-0.4248-1.04-0.41748-0.32227-1.3257-0.32227h-1.5381z" />
		<path id="path4672" d="m71.367 438.42v-10.664h3.2812q1.4062 0 2.5122 0.6372 1.1133 0.62989 1.7358 1.8018 0.62256 1.1646 0.62256 2.6514v0.49072q0 1.4868-0.61523 2.644-0.60791 1.1572-1.7212 1.7944-1.1133 0.63721-2.5122 0.64453zm2.1973-8.8843v7.1191h1.062q1.2891 0 1.9702-0.84228 0.68115-0.84229 0.6958-2.4097v-0.56397q0-1.626-0.67383-2.4609-0.67383-0.84229-1.9702-0.84229z" />
		<path id="path4674" d="m91.933 438.42h-7.3096v-1.4502l3.4497-3.6768q0.71045-0.77637 1.0474-1.355 0.34424-0.57862 0.34424-1.0986 0-0.71045-0.35889-1.1133-0.35889-0.41015-1.0254-0.41015-0.71777 0-1.1353 0.49804-0.41016 0.49073-0.41016 1.2964h-2.124q0-0.97412 0.46143-1.7798 0.46875-0.80566 1.3184-1.2598 0.84961-0.46143 1.9263-0.46143 1.6479 0 2.5562 0.79102 0.91553 0.79101 0.91553 2.2339 0 0.79101-0.41016 1.6113-0.41016 0.82032-1.4062 1.9116l-2.4243 2.5562h4.585z" />
		<path id="path4676" d="m98.972 427.64v1.7432h-0.20508q-1.4355 0.022-2.3145 0.74707-0.87158 0.7251-1.0474 2.0142 0.84961-0.86426 2.146-0.86426 1.3916 0 2.2119 0.99609 0.82031 0.9961 0.82031 2.6221 0 1.04-0.4541 1.8823-0.44678 0.84228-1.2744 1.311-0.82031 0.46875-1.8604 0.46875-1.6846 0-2.7246-1.1719-1.0327-1.1719-1.0327-3.1274v-0.76172q0-1.7358 0.65186-3.0615 0.65918-1.333 1.8823-2.0581 1.2305-0.73242 2.8491-0.73975zm-2.0654 5.3394q-0.5127 0-0.93018 0.271-0.41748 0.26367-0.61524 0.70312v0.64453q0 1.062 0.41748 1.6626 0.41748 0.59326 1.1719 0.59326 0.68115 0 1.0986-0.53467 0.4248-0.54199 0.4248-1.3989 0-0.87158-0.4248-1.4062-0.4248-0.53467-1.1426-0.53467z" />
	</g>
	<defs id="defs15131">
		<clipPath id="p3a3df86474">
			<rect id="rect15128" x="90" y="69.12" width="558" height="443.52" />
		</clipPath>
	</defs>
	<g id="g10065" transform="translate(-57.318 -58.193)" fill="#262626" stroke-linejoin="round">
		<path id="path10019" d="m591.57 530.43h-5.8081l-1.3044 3.6182h-1.8852l5.294-13.863h1.5996l5.3035 13.863h-1.8757zm-5.2559-1.5044h4.7131l-2.3613-6.4841z" />
		<path id="path10021" d="m598.46 528.62v5.4272h-1.8281v-13.863h5.113q2.2756 0 3.561 1.1616 1.2949 1.1616 1.2949 3.0754 0 2.0186-1.2664 3.1135-1.2568 1.0854-3.6086 1.0854zm0-1.4949h3.2849q1.4663 0 2.2471-0.68554 0.78076-0.69507 0.78076-1.9995 0-1.2378-0.78076-1.9805-0.78076-0.74268-2.1423-0.77124h-3.3896z" />
		<path id="path10023" d="m613.42 527.07q0-2.1519 0.57129-4.1323 0.58081-1.9805 1.7234-3.5991t2.3708-2.2852l0.36181 1.1616q-1.3901 1.0664-2.2852 3.2563-0.8855 2.1899-0.97119 4.9036l-0.01 0.80932q0 3.6753 1.3425 6.3794 0.80933 1.6186 1.9233 2.5327l-0.36181 1.0759q-1.2664-0.70459-2.4185-2.3613-2.2471-3.2373-2.2471-7.741z" />
		<path id="path10025" d="m619.82 521.5q0-1.2473 0.79028-2.0566 0.79981-0.80933 2.0471-0.80933 1.2664 0 2.0471 0.81885 0.79028 0.80932 0.79028 2.1042v0.67602q0 1.2568-0.7998 2.0566-0.79029 0.79029-2.0186 0.79029-1.2378 0-2.0471-0.79029-0.80932-0.7998-0.80932-2.1233zm1.314 0.73315q0 0.74268 0.41895 1.2283 0.41894 0.47608 1.1235 0.47608 0.67603 0 1.0854-0.46656 0.41895-0.46655 0.41895-1.2759v-0.69507q0-0.74268-0.40943-1.2283-0.40942-0.4856-1.114-0.4856t-1.114 0.4856q-0.40943 0.48559-0.40943 1.2664zm5.4368 7.0649q0-1.2473 0.79028-2.0471 0.79981-0.80932 2.0471-0.80932 1.2473 0 2.0471 0.7998 0.79981 0.79981 0.79981 2.1233v0.67603q0 1.2473-0.79981 2.0566-0.79028 0.7998-2.0281 0.7998-1.2378 0-2.0471-0.79028-0.80933-0.7998-0.80933-2.1233zm1.314 0.74268q0 0.7522 0.41895 1.2378 0.41895 0.47608 1.1235 0.47608 0.68554 0 1.095-0.46656 0.40942-0.47607 0.40942-1.2854v-0.70459q0-0.75219-0.41895-1.2283-0.40942-0.47607-1.1045-0.47607-0.67602 0-1.1045 0.47607-0.41895 0.46655-0.41895 1.2664zm-4.8083 1.6091-0.99976-0.62842 6.7698-10.835 0.99976 0.62842z" />
		<path id="path10027" d="m638.5 527.17q0 2.1233-0.56177 4.0752-0.55224 1.9424-1.7043 3.5896-1.1426 1.6472-2.3994 2.3423l-0.37134-1.0759q1.4663-1.1235 2.3518-3.4849 0.89502-2.3708 0.91406-5.2559v-0.30469q0-1.9995-0.41894-3.7134-0.41895-1.7234-1.1711-3.085-0.74268-1.3616-1.6758-2.1233l0.37134-1.0759q1.2568 0.69507 2.3899 2.3232 1.1426 1.6282 1.7043 3.5896 0.57129 1.9614 0.57129 4.199z" />
	</g>
</svg>
