<?xml version="1.0" encoding="UTF-8"?>
<svg width="605.92pt" height="488.99pt" version="1.1" viewBox="0 0 605.92 488.99" xmlns="http://www.w3.org/2000/svg" xmlns:xlink="http://www.w3.org/1999/xlink">
	<defs>
		<path id="m59aa6e5f07" d="m4.5 0-9-4.5v9z" stroke="#262626" />
		<clipPath id="clip-m59aa6e5f07">
			<rect x="43.068" y="0" width="800" height="600" transform="scale(0.75)" />
		</clipPath>
	</defs>
	<g id="g2874" transform="translate(-57.699 -62.2)" fill="#262626">
		<g id="text1435" aria-label="70">
			<path id="path1397" d="m89.355 525.81-5.0112 11.175h-1.0071l4.979-10.909h-6.6709v-0.82178h7.7102z" />
			<path id="path1399" d="m98.347 532.1q0 2.4814-0.9104 3.7705-0.9104 1.281-2.6829 1.281-1.7402 0-2.6667-1.2568-0.92651-1.2649-0.95068-3.6738v-2.1028q0-2.4734 0.91846-3.7463t2.6829-1.273q1.7402 0 2.6587 1.2327 0.91846 1.2246 0.95068 3.6174zm-0.9668-2.1028q0-2.0142-0.66064-3.0454-0.65259-1.0312-1.9819-1.0312-1.3052 0-1.9658 1.0071-0.66064 1.0071-0.67676 2.9729v2.3042q0 2.0061 0.67676 3.0696 0.68482 1.0635 1.9819 1.0635 1.2891 0 1.9497-1.0393 0.6687-1.0393 0.67676-3.0454z" />
		</g>
		<g id="text1439" aria-label="75">
			<path id="path1402" d="m228.8 525.83-5.0112 11.175h-1.0071l4.979-10.909h-6.6709v-0.82177h7.7102z" />
			<path id="path1404" d="m231.37 531 0.57202-5.7202h5.8652v0.89428h-5.0354l-0.41089 3.9639q0.94263-0.64453 2.2075-0.64453 1.5872 0 2.5298 1.0312 0.94263 1.0312 0.94263 2.7473 0 1.853-0.91846 2.8762-0.91845 1.0232-2.5862 1.0232-1.5308 0-2.4814-0.85401-0.95069-0.854-1.0876-2.3928h0.92651q0.13697 1.2004 0.81372 1.8208 0.67676 0.61231 1.8289 0.61231 1.2568 0 1.8933-0.79761 0.64453-0.79761 0.64453-2.272 0-1.2891-0.71704-2.1028t-1.9578-0.81372q-0.68482 0-1.1924 0.17725-0.50757 0.16919-1.0715 0.6687z" />
		</g>
		<g id="text1443" aria-label="80">
			<path id="path1407" d="m367.87 528.28q0 0.91041-0.53174 1.6355-0.53173 0.71704-1.4018 1.0554 1.0151 0.34644 1.6274 1.1199 0.6123 0.77343 0.6123 1.7886 0 1.5066-1.0232 2.3928-1.0232 0.87818-2.707 0.87818-1.7 0-2.7231-0.87818-1.0151-0.87817-1.0151-2.3928 0-0.99902 0.58813-1.7805 0.58814-0.78149 1.6113-1.1279-0.87012-0.33838-1.3857-1.0554-0.51563-0.72509-0.51563-1.6355 0-1.4582 0.93457-2.3203 0.94263-0.86206 2.4895-0.86206 1.5469 0 2.4895 0.87012 0.95068 0.87012 0.95068 2.3122zm-0.66064 5.6074q0-1.0957-0.7815-1.7966-0.78149-0.70899-1.998-0.70899-1.2166 0-1.99 0.69287-0.77344 0.69287-0.77344 1.8128 0 1.1199 0.74927 1.7886 0.74926 0.66065 2.0303 0.66065 1.2488 0 2.0061-0.66065 0.75733-0.66064 0.75733-1.7886zm-0.30615-5.6155q0-1.0071-0.70093-1.6758-0.69287-0.67676-1.7725-0.67676-1.0957 0-1.7805 0.65259-0.67676 0.64453-0.67676 1.7 0 1.0312 0.67676 1.6597 0.68481 0.62841 1.7886 0.62841 1.0876 0 1.7725-0.62841 0.69288-0.63648 0.69288-1.6597z" />
			<path id="path1409" d="m377.17 532.1q0 2.4814-0.9104 3.7705-0.9104 1.281-2.6829 1.281-1.7402 0-2.6668-1.2568-0.92651-1.2649-0.95068-3.6738v-2.1028q0-2.4734 0.91846-3.7463 0.91845-1.273 2.6829-1.273 1.7402 0 2.6587 1.2327 0.91846 1.2246 0.95068 3.6174zm-0.96679-2.1028q0-2.0142-0.66065-3.0454-0.65259-1.0312-1.9819-1.0312-1.3052 0-1.9658 1.0071-0.66065 1.0071-0.67676 2.9729v2.3042q0 2.0061 0.67676 3.0696 0.68481 1.0635 1.9819 1.0635 1.2891 0 1.9497-1.0393 0.6687-1.0393 0.67676-3.0454z" />
		</g>
		<g id="text1447" aria-label="85">
			<path id="path1412" d="m507.31 528.28q0 0.91041-0.53174 1.6355-0.53174 0.71704-1.4019 1.0554 1.0151 0.34644 1.6274 1.1199 0.61231 0.77343 0.61231 1.7886 0 1.5066-1.0232 2.3928-1.0232 0.87818-2.707 0.87818-1.7 0-2.7231-0.87818-1.0151-0.87817-1.0151-2.3928 0-0.99902 0.58814-1.7805 0.58813-0.78149 1.6113-1.1279-0.87012-0.33838-1.3858-1.0554-0.51562-0.72509-0.51562-1.6355 0-1.4582 0.93457-2.3203 0.94263-0.86206 2.4895-0.86206 1.5469 0 2.4895 0.87012 0.95069 0.87012 0.95069 2.3122zm-0.66065 5.6074q0-1.0957-0.78149-1.7966-0.7815-0.70899-1.998-0.70899t-1.99 0.69287-0.77344 1.8128q0 1.1199 0.74927 1.7886 0.74927 0.66065 2.0303 0.66065 1.2488 0 2.0061-0.66065 0.75732-0.66064 0.75732-1.7886zm-0.30615-5.6155q0-1.0071-0.70093-1.6758-0.69287-0.67676-1.7725-0.67676-1.0957 0-1.7805 0.65259-0.67675 0.64453-0.67675 1.7 0 1.0312 0.67675 1.6597 0.68482 0.62841 1.7886 0.62841 1.0876 0 1.7725-0.62841 0.69287-0.63648 0.69287-1.6597z" />
			<path id="path1414" d="m510.19 530.98 0.57203-5.7202h5.8652v0.89429h-5.0354l-0.41089 3.9639q0.94263-0.64453 2.2075-0.64453 1.5872 0 2.5298 1.0312 0.94262 1.0312 0.94262 2.7473 0 1.853-0.91845 2.8762-0.91846 1.0232-2.5862 1.0232-1.5308 0-2.4814-0.85401-0.95068-0.854-1.0876-2.3928h0.92652q0.13696 1.2004 0.81372 1.8208 0.67675 0.61231 1.8288 0.61231 1.2568 0 1.8933-0.79761 0.64454-0.79761 0.64454-2.272 0-1.2891-0.71704-2.1028-0.71705-0.81372-1.9578-0.81372-0.68481 0-1.1924 0.17725-0.50757 0.16919-1.0715 0.6687z" />
		</g>
	</g>
	<g id="g10065" transform="translate(-57.699 -58.182)" fill="#262626">
		<path id="path10019" d="m591.57 530.43h-5.8081l-1.3044 3.6182h-1.8852l5.294-13.863h1.5996l5.3035 13.863h-1.8757zm-5.2559-1.5044h4.7131l-2.3613-6.4841z" />
		<path id="path10021" d="m598.46 528.62v5.4272h-1.8281v-13.863h5.113q2.2756 0 3.561 1.1616 1.2949 1.1616 1.2949 3.0754 0 2.0186-1.2664 3.1135-1.2568 1.0854-3.6086 1.0854zm0-1.4949h3.2849q1.4663 0 2.2471-0.68554 0.78076-0.69507 0.78076-1.9995 0-1.2378-0.78076-1.9805-0.78076-0.74268-2.1423-0.77124h-3.3896z" />
		<path id="path10023" d="m613.42 527.07q0-2.1519 0.57129-4.1323 0.58081-1.9805 1.7234-3.5991t2.3708-2.2852l0.36181 1.1616q-1.3901 1.0664-2.2852 3.2563-0.8855 2.1899-0.97119 4.9036l-0.01 0.80932q0 3.6753 1.3425 6.3794 0.80933 1.6186 1.9233 2.5327l-0.36181 1.0759q-1.2664-0.70459-2.4185-2.3613-2.2471-3.2373-2.2471-7.741z" />
		<path id="path10025" d="m619.82 521.5q0-1.2473 0.79028-2.0566 0.79981-0.80933 2.0471-0.80933 1.2664 0 2.0471 0.81885 0.79028 0.80932 0.79028 2.1042v0.67602q0 1.2568-0.7998 2.0566-0.79029 0.79029-2.0186 0.79029-1.2378 0-2.0471-0.79029-0.80932-0.7998-0.80932-2.1233zm1.314 0.73315q0 0.74268 0.41895 1.2283 0.41894 0.47608 1.1235 0.47608 0.67603 0 1.0854-0.46656 0.41895-0.46655 0.41895-1.2759v-0.69507q0-0.74268-0.40943-1.2283-0.40942-0.4856-1.114-0.4856t-1.114 0.4856q-0.40943 0.48559-0.40943 1.2664zm5.4368 7.0649q0-1.2473 0.79028-2.0471 0.79981-0.80932 2.0471-0.80932 1.2473 0 2.0471 0.7998 0.79981 0.79981 0.79981 2.1233v0.67603q0 1.2473-0.79981 2.0566-0.79028 0.7998-2.0281 0.7998-1.2378 0-2.0471-0.79028-0.80933-0.7998-0.80933-2.1233zm1.314 0.74268q0 0.7522 0.41895 1.2378 0.41895 0.47608 1.1235 0.47608 0.68554 0 1.095-0.46656 0.40942-0.47607 0.40942-1.2854v-0.70459q0-0.75219-0.41895-1.2283-0.40942-0.47607-1.1045-0.47607-0.67602 0-1.1045 0.47607-0.41895 0.46655-0.41895 1.2664zm-4.8083 1.6091-0.99976-0.62842 6.7698-10.835 0.99976 0.62842z" />
		<path id="path10027" d="m638.5 527.17q0 2.1233-0.56177 4.0752-0.55224 1.9424-1.7043 3.5896-1.1426 1.6472-2.3994 2.3423l-0.37134-1.0759q1.4663-1.1235 2.3518-3.4849 0.89502-2.3708 0.91406-5.2559v-0.30469q0-1.9995-0.41894-3.7134-0.41895-1.7234-1.1711-3.085-0.74268-1.3616-1.6758-2.1233l0.37134-1.0759q1.2568 0.69507 2.3899 2.3232 1.1426 1.6282 1.7043 3.5896 0.57129 1.9614 0.57129 4.199z" />
	</g>
	<g id="text1471" transform="rotate(-90)" fill="#262626" aria-label="RELABELED EPFL">
		<path id="path1417" d="m-157.88 18.255h-3.2564v5.6082h-1.8376v-13.863h4.5894q2.3423 0 3.5991 1.0664 1.2664 1.0664 1.2664 3.104 0 1.2949-0.70459 2.2566-0.69507 0.96167-1.9424 1.4377l3.2563 5.8843v0.11426h-1.9614zm-3.2564-1.4949h2.8088q1.3616 0 2.1614-0.70459 0.80932-0.70459 0.80932-1.8853 0-1.2854-0.77124-1.9709-0.76172-0.68555-2.209-0.69507h-2.7993z" />
		<path id="path1419" d="m-143.12 17.455h-6.0081v4.9131h6.9792v1.4949h-8.8074v-13.863h8.7122v1.5044h-6.884v4.4561h6.0081z" />
		<path id="path1421" d="m-138.04 22.368h6.5698v1.4949h-8.4075v-13.863h1.8376z" />
		<path id="path1423" d="m-121.55 20.245h-5.8081l-1.3044 3.6182h-1.8852l5.294-13.863h1.5996l5.3035 13.863h-1.8757zm-5.2559-1.5044h4.7131l-2.3613-6.4841z" />
		<path id="path1425" d="m-116.48 23.863v-13.863h4.5322q2.2566 0 3.3896 0.9331 1.1426 0.93311 1.1426 2.7612 0 0.97119-0.55225 1.7234-0.55225 0.74268-1.5044 1.1521 1.1235 0.31421 1.771 1.1997 0.65698 0.87598 0.65698 2.0947 0 1.8662-1.2092 2.9326-1.2092 1.0664-3.4182 1.0664zm1.8281-6.4841v4.9893h3.0183q1.2759 0 2.009-0.65698 0.74268-0.6665 0.74268-1.8281 0-2.5042-2.7232-2.5042zm0-1.4663h2.7612q1.1997 0 1.9138-0.59985 0.72363-0.59985 0.72363-1.6282 0-1.1426-0.6665-1.6567-0.66651-0.52368-2.0281-0.52368h-2.7041z" />
		<path id="path1427" d="m-96.508 17.455h-6.0081v4.9131h6.9792v1.4949h-8.8074v-13.863h8.7122v1.5044h-6.884v4.4561h6.0081z" />
		<path id="path1429" d="m-91.423 22.368h6.5698v1.4949h-8.4075v-13.863h1.8376z" />
		<path id="path1431" d="m-74.932 17.455h-6.0081v4.9131h6.9792v1.4949h-8.8074v-13.863h8.7122v1.5044h-6.884v4.4561h6.0081z" />
		<path id="path1433" d="m-71.685 23.863v-13.863h3.9133q1.8091 0 3.1992 0.7998 1.3901 0.7998 2.1423 2.2756 0.76172 1.4758 0.77124 3.3896v0.8855q0 1.9614-0.76172 3.4373-0.7522 1.4758-2.1614 2.2661-1.3997 0.79028-3.2659 0.80933zm1.8281-12.359v10.864h1.9233q2.1138 0 3.2849-1.314 1.1807-1.314 1.1807-3.7419v-0.80933q0-2.3613-1.114-3.6658-1.1045-1.314-3.1421-1.333z" />
		<path id="path1435" d="m-46.234 17.455h-6.0081v4.9131h6.9792v1.4949h-8.8074v-13.863h8.7122v1.5044h-6.884v4.4561h6.0081z" />
		<path id="path1437" d="m-41.159 18.436v5.4272h-1.8281v-13.863h5.113q2.2756 0 3.561 1.1616 1.2949 1.1616 1.2949 3.0754 0 2.0186-1.2664 3.1135-1.2568 1.0854-3.6086 1.0854zm0-1.4949h3.2849q1.4663 0 2.2471-0.68555 0.78076-0.69507 0.78076-1.9995 0-1.2378-0.78076-1.9805-0.78076-0.74268-2.1423-0.77124h-3.3896z" />
		<path id="path1439" d="m-23.04 17.741h-5.8176v6.1223h-1.8281v-13.863h8.5884v1.5044h-6.7603v4.7417h5.8176z" />
		<path id="path1441" d="m-18.07 22.368h6.5698v1.4949h-8.4075v-13.863h1.8376z" />
	</g>
	<g clip-path="url(#clip-m59aa6e5f07)">
		<g transform="scale(.75)">
			<path id="path1475" d="m43.068 28.832v28.5h437.2v-28.5h-437.2z" fill="#5875a4" stroke="#fff" stroke-width="2" />
			<path id="path1526" d="m43.068 64.457v28.5h537.23v-28.5h-537.23z" fill="#cc8963" stroke="#fff" stroke-width="2" />
			<path id="path1577" d="m43.068 100.08v28.498h472.01v-28.498h-472.01z" fill="#5f9e6e" stroke="#fff" stroke-width="2" />
			<path id="path1580" d="m43.068 135.71v28.5h516.86v-28.5h-516.86z" fill="#5f9e6e" stroke="#fff" stroke-width="2" />
			<path id="path1583" d="m43.068 171.33v28.498h504.47v-28.498h-504.47z" fill="#5f9e6e" stroke="#fff" stroke-width="2" />
			<path id="path1586" d="m43.068 206.95v28.5h517.09v-28.5h-517.09z" fill="#5f9e6e" stroke="#fff" stroke-width="2" />
			<path id="path1589" d="m43.068 242.58v28.498h529.17v-28.498h-529.17z" fill="#5f9e6e" stroke="#fff" stroke-width="2" />
			<path id="path1592" d="m43.068 278.2v28.5h544.22v-28.5h-544.22z" fill="#5f9e6e" stroke="#fff" stroke-width="2" />
			<path id="path1595" d="m43.068 313.83v28.498h573.1v-28.498h-573.1z" fill="#5f9e6e" stroke="#fff" stroke-width="2" />
			<path id="path1598" d="m43.068 349.45v28.5h577.29v-28.5h-577.29z" fill="#5f9e6e" stroke="#fff" stroke-width="2" />
			<path id="path1601" d="m43.068 385.07v28.498h560.88v-28.498h-560.88z" fill="#5f9e6e" stroke="#fff" stroke-width="2" />
			<path id="path1604" d="m43.068 420.7v28.5h610.55v-28.5h-610.55z" fill="#5f9e6e" stroke="#fff" stroke-width="2" />
			<path id="path1607" d="m43.068 456.32v28.5h530.15v-28.5h-530.15z" fill="#5f9e6e" stroke="#fff" stroke-width="2" />
			<path id="path1610" d="m43.068 491.95v28.5h506.81v-28.5h-506.81z" fill="#5f9e6e" stroke="#fff" stroke-width="2" />
			<path id="path1613" d="m43.068 527.57v28.5h545.95v-28.5h-545.95z" fill="#5f9e6e" stroke="#fff" stroke-width="2" />
			<path id="path1616" d="m43.068 563.2v28.498h505.64v-28.498h-505.64z" fill="#5f9e6e" stroke="#fff" stroke-width="2" />
		</g>
	</g>
	<use id="use1766" transform="translate(-57.699 -58.182)" x="648" y="512.64001" width="100%" height="100%" fill="#262626" stroke="#262626" xlink:href="#m59aa6e5f07" />
	<path id="path1771" d="m32.301 454.46v-443.52" fill="none" stroke="#262626" stroke-linecap="square" stroke-width="1.875" />
	<path id="path1774" d="m32.301 454.46h558" fill="none" stroke="#262626" stroke-linecap="square" stroke-width="1.875" />
	<g id="text1777" fill="#fff" aria-label="RGB">
		<path id="path1444" d="m45.081 33.597h-1.5754v3.5134h-1.9775v-9.5977h3.5662q1.7007 0 2.6235 0.75806 0.92285 0.75806 0.92285 2.1423 0 0.98218-0.42847 1.6414-0.42188 0.65259-1.2854 1.0415l2.0764 3.9221v0.09228h-2.1226zm-1.5754-1.6018h1.5952q0.74487 0 1.1536-0.37573 0.40869-0.38232 0.40869-1.0481 0-0.67896-0.38892-1.0679-0.38232-0.38892-1.1799-0.38892h-1.5886z" />
		<path id="path1446" d="m57.737 35.898q-0.53394 0.6394-1.5095 0.99536-0.97559 0.34936-2.1621 0.34936-1.2458 0-2.1885-0.54053-0.93604-0.54712-1.4502-1.582-0.50757-1.0349-0.52075-2.4324v-0.65259q0-1.437 0.4812-2.4851 0.48779-1.0547 1.3975-1.6084 0.91626-0.5603 2.1423-0.5603 1.7073 0 2.6697 0.81738 0.9624 0.81079 1.1404 2.3665h-1.9248q-0.13184-0.82397-0.58667-1.2063-0.44824-0.38232-1.2393-0.38232-1.0085 0-1.5359 0.75806-0.52734 0.75806-0.53394 2.2544v0.61304q0 1.5095 0.57349 2.2808 0.57349 0.77124 1.6809 0.77124 1.114 0 1.5886-0.47461v-1.6545h-1.7996v-1.4568h3.7771z" />
		<path id="path1448" d="m59.339 37.111v-9.5977h3.3618q1.7468 0 2.6499 0.67236 0.90308 0.66577 0.90308 1.9578 0 0.70532-0.36255 1.2458-0.36255 0.53394-1.0085 0.78442 0.73828 0.18457 1.1602 0.74487 0.42847 0.5603 0.42847 1.3711 0 1.3843-0.8833 2.0962t-2.5181 0.7251zm1.9775-4.1792v2.5906h1.6941q0.69873 0 1.0876-0.32959 0.39551-0.33618 0.39551-0.92285 0-1.3184-1.3645-1.3381zm0-1.3975h1.4634q1.4963-0.02637 1.4963-1.1931 0-0.65259-0.38232-0.93604-0.37573-0.29004-1.1931-0.29004h-1.3843z" />
	</g>
	<g id="text1780" fill="#fff" aria-label="81.8%">
		<path id="path1451" d="m319.53 29.508q0 0.87817-0.46729 1.563-0.45923 0.68481-1.2488 1.0715 0.91846 0.39478 1.4502 1.1521 0.53979 0.75732 0.53979 1.7161 0 1.5227-1.0312 2.425-1.0232 0.90234-2.699 0.90234-1.6919 0-2.7151-0.90234-1.0151-0.9104-1.0151-2.425 0-0.95068 0.51562-1.7161 0.52368-0.76538 1.4421-1.1602-0.7815-0.38672-1.2327-1.0715t-0.45117-1.5549q0-1.4824 0.95068-2.3525 0.95069-0.87012 2.5056-0.87012 1.5469 0 2.4976 0.87012 0.95874 0.87012 0.95874 2.3525zm-1.2166 5.4705q0-0.98291-0.62842-1.6033-0.62036-0.62036-1.6274-0.62036t-1.6194 0.6123q-0.60425 0.6123-0.60425 1.6113 0 0.99902 0.58814 1.571 0.59619 0.57202 1.6516 0.57202 1.0474 0 1.6436-0.57202 0.5962-0.58008 0.5962-1.571zm-2.2398-7.4685q-0.87817 0-1.426 0.54785-0.53979 0.5398-0.53979 1.4744 0 0.89429 0.53174 1.4502 0.53979 0.54785 1.4341 0.54785t1.426-0.54785q0.53979-0.55591 0.53979-1.4502t-0.55591-1.4583q-0.55591-0.56396-1.4099-0.56396z" />
		<path id="path1453" d="m326.58 38.177h-1.4985v-9.9338l-3.0051 1.1038v-1.3535l4.27-1.6033h0.23364z" />
		<path id="path1455" d="m331.14 37.396q0-0.38672 0.22559-0.64453 0.23364-0.25781 0.69287-0.25781t0.69287 0.25781q0.2417 0.25781 0.2417 0.64453 0 0.3706-0.2417 0.62036-0.23364 0.24976-0.69287 0.24976t-0.69287-0.24976q-0.22559-0.24976-0.22559-0.62036z" />
		<path id="path1457" d="m342.41 29.508q0 0.87817-0.46728 1.563-0.45923 0.68481-1.2488 1.0715 0.91845 0.39478 1.4502 1.1521 0.5398 0.75732 0.5398 1.7161 0 1.5227-1.0312 2.425-1.0232 0.90234-2.699 0.90234-1.6919 0-2.7151-0.90234-1.0151-0.9104-1.0151-2.425 0-0.95068 0.51562-1.7161 0.52368-0.76538 1.4421-1.1602-0.78149-0.38672-1.2327-1.0715-0.45118-0.68481-0.45118-1.5549 0-1.4824 0.95069-2.3525 0.95068-0.87012 2.5056-0.87012 1.5469 0 2.4976 0.87012 0.95874 0.87012 0.95874 2.3525zm-1.2166 5.4705q0-0.98291-0.62842-1.6033-0.62036-0.62036-1.6274-0.62036t-1.6194 0.6123q-0.60424 0.6123-0.60424 1.6113 0 0.99902 0.58813 1.571 0.59619 0.57202 1.6516 0.57202 1.0474 0 1.6436-0.57202 0.59619-0.58008 0.59619-1.571zm-2.2398-7.4685q-0.87817 0-1.426 0.54785-0.5398 0.5398-0.5398 1.4744 0 0.89429 0.53174 1.4502 0.5398 0.54785 1.4341 0.54785 0.89429 0 1.426-0.54785 0.53979-0.55591 0.53979-1.4502t-0.55591-1.4583q-0.5559-0.56396-1.4099-0.56396z" />
		<path id="path1459" d="m344.43 28.703q0-1.0554 0.6687-1.7402 0.67676-0.68482 1.7322-0.68482 1.0715 0 1.7322 0.69287 0.66871 0.68481 0.66871 1.7805v0.57202q0 1.0635-0.67676 1.7402-0.6687 0.6687-1.708 0.6687-1.0474 0-1.7322-0.6687-0.68481-0.67676-0.68481-1.7966zm1.1118 0.62036q0 0.62842 0.3545 1.0393 0.35449 0.40283 0.95068 0.40283 0.57202 0 0.91846-0.39478 0.35449-0.39478 0.35449-1.0796v-0.58814q0-0.62842-0.34644-1.0393-0.34643-0.41089-0.94262-0.41089t-0.94263 0.41089q-0.34644 0.41089-0.34644 1.0715zm4.6004 5.978q0-1.0554 0.6687-1.7322 0.67676-0.68481 1.7322-0.68481t1.7322 0.67676q0.67676 0.67676 0.67676 1.7966v0.57202q0 1.0554-0.67676 1.7402-0.6687 0.67676-1.7161 0.67676t-1.7322-0.6687q-0.68481-0.67676-0.68481-1.7966zm1.1118 0.62842q0 0.63648 0.35449 1.0474 0.3545 0.40283 0.95069 0.40283 0.58008 0 0.92651-0.39478 0.34644-0.40283 0.34644-1.0876v-0.59619q0-0.63648-0.35449-1.0393-0.34644-0.40283-0.93457-0.40283-0.57203 0-0.93458 0.40283-0.35449 0.39478-0.35449 1.0715zm-4.0686 1.3616-0.84595-0.53174 5.7283-9.1685 0.84595 0.53174z" />
	</g>
	<g id="text1783" fill="#fff" aria-label="D">
		<path id="path1462" d="m41.528 63.829v-9.5977h2.9531q1.2656 0 2.261 0.57349 1.002 0.5669 1.5623 1.6216 0.5603 1.0481 0.5603 2.3862v0.44165q0 1.3381-0.55371 2.3796-0.54712 1.0415-1.5491 1.615t-2.261 0.58008zm1.9775-7.9958v6.4072h0.95581q1.1602 0 1.7732-0.75806 0.61304-0.75806 0.62622-2.1687v-0.50757q0-1.4634-0.60644-2.2148-0.60644-0.75806-1.7732-0.75806z" fill="#fff" />
	</g>
	<g id="text1786" fill="#fff" aria-label="84.4%">
		<path id="path1465" d="m394.56 56.226q0 0.87817-0.46728 1.563-0.45923 0.68481-1.2488 1.0715 0.91845 0.39478 1.4502 1.1521 0.5398 0.75732 0.5398 1.7161 0 1.5227-1.0312 2.425-1.0232 0.90234-2.699 0.90234-1.6919 0-2.7151-0.90234-1.0151-0.9104-1.0151-2.425 0-0.95068 0.51562-1.7161 0.52368-0.76538 1.4421-1.1602-0.78149-0.38672-1.2327-1.0715-0.45117-0.68481-0.45117-1.5549 0-1.4824 0.95069-2.3525 0.95068-0.87012 2.5056-0.87012 1.5469 0 2.4976 0.87012 0.95874 0.87012 0.95874 2.3525zm-1.2166 5.4705q0-0.98291-0.62842-1.6033-0.62036-0.62036-1.6274-0.62036t-1.6194 0.6123q-0.60424 0.6123-0.60424 1.6113 0 0.99902 0.58813 1.571 0.59619 0.57202 1.6516 0.57202 1.0474 0 1.6436-0.57202 0.59619-0.58008 0.59619-1.571zm-2.2398-7.4685q-0.87817 0-1.426 0.54785-0.5398 0.5398-0.5398 1.4744 0 0.89429 0.53174 1.4502 0.53979 0.54785 1.4341 0.54785t1.426-0.54785q0.53979-0.55591 0.53979-1.4502t-0.55591-1.4583q-0.5559-0.56396-1.4099-0.56396z" />
		<path id="path1467" d="m403 60.956h1.6274v1.2166h-1.6274v2.7231h-1.4985v-2.7231h-5.3416v-0.87817l5.2529-8.1292h1.5872zm-5.1482 0h3.6496v-5.7524l-0.17724 0.32227z" />
		<path id="path1469" d="m406.16 64.114q0-0.38672 0.22559-0.64453 0.23364-0.25781 0.69287-0.25781t0.69287 0.25781q0.2417 0.25781 0.2417 0.64453 0 0.3706-0.2417 0.62036-0.23364 0.24976-0.69287 0.24976t-0.69287-0.24976q-0.22559-0.24976-0.22559-0.62036z" />
		<path id="path1471" d="m416.61 60.956h1.6274v1.2166h-1.6274v2.7231h-1.4985v-2.7231h-5.3416v-0.87817l5.2529-8.1292h1.5872zm-5.1482 0h3.6497v-5.7524l-0.17725 0.32227z" />
		<path id="path1473" d="m419.45 55.421q0-1.0554 0.6687-1.7402 0.67676-0.68482 1.7322-0.68482 1.0715 0 1.7322 0.69287 0.6687 0.68481 0.6687 1.7805v0.57202q0 1.0635-0.67676 1.7402-0.6687 0.6687-1.708 0.6687-1.0474 0-1.7322-0.6687-0.68481-0.67676-0.68481-1.7966zm1.1118 0.62036q0 0.62842 0.35449 1.0393 0.35449 0.40283 0.95068 0.40283 0.57202 0 0.91846-0.39478 0.35449-0.39478 0.35449-1.0796v-0.58814q0-0.62842-0.34643-1.0393-0.34644-0.41089-0.94263-0.41089t-0.94263 0.41089q-0.34643 0.41089-0.34643 1.0715zm4.6003 5.978q0-1.0554 0.6687-1.7322 0.67676-0.68481 1.7322-0.68481t1.7322 0.67676q0.67676 0.67676 0.67676 1.7966v0.57202q0 1.0554-0.67676 1.7402-0.6687 0.67676-1.7161 0.67676t-1.7322-0.6687q-0.68481-0.67676-0.68481-1.7966zm1.1118 0.62842q0 0.63648 0.3545 1.0474 0.35449 0.40283 0.95068 0.40283 0.58008 0 0.92651-0.39478 0.34644-0.40283 0.34644-1.0876v-0.59619q0-0.63648-0.35449-1.0393-0.34644-0.40283-0.93457-0.40283-0.57202 0-0.93457 0.40283-0.3545 0.39478-0.3545 1.0715zm-4.0686 1.3616-0.84595-0.53174 5.7283-9.1685 0.84594 0.53174z" />
	</g>
	<g id="text1789" fill="#fff" aria-label="RGBD 0">
		<path id="path1476" d="m45.081 87.034h-1.5754v3.5134h-1.9775v-9.5977h3.5662q1.7007 0 2.6235 0.75806 0.92285 0.75806 0.92285 2.1423 0 0.98218-0.42847 1.6414-0.42188 0.65259-1.2854 1.0415l2.0764 3.9221v0.09228h-2.1226zm-1.5754-1.6018h1.5952q0.74487 0 1.1536-0.37573 0.40869-0.38232 0.40869-1.0481 0-0.67896-0.38892-1.0679-0.38232-0.38892-1.1799-0.38892h-1.5886z" />
		<path id="path1479" d="m57.737 89.334q-0.53394 0.6394-1.5095 0.99536-0.97559 0.34936-2.1621 0.34936-1.2458 0-2.1885-0.54053-0.93604-0.54712-1.4502-1.582-0.50757-1.0349-0.52075-2.4324v-0.65259q0-1.437 0.4812-2.4851 0.48779-1.0547 1.3975-1.6084 0.91626-0.5603 2.1423-0.5603 1.7073 0 2.6697 0.81738 0.9624 0.81079 1.1404 2.3665h-1.9248q-0.13184-0.82398-0.58667-1.2063-0.44824-0.38232-1.2393-0.38232-1.0085 0-1.5359 0.75806-0.52734 0.75806-0.53394 2.2544v0.61304q0 1.5095 0.57349 2.2808 0.57349 0.77124 1.6809 0.77124 1.114 0 1.5886-0.47461v-1.6545h-1.7996v-1.4568h3.7771z" />
		<path id="path1482" d="m59.339 90.547v-9.5977h3.3618q1.7468 0 2.6499 0.67236 0.90308 0.66577 0.90308 1.9578 0 0.70532-0.36255 1.2458-0.36255 0.53394-1.0085 0.78442 0.73828 0.18457 1.1602 0.74487 0.42847 0.5603 0.42847 1.3711 0 1.3843-0.8833 2.0962t-2.5181 0.7251zm1.9775-4.1792v2.5906h1.6941q0.69873 0 1.0876-0.32959 0.39551-0.33618 0.39551-0.92285 0-1.3184-1.3645-1.3381zm0-1.3975h1.4634q1.4963-0.02637 1.4963-1.1931 0-0.65259-0.38232-0.93604-0.37573-0.29004-1.1931-0.29004h-1.3843z" />
		<path id="path1485" d="m67.954 90.547v-9.5977h2.9531q1.2656 0 2.261 0.57349 1.002 0.5669 1.5623 1.6216 0.5603 1.0481 0.5603 2.3862v0.44165q0 1.3381-0.55371 2.3796-0.54712 1.0415-1.5491 1.615-1.002 0.57349-2.261 0.58008zm1.9775-7.9958v6.4072h0.95581q1.1602 0 1.7732-0.75806 0.61304-0.75806 0.62622-2.1687v-0.50757q0-1.4634-0.60644-2.2148-0.60645-0.75806-1.7732-0.75806z" />
		<path id="path1488" d="m86.345 86.579q0 1.9907-0.82398 3.0454-0.82398 1.0547-2.4126 1.0547-1.5688 0-2.3994-1.0349-0.83057-1.0349-0.85034-2.9663v-1.7666q0-2.0105 0.83057-3.052 0.83716-1.0415 2.406-1.0415 1.5688 0 2.3994 1.0349 0.83057 1.0283 0.85034 2.9597zm-1.905-1.938q0-1.1931-0.32959-1.7336-0.323-0.54712-1.0151-0.54712-0.67236 0-0.99536 0.52075-0.31641 0.51416-0.33618 1.615v2.3335q0 1.1733 0.31641 1.7468 0.323 0.5669 1.0283 0.5669 0.69873 0 1.0085-0.54712 0.30982-0.54712 0.323-1.6743z" />
	</g>
	<g id="text1792" fill="#fff" aria-label="RGBD 2">
		<path id="path1491" d="m45.081 113.75h-1.5754v3.5134h-1.9775v-9.5977h3.5662q1.7007 0 2.6235 0.75806 0.92285 0.75805 0.92285 2.1423 0 0.98218-0.42847 1.6414-0.42188 0.65259-1.2854 1.0415l2.0764 3.9221v0.0923h-2.1226zm-1.5754-1.6018h1.5952q0.74487 0 1.1536-0.37573 0.40869-0.38232 0.40869-1.0481 0-0.67895-0.38892-1.0679-0.38232-0.38891-1.1799-0.38891h-1.5886z" />
		<path id="path1494" d="m57.737 116.05q-0.53394 0.6394-1.5095 0.99536-0.97559 0.34936-2.1621 0.34936-1.2458 0-2.1885-0.54052-0.93604-0.54712-1.4502-1.582-0.50757-1.0349-0.52075-2.4324v-0.65259q0-1.437 0.4812-2.4851 0.48779-1.0547 1.3975-1.6084 0.91626-0.56031 2.1423-0.56031 1.7073 0 2.6697 0.81739 0.9624 0.81079 1.1404 2.3664h-1.9248q-0.13184-0.82397-0.58667-1.2063-0.44824-0.38232-1.2393-0.38232-1.0085 0-1.5359 0.75806-0.52734 0.75805-0.53394 2.2544v0.61304q0 1.5095 0.57349 2.2808 0.57349 0.77124 1.6809 0.77124 1.114 0 1.5886-0.47461v-1.6545h-1.7996v-1.4568h3.7771z" />
		<path id="path1497" d="m59.339 117.27v-9.5977h3.3618q1.7468 0 2.6499 0.67236 0.90308 0.66578 0.90308 1.9578 0 0.70532-0.36255 1.2458-0.36255 0.53393-1.0085 0.78442 0.73828 0.18457 1.1602 0.74487 0.42847 0.56031 0.42847 1.3711 0 1.3843-0.8833 2.0962t-2.5181 0.7251zm1.9775-4.1792v2.5906h1.6941q0.69873 0 1.0876-0.32959 0.39551-0.33618 0.39551-0.92285 0-1.3184-1.3645-1.3381zm0-1.3975h1.4634q1.4963-0.0264 1.4963-1.1931 0-0.65259-0.38232-0.93603-0.37573-0.29004-1.1931-0.29004h-1.3843z" />
		<path id="path1500" d="m67.954 117.27v-9.5977h2.9531q1.2656 0 2.261 0.57349 1.002 0.56689 1.5623 1.6216 0.5603 1.0481 0.5603 2.3862v0.44165q0 1.3381-0.55371 2.3796-0.54712 1.0415-1.5491 1.615t-2.261 0.58008zm1.9775-7.9958v6.4072h0.95581q1.1602 0 1.7732-0.75805 0.61304-0.75806 0.62622-2.1687v-0.50757q0-1.4634-0.60644-2.2148-0.60645-0.75805-1.7732-0.75805z" />
		<path id="path1503" d="m86.464 117.27h-6.5786v-1.3052l3.1047-3.3091q0.6394-0.69873 0.94263-1.2195 0.30981-0.52076 0.30981-0.98877 0-0.63941-0.323-1.002-0.323-0.36914-0.92285-0.36914-0.646 0-1.0217 0.44825-0.36914 0.44165-0.36914 1.1667h-1.9116q0-0.87671 0.41528-1.6018 0.42188-0.7251 1.1865-1.1338 0.76465-0.41529 1.7336-0.41529 1.4832 0 2.3005 0.71192 0.82397 0.71191 0.82397 2.0105 0 0.71191-0.36914 1.4502-0.36914 0.73828-1.2656 1.7205l-2.1819 2.3005h4.1265z" />
	</g>
	<g id="text1795" fill="#fff" aria-label="RGBD 4">
		<path id="path1506" d="m45.081 140.47h-1.5754v3.5134h-1.9775v-9.5977h3.5662q1.7007 0 2.6235 0.75806 0.92285 0.75806 0.92285 2.1423 0 0.98218-0.42847 1.6414-0.42188 0.65259-1.2854 1.0415l2.0764 3.9221v0.0923h-2.1226zm-1.5754-1.6018h1.5952q0.74487 0 1.1536-0.37573 0.40869-0.38232 0.40869-1.0481 0-0.67896-0.38892-1.0679-0.38232-0.38891-1.1799-0.38891h-1.5886z" />
		<path id="path1509" d="m57.737 142.77q-0.53394 0.6394-1.5095 0.99536-0.97559 0.34936-2.1621 0.34936-1.2458 0-2.1885-0.54052-0.93604-0.54712-1.4502-1.582-0.50757-1.0349-0.52075-2.4324v-0.65259q0-1.437 0.4812-2.4851 0.48779-1.0547 1.3975-1.6084 0.91626-0.5603 2.1423-0.5603 1.7073 0 2.6697 0.81738 0.9624 0.81079 1.1404 2.3664h-1.9248q-0.13184-0.82397-0.58667-1.2063-0.44824-0.38232-1.2393-0.38232-1.0085 0-1.5359 0.75806-0.52734 0.75805-0.53394 2.2544v0.61304q0 1.5095 0.57349 2.2808 0.57349 0.77124 1.6809 0.77124 1.114 0 1.5886-0.47461v-1.6545h-1.7996v-1.4568h3.7771z" />
		<path id="path1512" d="m59.339 143.98v-9.5977h3.3618q1.7468 0 2.6499 0.67237 0.90308 0.66577 0.90308 1.9578 0 0.70532-0.36255 1.2458-0.36255 0.53393-1.0085 0.78442 0.73828 0.18457 1.1602 0.74488 0.42847 0.5603 0.42847 1.3711 0 1.3843-0.8833 2.0962t-2.5181 0.7251zm1.9775-4.1792v2.5906h1.6941q0.69873 0 1.0876-0.32958 0.39551-0.33619 0.39551-0.92286 0-1.3184-1.3645-1.3381zm0-1.3975h1.4634q1.4963-0.0264 1.4963-1.1931 0-0.65259-0.38232-0.93603-0.37573-0.29004-1.1931-0.29004h-1.3843z" />
		<path id="path1515" d="m67.954 143.98v-9.5977h2.9531q1.2656 0 2.261 0.57349 1.002 0.56689 1.5623 1.6216 0.5603 1.0481 0.5603 2.3862v0.44165q0 1.3381-0.55371 2.3796-0.54712 1.0415-1.5491 1.615t-2.261 0.58008zm1.9775-7.9958v6.4072h0.95581q1.1602 0 1.7732-0.75805 0.61304-0.75806 0.62622-2.1687v-0.50757q0-1.4634-0.60644-2.2148-0.60645-0.75806-1.7732-0.75806z" />
		<path id="path1518" d="m85.521 140.37h1.0876v1.5359h-1.0876v2.0764h-1.905v-2.0764h-3.9353l-0.08569-1.1997 4.0012-6.3215h1.9248zm-4.0276 0h2.1226v-3.3882l-0.12524 0.21753z" />
	</g>
	<g id="text1798" fill="#fff" aria-label="RGBD 6">
		<path id="path1521" d="m45.081 167.19h-1.5754v3.5134h-1.9775v-9.5977h3.5662q1.7007 0 2.6235 0.75806 0.92285 0.75805 0.92285 2.1423 0 0.98218-0.42847 1.6414-0.42188 0.65259-1.2854 1.0415l2.0764 3.9221v0.0923h-2.1226zm-1.5754-1.6018h1.5952q0.74487 0 1.1536-0.37573 0.40869-0.38232 0.40869-1.0481 0-0.67895-0.38892-1.0679-0.38232-0.38891-1.1799-0.38891h-1.5886z" />
		<path id="path1524" d="m57.737 169.49q-0.53394 0.6394-1.5095 0.99536-0.97559 0.34936-2.1621 0.34936-1.2458 0-2.1885-0.54052-0.93604-0.54712-1.4502-1.582-0.50757-1.0349-0.52075-2.4324v-0.65259q0-1.437 0.4812-2.4851 0.48779-1.0547 1.3975-1.6084 0.91626-0.56031 2.1423-0.56031 1.7073 0 2.6697 0.81739 0.9624 0.81079 1.1404 2.3664h-1.9248q-0.13184-0.82397-0.58667-1.2063-0.44824-0.38232-1.2393-0.38232-1.0085 0-1.5359 0.75806-0.52734 0.75805-0.53394 2.2544v0.61304q0 1.5095 0.57349 2.2808 0.57349 0.77124 1.6809 0.77124 1.114 0 1.5886-0.47461v-1.6545h-1.7996v-1.4568h3.7771z" />
		<path id="path1527" d="m59.339 170.7v-9.5977h3.3618q1.7468 0 2.6499 0.67236 0.90308 0.66578 0.90308 1.9578 0 0.70532-0.36255 1.2458-0.36255 0.53393-1.0085 0.78442 0.73828 0.18457 1.1602 0.74487 0.42847 0.56031 0.42847 1.3711 0 1.3843-0.8833 2.0962-0.8833 0.71191-2.5181 0.7251zm1.9775-4.1792v2.5906h1.6941q0.69873 0 1.0876-0.32959 0.39551-0.33618 0.39551-0.92285 0-1.3184-1.3645-1.3381zm0-1.3975h1.4634q1.4963-0.0264 1.4963-1.1931 0-0.65259-0.38232-0.93603-0.37573-0.29004-1.1931-0.29004h-1.3843z" />
		<path id="path1530" d="m67.954 170.7v-9.5977h2.9531q1.2656 0 2.261 0.57349 1.002 0.56689 1.5623 1.6216 0.5603 1.0481 0.5603 2.3862v0.44165q0 1.3381-0.55371 2.3796-0.54712 1.0415-1.5491 1.615-1.002 0.57348-2.261 0.58008zm1.9775-7.9958v6.4072h0.95581q1.1602 0 1.7732-0.75805 0.61304-0.75806 0.62622-2.1687v-0.50757q0-1.4634-0.60644-2.2148-0.60645-0.75805-1.7732-0.75805z" />
		<path id="path1533" d="m85.053 161v1.5688h-0.18457q-1.292 0.0198-2.083 0.67236-0.78442 0.65259-0.94263 1.8128 0.76465-0.77783 1.9314-0.77783 1.2524 0 1.9907 0.89648 0.73828 0.89649 0.73828 2.3599 0 0.93604-0.40869 1.6941-0.4021 0.75805-1.147 1.1799-0.73828 0.42187-1.6743 0.42187-1.5161 0-2.4521-1.0547-0.92944-1.0547-0.92944-2.8147v-0.68555q0-1.5622 0.58667-2.7554 0.59326-1.1997 1.6941-1.8523 1.1074-0.65917 2.5642-0.66577zm-1.8589 4.8054q-0.46143 0-0.83716 0.2439-0.37573 0.2373-0.55371 0.63281v0.58008q0 0.95581 0.37573 1.4963 0.37573 0.53393 1.0547 0.53393 0.61304 0 0.98877-0.4812 0.38232-0.48779 0.38232-1.259 0-0.78442-0.38232-1.2656-0.38232-0.4812-1.0283-0.4812z" />
	</g>
	<g id="text1801" fill="#fff" aria-label="RGBD 8">
		<path id="path1536" d="m45.081 193.91h-1.5754v3.5134h-1.9775v-9.5977h3.5662q1.7007 0 2.6235 0.75806 0.92285 0.75806 0.92285 2.1423 0 0.98218-0.42847 1.6414-0.42188 0.65259-1.2854 1.0415l2.0764 3.9221v0.0923h-2.1226zm-1.5754-1.6018h1.5952q0.74487 0 1.1536-0.37574 0.40869-0.38232 0.40869-1.0481 0-0.67896-0.38892-1.0679-0.38232-0.38892-1.1799-0.38892h-1.5886z" />
		<path id="path1539" d="m57.737 196.21q-0.53394 0.6394-1.5095 0.99536-0.97559 0.34937-2.1621 0.34937-1.2458 0-2.1885-0.54053-0.93604-0.54712-1.4502-1.582-0.50757-1.0349-0.52075-2.4324v-0.65258q0-1.437 0.4812-2.4851 0.48779-1.0547 1.3975-1.6084 0.91626-0.5603 2.1423-0.5603 1.7073 0 2.6697 0.81738 0.9624 0.81079 1.1404 2.3665h-1.9248q-0.13184-0.82398-0.58667-1.2063-0.44824-0.38233-1.2393-0.38233-1.0085 0-1.5359 0.75806t-0.53394 2.2544v0.61304q0 1.5095 0.57349 2.2808 0.57349 0.77124 1.6809 0.77124 1.114 0 1.5886-0.47461v-1.6545h-1.7996v-1.4568h3.7771z" />
		<path id="path1542" d="m59.339 197.42v-9.5977h3.3618q1.7468 0 2.6499 0.67237 0.90308 0.66577 0.90308 1.9578 0 0.70532-0.36255 1.2458-0.36255 0.53394-1.0085 0.78442 0.73828 0.18457 1.1602 0.74488 0.42847 0.5603 0.42847 1.3711 0 1.3843-0.8833 2.0962-0.8833 0.71192-2.5181 0.7251zm1.9775-4.1792v2.5906h1.6941q0.69873 0 1.0876-0.32959 0.39551-0.33618 0.39551-0.92285 0-1.3184-1.3645-1.3381zm0-1.3975h1.4634q1.4963-0.0264 1.4963-1.1931 0-0.65258-0.38232-0.93603-0.37573-0.29004-1.1931-0.29004h-1.3843z" />
		<path id="path1545" d="m67.954 197.42v-9.5977h2.9531q1.2656 0 2.261 0.57349 1.002 0.56689 1.5623 1.6216 0.5603 1.0481 0.5603 2.3862v0.44165q0 1.3381-0.55371 2.3796-0.54712 1.0415-1.5491 1.615-1.002 0.57349-2.261 0.58008zm1.9775-7.9958v6.4072h0.95581q1.1602 0 1.7732-0.75806t0.62622-2.1687v-0.50757q0-1.4634-0.60644-2.2148-0.60645-0.75806-1.7732-0.75806z" />
		<path id="path1548" d="m86.141 190.37q0 0.69873-0.34936 1.2393-0.34937 0.54052-0.9624 0.86352 0.69873 0.33618 1.1074 0.92945 0.40869 0.58667 0.40869 1.3843 0 1.2788-0.87012 2.0237-0.87012 0.73829-2.3665 0.73829t-2.373-0.74488q-0.87671-0.74487-0.87671-2.0171 0-0.7976 0.40869-1.3909 0.40869-0.59326 1.1008-0.92285-0.61304-0.323-0.9624-0.86352-0.34277-0.54053-0.34277-1.2393 0-1.2261 0.81738-1.9512 0.81738-0.73169 2.2214-0.73169 1.3975 0 2.2148 0.7251 0.82398 0.7185 0.82398 1.9578zm-1.7073 4.2781q0-0.62623-0.36255-1.002-0.36255-0.37573-0.97559-0.37573-0.60645 0-0.96899 0.37573-0.36255 0.36914-0.36255 1.002 0 0.61303 0.35596 0.98876 0.35596 0.37574 0.98877 0.37574 0.61963 0 0.96899-0.36255 0.35596-0.36255 0.35596-1.002zm-0.19775-4.1858q0-0.5603-0.29663-0.89648-0.29663-0.34277-0.83716-0.34277-0.53394 0-0.83057 0.32959t-0.29663 0.90966q0 0.57349 0.29663 0.92286 0.29663 0.34936 0.83716 0.34936 0.54053 0 0.83057-0.34936 0.29663-0.34937 0.29663-0.92286z" />
	</g>
	<g id="text1804" fill="#fff" aria-label="RGBD 10">
		<path id="path1551" d="m45.081 220.62h-1.5754v3.5134h-1.9775v-9.5977h3.5662q1.7007 0 2.6235 0.75806 0.92285 0.75806 0.92285 2.1423 0 0.98218-0.42847 1.6414-0.42188 0.65259-1.2854 1.0415l2.0764 3.9221v0.0923h-2.1226zm-1.5754-1.6018h1.5952q0.74487 0 1.1536-0.37573 0.40869-0.38232 0.40869-1.0481 0-0.67896-0.38892-1.0679-0.38232-0.38891-1.1799-0.38891h-1.5886z" />
		<path id="path1554" d="m57.737 222.92q-0.53394 0.6394-1.5095 0.99536-0.97559 0.34936-2.1621 0.34936-1.2458 0-2.1885-0.54052-0.93604-0.54712-1.4502-1.582-0.50757-1.0349-0.52075-2.4324v-0.65259q0-1.437 0.4812-2.4851 0.48779-1.0547 1.3975-1.6084 0.91626-0.5603 2.1423-0.5603 1.7073 0 2.6697 0.81738 0.9624 0.81079 1.1404 2.3664h-1.9248q-0.13184-0.82397-0.58667-1.2063-0.44824-0.38233-1.2393-0.38233-1.0085 0-1.5359 0.75806-0.52734 0.75805-0.53394 2.2544v0.61304q0 1.5095 0.57349 2.2808 0.57349 0.77124 1.6809 0.77124 1.114 0 1.5886-0.47461v-1.6545h-1.7996v-1.4568h3.7771z" />
		<path id="path1557" d="m59.339 224.14v-9.5977h3.3618q1.7468 0 2.6499 0.67237 0.90308 0.66577 0.90308 1.9578 0 0.70532-0.36255 1.2458-0.36255 0.53393-1.0085 0.78442 0.73828 0.18457 1.1602 0.74488 0.42847 0.5603 0.42847 1.3711 0 1.3843-0.8833 2.0962t-2.5181 0.7251zm1.9775-4.1792v2.5906h1.6941q0.69873 0 1.0876-0.32959 0.39551-0.33619 0.39551-0.92286 0-1.3184-1.3645-1.3381zm0-1.3975h1.4634q1.4963-0.0264 1.4963-1.1931 0-0.65258-0.38232-0.93603-0.37573-0.29004-1.1931-0.29004h-1.3843z" />
		<path id="path1560" d="m67.954 224.14v-9.5977h2.9531q1.2656 0 2.261 0.57349 1.002 0.56689 1.5623 1.6216 0.5603 1.0481 0.5603 2.3862v0.44165q0 1.3381-0.55371 2.3796-0.54712 1.0415-1.5491 1.615t-2.261 0.58008zm1.9775-7.9958v6.4072h0.95581q1.1602 0 1.7732-0.75806t0.62622-2.1687v-0.50757q0-1.4634-0.60644-2.2148-0.60645-0.75806-1.7732-0.75806z" />
		<path id="path1563" d="m84.513 224.14h-1.905v-7.3433l-2.2742 0.70532v-1.5491l3.9749-1.4238h0.20435z" />
		<path id="path1566" d="m94.091 220.17q0 1.9907-0.82398 3.0454-0.82397 1.0547-2.4126 1.0547-1.5688 0-2.3994-1.0349-0.83057-1.0349-0.85034-2.9663v-1.7666q0-2.0105 0.83057-3.052 0.83716-1.0415 2.406-1.0415t2.3994 1.0349q0.83057 1.0283 0.85034 2.9597zm-1.905-1.938q0-1.1931-0.32959-1.7336-0.323-0.54712-1.0151-0.54712-0.67236 0-0.99536 0.52075-0.31641 0.51416-0.33618 1.615v2.3335q0 1.1733 0.31641 1.7468 0.323 0.5669 1.0283 0.5669 0.69873 0 1.0085-0.54712 0.30981-0.54712 0.323-1.6743z" />
	</g>
	<g id="text1807" fill="#fff" aria-label="RGBD 12">
		<path id="path1569" d="m45.081 247.34h-1.5754v3.5134h-1.9775v-9.5977h3.5662q1.7007 0 2.6235 0.75806 0.92285 0.75805 0.92285 2.1423 0 0.98218-0.42847 1.6414-0.42188 0.65259-1.2854 1.0415l2.0764 3.9221v0.0923h-2.1226zm-1.5754-1.6018h1.5952q0.74487 0 1.1536-0.37573 0.40869-0.38232 0.40869-1.0481 0-0.67895-0.38892-1.0679-0.38232-0.38891-1.1799-0.38891h-1.5886z" />
		<path id="path1572" d="m57.737 249.64q-0.53394 0.6394-1.5095 0.99536-0.97559 0.34936-2.1621 0.34936-1.2458 0-2.1885-0.54052-0.93604-0.54712-1.4502-1.582-0.50757-1.0349-0.52075-2.4324v-0.65259q0-1.437 0.4812-2.4851 0.48779-1.0547 1.3975-1.6084 0.91626-0.5603 2.1423-0.5603 1.7073 0 2.6697 0.81738 0.9624 0.81079 1.1404 2.3664h-1.9248q-0.13184-0.82397-0.58667-1.2063-0.44824-0.38232-1.2393-0.38232-1.0085 0-1.5359 0.75806-0.52734 0.75805-0.53394 2.2544v0.61304q0 1.5095 0.57349 2.2808 0.57349 0.77124 1.6809 0.77124 1.114 0 1.5886-0.47461v-1.6545h-1.7996v-1.4568h3.7771z" />
		<path id="path1575" d="m59.339 250.86v-9.5977h3.3618q1.7468 0 2.6499 0.67236 0.90308 0.66578 0.90308 1.9578 0 0.70532-0.36255 1.2458-0.36255 0.53393-1.0085 0.78442 0.73828 0.18457 1.1602 0.74487 0.42847 0.56031 0.42847 1.3711 0 1.3843-0.8833 2.0962t-2.5181 0.7251zm1.9775-4.1792v2.5906h1.6941q0.69873 0 1.0876-0.32959 0.39551-0.33618 0.39551-0.92285 0-1.3184-1.3645-1.3381zm0-1.3975h1.4634q1.4963-0.0264 1.4963-1.1931 0-0.65259-0.38232-0.93603-0.37573-0.29004-1.1931-0.29004h-1.3843z" />
		<path id="path1578" d="m67.954 250.86v-9.5977h2.9531q1.2656 0 2.261 0.57349 1.002 0.56689 1.5623 1.6216 0.5603 1.0481 0.5603 2.3862v0.44165q0 1.3381-0.55371 2.3796-0.54712 1.0415-1.5491 1.615t-2.261 0.58008zm1.9775-7.9958v6.4072h0.95581q1.1602 0 1.7732-0.75805 0.61304-0.75806 0.62622-2.1687v-0.50757q0-1.4634-0.60644-2.2148-0.60645-0.75805-1.7732-0.75805z" />
		<path id="path1581" d="m84.513 250.86h-1.905v-7.3433l-2.2742 0.70532v-1.5491l3.9749-1.4238h0.20435z" />
		<path id="path1584" d="m94.209 250.86h-6.5786v-1.3052l3.1047-3.3091q0.6394-0.69873 0.94263-1.2195 0.30982-0.52075 0.30982-0.98877 0-0.63941-0.323-1.002-0.323-0.36914-0.92285-0.36914-0.646 0-1.0217 0.44825-0.36914 0.44165-0.36914 1.1667h-1.9116q0-0.87671 0.41528-1.6018 0.42188-0.7251 1.1865-1.1338 0.76465-0.41528 1.7336-0.41528 1.4832 0 2.3005 0.71191 0.82398 0.71191 0.82398 2.0105 0 0.71191-0.36914 1.4502-0.36914 0.73828-1.2656 1.7205l-2.1819 2.3005h4.1265z" />
	</g>
	<g id="text1810" fill="#fff" aria-label="RGBD 14">
		<path id="path1587" d="m45.081 274.06h-1.5754v3.5134h-1.9775v-9.5977h3.5662q1.7007 0 2.6235 0.75806 0.92285 0.75805 0.92285 2.1423 0 0.98218-0.42847 1.6414-0.42188 0.65259-1.2854 1.0415l2.0764 3.9221v0.0923h-2.1226zm-1.5754-1.6018h1.5952q0.74487 0 1.1536-0.37573 0.40869-0.38233 0.40869-1.0481 0-0.67895-0.38892-1.0679-0.38232-0.38891-1.1799-0.38891h-1.5886z" />
		<path id="path1590" d="m57.737 276.36q-0.53394 0.6394-1.5095 0.99536-0.97559 0.34936-2.1621 0.34936-1.2458 0-2.1885-0.54053-0.93604-0.54711-1.4502-1.582-0.50757-1.0349-0.52075-2.4324v-0.65259q0-1.437 0.4812-2.4851 0.48779-1.0547 1.3975-1.6084 0.91626-0.56031 2.1423-0.56031 1.7073 0 2.6697 0.81739 0.9624 0.81079 1.1404 2.3664h-1.9248q-0.13184-0.82397-0.58667-1.2063-0.44824-0.38232-1.2393-0.38232-1.0085 0-1.5359 0.75806-0.52734 0.75805-0.53394 2.2544v0.61304q0 1.5095 0.57349 2.2808 0.57349 0.77124 1.6809 0.77124 1.114 0 1.5886-0.47461v-1.6545h-1.7996v-1.4568h3.7771z" />
		<path id="path1593" d="m59.339 277.57v-9.5977h3.3618q1.7468 0 2.6499 0.67236 0.90308 0.66577 0.90308 1.9578 0 0.70532-0.36255 1.2458-0.36255 0.53393-1.0085 0.78442 0.73828 0.18457 1.1602 0.74487 0.42847 0.56031 0.42847 1.3711 0 1.3843-0.8833 2.0962-0.8833 0.71191-2.5181 0.7251zm1.9775-4.1792v2.5906h1.6941q0.69873 0 1.0876-0.32959 0.39551-0.33618 0.39551-0.92285 0-1.3184-1.3645-1.3381zm0-1.3975h1.4634q1.4963-0.0264 1.4963-1.1931 0-0.65259-0.38232-0.93603-0.37573-0.29004-1.1931-0.29004h-1.3843z" />
		<path id="path1596" d="m67.954 277.57v-9.5977h2.9531q1.2656 0 2.261 0.57349 1.002 0.56689 1.5623 1.6216 0.5603 1.0481 0.5603 2.3862v0.44165q0 1.3381-0.55371 2.3796-0.54712 1.0415-1.5491 1.615-1.002 0.57348-2.261 0.58008zm1.9775-7.9958v6.4072h0.95581q1.1602 0 1.7732-0.75805 0.61304-0.75806 0.62622-2.1687v-0.50756q0-1.4634-0.60644-2.2148-0.60645-0.75805-1.7732-0.75805z" />
		<path id="path1599" d="m84.513 277.57h-1.905v-7.3433l-2.2742 0.70533v-1.5491l3.9749-1.4238h0.20435z" />
		<path id="path1602" d="m93.267 273.96h1.0876v1.5359h-1.0876v2.0764h-1.905v-2.0764h-3.9353l-0.08569-1.1997 4.0012-6.3215h1.9248zm-4.0276 0h2.1226v-3.3882l-0.12524 0.21753z" />
	</g>
	<g id="text1813" fill="#fff" aria-label="RGBD 16">
		<path id="path1605" d="m45.081 300.78h-1.5754v3.5134h-1.9775v-9.5976h3.5662q1.7007 0 2.6235 0.75805 0.92285 0.75806 0.92285 2.1423 0 0.98218-0.42847 1.6414-0.42188 0.65258-1.2854 1.0415l2.0764 3.9221v0.0923h-2.1226zm-1.5754-1.6018h1.5952q0.74487 0 1.1536-0.37573 0.40869-0.38233 0.40869-1.0481 0-0.67895-0.38892-1.0679-0.38232-0.38892-1.1799-0.38892h-1.5886z" />
		<path id="path1608" d="m57.737 303.08q-0.53394 0.63941-1.5095 0.99536-0.97559 0.34937-2.1621 0.34937-1.2458 0-2.1885-0.54053-0.93604-0.54712-1.4502-1.582-0.50757-1.0349-0.52075-2.4324v-0.65259q0-1.437 0.4812-2.4851 0.48779-1.0547 1.3975-1.6084 0.91626-0.5603 2.1423-0.5603 1.7073 0 2.6697 0.81738 0.9624 0.8108 1.1404 2.3665h-1.9248q-0.13184-0.82398-0.58667-1.2063-0.44824-0.38232-1.2393-0.38232-1.0085 0-1.5359 0.75805-0.52734 0.75806-0.53394 2.2544v0.61303q0 1.5095 0.57349 2.2808 0.57349 0.77124 1.6809 0.77124 1.114 0 1.5886-0.47461v-1.6545h-1.7996v-1.4568h3.7771z" />
		<path id="path1611" d="m59.339 304.29v-9.5976h3.3618q1.7468 0 2.6499 0.67236 0.90308 0.66577 0.90308 1.9578 0 0.70533-0.36255 1.2458-0.36255 0.53394-1.0085 0.78443 0.73828 0.18457 1.1602 0.74487 0.42847 0.5603 0.42847 1.3711 0 1.3843-0.8833 2.0962-0.8833 0.71191-2.5181 0.72509zm1.9775-4.1792v2.5906h1.6941q0.69873 0 1.0876-0.32959 0.39551-0.33618 0.39551-0.92285 0-1.3184-1.3645-1.3381zm0-1.3975h1.4634q1.4963-0.0264 1.4963-1.1931 0-0.65259-0.38232-0.93604-0.37573-0.29004-1.1931-0.29004h-1.3843z" />
		<path id="path1614" d="m67.954 304.29v-9.5976h2.9531q1.2656 0 2.261 0.57348 1.002 0.5669 1.5623 1.6216 0.5603 1.0481 0.5603 2.3862v0.44165q0 1.3381-0.55371 2.3796-0.54712 1.0415-1.5491 1.615-1.002 0.57348-2.261 0.58007zm1.9775-7.9958v6.4072h0.95581q1.1602 0 1.7732-0.75806 0.61304-0.75805 0.62622-2.1687v-0.50757q0-1.4634-0.60644-2.2148-0.60645-0.75806-1.7732-0.75806z" />
		<path id="path1617" d="m84.513 304.29h-1.905v-7.3433l-2.2742 0.70532v-1.5491l3.9749-1.4238h0.20435z" />
		<path id="path1620" d="m92.799 294.59v1.5688h-0.18457q-1.292 0.0198-2.083 0.67236-0.78442 0.65259-0.94263 1.8128 0.76465-0.77784 1.9314-0.77784 1.2524 0 1.9907 0.89649 0.73828 0.89648 0.73828 2.3599 0 0.93604-0.40869 1.6941-0.4021 0.75806-1.147 1.1799-0.73828 0.42188-1.6743 0.42188-1.5161 0-2.4521-1.0547-0.92944-1.0547-0.92944-2.8147v-0.68555q0-1.5623 0.58667-2.7554 0.59326-1.1997 1.6941-1.8523 1.1074-0.65918 2.5642-0.66577zm-1.8589 4.8054q-0.46143 0-0.83716 0.2439-0.37573 0.2373-0.55371 0.63281v0.58008q0 0.95581 0.37573 1.4963 0.37573 0.53393 1.0547 0.53393 0.61304 0 0.98877-0.4812 0.38232-0.48779 0.38232-1.259 0-0.78443-0.38232-1.2656t-1.0283-0.4812z" />
	</g>
	<g id="text1816" fill="#fff" aria-label="RGBD 18">
		<path id="path1623" d="m45.081 327.5h-1.5754v3.5134h-1.9775v-9.5976h3.5662q1.7007 0 2.6235 0.75805 0.92285 0.75806 0.92285 2.1423 0 0.98217-0.42847 1.6414-0.42188 0.65259-1.2854 1.0415l2.0764 3.9221v0.0923h-2.1226zm-1.5754-1.6018h1.5952q0.74487 0 1.1536-0.37573 0.40869-0.38233 0.40869-1.0481 0-0.67896-0.38892-1.0679-0.38232-0.38892-1.1799-0.38892h-1.5886z" />
		<path id="path1626" d="m57.737 329.8q-0.53394 0.63941-1.5095 0.99536-0.97559 0.34937-2.1621 0.34937-1.2458 0-2.1885-0.54053-0.93604-0.54712-1.4502-1.582-0.50757-1.0349-0.52075-2.4324v-0.65259q0-1.437 0.4812-2.4851 0.48779-1.0547 1.3975-1.6084 0.91626-0.5603 2.1423-0.5603 1.7073 0 2.6697 0.81738 0.9624 0.81079 1.1404 2.3665h-1.9248q-0.13184-0.82398-0.58667-1.2063-0.44824-0.38232-1.2393-0.38232-1.0085 0-1.5359 0.75805-0.52734 0.75806-0.53394 2.2544v0.61303q0 1.5095 0.57349 2.2808 0.57349 0.77124 1.6809 0.77124 1.114 0 1.5886-0.47461v-1.6545h-1.7996v-1.4568h3.7771z" />
		<path id="path1629" d="m59.339 331.01v-9.5976h3.3618q1.7468 0 2.6499 0.67236 0.90308 0.66577 0.90308 1.9578 0 0.70533-0.36255 1.2458-0.36255 0.53394-1.0085 0.78443 0.73828 0.18457 1.1602 0.74487 0.42847 0.5603 0.42847 1.3711 0 1.3843-0.8833 2.0962-0.8833 0.71192-2.5181 0.7251zm1.9775-4.1792v2.5906h1.6941q0.69873 0 1.0876-0.32959 0.39551-0.33618 0.39551-0.92285 0-1.3184-1.3645-1.3381zm0-1.3975h1.4634q1.4963-0.0264 1.4963-1.1931 0-0.65259-0.38232-0.93604-0.37573-0.29004-1.1931-0.29004h-1.3843z" />
		<path id="path1632" d="m67.954 331.01v-9.5976h2.9531q1.2656 0 2.261 0.57348 1.002 0.5669 1.5623 1.6216 0.5603 1.0481 0.5603 2.3862v0.44165q0 1.3381-0.55371 2.3796-0.54712 1.0415-1.5491 1.615-1.002 0.57349-2.261 0.58008zm1.9775-7.9958v6.4072h0.95581q1.1602 0 1.7732-0.75806 0.61304-0.75805 0.62622-2.1687v-0.50757q0-1.4634-0.60644-2.2148-0.60645-0.75806-1.7732-0.75806z" />
		<path id="path1635" d="m84.513 331.01h-1.905v-7.3433l-2.2742 0.70532v-1.5491l3.9749-1.4238h0.20435z" />
		<path id="path1638" d="m93.886 323.96q0 0.69873-0.34936 1.2393t-0.9624 0.86352q0.69873 0.33619 1.1074 0.92945 0.40869 0.58667 0.40869 1.3843 0 1.2788-0.87012 2.0237-0.87012 0.73828-2.3665 0.73828-1.4963 0-2.373-0.74487-0.87671-0.74488-0.87671-2.0171 0-0.79761 0.40869-1.3909 0.40869-0.59327 1.1008-0.92286-0.61304-0.32299-0.9624-0.86352-0.34277-0.54053-0.34277-1.2393 0-1.2261 0.81738-1.9512 0.81738-0.73169 2.2214-0.73169 1.3975 0 2.2148 0.7251 0.82397 0.7185 0.82397 1.9578zm-1.7073 4.2781q0-0.62622-0.36255-1.002-0.36255-0.37573-0.97559-0.37573-0.60644 0-0.96899 0.37573-0.36255 0.36915-0.36255 1.002 0 0.61303 0.35596 0.98877 0.35596 0.37573 0.98877 0.37573 0.61963 0 0.96899-0.36255 0.35596-0.36255 0.35596-1.002zm-0.19775-4.1858q0-0.56031-0.29663-0.89649-0.29663-0.34277-0.83716-0.34277-0.53394 0-0.83057 0.32959-0.29663 0.32959-0.29663 0.90967 0 0.57348 0.29663 0.92285 0.29663 0.34936 0.83716 0.34936 0.54053 0 0.83057-0.34936 0.29663-0.34937 0.29663-0.92285z" />
	</g>
	<g id="text1819" fill="#fff" aria-label="86.4%">
		<path id="path1641" d="m449.55 323.26q0 0.87818-0.46728 1.563-0.45923 0.68482-1.2488 1.0715 0.91846 0.39477 1.4502 1.1521 0.5398 0.75732 0.5398 1.7161 0 1.5227-1.0312 2.425-1.0232 0.90234-2.699 0.90234-1.6919 0-2.7151-0.90234-1.0151-0.9104-1.0151-2.425 0-0.95068 0.51562-1.7161 0.52369-0.76539 1.4421-1.1602-0.78149-0.38672-1.2327-1.0715-0.45117-0.68482-0.45117-1.5549 0-1.4824 0.95068-2.3525 0.95068-0.87012 2.5056-0.87012 1.5469 0 2.4976 0.87012 0.95874 0.87011 0.95874 2.3525zm-1.2166 5.4705q0-0.98291-0.62842-1.6033-0.62036-0.62036-1.6274-0.62036t-1.6194 0.61231q-0.60425 0.6123-0.60425 1.6113 0 0.99903 0.58813 1.571 0.59619 0.57202 1.6516 0.57202 1.0474 0 1.6436-0.57202 0.59619-0.58008 0.59619-1.571zm-2.2398-7.4685q-0.87817 0-1.426 0.54785-0.5398 0.53979-0.5398 1.4744 0 0.89429 0.53174 1.4502 0.5398 0.54785 1.4341 0.54785 0.89429 0 1.426-0.54785 0.53979-0.55591 0.53979-1.4502 0-0.89428-0.5559-1.4582-0.55591-0.56396-1.4099-0.56396z" />
		<path id="path1644" d="m457.55 320.19v1.2649h-0.27393q-1.7402 0.0322-2.7715 1.0312-1.0312 0.99902-1.1924 2.8118 0.92652-1.0635 2.5298-1.0635 1.5308 0 2.4412 1.0796 0.91846 1.0796 0.91846 2.7876 0 1.8127-0.99097 2.9004-0.98291 1.0876-2.6426 1.0876-1.6838 0-2.7312-1.2891-1.0474-1.2971-1.0474-3.3354v-0.57202q0-3.2388 1.3777-4.9468 1.3858-1.7161 4.117-1.7564zm-1.9578 5.2852q-0.76538 0-1.4099 0.45923t-0.89429 1.1521v0.54785q0 1.4502 0.65259 2.3364t1.6274 0.88623q1.0071 0 1.5791-0.74121 0.58007-0.74122 0.58007-1.9416 0-1.2085-0.58813-1.9497-0.58008-0.74927-1.5469-0.74927z" />
		<path id="path1647" d="m461.15 331.15q0-0.38672 0.22558-0.64454 0.23364-0.25781 0.69287-0.25781t0.69287 0.25781q0.2417 0.25782 0.2417 0.64454 0 0.3706-0.2417 0.62036-0.23364 0.24975-0.69287 0.24975t-0.69287-0.24975q-0.22558-0.24976-0.22558-0.62036z" />
		<path id="path1650" d="m471.6 327.99h1.6274v1.2166h-1.6274v2.7231h-1.4985v-2.7231h-5.3416v-0.87818l5.2529-8.1292h1.5872zm-5.1482 0h3.6496v-5.7524l-0.17724 0.32227z" />
		<path id="path1653" d="m474.45 322.46q0-1.0554 0.6687-1.7402 0.67676-0.68482 1.7322-0.68482 1.0715 0 1.7322 0.69287 0.6687 0.68482 0.6687 1.7805v0.57202q0 1.0635-0.67676 1.7402-0.6687 0.6687-1.708 0.6687-1.0474 0-1.7322-0.6687-0.68482-0.67676-0.68482-1.7966zm1.1118 0.62036q0 0.62842 0.35449 1.0393 0.35449 0.40283 0.95069 0.40283 0.57202 0 0.91845-0.39477 0.35449-0.39478 0.35449-1.0796v-0.58814q0-0.62842-0.34643-1.0393-0.34644-0.41088-0.94263-0.41088t-0.94263 0.41088q-0.34643 0.41089-0.34643 1.0715zm4.6003 5.978q0-1.0554 0.6687-1.7322 0.67676-0.68481 1.7322-0.68481t1.7322 0.67675q0.67676 0.67676 0.67676 1.7966v0.57202q0 1.0554-0.67676 1.7402-0.6687 0.67676-1.7161 0.67676-1.0474 0-1.7322-0.6687-0.68482-0.67676-0.68482-1.7966zm1.1118 0.62842q0 0.63647 0.35449 1.0474 0.35449 0.40283 0.95068 0.40283 0.58008 0 0.92652-0.39477 0.34643-0.40284 0.34643-1.0876v-0.59619q0-0.63648-0.35449-1.0393-0.34644-0.40283-0.93457-0.40283-0.57202 0-0.93457 0.40283-0.35449 0.39478-0.35449 1.0715zm-4.0686 1.3616-0.84594-0.53174 5.7283-9.1685 0.84595 0.53174z" />
	</g>
	<g id="text1822" fill="#fff" aria-label="RGBD 20">
		<path id="path1656" d="m45.081 354.21h-1.5754v3.5134h-1.9775v-9.5977h3.5662q1.7007 0 2.6235 0.75806 0.92285 0.75806 0.92285 2.1423 0 0.98217-0.42847 1.6414-0.42188 0.65259-1.2854 1.0415l2.0764 3.9221v0.0923h-2.1226zm-1.5754-1.6018h1.5952q0.74487 0 1.1536-0.37574 0.40869-0.38232 0.40869-1.0481 0-0.67896-0.38892-1.0679-0.38232-0.38892-1.1799-0.38892h-1.5886z" />
		<path id="path1659" d="m57.737 356.51q-0.53394 0.6394-1.5095 0.99536-0.97559 0.34937-2.1621 0.34937-1.2458 0-2.1885-0.54053-0.93604-0.54712-1.4502-1.582-0.50757-1.0349-0.52075-2.4324v-0.65259q0-1.437 0.4812-2.4851 0.48779-1.0547 1.3975-1.6084 0.91626-0.5603 2.1423-0.5603 1.7073 0 2.6697 0.81738 0.9624 0.81079 1.1404 2.3665h-1.9248q-0.13184-0.82398-0.58667-1.2063-0.44824-0.38233-1.2393-0.38233-1.0085 0-1.5359 0.75806t-0.53394 2.2544v0.61304q0 1.5095 0.57349 2.2808 0.57349 0.77124 1.6809 0.77124 1.114 0 1.5886-0.47461v-1.6545h-1.7996v-1.4568h3.7771z" />
		<path id="path1662" d="m59.339 357.73v-9.5977h3.3618q1.7468 0 2.6499 0.67237 0.90308 0.66577 0.90308 1.9578 0 0.70532-0.36255 1.2458-0.36255 0.53394-1.0085 0.78443 0.73828 0.18457 1.1602 0.74487 0.42847 0.5603 0.42847 1.3711 0 1.3843-0.8833 2.0962-0.8833 0.71192-2.5181 0.7251zm1.9775-4.1792v2.5906h1.6941q0.69873 0 1.0876-0.32959 0.39551-0.33618 0.39551-0.92285 0-1.3184-1.3645-1.3381zm0-1.3975h1.4634q1.4963-0.0264 1.4963-1.1931 0-0.65259-0.38232-0.93604-0.37573-0.29004-1.1931-0.29004h-1.3843z" />
		<path id="path1665" d="m67.954 357.73v-9.5977h2.9531q1.2656 0 2.261 0.57349 1.002 0.5669 1.5623 1.6216 0.5603 1.0481 0.5603 2.3862v0.44165q0 1.3381-0.55371 2.3796-0.54712 1.0415-1.5491 1.615-1.002 0.57349-2.261 0.58008zm1.9775-7.9958v6.4072h0.95581q1.1602 0 1.7732-0.75806t0.62622-2.1687v-0.50757q0-1.4634-0.60644-2.2148-0.60645-0.75806-1.7732-0.75806z" />
		<path id="path1668" d="m86.464 357.73h-6.5786v-1.3052l3.1047-3.3091q0.6394-0.69873 0.94263-1.2195 0.30981-0.52075 0.30981-0.98877 0-0.6394-0.323-1.002-0.323-0.36914-0.92285-0.36914-0.646 0-1.0217 0.44824-0.36914 0.44165-0.36914 1.1668h-1.9116q0-0.87671 0.41528-1.6018 0.42188-0.7251 1.1865-1.1338 0.76465-0.41528 1.7336-0.41528 1.4832 0 2.3005 0.71191 0.82397 0.71192 0.82397 2.0105 0 0.71192-0.36914 1.4502-0.36914 0.73828-1.2656 1.7205l-2.1819 2.3005h4.1265z" />
		<path id="path1671" d="m94.091 353.76q0 1.9907-0.82398 3.0454-0.82397 1.0547-2.4126 1.0547-1.5688 0-2.3994-1.0349-0.83057-1.0349-0.85034-2.9663v-1.7666q0-2.0105 0.83057-3.052 0.83716-1.0415 2.406-1.0415t2.3994 1.0349q0.83057 1.0283 0.85034 2.9597zm-1.905-1.938q0-1.1931-0.32959-1.7336-0.323-0.54712-1.0151-0.54712-0.67236 0-0.99536 0.52075-0.31641 0.51416-0.33618 1.615v2.3335q0 1.1733 0.31641 1.7468 0.323 0.5669 1.0283 0.5669 0.69873 0 1.0085-0.54712 0.30981-0.54712 0.323-1.6743z" />
	</g>
	<g id="text1825" fill="#fff" aria-label="RGBD 22">
		<path id="path1674" d="m45.081 380.93h-1.5754v3.5134h-1.9775v-9.5977h3.5662q1.7007 0 2.6235 0.75806 0.92285 0.75806 0.92285 2.1423 0 0.98218-0.42847 1.6414-0.42188 0.65259-1.2854 1.0415l2.0764 3.9221v0.0923h-2.1226zm-1.5754-1.6018h1.5952q0.74487 0 1.1536-0.37574 0.40869-0.38232 0.40869-1.0481 0-0.67896-0.38892-1.0679-0.38232-0.38892-1.1799-0.38892h-1.5886z" />
		<path id="path1677" d="m57.737 383.23q-0.53394 0.6394-1.5095 0.99536-0.97559 0.34937-2.1621 0.34937-1.2458 0-2.1885-0.54053-0.93604-0.54712-1.4502-1.582-0.50757-1.0349-0.52075-2.4324v-0.65258q0-1.437 0.4812-2.4851 0.48779-1.0547 1.3975-1.6084 0.91626-0.5603 2.1423-0.5603 1.7073 0 2.6697 0.81738 0.9624 0.81079 1.1404 2.3665h-1.9248q-0.13184-0.82398-0.58667-1.2063-0.44824-0.38233-1.2393-0.38233-1.0085 0-1.5359 0.75806t-0.53394 2.2544v0.61304q0 1.5095 0.57349 2.2808 0.57349 0.77124 1.6809 0.77124 1.114 0 1.5886-0.47461v-1.6545h-1.7996v-1.4568h3.7771z" />
		<path id="path1680" d="m59.339 384.45v-9.5977h3.3618q1.7468 0 2.6499 0.67237 0.90308 0.66577 0.90308 1.9578 0 0.70532-0.36255 1.2458-0.36255 0.53394-1.0085 0.78442 0.73828 0.18457 1.1602 0.74488 0.42847 0.5603 0.42847 1.3711 0 1.3843-0.8833 2.0962-0.8833 0.71192-2.5181 0.7251zm1.9775-4.1792v2.5906h1.6941q0.69873 0 1.0876-0.32959 0.39551-0.33618 0.39551-0.92285 0-1.3184-1.3645-1.3381zm0-1.3975h1.4634q1.4963-0.0264 1.4963-1.1931 0-0.65258-0.38232-0.93603-0.37573-0.29004-1.1931-0.29004h-1.3843z" />
		<path id="path1683" d="m67.954 384.45v-9.5977h2.9531q1.2656 0 2.261 0.57349 1.002 0.56689 1.5623 1.6216 0.5603 1.0481 0.5603 2.3862v0.44165q0 1.3381-0.55371 2.3796-0.54712 1.0415-1.5491 1.615-1.002 0.57349-2.261 0.58008zm1.9775-7.9958v6.4072h0.95581q1.1602 0 1.7732-0.75806t0.62622-2.1687v-0.50757q0-1.4634-0.60644-2.2148-0.60645-0.75806-1.7732-0.75806z" />
		<path id="path1686" d="m86.464 384.45h-6.5786v-1.3052l3.1047-3.3091q0.6394-0.69873 0.94263-1.2195 0.30981-0.52075 0.30981-0.98877 0-0.6394-0.323-1.002-0.323-0.36914-0.92285-0.36914-0.646 0-1.0217 0.44824-0.36914 0.44165-0.36914 1.1668h-1.9116q0-0.87671 0.41528-1.6018 0.42188-0.7251 1.1865-1.1338 0.76465-0.41528 1.7336-0.41528 1.4832 0 2.3005 0.71191 0.82397 0.71192 0.82397 2.0105 0 0.71191-0.36914 1.4502-0.36914 0.73829-1.2656 1.7205l-2.1819 2.3005h4.1265z" />
		<path id="path1689" d="m94.209 384.45h-6.5786v-1.3052l3.1047-3.3091q0.6394-0.69873 0.94263-1.2195 0.30982-0.52075 0.30982-0.98877 0-0.6394-0.323-1.002-0.323-0.36914-0.92285-0.36914-0.646 0-1.0217 0.44824-0.36914 0.44165-0.36914 1.1668h-1.9116q0-0.87671 0.41528-1.6018 0.42188-0.7251 1.1865-1.1338 0.76465-0.41528 1.7336-0.41528 1.4832 0 2.3005 0.71191 0.82398 0.71192 0.82398 2.0105 0 0.71191-0.36914 1.4502-0.36914 0.73829-1.2656 1.7205l-2.1819 2.3005h4.1265z" />
	</g>
	<g id="text1828" fill="#fff" aria-label="RGBD 24">
		<path id="path1692" d="m45.081 407.65h-1.5754v3.5134h-1.9775v-9.5977h3.5662q1.7007 0 2.6235 0.75806 0.92285 0.75805 0.92285 2.1423 0 0.98218-0.42847 1.6414-0.42188 0.65259-1.2854 1.0415l2.0764 3.9221v0.0923h-2.1226zm-1.5754-1.6018h1.5952q0.74487 0 1.1536-0.37573 0.40869-0.38232 0.40869-1.0481 0-0.67896-0.38892-1.0679-0.38232-0.38891-1.1799-0.38891h-1.5886z" />
		<path id="path1695" d="m57.737 409.95q-0.53394 0.6394-1.5095 0.99536-0.97559 0.34936-2.1621 0.34936-1.2458 0-2.1885-0.54052-0.93604-0.54712-1.4502-1.582-0.50757-1.0349-0.52075-2.4324v-0.65259q0-1.437 0.4812-2.4851 0.48779-1.0547 1.3975-1.6084 0.91626-0.5603 2.1423-0.5603 1.7073 0 2.6697 0.81738 0.9624 0.81079 1.1404 2.3664h-1.9248q-0.13184-0.82397-0.58667-1.2063-0.44824-0.38232-1.2393-0.38232-1.0085 0-1.5359 0.75806-0.52734 0.75805-0.53394 2.2544v0.61304q0 1.5095 0.57349 2.2808 0.57349 0.77124 1.6809 0.77124 1.114 0 1.5886-0.47461v-1.6545h-1.7996v-1.4568h3.7771z" />
		<path id="path1698" d="m59.339 411.16v-9.5977h3.3618q1.7468 0 2.6499 0.67236 0.90308 0.66578 0.90308 1.9578 0 0.70532-0.36255 1.2458-0.36255 0.53393-1.0085 0.78442 0.73828 0.18457 1.1602 0.74488 0.42847 0.5603 0.42847 1.3711 0 1.3843-0.8833 2.0962t-2.5181 0.7251zm1.9775-4.1792v2.5906h1.6941q0.69873 0 1.0876-0.32959 0.39551-0.33618 0.39551-0.92285 0-1.3184-1.3645-1.3381zm0-1.3975h1.4634q1.4963-0.0264 1.4963-1.1931 0-0.65259-0.38232-0.93603-0.37573-0.29004-1.1931-0.29004h-1.3843z" />
		<path id="path1701" d="m67.954 411.16v-9.5977h2.9531q1.2656 0 2.261 0.57349 1.002 0.56689 1.5623 1.6216 0.5603 1.0481 0.5603 2.3862v0.44165q0 1.3381-0.55371 2.3796-0.54712 1.0415-1.5491 1.615t-2.261 0.58008zm1.9775-7.9958v6.4072h0.95581q1.1602 0 1.7732-0.75805 0.61304-0.75806 0.62622-2.1687v-0.50757q0-1.4634-0.60644-2.2148-0.60645-0.75805-1.7732-0.75805z" />
		<path id="path1704" d="m86.464 411.16h-6.5786v-1.3052l3.1047-3.3091q0.6394-0.69873 0.94263-1.2195 0.30981-0.52075 0.30981-0.98877 0-0.63941-0.323-1.002-0.323-0.36914-0.92285-0.36914-0.646 0-1.0217 0.44825-0.36914 0.44165-0.36914 1.1667h-1.9116q0-0.8767 0.41528-1.6018 0.42188-0.7251 1.1865-1.1338 0.76465-0.41528 1.7336-0.41528 1.4832 0 2.3005 0.71191 0.82397 0.71191 0.82397 2.0105 0 0.71191-0.36914 1.4502-0.36914 0.73828-1.2656 1.7205l-2.1819 2.3005h4.1265z" />
		<path id="path1707" d="m93.267 407.55h1.0876v1.5359h-1.0876v2.0764h-1.905v-2.0764h-3.9353l-0.08569-1.1997 4.0012-6.3215h1.9248zm-4.0276 0h2.1226v-3.3882l-0.12524 0.21753z" />
	</g>
	<g id="text1831" fill="#fff" aria-label="RGBD 26">
		<path id="path1710" d="m45.081 434.37h-1.5754v3.5134h-1.9775v-9.5977h3.5662q1.7007 0 2.6235 0.75806 0.92285 0.75805 0.92285 2.1423 0 0.98218-0.42847 1.6414-0.42188 0.65259-1.2854 1.0415l2.0764 3.9221v0.0923h-2.1226zm-1.5754-1.6018h1.5952q0.74487 0 1.1536-0.37573 0.40869-0.38232 0.40869-1.0481 0-0.67895-0.38892-1.0679-0.38232-0.38891-1.1799-0.38891h-1.5886z" />
		<path id="path1713" d="m57.737 436.67q-0.53394 0.6394-1.5095 0.99536-0.97559 0.34936-2.1621 0.34936-1.2458 0-2.1885-0.54052-0.93604-0.54712-1.4502-1.582-0.50757-1.0349-0.52075-2.4324v-0.65259q0-1.437 0.4812-2.4851 0.48779-1.0547 1.3975-1.6084 0.91626-0.56031 2.1423-0.56031 1.7073 0 2.6697 0.81739 0.9624 0.81079 1.1404 2.3664h-1.9248q-0.13184-0.82397-0.58667-1.2063-0.44824-0.38232-1.2393-0.38232-1.0085 0-1.5359 0.75806-0.52734 0.75805-0.53394 2.2544v0.61304q0 1.5095 0.57349 2.2808 0.57349 0.77124 1.6809 0.77124 1.114 0 1.5886-0.47461v-1.6545h-1.7996v-1.4568h3.7771z" />
		<path id="path1716" d="m59.339 437.88v-9.5977h3.3618q1.7468 0 2.6499 0.67236 0.90308 0.66577 0.90308 1.9578 0 0.70532-0.36255 1.2458-0.36255 0.53393-1.0085 0.78442 0.73828 0.18457 1.1602 0.74487 0.42847 0.56031 0.42847 1.3711 0 1.3843-0.8833 2.0962-0.8833 0.71191-2.5181 0.7251zm1.9775-4.1792v2.5906h1.6941q0.69873 0 1.0876-0.32959 0.39551-0.33618 0.39551-0.92285 0-1.3184-1.3645-1.3381zm0-1.3975h1.4634q1.4963-0.0264 1.4963-1.1931 0-0.65259-0.38232-0.93603-0.37573-0.29004-1.1931-0.29004h-1.3843z" />
		<path id="path1719" d="m67.954 437.88v-9.5977h2.9531q1.2656 0 2.261 0.57349 1.002 0.56689 1.5623 1.6216 0.5603 1.0481 0.5603 2.3862v0.44165q0 1.3381-0.55371 2.3796-0.54712 1.0415-1.5491 1.615-1.002 0.57348-2.261 0.58008zm1.9775-7.9958v6.4072h0.95581q1.1602 0 1.7732-0.75805 0.61304-0.75806 0.62622-2.1687v-0.50757q0-1.4634-0.60644-2.2148-0.60645-0.75805-1.7732-0.75805z" />
		<path id="path1722" d="m86.464 437.88h-6.5786v-1.3052l3.1047-3.3091q0.6394-0.69873 0.94263-1.2195 0.30981-0.52076 0.30981-0.98877 0-0.63941-0.323-1.002-0.323-0.36914-0.92285-0.36914-0.646 0-1.0217 0.44825-0.36914 0.44165-0.36914 1.1667h-1.9116q0-0.87671 0.41528-1.6018 0.42188-0.7251 1.1865-1.1338 0.76465-0.41529 1.7336-0.41529 1.4832 0 2.3005 0.71192 0.82397 0.71191 0.82397 2.0105 0 0.71191-0.36914 1.4502-0.36914 0.73828-1.2656 1.7205l-2.1819 2.3005h4.1265z" />
		<path id="path1725" d="m92.799 428.19v1.5688h-0.18457q-1.292 0.0198-2.083 0.67236-0.78442 0.65259-0.94263 1.8128 0.76465-0.77783 1.9314-0.77783 1.2524 0 1.9907 0.89648 0.73828 0.89649 0.73828 2.3599 0 0.93604-0.40869 1.6941-0.4021 0.75805-1.147 1.1799-0.73828 0.42187-1.6743 0.42187-1.5161 0-2.4521-1.0547-0.92944-1.0547-0.92944-2.8147v-0.68555q0-1.5623 0.58667-2.7554 0.59326-1.1997 1.6941-1.8523 1.1074-0.65917 2.5642-0.66577zm-1.8589 4.8054q-0.46143 0-0.83716 0.2439-0.37573 0.2373-0.55371 0.63281v0.58008q0 0.95581 0.37573 1.4963 0.37573 0.53393 1.0547 0.53393 0.61304 0 0.98877-0.4812 0.38232-0.48779 0.38232-1.259 0-0.78442-0.38232-1.2656-0.38232-0.4812-1.0283-0.4812z" />
	</g>
</svg>
