<?xml version="1.0" encoding="UTF-8"?>
<svg id="svg11871" width="605.92pt" height="488.98pt" version="1.1" viewBox="0 0 605.92 488.98" xmlns="http://www.w3.org/2000/svg" xmlns:xlink="http://www.w3.org/1999/xlink">
	<defs id="defs11794">
		<path id="m8eb7f00f4d" d="m4.5 0-9-4.5v9z" stroke="#262626" />
		<clipPath id="clip-m8eb7f00f4d">
			<rect x="43.068" y="0" width="800" height="600" transform="scale(0.75)" />
		</clipPath>
	</defs>
	<g id="g13026" transform="translate(-57.699 -62.2)" fill="#262626">
		<g id="text11465" aria-label="30">
			<path id="path2962" d="m84.143 530.6h0.99902q0.82983 0 1.4502-0.29004 0.62036-0.2981 0.94263-0.80567 0.33032-0.51562 0.33032-1.1843 0-1.1279-0.63647-1.7644-0.63648-0.63647-1.8289-0.63647-1.1279 0-1.853 0.6687-0.71704 0.66064-0.71704 1.7483h-0.9668q0-0.9104 0.45923-1.6597 0.45923-0.75732 1.273-1.1682 0.81372-0.41089 1.8047-0.41089 1.5952 0 2.5137 0.87012 0.91846 0.87011 0.91846 2.3848 0 0.84595-0.5398 1.563-0.53174 0.70899-1.4663 1.0635 1.0957 0.30615 1.6597 1.0554 0.56396 0.74121 0.56396 1.7725 0 1.5066-0.98291 2.425-0.98291 0.91845-2.6265 0.91845-1.0474 0-1.9255-0.41894-0.87012-0.41895-1.3535-1.1682-0.47534-0.75733-0.47534-1.7564h0.9668q0 1.1199 0.78149 1.8289 0.78149 0.70092 2.0061 0.70092 1.2488 0 1.9417-0.63647 0.70093-0.64453 0.70093-1.8611 0-1.1763-0.75732-1.7966-0.74927-0.62036-2.2156-0.62036h-0.9668z" />
			<path id="path2964" d="m98.218 532.1q0 2.4814-0.9104 3.7705-0.9104 1.281-2.6829 1.281-1.7402 0-2.6667-1.2568-0.92651-1.2649-0.95068-3.6738v-2.1028q0-2.4734 0.91846-3.7463t2.6829-1.273q1.7402 0 2.6587 1.2327 0.91846 1.2246 0.95068 3.6174zm-0.9668-2.1028q0-2.0142-0.66064-3.0454-0.65259-1.0312-1.9819-1.0312-1.3052 0-1.9658 1.0071-0.66064 1.0071-0.67676 2.9729v2.3042q0 2.0061 0.67676 3.0696 0.68482 1.0635 1.9819 1.0635 1.2891 0 1.9497-1.0393 0.6687-1.0393 0.67676-3.0454z" />
		</g>
		<g id="text11469" aria-label="35">
			<path id="path2967" d="m223.58 530.6h0.99902q0.82983 0 1.4502-0.29004 0.62036-0.2981 0.94262-0.80567 0.33033-0.51562 0.33033-1.1843 0-1.1279-0.63648-1.7644-0.63647-0.63647-1.8289-0.63647-1.1279 0-1.853 0.6687-0.71704 0.66064-0.71704 1.7483h-0.9668q0-0.9104 0.45923-1.6597 0.45923-0.75732 1.273-1.1682t1.8047-0.41089q1.5952 0 2.5137 0.87012 0.91845 0.87011 0.91845 2.3848 0 0.84595-0.53979 1.563-0.53174 0.70899-1.4663 1.0635 1.0957 0.30615 1.6597 1.0554 0.56396 0.74121 0.56396 1.7725 0 1.5066-0.98291 2.425-0.98291 0.91845-2.6265 0.91845-1.0474 0-1.9255-0.41894-0.87012-0.41895-1.3535-1.1682-0.47534-0.75733-0.47534-1.7564h0.9668q0 1.1199 0.78149 1.8289 0.7815 0.70092 2.0061 0.70092 1.2488 0 1.9416-0.63647 0.70092-0.64453 0.70092-1.8611 0-1.1763-0.75732-1.7966-0.74927-0.62036-2.2156-0.62036h-0.96679z" />
			<path id="path2969" d="m231.24 530.98 0.57202-5.7202h5.8652v0.89429h-5.0354l-0.41089 3.9639q0.94263-0.64453 2.2075-0.64453 1.5872 0 2.5298 1.0312 0.94262 1.0312 0.94262 2.7473 0 1.853-0.91845 2.8762-0.91846 1.0232-2.5862 1.0232-1.5308 0-2.4814-0.854t-1.0876-2.3928h0.92652q0.13696 1.2004 0.81372 1.8208 0.67676 0.6123 1.8289 0.6123 1.2568 0 1.8933-0.7976 0.64453-0.79761 0.64453-2.272 0-1.2891-0.71704-2.1028t-1.9578-0.81372q-0.68481 0-1.1924 0.17725-0.50757 0.16919-1.0715 0.6687z" />
		</g>
		<g id="text11473" aria-label="40">
			<path id="path2972" d="m366.8 533.21h1.8288v0.81372h-1.8288v2.9648h-0.9668v-2.9648h-5.5188v-0.54785l5.4302-8.2178h1.0554zm-5.3013 0h4.3345v-6.7031l-0.427 0.74121z" />
			<path id="path2974" d="m377.1 532.1q0 2.4814-0.9104 3.7705-0.9104 1.281-2.6829 1.281-1.7402 0-2.6668-1.2568-0.92651-1.2649-0.95068-3.6738v-2.1028q0-2.4734 0.91846-3.7463 0.91845-1.273 2.6829-1.273 1.7402 0 2.6587 1.2327 0.91846 1.2246 0.95068 3.6174zm-0.96679-2.1028q0-2.0142-0.66065-3.0454-0.65259-1.0312-1.9819-1.0312-1.3052 0-1.9658 1.0071-0.66065 1.0071-0.67676 2.9729v2.3042q0 2.0061 0.67676 3.0696 0.68481 1.0635 1.9819 1.0635 1.2891 0 1.9497-1.0393 0.6687-1.0393 0.67676-3.0454z" />
		</g>
		<g id="text11477" aria-label="45">
			<path id="path2977" d="m506.24 533.15h1.8289v0.81372h-1.8289v2.9648h-0.9668v-2.9648h-5.5188v-0.54785l5.4302-8.2178h1.0554zm-5.3013 0h4.3345v-6.7031l-0.427 0.74121z" />
			<path id="path2979" d="m510.12 530.92 0.57203-5.7202h5.8652v0.89429h-5.0354l-0.41089 3.9639q0.94263-0.64453 2.2075-0.64453 1.5872 0 2.5298 1.0312 0.94262 1.0312 0.94262 2.7473 0 1.853-0.91845 2.8762-0.91846 1.0232-2.5862 1.0232-1.5308 0-2.4814-0.854-0.95068-0.85401-1.0876-2.3928h0.92652q0.13696 1.2004 0.81372 1.8208 0.67675 0.61231 1.8288 0.61231 1.2568 0 1.8933-0.79761 0.64453-0.79761 0.64453-2.272 0-1.2891-0.71704-2.1028-0.71705-0.81373-1.9578-0.81373-0.68481 0-1.1924 0.17725-0.50757 0.16919-1.0715 0.6687z" />
		</g>
	</g>
	<g id="text11501" transform="rotate(-90)" fill="#262626" aria-label="KITTI">
		<path id="path2982" d="m-50.89 17.417-1.6948 1.7615v4.6846h-1.8281v-13.863h1.8281v6.8555l6.1604-6.8555h2.209l-5.4558 6.1223 5.8843 7.741h-2.1899z" />
		<path id="path2984" d="m-40.226 23.863h-1.8281v-13.863h1.8281z" />
		<path id="path2986" d="m-27.306 11.504h-4.4561v12.359h-1.8186v-12.359h-4.4465v-1.5044h10.721z" />
		<path id="path2988" d="m-15.518 11.504h-4.4561v12.359h-1.8186v-12.359h-4.4465v-1.5044h10.721z" />
		<path id="path2990" d="m-11.5 23.863h-1.8281v-13.863h1.8281z" />
	</g>
	<g clip-path="url(#clip-m8eb7f00f4d)">
		<g transform="scale(.75)">
			<path id="path11505" d="m43.068 28.832v28.5h367.23v-28.5h-367.23z" fill="#5875a4" stroke="#fff" stroke-width="2" />
			<path id="path11556" d="m43.068 64.457v28.5h118.79v-28.5h-118.79z" fill="#cc8963" stroke="#fff" stroke-width="2" />
			<path id="path11607" d="m43.068 100.08v28.498h451.5v-28.498h-451.5z" fill="#5f9e6e" stroke="#fff" stroke-width="2" />
			<path id="path11610" d="m43.068 135.71v28.5h320.3v-28.5h-320.3z" fill="#5f9e6e" stroke="#fff" stroke-width="2" />
			<path id="path11613" d="m43.068 171.33v28.498h461.24v-28.498h-461.24z" fill="#5f9e6e" stroke="#fff" stroke-width="2" />
			<path id="path11616" d="m43.068 206.95v28.5h530.43v-28.5h-530.43z" fill="#5f9e6e" stroke="#fff" stroke-width="2" />
			<path id="path11619" d="m43.068 242.58v28.498h675.39v-28.498h-675.39z" fill="#5f9e6e" stroke="#fff" stroke-width="2" />
			<path id="path11622" d="m43.068 278.2v28.5h321.4v-28.5h-321.4z" fill="#5f9e6e" stroke="#fff" stroke-width="2" />
			<path id="path11625" d="m43.068 313.83v28.498h624.57v-28.498h-624.57z" fill="#5f9e6e" stroke="#fff" stroke-width="2" />
			<path id="path11628" d="m43.068 349.45v28.5h351.46v-28.5h-351.46z" fill="#5f9e6e" stroke="#fff" stroke-width="2" />
			<path id="path11631" d="m43.068 385.07v28.498h634.62v-28.498h-634.62z" fill="#5f9e6e" stroke="#fff" stroke-width="2" />
			<path id="path11634" d="m43.068 420.7v28.5h463.97v-28.5h-463.97z" fill="#5f9e6e" stroke="#fff" stroke-width="2" />
			<path id="path11637" d="m43.068 456.32v28.5h413.25v-28.5h-413.25z" fill="#5f9e6e" stroke="#fff" stroke-width="2" />
			<path id="path11640" d="m43.068 491.95v28.5h295.58v-28.5h-295.58z" fill="#5f9e6e" stroke="#fff" stroke-width="2" />
			<path id="path11643" d="m43.068 527.57v28.5h300.32v-28.5h-300.32z" fill="#5f9e6e" stroke="#fff" stroke-width="2" />
			<path id="path11646" d="m43.068 563.2v28.498h303.78v-28.498h-303.78z" fill="#5f9e6e" stroke="#fff" stroke-width="2" />
		</g>
	</g>
	<use id="use11796" transform="translate(-57.699 -58.182)" x="648" y="512.64001" width="100%" height="100%" fill="#262626" stroke="#262626" xlink:href="#m8eb7f00f4d" />
	<path id="path11801" d="m32.301 454.46v-443.52" fill="none" stroke="#262626" stroke-linecap="square" stroke-width="1.875" />
	<path id="path11804" d="m32.301 454.46h558" fill="none" stroke="#262626" stroke-linecap="square" stroke-width="1.875" />
	<g id="text11807" fill="#fff" aria-label="RGB">
		<path id="path2993" d="m45.081 33.597h-1.5754v3.5134h-1.9775v-9.5977h3.5662q1.7007 0 2.6235 0.75806 0.92285 0.75806 0.92285 2.1423 0 0.98218-0.42847 1.6414-0.42188 0.65259-1.2854 1.0415l2.0764 3.9221v0.09229h-2.1226zm-1.5754-1.6018h1.5952q0.74487 0 1.1536-0.37573 0.40869-0.38232 0.40869-1.0481 0-0.67896-0.38892-1.0679-0.38232-0.38892-1.1799-0.38892h-1.5886z" />
		<path id="path2995" d="m57.737 35.898q-0.53394 0.6394-1.5095 0.99536-0.97559 0.34936-2.1621 0.34936-1.2458 0-2.1885-0.54053-0.93604-0.54712-1.4502-1.582-0.50757-1.0349-0.52075-2.4324v-0.65259q0-1.437 0.4812-2.4851 0.48779-1.0547 1.3975-1.6084 0.91626-0.5603 2.1423-0.5603 1.7073 0 2.6697 0.81738 0.9624 0.81079 1.1404 2.3665h-1.9248q-0.13184-0.82398-0.58667-1.2063-0.44824-0.38232-1.2393-0.38232-1.0085 0-1.5359 0.75806-0.52734 0.75806-0.53394 2.2544v0.61304q0 1.5095 0.57349 2.2808 0.57349 0.77124 1.6809 0.77124 1.114 0 1.5886-0.47461v-1.6545h-1.7996v-1.4568h3.7771z" />
		<path id="path2997" d="m59.339 37.111v-9.5977h3.3618q1.7468 0 2.6499 0.67236 0.90308 0.66577 0.90308 1.9578 0 0.70532-0.36255 1.2458-0.36255 0.53394-1.0085 0.78442 0.73828 0.18457 1.1602 0.74487 0.42847 0.5603 0.42847 1.3711 0 1.3843-0.8833 2.0962t-2.5181 0.7251zm1.9775-4.1792v2.5906h1.6941q0.69873 0 1.0876-0.32959 0.39551-0.33618 0.39551-0.92285 0-1.3184-1.3645-1.3381zm0-1.3975h1.4634q1.4963-0.02637 1.4963-1.1931 0-0.65259-0.38232-0.93604-0.37573-0.29004-1.1931-0.29004h-1.3843z" />
	</g>
	<g id="text11810" fill="#fff" aria-label="39.9%">
		<path id="path3000" d="m262.11 31.587h1.1199q1.0554-0.01611 1.6597-0.55591 0.60425-0.5398 0.60425-1.4583 0-2.0625-2.0544-2.0625-0.9668 0-1.5469 0.55591-0.57202 0.54785-0.57202 1.4583h-1.4905q0-1.3938 1.0151-2.3123 1.0232-0.92651 2.5942-0.92651 1.6597 0 2.6023 0.87817t0.94263 2.4412q0 0.76538-0.49951 1.4824-0.49146 0.71704-1.3455 1.0715 0.96679 0.30615 1.4905 1.0151 0.53174 0.70898 0.53174 1.7322 0 1.5791-1.0312 2.5056-1.0312 0.92651-2.6829 0.92651t-2.6909-0.89429q-1.0312-0.89429-1.0312-2.3606h1.4985q0 0.92651 0.60425 1.4824 0.60425 0.55591 1.6194 0.55591 1.0796 0 1.6516-0.56396t0.57202-1.6194q0-1.0232-0.62841-1.571-0.62842-0.54785-1.8128-0.56396h-1.1199z" />
		<path id="path3002" d="m274.92 33.021q-0.46729 0.55591-1.1199 0.89429-0.64454 0.33838-1.418 0.33838-1.0151 0-1.7725-0.49951-0.74927-0.49951-1.1602-1.4019-0.41089-0.9104-0.41089-2.0061 0-1.1763 0.44312-2.1189 0.45117-0.94263 1.2729-1.4421 0.82178-0.49951 1.9175-0.49951 1.7402 0 2.7392 1.3052 1.0071 1.2971 1.0071 3.5449v0.43506q0 3.4241-1.3535 5.0032-1.3535 1.571-4.0847 1.6113h-0.29004v-1.2568h0.31421q1.845-0.03223 2.8359-0.95874 0.99097-0.93457 1.0796-2.9487zm-2.2961 0q0.74926 0 1.3777-0.45923 0.63648-0.45923 0.92651-1.136v-0.59619q0-1.4663-0.63647-2.3848t-1.6113-0.91846q-0.98291 0-1.5791 0.75732-0.59619 0.74927-0.59619 1.9819 0 1.2004 0.57202 1.9819 0.58008 0.77344 1.5469 0.77344z" />
		<path id="path3004" d="m278.66 37.396q0-0.38672 0.22559-0.64453 0.23364-0.25781 0.69287-0.25781 0.45922 0 0.69287 0.25781 0.2417 0.25781 0.2417 0.64453 0 0.37061-0.2417 0.62036-0.23365 0.24976-0.69287 0.24976-0.45923 0-0.69287-0.24976-0.22559-0.24976-0.22559-0.62036z" />
		<path id="path3006" d="m288.53 33.021q-0.46728 0.55591-1.1199 0.89429-0.64453 0.33838-1.418 0.33838-1.0151 0-1.7725-0.49951-0.74927-0.49951-1.1602-1.4019-0.41089-0.9104-0.41089-2.0061 0-1.1763 0.44311-2.1189 0.45117-0.94263 1.273-1.4421 0.82178-0.49951 1.9175-0.49951 1.7402 0 2.7393 1.3052 1.0071 1.2971 1.0071 3.5449v0.43506q0 3.4241-1.3535 5.0032-1.3535 1.571-4.0847 1.6113h-0.29004v-1.2568h0.31421q1.845-0.03223 2.8359-0.95874 0.99097-0.93457 1.0796-2.9487zm-2.2961 0q0.74927 0 1.3777-0.45923 0.63647-0.45923 0.92651-1.136v-0.59619q0-1.4663-0.63647-2.3848-0.63648-0.91846-1.6113-0.91846-0.98291 0-1.5791 0.75732-0.59619 0.74927-0.59619 1.9819 0 1.2004 0.57202 1.9819 0.58007 0.77344 1.5469 0.77344z" />
		<path id="path3008" d="m291.95 28.703q0-1.0554 0.6687-1.7402 0.67676-0.68482 1.7322-0.68482 1.0715 0 1.7322 0.69287 0.6687 0.68482 0.6687 1.7805v0.57202q0 1.0635-0.67675 1.7402-0.6687 0.6687-1.708 0.6687-1.0474 0-1.7322-0.6687-0.68481-0.67676-0.68481-1.7966zm1.1118 0.62036q0 0.62842 0.35449 1.0393 0.3545 0.40283 0.95069 0.40283 0.57202 0 0.91846-0.39478 0.35449-0.39478 0.35449-1.0796v-0.58814q0-0.62842-0.34644-1.0393-0.34643-0.41089-0.94262-0.41089-0.5962 0-0.94263 0.41089-0.34644 0.41089-0.34644 1.0715zm4.6003 5.978q0-1.0554 0.66871-1.7322 0.67675-0.68481 1.7322-0.68481t1.7322 0.67676q0.67676 0.67676 0.67676 1.7966v0.57202q0 1.0554-0.67676 1.7402-0.6687 0.67676-1.7161 0.67676-1.0474 0-1.7322-0.6687-0.68482-0.67676-0.68482-1.7966zm1.1118 0.62842q0 0.63647 0.35449 1.0474 0.3545 0.40283 0.95069 0.40283 0.58007 0 0.92651-0.39478 0.34644-0.40283 0.34644-1.0876v-0.59619q0-0.63648-0.3545-1.0393-0.34643-0.40283-0.93457-0.40283-0.57202 0-0.93457 0.40283-0.35449 0.39478-0.35449 1.0715zm-4.0686 1.3616-0.84595-0.53174 5.7283-9.1685 0.84595 0.53174z" />
	</g>
	<g id="text11813" fill="#fff" aria-label="D">
		<path id="path3011" d="m41.528 63.829v-9.5977h2.9531q1.2656 0 2.261 0.57349 1.002 0.5669 1.5623 1.6216 0.5603 1.0481 0.5603 2.3862v0.44165q0 1.3381-0.55371 2.3796-0.54712 1.0415-1.5491 1.615t-2.261 0.58008zm1.9775-7.9958v6.4072h0.95581q1.1602 0 1.7732-0.75806 0.61304-0.75806 0.62622-2.1687v-0.50757q0-1.4634-0.60644-2.2148-0.60644-0.75806-1.7732-0.75806z" fill="#fff" />
	</g>
	<g id="text11816" fill="#fff" aria-label="33.2%">
		<path id="path3014" d="m75.777 58.305h1.1199q1.0554-0.01611 1.6597-0.55591 0.60425-0.53979 0.60425-1.4583 0-2.0625-2.0544-2.0625-0.9668 0-1.5469 0.55591-0.57202 0.54785-0.57202 1.4583h-1.4905q0-1.3938 1.0151-2.3123 1.0232-0.92651 2.5942-0.92651 1.6597 0 2.6023 0.87817t0.94263 2.4412q0 0.76538-0.49951 1.4824-0.49146 0.71704-1.3455 1.0715 0.9668 0.30615 1.4905 1.0151 0.53174 0.70898 0.53174 1.7322 0 1.5791-1.0312 2.5056-1.0312 0.92651-2.6829 0.92651-1.6516 0-2.6909-0.89429-1.0312-0.89429-1.0312-2.3606h1.4985q0 0.92651 0.60425 1.4824 0.60425 0.55591 1.6194 0.55591 1.0796 0 1.6516-0.56396 0.57202-0.56396 0.57202-1.6194 0-1.0232-0.62842-1.571-0.62842-0.54785-1.8127-0.56396h-1.1199z" />
		<path id="path3016" d="m85.042 58.305h1.1199q1.0554-0.01611 1.6597-0.55591 0.60425-0.53979 0.60425-1.4583 0-2.0625-2.0544-2.0625-0.9668 0-1.5469 0.55591-0.57202 0.54785-0.57202 1.4583h-1.4905q0-1.3938 1.0151-2.3123 1.0232-0.92651 2.5942-0.92651 1.6597 0 2.6023 0.87817t0.94263 2.4412q0 0.76538-0.49951 1.4824-0.49146 0.71704-1.3455 1.0715 0.9668 0.30615 1.4905 1.0151 0.53174 0.70898 0.53174 1.7322 0 1.5791-1.0312 2.5056-1.0312 0.92651-2.6829 0.92651t-2.6909-0.89429q-1.0312-0.89429-1.0312-2.3606h1.4985q0 0.92651 0.60425 1.4824 0.60425 0.55591 1.6194 0.55591 1.0796 0 1.6516-0.56396 0.57202-0.56396 0.57202-1.6194 0-1.0232-0.62842-1.571-0.62842-0.54785-1.8127-0.56396h-1.1199z" />
		<path id="path3018" d="m92.326 64.114q0-0.38672 0.22559-0.64453 0.23364-0.25781 0.69287-0.25781 0.45923 0 0.69287 0.25781 0.2417 0.25781 0.2417 0.64453 0 0.3706-0.2417 0.62036-0.23364 0.24976-0.69287 0.24976-0.45923 0-0.69287-0.24976-0.22559-0.24976-0.22559-0.62036z" />
		<path id="path3020" d="m104.17 64.895h-7.686v-1.0715l4.0605-4.5117q0.90235-1.0232 1.2407-1.6597 0.34644-0.64453 0.34644-1.3293 0-0.91846-0.55591-1.5066t-1.4824-0.58814q-1.1118 0-1.7322 0.63648-0.6123 0.62842-0.6123 1.7563h-1.4905q0-1.6194 1.0393-2.6184 1.0474-0.99902 2.7957-0.99902 1.6355 0 2.5862 0.86206 0.95068 0.854 0.95068 2.28 0 1.7322-2.2075 4.125l-3.1421 3.408h5.8894z" />
		<path id="path3022" d="m105.62 55.421q0-1.0554 0.66871-1.7402 0.67675-0.68482 1.7322-0.68482 1.0715 0 1.7322 0.69287 0.6687 0.68481 0.6687 1.7805v0.57202q0 1.0635-0.67676 1.7402-0.6687 0.6687-1.708 0.6687-1.0474 0-1.7322-0.6687-0.68482-0.67676-0.68482-1.7966zm1.1118 0.62036q0 0.62842 0.35449 1.0393 0.3545 0.40283 0.95069 0.40283 0.57202 0 0.91845-0.39478 0.3545-0.39478 0.3545-1.0796v-0.58814q0-0.62842-0.34644-1.0393-0.34643-0.41089-0.94263-0.41089-0.59619 0-0.94262 0.41089-0.34644 0.41089-0.34644 1.0715zm4.6003 5.978q0-1.0554 0.6687-1.7322 0.67676-0.68481 1.7322-0.68481t1.7322 0.67676q0.67676 0.67676 0.67676 1.7966v0.57202q0 1.0554-0.67676 1.7402-0.6687 0.67676-1.7161 0.67676-1.0474 0-1.7322-0.6687-0.68482-0.67676-0.68482-1.7966zm1.1118 0.62842q0 0.63648 0.35449 1.0474 0.35449 0.40283 0.95069 0.40283 0.58007 0 0.92651-0.39478 0.34643-0.40283 0.34643-1.0876v-0.59619q0-0.63648-0.35449-1.0393-0.34643-0.40283-0.93457-0.40283-0.57202 0-0.93457 0.40283-0.35449 0.39478-0.35449 1.0715zm-4.0686 1.3616-0.84595-0.53174 5.7283-9.1685 0.84595 0.53174z" />
	</g>
	<g id="text11819" fill="#fff" aria-label="RGBD 0">
		<path id="path3025" d="m45.081 87.034h-1.5754v3.5134h-1.9775v-9.5977h3.5662q1.7007 0 2.6235 0.75806 0.92285 0.75806 0.92285 2.1423 0 0.98218-0.42847 1.6414-0.42188 0.65259-1.2854 1.0415l2.0764 3.9221v0.09228h-2.1226zm-1.5754-1.6018h1.5952q0.74487 0 1.1536-0.37573 0.40869-0.38232 0.40869-1.0481 0-0.67896-0.38892-1.0679-0.38232-0.38892-1.1799-0.38892h-1.5886z" />
		<path id="path3027" d="m57.737 89.334q-0.53394 0.6394-1.5095 0.99536-0.97559 0.34936-2.1621 0.34936-1.2458 0-2.1885-0.54053-0.93604-0.54712-1.4502-1.582-0.50757-1.0349-0.52075-2.4324v-0.65259q0-1.437 0.4812-2.4851 0.48779-1.0547 1.3975-1.6084 0.91626-0.5603 2.1423-0.5603 1.7073 0 2.6697 0.81738 0.9624 0.81079 1.1404 2.3665h-1.9248q-0.13184-0.82398-0.58667-1.2063-0.44824-0.38232-1.2393-0.38232-1.0085 0-1.5359 0.75806-0.52734 0.75806-0.53394 2.2544v0.61304q0 1.5095 0.57349 2.2808 0.57349 0.77124 1.6809 0.77124 1.114 0 1.5886-0.47461v-1.6545h-1.7996v-1.4568h3.7771z" />
		<path id="path3029" d="m59.339 90.547v-9.5977h3.3618q1.7468 0 2.6499 0.67236 0.90308 0.66577 0.90308 1.9578 0 0.70532-0.36255 1.2458-0.36255 0.53394-1.0085 0.78442 0.73828 0.18457 1.1602 0.74487 0.42847 0.5603 0.42847 1.3711 0 1.3843-0.8833 2.0962t-2.5181 0.7251zm1.9775-4.1792v2.5906h1.6941q0.69873 0 1.0876-0.32959 0.39551-0.33618 0.39551-0.92285 0-1.3184-1.3645-1.3381zm0-1.3975h1.4634q1.4963-0.02637 1.4963-1.1931 0-0.65259-0.38232-0.93604-0.37573-0.29004-1.1931-0.29004h-1.3843z" />
		<path id="path3031" d="m67.954 90.547v-9.5977h2.9531q1.2656 0 2.261 0.57349 1.002 0.5669 1.5623 1.6216 0.5603 1.0481 0.5603 2.3862v0.44165q0 1.3381-0.55371 2.3796-0.54712 1.0415-1.5491 1.615-1.002 0.57349-2.261 0.58008zm1.9775-7.9958v6.4072h0.95581q1.1602 0 1.7732-0.75806 0.61304-0.75806 0.62622-2.1687v-0.50757q0-1.4634-0.60644-2.2148-0.60645-0.75806-1.7732-0.75806z" />
		<path id="path3033" d="m86.345 86.579q0 1.9907-0.82398 3.0454-0.82398 1.0547-2.4126 1.0547-1.5688 0-2.3994-1.0349-0.83057-1.0349-0.85034-2.9663v-1.7666q0-2.0105 0.83057-3.052 0.83716-1.0415 2.406-1.0415 1.5688 0 2.3994 1.0349 0.83057 1.0283 0.85034 2.9597zm-1.905-1.938q0-1.1931-0.32959-1.7336-0.323-0.54712-1.0151-0.54712-0.67236 0-0.99536 0.52075-0.31641 0.51416-0.33618 1.615v2.3335q0 1.1733 0.31641 1.7468 0.323 0.5669 1.0283 0.5669 0.69873 0 1.0085-0.54712 0.30982-0.54712 0.323-1.6743z" />
	</g>
	<g id="text11822" fill="#fff" aria-label="RGBD 2">
		<path id="path3036" d="m45.081 113.75h-1.5754v3.5134h-1.9775v-9.5977h3.5662q1.7007 0 2.6235 0.75806 0.92285 0.75805 0.92285 2.1423 0 0.98218-0.42847 1.6414-0.42188 0.65259-1.2854 1.0415l2.0764 3.9221v0.0923h-2.1226zm-1.5754-1.6018h1.5952q0.74487 0 1.1536-0.37573 0.40869-0.38232 0.40869-1.0481 0-0.67895-0.38892-1.0679-0.38232-0.38891-1.1799-0.38891h-1.5886z" />
		<path id="path3038" d="m57.737 116.05q-0.53394 0.6394-1.5095 0.99536-0.97559 0.34936-2.1621 0.34936-1.2458 0-2.1885-0.54052-0.93604-0.54712-1.4502-1.582-0.50757-1.0349-0.52075-2.4324v-0.65259q0-1.437 0.4812-2.4851 0.48779-1.0547 1.3975-1.6084 0.91626-0.56031 2.1423-0.56031 1.7073 0 2.6697 0.81739 0.9624 0.81079 1.1404 2.3664h-1.9248q-0.13184-0.82397-0.58667-1.2063-0.44824-0.38232-1.2393-0.38232-1.0085 0-1.5359 0.75806-0.52734 0.75805-0.53394 2.2544v0.61304q0 1.5095 0.57349 2.2808 0.57349 0.77124 1.6809 0.77124 1.114 0 1.5886-0.47461v-1.6545h-1.7996v-1.4568h3.7771z" />
		<path id="path3040" d="m59.339 117.27v-9.5977h3.3618q1.7468 0 2.6499 0.67236 0.90308 0.66578 0.90308 1.9578 0 0.70532-0.36255 1.2458-0.36255 0.53393-1.0085 0.78442 0.73828 0.18457 1.1602 0.74487 0.42847 0.56031 0.42847 1.3711 0 1.3843-0.8833 2.0962t-2.5181 0.7251zm1.9775-4.1792v2.5906h1.6941q0.69873 0 1.0876-0.32959 0.39551-0.33618 0.39551-0.92285 0-1.3184-1.3645-1.3381zm0-1.3975h1.4634q1.4963-0.0264 1.4963-1.1931 0-0.65259-0.38232-0.93603-0.37573-0.29004-1.1931-0.29004h-1.3843z" />
		<path id="path3042" d="m67.954 117.27v-9.5977h2.9531q1.2656 0 2.261 0.57349 1.002 0.56689 1.5623 1.6216 0.5603 1.0481 0.5603 2.3862v0.44165q0 1.3381-0.55371 2.3796-0.54712 1.0415-1.5491 1.615t-2.261 0.58008zm1.9775-7.9958v6.4072h0.95581q1.1602 0 1.7732-0.75805 0.61304-0.75806 0.62622-2.1687v-0.50757q0-1.4634-0.60644-2.2148-0.60645-0.75805-1.7732-0.75805z" />
		<path id="path3044" d="m86.464 117.27h-6.5786v-1.3052l3.1047-3.3091q0.6394-0.69873 0.94263-1.2195 0.30981-0.52076 0.30981-0.98877 0-0.63941-0.323-1.002-0.323-0.36914-0.92285-0.36914-0.646 0-1.0217 0.44825-0.36914 0.44165-0.36914 1.1667h-1.9116q0-0.87671 0.41528-1.6018 0.42188-0.7251 1.1865-1.1338 0.76465-0.41529 1.7336-0.41529 1.4832 0 2.3005 0.71192 0.82397 0.71191 0.82397 2.0105 0 0.71191-0.36914 1.4502-0.36914 0.73828-1.2656 1.7205l-2.1819 2.3005h4.1265z" />
	</g>
	<g id="text11825" fill="#fff" aria-label="RGBD 4">
		<path id="path3047" d="m45.081 140.47h-1.5754v3.5134h-1.9775v-9.5977h3.5662q1.7007 0 2.6235 0.75806 0.92285 0.75806 0.92285 2.1423 0 0.98218-0.42847 1.6414-0.42188 0.65259-1.2854 1.0415l2.0764 3.9221v0.0923h-2.1226zm-1.5754-1.6018h1.5952q0.74487 0 1.1536-0.37573 0.40869-0.38232 0.40869-1.0481 0-0.67896-0.38892-1.0679-0.38232-0.38891-1.1799-0.38891h-1.5886z" />
		<path id="path3049" d="m57.737 142.77q-0.53394 0.6394-1.5095 0.99536-0.97559 0.34936-2.1621 0.34936-1.2458 0-2.1885-0.54052-0.93604-0.54712-1.4502-1.582-0.50757-1.0349-0.52075-2.4324v-0.65259q0-1.437 0.4812-2.4851 0.48779-1.0547 1.3975-1.6084 0.91626-0.5603 2.1423-0.5603 1.7073 0 2.6697 0.81738 0.9624 0.81079 1.1404 2.3664h-1.9248q-0.13184-0.82397-0.58667-1.2063-0.44824-0.38232-1.2393-0.38232-1.0085 0-1.5359 0.75806-0.52734 0.75805-0.53394 2.2544v0.61304q0 1.5095 0.57349 2.2808 0.57349 0.77124 1.6809 0.77124 1.114 0 1.5886-0.47461v-1.6545h-1.7996v-1.4568h3.7771z" />
		<path id="path3051" d="m59.339 143.98v-9.5977h3.3618q1.7468 0 2.6499 0.67237 0.90308 0.66577 0.90308 1.9578 0 0.70532-0.36255 1.2458-0.36255 0.53393-1.0085 0.78442 0.73828 0.18457 1.1602 0.74488 0.42847 0.5603 0.42847 1.3711 0 1.3843-0.8833 2.0962t-2.5181 0.7251zm1.9775-4.1792v2.5906h1.6941q0.69873 0 1.0876-0.32958 0.39551-0.33619 0.39551-0.92286 0-1.3184-1.3645-1.3381zm0-1.3975h1.4634q1.4963-0.0264 1.4963-1.1931 0-0.65259-0.38232-0.93603-0.37573-0.29004-1.1931-0.29004h-1.3843z" />
		<path id="path3053" d="m67.954 143.98v-9.5977h2.9531q1.2656 0 2.261 0.57349 1.002 0.56689 1.5623 1.6216 0.5603 1.0481 0.5603 2.3862v0.44165q0 1.3381-0.55371 2.3796-0.54712 1.0415-1.5491 1.615t-2.261 0.58008zm1.9775-7.9958v6.4072h0.95581q1.1602 0 1.7732-0.75805 0.61304-0.75806 0.62622-2.1687v-0.50757q0-1.4634-0.60644-2.2148-0.60645-0.75806-1.7732-0.75806z" />
		<path id="path3055" d="m85.521 140.37h1.0876v1.5359h-1.0876v2.0764h-1.905v-2.0764h-3.9353l-0.08569-1.1997 4.0012-6.3215h1.9248zm-4.0276 0h2.1226v-3.3882l-0.12524 0.21753z" />
	</g>
	<g id="text11828" fill="#fff" aria-label="RGBD 6">
		<path id="path3058" d="m45.081 167.19h-1.5754v3.5134h-1.9775v-9.5977h3.5662q1.7007 0 2.6235 0.75806 0.92285 0.75805 0.92285 2.1423 0 0.98218-0.42847 1.6414-0.42188 0.65259-1.2854 1.0415l2.0764 3.9221v0.0923h-2.1226zm-1.5754-1.6018h1.5952q0.74487 0 1.1536-0.37573 0.40869-0.38232 0.40869-1.0481 0-0.67895-0.38892-1.0679-0.38232-0.38891-1.1799-0.38891h-1.5886z" />
		<path id="path3060" d="m57.737 169.49q-0.53394 0.6394-1.5095 0.99536-0.97559 0.34936-2.1621 0.34936-1.2458 0-2.1885-0.54052-0.93604-0.54712-1.4502-1.582-0.50757-1.0349-0.52075-2.4324v-0.65259q0-1.437 0.4812-2.4851 0.48779-1.0547 1.3975-1.6084 0.91626-0.56031 2.1423-0.56031 1.7073 0 2.6697 0.81739 0.9624 0.81079 1.1404 2.3664h-1.9248q-0.13184-0.82397-0.58667-1.2063-0.44824-0.38232-1.2393-0.38232-1.0085 0-1.5359 0.75806-0.52734 0.75805-0.53394 2.2544v0.61304q0 1.5095 0.57349 2.2808 0.57349 0.77124 1.6809 0.77124 1.114 0 1.5886-0.47461v-1.6545h-1.7996v-1.4568h3.7771z" />
		<path id="path3062" d="m59.339 170.7v-9.5977h3.3618q1.7468 0 2.6499 0.67236 0.90308 0.66578 0.90308 1.9578 0 0.70532-0.36255 1.2458-0.36255 0.53393-1.0085 0.78442 0.73828 0.18457 1.1602 0.74487 0.42847 0.56031 0.42847 1.3711 0 1.3843-0.8833 2.0962-0.8833 0.71191-2.5181 0.7251zm1.9775-4.1792v2.5906h1.6941q0.69873 0 1.0876-0.32959 0.39551-0.33618 0.39551-0.92285 0-1.3184-1.3645-1.3381zm0-1.3975h1.4634q1.4963-0.0264 1.4963-1.1931 0-0.65259-0.38232-0.93603-0.37573-0.29004-1.1931-0.29004h-1.3843z" />
		<path id="path3064" d="m67.954 170.7v-9.5977h2.9531q1.2656 0 2.261 0.57349 1.002 0.56689 1.5623 1.6216 0.5603 1.0481 0.5603 2.3862v0.44165q0 1.3381-0.55371 2.3796-0.54712 1.0415-1.5491 1.615-1.002 0.57348-2.261 0.58008zm1.9775-7.9958v6.4072h0.95581q1.1602 0 1.7732-0.75805 0.61304-0.75806 0.62622-2.1687v-0.50757q0-1.4634-0.60644-2.2148-0.60645-0.75805-1.7732-0.75805z" />
		<path id="path3066" d="m85.053 161v1.5688h-0.18457q-1.292 0.0198-2.083 0.67236-0.78442 0.65259-0.94263 1.8128 0.76465-0.77783 1.9314-0.77783 1.2524 0 1.9907 0.89648 0.73828 0.89649 0.73828 2.3599 0 0.93604-0.40869 1.6941-0.4021 0.75805-1.147 1.1799-0.73828 0.42187-1.6743 0.42187-1.5161 0-2.4521-1.0547-0.92944-1.0547-0.92944-2.8147v-0.68555q0-1.5622 0.58667-2.7554 0.59326-1.1997 1.6941-1.8523 1.1074-0.65917 2.5642-0.66577zm-1.8589 4.8054q-0.46143 0-0.83716 0.2439-0.37573 0.2373-0.55371 0.63281v0.58008q0 0.95581 0.37573 1.4963 0.37573 0.53393 1.0547 0.53393 0.61304 0 0.98877-0.4812 0.38232-0.48779 0.38232-1.259 0-0.78442-0.38232-1.2656-0.38232-0.4812-1.0283-0.4812z" />
	</g>
	<g id="text11831" fill="#fff" aria-label="RGBD 8">
		<path id="path3069" d="m45.081 193.91h-1.5754v3.5134h-1.9775v-9.5977h3.5662q1.7007 0 2.6235 0.75806 0.92285 0.75806 0.92285 2.1423 0 0.98218-0.42847 1.6414-0.42188 0.65259-1.2854 1.0415l2.0764 3.9221v0.0923h-2.1226zm-1.5754-1.6018h1.5952q0.74487 0 1.1536-0.37574 0.40869-0.38232 0.40869-1.0481 0-0.67896-0.38892-1.0679-0.38232-0.38892-1.1799-0.38892h-1.5886z" />
		<path id="path3071" d="m57.737 196.21q-0.53394 0.6394-1.5095 0.99536-0.97559 0.34937-2.1621 0.34937-1.2458 0-2.1885-0.54053-0.93604-0.54712-1.4502-1.582-0.50757-1.0349-0.52075-2.4324v-0.65258q0-1.437 0.4812-2.4851 0.48779-1.0547 1.3975-1.6084 0.91626-0.5603 2.1423-0.5603 1.7073 0 2.6697 0.81738 0.9624 0.81079 1.1404 2.3665h-1.9248q-0.13184-0.82398-0.58667-1.2063-0.44824-0.38233-1.2393-0.38233-1.0085 0-1.5359 0.75806t-0.53394 2.2544v0.61304q0 1.5095 0.57349 2.2808 0.57349 0.77124 1.6809 0.77124 1.114 0 1.5886-0.47461v-1.6545h-1.7996v-1.4568h3.7771z" />
		<path id="path3073" d="m59.339 197.42v-9.5977h3.3618q1.7468 0 2.6499 0.67237 0.90308 0.66577 0.90308 1.9578 0 0.70532-0.36255 1.2458-0.36255 0.53394-1.0085 0.78442 0.73828 0.18457 1.1602 0.74488 0.42847 0.5603 0.42847 1.3711 0 1.3843-0.8833 2.0962-0.8833 0.71192-2.5181 0.7251zm1.9775-4.1792v2.5906h1.6941q0.69873 0 1.0876-0.32959 0.39551-0.33618 0.39551-0.92285 0-1.3184-1.3645-1.3381zm0-1.3975h1.4634q1.4963-0.0264 1.4963-1.1931 0-0.65258-0.38232-0.93603-0.37573-0.29004-1.1931-0.29004h-1.3843z" />
		<path id="path3075" d="m67.954 197.42v-9.5977h2.9531q1.2656 0 2.261 0.57349 1.002 0.56689 1.5623 1.6216 0.5603 1.0481 0.5603 2.3862v0.44165q0 1.3381-0.55371 2.3796-0.54712 1.0415-1.5491 1.615-1.002 0.57349-2.261 0.58008zm1.9775-7.9958v6.4072h0.95581q1.1602 0 1.7732-0.75806t0.62622-2.1687v-0.50757q0-1.4634-0.60644-2.2148-0.60645-0.75806-1.7732-0.75806z" />
		<path id="path3077" d="m86.141 190.37q0 0.69873-0.34936 1.2393-0.34937 0.54052-0.9624 0.86352 0.69873 0.33618 1.1074 0.92945 0.40869 0.58667 0.40869 1.3843 0 1.2788-0.87012 2.0237-0.87012 0.73829-2.3665 0.73829t-2.373-0.74488q-0.87671-0.74487-0.87671-2.0171 0-0.7976 0.40869-1.3909 0.40869-0.59326 1.1008-0.92285-0.61304-0.323-0.9624-0.86352-0.34277-0.54053-0.34277-1.2393 0-1.2261 0.81738-1.9512 0.81738-0.73169 2.2214-0.73169 1.3975 0 2.2148 0.7251 0.82398 0.7185 0.82398 1.9578zm-1.7073 4.2781q0-0.62623-0.36255-1.002-0.36255-0.37573-0.97559-0.37573-0.60645 0-0.96899 0.37573-0.36255 0.36914-0.36255 1.002 0 0.61303 0.35596 0.98876 0.35596 0.37574 0.98877 0.37574 0.61963 0 0.96899-0.36255 0.35596-0.36255 0.35596-1.002zm-0.19775-4.1858q0-0.5603-0.29663-0.89648-0.29663-0.34277-0.83716-0.34277-0.53394 0-0.83057 0.32959t-0.29663 0.90966q0 0.57349 0.29663 0.92286 0.29663 0.34936 0.83716 0.34936 0.54053 0 0.83057-0.34936 0.29663-0.34937 0.29663-0.92286z" />
	</g>
	<g id="text11834" fill="#fff" aria-label="48.2%">
		<path id="path3080" d="m497.36 194.55h1.6274v1.2166h-1.6274v2.7232h-1.4985v-2.7232h-5.3416v-0.87817l5.2529-8.1292h1.5872zm-5.1482 0h3.6497v-5.7524l-0.17724 0.32226z" />
		<path id="path3082" d="m507.44 189.82q0 0.87817-0.46728 1.563-0.45923 0.68481-1.2488 1.0715 0.91845 0.39478 1.4502 1.1521 0.5398 0.75733 0.5398 1.7161 0 1.5227-1.0312 2.425-1.0232 0.90234-2.699 0.90234-1.6919 0-2.7151-0.90234-1.0151-0.91041-1.0151-2.425 0-0.95069 0.51562-1.7161 0.52369-0.76538 1.4421-1.1602-0.78149-0.38672-1.2327-1.0715-0.45118-0.68481-0.45118-1.5549 0-1.4824 0.95069-2.3525 0.95068-0.87012 2.5056-0.87012 1.5469 0 2.4976 0.87012 0.95874 0.87012 0.95874 2.3525zm-1.2166 5.4705q0-0.98291-0.62842-1.6033-0.62036-0.62036-1.6274-0.62036t-1.6194 0.6123q-0.60425 0.61231-0.60425 1.6113t0.58813 1.571q0.59619 0.57203 1.6516 0.57203 1.0474 0 1.6436-0.57203 0.59619-0.58007 0.59619-1.571zm-2.2398-7.4685q-0.87817 0-1.426 0.54786-0.5398 0.53979-0.5398 1.4744 0 0.89429 0.53174 1.4502 0.5398 0.54785 1.4341 0.54785 0.89429 0 1.426-0.54785 0.53979-0.55591 0.53979-1.4502t-0.5559-1.4582q-0.55591-0.56397-1.4099-0.56397z" />
		<path id="path3084" d="m509.78 197.7q0-0.38672 0.22558-0.64453 0.23365-0.25781 0.69287-0.25781 0.45923 0 0.69288 0.25781 0.2417 0.25781 0.2417 0.64453 0 0.37061-0.2417 0.62036-0.23365 0.24976-0.69288 0.24976-0.45922 0-0.69287-0.24976-0.22558-0.24975-0.22558-0.62036z" />
		<path id="path3086" d="m521.62 198.49h-7.686v-1.0715l4.0606-4.5117q0.90235-1.0232 1.2407-1.6597 0.34644-0.64453 0.34644-1.3294 0-0.91846-0.55591-1.5066-0.55591-0.58814-1.4824-0.58814-1.1118 0-1.7322 0.63648-0.6123 0.62842-0.6123 1.7564h-1.4905q0-1.6194 1.0393-2.6184 1.0474-0.99903 2.7956-0.99903 1.6355 0 2.5862 0.86207 0.95068 0.854 0.95068 2.28 0 1.7322-2.2075 4.125l-3.1421 3.408h5.8894z" />
		<path id="path3088" d="m523.07 189.01q0-1.0554 0.66871-1.7402 0.67675-0.68481 1.7322-0.68481 1.0715 0 1.7322 0.69287 0.6687 0.68481 0.6687 1.7805v0.57202q0 1.0635-0.67676 1.7402-0.6687 0.6687-1.708 0.6687-1.0474 0-1.7322-0.6687-0.68482-0.67676-0.68482-1.7966zm1.1118 0.62036q0 0.62842 0.35449 1.0393 0.3545 0.40284 0.95069 0.40284 0.57202 0 0.91845-0.39478 0.3545-0.39477 0.3545-1.0796v-0.58813q0-0.62842-0.34644-1.0393-0.34643-0.41089-0.94263-0.41089-0.59619 0-0.94262 0.41089-0.34644 0.41089-0.34644 1.0715zm4.6003 5.978q0-1.0554 0.6687-1.7322 0.67676-0.68482 1.7322-0.68482t1.7322 0.67676 0.67676 1.7966v0.57202q0 1.0554-0.67676 1.7402-0.6687 0.67676-1.7161 0.67676-1.0474 0-1.7322-0.66871-0.68482-0.67675-0.68482-1.7966zm1.1118 0.62841q0 0.63648 0.35449 1.0474 0.35449 0.40283 0.95069 0.40283 0.58007 0 0.92651-0.39478 0.34643-0.40283 0.34643-1.0876v-0.59619q0-0.63648-0.35449-1.0393-0.34643-0.40283-0.93457-0.40283-0.57202 0-0.93457 0.40283-0.35449 0.39477-0.35449 1.0715zm-4.0686 1.3616-0.84595-0.53174 5.7283-9.1685 0.84595 0.53174z" />
	</g>
	<g id="text11837" fill="#fff" aria-label="RGBD 10">
		<path id="path3091" d="m45.081 220.62h-1.5754v3.5134h-1.9775v-9.5977h3.5662q1.7007 0 2.6235 0.75806 0.92285 0.75806 0.92285 2.1423 0 0.98218-0.42847 1.6414-0.42188 0.65259-1.2854 1.0415l2.0764 3.9221v0.0923h-2.1226zm-1.5754-1.6018h1.5952q0.74487 0 1.1536-0.37573 0.40869-0.38232 0.40869-1.0481 0-0.67896-0.38892-1.0679-0.38232-0.38891-1.1799-0.38891h-1.5886z" />
		<path id="path3093" d="m57.737 222.92q-0.53394 0.6394-1.5095 0.99536-0.97559 0.34936-2.1621 0.34936-1.2458 0-2.1885-0.54052-0.93604-0.54712-1.4502-1.582-0.50757-1.0349-0.52075-2.4324v-0.65259q0-1.437 0.4812-2.4851 0.48779-1.0547 1.3975-1.6084 0.91626-0.5603 2.1423-0.5603 1.7073 0 2.6697 0.81738 0.9624 0.81079 1.1404 2.3664h-1.9248q-0.13184-0.82397-0.58667-1.2063-0.44824-0.38233-1.2393-0.38233-1.0085 0-1.5359 0.75806-0.52734 0.75805-0.53394 2.2544v0.61304q0 1.5095 0.57349 2.2808 0.57349 0.77124 1.6809 0.77124 1.114 0 1.5886-0.47461v-1.6545h-1.7996v-1.4568h3.7771z" />
		<path id="path3095" d="m59.339 224.14v-9.5977h3.3618q1.7468 0 2.6499 0.67237 0.90308 0.66577 0.90308 1.9578 0 0.70532-0.36255 1.2458-0.36255 0.53393-1.0085 0.78442 0.73828 0.18457 1.1602 0.74488 0.42847 0.5603 0.42847 1.3711 0 1.3843-0.8833 2.0962t-2.5181 0.7251zm1.9775-4.1792v2.5906h1.6941q0.69873 0 1.0876-0.32959 0.39551-0.33619 0.39551-0.92286 0-1.3184-1.3645-1.3381zm0-1.3975h1.4634q1.4963-0.0264 1.4963-1.1931 0-0.65258-0.38232-0.93603-0.37573-0.29004-1.1931-0.29004h-1.3843z" />
		<path id="path3097" d="m67.954 224.14v-9.5977h2.9531q1.2656 0 2.261 0.57349 1.002 0.56689 1.5623 1.6216 0.5603 1.0481 0.5603 2.3862v0.44165q0 1.3381-0.55371 2.3796-0.54712 1.0415-1.5491 1.615t-2.261 0.58008zm1.9775-7.9958v6.4072h0.95581q1.1602 0 1.7732-0.75806t0.62622-2.1687v-0.50757q0-1.4634-0.60644-2.2148-0.60645-0.75806-1.7732-0.75806z" />
		<path id="path3099" d="m84.513 224.14h-1.905v-7.3433l-2.2742 0.70532v-1.5491l3.9749-1.4238h0.20435z" />
		<path id="path3101" d="m94.091 220.17q0 1.9907-0.82398 3.0454-0.82397 1.0547-2.4126 1.0547-1.5688 0-2.3994-1.0349-0.83057-1.0349-0.85034-2.9663v-1.7666q0-2.0105 0.83057-3.052 0.83716-1.0415 2.406-1.0415t2.3994 1.0349q0.83057 1.0283 0.85034 2.9597zm-1.905-1.938q0-1.1931-0.32959-1.7336-0.323-0.54712-1.0151-0.54712-0.67236 0-0.99536 0.52075-0.31641 0.51416-0.33618 1.615v2.3335q0 1.1733 0.31641 1.7468 0.323 0.5669 1.0283 0.5669 0.69873 0 1.0085-0.54712 0.30981-0.54712 0.323-1.6743z" />
	</g>
	<g id="text11840" fill="#fff" aria-label="RGBD 12">
		<path id="path3104" d="m45.081 247.34h-1.5754v3.5134h-1.9775v-9.5977h3.5662q1.7007 0 2.6235 0.75806 0.92285 0.75805 0.92285 2.1423 0 0.98218-0.42847 1.6414-0.42188 0.65259-1.2854 1.0415l2.0764 3.9221v0.0923h-2.1226zm-1.5754-1.6018h1.5952q0.74487 0 1.1536-0.37573 0.40869-0.38232 0.40869-1.0481 0-0.67895-0.38892-1.0679-0.38232-0.38891-1.1799-0.38891h-1.5886z" />
		<path id="path3106" d="m57.737 249.64q-0.53394 0.6394-1.5095 0.99536-0.97559 0.34936-2.1621 0.34936-1.2458 0-2.1885-0.54052-0.93604-0.54712-1.4502-1.582-0.50757-1.0349-0.52075-2.4324v-0.65259q0-1.437 0.4812-2.4851 0.48779-1.0547 1.3975-1.6084 0.91626-0.5603 2.1423-0.5603 1.7073 0 2.6697 0.81738 0.9624 0.81079 1.1404 2.3664h-1.9248q-0.13184-0.82397-0.58667-1.2063-0.44824-0.38232-1.2393-0.38232-1.0085 0-1.5359 0.75806-0.52734 0.75805-0.53394 2.2544v0.61304q0 1.5095 0.57349 2.2808 0.57349 0.77124 1.6809 0.77124 1.114 0 1.5886-0.47461v-1.6545h-1.7996v-1.4568h3.7771z" />
		<path id="path3108" d="m59.339 250.86v-9.5977h3.3618q1.7468 0 2.6499 0.67236 0.90308 0.66578 0.90308 1.9578 0 0.70532-0.36255 1.2458-0.36255 0.53393-1.0085 0.78442 0.73828 0.18457 1.1602 0.74487 0.42847 0.56031 0.42847 1.3711 0 1.3843-0.8833 2.0962t-2.5181 0.7251zm1.9775-4.1792v2.5906h1.6941q0.69873 0 1.0876-0.32959 0.39551-0.33618 0.39551-0.92285 0-1.3184-1.3645-1.3381zm0-1.3975h1.4634q1.4963-0.0264 1.4963-1.1931 0-0.65259-0.38232-0.93603-0.37573-0.29004-1.1931-0.29004h-1.3843z" />
		<path id="path3110" d="m67.954 250.86v-9.5977h2.9531q1.2656 0 2.261 0.57349 1.002 0.56689 1.5623 1.6216 0.5603 1.0481 0.5603 2.3862v0.44165q0 1.3381-0.55371 2.3796-0.54712 1.0415-1.5491 1.615t-2.261 0.58008zm1.9775-7.9958v6.4072h0.95581q1.1602 0 1.7732-0.75805 0.61304-0.75806 0.62622-2.1687v-0.50757q0-1.4634-0.60644-2.2148-0.60645-0.75805-1.7732-0.75805z" />
		<path id="path3112" d="m84.513 250.86h-1.905v-7.3433l-2.2742 0.70532v-1.5491l3.9749-1.4238h0.20435z" />
		<path id="path3114" d="m94.209 250.86h-6.5786v-1.3052l3.1047-3.3091q0.6394-0.69873 0.94263-1.2195 0.30982-0.52075 0.30982-0.98877 0-0.63941-0.323-1.002-0.323-0.36914-0.92285-0.36914-0.646 0-1.0217 0.44825-0.36914 0.44165-0.36914 1.1667h-1.9116q0-0.87671 0.41528-1.6018 0.42188-0.7251 1.1865-1.1338 0.76465-0.41528 1.7336-0.41528 1.4832 0 2.3005 0.71191 0.82398 0.71191 0.82398 2.0105 0 0.71191-0.36914 1.4502-0.36914 0.73828-1.2656 1.7205l-2.1819 2.3005h4.1265z" />
	</g>
	<g id="text11843" fill="#fff" aria-label="RGBD 14">
		<path id="path3117" d="m45.081 274.06h-1.5754v3.5134h-1.9775v-9.5977h3.5662q1.7007 0 2.6235 0.75806 0.92285 0.75805 0.92285 2.1423 0 0.98218-0.42847 1.6414-0.42188 0.65259-1.2854 1.0415l2.0764 3.9221v0.0923h-2.1226zm-1.5754-1.6018h1.5952q0.74487 0 1.1536-0.37573 0.40869-0.38233 0.40869-1.0481 0-0.67895-0.38892-1.0679-0.38232-0.38891-1.1799-0.38891h-1.5886z" />
		<path id="path3119" d="m57.737 276.36q-0.53394 0.6394-1.5095 0.99536-0.97559 0.34936-2.1621 0.34936-1.2458 0-2.1885-0.54053-0.93604-0.54711-1.4502-1.582-0.50757-1.0349-0.52075-2.4324v-0.65259q0-1.437 0.4812-2.4851 0.48779-1.0547 1.3975-1.6084 0.91626-0.56031 2.1423-0.56031 1.7073 0 2.6697 0.81739 0.9624 0.81079 1.1404 2.3664h-1.9248q-0.13184-0.82397-0.58667-1.2063-0.44824-0.38232-1.2393-0.38232-1.0085 0-1.5359 0.75806-0.52734 0.75805-0.53394 2.2544v0.61304q0 1.5095 0.57349 2.2808 0.57349 0.77124 1.6809 0.77124 1.114 0 1.5886-0.47461v-1.6545h-1.7996v-1.4568h3.7771z" />
		<path id="path3121" d="m59.339 277.57v-9.5977h3.3618q1.7468 0 2.6499 0.67236 0.90308 0.66577 0.90308 1.9578 0 0.70532-0.36255 1.2458-0.36255 0.53393-1.0085 0.78442 0.73828 0.18457 1.1602 0.74487 0.42847 0.56031 0.42847 1.3711 0 1.3843-0.8833 2.0962-0.8833 0.71191-2.5181 0.7251zm1.9775-4.1792v2.5906h1.6941q0.69873 0 1.0876-0.32959 0.39551-0.33618 0.39551-0.92285 0-1.3184-1.3645-1.3381zm0-1.3975h1.4634q1.4963-0.0264 1.4963-1.1931 0-0.65259-0.38232-0.93603-0.37573-0.29004-1.1931-0.29004h-1.3843z" />
		<path id="path3123" d="m67.954 277.57v-9.5977h2.9531q1.2656 0 2.261 0.57349 1.002 0.56689 1.5623 1.6216 0.5603 1.0481 0.5603 2.3862v0.44165q0 1.3381-0.55371 2.3796-0.54712 1.0415-1.5491 1.615-1.002 0.57348-2.261 0.58008zm1.9775-7.9958v6.4072h0.95581q1.1602 0 1.7732-0.75805 0.61304-0.75806 0.62622-2.1687v-0.50756q0-1.4634-0.60644-2.2148-0.60645-0.75805-1.7732-0.75805z" />
		<path id="path3125" d="m84.513 277.57h-1.905v-7.3433l-2.2742 0.70533v-1.5491l3.9749-1.4238h0.20435z" />
		<path id="path3127" d="m93.267 273.96h1.0876v1.5359h-1.0876v2.0764h-1.905v-2.0764h-3.9353l-0.08569-1.1997 4.0012-6.3215h1.9248zm-4.0276 0h2.1226v-3.3882l-0.12524 0.21753z" />
	</g>
	<g id="text11846" fill="#fff" aria-label="RGBD 16">
		<path id="path3130" d="m45.081 300.78h-1.5754v3.5134h-1.9775v-9.5976h3.5662q1.7007 0 2.6235 0.75805 0.92285 0.75806 0.92285 2.1423 0 0.98218-0.42847 1.6414-0.42188 0.65258-1.2854 1.0415l2.0764 3.9221v0.0923h-2.1226zm-1.5754-1.6018h1.5952q0.74487 0 1.1536-0.37573 0.40869-0.38233 0.40869-1.0481 0-0.67895-0.38892-1.0679-0.38232-0.38892-1.1799-0.38892h-1.5886z" />
		<path id="path3132" d="m57.737 303.08q-0.53394 0.63941-1.5095 0.99536-0.97559 0.34937-2.1621 0.34937-1.2458 0-2.1885-0.54053-0.93604-0.54712-1.4502-1.582-0.50757-1.0349-0.52075-2.4324v-0.65259q0-1.437 0.4812-2.4851 0.48779-1.0547 1.3975-1.6084 0.91626-0.5603 2.1423-0.5603 1.7073 0 2.6697 0.81738 0.9624 0.8108 1.1404 2.3665h-1.9248q-0.13184-0.82398-0.58667-1.2063-0.44824-0.38232-1.2393-0.38232-1.0085 0-1.5359 0.75805-0.52734 0.75806-0.53394 2.2544v0.61303q0 1.5095 0.57349 2.2808 0.57349 0.77124 1.6809 0.77124 1.114 0 1.5886-0.47461v-1.6545h-1.7996v-1.4568h3.7771z" />
		<path id="path3134" d="m59.339 304.29v-9.5976h3.3618q1.7468 0 2.6499 0.67236 0.90308 0.66577 0.90308 1.9578 0 0.70533-0.36255 1.2458-0.36255 0.53394-1.0085 0.78443 0.73828 0.18457 1.1602 0.74487 0.42847 0.5603 0.42847 1.3711 0 1.3843-0.8833 2.0962-0.8833 0.71191-2.5181 0.72509zm1.9775-4.1792v2.5906h1.6941q0.69873 0 1.0876-0.32959 0.39551-0.33618 0.39551-0.92285 0-1.3184-1.3645-1.3381zm0-1.3975h1.4634q1.4963-0.0264 1.4963-1.1931 0-0.65259-0.38232-0.93604-0.37573-0.29004-1.1931-0.29004h-1.3843z" />
		<path id="path3136" d="m67.954 304.29v-9.5976h2.9531q1.2656 0 2.261 0.57348 1.002 0.5669 1.5623 1.6216 0.5603 1.0481 0.5603 2.3862v0.44165q0 1.3381-0.55371 2.3796-0.54712 1.0415-1.5491 1.615-1.002 0.57348-2.261 0.58007zm1.9775-7.9958v6.4072h0.95581q1.1602 0 1.7732-0.75806 0.61304-0.75805 0.62622-2.1687v-0.50757q0-1.4634-0.60644-2.2148-0.60645-0.75806-1.7732-0.75806z" />
		<path id="path3138" d="m84.513 304.29h-1.905v-7.3433l-2.2742 0.70532v-1.5491l3.9749-1.4238h0.20435z" />
		<path id="path3140" d="m92.799 294.59v1.5688h-0.18457q-1.292 0.0198-2.083 0.67236-0.78442 0.65259-0.94263 1.8128 0.76465-0.77784 1.9314-0.77784 1.2524 0 1.9907 0.89649 0.73828 0.89648 0.73828 2.3599 0 0.93604-0.40869 1.6941-0.4021 0.75806-1.147 1.1799-0.73828 0.42188-1.6743 0.42188-1.5161 0-2.4521-1.0547-0.92944-1.0547-0.92944-2.8147v-0.68555q0-1.5623 0.58667-2.7554 0.59326-1.1997 1.6941-1.8523 1.1074-0.65918 2.5642-0.66577zm-1.8589 4.8054q-0.46143 0-0.83716 0.2439-0.37573 0.2373-0.55371 0.63281v0.58008q0 0.95581 0.37573 1.4963 0.37573 0.53393 1.0547 0.53393 0.61304 0 0.98877-0.4812 0.38232-0.48779 0.38232-1.259 0-0.78443-0.38232-1.2656t-1.0283-0.4812z" />
	</g>
	<g id="text11849" fill="#fff" aria-label="RGBD 18">
		<path id="path3143" d="m45.081 327.5h-1.5754v3.5134h-1.9775v-9.5976h3.5662q1.7007 0 2.6235 0.75805 0.92285 0.75806 0.92285 2.1423 0 0.98217-0.42847 1.6414-0.42188 0.65259-1.2854 1.0415l2.0764 3.9221v0.0923h-2.1226zm-1.5754-1.6018h1.5952q0.74487 0 1.1536-0.37573 0.40869-0.38233 0.40869-1.0481 0-0.67896-0.38892-1.0679-0.38232-0.38892-1.1799-0.38892h-1.5886z" />
		<path id="path3145" d="m57.737 329.8q-0.53394 0.63941-1.5095 0.99536-0.97559 0.34937-2.1621 0.34937-1.2458 0-2.1885-0.54053-0.93604-0.54712-1.4502-1.582-0.50757-1.0349-0.52075-2.4324v-0.65259q0-1.437 0.4812-2.4851 0.48779-1.0547 1.3975-1.6084 0.91626-0.5603 2.1423-0.5603 1.7073 0 2.6697 0.81738 0.9624 0.81079 1.1404 2.3665h-1.9248q-0.13184-0.82398-0.58667-1.2063-0.44824-0.38232-1.2393-0.38232-1.0085 0-1.5359 0.75805-0.52734 0.75806-0.53394 2.2544v0.61303q0 1.5095 0.57349 2.2808 0.57349 0.77124 1.6809 0.77124 1.114 0 1.5886-0.47461v-1.6545h-1.7996v-1.4568h3.7771z" />
		<path id="path3147" d="m59.339 331.01v-9.5976h3.3618q1.7468 0 2.6499 0.67236 0.90308 0.66577 0.90308 1.9578 0 0.70533-0.36255 1.2458-0.36255 0.53394-1.0085 0.78443 0.73828 0.18457 1.1602 0.74487 0.42847 0.5603 0.42847 1.3711 0 1.3843-0.8833 2.0962-0.8833 0.71192-2.5181 0.7251zm1.9775-4.1792v2.5906h1.6941q0.69873 0 1.0876-0.32959 0.39551-0.33618 0.39551-0.92285 0-1.3184-1.3645-1.3381zm0-1.3975h1.4634q1.4963-0.0264 1.4963-1.1931 0-0.65259-0.38232-0.93604-0.37573-0.29004-1.1931-0.29004h-1.3843z" />
		<path id="path3149" d="m67.954 331.01v-9.5976h2.9531q1.2656 0 2.261 0.57348 1.002 0.5669 1.5623 1.6216 0.5603 1.0481 0.5603 2.3862v0.44165q0 1.3381-0.55371 2.3796-0.54712 1.0415-1.5491 1.615-1.002 0.57349-2.261 0.58008zm1.9775-7.9958v6.4072h0.95581q1.1602 0 1.7732-0.75806 0.61304-0.75805 0.62622-2.1687v-0.50757q0-1.4634-0.60644-2.2148-0.60645-0.75806-1.7732-0.75806z" />
		<path id="path3151" d="m84.513 331.01h-1.905v-7.3433l-2.2742 0.70532v-1.5491l3.9749-1.4238h0.20435z" />
		<path id="path3153" d="m93.886 323.96q0 0.69873-0.34936 1.2393t-0.9624 0.86352q0.69873 0.33619 1.1074 0.92945 0.40869 0.58667 0.40869 1.3843 0 1.2788-0.87012 2.0237-0.87012 0.73828-2.3665 0.73828-1.4963 0-2.373-0.74487-0.87671-0.74488-0.87671-2.0171 0-0.79761 0.40869-1.3909 0.40869-0.59327 1.1008-0.92286-0.61304-0.32299-0.9624-0.86352-0.34277-0.54053-0.34277-1.2393 0-1.2261 0.81738-1.9512 0.81738-0.73169 2.2214-0.73169 1.3975 0 2.2148 0.7251 0.82397 0.7185 0.82397 1.9578zm-1.7073 4.2781q0-0.62622-0.36255-1.002-0.36255-0.37573-0.97559-0.37573-0.60644 0-0.96899 0.37573-0.36255 0.36915-0.36255 1.002 0 0.61303 0.35596 0.98877 0.35596 0.37573 0.98877 0.37573 0.61963 0 0.96899-0.36255 0.35596-0.36255 0.35596-1.002zm-0.19775-4.1858q0-0.56031-0.29663-0.89649-0.29663-0.34277-0.83716-0.34277-0.53394 0-0.83057 0.32959-0.29663 0.32959-0.29663 0.90967 0 0.57348 0.29663 0.92285 0.29663 0.34936 0.83716 0.34936 0.54053 0 0.83057-0.34936 0.29663-0.34937 0.29663-0.92285z" />
	</g>
	<g id="text11852" fill="#fff" aria-label="RGBD 20">
		<path id="path3156" d="m45.081 354.21h-1.5754v3.5134h-1.9775v-9.5977h3.5662q1.7007 0 2.6235 0.75806 0.92285 0.75806 0.92285 2.1423 0 0.98217-0.42847 1.6414-0.42188 0.65259-1.2854 1.0415l2.0764 3.9221v0.0923h-2.1226zm-1.5754-1.6018h1.5952q0.74487 0 1.1536-0.37574 0.40869-0.38232 0.40869-1.0481 0-0.67896-0.38892-1.0679-0.38232-0.38892-1.1799-0.38892h-1.5886z" />
		<path id="path3158" d="m57.737 356.51q-0.53394 0.6394-1.5095 0.99536-0.97559 0.34937-2.1621 0.34937-1.2458 0-2.1885-0.54053-0.93604-0.54712-1.4502-1.582-0.50757-1.0349-0.52075-2.4324v-0.65259q0-1.437 0.4812-2.4851 0.48779-1.0547 1.3975-1.6084 0.91626-0.5603 2.1423-0.5603 1.7073 0 2.6697 0.81738 0.9624 0.81079 1.1404 2.3665h-1.9248q-0.13184-0.82398-0.58667-1.2063-0.44824-0.38233-1.2393-0.38233-1.0085 0-1.5359 0.75806t-0.53394 2.2544v0.61304q0 1.5095 0.57349 2.2808 0.57349 0.77124 1.6809 0.77124 1.114 0 1.5886-0.47461v-1.6545h-1.7996v-1.4568h3.7771z" />
		<path id="path3160" d="m59.339 357.73v-9.5977h3.3618q1.7468 0 2.6499 0.67237 0.90308 0.66577 0.90308 1.9578 0 0.70532-0.36255 1.2458-0.36255 0.53394-1.0085 0.78443 0.73828 0.18457 1.1602 0.74487 0.42847 0.5603 0.42847 1.3711 0 1.3843-0.8833 2.0962-0.8833 0.71192-2.5181 0.7251zm1.9775-4.1792v2.5906h1.6941q0.69873 0 1.0876-0.32959 0.39551-0.33618 0.39551-0.92285 0-1.3184-1.3645-1.3381zm0-1.3975h1.4634q1.4963-0.0264 1.4963-1.1931 0-0.65259-0.38232-0.93604-0.37573-0.29004-1.1931-0.29004h-1.3843z" />
		<path id="path3162" d="m67.954 357.73v-9.5977h2.9531q1.2656 0 2.261 0.57349 1.002 0.5669 1.5623 1.6216 0.5603 1.0481 0.5603 2.3862v0.44165q0 1.3381-0.55371 2.3796-0.54712 1.0415-1.5491 1.615-1.002 0.57349-2.261 0.58008zm1.9775-7.9958v6.4072h0.95581q1.1602 0 1.7732-0.75806t0.62622-2.1687v-0.50757q0-1.4634-0.60644-2.2148-0.60645-0.75806-1.7732-0.75806z" />
		<path id="path3164" d="m86.464 357.73h-6.5786v-1.3052l3.1047-3.3091q0.6394-0.69873 0.94263-1.2195 0.30981-0.52075 0.30981-0.98877 0-0.6394-0.323-1.002-0.323-0.36914-0.92285-0.36914-0.646 0-1.0217 0.44824-0.36914 0.44165-0.36914 1.1668h-1.9116q0-0.87671 0.41528-1.6018 0.42188-0.7251 1.1865-1.1338 0.76465-0.41528 1.7336-0.41528 1.4832 0 2.3005 0.71191 0.82397 0.71192 0.82397 2.0105 0 0.71192-0.36914 1.4502-0.36914 0.73828-1.2656 1.7205l-2.1819 2.3005h4.1265z" />
		<path id="path3166" d="m94.091 353.76q0 1.9907-0.82398 3.0454-0.82397 1.0547-2.4126 1.0547-1.5688 0-2.3994-1.0349-0.83057-1.0349-0.85034-2.9663v-1.7666q0-2.0105 0.83057-3.052 0.83716-1.0415 2.406-1.0415t2.3994 1.0349q0.83057 1.0283 0.85034 2.9597zm-1.905-1.938q0-1.1931-0.32959-1.7336-0.323-0.54712-1.0151-0.54712-0.67236 0-0.99536 0.52075-0.31641 0.51416-0.33618 1.615v2.3335q0 1.1733 0.31641 1.7468 0.323 0.5669 1.0283 0.5669 0.69873 0 1.0085-0.54712 0.30981-0.54712 0.323-1.6743z" />
	</g>
	<g id="text11855" fill="#fff" aria-label="RGBD 22">
		<path id="path3169" d="m45.081 380.93h-1.5754v3.5134h-1.9775v-9.5977h3.5662q1.7007 0 2.6235 0.75806 0.92285 0.75806 0.92285 2.1423 0 0.98218-0.42847 1.6414-0.42188 0.65259-1.2854 1.0415l2.0764 3.9221v0.0923h-2.1226zm-1.5754-1.6018h1.5952q0.74487 0 1.1536-0.37574 0.40869-0.38232 0.40869-1.0481 0-0.67896-0.38892-1.0679-0.38232-0.38892-1.1799-0.38892h-1.5886z" />
		<path id="path3171" d="m57.737 383.23q-0.53394 0.6394-1.5095 0.99536-0.97559 0.34937-2.1621 0.34937-1.2458 0-2.1885-0.54053-0.93604-0.54712-1.4502-1.582-0.50757-1.0349-0.52075-2.4324v-0.65258q0-1.437 0.4812-2.4851 0.48779-1.0547 1.3975-1.6084 0.91626-0.5603 2.1423-0.5603 1.7073 0 2.6697 0.81738 0.9624 0.81079 1.1404 2.3665h-1.9248q-0.13184-0.82398-0.58667-1.2063-0.44824-0.38233-1.2393-0.38233-1.0085 0-1.5359 0.75806t-0.53394 2.2544v0.61304q0 1.5095 0.57349 2.2808 0.57349 0.77124 1.6809 0.77124 1.114 0 1.5886-0.47461v-1.6545h-1.7996v-1.4568h3.7771z" />
		<path id="path3173" d="m59.339 384.45v-9.5977h3.3618q1.7468 0 2.6499 0.67237 0.90308 0.66577 0.90308 1.9578 0 0.70532-0.36255 1.2458-0.36255 0.53394-1.0085 0.78442 0.73828 0.18457 1.1602 0.74488 0.42847 0.5603 0.42847 1.3711 0 1.3843-0.8833 2.0962-0.8833 0.71192-2.5181 0.7251zm1.9775-4.1792v2.5906h1.6941q0.69873 0 1.0876-0.32959 0.39551-0.33618 0.39551-0.92285 0-1.3184-1.3645-1.3381zm0-1.3975h1.4634q1.4963-0.0264 1.4963-1.1931 0-0.65258-0.38232-0.93603-0.37573-0.29004-1.1931-0.29004h-1.3843z" />
		<path id="path3175" d="m67.954 384.45v-9.5977h2.9531q1.2656 0 2.261 0.57349 1.002 0.56689 1.5623 1.6216 0.5603 1.0481 0.5603 2.3862v0.44165q0 1.3381-0.55371 2.3796-0.54712 1.0415-1.5491 1.615-1.002 0.57349-2.261 0.58008zm1.9775-7.9958v6.4072h0.95581q1.1602 0 1.7732-0.75806t0.62622-2.1687v-0.50757q0-1.4634-0.60644-2.2148-0.60645-0.75806-1.7732-0.75806z" />
		<path id="path3177" d="m86.464 384.45h-6.5786v-1.3052l3.1047-3.3091q0.6394-0.69873 0.94263-1.2195 0.30981-0.52075 0.30981-0.98877 0-0.6394-0.323-1.002-0.323-0.36914-0.92285-0.36914-0.646 0-1.0217 0.44824-0.36914 0.44165-0.36914 1.1668h-1.9116q0-0.87671 0.41528-1.6018 0.42188-0.7251 1.1865-1.1338 0.76465-0.41528 1.7336-0.41528 1.4832 0 2.3005 0.71191 0.82397 0.71192 0.82397 2.0105 0 0.71191-0.36914 1.4502-0.36914 0.73829-1.2656 1.7205l-2.1819 2.3005h4.1265z" />
		<path id="path3179" d="m94.209 384.45h-6.5786v-1.3052l3.1047-3.3091q0.6394-0.69873 0.94263-1.2195 0.30982-0.52075 0.30982-0.98877 0-0.6394-0.323-1.002-0.323-0.36914-0.92285-0.36914-0.646 0-1.0217 0.44824-0.36914 0.44165-0.36914 1.1668h-1.9116q0-0.87671 0.41528-1.6018 0.42188-0.7251 1.1865-1.1338 0.76465-0.41528 1.7336-0.41528 1.4832 0 2.3005 0.71191 0.82398 0.71192 0.82398 2.0105 0 0.71191-0.36914 1.4502-0.36914 0.73829-1.2656 1.7205l-2.1819 2.3005h4.1265z" />
	</g>
	<g id="text11858" fill="#fff" aria-label="RGBD 24">
		<path id="path3182" d="m45.081 407.65h-1.5754v3.5134h-1.9775v-9.5977h3.5662q1.7007 0 2.6235 0.75806 0.92285 0.75805 0.92285 2.1423 0 0.98218-0.42847 1.6414-0.42188 0.65259-1.2854 1.0415l2.0764 3.9221v0.0923h-2.1226zm-1.5754-1.6018h1.5952q0.74487 0 1.1536-0.37573 0.40869-0.38232 0.40869-1.0481 0-0.67896-0.38892-1.0679-0.38232-0.38891-1.1799-0.38891h-1.5886z" />
		<path id="path3184" d="m57.737 409.95q-0.53394 0.6394-1.5095 0.99536-0.97559 0.34936-2.1621 0.34936-1.2458 0-2.1885-0.54052-0.93604-0.54712-1.4502-1.582-0.50757-1.0349-0.52075-2.4324v-0.65259q0-1.437 0.4812-2.4851 0.48779-1.0547 1.3975-1.6084 0.91626-0.5603 2.1423-0.5603 1.7073 0 2.6697 0.81738 0.9624 0.81079 1.1404 2.3664h-1.9248q-0.13184-0.82397-0.58667-1.2063-0.44824-0.38232-1.2393-0.38232-1.0085 0-1.5359 0.75806-0.52734 0.75805-0.53394 2.2544v0.61304q0 1.5095 0.57349 2.2808 0.57349 0.77124 1.6809 0.77124 1.114 0 1.5886-0.47461v-1.6545h-1.7996v-1.4568h3.7771z" />
		<path id="path3186" d="m59.339 411.16v-9.5977h3.3618q1.7468 0 2.6499 0.67236 0.90308 0.66578 0.90308 1.9578 0 0.70532-0.36255 1.2458-0.36255 0.53393-1.0085 0.78442 0.73828 0.18457 1.1602 0.74488 0.42847 0.5603 0.42847 1.3711 0 1.3843-0.8833 2.0962t-2.5181 0.7251zm1.9775-4.1792v2.5906h1.6941q0.69873 0 1.0876-0.32959 0.39551-0.33618 0.39551-0.92285 0-1.3184-1.3645-1.3381zm0-1.3975h1.4634q1.4963-0.0264 1.4963-1.1931 0-0.65259-0.38232-0.93603-0.37573-0.29004-1.1931-0.29004h-1.3843z" />
		<path id="path3188" d="m67.954 411.16v-9.5977h2.9531q1.2656 0 2.261 0.57349 1.002 0.56689 1.5623 1.6216 0.5603 1.0481 0.5603 2.3862v0.44165q0 1.3381-0.55371 2.3796-0.54712 1.0415-1.5491 1.615t-2.261 0.58008zm1.9775-7.9958v6.4072h0.95581q1.1602 0 1.7732-0.75805 0.61304-0.75806 0.62622-2.1687v-0.50757q0-1.4634-0.60644-2.2148-0.60645-0.75805-1.7732-0.75805z" />
		<path id="path3190" d="m86.464 411.16h-6.5786v-1.3052l3.1047-3.3091q0.6394-0.69873 0.94263-1.2195 0.30981-0.52075 0.30981-0.98877 0-0.63941-0.323-1.002-0.323-0.36914-0.92285-0.36914-0.646 0-1.0217 0.44825-0.36914 0.44165-0.36914 1.1667h-1.9116q0-0.8767 0.41528-1.6018 0.42188-0.7251 1.1865-1.1338 0.76465-0.41528 1.7336-0.41528 1.4832 0 2.3005 0.71191 0.82397 0.71191 0.82397 2.0105 0 0.71191-0.36914 1.4502-0.36914 0.73828-1.2656 1.7205l-2.1819 2.3005h4.1265z" />
		<path id="path3192" d="m93.267 407.55h1.0876v1.5359h-1.0876v2.0764h-1.905v-2.0764h-3.9353l-0.08569-1.1997 4.0012-6.3215h1.9248zm-4.0276 0h2.1226v-3.3882l-0.12524 0.21753z" />
	</g>
	<g id="text11861" fill="#fff" aria-label="RGBD 26">
		<path id="path3195" d="m45.081 434.37h-1.5754v3.5134h-1.9775v-9.5977h3.5662q1.7007 0 2.6235 0.75806 0.92285 0.75805 0.92285 2.1423 0 0.98218-0.42847 1.6414-0.42188 0.65259-1.2854 1.0415l2.0764 3.9221v0.0923h-2.1226zm-1.5754-1.6018h1.5952q0.74487 0 1.1536-0.37573 0.40869-0.38232 0.40869-1.0481 0-0.67895-0.38892-1.0679-0.38232-0.38891-1.1799-0.38891h-1.5886z" />
		<path id="path3197" d="m57.737 436.67q-0.53394 0.6394-1.5095 0.99536-0.97559 0.34936-2.1621 0.34936-1.2458 0-2.1885-0.54052-0.93604-0.54712-1.4502-1.582-0.50757-1.0349-0.52075-2.4324v-0.65259q0-1.437 0.4812-2.4851 0.48779-1.0547 1.3975-1.6084 0.91626-0.56031 2.1423-0.56031 1.7073 0 2.6697 0.81739 0.9624 0.81079 1.1404 2.3664h-1.9248q-0.13184-0.82397-0.58667-1.2063-0.44824-0.38232-1.2393-0.38232-1.0085 0-1.5359 0.75806-0.52734 0.75805-0.53394 2.2544v0.61304q0 1.5095 0.57349 2.2808 0.57349 0.77124 1.6809 0.77124 1.114 0 1.5886-0.47461v-1.6545h-1.7996v-1.4568h3.7771z" />
		<path id="path3199" d="m59.339 437.88v-9.5977h3.3618q1.7468 0 2.6499 0.67236 0.90308 0.66577 0.90308 1.9578 0 0.70532-0.36255 1.2458-0.36255 0.53393-1.0085 0.78442 0.73828 0.18457 1.1602 0.74487 0.42847 0.56031 0.42847 1.3711 0 1.3843-0.8833 2.0962-0.8833 0.71191-2.5181 0.7251zm1.9775-4.1792v2.5906h1.6941q0.69873 0 1.0876-0.32959 0.39551-0.33618 0.39551-0.92285 0-1.3184-1.3645-1.3381zm0-1.3975h1.4634q1.4963-0.0264 1.4963-1.1931 0-0.65259-0.38232-0.93603-0.37573-0.29004-1.1931-0.29004h-1.3843z" />
		<path id="path3201" d="m67.954 437.88v-9.5977h2.9531q1.2656 0 2.261 0.57349 1.002 0.56689 1.5623 1.6216 0.5603 1.0481 0.5603 2.3862v0.44165q0 1.3381-0.55371 2.3796-0.54712 1.0415-1.5491 1.615-1.002 0.57348-2.261 0.58008zm1.9775-7.9958v6.4072h0.95581q1.1602 0 1.7732-0.75805 0.61304-0.75806 0.62622-2.1687v-0.50757q0-1.4634-0.60644-2.2148-0.60645-0.75805-1.7732-0.75805z" />
		<path id="path3203" d="m86.464 437.88h-6.5786v-1.3052l3.1047-3.3091q0.6394-0.69873 0.94263-1.2195 0.30981-0.52076 0.30981-0.98877 0-0.63941-0.323-1.002-0.323-0.36914-0.92285-0.36914-0.646 0-1.0217 0.44825-0.36914 0.44165-0.36914 1.1667h-1.9116q0-0.87671 0.41528-1.6018 0.42188-0.7251 1.1865-1.1338 0.76465-0.41529 1.7336-0.41529 1.4832 0 2.3005 0.71192 0.82397 0.71191 0.82397 2.0105 0 0.71191-0.36914 1.4502-0.36914 0.73828-1.2656 1.7205l-2.1819 2.3005h4.1265z" />
		<path id="path3205" d="m92.799 428.19v1.5688h-0.18457q-1.292 0.0198-2.083 0.67236-0.78442 0.65259-0.94263 1.8128 0.76465-0.77783 1.9314-0.77783 1.2524 0 1.9907 0.89648 0.73828 0.89649 0.73828 2.3599 0 0.93604-0.40869 1.6941-0.4021 0.75805-1.147 1.1799-0.73828 0.42187-1.6743 0.42187-1.5161 0-2.4521-1.0547-0.92944-1.0547-0.92944-2.8147v-0.68555q0-1.5623 0.58667-2.7554 0.59326-1.1997 1.6941-1.8523 1.1074-0.65917 2.5642-0.66577zm-1.8589 4.8054q-0.46143 0-0.83716 0.2439-0.37573 0.2373-0.55371 0.63281v0.58008q0 0.95581 0.37573 1.4963 0.37573 0.53393 1.0547 0.53393 0.61304 0 0.98877-0.4812 0.38232-0.48779 0.38232-1.259 0-0.78442-0.38232-1.2656-0.38232-0.4812-1.0283-0.4812z" />
	</g>
	<g id="g10065" transform="translate(-57.699 -58.191)" fill="#262626" stroke-linejoin="round">
		<path id="path10019" d="m591.57 530.43h-5.8081l-1.3044 3.6182h-1.8852l5.294-13.863h1.5996l5.3035 13.863h-1.8757zm-5.2559-1.5044h4.7131l-2.3613-6.4841z" />
		<path id="path10021" d="m598.46 528.62v5.4272h-1.8281v-13.863h5.113q2.2756 0 3.561 1.1616 1.2949 1.1616 1.2949 3.0754 0 2.0186-1.2664 3.1135-1.2568 1.0854-3.6086 1.0854zm0-1.4949h3.2849q1.4663 0 2.2471-0.68554 0.78076-0.69507 0.78076-1.9995 0-1.2378-0.78076-1.9805-0.78076-0.74268-2.1423-0.77124h-3.3896z" />
		<path id="path10023" d="m613.42 527.07q0-2.1519 0.57129-4.1323 0.58081-1.9805 1.7234-3.5991t2.3708-2.2852l0.36181 1.1616q-1.3901 1.0664-2.2852 3.2563-0.8855 2.1899-0.97119 4.9036l-0.01 0.80932q0 3.6753 1.3425 6.3794 0.80933 1.6186 1.9233 2.5327l-0.36181 1.0759q-1.2664-0.70459-2.4185-2.3613-2.2471-3.2373-2.2471-7.741z" />
		<path id="path10025" d="m619.82 521.5q0-1.2473 0.79028-2.0566 0.79981-0.80933 2.0471-0.80933 1.2664 0 2.0471 0.81885 0.79028 0.80932 0.79028 2.1042v0.67602q0 1.2568-0.7998 2.0566-0.79029 0.79029-2.0186 0.79029-1.2378 0-2.0471-0.79029-0.80932-0.7998-0.80932-2.1233zm1.314 0.73315q0 0.74268 0.41895 1.2283 0.41894 0.47608 1.1235 0.47608 0.67603 0 1.0854-0.46656 0.41895-0.46655 0.41895-1.2759v-0.69507q0-0.74268-0.40943-1.2283-0.40942-0.4856-1.114-0.4856t-1.114 0.4856q-0.40943 0.48559-0.40943 1.2664zm5.4368 7.0649q0-1.2473 0.79028-2.0471 0.79981-0.80932 2.0471-0.80932 1.2473 0 2.0471 0.7998 0.79981 0.79981 0.79981 2.1233v0.67603q0 1.2473-0.79981 2.0566-0.79028 0.7998-2.0281 0.7998-1.2378 0-2.0471-0.79028-0.80933-0.7998-0.80933-2.1233zm1.314 0.74268q0 0.7522 0.41895 1.2378 0.41895 0.47608 1.1235 0.47608 0.68554 0 1.095-0.46656 0.40942-0.47607 0.40942-1.2854v-0.70459q0-0.75219-0.41895-1.2283-0.40942-0.47607-1.1045-0.47607-0.67602 0-1.1045 0.47607-0.41895 0.46655-0.41895 1.2664zm-4.8083 1.6091-0.99976-0.62842 6.7698-10.835 0.99976 0.62842z" />
		<path id="path10027" d="m638.5 527.17q0 2.1233-0.56177 4.0752-0.55224 1.9424-1.7043 3.5896-1.1426 1.6472-2.3994 2.3423l-0.37134-1.0759q1.4663-1.1235 2.3518-3.4849 0.89502-2.3708 0.91406-5.2559v-0.30469q0-1.9995-0.41894-3.7134-0.41895-1.7234-1.1711-3.085-0.74268-1.3616-1.6758-2.1233l0.37134-1.0759q1.2568 0.69507 2.3899 2.3232 1.1426 1.6282 1.7043 3.5896 0.57129 1.9614 0.57129 4.199z" />
	</g>
</svg>
