<?xml version="1.0" encoding="UTF-8" standalone="no"?>
<svg
   id="svg2691"
   width="494.7pt"
   height="433.54pt"
   version="1.1"
   viewBox="0 0 494.7 433.54"
   sodipodi:docname="Plane-APsolar.svg"
   inkscape:version="1.2.2 (1:1.2.2+202305151914+b0a8486541)"
   xmlns:inkscape="http://www.inkscape.org/namespaces/inkscape"
   xmlns:sodipodi="http://sodipodi.sourceforge.net/DTD/sodipodi-0.dtd"
   xmlns:xlink="http://www.w3.org/1999/xlink"
   xmlns="http://www.w3.org/2000/svg"
   xmlns:svg="http://www.w3.org/2000/svg">
  <sodipodi:namedview
     id="namedview135"
     pagecolor="#ffffff"
     bordercolor="#999999"
     borderopacity="1"
     inkscape:showpageshadow="0"
     inkscape:pageopacity="0"
     inkscape:pagecheckerboard="0"
     inkscape:deskcolor="#d1d1d1"
     inkscape:document-units="pt"
     showgrid="false"
     inkscape:zoom="1"
     inkscape:cx="306.5"
     inkscape:cy="274"
     inkscape:window-width="1877"
     inkscape:window-height="1037"
     inkscape:window-x="43"
     inkscape:window-y="43"
     inkscape:window-maximized="1"
     inkscape:current-layer="svg2691" />
  <defs
     id="defs2569">
    <path
       id="m118336d080"
       d="m4.5 0-9-4.5v9z"
       stroke="#262626" />
    <clipPath
       id="clip-m118336d080">
      <rect
         x="32"
         y="18"
         width="400"
         height="400"
         id="rect3" />
    </clipPath>
  </defs>
  <g
     id="g3270"
     transform="translate(-39.318 -57.806)"
     fill="#262626">
    <g
       id="text2577"
       aria-label="0">
      <path
         id="path3891"
         d="m75.553 472.26q0 2.4814-0.9104 3.7705-0.9104 1.281-2.6829 1.281-1.7402 0-2.6667-1.2568-0.92651-1.2649-0.95068-3.6738v-2.1028q0-2.4734 0.91846-3.7463t2.6829-1.273q1.7402 0 2.6587 1.2327 0.91846 1.2246 0.95068 3.6174zm-0.9668-2.1028q0-2.0142-0.66064-3.0454-0.65259-1.0312-1.9819-1.0312-1.3052 0-1.9658 1.0071-0.66064 1.0071-0.67676 2.9729v2.3042q0 2.0061 0.67676 3.0696 0.68482 1.0635 1.9819 1.0635 1.2891 0 1.9497-1.0393 0.6687-1.0393 0.67676-3.0454z"
         fill="#262626" />
    </g>
    <g
       id="text2581"
       aria-label="20">
      <path
         id="path3894"
         d="m156.25 477.15h-7.3477v-0.74121l4.0203-4.5601q0.99902-1.1521 1.3857-1.9014 0.38672-0.74926 0.38672-1.4582 0-1.1118-0.65259-1.7564-0.65259-0.65258-1.7966-0.65258-1.1843 0-1.9175 0.75732-0.7251 0.75732-0.7251 1.9658h-0.95874q0-0.99097 0.44311-1.8047 0.45118-0.81372 1.273-1.273 0.82984-0.46728 1.8853-0.46728 1.6113 0 2.5137 0.84595 0.9104 0.84594 0.9104 2.3042 0 0.82178-0.51563 1.7966-0.50756 0.97485-1.7966 2.4331l-3.271 3.698h6.1633z" />
      <path
         id="path3896"
         d="m165.12 472.26q0 2.4814-0.9104 3.7705-0.9104 1.281-2.6829 1.281-1.7402 0-2.6668-1.2568-0.92651-1.2649-0.95068-3.6738v-2.1028q0-2.4734 0.91845-3.7463 0.91846-1.273 2.6829-1.273 1.7402 0 2.6587 1.2327 0.91845 1.2246 0.95068 3.6174zm-0.9668-2.1028q0-2.0142-0.66064-3.0454-0.65259-1.0312-1.9819-1.0312-1.3052 0-1.9658 1.0071-0.66064 1.0071-0.67675 2.9729v2.3042q0 2.0061 0.67675 3.0696 0.68482 1.0635 1.9819 1.0635 1.2891 0 1.9497-1.0393 0.66871-1.0393 0.67676-3.0454z" />
    </g>
    <g
       id="text2585"
       aria-label="40">
      <path
         id="path3899"
         d="m239.86 473.37h1.8289v0.81373h-1.8289v2.9648h-0.9668v-2.9648h-5.5188v-0.54786l5.4302-8.2178h1.0554zm-5.3013 0h4.3345v-6.7031l-0.427 0.74121z" />
      <path
         id="path3901"
         d="m250.16 472.26q0 2.4814-0.9104 3.7705-0.9104 1.281-2.6829 1.281-1.7402 0-2.6667-1.2568-0.92652-1.2649-0.95069-3.6738v-2.1028q0-2.4734 0.91846-3.7463t2.6829-1.273q1.7402 0 2.6587 1.2327 0.91846 1.2246 0.95069 3.6174zm-0.9668-2.1028q0-2.0142-0.66065-3.0454-0.65258-1.0312-1.9819-1.0312-1.3052 0-1.9658 1.0071-0.66064 1.0071-0.67676 2.9729v2.3042q0 2.0061 0.67676 3.0696 0.68482 1.0635 1.9819 1.0635 1.2891 0 1.9497-1.0393 0.6687-1.0393 0.67676-3.0454z" />
    </g>
    <g
       id="text2589"
       aria-label="60">
      <path
         id="path3904"
         d="m324.61 465.33v0.84594h-0.1128q-2.1028 0-3.3113 1.2407-1.2085 1.2327-1.3374 3.4321 0.4834-0.6687 1.2327-1.0312 0.74927-0.37061 1.6758-0.37061 1.5469 0 2.4573 1.0715 0.91846 1.0635 0.91846 2.7876 0 1.144-0.427 2.0625t-1.2246 1.4341q-0.79761 0.50757-1.8208 0.50757-1.6838 0-2.7393-1.2166-1.0554-1.2246-1.0554-3.1582v-0.9668q0-3.1502 1.4341-4.8743 1.4341-1.7322 4.0686-1.7644zm-2.0061 4.9468q-0.91845 0-1.7161 0.54786-0.78955 0.53979-1.0554 1.3777v0.82178q0 1.5308 0.78149 2.4976 0.78955 0.96679 2.0464 0.96679 1.1279 0 1.8208-0.89428 0.70093-0.89429 0.70093-2.2559 0-1.3857-0.70093-2.2236-0.69287-0.8379-1.8772-0.8379z" />
      <path
         id="path3906"
         d="m335.14 472.26q0 2.4814-0.9104 3.7705-0.9104 1.281-2.6829 1.281-1.7402 0-2.6667-1.2568-0.92652-1.2649-0.95069-3.6738v-2.1028q0-2.4734 0.91846-3.7463t2.6829-1.273q1.7402 0 2.6587 1.2327 0.91846 1.2246 0.95069 3.6174zm-0.9668-2.1028q0-2.0142-0.66065-3.0454-0.65258-1.0312-1.9819-1.0312-1.3052 0-1.9658 1.0071-0.66064 1.0071-0.67676 2.9729v2.3042q0 2.0061 0.67676 3.0696 0.68482 1.0635 1.9819 1.0635 1.2891 0 1.9497-1.0393 0.6687-1.0393 0.67676-3.0454z" />
    </g>
    <g
       id="text2593"
       aria-label="80">
      <path
         id="path3909"
         d="m410.98 468.44q0 0.9104-0.53174 1.6355-0.53174 0.71704-1.4018 1.0554 1.0151 0.34643 1.6274 1.1199 0.6123 0.77344 0.6123 1.7886 0 1.5066-1.0232 2.3928-1.0232 0.87817-2.707 0.87817-1.7 0-2.7232-0.87817-1.0151-0.87818-1.0151-2.3928 0-0.99903 0.58813-1.7805 0.58814-0.7815 1.6113-1.1279-0.87012-0.33838-1.3857-1.0554-0.51563-0.7251-0.51563-1.6355 0-1.4582 0.93457-2.3203 0.94263-0.86206 2.4895-0.86206 1.5469 0 2.4895 0.87012 0.95068 0.87011 0.95068 2.3122zm-0.66064 5.6074q0-1.0957-0.7815-1.7966-0.78149-0.70898-1.998-0.70898-1.2166 0-1.99 0.69287-0.77343 0.69287-0.77343 1.8127 0 1.1199 0.74926 1.7886 0.74927 0.66064 2.0303 0.66064 1.2488 0 2.0061-0.66064 0.75733-0.66065 0.75733-1.7886zm-0.30616-5.6155q0-1.0071-0.70092-1.6758-0.69288-0.67675-1.7725-0.67675-1.0957 0-1.7805 0.65258-0.67676 0.64453-0.67676 1.7 0 1.0312 0.67676 1.6597 0.68481 0.62842 1.7886 0.62842 1.0876 0 1.7725-0.62842 0.69287-0.63647 0.69287-1.6597z" />
      <path
         id="path3911"
         d="m420.29 472.26q0 2.4814-0.9104 3.7705-0.9104 1.281-2.6829 1.281-1.7402 0-2.6668-1.2568-0.92651-1.2649-0.95068-3.6738v-2.1028q0-2.4734 0.91845-3.7463 0.91846-1.273 2.6829-1.273 1.7402 0 2.6587 1.2327 0.91845 1.2246 0.95068 3.6174zm-0.9668-2.1028q0-2.0142-0.66064-3.0454-0.65259-1.0312-1.9819-1.0312-1.3052 0-1.9658 1.0071-0.66064 1.0071-0.67675 2.9729v2.3042q0 2.0061 0.67675 3.0696 0.68482 1.0635 1.9819 1.0635 1.2891 0 1.9497-1.0393 0.6687-1.0393 0.67675-3.0454z" />
    </g>
  </g>
  <g
     id="text2597"
     fill="#262626"
     aria-label="AP (%)">
    <path
       id="path3914"
       d="m422.65 415.45h-5.8081l-1.3044 3.6182h-1.8852l5.2939-13.863h1.5996l5.3035 13.863h-1.8757zm-5.2559-1.5044h4.7131l-2.3613-6.4841z" />
    <path
       id="path3916"
       d="m429.54 413.64v5.4272h-1.8281v-13.863h5.113q2.2756 0 3.561 1.1616 1.2949 1.1616 1.2949 3.0754 0 2.0186-1.2664 3.1135-1.2568 1.0854-3.6086 1.0854zm0-1.4949h3.2849q1.4663 0 2.2471-0.68555 0.78076-0.69507 0.78076-1.9995 0-1.2378-0.78076-1.9805-0.78077-0.74268-2.1423-0.77124h-3.3896z" />
    <path
       id="path3918"
       d="m444.5 413.44q0-2.1519 0.57128-4.1323 0.58081-1.9805 1.7234-3.5991t2.3708-2.2852l0.36182 1.1616q-1.3901 1.0664-2.2852 3.2563-0.8855 2.19-0.97119 4.9036l-0.01 0.80932q0 3.6753 1.3425 6.3794 0.80933 1.6186 1.9233 2.5327l-0.36182 1.0759q-1.2664-0.70459-2.4184-2.3613-2.2471-3.2373-2.2471-7.741z" />
    <path
       id="path3920"
       d="m450.9 407.87q0-1.2473 0.79029-2.0566 0.7998-0.80933 2.0471-0.80933 1.2664 0 2.0471 0.81885 0.79029 0.80933 0.79029 2.1042v0.67602q0 1.2568-0.79981 2.0566-0.79028 0.79029-2.0186 0.79029-1.2378 0-2.0471-0.79029-0.80933-0.7998-0.80933-2.1233zm1.314 0.73315q0 0.74268 0.41894 1.2283 0.41895 0.47608 1.1235 0.47608 0.67602 0 1.0854-0.46655 0.41894-0.46656 0.41894-1.2759v-0.69507q0-0.74268-0.40942-1.2283-0.40943-0.4856-1.114-0.4856-0.70459 0-1.114 0.4856-0.40942 0.48559-0.40942 1.2664zm5.4368 7.0649q0-1.2473 0.79028-2.0471 0.7998-0.80933 2.0471-0.80933 1.2473 0 2.0471 0.7998 0.7998 0.79981 0.7998 2.1233v0.67603q0 1.2473-0.7998 2.0566-0.79029 0.79981-2.0281 0.79981t-2.0471-0.79029q-0.80932-0.7998-0.80932-2.1233zm1.314 0.74268q0 0.7522 0.41895 1.2378 0.41894 0.47608 1.1235 0.47608 0.68555 0 1.095-0.46656 0.40942-0.47607 0.40942-1.2854v-0.70459q0-0.75219-0.41894-1.2283-0.40942-0.47607-1.1045-0.47607-0.67603 0-1.1045 0.47607-0.41895 0.46656-0.41895 1.2664zm-4.8084 1.6091-0.99976-0.62842 6.7698-10.835 0.99976 0.62842z" />
    <path
       id="path3922"
       d="m469.58 413.53q0 2.1233-0.56177 4.0752-0.55225 1.9424-1.7044 3.5896-1.1426 1.6472-2.3994 2.3423l-0.37134-1.0759q1.4663-1.1235 2.3518-3.4849 0.89502-2.3708 0.91406-5.2559v-0.30469q0-1.9995-0.41895-3.7134-0.41894-1.7234-1.1711-3.085-0.74267-1.3616-1.6758-2.1233l0.37134-1.0759q1.2568 0.69506 2.3899 2.3232 1.1426 1.6282 1.7044 3.5896 0.57129 1.9614 0.57129 4.199z" />
  </g>
  <g
     id="text2606"
     transform="rotate(-90)"
     fill="#262626"
     aria-label="SOLAR PANELS">
    <path
       id="path3925"
       d="m-141.03 17.874q-2.3518-0.67603-3.4277-1.6567-1.0664-0.99023-1.0664-2.4375 0-1.6377 1.3044-2.7041 1.314-1.0759 3.4087-1.0759 1.4282 0 2.5422 0.55225 1.1235 0.55225 1.7329 1.5234 0.61889 0.97119 0.61889 2.1233h-1.8376q0-1.2568-0.79981-1.9709-0.7998-0.72363-2.2566-0.72363-1.352 0-2.1138 0.59985-0.7522 0.59033-0.7522 1.6472 0 0.84741 0.71412 1.4377 0.72363 0.58081 2.447 1.0664 1.7329 0.4856 2.7041 1.0759 0.98071 0.58081 1.4473 1.3616 0.47608 0.78076 0.47608 1.8376 0 1.6853-1.314 2.7041-1.314 1.0093-3.5134 1.0093-1.4282 0-2.666-0.54272-1.2378-0.55225-1.9138-1.5044-0.6665-0.95215-0.6665-2.1614h1.8376q0 1.2568 0.92359 1.99 0.9331 0.72363 2.4851 0.72363 1.4473 0 2.2185-0.59033t0.77124-1.6091-0.71411-1.571q-0.71411-0.56177-2.5898-1.1045z" />
    <path
       id="path3927"
       d="m-122.88 17.57q0 2.0376-0.68555 3.561-0.68555 1.5139-1.9424 2.3137-1.2568 0.7998-2.9326 0.7998-1.6377 0-2.904-0.7998-1.2664-0.80933-1.971-2.2947-0.69507-1.4949-0.71411-3.4563v-0.99976q0-1.9995 0.69507-3.5325 0.69506-1.533 1.9614-2.3423 1.2759-0.81885 2.9136-0.81885 1.6663 0 2.9326 0.80933 1.2759 0.7998 1.9614 2.3328 0.68555 1.5234 0.68555 3.5515zm-1.8186-0.89502q0-2.4661-0.99023-3.78-0.99024-1.3235-2.7708-1.3235-1.7329 0-2.7327 1.3235-0.99023 1.314-1.0188 3.6562v1.0188q0 2.3899 0.99976 3.761 1.0093 1.3616 2.7708 1.3616 1.771 0 2.7422-1.2854 0.97119-1.2949 0.99975-3.7039z" />
    <path
       id="path3929"
       d="m-118.3 22.559h6.5698v1.4949h-8.4075v-13.863h1.8376z" />
    <path
       id="path3931"
       d="m-101.81 20.436h-5.8081l-1.3044 3.6182h-1.8852l5.2939-13.863h1.5996l5.3035 13.863h-1.8757zm-5.2559-1.5044h4.7131l-2.3613-6.4841z" />
    <path
       id="path3933"
       d="m-91.661 18.446h-3.2563v5.6082h-1.8376v-13.863h4.5894q2.3423 0 3.5991 1.0664 1.2664 1.0664 1.2664 3.104 0 1.2949-0.70459 2.2566-0.69507 0.96167-1.9424 1.4377l3.2563 5.8843v0.11426h-1.9614zm-3.2563-1.4949h2.8088q1.3616 0 2.1614-0.70459 0.80933-0.70459 0.80933-1.8853 0-1.2854-0.77124-1.9709-0.76172-0.68555-2.209-0.69507h-2.7993z" />
    <path
       id="path3935"
       d="m-78.084 18.626v5.4272h-1.8281v-13.863h5.113q2.2756 0 3.561 1.1616 1.2949 1.1616 1.2949 3.0754 0 2.0186-1.2664 3.1135-1.2568 1.0854-3.6086 1.0854zm0-1.4949h3.2849q1.4663 0 2.2471-0.68555 0.78076-0.69507 0.78076-1.9995 0-1.2378-0.78076-1.9805-0.78076-0.74268-2.1423-0.77124h-3.3896z" />
    <path
       id="path3937"
       d="m-61.269 20.436h-5.8081l-1.3044 3.6182h-1.8853l5.2939-13.863h1.5996l5.3035 13.863h-1.8757zm-5.2559-1.5044h4.7131l-2.3613-6.4841z" />
    <path
       id="path3939"
       d="m-45.549 24.054h-1.8376l-6.9792-10.683v10.683h-1.8376v-13.863h1.8376l6.9983 10.731v-10.731h1.8186z" />
    <path
       id="path3941"
       d="m-34.466 17.646h-6.0081v4.9131h6.9792v1.4949h-8.8074v-13.863h8.7122v1.5044h-6.884v4.4561h6.0081z" />
    <path
       id="path3943"
       d="m-29.381 22.559h6.5698v1.4949h-8.4075v-13.863h1.8376z" />
    <path
       id="path3945"
       d="m-16.642 17.874q-2.3518-0.67603-3.4277-1.6567-1.0664-0.99023-1.0664-2.4375 0-1.6377 1.3044-2.7041 1.314-1.0759 3.4087-1.0759 1.4282 0 2.5422 0.55225 1.1235 0.55225 1.7329 1.5234 0.6189 0.97119 0.6189 2.1233h-1.8376q0-1.2568-0.7998-1.9709-0.7998-0.72363-2.2566-0.72363-1.3521 0-2.1138 0.59985-0.7522 0.59033-0.7522 1.6472 0 0.84741 0.71411 1.4377 0.72363 0.58081 2.447 1.0664 1.7329 0.4856 2.7041 1.0759 0.98071 0.58081 1.4473 1.3616 0.47607 0.78076 0.47607 1.8376 0 1.6853-1.314 2.7041-1.314 1.0093-3.5134 1.0093-1.4282 0-2.666-0.54272-1.2378-0.55225-1.9138-1.5044-0.6665-0.95215-0.6665-2.1614h1.8376q0 1.2568 0.92358 1.99 0.9331 0.72363 2.4851 0.72363 1.4473 0 2.2185-0.59033 0.77124-0.59033 0.77124-1.6091t-0.71411-1.571q-0.71411-0.56177-2.5898-1.1045z" />
  </g>
  <g
     clip-path="url(#clip-m118336d080)"
     id="g45">
    <path
       id="path2610"
       d="m32.682 18.699v62.093h267.84v-62.093z"
       fill="#5875a4"
       stroke="#fff"
       stroke-width="1.5" />
    <path
       id="path2613"
       d="m32.682 96.315v62.093h279.74v-62.093z"
       fill="#cc8963"
       stroke="#fff"
       stroke-width="1.5" />
    <path
       id="path2616"
       d="m32.682 173.93v62.093h279.74v-62.093z"
       fill="#5f9e6e"
       stroke="#fff"
       stroke-width="1.5" />
    <path
       id="path2619"
       d="m32.682 251.55v62.093h323.53v-62.093z"
       fill="#b55d60"
       stroke="#fff"
       stroke-width="1.5" />
    <path
       id="path2622"
       d="m32.682 329.16v62.092h333.74v-62.092z"
       fill="#857aab"
       stroke="#fff"
       stroke-width="1.5" />
  </g>
  <use
     id="use2643"
     transform="translate(-39.318 -49.542)"
     x="518.40002"
     y="448.56"
     width="100%"
     height="100%"
     fill="#262626"
     stroke="#262626"
     xlink:href="#m118336d080" />
  <path
     id="path2648"
     d="m32.682 399.02v-388.08"
     fill="none"
     stroke="#262626"
     stroke-linecap="square"
     stroke-width="1.875" />
  <path
     id="path2651"
     d="m32.682 399.02h446.4"
     fill="none"
     stroke="#262626"
     stroke-linecap="square"
     stroke-width="1.875" />
  <g
     id="text2654"
     fill="#ffffff"
     aria-label="BASELINE"
     transform="matrix(1.1999513,0,0,1.1999513,-9.8289731,-12.268343)"
     style="stroke-width:0.833367">
    <path
       id="path3948"
       d="m 41.655,56.479 v -9.5977 h 3.3618 q 1.7468,0 2.6499,0.67236 0.90308,0.66577 0.90308,1.9578 0,0.70532 -0.36255,1.2458 -0.36255,0.53394 -1.0085,0.78442 0.73828,0.18457 1.1602,0.74487 0.42847,0.5603 0.42847,1.3711 0,1.3843 -0.8833,2.0962 -0.8833,0.7119 -2.5181,0.7251 z m 1.9775,-4.1792 v 2.5906 h 1.6941 q 0.69873,0 1.0876,-0.32959 0.39551,-0.33618 0.39551,-0.92285 0,-1.3184 -1.3645,-1.3381 z m 0,-1.3975 h 1.4634 q 1.4963,-0.02637 1.4963,-1.1931 0,-0.65259 -0.38232,-0.93604 -0.37573,-0.29004 -1.1931,-0.29004 h -1.3843 z"
       style="stroke-width:0.833367" />
    <path
       id="path3950"
       d="m 55.689,54.502 h -3.4673 l -0.65918,1.9775 h -2.1028 l 3.5728,-9.5977 h 1.8325 l 3.5925,9.5977 h -2.1028 z m -2.9333,-1.6018 h 2.3994 l -1.2063,-3.5925 z"
       style="stroke-width:0.833367" />
    <path
       id="path3952"
       d="m 64.331,53.961 q 0,-0.5603 -0.39551,-0.85693 -0.39551,-0.30322 -1.4238,-0.63281 -1.0283,-0.33618 -1.6282,-0.65918 -1.6348,-0.8833 -1.6348,-2.3796 0,-0.77783 0.43506,-1.3843 0.44165,-0.61304 1.259,-0.95581 0.82398,-0.34277 1.8457,-0.34277 1.0283,0 1.8325,0.37573 0.8042,0.36914 1.2458,1.0481 0.44824,0.67896 0.44824,1.5425 h -1.9775 q 0,-0.65918 -0.41528,-1.0217 -0.41528,-0.36914 -1.1667,-0.36914 -0.7251,0 -1.1272,0.30981 -0.4021,0.30322 -0.4021,0.8042 0,0.46802 0.46802,0.78442 0.47461,0.31641 1.3909,0.59326 1.6875,0.50757 2.4587,1.259 0.77124,0.75146 0.77124,1.8721 0,1.2458 -0.94263,1.9578 -0.94263,0.70532 -2.5378,0.70532 -1.1074,0 -2.0171,-0.4021 -0.90967,-0.40869 -1.3909,-1.114 -0.47461,-0.70532 -0.47461,-1.6348 h 1.9841 q 0,1.5886 1.8984,1.5886 0.70532,0 1.1008,-0.28345 0.39551,-0.29004 0.39551,-0.8042 z"
       style="stroke-width:0.833367" />
    <path
       id="path3954"
       d="m 73.427,52.32 h -3.7969 v 2.5708 h 4.4561 v 1.5886 h -6.4336 v -9.5977 h 6.4204 v 1.6018 h -4.4429 v 2.2874 h 3.7969 z"
       style="stroke-width:0.833367" />
    <path
       id="path3956"
       d="m 77.224,54.891 h 4.199 v 1.5886 h -6.1765 v -9.5977 h 1.9775 z"
       style="stroke-width:0.833367" />
    <path
       id="path3958"
       d="M 84.66,56.479 H 82.6825 V 46.8813 H 84.66 Z"
       style="stroke-width:0.833367" />
    <path
       id="path3960"
       d="m 94.297,56.479 h -1.9775 l -3.8496,-6.3149 v 6.3149 h -1.9775 v -9.5977 h 1.9775 l 3.8562,6.3281 v -6.3281 h 1.9709 z"
       style="stroke-width:0.833367" />
    <path
       id="path3962"
       d="m 101.8,52.32 h -3.7969 v 2.5708 h 4.4561 v 1.5886 h -6.4336 v -9.5977 h 6.4204 v 1.6018 h -4.4429 v 2.2874 H 101.8 Z"
       style="stroke-width:0.833367" />
  </g>
  <g
     id="text2657"
     fill="#fff"
     aria-label="63.0%">
    <path
       id="path3965"
       d="m250.42 42.804v1.4949h-0.32373q-2.0566 0.03809-3.2754 1.2188-1.2188 1.1807-1.4092 3.323 1.095-1.2568 2.9897-1.2568 1.8091 0 2.885 1.2759 1.0854 1.2759 1.0854 3.2944 0 2.1423-1.1711 3.4277-1.1616 1.2854-3.123 1.2854-1.99 0-3.2278-1.5234-1.2378-1.533-1.2378-3.9419v-0.67603q0-3.8276 1.6282-5.8462 1.6377-2.0281 4.8655-2.0757zm-2.3137 6.2461q-0.90454 0-1.6663 0.54272-0.76172 0.54272-1.0569 1.3616v0.64746q0 1.7139 0.77124 2.7612 0.77124 1.0474 1.9233 1.0474 1.1902 0 1.8662-0.87598 0.68555-0.87598 0.68555-2.2947 0-1.4282-0.69507-2.3042-0.68554-0.8855-1.8281-0.8855z" />
    <path
       id="path3967"
       d="m257.02 48.889h1.3235q1.2473-0.01904 1.9614-0.65698 0.71411-0.63794 0.71411-1.7234 0-2.4375-2.428-2.4375-1.1426 0-1.8281 0.65698-0.67603 0.64746-0.67603 1.7234h-1.7615q0-1.6472 1.1997-2.7327 1.2092-1.095 3.0659-1.095 1.9614 0 3.0754 1.0378 1.114 1.0378 1.114 2.885 0 0.90454-0.59034 1.752-0.58081 0.84741-1.5901 1.2664 1.1426 0.36182 1.7615 1.1997 0.62842 0.83789 0.62842 2.0471 0 1.8662-1.2188 2.9612t-3.1707 1.095q-1.9519 0-3.1802-1.0569-1.2188-1.0569-1.2188-2.7898h1.771q0 1.095 0.71412 1.752 0.71411 0.65698 1.9138 0.65698 1.2759 0 1.9519-0.6665 0.67602-0.6665 0.67602-1.9138 0-1.2092-0.74267-1.8567-0.74268-0.64746-2.1423-0.6665h-1.3235z" />
    <path
       id="path3969"
       d="m265.63 55.754q0-0.45703 0.2666-0.76172 0.27612-0.30469 0.81885-0.30469 0.54272 0 0.81885 0.30469 0.28564 0.30469 0.28564 0.76172 0 0.43799-0.28564 0.73315-0.27613 0.29517-0.81885 0.29517-0.54273 0-0.81885-0.29517-0.2666-0.29517-0.2666-0.73315z" />
    <path
       id="path3971"
       d="m279.23 50.764q0 3.0945-1.0569 4.5989-1.0569 1.5044-3.304 1.5044-2.2185 0-3.2849-1.4663-1.0664-1.4758-1.1045-4.3989v-2.3518q0-3.0564 1.0569-4.5417 1.0569-1.4854 3.3135-1.4854 2.2376 0 3.2944 1.4377 1.0569 1.4282 1.0854 4.418zm-1.7615-2.4089q0-2.2375-0.62842-3.2563-0.62842-1.0283-1.99-1.0283-1.352 0-1.971 1.0188-0.6189 1.0188-0.63794 3.1326v2.8184q0 2.2471 0.64746 3.323 0.65698 1.0664 1.9805 1.0664 1.3044 0 1.9329-1.0093 0.63794-1.0093 0.66651-3.1802z" />
    <path
       id="path3973"
       d="m281.34 45.48q0-1.2473 0.79028-2.0566 0.79981-0.80933 2.0471-0.80933 1.2664 0 2.0471 0.81885 0.79028 0.80933 0.79028 2.1042v0.67603q0 1.2568-0.7998 2.0566-0.79028 0.79028-2.0186 0.79028-1.2378 0-2.0471-0.79028-0.80932-0.7998-0.80932-2.1233zm1.314 0.73316q0 0.74268 0.41895 1.2283 0.41894 0.47607 1.1235 0.47607 0.67603 0 1.0854-0.46655 0.41895-0.46655 0.41895-1.2759v-0.69507q0-0.74268-0.40943-1.2283-0.40942-0.4856-1.114-0.4856t-1.114 0.4856q-0.40943 0.4856-0.40943 1.2664zm5.4368 7.0649q0-1.2473 0.79028-2.0471 0.79981-0.80933 2.0471-0.80933 1.2473 0 2.0471 0.7998 0.79981 0.7998 0.79981 2.1233v0.67602q0 1.2473-0.79981 2.0566-0.79028 0.7998-2.0281 0.7998-1.2378 0-2.0471-0.79028-0.80933-0.7998-0.80933-2.1233zm1.314 0.74268q0 0.7522 0.41894 1.2378 0.41895 0.47607 1.1235 0.47607 0.68554 0 1.095-0.46655 0.40942-0.47607 0.40942-1.2854v-0.70459q0-0.7522-0.41894-1.2283-0.40943-0.47608-1.1045-0.47608-0.67602 0-1.1045 0.47608-0.41894 0.46655-0.41894 1.2664zm-4.8084 1.6091-0.99976-0.62842 6.7698-10.835 0.99975 0.62842z" />
  </g>
  <g
     id="text2660"
     fill="#ffffff"
     aria-label="NEIGHBOUR NMS"
     transform="matrix(1.1999854,0,0,1.1999854,-9.8305735,-27.791764)"
     style="stroke-width:0.833343">
    <path
       id="path3976"
       d="m 49.46,134.1 h -1.9775 l -3.8496,-6.3149 V 134.1 h -1.9775 v -9.5977 h 1.9775 l 3.8562,6.3281 v -6.3281 H 49.46 Z"
       style="stroke-width:0.833343" />
    <path
       id="path3978"
       d="m 56.961,129.94 h -3.7969 v 2.5708 h 4.4561 v 1.5886 h -6.4336 v -9.5977 h 6.4204 v 1.6018 h -4.4429 v 2.2874 h 3.7969 z"
       style="stroke-width:0.833343" />
    <path
       id="path3980"
       d="m 60.883,134.1 h -1.9775 v -9.5977 h 1.9775 z"
       style="stroke-width:0.833343" />
    <path
       id="path3982"
       d="m 70.309,132.88 q -0.53394,0.6394 -1.5095,0.99536 -0.97559,0.34937 -2.1621,0.34937 -1.2458,0 -2.1885,-0.54053 -0.93604,-0.54712 -1.4502,-1.582 -0.50757,-1.0349 -0.52075,-2.4324 v -0.65258 q 0,-1.437 0.4812,-2.4851 0.48779,-1.0547 1.3975,-1.6084 0.91626,-0.5603 2.1423,-0.5603 1.7073,0 2.6697,0.81738 0.9624,0.81079 1.1404,2.3665 h -1.9248 q -0.13184,-0.82398 -0.58667,-1.2063 -0.44824,-0.38233 -1.2393,-0.38233 -1.0085,0 -1.5359,0.75806 -0.52734,0.75806 -0.53394,2.2544 v 0.61304 q 0,1.5095 0.57349,2.2808 0.57349,0.77124 1.6809,0.77124 1.114,0 1.5886,-0.47461 v -1.6545 h -1.7996 v -1.4568 h 3.7771 z"
       style="stroke-width:0.833343" />
    <path
       id="path3984"
       d="m 79.723,134.1 h -1.9775 v -4.1133 H 73.8893 V 134.1 h -1.9775 v -9.5977 h 1.9775 v 3.8892 h 3.8562 v -3.8892 h 1.9775 z"
       style="stroke-width:0.833343" />
    <path
       id="path3986"
       d="m 81.45,134.1 v -9.5977 h 3.3618 q 1.7468,0 2.6499,0.67237 0.90308,0.66577 0.90308,1.9578 0,0.70532 -0.36255,1.2458 -0.36255,0.53394 -1.0085,0.78442 0.73828,0.18457 1.1602,0.74488 0.42847,0.5603 0.42847,1.3711 0,1.3843 -0.8833,2.0962 -0.8833,0.71192 -2.5181,0.7251 z m 1.9775,-4.1792 v 2.5906 h 1.6941 q 0.69873,0 1.0876,-0.32959 0.39551,-0.33618 0.39551,-0.92285 0,-1.3184 -1.3645,-1.3381 z m 0,-1.3975 h 1.4634 q 1.4963,-0.0264 1.4963,-1.1931 0,-0.65258 -0.38232,-0.93603 -0.37573,-0.29004 -1.1931,-0.29004 h -1.3843 z"
       style="stroke-width:0.833343" />
    <path
       id="path3988"
       d="m 97.949,129.51 q 0,1.4172 -0.50098,2.4851 -0.50098,1.0679 -1.437,1.648 -0.92944,0.58008 -2.1357,0.58008 -1.1931,0 -2.1292,-0.57349 -0.9361,-0.57349 -1.4502,-1.6348 -0.51416,-1.0679 -0.52075,-2.4521 v -0.47461 q 0,-1.4172 0.50757,-2.4917 0.51416,-1.0811 1.4436,-1.6545 0.93604,-0.58008 2.1357,-0.58008 1.19966,0 2.1292,0.58008 0.93604,0.57348 1.4436,1.6545 0.51416,1.0745 0.51416,2.4851 z m -2.0039,-0.43506 q 0,-1.5095 -0.54053,-2.2939 -0.54053,-0.78443 -1.5425,-0.78443 -0.99536,0 -1.5359,0.77784 -0.54053,0.77124 -0.54712,2.2676 v 0.46802 q 0,1.47 0.54053,2.2808 0.54053,0.81079 1.5557,0.81079 0.99536,0 1.5293,-0.77783 0.53394,-0.78442 0.54053,-2.2808 z"
       style="stroke-width:0.833343" />
    <path
       id="path3990"
       d="m 106.65,124.5 v 6.3215 q 0,1.5754 -0.98876,2.4917 -0.98218,0.91626 -2.6895,0.91626 -1.6809,0 -2.6697,-0.8899 -0.98876,-0.88989 -1.0085,-2.4456 v -6.394 h 1.9775 v 6.3347 q 0,0.94263 0.44824,1.3777 0.45483,0.42846 1.2524,0.42846 1.6677,0 1.6941,-1.7534 v -6.3874 z"
       style="stroke-width:0.833343" />
    <path
       id="path3992"
       d="m 111.82,130.58 h -1.5754 v 3.5134 h -1.9775 v -9.5977 h 3.5662 q 1.7007,0 2.6235,0.75806 0.92286,0.75806 0.92286,2.1423 0,0.98218 -0.42847,1.6414 -0.42188,0.65259 -1.2854,1.0415 l 2.0764,3.9221 v 0.0923 h -2.1226 z m -1.5754,-1.6018 h 1.5952 q 0.74487,0 1.1536,-0.37574 0.40869,-0.38232 0.40869,-1.0481 0,-0.67896 -0.38892,-1.0679 -0.38232,-0.38892 -1.1799,-0.38892 h -1.5886 z"
       style="stroke-width:0.833343" />
    <path
       id="path3994"
       d="m 128.05,134.1 h -1.9775 l -3.8496,-6.3149 V 134.1 h -1.9775 v -9.5977 h 1.9775 l 3.8562,6.3281 v -6.3281 h 1.971 z"
       style="stroke-width:0.833343" />
    <path
       id="path3996"
       d="m 132.36,124.5 2.4653,6.9609 2.4522,-6.9609 h 2.5972 v 9.5977 h -1.9841 v -2.6235 l 0.19776,-4.5286 -2.5906,7.1521 h -1.3579 l -2.584,-7.1455 0.19775,4.522 v 2.6235 h -1.9775 V 124.5 Z"
       style="stroke-width:0.833343" />
    <path
       id="path3998"
       d="m 146.58,131.58 q 0,-0.5603 -0.39551,-0.85693 -0.39551,-0.30322 -1.4238,-0.63281 -1.0283,-0.33618 -1.6282,-0.65918 -1.6348,-0.8833 -1.6348,-2.3796 0,-0.77783 0.43505,-1.3843 0.44165,-0.61304 1.259,-0.95581 0.82397,-0.34277 1.8457,-0.34277 1.0283,0 1.8325,0.37573 0.8042,0.36914 1.2458,1.0481 0.44824,0.67895 0.44824,1.5425 h -1.9775 q 0,-0.65918 -0.41528,-1.0217 -0.41528,-0.36914 -1.1668,-0.36914 -0.7251,0 -1.1272,0.30981 -0.4021,0.30322 -0.4021,0.8042 0,0.46802 0.46802,0.78442 0.47461,0.31641 1.3909,0.59327 1.6875,0.50756 2.4587,1.259 0.77124,0.75146 0.77124,1.8721 0,1.2458 -0.94263,1.9578 -0.94262,0.70533 -2.5378,0.70533 -1.1074,0 -2.0171,-0.4021 -0.90967,-0.4087 -1.3909,-1.114 -0.47461,-0.70532 -0.47461,-1.6348 h 1.9841 q 0,1.5886 1.8984,1.5886 0.70532,0 1.1008,-0.28345 0.39551,-0.29004 0.39551,-0.8042 z"
       style="stroke-width:0.833343" />
  </g>
  <g
     id="text2663"
     fill="#fff"
     aria-label="65.8%">
    <path
       id="path4001"
       d="m262.32 120.42v1.4949h-0.32373q-2.0566 0.0381-3.2754 1.2188-1.2188 1.1807-1.4092 3.323 1.095-1.2568 2.9898-1.2568 1.8091 0 2.885 1.2759 1.0854 1.2759 1.0854 3.2944 0 2.1423-1.1711 3.4277-1.1616 1.2854-3.123 1.2854-1.99 0-3.2278-1.5234-1.2378-1.533-1.2378-3.9419v-0.67603q0-3.8276 1.6282-5.8462 1.6377-2.0281 4.8655-2.0757zm-2.3137 6.2461q-0.90454 0-1.6663 0.54273-0.76172 0.54272-1.0569 1.3616v0.64746q0 1.7139 0.77124 2.7612t1.9233 1.0474q1.1902 0 1.8662-0.87597 0.68554-0.87598 0.68554-2.2947 0-1.4282-0.69507-2.3042-0.68554-0.8855-1.8281-0.8855z" />
    <path
       id="path4003"
       d="m267.17 127.34 0.70459-6.9126h7.103v1.6282h-5.6082l-0.41895 3.78q1.0188-0.59985 2.3137-0.59985 1.8948 0 3.0088 1.2568 1.114 1.2473 1.114 3.3801 0 2.1423-1.1616 3.3801-1.1521 1.2283-3.2278 1.2283-1.8376 0-2.9993-1.0188-1.1616-1.0188-1.3235-2.8184h1.6663q0.16186 1.1902 0.84741 1.7996 0.68555 0.59986 1.8091 0.59986 1.2283 0 1.9233-0.83789 0.70459-0.83789 0.70459-2.3137 0-1.3901-0.76172-2.228-0.75219-0.84741-2.009-0.84741-1.1521 0-1.8091 0.50464l-0.46655 0.38085z" />
    <path
       id="path4005"
       d="m277.53 133.37q0-0.45703 0.2666-0.76172 0.27613-0.30469 0.81885-0.30469t0.81885 0.30469q0.28564 0.30469 0.28564 0.76172 0 0.43799-0.28564 0.73315-0.27613 0.29517-0.81885 0.29517t-0.81885-0.29517q-0.2666-0.29516-0.2666-0.73315z" />
    <path
       id="path4007"
       d="m290.85 124.05q0 1.0378-0.55225 1.8472-0.54272 0.80933-1.4758 1.2664 1.0854 0.46655 1.7139 1.3616 0.63794 0.89502 0.63794 2.0281 0 1.7996-1.2188 2.866-1.2092 1.0664-3.1897 1.0664-1.9995 0-3.2087-1.0664-1.1997-1.0759-1.1997-2.866 0-1.1235 0.60938-2.0281 0.61889-0.90454 1.7043-1.3711-0.92358-0.45703-1.4568-1.2664-0.53321-0.80933-0.53321-1.8376 0-1.752 1.1235-2.7803 1.1235-1.0283 2.9612-1.0283 1.8281 0 2.9517 1.0283 1.1331 1.0283 1.1331 2.7803zm-1.4378 6.4651q0-1.1616-0.74267-1.8948-0.73316-0.73316-1.9233-0.73316-1.1902 0-1.9138 0.72364-0.71411 0.72363-0.71411 1.9043 0 1.1807 0.69507 1.8567 0.70459 0.67603 1.9519 0.67603 1.2378 0 1.9424-0.67603 0.70459-0.68554 0.70459-1.8567zm-2.647-8.8264q-1.0378 0-1.6853 0.64746-0.63794 0.63794-0.63794 1.7424 0 1.0569 0.62842 1.7139 0.63794 0.64746 1.6948 0.64746 1.0569 0 1.6853-0.64746 0.63794-0.65699 0.63794-1.7139 0-1.0569-0.65698-1.7234t-1.6663-0.6665z" />
    <path
       id="path4009"
       d="m293.24 123.1q0-1.2473 0.79028-2.0566 0.79981-0.80933 2.0471-0.80933 1.2664 0 2.0471 0.81885 0.79028 0.80932 0.79028 2.1042v0.67602q0 1.2568-0.7998 2.0566-0.79028 0.79028-2.0186 0.79028-1.2378 0-2.0471-0.79028-0.80933-0.7998-0.80933-2.1233zm1.314 0.73315q0 0.74268 0.41895 1.2283 0.41895 0.47608 1.1235 0.47608 0.67602 0 1.0854-0.46656 0.41895-0.46655 0.41895-1.2759v-0.69506q0-0.74268-0.40942-1.2283-0.40943-0.48559-1.114-0.48559t-1.114 0.48559q-0.40943 0.4856-0.40943 1.2664zm5.4368 7.0649q0-1.2473 0.79029-2.0471 0.7998-0.80932 2.0471-0.80932 1.2473 0 2.0471 0.7998 0.79981 0.79981 0.79981 2.1233v0.67603q0 1.2473-0.79981 2.0566-0.79028 0.7998-2.0281 0.7998-1.2378 0-2.0471-0.79028-0.80933-0.7998-0.80933-2.1233zm1.314 0.74268q0 0.75219 0.41894 1.2378 0.41895 0.47607 1.1235 0.47607 0.68554 0 1.095-0.46655 0.40942-0.47607 0.40942-1.2854v-0.70459q0-0.7522-0.41894-1.2283-0.40943-0.47607-1.1045-0.47607-0.67602 0-1.1045 0.47607-0.41894 0.46655-0.41894 1.2664zm-4.8084 1.6091-0.99976-0.62842 6.7698-10.835 0.99975 0.62842z" />
  </g>
  <g
     id="text2666"
     fill="#ffffff"
     aria-label="IOA FILTERING"
     transform="matrix(1.1999988,0,0,1.1999988,-9.8561506,-43.31911)"
     style="stroke-width:0.833334">
    <path
       id="path4012"
       d="m 43.758,211.71 h -1.9775 v -9.5977 h 1.9775 z"
       style="stroke-width:0.833334" />
    <path
       id="path4014"
       d="m 53.474,207.13 q 0,1.4172 -0.50098,2.4851 -0.50098,1.0679 -1.437,1.6479 -0.92944,0.58008 -2.1357,0.58008 -1.1931,0 -2.1292,-0.57348 -0.93604,-0.57349 -1.4502,-1.6348 -0.51416,-1.0679 -0.52075,-2.4522 v -0.47461 q 0,-1.4172 0.50757,-2.4917 0.51416,-1.081 1.4436,-1.6545 0.93604,-0.58008 2.1357,-0.58008 1.1997,0 2.1292,0.58008 0.93604,0.57349 1.4436,1.6545 0.51416,1.0745 0.51416,2.4851 z m -2.0039,-0.43506 q 0,-1.5095 -0.54053,-2.294 -0.54053,-0.78442 -1.5425,-0.78442 -0.99536,0 -1.5359,0.77783 -0.54053,0.77124 -0.54712,2.2676 v 0.46802 q 0,1.47 0.54053,2.2808 0.54053,0.8108 1.5557,0.81079 0.99536,0 1.5293,-0.77783 0.53394,-0.78443 0.54053,-2.2808 z"
       style="stroke-width:0.833334" />
    <path
       id="path4016"
       d="m 60.191,209.73 h -3.4673 l -0.65918,1.9775 h -2.1028 l 3.5728,-9.5977 h 1.8325 l 3.5925,9.5977 h -2.1028 z m -2.9334,-1.6018 h 2.3994 l -1.2063,-3.5925 z"
       style="stroke-width:0.833334" />
    <path
       id="path4018"
       d="m 72.992,207.79 h -3.7969 v 3.9221 h -1.9775 v -9.5977 h 6.249 v 1.6018 h -4.2715 v 2.4785 h 3.7969 z"
       style="stroke-width:0.833334" />
    <path
       id="path4020"
       d="m 76.717,211.71 h -1.9775 v -9.5977 h 1.9775 z"
       style="stroke-width:0.833334" />
    <path
       id="path4022"
       d="m 80.527,210.12 h 4.199 v 1.5886 h -6.1765 v -9.5977 h 1.9775 z"
       style="stroke-width:0.833334" />
    <path
       id="path4024"
       d="m 91.733,203.72 h -2.9399 v 7.9958 H 86.8156 V 203.72 h -2.9004 v -1.6018 h 7.8179 z"
       style="stroke-width:0.833334" />
    <path
       id="path4026"
       d="m 98.634,207.55 h -3.7969 v 2.5708 h 4.4561 v 1.5886 h -6.4336 v -9.5977 H 99.28 v 1.6018 h -4.4429 v 2.2874 h 3.7969 z"
       style="stroke-width:0.833334" />
    <path
       id="path4028"
       d="m 104.01,208.2 h -1.5754 v 3.5134 h -1.9775 v -9.5977 h 3.5662 q 1.7007,0 2.6235,0.75806 0.92285,0.75805 0.92285,2.1423 0,0.98218 -0.42846,1.6414 -0.42188,0.65259 -1.2854,1.0415 l 2.0764,3.9221 v 0.0923 h -2.1226 z m -1.5754,-1.6018 h 1.5952 q 0.74487,0 1.1536,-0.37573 0.4087,-0.38232 0.4087,-1.0481 0,-0.67895 -0.38892,-1.0679 -0.38232,-0.38891 -1.1799,-0.38891 h -1.5886 z"
       style="stroke-width:0.833334" />
    <path
       id="path4030"
       d="m 111.17,211.71 h -1.9775 v -9.5977 h 1.9775 z"
       style="stroke-width:0.833334" />
    <path
       id="path4032"
       d="m 120.81,211.71 h -1.9775 l -3.8496,-6.3149 v 6.3149 h -1.9775 v -9.5977 h 1.9775 l 3.8562,6.3281 v -6.3281 h 1.9709 z"
       style="stroke-width:0.833334" />
    <path
       id="path4034"
       d="m 130.13,210.5 q -0.53394,0.6394 -1.5095,0.99536 -0.97558,0.34936 -2.1621,0.34936 -1.2458,0 -2.1885,-0.54052 -0.93604,-0.54712 -1.4502,-1.582 -0.50757,-1.0349 -0.52075,-2.4324 v -0.65259 q 0,-1.437 0.4812,-2.4851 0.48779,-1.0547 1.3975,-1.6084 0.91626,-0.56031 2.1423,-0.56031 1.7073,0 2.6697,0.81739 0.96241,0.81079 1.1404,2.3664 h -1.9248 q -0.13184,-0.82397 -0.58667,-1.2063 -0.44824,-0.38232 -1.2393,-0.38232 -1.0085,0 -1.5359,0.75806 -0.52734,0.75805 -0.53393,2.2544 v 0.61304 q 0,1.5095 0.57349,2.2808 0.57348,0.77124 1.6809,0.77124 1.114,0 1.5886,-0.47461 v -1.6545 h -1.7996 v -1.4568 h 3.7771 z"
       style="stroke-width:0.833334" />
  </g>
  <g
     id="text2669"
     fill="#fff"
     aria-label="65.8%">
    <path
       id="path4037"
       d="m262.32 198.04v1.4949h-0.32373q-2.0566 0.0381-3.2754 1.2188-1.2188 1.1807-1.4092 3.323 1.095-1.2568 2.9898-1.2568 1.8091 0 2.885 1.2759 1.0854 1.2759 1.0854 3.2944 0 2.1423-1.1711 3.4277-1.1616 1.2854-3.123 1.2854-1.99 0-3.2278-1.5234-1.2378-1.533-1.2378-3.9419v-0.67602q0-3.8276 1.6282-5.8462 1.6377-2.0281 4.8655-2.0757zm-2.3137 6.2461q-0.90454 0-1.6663 0.54273-0.76172 0.54272-1.0569 1.3616v0.64746q0 1.7139 0.77124 2.7612 0.77124 1.0474 1.9233 1.0474 1.1902 0 1.8662-0.87598 0.68554-0.87598 0.68554-2.2947 0-1.4282-0.69507-2.3042-0.68554-0.8855-1.8281-0.8855z" />
    <path
       id="path4039"
       d="m267.17 204.96 0.70459-6.9126h7.103v1.6282h-5.6082l-0.41895 3.78q1.0188-0.59986 2.3137-0.59986 1.8948 0 3.0088 1.2568 1.114 1.2473 1.114 3.3801 0 2.1423-1.1616 3.3801-1.1521 1.2283-3.2278 1.2283-1.8376 0-2.9993-1.0188-1.1616-1.0188-1.3235-2.8184h1.6663q0.16186 1.1902 0.84741 1.7996 0.68555 0.59985 1.8091 0.59985 1.2283 0 1.9233-0.83789 0.70459-0.83789 0.70459-2.3137 0-1.3901-0.76172-2.228-0.75219-0.84741-2.009-0.84741-1.1521 0-1.8091 0.50464l-0.46655 0.38086z" />
    <path
       id="path4041"
       d="m277.53 210.99q0-0.45703 0.2666-0.76172 0.27613-0.30469 0.81885-0.30469t0.81885 0.30469q0.28564 0.30469 0.28564 0.76172 0 0.43799-0.28564 0.73315-0.27613 0.29517-0.81885 0.29517t-0.81885-0.29517q-0.2666-0.29516-0.2666-0.73315z" />
    <path
       id="path4043"
       d="m290.85 201.66q0 1.0378-0.55225 1.8472-0.54272 0.80933-1.4758 1.2664 1.0854 0.46655 1.7139 1.3616 0.63794 0.89502 0.63794 2.0281 0 1.7996-1.2188 2.866-1.2092 1.0664-3.1897 1.0664-1.9995 0-3.2087-1.0664-1.1997-1.0759-1.1997-2.866 0-1.1235 0.60938-2.0281 0.61889-0.90454 1.7043-1.3711-0.92358-0.45703-1.4568-1.2664-0.53321-0.80932-0.53321-1.8376 0-1.752 1.1235-2.7803 1.1235-1.0283 2.9612-1.0283 1.8281 0 2.9517 1.0283 1.1331 1.0283 1.1331 2.7803zm-1.4378 6.4651q0-1.1616-0.74267-1.8948-0.73316-0.73316-1.9233-0.73316-1.1902 0-1.9138 0.72364-0.71411 0.72363-0.71411 1.9043 0 1.1807 0.69507 1.8567 0.70459 0.67603 1.9519 0.67603 1.2378 0 1.9424-0.67603 0.70459-0.68554 0.70459-1.8567zm-2.647-8.8264q-1.0378 0-1.6853 0.64746-0.63794 0.63794-0.63794 1.7424 0 1.0569 0.62842 1.7139 0.63794 0.64746 1.6948 0.64746 1.0569 0 1.6853-0.64746 0.63794-0.65698 0.63794-1.7139 0-1.0569-0.65698-1.7234-0.65698-0.6665-1.6663-0.6665z" />
    <path
       id="path4045"
       d="m293.24 200.71q0-1.2473 0.79028-2.0566 0.79981-0.80933 2.0471-0.80933 1.2664 0 2.0471 0.81885 0.79028 0.80933 0.79028 2.1042v0.67602q0 1.2568-0.7998 2.0566-0.79028 0.79029-2.0186 0.79029-1.2378 0-2.0471-0.79029-0.80933-0.7998-0.80933-2.1233zm1.314 0.73315q0 0.74268 0.41895 1.2283 0.41895 0.47608 1.1235 0.47608 0.67602 0 1.0854-0.46655 0.41895-0.46656 0.41895-1.2759v-0.69507q0-0.74268-0.40942-1.2283-0.40943-0.4856-1.114-0.4856t-1.114 0.4856q-0.40943 0.48559-0.40943 1.2664zm5.4368 7.0649q0-1.2473 0.79029-2.0471 0.7998-0.80932 2.0471-0.80932 1.2473 0 2.0471 0.7998 0.79981 0.79981 0.79981 2.1233v0.67603q0 1.2473-0.79981 2.0566-0.79028 0.79981-2.0281 0.79981-1.2378 0-2.0471-0.79029-0.80933-0.7998-0.80933-2.1233zm1.314 0.74268q0 0.7522 0.41894 1.2378 0.41895 0.47608 1.1235 0.47608 0.68554 0 1.095-0.46656 0.40942-0.47607 0.40942-1.2854v-0.70459q0-0.75219-0.41894-1.2283-0.40943-0.47607-1.1045-0.47607-0.67602 0-1.1045 0.47607-0.41894 0.46656-0.41894 1.2664zm-4.8084 1.6091-0.99976-0.62842 6.7698-10.835 0.99975 0.62842z" />
  </g>
  <g
     id="text2672"
     fill="#ffffff"
     aria-label="RESNETYOLO"
     transform="matrix(1.2000523,0,0,1.2000523,-9.8333003,-58.855443)"
     style="stroke-width:0.833297">
    <path
       id="path4048"
       d="m 45.208,285.81 h -1.5754 v 3.5134 h -1.9775 v -9.5977 h 3.5662 q 1.7007,0 2.6235,0.75806 0.9228,0.75806 0.92285,2.1423 0,0.98218 -0.42847,1.6414 -0.42188,0.65259 -1.2854,1.0415 l 2.0764,3.9221 v 0.0923 h -2.1226 z m -1.5754,-1.6018 h 1.5952 q 0.74487,0 1.1536,-0.37573 0.40869,-0.38232 0.40869,-1.0481 0,-0.67896 -0.38892,-1.0679 -0.38232,-0.38892 -1.1799,-0.38892 h -1.5886 z"
       style="stroke-width:0.833297" />
    <path
       id="path4050"
       d="m 56.045,285.17 h -3.7969 v 2.5708 h 4.4561 v 1.5886 h -6.4336 v -9.5977 h 6.4204 v 1.6018 h -4.4429 v 2.2874 h 3.7969 z"
       style="stroke-width:0.833297" />
    <path
       id="path4052"
       d="m 62.841,286.81 q 0,-0.5603 -0.39551,-0.85693 -0.39551,-0.30322 -1.4238,-0.63281 -1.0283,-0.33619 -1.6282,-0.65918 -1.6348,-0.8833 -1.6348,-2.3796 0,-0.77783 0.43506,-1.3843 0.44165,-0.61304 1.259,-0.95581 0.82398,-0.34277 1.8457,-0.34277 1.0283,0 1.8325,0.37573 0.8042,0.36914 1.2458,1.0481 0.44824,0.67896 0.44824,1.5425 h -1.9775 q 0,-0.65918 -0.41528,-1.0217 -0.41528,-0.36914 -1.1667,-0.36914 -0.7251,0 -1.1272,0.30981 -0.4021,0.30322 -0.4021,0.8042 0,0.46802 0.46802,0.78442 0.47461,0.31641 1.3909,0.59327 1.6875,0.50756 2.4587,1.259 0.77124,0.75146 0.77124,1.8721 0,1.2458 -0.94263,1.9578 -0.94263,0.70532 -2.5378,0.70532 -1.1074,0 -2.0171,-0.40209 -0.90967,-0.4087 -1.3909,-1.114 -0.47461,-0.70532 -0.47461,-1.6348 h 1.9841 q 0,1.5886 1.8984,1.5886 0.70532,0 1.1008,-0.28345 0.39551,-0.29004 0.39551,-0.8042 z"
       style="stroke-width:0.833297" />
    <path
       id="path4054"
       d="m 73.968,289.33 h -1.9775 l -3.8496,-6.3149 v 6.3149 h -1.9775 v -9.5977 h 1.9775 l 3.8562,6.3281 v -6.3281 h 1.9709 z"
       style="stroke-width:0.833297" />
    <path
       id="path4056"
       d="m 81.469,285.17 h -3.7969 v 2.5708 h 4.4561 v 1.5886 h -6.4336 v -9.5977 h 6.4204 v 1.6018 h -4.4429 v 2.2874 h 3.7969 z"
       style="stroke-width:0.833297" />
    <path
       id="path4058"
       d="m 90.645,281.33 h -2.9399 v 7.9958 H 85.7276 V 281.33 h -2.9004 v -1.6018 h 7.8179 z"
       style="stroke-width:0.833297" />
    <path
       id="path4060"
       d="m 95.187,284.05 1.9973,-4.3242 h 2.1621 l -3.1509,6.1172 v 3.4805 H 94.185 v -3.4805 l -3.1509,-6.1172 h 2.1687 z"
       style="stroke-width:0.833297" />
    <path
       id="path4062"
       d="m 107.92,284.75 q 0,1.4172 -0.50098,2.4851 -0.50097,1.0679 -1.437,1.648 -0.92944,0.58007 -2.1357,0.58007 -1.1931,0 -2.1292,-0.57348 -0.93604,-0.57349 -1.4502,-1.6348 -0.51416,-1.0679 -0.52075,-2.4522 v -0.4746 q 0,-1.4172 0.50757,-2.4917 0.51416,-1.0811 1.4436,-1.6546 0.93604,-0.58007 2.1358,-0.58007 1.1997,0 2.1292,0.58007 0.93603,0.57349 1.4436,1.6546 0.51416,1.0745 0.51416,2.4851 z m -2.0039,-0.43506 q 0,-1.5095 -0.54052,-2.2939 -0.54053,-0.78443 -1.5425,-0.78443 -0.99537,0 -1.5359,0.77783 -0.54053,0.77124 -0.54712,2.2676 v 0.46802 q 0,1.47 0.54053,2.2808 0.54052,0.81079 1.5557,0.81079 0.99536,0 1.5293,-0.77783 0.53393,-0.78442 0.54052,-2.2808 z"
       style="stroke-width:0.833297" />
    <path
       id="path4064"
       d="m 111.33,287.74 h 4.199 v 1.5886 h -6.1765 v -9.5977 h 1.9775 z"
       style="stroke-width:0.833297" />
    <path
       id="path4066"
       d="m 124.12,284.75 q 0,1.4172 -0.50098,2.4851 -0.50097,1.0679 -1.437,1.648 -0.92944,0.58007 -2.1357,0.58007 -1.1931,0 -2.1292,-0.57348 -0.93604,-0.57349 -1.4502,-1.6348 -0.51416,-1.0679 -0.52075,-2.4522 v -0.4746 q 0,-1.4172 0.50757,-2.4917 0.51416,-1.0811 1.4436,-1.6546 0.93604,-0.58007 2.1357,-0.58007 1.1997,0 2.1292,0.58007 0.93604,0.57349 1.4436,1.6546 0.51416,1.0745 0.51416,2.4851 z m -2.0039,-0.43506 q 0,-1.5095 -0.54053,-2.2939 -0.54052,-0.78443 -1.5425,-0.78443 -0.99536,0 -1.5359,0.77783 -0.54053,0.77124 -0.54712,2.2676 v 0.46802 q 0,1.47 0.54052,2.2808 0.54053,0.81079 1.5557,0.81079 0.99536,0 1.5293,-0.77783 0.53394,-0.78442 0.54053,-2.2808 z"
       style="stroke-width:0.833297" />
  </g>
  <g
     id="text2675"
     fill="#fff"
     aria-label="76.1%">
    <path
       id="path4069"
       d="m308.15 276.65-5.7414 12.873h-1.8472l5.7224-12.416h-7.5029v-1.4473h9.3691z" />
    <path
       id="path4071"
       d="m317.06 275.65v1.4949h-0.32373q-2.0566 0.0381-3.2754 1.2188-1.2188 1.1807-1.4092 3.323 1.095-1.2568 2.9898-1.2568 1.8091 0 2.885 1.2759 1.0854 1.2759 1.0854 3.2944 0 2.1423-1.1712 3.4277-1.1616 1.2854-3.123 1.2854-1.99 0-3.2278-1.5234-1.2378-1.533-1.2378-3.9419v-0.67602q0-3.8276 1.6282-5.8462 1.6377-2.0281 4.8655-2.0757zm-2.3137 6.2461q-0.90454 0-1.6663 0.54272-0.76172 0.54273-1.0569 1.3616v0.64746q0 1.7139 0.77124 2.7612 0.77124 1.0474 1.9233 1.0474 1.1902 0 1.8662-0.87598 0.68554-0.87597 0.68554-2.2947 0-1.4282-0.69506-2.3042-0.68555-0.8855-1.8281-0.8855z" />
    <path
       id="path4073"
       d="m321.32 288.6q0-0.45703 0.26661-0.76172 0.27612-0.30468 0.81884-0.30468 0.54273 0 0.81885 0.30468 0.28565 0.30469 0.28565 0.76172 0 0.43799-0.28565 0.73316-0.27612 0.29516-0.81885 0.29516-0.54272 0-0.81884-0.29516-0.26661-0.29517-0.26661-0.73316z" />
    <path
       id="path4075"
       d="m332.02 289.53h-1.771v-11.74l-3.5515 1.3044v-1.5996l5.0464-1.8948h0.27612z" />
    <path
       id="path4077"
       d="m337.03 278.33q0-1.2473 0.79029-2.0566 0.7998-0.80933 2.0471-0.80933 1.2664 0 2.0471 0.81885 0.79028 0.80933 0.79028 2.1042v0.67602q0 1.2568-0.79981 2.0566-0.79028 0.79028-2.0186 0.79028-1.2378 0-2.0471-0.79028-0.80933-0.79981-0.80933-2.1233zm1.314 0.73315q0 0.74268 0.41894 1.2283 0.41895 0.47607 1.1235 0.47607 0.67602 0 1.0854-0.46655 0.41894-0.46656 0.41894-1.2759v-0.69507q0-0.74268-0.40942-1.2283-0.40942-0.4856-1.114-0.4856t-1.114 0.4856q-0.40942 0.48559-0.40942 1.2664zm5.4368 7.065q0-1.2473 0.79028-2.0471 0.7998-0.80933 2.0471-0.80933 1.2473 0 2.0471 0.79981 0.7998 0.7998 0.7998 2.1233v0.67602q0 1.2473-0.7998 2.0566-0.79029 0.79981-2.0281 0.79981t-2.0471-0.79029q-0.80932-0.7998-0.80932-2.1233zm1.314 0.74267q0 0.7522 0.41895 1.2378 0.41894 0.47608 1.1235 0.47608 0.68555 0 1.095-0.46655 0.40943-0.47608 0.40943-1.2854v-0.70459q0-0.7522-0.41895-1.2283-0.40942-0.47607-1.1045-0.47607-0.67603 0-1.1045 0.47607-0.41895 0.46656-0.41895 1.2664zm-4.8084 1.6091-0.99975-0.62842 6.7698-10.835 0.99976 0.62841z" />
  </g>
  <g
     id="text2678"
     fill="#ffffff"
     aria-label="RGBD"
     transform="matrix(1.1999611,0,0,1.1999611,-9.8294993,-74.352785)"
     style="stroke-width:0.83336">
    <path
       id="path4080"
       d="m 45.208,363.43 h -1.5754 v 3.5134 h -1.9775 v -9.5977 h 3.5662 q 1.7007,0 2.6235,0.75806 0.92285,0.75805 0.92285,2.1423 0,0.98218 -0.42847,1.6414 -0.42188,0.65259 -1.2854,1.0415 l 2.0764,3.9221 v 0.0923 h -2.1226 z m -1.5754,-1.6018 h 1.5952 q 0.74487,0 1.1536,-0.37573 0.40869,-0.38232 0.40869,-1.0481 0,-0.67895 -0.38892,-1.0679 -0.38232,-0.38891 -1.1799,-0.38891 h -1.5886 z"
       style="stroke-width:0.83336" />
    <path
       id="path4082"
       d="m 57.864,365.73 q -0.53394,0.6394 -1.5095,0.99536 -0.97559,0.34936 -2.1621,0.34936 -1.2458,0 -2.1885,-0.54052 -0.93604,-0.54712 -1.4502,-1.582 -0.50757,-1.0349 -0.52075,-2.4324 v -0.65259 q 0,-1.437 0.4812,-2.4851 0.48779,-1.0547 1.3975,-1.6084 0.91626,-0.56031 2.1423,-0.56031 1.7073,0 2.6697,0.81739 0.9624,0.81079 1.1404,2.3664 h -1.9248 q -0.13184,-0.82397 -0.58667,-1.2063 -0.44824,-0.38232 -1.2393,-0.38232 -1.0085,0 -1.5359,0.75806 -0.52734,0.75805 -0.53394,2.2544 v 0.61304 q 0,1.5095 0.57349,2.2808 0.57349,0.7713 1.6809,0.77124 1.114,0 1.5886,-0.47461 v -1.6545 h -1.7996 v -1.4568 h 3.7771 z"
       style="stroke-width:0.83336" />
    <path
       id="path4084"
       d="m 59.466,366.94 v -9.5977 h 3.3618 q 1.7468,0 2.6499,0.67236 0.90308,0.66578 0.90308,1.9578 0,0.70532 -0.36255,1.2458 -0.36255,0.53393 -1.0085,0.78442 0.73828,0.18457 1.1602,0.74487 0.42847,0.56031 0.42847,1.3711 0,1.3843 -0.8833,2.0962 -0.8833,0.71191 -2.5181,0.7251 z m 1.9775,-4.1792 v 2.5906 h 1.6941 q 0.69873,0 1.0876,-0.32959 0.39551,-0.33618 0.39551,-0.92285 0,-1.3184 -1.3645,-1.3381 z m 0,-1.3975 h 1.4634 q 1.4963,-0.0264 1.4963,-1.1931 0,-0.65259 -0.38232,-0.93603 -0.37573,-0.29004 -1.1931,-0.29004 h -1.3843 z"
       style="stroke-width:0.83336" />
    <path
       id="path4086"
       d="m 68.081,366.94 v -9.5977 h 2.9531 q 1.2656,0 2.261,0.57349 1.002,0.56689 1.5623,1.6216 0.5603,1.0481 0.5603,2.3862 v 0.44165 q 0,1.3381 -0.55371,2.3796 -0.54712,1.0415 -1.5491,1.615 -1.002,0.57348 -2.261,0.58008 z m 1.9775,-7.9958 v 6.4072 h 0.95581 q 1.1602,0 1.7732,-0.75805 0.61304,-0.75806 0.62622,-2.1687 v -0.50757 q 0,-1.4634 -0.60644,-2.2148 -0.60645,-0.75805 -1.7732,-0.75805 z"
       style="stroke-width:0.83336" />
  </g>
  <g
     id="text2681"
     fill="#fff"
     aria-label="78.5%">
    <path
       id="path4089"
       d="m318.36 354.27-5.7414 12.873h-1.8472l5.7224-12.416h-7.5029v-1.4473h9.3691z" />
    <path
       id="path4091"
       d="m328.76 356.9q0 1.0378-0.55224 1.8472-0.54273 0.80933-1.4758 1.2664 1.0854 0.46655 1.7139 1.3616 0.63793 0.89502 0.63793 2.0281 0 1.7996-1.2188 2.866-1.2092 1.0664-3.1897 1.0664-1.9995 0-3.2087-1.0664-1.1997-1.0759-1.1997-2.866 0-1.1235 0.60938-2.0281 0.61889-0.90454 1.7043-1.3711-0.92358-0.45703-1.4568-1.2664-0.5332-0.80932-0.5332-1.8376 0-1.752 1.1235-2.7803 1.1235-1.0283 2.9612-1.0283 1.8281 0 2.9517 1.0283 1.133 1.0283 1.133 2.7803zm-1.4377 6.4651q0-1.1616-0.74268-1.8948-0.73315-0.73316-1.9233-0.73316-1.1902 0-1.9138 0.72364-0.71412 0.72363-0.71412 1.9043 0 1.1807 0.69507 1.8567 0.70459 0.67603 1.9519 0.67603 1.2378 0 1.9424-0.67603 0.70459-0.68554 0.70459-1.8567zm-2.647-8.8264q-1.0378 0-1.6853 0.64746-0.63793 0.63794-0.63793 1.7424 0 1.0569 0.62841 1.7139 0.63794 0.64746 1.6948 0.64746 1.0569 0 1.6853-0.64746 0.63794-0.65698 0.63794-1.7139 0-1.0569-0.65698-1.7234-0.65699-0.6665-1.6663-0.6665z" />
    <path
       id="path4093"
       d="m331.52 366.22q0-0.45703 0.26661-0.76172 0.27612-0.30469 0.81884-0.30469 0.54273 0 0.81885 0.30469 0.28565 0.30469 0.28565 0.76172 0 0.43799-0.28565 0.73315-0.27612 0.29517-0.81885 0.29517-0.54272 0-0.81884-0.29517-0.26661-0.29516-0.26661-0.73315z" />
    <path
       id="path4095"
       d="m337.25 360.19 0.70459-6.9126h7.103v1.6282h-5.6082l-0.41895 3.78q1.0188-0.59986 2.3137-0.59986 1.8948 0 3.0088 1.2568 1.114 1.2473 1.114 3.3801 0 2.1423-1.1616 3.3801-1.1521 1.2283-3.2278 1.2283-1.8376 0-2.9993-1.0188-1.1616-1.0188-1.3235-2.8184h1.6663q0.16186 1.1902 0.84741 1.7996 0.68555 0.59985 1.8091 0.59985 1.2283 0 1.9233-0.83789 0.70459-0.83789 0.70459-2.3137 0-1.3901-0.76172-2.228-0.75219-0.84741-2.009-0.84741-1.1521 0-1.8091 0.50464l-0.46655 0.38086z" />
    <path
       id="path4097"
       d="m347.23 355.94q0-1.2473 0.79029-2.0566 0.7998-0.80933 2.0471-0.80933 1.2664 0 2.0471 0.81885 0.79028 0.80933 0.79028 2.1042v0.67602q0 1.2568-0.79981 2.0566-0.79028 0.79029-2.0186 0.79029-1.2378 0-2.0471-0.79029-0.80933-0.7998-0.80933-2.1233zm1.314 0.73315q0 0.74268 0.41894 1.2283 0.41895 0.47608 1.1235 0.47608 0.67602 0 1.0854-0.46655 0.41894-0.46656 0.41894-1.2759v-0.69507q0-0.74268-0.40942-1.2283-0.40942-0.4856-1.114-0.4856t-1.114 0.4856q-0.40942 0.48559-0.40942 1.2664zm5.4368 7.0649q0-1.2473 0.79028-2.0471 0.7998-0.80932 2.0471-0.80932 1.2473 0 2.0471 0.7998 0.7998 0.79981 0.7998 2.1233v0.67603q0 1.2473-0.7998 2.0566-0.79029 0.7998-2.0281 0.7998t-2.0471-0.79028q-0.80932-0.7998-0.80932-2.1233zm1.314 0.74268q0 0.7522 0.41895 1.2378 0.41894 0.47608 1.1235 0.47608 0.68555 0 1.095-0.46656 0.40943-0.47607 0.40943-1.2854v-0.70459q0-0.75219-0.41895-1.2283-0.40942-0.47607-1.1045-0.47607-0.67603 0-1.1045 0.47607-0.41895 0.46656-0.41895 1.2664zm-4.8084 1.6091-0.99975-0.62842 6.7698-10.835 0.99976 0.62842z" />
  </g>
  <defs
     id="defs2689">
    <clipPath
       id="p052f73bc66">
      <rect
         id="rect2686"
         x="72"
         y="60.48"
         width="446.4"
         height="388.08" />
    </clipPath>
  </defs>
</svg>
