<?xml version="1.0" encoding="UTF-8" standalone="no"?>
<svg
   id="svg1173"
   width="494.7pt"
   height="433.54pt"
   version="1.1"
   viewBox="0 0 494.7 433.54"
   sodipodi:docname="Plane-APpool.svg"
   inkscape:version="1.2.2 (1:1.2.2+202305151914+b0a8486541)"
   xmlns:inkscape="http://www.inkscape.org/namespaces/inkscape"
   xmlns:sodipodi="http://sodipodi.sourceforge.net/DTD/sodipodi-0.dtd"
   xmlns:xlink="http://www.w3.org/1999/xlink"
   xmlns="http://www.w3.org/2000/svg"
   xmlns:svg="http://www.w3.org/2000/svg">
  <sodipodi:namedview
     id="namedview137"
     pagecolor="#ffffff"
     bordercolor="#999999"
     borderopacity="1"
     inkscape:showpageshadow="0"
     inkscape:pageopacity="0"
     inkscape:pagecheckerboard="0"
     inkscape:deskcolor="#d1d1d1"
     inkscape:document-units="pt"
     showgrid="false"
     inkscape:zoom="1"
     inkscape:cx="318.5"
     inkscape:cy="288"
     inkscape:window-width="1877"
     inkscape:window-height="1037"
     inkscape:window-x="43"
     inkscape:window-y="43"
     inkscape:window-maximized="1"
     inkscape:current-layer="svg1173" />
  <defs
     id="defs1051">
    <path
       id="m6fa5e78076"
       d="m4.5 0-9-4.5v9z"
       stroke="#262626" />
    <clipPath
       id="clip-m6fa5e78076">
      <rect
         x="32"
         y="18"
         width="400"
         height="400"
         id="rect3" />
    </clipPath>
  </defs>
  <g
     id="g1775"
     transform="translate(-39.318 -56.141)"
     fill="#262626">
    <g
       id="text1059"
       aria-label="0">
      <path
         id="path1956"
         d="m75.553 470.6q0 2.4814-0.9104 3.7705-0.9104 1.281-2.6829 1.281-1.7402 0-2.6667-1.2568-0.92651-1.2649-0.95068-3.6738v-2.1028q0-2.4734 0.91846-3.7463t2.6829-1.273q1.7402 0 2.6587 1.2327 0.91846 1.2246 0.95068 3.6174zm-0.9668-2.1028q0-2.0142-0.66064-3.0454-0.65259-1.0312-1.9819-1.0312-1.3052 0-1.9658 1.0071-0.66064 1.0071-0.67676 2.9729v2.3042q0 2.0061 0.67676 3.0696 0.68482 1.0635 1.9819 1.0635 1.2891 0 1.9497-1.0393 0.6687-1.0393 0.67676-3.0454z"
         fill="#262626" />
    </g>
    <g
       id="text1063"
       aria-label="10">
      <path
         id="path1959"
         d="m149.88 475.49h-0.96679v-10.57l-3.1904 1.1843v-0.90234l3.9961-1.4824h0.16113z" />
      <path
         id="path1961"
         d="m161.61 470.6q0 2.4814-0.9104 3.7705-0.9104 1.281-2.6829 1.281-1.7402 0-2.6668-1.2568-0.92651-1.2649-0.95068-3.6738v-2.1028q0-2.4734 0.91846-3.7463 0.91845-1.273 2.6829-1.273 1.7402 0 2.6587 1.2327 0.91846 1.2246 0.95068 3.6174zm-0.96679-2.1028q0-2.0142-0.66065-3.0454-0.65259-1.0312-1.9819-1.0312-1.3052 0-1.9658 1.0071-0.66065 1.0071-0.67676 2.9729v2.3042q0 2.0061 0.67676 3.0696 0.68481 1.0635 1.9819 1.0635 1.2891 0 1.9497-1.0393 0.6687-1.0393 0.67676-3.0454z" />
    </g>
    <g
       id="text1067"
       aria-label="20">
      <path
         id="path1964"
         d="m233.55 475.49h-7.3476v-0.74122l4.0203-4.56q0.99902-1.1521 1.3857-1.9014t0.38672-1.4582q0-1.1118-0.65259-1.7564-0.65258-0.65259-1.7966-0.65259-1.1843 0-1.9175 0.75733-0.72509 0.75732-0.72509 1.9658h-0.95874q0-0.99097 0.44311-1.8047 0.45117-0.81372 1.273-1.273 0.82983-0.46729 1.8852-0.46729 1.6113 0 2.5137 0.84595 0.9104 0.84595 0.9104 2.3042 0 0.82178-0.51563 1.7966-0.50757 0.97485-1.7966 2.4331l-3.271 3.698h6.1633z" />
      <path
         id="path1966"
         d="m242.42 470.6q0 2.4814-0.91041 3.7705-0.9104 1.281-2.6829 1.281-1.7402 0-2.6667-1.2568-0.92652-1.2649-0.95069-3.6738v-2.1028q0-2.4734 0.91846-3.7463t2.6829-1.273q1.7402 0 2.6587 1.2327 0.91846 1.2246 0.95069 3.6174zm-0.9668-2.1028q0-2.0142-0.66065-3.0454-0.65258-1.0312-1.9819-1.0312-1.3052 0-1.9658 1.0071t-0.67676 2.9729v2.3042q0 2.0061 0.67676 3.0696 0.68481 1.0635 1.9819 1.0635 1.2891 0 1.9497-1.0393 0.6687-1.0393 0.67676-3.0454z" />
    </g>
    <g
       id="text1071"
       aria-label="30">
      <path
         id="path1969"
         d="m309.63 469.1h0.99902q0.82984 0 1.4502-0.29004 0.62036-0.2981 0.94262-0.80566 0.33033-0.51563 0.33033-1.1843 0-1.1279-0.63648-1.7644-0.63647-0.63648-1.8289-0.63648-1.1279 0-1.853 0.6687-0.71704 0.66065-0.71704 1.7483h-0.9668q0-0.9104 0.45923-1.6597 0.45923-0.75733 1.273-1.1682t1.8047-0.41089q1.5952 0 2.5137 0.87012 0.91845 0.87012 0.91845 2.3848 0 0.84594-0.53979 1.563-0.53174 0.70899-1.4663 1.0635 1.0957 0.30615 1.6597 1.0554 0.56396 0.74121 0.56396 1.7725 0 1.5066-0.98291 2.425t-2.6265 0.91846q-1.0474 0-1.9255-0.41895-0.87012-0.41894-1.3535-1.1682-0.47534-0.75732-0.47534-1.7564h0.9668q0 1.1199 0.78149 1.8289 0.7815 0.70093 2.0061 0.70093 1.2488 0 1.9416-0.63648 0.70093-0.64453 0.70093-1.8611 0-1.1763-0.75733-1.7966-0.74927-0.62036-2.2156-0.62036h-0.96679z" />
      <path
         id="path1971"
         d="m323.71 470.6q0 2.4814-0.9104 3.7705-0.9104 1.281-2.6829 1.281-1.7402 0-2.6668-1.2568-0.92651-1.2649-0.95068-3.6738v-2.1028q0-2.4734 0.91845-3.7463 0.91846-1.273 2.6829-1.273 1.7402 0 2.6587 1.2327 0.91845 1.2246 0.95068 3.6174zm-0.9668-2.1028q0-2.0142-0.66064-3.0454-0.65259-1.0312-1.9819-1.0312-1.3052 0-1.9658 1.0071-0.66064 1.0071-0.67675 2.9729v2.3042q0 2.0061 0.67675 3.0696 0.68482 1.0635 1.9819 1.0635 1.2891 0 1.9497-1.0393 0.66871-1.0393 0.67676-3.0454z" />
    </g>
    <g
       id="text1075"
       aria-label="40">
      <path
         id="path1974"
         d="m394.46 471.71h1.8288v0.81372h-1.8288v2.9648h-0.9668v-2.9648h-5.5188v-0.54785l5.4302-8.2178h1.0554zm-5.3013 0h4.3345v-6.7031l-0.427 0.74121z" />
      <path
         id="path1976"
         d="m404.76 470.6q0 2.4814-0.9104 3.7705-0.9104 1.281-2.6829 1.281-1.7402 0-2.6668-1.2568-0.92651-1.2649-0.95068-3.6738v-2.1028q0-2.4734 0.91846-3.7463 0.91845-1.273 2.6829-1.273 1.7402 0 2.6587 1.2327 0.91846 1.2246 0.95068 3.6174zm-0.96679-2.1028q0-2.0142-0.66065-3.0454-0.65259-1.0312-1.9819-1.0312-1.3052 0-1.9658 1.0071-0.66065 1.0071-0.67676 2.9729v2.3042q0 2.0061 0.67676 3.0696 0.68481 1.0635 1.9819 1.0635 1.2891 0 1.9497-1.0393 0.6687-1.0393 0.67676-3.0454z" />
    </g>
  </g>
  <g
     id="text1079"
     fill="#262626"
     aria-label="AP (%)">
    <path
       id="path1979"
       d="m422.65 415.45h-5.8081l-1.3044 3.6182h-1.8852l5.2939-13.863h1.5996l5.3035 13.863h-1.8757zm-5.2559-1.5044h4.7131l-2.3613-6.4841z" />
    <path
       id="path1981"
       d="m429.54 413.64v5.4272h-1.8281v-13.863h5.113q2.2756 0 3.561 1.1616 1.2949 1.1616 1.2949 3.0754 0 2.0186-1.2664 3.1135-1.2568 1.0854-3.6086 1.0854zm0-1.4949h3.2849q1.4663 0 2.2471-0.68555 0.78076-0.69507 0.78076-1.9995 0-1.2378-0.78076-1.9805-0.78077-0.74268-2.1423-0.77124h-3.3896z" />
    <path
       id="path1983"
       d="m444.5 413.44q0-2.1519 0.57128-4.1323 0.58081-1.9805 1.7234-3.5991t2.3708-2.2852l0.36182 1.1616q-1.3901 1.0664-2.2852 3.2563-0.8855 2.19-0.97119 4.9036l-0.01 0.80932q0 3.6753 1.3425 6.3794 0.80933 1.6186 1.9233 2.5327l-0.36182 1.0759q-1.2664-0.70459-2.4184-2.3613-2.2471-3.2373-2.2471-7.741z" />
    <path
       id="path1985"
       d="m450.9 407.87q0-1.2473 0.79029-2.0566 0.7998-0.80933 2.0471-0.80933 1.2664 0 2.0471 0.81885 0.79029 0.80933 0.79029 2.1042v0.67602q0 1.2568-0.79981 2.0566-0.79028 0.79029-2.0186 0.79029-1.2378 0-2.0471-0.79029-0.80933-0.7998-0.80933-2.1233zm1.314 0.73315q0 0.74268 0.41894 1.2283 0.41895 0.47608 1.1235 0.47608 0.67602 0 1.0854-0.46655 0.41894-0.46656 0.41894-1.2759v-0.69507q0-0.74268-0.40942-1.2283-0.40943-0.4856-1.114-0.4856-0.70459 0-1.114 0.4856-0.40942 0.48559-0.40942 1.2664zm5.4368 7.0649q0-1.2473 0.79028-2.0471 0.7998-0.80933 2.0471-0.80933 1.2473 0 2.0471 0.7998 0.7998 0.79981 0.7998 2.1233v0.67603q0 1.2473-0.7998 2.0566-0.79029 0.79981-2.0281 0.79981t-2.0471-0.79029q-0.80932-0.7998-0.80932-2.1233zm1.314 0.74268q0 0.7522 0.41895 1.2378 0.41894 0.47608 1.1235 0.47608 0.68555 0 1.095-0.46656 0.40942-0.47607 0.40942-1.2854v-0.70459q0-0.75219-0.41894-1.2283-0.40942-0.47607-1.1045-0.47607-0.67603 0-1.1045 0.47607-0.41895 0.46656-0.41895 1.2664zm-4.8084 1.6091-0.99976-0.62842 6.7698-10.835 0.99976 0.62842z" />
    <path
       id="path1987"
       d="m469.58 413.53q0 2.1233-0.56177 4.0752-0.55225 1.9424-1.7044 3.5896-1.1426 1.6472-2.3994 2.3423l-0.37134-1.0759q1.4663-1.1235 2.3518-3.4849 0.89502-2.3708 0.91406-5.2559v-0.30469q0-1.9995-0.41895-3.7134-0.41894-1.7234-1.1711-3.085-0.74267-1.3616-1.6758-2.1233l0.37134-1.0759q1.2568 0.69506 2.3899 2.3232 1.1426 1.6282 1.7044 3.5896 0.57129 1.9614 0.57129 4.199z" />
  </g>
  <g
     id="text1088"
     transform="rotate(-90)"
     fill="#262626"
     aria-label="SWIMMING POOLS">
    <path
       id="path1990"
       d="m-171.78 17.874q-2.3518-0.67603-3.4277-1.6567-1.0664-0.99023-1.0664-2.4375 0-1.6377 1.3044-2.7041 1.314-1.0759 3.4087-1.0759 1.4282 0 2.5422 0.55225 1.1235 0.55225 1.7329 1.5234 0.6189 0.97119 0.6189 2.1233h-1.8376q0-1.2568-0.7998-1.9709-0.79981-0.72363-2.2566-0.72363-1.352 0-2.1138 0.59985-0.7522 0.59033-0.7522 1.6472 0 0.84741 0.71411 1.4377 0.72363 0.58081 2.447 1.0664 1.7329 0.4856 2.7041 1.0759 0.98072 0.58081 1.4473 1.3616 0.47607 0.78076 0.47607 1.8376 0 1.6853-1.314 2.7041-1.314 1.0093-3.5134 1.0093-1.4282 0-2.666-0.54272-1.2378-0.55225-1.9138-1.5044-0.66651-0.95215-0.66651-2.1614h1.8376q0 1.2568 0.92358 1.99 0.93311 0.72363 2.4851 0.72363 1.4473 0 2.2185-0.59033t0.77124-1.6091-0.71411-1.571q-0.71412-0.56177-2.5898-1.1045z" />
    <path
       id="path1992"
       d="m-161.31 19.683 0.26661 1.8281 0.39038-1.6472 2.7422-9.6738h1.5425l2.6755 9.6738 0.38086 1.6758 0.29517-1.8662 2.1518-9.4834h1.8376l-3.3611 13.863h-1.6663l-2.8564-10.102-0.21899-1.0569-0.219 1.0569-2.9612 10.102h-1.6663l-3.3516-13.863h1.8281z" />
    <path
       id="path1994"
       d="m-145.04 24.054h-1.8281v-13.863h1.8281z" />
    <path
       id="path1996"
       d="m-139.34 10.19 4.5322 11.312 4.5322-11.312h2.3708v13.863h-1.8281v-5.3987l0.17139-5.8271-4.5513 11.226h-1.3997l-4.5418-11.197 0.18091 5.7986v5.3987h-1.8281v-13.863z" />
    <path
       id="path1998"
       d="m-122.31 10.19 4.5322 11.312 4.5322-11.312h2.3708v13.863h-1.8281v-5.3987l0.17139-5.8271-4.5513 11.226h-1.3997l-4.5418-11.197 0.18091 5.7986v5.3987h-1.8281v-13.863z" />
    <path
       id="path2000"
       d="m-105.69 24.054h-1.8281v-13.863h1.8281z" />
    <path
       id="path2002"
       d="m-91.69 24.054h-1.8376l-6.9793-10.683v10.683h-1.8376v-13.863h1.8376l6.9983 10.731v-10.731h1.8186z" />
    <path
       id="path2004"
       d="m-78.208 22.235q-0.70459 1.0093-1.9709 1.5139-1.2568 0.49512-2.9326 0.49512-1.6948 0-3.0088-0.79028-1.314-0.7998-2.0376-2.2661-0.71411-1.4663-0.73315-3.3992v-1.2092q0-3.1326 1.4568-4.856 1.4663-1.7234 4.1133-1.7234 2.1709 0 3.4944 1.114 1.3235 1.1045 1.6187 3.1421h-1.8281q-0.51416-2.7517-3.2754-2.7517-1.8376 0-2.7898 1.2949-0.94263 1.2854-0.95215 3.7324v1.1331q0 2.3328 1.0664 3.7134 1.0664 1.3711 2.885 1.3711 1.0283 0 1.7996-0.22852t1.2759-0.77124v-3.1135h-3.2087v-1.4854h5.0273z" />
    <path
       id="path2006"
       d="m-68.505 18.626v5.4272h-1.8281v-13.863h5.113q2.2756 0 3.561 1.1616 1.2949 1.1616 1.2949 3.0754 0 2.0186-1.2664 3.1135-1.2568 1.0854-3.6086 1.0854zm0-1.4949h3.2849q1.4663 0 2.2471-0.68555 0.78076-0.69507 0.78076-1.9995 0-1.2378-0.78076-1.9805-0.78076-0.74268-2.1423-0.77124h-3.3896z" />
    <path
       id="path2008"
       d="m-47.367 17.57q0 2.0376-0.68555 3.561-0.68555 1.5139-1.9424 2.3137t-2.9326 0.7998q-1.6377 0-2.9041-0.7998-1.2664-0.80933-1.9709-2.2947-0.69507-1.4949-0.71411-3.4563v-0.99976q0-1.9995 0.69507-3.5325 0.69507-1.533 1.9614-2.3423 1.2759-0.81885 2.9136-0.81885 1.6663 0 2.9326 0.80933 1.2759 0.7998 1.9614 2.3328 0.68555 1.5234 0.68555 3.5515zm-1.8186-0.89502q0-2.4661-0.99024-3.78-0.99023-1.3235-2.7708-1.3235-1.7329 0-2.7327 1.3235-0.99024 1.314-1.0188 3.6562v1.0188q0 2.3899 0.99976 3.761 1.0093 1.3616 2.7708 1.3616 1.771 0 2.7422-1.2854 0.97119-1.2949 0.99976-3.7039z" />
    <path
       id="path2010"
       d="m-33.961 17.57q0 2.0376-0.68555 3.561-0.68555 1.5139-1.9424 2.3137t-2.9326 0.7998q-1.6377 0-2.9041-0.7998-1.2664-0.80933-1.9709-2.2947-0.69507-1.4949-0.71411-3.4563v-0.99976q0-1.9995 0.69507-3.5325 0.69507-1.533 1.9614-2.3423 1.2759-0.81885 2.9136-0.81885 1.6663 0 2.9326 0.80933 1.2759 0.7998 1.9614 2.3328 0.68555 1.5234 0.68555 3.5515zm-1.8186-0.89502q0-2.4661-0.99024-3.78-0.99023-1.3235-2.7708-1.3235-1.7329 0-2.7327 1.3235-0.99024 1.314-1.0188 3.6562v1.0188q0 2.3899 0.99976 3.761 1.0093 1.3616 2.7708 1.3616 1.771 0 2.7422-1.2854 0.97119-1.2949 0.99976-3.7039z" />
    <path
       id="path2012"
       d="m-29.381 22.559h6.5698v1.4949h-8.4075v-13.863h1.8376z" />
    <path
       id="path2014"
       d="m-16.642 17.874q-2.3518-0.67603-3.4277-1.6567-1.0664-0.99023-1.0664-2.4375 0-1.6377 1.3044-2.7041 1.314-1.0759 3.4087-1.0759 1.4282 0 2.5422 0.55225 1.1235 0.55225 1.7329 1.5234 0.6189 0.97119 0.6189 2.1233h-1.8376q0-1.2568-0.7998-1.9709-0.7998-0.72363-2.2566-0.72363-1.3521 0-2.1138 0.59985-0.7522 0.59033-0.7522 1.6472 0 0.84741 0.71411 1.4377 0.72363 0.58081 2.447 1.0664 1.7329 0.4856 2.7041 1.0759 0.98071 0.58081 1.4473 1.3616 0.47607 0.78076 0.47607 1.8376 0 1.6853-1.314 2.7041-1.314 1.0093-3.5134 1.0093-1.4282 0-2.666-0.54272-1.2378-0.55225-1.9138-1.5044-0.6665-0.95215-0.6665-2.1614h1.8376q0 1.2568 0.92358 1.99 0.9331 0.72363 2.4851 0.72363 1.4473 0 2.2185-0.59033 0.77124-0.59033 0.77124-1.6091t-0.71411-1.571q-0.71411-0.56177-2.5898-1.1045z" />
  </g>
  <g
     clip-path="url(#clip-m6fa5e78076)"
     id="g47">
    <path
       id="path1092"
       d="m32.682 18.699v62.093h203.72v-62.093z"
       fill="#5875a4"
       stroke="#fff"
       stroke-width="1.5" />
    <path
       id="path1095"
       d="m32.682 96.315v62.093h218.33v-62.093z"
       fill="#cc8963"
       stroke="#fff"
       stroke-width="1.5" />
    <path
       id="path1098"
       d="m32.682 173.93v62.093h243.49v-62.093z"
       fill="#5f9e6e"
       stroke="#fff"
       stroke-width="1.5" />
    <path
       id="path1101"
       d="m32.682 251.55v62.093h305.99v-62.093z"
       fill="#b55d60"
       stroke="#fff"
       stroke-width="1.5" />
    <path
       id="path1104"
       d="m32.682 329.16v62.092h360.37v-62.092z"
       fill="#857aab"
       stroke="#fff"
       stroke-width="1.5" />
  </g>
  <use
     id="use1125"
     transform="translate(-39.318 -49.542)"
     x="518.40002"
     y="448.56"
     width="100%"
     height="100%"
     fill="#262626"
     stroke="#262626"
     xlink:href="#m6fa5e78076" />
  <path
     id="path1130"
     d="m32.682 399.02v-388.08"
     fill="none"
     stroke="#262626"
     stroke-linecap="square"
     stroke-width="1.875" />
  <path
     id="path1133"
     d="m32.682 399.02h446.4"
     fill="none"
     stroke="#262626"
     stroke-linecap="square"
     stroke-width="1.875" />
  <g
     id="text1136"
     fill="#ffffff"
     aria-label="BASELINE"
     transform="matrix(1.1999513,0,0,1.1999513,-9.828972,-9.9464374)"
     style="stroke-width:0.833367">
    <path
       id="path2017"
       d="m 41.655,54.544 v -9.5977 h 3.3618 q 1.7468,0 2.6499,0.67236 0.90308,0.66577 0.90308,1.9578 0,0.70532 -0.36255,1.2458 -0.36255,0.53394 -1.0085,0.78442 0.73828,0.18457 1.1602,0.74487 0.42847,0.5603 0.42847,1.3711 0,1.3843 -0.8833,2.0962 -0.8833,0.7119 -2.5181,0.7251 z m 1.9775,-4.1792 v 2.5906 h 1.6941 q 0.69873,0 1.0876,-0.32959 0.39551,-0.33618 0.39551,-0.92285 0,-1.3184 -1.3645,-1.3381 z m 0,-1.3975 h 1.4634 q 1.4963,-0.02637 1.4963,-1.1931 0,-0.65259 -0.38232,-0.93604 -0.37573,-0.29004 -1.1931,-0.29004 h -1.3843 z"
       style="stroke-width:0.833367" />
    <path
       id="path2019"
       d="m 55.689,52.567 h -3.4673 l -0.65918,1.9775 h -2.1028 l 3.5728,-9.5977 h 1.8325 l 3.5925,9.5977 h -2.1028 z m -2.9333,-1.6018 h 2.3994 l -1.2063,-3.5925 z"
       style="stroke-width:0.833367" />
    <path
       id="path2021"
       d="m 64.331,52.026 q 0,-0.5603 -0.39551,-0.85693 -0.39551,-0.30322 -1.4238,-0.63281 -1.0283,-0.33618 -1.6282,-0.65918 -1.6348,-0.8833 -1.6348,-2.3796 0,-0.77783 0.43506,-1.3843 0.44165,-0.61304 1.259,-0.95581 0.82398,-0.34277 1.8457,-0.34277 1.0283,0 1.8325,0.37573 0.8042,0.36914 1.2458,1.0481 0.44824,0.67896 0.44824,1.5425 h -1.9775 q 0,-0.65918 -0.41528,-1.0217 -0.41528,-0.36914 -1.1667,-0.36914 -0.7251,0 -1.1272,0.30981 -0.4021,0.30322 -0.4021,0.8042 0,0.46802 0.46802,0.78442 0.47461,0.31641 1.3909,0.59326 1.6875,0.50757 2.4587,1.259 0.77124,0.75146 0.77124,1.8721 0,1.2458 -0.94263,1.9578 -0.94263,0.70532 -2.5378,0.70532 -1.1074,0 -2.0171,-0.4021 -0.90967,-0.40869 -1.3909,-1.114 -0.47461,-0.70532 -0.47461,-1.6348 h 1.9841 q 0,1.5886 1.8984,1.5886 0.70532,0 1.1008,-0.28345 0.39551,-0.29004 0.39551,-0.8042 z"
       style="stroke-width:0.833367" />
    <path
       id="path2023"
       d="m 73.427,50.385 h -3.7969 v 2.5708 h 4.4561 v 1.5886 h -6.4336 v -9.5977 h 6.4204 v 1.6018 h -4.4429 v 2.2874 h 3.7969 z"
       style="stroke-width:0.833367" />
    <path
       id="path2025"
       d="m 77.224,52.956 h 4.199 v 1.5886 h -6.1765 v -9.5977 h 1.9775 z"
       style="stroke-width:0.833367" />
    <path
       id="path2027"
       d="M 84.66,54.544 H 82.6825 V 44.9463 H 84.66 Z"
       style="stroke-width:0.833367" />
    <path
       id="path2029"
       d="m 94.297,54.544 h -1.9775 l -3.8496,-6.3149 v 6.3149 h -1.9775 v -9.5977 h 1.9775 l 3.8562,6.3281 v -6.3281 h 1.9709 z"
       style="stroke-width:0.833367" />
    <path
       id="path2031"
       d="m 101.8,50.385 h -3.7969 v 2.5708 h 4.4561 v 1.5886 h -6.4336 v -9.5977 h 6.4204 v 1.6018 h -4.4429 v 2.2874 H 101.8 Z"
       style="stroke-width:0.833367" />
  </g>
  <g
     id="text1139"
     fill="#fff"
     aria-label="25.1%">
    <path
       id="path2034"
       d="m188.47 56.677h-9.0835v-1.2664l4.7988-5.332q1.0664-1.2092 1.4663-1.9614 0.40943-0.76172 0.40943-1.571 0-1.0854-0.65698-1.7805-0.65699-0.69507-1.752-0.69507-1.314 0-2.0471 0.7522-0.72363 0.74268-0.72363 2.0757h-1.7615q0-1.9138 1.2283-3.0945 1.2378-1.1807 3.304-1.1807 1.9329 0 3.0564 1.0188 1.1235 1.0093 1.1235 2.6946 0 2.0471-2.6089 4.875l-3.7134 4.0276h6.9602z" />
    <path
       id="path2036"
       d="m191.15 49.726 0.70459-6.9126h7.103v1.6282h-5.6082l-0.41894 3.78q1.0188-0.59985 2.3137-0.59985 1.8948 0 3.0088 1.2568 1.114 1.2473 1.114 3.3801 0 2.1423-1.1616 3.3801-1.1521 1.2283-3.2278 1.2283-1.8376 0-2.9993-1.0188t-1.3235-2.8184h1.6663q0.16187 1.1902 0.84742 1.7996 0.68554 0.59985 1.8091 0.59985 1.2283 0 1.9233-0.83789 0.70459-0.83789 0.70459-2.3137 0-1.3901-0.76172-2.228-0.7522-0.84741-2.009-0.84741-1.1521 0-1.8091 0.50464l-0.46655 0.38086z" />
    <path
       id="path2038"
       d="m201.51 55.754q0-0.45703 0.2666-0.76172 0.27612-0.30469 0.81885-0.30469 0.54272 0 0.81884 0.30469 0.28565 0.30469 0.28565 0.76172 0 0.43799-0.28565 0.73315-0.27612 0.29517-0.81884 0.29517-0.54273 0-0.81885-0.29517-0.2666-0.29517-0.2666-0.73315z" />
    <path
       id="path2040"
       d="m212.21 56.677h-1.771v-11.74l-3.5515 1.3044v-1.5996l5.0464-1.8948h0.27612z" />
    <path
       id="path2042"
       d="m217.22 45.48q0-1.2473 0.79028-2.0566 0.7998-0.80933 2.0471-0.80933 1.2664 0 2.0471 0.81885 0.79028 0.80933 0.79028 2.1042v0.67603q0 1.2568-0.7998 2.0566-0.79029 0.79028-2.0186 0.79028-1.2378 0-2.0471-0.79028-0.80932-0.7998-0.80932-2.1233zm1.314 0.73316q0 0.74268 0.41895 1.2283 0.41894 0.47607 1.1235 0.47607 0.67603 0 1.0854-0.46655 0.41895-0.46655 0.41895-1.2759v-0.69507q0-0.74268-0.40943-1.2283-0.40942-0.4856-1.114-0.4856t-1.114 0.4856q-0.40942 0.4856-0.40942 1.2664zm5.4368 7.0649q0-1.2473 0.79028-2.0471 0.79981-0.80933 2.0471-0.80933t2.0471 0.7998q0.7998 0.7998 0.7998 2.1233v0.67602q0 1.2473-0.7998 2.0566-0.79028 0.7998-2.0281 0.7998-1.2378 0-2.0471-0.79028-0.80932-0.7998-0.80932-2.1233zm1.314 0.74268q0 0.7522 0.41895 1.2378 0.41894 0.47607 1.1235 0.47607 0.68555 0 1.095-0.46655 0.40943-0.47607 0.40943-1.2854v-0.70459q0-0.7522-0.41895-1.2283-0.40942-0.47608-1.1045-0.47608-0.67602 0-1.1045 0.47608-0.41895 0.46655-0.41895 1.2664zm-4.8084 1.6091-0.99975-0.62842 6.7698-10.835 0.99976 0.62842z" />
  </g>
  <g
     id="text1142"
     fill="#ffffff"
     aria-label="NEIGHBOUR NMS"
     transform="matrix(1.1999842,0,0,1.1999842,-9.830524,-25.470486)"
     style="stroke-width:0.833344">
    <path
       id="path2045"
       d="m 49.46,132.16 h -1.9775 l -3.8496,-6.3149 v 6.3149 h -1.9775 v -9.5977 h 1.9775 l 3.8562,6.3281 v -6.3281 H 49.46 Z"
       style="stroke-width:0.833344" />
    <path
       id="path2047"
       d="m 56.961,128 h -3.7969 v 2.5708 h 4.4561 v 1.5886 h -6.4336 v -9.5977 h 6.4204 v 1.6018 h -4.4429 v 2.2874 h 3.7969 z"
       style="stroke-width:0.833344" />
    <path
       id="path2049"
       d="m 60.883,132.16 h -1.9775 v -9.5977 h 1.9775 z"
       style="stroke-width:0.833344" />
    <path
       id="path2051"
       d="m 70.309,130.95 q -0.53394,0.6394 -1.5095,0.99536 -0.97559,0.34937 -2.1621,0.34937 -1.2458,0 -2.1885,-0.54053 -0.93604,-0.54712 -1.4502,-1.582 -0.50757,-1.0349 -0.52075,-2.4324 v -0.65258 q 0,-1.437 0.4812,-2.4851 0.48779,-1.0547 1.3975,-1.6084 0.91626,-0.5603 2.1423,-0.5603 1.7073,0 2.6697,0.81738 0.9624,0.81079 1.1404,2.3665 h -1.9248 q -0.13184,-0.82398 -0.58667,-1.2063 -0.44824,-0.38233 -1.2393,-0.38233 -1.0085,0 -1.5359,0.75806 -0.52734,0.75806 -0.53394,2.2544 v 0.61304 q 0,1.5095 0.57349,2.2808 0.57349,0.77124 1.6809,0.77124 1.114,0 1.5886,-0.47461 v -1.6545 h -1.7996 v -1.4568 h 3.7771 z"
       style="stroke-width:0.833344" />
    <path
       id="path2053"
       d="m 79.723,132.16 h -1.9775 v -4.1133 h -3.8562 v 4.1133 h -1.9775 v -9.5977 h 1.9775 v 3.8892 h 3.8562 v -3.8892 h 1.9775 z"
       style="stroke-width:0.833344" />
    <path
       id="path2055"
       d="m 81.45,132.16 v -9.5977 h 3.3618 q 1.7468,0 2.6499,0.67237 0.90308,0.66577 0.90308,1.9578 0,0.70532 -0.36255,1.2458 -0.36255,0.53394 -1.0085,0.78442 0.73828,0.18457 1.1602,0.74488 0.42847,0.5603 0.42847,1.3711 0,1.3843 -0.8833,2.0962 -0.8833,0.71192 -2.5181,0.7251 z m 1.9775,-4.1792 v 2.5906 h 1.6941 q 0.69873,0 1.0876,-0.32959 0.39551,-0.33619 0.39551,-0.92286 0,-1.3184 -1.3645,-1.3381 z m 0,-1.3975 h 1.4634 q 1.4963,-0.0264 1.4963,-1.1931 0,-0.65258 -0.38232,-0.93603 -0.37573,-0.29004 -1.1931,-0.29004 h -1.3843 z"
       style="stroke-width:0.833344" />
    <path
       id="path2057"
       d="m 97.949,127.58 q 0,1.4172 -0.50098,2.4851 -0.50098,1.0679 -1.437,1.648 -0.92944,0.58008 -2.1357,0.58008 -1.1931,0 -2.1292,-0.57349 -0.9361,-0.57349 -1.4502,-1.6348 -0.51416,-1.0679 -0.52075,-2.4522 v -0.4746 q 0,-1.4172 0.50757,-2.4917 0.51416,-1.0811 1.4436,-1.6545 0.93604,-0.58008 2.1357,-0.58008 1.19966,0 2.1292,0.58008 0.93604,0.57348 1.4436,1.6545 0.51416,1.0745 0.51416,2.4851 z m -2.0039,-0.43506 q 0,-1.5095 -0.54053,-2.2939 -0.54053,-0.78443 -1.5425,-0.78443 -0.99536,0 -1.5359,0.77783 -0.54053,0.77125 -0.54712,2.2676 v 0.46802 q 0,1.47 0.54053,2.2808 0.54053,0.81079 1.5557,0.81079 0.99536,0 1.5293,-0.77783 0.53394,-0.78442 0.54053,-2.2808 z"
       style="stroke-width:0.833344" />
    <path
       id="path2059"
       d="m 106.65,122.56 v 6.3215 q 0,1.5754 -0.98876,2.4917 -0.98218,0.91626 -2.6895,0.91626 -1.6809,0 -2.6697,-0.8899 -0.98876,-0.88989 -1.0085,-2.4456 v -6.394 h 1.9775 v 6.3347 q 0,0.94263 0.44824,1.3777 0.45483,0.42846 1.2524,0.42846 1.6677,0 1.6941,-1.7534 v -6.3874 z"
       style="stroke-width:0.833344" />
    <path
       id="path2061"
       d="m 111.82,128.65 h -1.5754 v 3.5134 h -1.9775 v -9.5977 h 3.5662 q 1.7007,0 2.6235,0.75806 0.92286,0.75806 0.92286,2.1423 0,0.98218 -0.42847,1.6414 -0.42188,0.65259 -1.2854,1.0415 l 2.0764,3.9221 v 0.0923 h -2.1226 z m -1.5754,-1.6018 h 1.5952 q 0.74487,0 1.1536,-0.37573 0.40869,-0.38232 0.40869,-1.0481 0,-0.67896 -0.38892,-1.0679 -0.38232,-0.38892 -1.1799,-0.38892 h -1.5886 z"
       style="stroke-width:0.833344" />
    <path
       id="path2063"
       d="m 128.05,132.16 h -1.9775 l -3.8496,-6.3149 v 6.3149 h -1.9775 v -9.5977 h 1.9775 l 3.8562,6.3281 v -6.3281 h 1.971 z"
       style="stroke-width:0.833344" />
    <path
       id="path2065"
       d="m 132.36,122.56 2.4653,6.9609 2.4522,-6.9609 h 2.5972 v 9.5977 h -1.9841 v -2.6235 l 0.19776,-4.5286 -2.5906,7.1521 h -1.3579 l -2.584,-7.1455 0.19775,4.522 v 2.6235 h -1.9775 V 122.56 Z"
       style="stroke-width:0.833344" />
    <path
       id="path2067"
       d="m 146.58,129.64 q 0,-0.5603 -0.39551,-0.85693 -0.39551,-0.30322 -1.4238,-0.63281 -1.0283,-0.33618 -1.6282,-0.65918 -1.6348,-0.8833 -1.6348,-2.3796 0,-0.77783 0.43505,-1.3843 0.44165,-0.61304 1.259,-0.95581 0.82397,-0.34277 1.8457,-0.34277 1.0283,0 1.8325,0.37573 0.8042,0.36914 1.2458,1.0481 0.44824,0.67895 0.44824,1.5425 h -1.9775 q 0,-0.65918 -0.41528,-1.0217 -0.41528,-0.36914 -1.1668,-0.36914 -0.7251,0 -1.1272,0.30981 -0.4021,0.30322 -0.4021,0.8042 0,0.46802 0.46802,0.78442 0.47461,0.31641 1.3909,0.59327 1.6875,0.50756 2.4587,1.259 0.77124,0.75146 0.77124,1.8721 0,1.2458 -0.94263,1.9578 -0.94262,0.70533 -2.5378,0.70533 -1.1074,0 -2.0171,-0.4021 -0.90967,-0.4087 -1.3909,-1.114 -0.47461,-0.70532 -0.47461,-1.6348 h 1.9841 q 0,1.5886 1.8984,1.5886 0.70532,0 1.1008,-0.28345 0.39551,-0.29004 0.39551,-0.8042 z"
       style="stroke-width:0.833344" />
  </g>
  <g
     id="text1145"
     fill="#fff"
     aria-label="26.9%">
    <path
       id="path2070"
       d="m203.08 134.29h-9.0835v-1.2664l4.7988-5.332q1.0664-1.2092 1.4663-1.9614 0.40942-0.76172 0.40942-1.571 0-1.0854-0.65698-1.7805-0.65698-0.69506-1.752-0.69506-1.314 0-2.0471 0.75219-0.72363 0.74268-0.72363 2.0757h-1.7615q0-1.9138 1.2283-3.0945 1.2378-1.1807 3.304-1.1807 1.9329 0 3.0564 1.0188 1.1235 1.0093 1.1235 2.6946 0 2.0471-2.6089 4.875l-3.7134 4.0276h6.9602z" />
    <path
       id="path2072"
       d="m211.86 120.42v1.4949h-0.32373q-2.0566 0.0381-3.2754 1.2188-1.2188 1.1807-1.4092 3.323 1.095-1.2568 2.9897-1.2568 1.8091 0 2.885 1.2759 1.0854 1.2759 1.0854 3.2944 0 2.1423-1.1711 3.4277-1.1616 1.2854-3.123 1.2854-1.99 0-3.2278-1.5234-1.2378-1.533-1.2378-3.9419v-0.67603q0-3.8276 1.6282-5.8462 1.6377-2.0281 4.8655-2.0757zm-2.3137 6.2461q-0.90454 0-1.6663 0.54273-0.76172 0.54272-1.0569 1.3616v0.64746q0 1.7139 0.77124 2.7612t1.9233 1.0474q1.1902 0 1.8662-0.87597 0.68555-0.87598 0.68555-2.2947 0-1.4282-0.69507-2.3042-0.68554-0.8855-1.8281-0.8855z" />
    <path
       id="path2074"
       d="m216.12 133.37q0-0.45703 0.2666-0.76172 0.27613-0.30469 0.81885-0.30469 0.54273 0 0.81885 0.30469 0.28564 0.30469 0.28564 0.76172 0 0.43799-0.28564 0.73315-0.27612 0.29517-0.81885 0.29517-0.54272 0-0.81885-0.29517-0.2666-0.29516-0.2666-0.73315z" />
    <path
       id="path2076"
       d="m227.78 128.2q-0.55225 0.65698-1.3235 1.0569-0.76171 0.3999-1.6758 0.3999-1.1997 0-2.0947-0.59033-0.8855-0.59034-1.3711-1.6567-0.48559-1.0759-0.48559-2.3708 0-1.3901 0.52368-2.5042 0.5332-1.114 1.5044-1.7044t2.2661-0.59033q2.0566 0 3.2373 1.5425 1.1902 1.533 1.1902 4.1894v0.51416q0 4.0466-1.5996 5.9128-1.5996 1.8567-4.8274 1.9043h-0.34277v-1.4854h0.37134q2.1804-0.0381 3.3516-1.133 1.1711-1.1045 1.2759-3.4849zm-2.7136 0q0.8855 0 1.6282-0.54272 0.7522-0.54273 1.095-1.3425v-0.70459q0-1.7329-0.75219-2.8184-0.7522-1.0854-1.9043-1.0854-1.1616 0-1.8662 0.89502-0.70459 0.8855-0.70459 2.3423 0 1.4187 0.67602 2.3423 0.68555 0.91406 1.8281 0.91406z" />
    <path
       id="path2078"
       d="m231.83 123.1q0-1.2473 0.79028-2.0566 0.79981-0.80933 2.0471-0.80933 1.2664 0 2.0471 0.81885 0.79029 0.80932 0.79029 2.1042v0.67602q0 1.2568-0.79981 2.0566-0.79028 0.79028-2.0186 0.79028-1.2378 0-2.0471-0.79028-0.80933-0.7998-0.80933-2.1233zm1.314 0.73315q0 0.74268 0.41894 1.2283 0.41895 0.47608 1.1235 0.47608 0.67602 0 1.0854-0.46656 0.41894-0.46655 0.41894-1.2759v-0.69506q0-0.74268-0.40942-1.2283-0.40943-0.48559-1.114-0.48559t-1.114 0.48559q-0.40942 0.4856-0.40942 1.2664zm5.4368 7.0649q0-1.2473 0.79029-2.0471 0.7998-0.80932 2.0471-0.80932 1.2473 0 2.0471 0.7998 0.7998 0.79981 0.7998 2.1233v0.67603q0 1.2473-0.7998 2.0566-0.79029 0.7998-2.0281 0.7998t-2.0471-0.79028q-0.80933-0.7998-0.80933-2.1233zm1.314 0.74268q0 0.75219 0.41894 1.2378 0.41895 0.47607 1.1235 0.47607 0.68555 0 1.095-0.46655 0.40942-0.47607 0.40942-1.2854v-0.70459q0-0.7522-0.41894-1.2283-0.40943-0.47607-1.1045-0.47607-0.67603 0-1.1045 0.47607-0.41894 0.46655-0.41894 1.2664zm-4.8084 1.6091-0.99976-0.62842 6.7698-10.835 0.99975 0.62842z" />
  </g>
  <g
     id="text1148"
     fill="#ffffff"
     aria-label="IOA FILTERING"
     transform="matrix(1.200028,0,0,1.200028,-9.857371,-41.003193)"
     style="stroke-width:0.833314">
    <path
       id="path2081"
       d="m 43.758,209.78 h -1.9775 v -9.5976 h 1.9775 z"
       style="stroke-width:0.833314" />
    <path
       id="path2083"
       d="m 53.474,205.2 q 0,1.4172 -0.50098,2.4851 -0.50098,1.0679 -1.437,1.648 -0.92944,0.58008 -2.1357,0.58008 -1.1931,0 -2.1292,-0.57349 -0.9361,-0.57349 -1.4502,-1.6348 -0.51416,-1.0679 -0.52075,-2.4522 v -0.47461 q 0,-1.4172 0.50757,-2.4917 0.51416,-1.0811 1.4436,-1.6545 0.93604,-0.58008 2.1357,-0.58008 1.1997,0 2.1292,0.58008 0.93604,0.57348 1.4436,1.6545 0.51416,1.0745 0.51416,2.4851 z m -2.0039,-0.43506 q 0,-1.5095 -0.54053,-2.2939 -0.54053,-0.78443 -1.5425,-0.78443 -0.99536,0 -1.5359,0.77784 -0.54053,0.77124 -0.54712,2.2676 v 0.46801 q 0,1.47 0.54053,2.2808 0.54053,0.8108 1.5557,0.8108 0.99536,0 1.5293,-0.77784 0.53394,-0.78442 0.54053,-2.2808 z"
       style="stroke-width:0.833314" />
    <path
       id="path2085"
       d="m 60.191,207.8 h -3.4673 l -0.65918,1.9775 h -2.1028 l 3.5728,-9.5976 h 1.8325 l 3.5925,9.5976 h -2.1028 z m -2.9334,-1.6018 h 2.3994 l -1.2063,-3.5925 z"
       style="stroke-width:0.833314" />
    <path
       id="path2087"
       d="m 72.992,205.85 h -3.7969 v 3.9221 h -1.9775 v -9.5976 h 6.249 v 1.6018 h -4.2715 v 2.4785 h 3.7969 z"
       style="stroke-width:0.833314" />
    <path
       id="path2089"
       d="m 76.717,209.78 h -1.9775 v -9.5976 h 1.9775 z"
       style="stroke-width:0.833314" />
    <path
       id="path2091"
       d="m 80.527,208.19 h 4.199 v 1.5886 h -6.1765 v -9.5976 h 1.9775 z"
       style="stroke-width:0.833314" />
    <path
       id="path2093"
       d="m 91.733,201.78 h -2.9399 v 7.9958 H 86.8156 V 201.78 h -2.9004 v -1.6018 h 7.8179 z"
       style="stroke-width:0.833314" />
    <path
       id="path2095"
       d="m 98.634,205.62 h -3.7969 v 2.5708 h 4.4561 v 1.5886 h -6.4336 v -9.5976 H 99.28 v 1.6018 h -4.4429 v 2.2874 h 3.7969 z"
       style="stroke-width:0.833314" />
    <path
       id="path2097"
       d="m 104.01,206.26 h -1.5754 v 3.5134 h -1.9775 v -9.5976 h 3.5662 q 1.7007,0 2.6235,0.75805 0.92285,0.75806 0.92285,2.1423 0,0.98217 -0.42846,1.6414 -0.42188,0.65259 -1.2854,1.0415 l 2.0764,3.9221 v 0.0923 h -2.1226 z m -1.5754,-1.6018 h 1.5952 q 0.74487,0 1.1536,-0.37574 0.4087,-0.38232 0.4087,-1.0481 0,-0.67896 -0.38892,-1.0679 -0.38232,-0.38892 -1.1799,-0.38892 h -1.5886 z"
       style="stroke-width:0.833314" />
    <path
       id="path2099"
       d="m 111.17,209.78 h -1.9775 v -9.5976 h 1.9775 z"
       style="stroke-width:0.833314" />
    <path
       id="path2101"
       d="m 120.81,209.78 h -1.9775 l -3.8496,-6.3149 v 6.3149 h -1.9775 v -9.5976 h 1.9775 l 3.8562,6.3281 v -6.3281 h 1.9709 z"
       style="stroke-width:0.833314" />
    <path
       id="path2103"
       d="m 130.13,208.56 q -0.53394,0.63941 -1.5095,0.99536 -0.97558,0.34937 -2.1621,0.34937 -1.2458,0 -2.1885,-0.54053 -0.93604,-0.54712 -1.4502,-1.582 -0.50757,-1.0349 -0.52075,-2.4324 v -0.65259 q 0,-1.437 0.4812,-2.4851 0.48779,-1.0547 1.3975,-1.6084 0.91626,-0.5603 2.1423,-0.5603 1.7073,0 2.6697,0.81738 0.96241,0.81079 1.1404,2.3665 h -1.9248 q -0.13184,-0.82398 -0.58667,-1.2063 -0.44824,-0.38233 -1.2393,-0.38233 -1.0085,0 -1.5359,0.75806 -0.52734,0.75806 -0.53393,2.2544 v 0.61303 q 0,1.5095 0.57349,2.2808 0.57348,0.77124 1.6809,0.77124 1.114,0 1.5886,-0.47461 v -1.6545 h -1.7996 v -1.4568 h 3.7771 z"
       style="stroke-width:0.833314" />
  </g>
  <g
     id="text1151"
     fill="#fff"
     aria-label="30.0%">
    <path
       id="path2106"
       d="m221.72 204.12h1.3235q1.2473-0.019 1.9614-0.65698 0.71411-0.63794 0.71411-1.7234 0-2.4375-2.428-2.4375-1.1426 0-1.8281 0.65698-0.67603 0.64746-0.67603 1.7234h-1.7615q0-1.6472 1.1997-2.7327 1.2092-1.095 3.0659-1.095 1.9614 0 3.0754 1.0378 1.114 1.0378 1.114 2.885 0 0.90455-0.59033 1.752-0.58081 0.84741-1.5901 1.2664 1.1426 0.36181 1.7615 1.1997 0.62842 0.83789 0.62842 2.0471 0 1.8662-1.2188 2.9612t-3.1706 1.095q-1.9519 0-3.1802-1.0569-1.2188-1.0569-1.2188-2.7898h1.771q0 1.095 0.71411 1.752 0.71411 0.65698 1.9138 0.65698 1.2759 0 1.9519-0.6665 0.67603-0.66651 0.67603-1.9138 0-1.2092-0.74268-1.8567t-2.1423-0.66651h-1.3235z" />
    <path
       id="path2108"
       d="m238.8 206q0 3.0945-1.0569 4.5989-1.0569 1.5044-3.304 1.5044-2.2185 0-3.2849-1.4663-1.0664-1.4758-1.1045-4.3989v-2.3518q0-3.0564 1.0569-4.5418 1.0569-1.4854 3.3135-1.4854 2.2376 0 3.2944 1.4378 1.0569 1.4282 1.0854 4.418zm-1.7615-2.4089q0-2.2376-0.62842-3.2564-0.62842-1.0283-1.99-1.0283-1.352 0-1.971 1.0188-0.61889 1.0188-0.63794 3.1326v2.8184q0 2.2471 0.64746 3.323 0.65699 1.0664 1.9805 1.0664 1.3044 0 1.9329-1.0093 0.63794-1.0093 0.66651-3.1802z" />
    <path
       id="path2110"
       d="m241.28 210.99q0-0.45703 0.2666-0.76172 0.27612-0.30469 0.81885-0.30469 0.54272 0 0.81885 0.30469 0.28564 0.30469 0.28564 0.76172 0 0.43799-0.28564 0.73315-0.27613 0.29517-0.81885 0.29517-0.54273 0-0.81885-0.29517-0.2666-0.29516-0.2666-0.73315z" />
    <path
       id="path2112"
       d="m254.88 206q0 3.0945-1.0569 4.5989-1.0569 1.5044-3.304 1.5044-2.2185 0-3.2849-1.4663-1.0664-1.4758-1.1045-4.3989v-2.3518q0-3.0564 1.0569-4.5418 1.0569-1.4854 3.3135-1.4854 2.2376 0 3.2944 1.4378 1.0569 1.4282 1.0854 4.418zm-1.7615-2.4089q0-2.2376-0.62842-3.2564-0.62842-1.0283-1.99-1.0283-1.352 0-1.971 1.0188t-0.63794 3.1326v2.8184q0 2.2471 0.64746 3.323 0.65698 1.0664 1.9805 1.0664 1.3044 0 1.9329-1.0093 0.63794-1.0093 0.66651-3.1802z" />
    <path
       id="path2114"
       d="m256.99 200.71q0-1.2473 0.79028-2.0566 0.79981-0.80933 2.0471-0.80933 1.2664 0 2.0471 0.81885 0.79028 0.80933 0.79028 2.1042v0.67602q0 1.2568-0.7998 2.0566-0.79029 0.79029-2.0186 0.79029-1.2378 0-2.0471-0.79029-0.80932-0.7998-0.80932-2.1233zm1.314 0.73315q0 0.74268 0.41895 1.2283 0.41894 0.47608 1.1235 0.47608 0.67603 0 1.0854-0.46655 0.41895-0.46656 0.41895-1.2759v-0.69507q0-0.74268-0.40943-1.2283-0.40942-0.4856-1.114-0.4856t-1.114 0.4856q-0.40943 0.48559-0.40943 1.2664zm5.4368 7.0649q0-1.2473 0.79028-2.0471 0.79981-0.80932 2.0471-0.80932 1.2473 0 2.0471 0.7998 0.79981 0.79981 0.79981 2.1233v0.67603q0 1.2473-0.79981 2.0566-0.79028 0.79981-2.0281 0.79981-1.2378 0-2.0471-0.79029-0.80933-0.7998-0.80933-2.1233zm1.314 0.74268q0 0.7522 0.41894 1.2378 0.41895 0.47608 1.1235 0.47608 0.68554 0 1.095-0.46656 0.40942-0.47607 0.40942-1.2854v-0.70459q0-0.75219-0.41895-1.2283-0.40942-0.47607-1.1045-0.47607-0.67602 0-1.1045 0.47607-0.41894 0.46656-0.41894 1.2664zm-4.8084 1.6091-0.99976-0.62842 6.7698-10.835 0.99976 0.62842z" />
  </g>
  <g
     id="text1154"
     fill="#ffffff"
     aria-label="RESNETYOLO"
     transform="matrix(1.2000487,0,0,1.2000487,-9.83315,-56.526318)"
     style="stroke-width:0.8333">
    <path
       id="path2117"
       d="m 45.208,283.88 h -1.5754 v 3.5134 h -1.9775 v -9.5976 h 3.5662 q 1.7007,0 2.6235,0.75805 0.92285,0.75806 0.92285,2.1423 0,0.98218 -0.42847,1.6414 -0.42188,0.65258 -1.2854,1.0415 l 2.0764,3.9221 v 0.0923 h -2.1226 z m -1.5754,-1.6018 h 1.5952 q 0.74487,0 1.1536,-0.37573 0.40869,-0.38233 0.40869,-1.0481 0,-0.67895 -0.38892,-1.0679 -0.38232,-0.38892 -1.1799,-0.38892 h -1.5886 z"
       style="stroke-width:0.8333" />
    <path
       id="path2119"
       d="m 56.045,283.23 h -3.7969 v 2.5708 h 4.4561 v 1.5886 h -6.4336 v -9.5976 h 6.4204 v 1.6018 h -4.4429 v 2.2874 h 3.7969 z"
       style="stroke-width:0.8333" />
    <path
       id="path2121"
       d="m 62.841,284.87 q 0,-0.56031 -0.39551,-0.85694 -0.39551,-0.30322 -1.4238,-0.63281 -1.0283,-0.33618 -1.6282,-0.65918 -1.6348,-0.8833 -1.6348,-2.3796 0,-0.77783 0.43506,-1.3843 0.44165,-0.61304 1.259,-0.95582 0.82398,-0.34277 1.8457,-0.34277 1.0283,0 1.8325,0.37573 0.8042,0.36914 1.2458,1.0481 0.44824,0.67895 0.44824,1.5425 h -1.9775 q 0,-0.65918 -0.41528,-1.0217 -0.41528,-0.36914 -1.1667,-0.36914 -0.7251,0 -1.1272,0.30982 -0.4021,0.30322 -0.4021,0.80419 0,0.46802 0.46802,0.78443 0.47461,0.3164 1.3909,0.59326 1.6875,0.50757 2.4587,1.259 0.77124,0.75147 0.77124,1.8721 0,1.2458 -0.94263,1.9578 -0.94263,0.70532 -2.5378,0.70532 -1.1074,0 -2.0171,-0.4021 -0.90967,-0.40869 -1.3909,-1.114 -0.47461,-0.70533 -0.47461,-1.6348 h 1.9841 q 0,1.5886 1.8984,1.5886 0.70532,0 1.1008,-0.28344 0.39551,-0.29004 0.39551,-0.8042 z"
       style="stroke-width:0.8333" />
    <path
       id="path2123"
       d="m 73.968,287.39 h -1.9775 l -3.8496,-6.3149 v 6.3149 h -1.9775 v -9.5976 h 1.9775 l 3.8562,6.3281 v -6.3281 h 1.9709 z"
       style="stroke-width:0.8333" />
    <path
       id="path2125"
       d="m 81.469,283.23 h -3.7969 v 2.5708 h 4.4561 v 1.5886 h -6.4336 v -9.5976 h 6.4204 v 1.6018 h -4.4429 v 2.2874 h 3.7969 z"
       style="stroke-width:0.8333" />
    <path
       id="path2127"
       d="m 90.645,279.4 h -2.9399 v 7.9958 H 85.7276 V 279.4 h -2.9004 v -1.6018 h 7.8179 z"
       style="stroke-width:0.8333" />
    <path
       id="path2129"
       d="m 95.187,282.12 1.9973,-4.3242 h 2.1621 l -3.1509,6.1172 v 3.4805 H 94.185 v -3.4805 l -3.1509,-6.1172 h 2.1687 z"
       style="stroke-width:0.8333" />
    <path
       id="path2131"
       d="m 107.92,282.81 q 0,1.4172 -0.50098,2.4851 -0.50097,1.0679 -1.437,1.648 -0.92944,0.58008 -2.1357,0.58008 -1.1931,0 -2.1292,-0.57349 -0.93604,-0.57348 -1.4502,-1.6348 -0.51416,-1.0679 -0.52075,-2.4522 v -0.47461 q 0,-1.4172 0.50757,-2.4917 0.51416,-1.081 1.4436,-1.6545 0.93604,-0.58008 2.1358,-0.58008 1.1997,0 2.1292,0.58008 0.93603,0.57349 1.4436,1.6545 0.51416,1.0745 0.51416,2.4851 z m -2.0039,-0.43505 q 0,-1.5095 -0.54052,-2.294 -0.54053,-0.78442 -1.5425,-0.78442 -0.99537,0 -1.5359,0.77783 -0.54053,0.77124 -0.54712,2.2676 v 0.46801 q 0,1.47 0.54053,2.2808 0.54052,0.81079 1.5557,0.81079 0.99536,0 1.5293,-0.77783 0.53393,-0.78443 0.54052,-2.2808 z"
       style="stroke-width:0.8333" />
    <path
       id="path2133"
       d="m 111.33,285.8 h 4.199 v 1.5886 h -6.1765 v -9.5976 h 1.9775 z"
       style="stroke-width:0.8333" />
    <path
       id="path2135"
       d="m 124.12,282.81 q 0,1.4172 -0.50098,2.4851 -0.50097,1.0679 -1.437,1.648 -0.92944,0.58008 -2.1357,0.58008 -1.1931,0 -2.1292,-0.57349 -0.93604,-0.57348 -1.4502,-1.6348 -0.51416,-1.0679 -0.52075,-2.4522 v -0.47461 q 0,-1.4172 0.50757,-2.4917 0.51416,-1.081 1.4436,-1.6545 0.93604,-0.58008 2.1357,-0.58008 1.1997,0 2.1292,0.58008 0.93604,0.57349 1.4436,1.6545 0.51416,1.0745 0.51416,2.4851 z m -2.0039,-0.43505 q 0,-1.5095 -0.54053,-2.294 -0.54052,-0.78442 -1.5425,-0.78442 -0.99536,0 -1.5359,0.77783 -0.54053,0.77124 -0.54712,2.2676 v 0.46801 q 0,1.47 0.54052,2.2808 0.54053,0.81079 1.5557,0.81079 0.99536,0 1.5293,-0.77783 0.53394,-0.78443 0.54053,-2.2808 z"
       style="stroke-width:0.8333" />
  </g>
  <g
     id="text1157"
     fill="#fff"
     aria-label="37.7%">
    <path
       id="path2138"
       d="m284.22 281.74h1.3235q1.2473-0.019 1.9614-0.65698 0.71412-0.63794 0.71412-1.7234 0-2.4375-2.428-2.4375-1.1426 0-1.8281 0.65698-0.67602 0.64746-0.67602 1.7234h-1.7615q0-1.6472 1.1997-2.7327 1.2092-1.095 3.0659-1.095 1.9614 0 3.0754 1.0378 1.114 1.0378 1.114 2.885 0 0.90454-0.59033 1.752-0.58081 0.84741-1.5901 1.2664 1.1426 0.36181 1.7615 1.1997 0.62842 0.83789 0.62842 2.0471 0 1.8662-1.2188 2.9612-1.2188 1.095-3.1706 1.095-1.9519 0-3.1802-1.0569-1.2188-1.0569-1.2188-2.7898h1.771q0 1.095 0.71411 1.752t1.9138 0.65698q1.2759 0 1.9519-0.6665 0.67603-0.66651 0.67603-1.9138 0-1.2092-0.74268-1.8567-0.74267-0.64746-2.1423-0.6665h-1.3235z" />
    <path
       id="path2140"
       d="m301.55 276.65-5.7414 12.873h-1.8472l5.7224-12.416h-7.5029v-1.4473h9.3691z" />
    <path
       id="path2142"
       d="m303.77 288.6q0-0.45703 0.2666-0.76172 0.27613-0.30468 0.81885-0.30468t0.81885 0.30468q0.28564 0.30469 0.28564 0.76172 0 0.43799-0.28564 0.73316-0.27613 0.29516-0.81885 0.29516t-0.81885-0.29516q-0.2666-0.29517-0.2666-0.73316z" />
    <path
       id="path2144"
       d="m317.64 276.65-5.7414 12.873h-1.8472l5.7224-12.416h-7.5029v-1.4473h9.3691z" />
    <path
       id="path2146"
       d="m319.48 278.33q0-1.2473 0.79028-2.0566 0.79981-0.80933 2.0471-0.80933 1.2664 0 2.0471 0.81885 0.79028 0.80933 0.79028 2.1042v0.67602q0 1.2568-0.7998 2.0566-0.79028 0.79028-2.0186 0.79028-1.2378 0-2.0471-0.79028-0.80933-0.79981-0.80933-2.1233zm1.314 0.73315q0 0.74268 0.41895 1.2283 0.41895 0.47607 1.1235 0.47607 0.67602 0 1.0854-0.46655 0.41895-0.46656 0.41895-1.2759v-0.69507q0-0.74268-0.40942-1.2283-0.40943-0.4856-1.114-0.4856t-1.114 0.4856q-0.40943 0.48559-0.40943 1.2664zm5.4368 7.065q0-1.2473 0.79029-2.0471 0.7998-0.80933 2.0471-0.80933 1.2473 0 2.0471 0.79981 0.79981 0.7998 0.79981 2.1233v0.67602q0 1.2473-0.79981 2.0566-0.79028 0.79981-2.0281 0.79981-1.2378 0-2.0471-0.79029-0.80933-0.7998-0.80933-2.1233zm1.314 0.74267q0 0.7522 0.41894 1.2378 0.41895 0.47608 1.1235 0.47608 0.68554 0 1.095-0.46655 0.40942-0.47608 0.40942-1.2854v-0.70459q0-0.7522-0.41894-1.2283-0.40943-0.47607-1.1045-0.47607-0.67602 0-1.1045 0.47607-0.41894 0.46656-0.41894 1.2664zm-4.8084 1.6091-0.99976-0.62842 6.7698-10.835 0.99975 0.62841z" />
  </g>
  <g
     id="text1160"
     fill="#ffffff"
     aria-label="RGBD"
     transform="matrix(1.1999611,0,0,1.1999611,-9.829501,-72.036872)"
     style="stroke-width:0.83336">
    <path
       id="path2149"
       d="m 45.208,361.49 h -1.5754 v 3.5134 h -1.9775 v -9.5976 h 3.5662 q 1.7007,0 2.6235,0.75805 0.92285,0.75806 0.92285,2.1423 0,0.98217 -0.42847,1.6414 -0.42188,0.65259 -1.2854,1.0415 l 2.0764,3.9221 v 0.0923 h -2.1226 z m -1.5754,-1.6018 h 1.5952 q 0.74487,0 1.1536,-0.37574 0.40869,-0.38232 0.40869,-1.0481 0,-0.67896 -0.38892,-1.0679 -0.38232,-0.38892 -1.1799,-0.38892 h -1.5886 z"
       style="stroke-width:0.83336" />
    <path
       id="path2151"
       d="m 57.864,363.8 q -0.53394,0.6394 -1.5095,0.99536 -0.97559,0.34937 -2.1621,0.34937 -1.2458,0 -2.1885,-0.54053 -0.93604,-0.54712 -1.4502,-1.582 -0.50757,-1.0349 -0.52075,-2.4324 v -0.65259 q 0,-1.437 0.4812,-2.4851 0.48779,-1.0547 1.3975,-1.6084 0.91626,-0.5603 2.1423,-0.5603 1.7073,0 2.6697,0.81738 0.9624,0.81079 1.1404,2.3665 h -1.9248 q -0.13184,-0.82398 -0.58667,-1.2063 -0.44824,-0.38233 -1.2393,-0.38233 -1.0085,0 -1.5359,0.75806 -0.5274,0.75806 -0.53394,2.2544 v 0.61303 q 0,1.5095 0.57349,2.2808 0.57349,0.7713 1.6809,0.77124 1.114,0 1.5886,-0.47461 v -1.6545 h -1.7996 v -1.4568 h 3.7771 z"
       style="stroke-width:0.83336" />
    <path
       id="path2153"
       d="m 59.466,365.01 v -9.5976 h 3.3618 q 1.7468,0 2.6499,0.67236 0.90308,0.66577 0.90308,1.9578 0,0.70532 -0.36255,1.2458 -0.36255,0.53394 -1.0085,0.78443 0.73828,0.18457 1.1602,0.74487 0.42847,0.5603 0.42847,1.3711 0,1.3843 -0.8833,2.0962 -0.8833,0.71192 -2.5181,0.7251 z m 1.9775,-4.1792 v 2.5906 h 1.6941 q 0.69873,0 1.0876,-0.32959 0.39551,-0.33618 0.39551,-0.92285 0,-1.3184 -1.3645,-1.3381 z m 0,-1.3975 h 1.4634 q 1.4963,-0.0264 1.4963,-1.1931 0,-0.65259 -0.38232,-0.93604 -0.37573,-0.29004 -1.1931,-0.29004 h -1.3843 z"
       style="stroke-width:0.83336" />
    <path
       id="path2155"
       d="m 68.081,365.01 v -9.5976 h 2.9531 q 1.2656,0 2.261,0.57348 1.002,0.5669 1.5623,1.6216 0.5603,1.0481 0.5603,2.3862 v 0.44165 q 0,1.3381 -0.55371,2.3796 -0.54712,1.0415 -1.5491,1.615 -1.002,0.57349 -2.261,0.58008 z m 1.9775,-7.9958 v 6.4072 h 0.95581 q 1.1602,0 1.7732,-0.75806 0.613,-0.75806 0.62622,-2.1687 v -0.50757 q 0,-1.4634 -0.60644,-2.2148 -0.60645,-0.75806 -1.7732,-0.75806 z"
       style="stroke-width:0.83336" />
  </g>
  <g
     id="text1163"
     fill="#fff"
     aria-label="44.4%">
    <path
       id="path2158"
       d="m343.47 362.49h1.9233v1.4377h-1.9233v3.2183h-1.771v-3.2183h-6.3127v-1.0378l6.208-9.6072h1.8757zm-6.0842 0h4.3132v-6.7983l-0.20947 0.38086z" />
    <path
       id="path2160"
       d="m354.42 362.49h1.9233v1.4377h-1.9233v3.2183h-1.771v-3.2183h-6.3127v-1.0378l6.208-9.6072h1.8757zm-6.0842 0h4.3132v-6.7983l-0.20947 0.38086z" />
    <path
       id="path2162"
       d="m358.15 366.22q0-0.45703 0.2666-0.76172 0.27612-0.30469 0.81885-0.30469 0.54272 0 0.81885 0.30469 0.28564 0.30469 0.28564 0.76172 0 0.43799-0.28564 0.73315-0.27613 0.29517-0.81885 0.29517-0.54273 0-0.81885-0.29517-0.2666-0.29516-0.2666-0.73315z" />
    <path
       id="path2164"
       d="m370.5 362.49h1.9233v1.4377h-1.9233v3.2183h-1.771v-3.2183h-6.3128v-1.0378l6.208-9.6072h1.8757zm-6.0842 0h4.3132v-6.7983l-0.20947 0.38086z" />
    <path
       id="path2166"
       d="m373.86 355.94q0-1.2473 0.79028-2.0566 0.79981-0.80933 2.0471-0.80933 1.2664 0 2.0471 0.81885 0.79028 0.80933 0.79028 2.1042v0.67602q0 1.2568-0.7998 2.0566-0.79028 0.79029-2.0186 0.79029-1.2378 0-2.0471-0.79029-0.80932-0.7998-0.80932-2.1233zm1.314 0.73315q0 0.74268 0.41895 1.2283 0.41894 0.47608 1.1235 0.47608 0.67603 0 1.0854-0.46655 0.41895-0.46656 0.41895-1.2759v-0.69507q0-0.74268-0.40943-1.2283-0.40942-0.4856-1.114-0.4856t-1.114 0.4856q-0.40943 0.48559-0.40943 1.2664zm5.4368 7.0649q0-1.2473 0.79028-2.0471 0.79981-0.80932 2.0471-0.80932 1.2473 0 2.0471 0.7998 0.79981 0.79981 0.79981 2.1233v0.67603q0 1.2473-0.79981 2.0566-0.79028 0.7998-2.0281 0.7998-1.2378 0-2.0471-0.79028-0.80933-0.7998-0.80933-2.1233zm1.314 0.74268q0 0.7522 0.41894 1.2378 0.41895 0.47608 1.1235 0.47608 0.68554 0 1.095-0.46656 0.40942-0.47607 0.40942-1.2854v-0.70459q0-0.75219-0.41894-1.2283-0.40943-0.47607-1.1045-0.47607-0.67602 0-1.1045 0.47607-0.41894 0.46656-0.41894 1.2664zm-4.8084 1.6091-0.99976-0.62842 6.7698-10.835 0.99975 0.62842z" />
  </g>
  <defs
     id="defs1171">
    <clipPath
       id="p8a8df0cfd4">
      <rect
         id="rect1168"
         x="72"
         y="60.48"
         width="446.4"
         height="388.08" />
    </clipPath>
  </defs>
</svg>
