<?xml version="1.0" encoding="UTF-8"?>
<svg id="svg1294" width="863.56pt" height="468.21pt" version="1.1" viewBox="0 0 863.56 468.21" xmlns="http://www.w3.org/2000/svg" xmlns:xlink="http://www.w3.org/1999/xlink">
 <defs id="defs1073">
  <style id="style1071" type="text/css">*{stroke-linejoin: round; stroke-linecap: butt}</style>
  <defs id="defs1277">
   <path id="medf1c90a92" d="m4.5 0-9-4.5v9z" stroke="#262626"/>
  </defs>
  <defs id="defs1190">
   <path id="m5931cfc352" d="m0 6.364 3.8184-6.364-3.8184-6.364-3.8184 6.364z" stroke="#5b5b5b" stroke-width="1.5"/>
  </defs>
 </defs>
 <g id="g15013" transform="translate(-124.06 -84.012)">
  <g id="xtick_1" transform="translate(0 .7552)">
   <g id="text_1">
    <!-- $\mathdefault{10^{1}}$ -->
    <g id="g1087" transform="translate(169.99 542.16)" fill="#262626">
     <g id="text1085" aria-label="101">
      <path id="path17499" d="m6.2668-3.7023h-0.9668v-10.57l-3.1904 1.1843v-0.90234l3.9961-1.4824h0.16113z"/>
      <path id="path17501" d="m18.029-8.5927q0 2.4814-0.9104 3.7705-0.9104 1.281-2.6829 1.281-1.7402 0-2.6667-1.2568-0.92651-1.2649-0.95068-3.6738v-2.1028q0-2.4734 0.91846-3.7463 0.91846-1.2729 2.6829-1.2729 1.7402 0 2.6587 1.2327 0.91846 1.2246 0.95068 3.6174zm-0.9668-2.1028q0-2.0142-0.66064-3.0454-0.65259-1.0312-1.9819-1.0312-1.3052 0-1.9658 1.0071-0.66064 1.0071-0.67676 2.9729v2.3042q0 2.0061 0.67676 3.0696 0.68482 1.0635 1.9819 1.0635 1.2891 0 1.9497-1.0393 0.6687-1.0393 0.67676-3.0454z"/>
      <path id="path17503" d="m22.631-10.302h-0.62842v-6.8707l-2.0738 0.76981v-0.58652l2.5975-0.96358h0.10474z" baseline-shift="super"/>
     </g>
    </g>
   </g>
  </g>
  <g id="xtick_2" transform="translate(0 .7552)">
   <g id="text_2">
    <!-- $\mathdefault{10^{2}}$ -->
    <g id="g1097" transform="translate(329.26 542.16)" fill="#262626">
     <g id="text1095" aria-label="102">
      <path id="path17506" d="m6.093-3.663h-0.9668v-10.57l-3.1904 1.1843v-0.90234l3.9961-1.4824h0.16113z"/>
      <path id="path17508" d="m17.856-8.5534q0 2.4814-0.9104 3.7705-0.9104 1.281-2.6829 1.281-1.7402 0-2.6667-1.2568-0.92651-1.2649-0.95068-3.6738v-2.1028q0-2.4734 0.91846-3.7463 0.91846-1.273 2.6829-1.273 1.7402 0 2.6587 1.2327 0.91846 1.2246 0.95068 3.6174zm-0.9668-2.1028q0-2.0142-0.66064-3.0454-0.65259-1.0312-1.9819-1.0312-1.3052 0-1.9658 1.0071-0.66064 1.0071-0.67676 2.9729v2.3042q0 2.0061 0.67676 3.0696 0.68481 1.0635 1.9819 1.0635 1.2891 0 1.9497-1.0393 0.6687-1.0393 0.67676-3.0454z"/>
      <path id="path17510" d="m24.316-10.263h-4.776v-0.48179l2.6132-2.964q0.64936-0.74886 0.90073-1.2359 0.25137-0.48702 0.25137-0.94786 0-0.72268-0.42418-1.1416-0.42418-0.42418-1.1678-0.42418-0.76981 0-1.2464 0.49226-0.47131 0.49226-0.47131 1.2778h-0.62318q0-0.64413 0.28802-1.173 0.29326-0.52892 0.82742-0.82742 0.53939-0.30374 1.2254-0.30374 1.0474 0 1.6339 0.54987 0.59176 0.54987 0.59176 1.4977 0 0.53416-0.33516 1.1678-0.32992 0.63366-1.1678 1.5815l-2.1261 2.4037h4.0062z" baseline-shift="super"/>
     </g>
    </g>
   </g>
  </g>
  <g id="xtick_3" transform="translate(0 .7552)">
   <g id="text_3">
    <!-- $\mathdefault{10^{3}}$ -->
    <g id="g1107" transform="translate(488.53 542.16)" fill="#262626">
     <g id="text1105" aria-label="103">
      <path id="path17513" d="m6.2321-3.663h-0.9668v-10.57l-3.1904 1.1843v-0.90234l3.9961-1.4824h0.16113z"/>
      <path id="path17515" d="m17.995-8.5534q0 2.4814-0.9104 3.7705-0.9104 1.281-2.6829 1.281-1.7402 0-2.6667-1.2568-0.92651-1.2649-0.95068-3.6738v-2.1028q0-2.4734 0.91846-3.7463 0.91846-1.273 2.6829-1.273 1.7402 0 2.6587 1.2327 0.91846 1.2246 0.95068 3.6174zm-0.9668-2.1028q0-2.0142-0.66064-3.0454-0.65259-1.0312-1.9819-1.0312-1.3052 0-1.9658 1.0071-0.66064 1.0071-0.67676 2.9729v2.3042q0 2.0061 0.67676 3.0696 0.68482 1.0635 1.9819 1.0635 1.2891 0 1.9497-1.0393 0.6687-1.0393 0.67676-3.0454z"/>
      <path id="path17517" d="m21.072-14.416h0.64936q0.53939 0 0.94263-0.18853 0.40324-0.19376 0.61271-0.52368 0.21471-0.33516 0.21471-0.76981 0-0.73315-0.41371-1.1469-0.41371-0.41371-1.1888-0.41371-0.73316 0-1.2045 0.43466-0.46608 0.42942-0.46608 1.1364h-0.62842q0-0.59176 0.2985-1.0788 0.2985-0.49226 0.82742-0.75934 0.52892-0.26708 1.173-0.26708 1.0369 0 1.6339 0.56558 0.597 0.56558 0.597 1.5501 0 0.54987-0.35087 1.0159-0.34563 0.46084-0.9531 0.69126 0.71221 0.199 1.0788 0.68602 0.36658 0.48179 0.36658 1.1521 0 0.97928-0.63889 1.5763-0.63889 0.597-1.7072 0.597-0.68079 0-1.2516-0.27231-0.56558-0.27232-0.87979-0.75934-0.30897-0.49226-0.30897-1.1416h0.62842q0 0.72792 0.50797 1.1888 0.50797 0.4556 1.304 0.4556 0.81171 0 1.2621-0.41371 0.4556-0.41894 0.4556-1.2097 0-0.76458-0.49226-1.1678-0.48702-0.40324-1.4401-0.40324h-0.62842z" baseline-shift="super"/>
     </g>
    </g>
   </g>
  </g>
  <g id="xtick_4" transform="translate(0 .93608)">
   <g id="text_4">
    <!-- $\mathdefault{10^{4}}$ -->
    <g id="g1117" transform="translate(647.8 541.99)" fill="#262626">
     <g id="text1115" aria-label="104">
      <path id="path17520" d="m5.9874-3.7313h-0.9668v-10.57l-3.1904 1.1843v-0.90234l3.9961-1.4824h0.16113z"/>
      <path id="path17522" d="m17.75-8.6217q0 2.4814-0.9104 3.7705-0.9104 1.281-2.6829 1.281-1.7402 0-2.6667-1.2568-0.92651-1.2649-0.95068-3.6738v-2.1028q0-2.4734 0.91846-3.7463 0.91846-1.2729 2.6829-1.2729 1.7402 0 2.6587 1.2327 0.91846 1.2246 0.95068 3.6174zm-0.9668-2.1028q0-2.0142-0.66064-3.0454-0.65259-1.0312-1.9819-1.0312-1.3052 0-1.9658 1.0071-0.66064 1.0071-0.67676 2.9729v2.3042q0 2.0061 0.67676 3.0696 0.68481 1.0635 1.9819 1.0635 1.2891 0 1.9497-1.0393 0.6687-1.0393 0.67676-3.0454z"/>
      <path id="path17524" d="m23.283-12.787h1.1888v0.52892h-1.1888v1.9271h-0.62842v-1.9271h-3.5872v-0.3561l3.5296-5.3416h0.68602zm-3.4458 0h2.8174v-4.357l-0.27755 0.48179z" baseline-shift="super"/>
     </g>
    </g>
   </g>
  </g>
  <g id="xtick_5">
   <g id="text_5">
    <!-- $\mathdefault{10^{5}}$ -->
    <g id="g1127" transform="translate(807.07 541.99)" fill="#262626">
     <g id="text1125" aria-label="105">
      <path id="path17527" d="m6.1741-2.7952h-0.9668v-10.57l-3.1904 1.1843v-0.90234l3.9961-1.4824h0.16113z"/>
      <path id="path17529" d="m17.937-7.6856q0 2.4814-0.9104 3.7705-0.9104 1.281-2.6829 1.281-1.7402 0-2.6667-1.2568-0.92651-1.2649-0.95068-3.6738v-2.1028q0-2.4734 0.91846-3.7463t2.6829-1.2729q1.7402 0 2.6587 1.2327 0.91846 1.2246 0.95068 3.6174zm-0.9668-2.1028q0-2.0142-0.66064-3.0454-0.65259-1.0312-1.9819-1.0312-1.3052 0-1.9658 1.0071-0.66064 1.0071-0.67676 2.9729v2.3042q0 2.0061 0.67676 3.0696 0.68481 1.0635 1.9819 1.0635 1.2891 0 1.9497-1.0393 0.6687-1.0393 0.67676-3.0454z"/>
      <path id="path17531" d="m20.045-13.302 0.37181-3.7181h3.8124v0.58129h-3.273l-0.26708 2.5765q0.61271-0.41895 1.4349-0.41895 1.0317 0 1.6444 0.67031 0.61271 0.67031 0.61271 1.7858 0 1.2045-0.597 1.8695-0.597 0.66508-1.681 0.66508-0.995 0-1.6129-0.5551-0.61794-0.5551-0.70697-1.5553h0.60223q0.08903 0.78029 0.52892 1.1835 0.43989 0.398 1.1888 0.398 0.81694 0 1.2307-0.51844 0.41894-0.51844 0.41894-1.4768 0-0.83789-0.46608-1.3668-0.46608-0.52892-1.2725-0.52892-0.44513 0-0.77505 0.11521-0.32992 0.10997-0.6965 0.43466z" baseline-shift="super"/>
     </g>
    </g>
   </g>
  </g>
 </g>
 <g id="text_6" transform="translate(-123.81 -94.265)">
  <g id="text1176" fill="#262626" aria-label="area (px²)">
   <path id="path17534" d="m887.15 548q-0.15234-0.30468-0.24756-1.0854-1.2283 1.2759-2.9326 1.2759-1.5234 0-2.5042-0.85693-0.9712-0.86645-0.9712-2.1899 0-1.6091 1.2188-2.4946 1.2283-0.89502 3.4468-0.89502h1.7139v-0.80933q0-0.92358-0.55225-1.4663-0.55224-0.55225-1.6282-0.55225-0.94263 0-1.5806 0.47607-0.63794 0.47608-0.63794 1.1521h-1.771q0-0.77124 0.54272-1.4854 0.55225-0.72363 1.4854-1.1426 0.94263-0.41894 2.0662-0.41894 1.7805 0 2.7898 0.89502 1.0093 0.8855 1.0474 2.447v4.7417q0 1.4187 0.36182 2.2566v0.15234zm-2.9231-1.3425q0.82837 0 1.571-0.42847 0.74268-0.42847 1.0759-1.114v-2.1138h-1.3806q-3.2373 0-3.2373 1.8948 0 0.82837 0.55225 1.2949 0.55224 0.46656 1.4187 0.46656z"/>
   <path id="path17536" d="m896.38 539.28q-0.3999-0.0666-0.86645-0.0666-1.7329 0-2.3518 1.4758v7.3125h-1.7615v-10.302h1.7139l0.0286 1.1902q0.86645-1.3806 2.4565-1.3806 0.51416 0 0.78076 0.1333z"/>
   <path id="path17538" d="m902.27 548.19q-2.0947 0-3.4087-1.3711-1.314-1.3806-1.314-3.6848v-0.32373q0-1.533 0.58081-2.7327 0.59034-1.2092 1.6377-1.8852 1.0569-0.68555 2.2852-0.68555 2.009 0 3.123 1.3235 1.114 1.3235 1.114 3.7896v0.73315h-6.9792q0.0381 1.5234 0.8855 2.4661 0.85693 0.93311 2.1709 0.93311 0.93311 0 1.5806-0.38086t1.1331-1.0093l1.0759 0.83789q-1.2949 1.99-3.8848 1.99zm-0.21899-9.2358q-1.0664 0-1.79 0.78077-0.72364 0.77124-0.89502 2.1709h5.1606v-0.1333q-0.0762-1.3425-0.72363-2.0757-0.64746-0.74268-1.752-0.74268z"/>
   <path id="path17540" d="m914.69 548q-0.15235-0.30468-0.24756-1.0854-1.2283 1.2759-2.9326 1.2759-1.5234 0-2.5042-0.85693-0.97119-0.86645-0.97119-2.1899 0-1.6091 1.2188-2.4946 1.2283-0.89502 3.4468-0.89502h1.7139v-0.80933q0-0.92358-0.55224-1.4663-0.55225-0.55225-1.6282-0.55225-0.94262 0-1.5806 0.47607-0.63794 0.47608-0.63794 1.1521h-1.771q0-0.77124 0.54272-1.4854 0.55225-0.72363 1.4854-1.1426 0.94262-0.41894 2.0662-0.41894 1.7805 0 2.7898 0.89502 1.0093 0.8855 1.0474 2.447v4.7417q0 1.4187 0.36181 2.2566v0.15234zm-2.9231-1.3425q0.82837 0 1.571-0.42847 0.74268-0.42847 1.0759-1.114v-2.1138h-1.3806q-3.2373 0-3.2373 1.8948 0 0.82837 0.55225 1.2949 0.55224 0.46656 1.4187 0.46656z"/>
   <path id="path17542" d="m923.7 542.37q0-2.1519 0.57129-4.1323 0.58081-1.9805 1.7234-3.5991t2.3708-2.2852l0.36181 1.1616q-1.3901 1.0664-2.2852 3.2563-0.8855 2.19-0.97119 4.9036l-0.01 0.80933q0 3.6753 1.3425 6.3794 0.80933 1.6186 1.9233 2.5327l-0.36181 1.0759q-1.2664-0.70459-2.4185-2.3613-2.2471-3.2373-2.2471-7.741z"/>
   <path id="path17544" d="m939.13 542.96q0 2.3518-1.0759 3.7896t-2.9136 1.4377q-1.8757 0-2.9517-1.1902v4.9607h-1.7615v-14.263h1.6091l0.0857 1.1426q1.0759-1.333 2.9898-1.333 1.8567 0 2.9326 1.3997 1.0854 1.3997 1.0854 3.8943zm-1.7615-0.19995q0-1.7424-0.74267-2.7517-0.74268-1.0093-2.0376-1.0093-1.5996 0-2.3994 1.4187v4.9226q0.79029 1.4092 2.4185 1.4092 1.2664 0 2.009-0.99976 0.7522-1.0093 0.7522-2.9897z"/>
   <path id="path17546" d="m944.83 541.46 2.2852-3.761h2.0566l-3.3706 5.094 3.4754 5.2082h-2.0376l-2.3804-3.8562-2.3804 3.8562h-2.0471l3.4753-5.2082-3.3706-5.094h2.0376z"/>
   <path id="path17548" d="m956.2 541.65h-5.7034v-1.0283l2.8564-2.685q1.0378-0.9712 1.0378-1.6282 0-0.46655-0.30469-0.7522-0.30469-0.29516-0.87598-0.29516-0.71411 0-1.0569 0.36181-0.33326 0.36182-0.33326 0.90455h-1.4949q0-1.0854 0.79028-1.79 0.79981-0.70459 2.0566-0.70459 1.2568 0 1.99 0.60937 0.73315 0.59986 0.73315 1.6472 0 0.99023-1.0188 2.009l-0.7998 0.7522-1.6758 1.3806h3.7991z"/>
   <path id="path17550" d="m962.25 542.47q0 2.1233-0.56177 4.0752-0.55224 1.9424-1.7043 3.5896-1.1426 1.6472-2.3994 2.3423l-0.37134-1.0759q1.4663-1.1235 2.3518-3.4849 0.89502-2.3708 0.91406-5.2559v-0.30469q0-1.9995-0.41894-3.7134-0.41895-1.7234-1.1711-3.085-0.74268-1.3616-1.6758-2.1233l0.37134-1.0759q1.2568 0.69506 2.3899 2.3232 1.1426 1.6282 1.7044 3.5896 0.57129 1.9614 0.57129 4.199z"/>
  </g>
 </g>
 <g id="ytick_1" transform="translate(-126.38 -78.859)">
  <g id="text_7">
   <g id="text1180" fill="#262626" aria-label="vehicles">
    <path id="path17553" d="m154.45 183.52 2.5518-7.9124h1.7996l-3.6943 10.302h-1.3425l-3.7324-10.302h1.7996z"/>
    <path id="path17555" d="m164.77 186.1q-2.0947 0-3.4087-1.3711-1.314-1.3806-1.314-3.6848v-0.32373q0-1.533 0.58081-2.7327 0.59033-1.2092 1.6377-1.8852 1.0569-0.68555 2.2852-0.68555 2.009 0 3.123 1.3235 1.114 1.3235 1.114 3.7896v0.73315h-6.9792q0.0381 1.5234 0.8855 2.4661 0.85694 0.9331 2.1709 0.9331 0.93311 0 1.5806-0.38086t1.133-1.0093l1.0759 0.83789q-1.2949 1.99-3.8848 1.99zm-0.219-9.2358q-1.0664 0-1.79 0.78076-0.72363 0.77124-0.89502 2.1709h5.1606v-0.1333q-0.0762-1.3425-0.72364-2.0757-0.64746-0.74267-1.752-0.74267z"/>
    <path id="path17557" d="m172.58 176.85q1.1712-1.4378 3.0469-1.4378 3.2659 0 3.2944 3.6848v6.8079h-1.7615v-6.8174q-0.01-1.114-0.51416-1.6472-0.49512-0.53321-1.552-0.53321-0.85694 0-1.5044 0.45704-0.64746 0.45703-1.0093 1.1997v7.3411h-1.7615v-14.625h1.7615z"/>
    <path id="path17559" d="m183.48 185.91h-1.7615v-10.302h1.7615zm-1.9043-13.035q0-0.42847 0.25708-0.72364 0.2666-0.29516 0.78076-0.29516t0.78076 0.29516q0.2666 0.29517 0.2666 0.72364 0 0.42846-0.2666 0.71411-0.2666 0.28564-0.78076 0.28564t-0.78076-0.28564q-0.25708-0.28565-0.25708-0.71411z"/>
    <path id="path17561" d="m190.43 184.66q0.94262 0 1.6472-0.57129t0.78076-1.4282h1.6663q-0.0476 0.8855-0.60937 1.6853-0.56177 0.79981-1.5044 1.2759-0.9331 0.47608-1.9805 0.47608-2.1042 0-3.3516-1.3997-1.2378-1.4092-1.2378-3.8467v-0.29517q0-1.5044 0.55225-2.6755 0.55224-1.1712 1.5806-1.8186 1.0378-0.64746 2.447-0.64746 1.7329 0 2.8755 1.0378 1.1521 1.0378 1.2283 2.6946h-1.6663q-0.0762-0.99975-0.76171-1.6377-0.67603-0.64746-1.6758-0.64746-1.3425 0-2.0852 0.97119-0.73315 0.96167-0.73315 2.7898v0.33326q0 1.7805 0.73315 2.7422t2.0947 0.96167z"/>
    <path id="path17563" d="m198.42 185.91h-1.7615v-14.625h1.7615z"/>
    <path id="path17565" d="m205.51 186.1q-2.0947 0-3.4087-1.3711-1.314-1.3806-1.314-3.6848v-0.32373q0-1.533 0.58081-2.7327 0.59033-1.2092 1.6377-1.8852 1.0569-0.68555 2.2852-0.68555 2.009 0 3.123 1.3235 1.114 1.3235 1.114 3.7896v0.73315h-6.9792q0.0381 1.5234 0.88549 2.4661 0.85694 0.9331 2.1709 0.9331 0.93311 0 1.5806-0.38086t1.1331-1.0093l1.0759 0.83789q-1.2949 1.99-3.8848 1.99zm-0.219-9.2358q-1.0664 0-1.79 0.78076-0.72363 0.77124-0.89502 2.1709h5.1606v-0.1333q-0.0762-1.3425-0.72363-2.0757-0.64746-0.74267-1.752-0.74267z"/>
    <path id="path17567" d="m217.56 183.17q0-0.71411-0.54273-1.1045-0.5332-0.3999-1.8757-0.68555-1.333-0.28564-2.1233-0.68554-0.78076-0.39991-1.1616-0.95215-0.37134-0.55225-0.37134-1.314 0-1.2664 1.0664-2.1423 1.0759-0.87598 2.7422-0.87598 1.752 0 2.8374 0.90454 1.095 0.90454 1.095 2.3137h-1.771q0-0.72363-0.6189-1.2473-0.60937-0.52368-1.5425-0.52368-0.96167 0-1.5044 0.41894-0.54273 0.41895-0.54273 1.095 0 0.63794 0.50464 0.96167t1.8186 0.6189q1.3235 0.29517 2.1423 0.70459t1.2092 0.99023q0.3999 0.57129 0.3999 1.3997 0 1.3806-1.1045 2.2185-1.1045 0.82837-2.866 0.82837-1.2378 0-2.1899-0.43799t-1.4949-1.2188q-0.53321-0.79028-0.53321-1.7044h1.7615q0.0476 0.8855 0.70459 1.4092 0.6665 0.51416 1.752 0.51416 0.99976 0 1.5996-0.3999 0.60938-0.40942 0.60938-1.0854z"/>
   </g>
  </g>
 </g>
 <g id="ytick_2" transform="translate(-124.06 -80.171)">
  <g id="text_8">
   <g id="text1184" fill="#262626" aria-label="vessels">
    <path id="path17570" d="m158.53 407.57-3.2549-8.5562h1.5308l1.8369 5.124q0.29809 0.82983 0.54785 1.7241 0.19336-0.67676 0.53979-1.6274l1.9014-5.2207h1.4905l-3.2388 8.5562z"/>
    <path id="path17572" d="m170.26 404.81 1.4985 0.1853q-0.35449 1.3132-1.3132 2.0383t-2.4492 0.7251q-1.8772 0-2.981-1.1521-1.0957-1.1602-1.0957-3.2468 0-2.1592 1.1118-3.3516 1.1118-1.1924 2.8843-1.1924 1.7161 0 2.8037 1.1682 1.0876 1.1682 1.0876 3.2871 0 0.1289-8e-3 0.38672h-6.3809q0.0806 1.4099 0.79761 2.1592 0.71704 0.74926 1.7886 0.74926 0.79761 0 1.3616-0.41894 0.56396-0.41895 0.89428-1.3374zm-4.7615-2.3445h4.7776q-0.0967-1.0796-0.54785-1.6194-0.69288-0.83789-1.7966-0.83789-0.99903 0-1.6838 0.6687-0.67676 0.6687-0.74927 1.7886z"/>
    <path id="path17574" d="m173 405.01 1.4341-0.22558q0.12085 0.86206 0.66871 1.3213 0.5559 0.45922 1.5469 0.45922 0.99902 0 1.4824-0.40283 0.4834-0.41089 0.4834-0.95874 0-0.49145-0.427-0.77344-0.2981-0.19335-1.4824-0.49145-1.5952-0.40283-2.2156-0.69287-0.6123-0.2981-0.93457-0.81372-0.31421-0.52368-0.31421-1.1521 0-0.57202 0.25781-1.0554 0.26587-0.49146 0.71704-0.81372 0.33838-0.24976 0.91846-0.41895 0.58814-0.17724 1.2568-0.17724 1.0071 0 1.7644 0.29003 0.76538 0.29004 1.1279 0.78956 0.36255 0.49145 0.49951 1.3213l-1.418 0.19336q-0.0967-0.66064-0.56396-1.0312-0.45923-0.3706-1.3052-0.3706-0.99902 0-1.426 0.33032t-0.427 0.77344q0 0.28198 0.17724 0.50757 0.17725 0.23364 0.55591 0.38672 0.21753 0.0806 1.281 0.3706 1.5388 0.41089 2.1431 0.67676 0.61231 0.25781 0.95874 0.75732 0.34644 0.49951 0.34644 1.2407 0 0.72509-0.427 1.3696-0.41895 0.63648-1.2166 0.99097-0.7976 0.34644-1.8047 0.34644-1.6677 0-2.5459-0.69287-0.87012-0.69288-1.1118-2.0544z"/>
    <path id="path17576" d="m181.25 405.01 1.4341-0.22558q0.12085 0.86206 0.66871 1.3213 0.5559 0.45922 1.5469 0.45922 0.99902 0 1.4824-0.40283 0.4834-0.41089 0.4834-0.95874 0-0.49145-0.427-0.77344-0.2981-0.19335-1.4824-0.49145-1.5952-0.40283-2.2156-0.69287-0.6123-0.2981-0.93457-0.81372-0.31421-0.52368-0.31421-1.1521 0-0.57202 0.25781-1.0554 0.26587-0.49146 0.71704-0.81372 0.33838-0.24976 0.91846-0.41895 0.58814-0.17724 1.2568-0.17724 1.0071 0 1.7644 0.29003 0.76538 0.29004 1.1279 0.78956 0.36255 0.49145 0.49951 1.3213l-1.418 0.19336q-0.0967-0.66064-0.56396-1.0312-0.45923-0.3706-1.3052-0.3706-0.99902 0-1.426 0.33032t-0.427 0.77344q0 0.28198 0.17724 0.50757 0.17725 0.23364 0.55591 0.38672 0.21753 0.0806 1.281 0.3706 1.5388 0.41089 2.1431 0.67676 0.61231 0.25781 0.95874 0.75732 0.34644 0.49951 0.34644 1.2407 0 0.72509-0.427 1.3696-0.41895 0.63648-1.2166 0.99097-0.7976 0.34644-1.8047 0.34644-1.6677 0-2.5459-0.69287-0.87012-0.69288-1.1118-2.0544z"/>
    <path id="path17578" d="m195.94 404.81 1.4985 0.1853q-0.35449 1.3132-1.3132 2.0383t-2.4492 0.7251q-1.8772 0-2.981-1.1521-1.0957-1.1602-1.0957-3.2468 0-2.1592 1.1118-3.3516 1.1118-1.1924 2.8843-1.1924 1.7161 0 2.8037 1.1682 1.0876 1.1682 1.0876 3.2871 0 0.1289-8e-3 0.38672h-6.3809q0.0806 1.4099 0.7976 2.1592 0.71705 0.74926 1.7886 0.74926 0.79761 0 1.3616-0.41894 0.56397-0.41895 0.89429-1.3374zm-4.7615-2.3445h4.7776q-0.0967-1.0796-0.54785-1.6194-0.69287-0.83789-1.7966-0.83789-0.99902 0-1.6838 0.6687-0.67676 0.6687-0.74927 1.7886z"/>
    <path id="path17580" d="m199.22 407.57v-11.811h1.4502v11.811z"/>
    <path id="path17582" d="m202.34 405.01 1.4341-0.22558q0.12085 0.86206 0.6687 1.3213 0.55591 0.45922 1.5469 0.45922 0.99902 0 1.4824-0.40283 0.4834-0.41089 0.4834-0.95874 0-0.49145-0.42701-0.77344-0.29809-0.19335-1.4824-0.49145-1.5952-0.40283-2.2156-0.69287-0.61231-0.2981-0.93457-0.81372-0.31421-0.52368-0.31421-1.1521 0-0.57202 0.25781-1.0554 0.26587-0.49146 0.71704-0.81372 0.33838-0.24976 0.91846-0.41895 0.58813-0.17724 1.2568-0.17724 1.0071 0 1.7644 0.29003 0.76538 0.29004 1.1279 0.78956 0.36255 0.49145 0.49951 1.3213l-1.418 0.19336q-0.0967-0.66064-0.56397-1.0312-0.45922-0.3706-1.3052-0.3706-0.99902 0-1.426 0.33032-0.427 0.33032-0.427 0.77344 0 0.28198 0.17725 0.50757 0.17724 0.23364 0.55591 0.38672 0.21753 0.0806 1.281 0.3706 1.5388 0.41089 2.1431 0.67676 0.6123 0.25781 0.95874 0.75732 0.34643 0.49951 0.34643 1.2407 0 0.72509-0.427 1.3696-0.41894 0.63648-1.2166 0.99097-0.79761 0.34644-1.8047 0.34644-1.6677 0-2.5459-0.69287-0.87011-0.69288-1.1118-2.0544z"/>
   </g>
  </g>
 </g>
 <g id="g1210" transform="translate(-124.06 -80.171)" clip-path="url(#p3a75ac21e2)" fill="#5b5b5b" stroke="#5b5b5b" stroke-width="1.5">
  <use id="use1192" x="243.50035" y="180" width="100%" height="100%" xlink:href="#m5931cfc352"/>
  <use id="use1194" x="258.93509" y="180" width="100%" height="100%" xlink:href="#m5931cfc352"/>
  <use id="use1196" x="263.39917" y="180" width="100%" height="100%" xlink:href="#m5931cfc352"/>
  <use id="use1198" x="254.16287" y="180" width="100%" height="100%" xlink:href="#m5931cfc352"/>
  <use id="use1200" x="487.077" y="180" width="100%" height="100%" xlink:href="#m5931cfc352"/>
  <use id="use1202" x="511.44922" y="180" width="100%" height="100%" xlink:href="#m5931cfc352"/>
  <use id="use1204" x="480.27969" y="180" width="100%" height="100%" xlink:href="#m5931cfc352"/>
  <use id="use1206" x="487.24713" y="180" width="100%" height="100%" xlink:href="#m5931cfc352"/>
  <use id="use1208" x="502.03302" y="180" width="100%" height="100%" xlink:href="#m5931cfc352"/>
 </g>
 <path id="path1213" transform="translate(-124.06 -80.171)" d="m269.6 179.65h210.64v0.693h-210.64z" clip-path="url(#p3a75ac21e2)" fill="#f7ede8" stroke="#5b5b5b" stroke-width="2.25"/>
 <path id="path1215" transform="translate(-124.06 -80.171)" d="m269.6 179.31h206.47v1.386h-206.47z" clip-path="url(#p3a75ac21e2)" fill="#f2e1d8" stroke="#5b5b5b" stroke-width="2.25"/>
 <path id="path1217" transform="translate(-124.06 -80.171)" d="m271.55 178.61h190.88v2.772h-190.88z" clip-path="url(#p3a75ac21e2)" fill="#edd5c7" stroke="#5b5b5b" stroke-width="2.25"/>
 <path id="path1219" transform="translate(-124.06 -80.171)" d="m278.83 177.23h169.19v5.544h-169.19z" clip-path="url(#p3a75ac21e2)" fill="#e7c8b6" stroke="#5b5b5b" stroke-width="2.25"/>
 <path id="path1221" transform="translate(-124.06 -80.171)" d="m286.98 174.46h143.83v11.088h-143.83z" clip-path="url(#p3a75ac21e2)" fill="#e2bba6" stroke="#5b5b5b" stroke-width="2.25"/>
 <path id="path1223" transform="translate(-124.06 -80.171)" d="m292.87 168.91h115.03v22.176h-115.03z" clip-path="url(#p3a75ac21e2)" fill="#dcaf95" stroke="#5b5b5b" stroke-width="2.25"/>
 <path id="path1225" transform="translate(-124.06 -80.171)" d="m299.59 157.82h81.724v44.352h-81.724z" clip-path="url(#p3a75ac21e2)" fill="#d7a284" stroke="#5b5b5b" stroke-width="2.25"/>
 <path id="path1227" transform="translate(-124.06 -80.171)" d="m306.88 135.65h54.537v88.704h-54.537z" clip-path="url(#p3a75ac21e2)" fill="#d19674" stroke="#5b5b5b" stroke-width="2.25"/>
 <path id="path1229" transform="translate(-124.06 -80.171)" d="m319.49 91.296h29.315v177.41h-29.315z" clip-path="url(#p3a75ac21e2)" fill="#cc8963" stroke="#5b5b5b" stroke-width="2.25"/>
 <g id="g1252" transform="translate(-124.06 -80.171)" clip-path="url(#p3a75ac21e2)" fill="#5b5b5b" stroke="#5b5b5b" stroke-width="1.5">
  <use id="use1232" x="258.93509" y="401.76001" width="100%" height="100%" xlink:href="#m5931cfc352"/>
  <use id="use1234" x="292.87122" y="401.76001" width="100%" height="100%" xlink:href="#m5931cfc352"/>
  <use id="use1236" x="282.20868" y="401.76001" width="100%" height="100%" xlink:href="#m5931cfc352"/>
  <use id="use1238" x="291.44498" y="401.76001" width="100%" height="100%" xlink:href="#m5931cfc352"/>
  <use id="use1240" x="282.20868" y="401.76001" width="100%" height="100%" xlink:href="#m5931cfc352"/>
  <use id="use1242" x="853.19629" y="401.76001" width="100%" height="100%" xlink:href="#m5931cfc352"/>
  <use id="use1244" x="765.53888" y="401.76001" width="100%" height="100%" xlink:href="#m5931cfc352"/>
  <use id="use1246" x="786.92126" y="401.76001" width="100%" height="100%" xlink:href="#m5931cfc352"/>
  <use id="use1248" x="773.64734" y="401.76001" width="100%" height="100%" xlink:href="#m5931cfc352"/>
  <use id="use1250" x="798.54193" y="401.76001" width="100%" height="100%" xlink:href="#m5931cfc352"/>
 </g>
 <path id="path1255" transform="translate(-124.06 -80.171)" d="m293.26 400.37h468.77v2.772h-468.77z" clip-path="url(#p3a75ac21e2)" fill="#f7ede8" stroke="#5b5b5b" stroke-width="2.25"/>
 <path id="path1257" transform="translate(-124.06 -80.171)" d="m299.59 398.99h442.69v5.544h-442.69z" clip-path="url(#p3a75ac21e2)" fill="#f0ddd2" stroke="#5b5b5b" stroke-width="2.25"/>
 <path id="path1259" transform="translate(-124.06 -80.171)" d="m300.86 396.22h415.55v11.088h-415.55z" clip-path="url(#p3a75ac21e2)" fill="#e9ccbc" stroke="#5b5b5b" stroke-width="2.25"/>
 <path id="path1261" transform="translate(-124.06 -80.171)" d="m310.25 390.67h365.65v22.176h-365.65z" clip-path="url(#p3a75ac21e2)" fill="#e2bba6" stroke="#5b5b5b" stroke-width="2.25"/>
 <path id="path1263" transform="translate(-124.06 -80.171)" d="m319.49 379.58h317.7v44.352h-317.7z" clip-path="url(#p3a75ac21e2)" fill="#daaa8f" stroke="#5b5b5b" stroke-width="2.25"/>
 <path id="path1265" transform="translate(-124.06 -80.171)" d="m333.37 357.41h247.71v88.704h-247.71z" clip-path="url(#p3a75ac21e2)" fill="#d39a79" stroke="#5b5b5b" stroke-width="2.25"/>
 <path id="path1267" transform="translate(-124.06 -80.171)" d="m360.36 313.06h133.53v177.41h-133.53z" clip-path="url(#p3a75ac21e2)" fill="#cc8963" stroke="#5b5b5b" stroke-width="2.25"/>
 <path id="path1270" transform="translate(-124.06 -80.171)" d="m334.93 91.296v177.41" clip-path="url(#p3a75ac21e2)" fill="none" stroke="#262626" stroke-opacity=".45" stroke-width="2.25"/>
 <path id="path1273" transform="translate(-124.06 -80.171)" d="m420.02 313.06v177.41" clip-path="url(#p3a75ac21e2)" fill="none" stroke="#262626" stroke-opacity=".45" stroke-width="2.25"/>
 <g id="g1281" transform="translate(-124.06 -80.171)">
  <use id="use1279" x="972" y="512.64001" width="100%" height="100%" fill="#262626" stroke="#262626" xlink:href="#medf1c90a92"/>
 </g>
 <path id="path1284" d="m10.938 432.47h837" fill="none" stroke="#262626" stroke-linecap="square" stroke-width="1.875"/>
 <defs id="defs1292">
  <clipPath id="p3a75ac21e2">
   <rect id="rect1289" x="135" y="69.12" width="837" height="443.52"/>
  </clipPath>
 </defs>
</svg>
