<?xml version="1.0" encoding="UTF-8" standalone="no"?>
<svg
   width="902.44073"
   height="573.46527"
   viewBox="0 0 902.44075 573.46528"
   version="1.1"
   id="svg1208"
   sodipodi:docname="fuse_layer.svg"
   inkscape:version="1.2.2 (1:1.2.2+202305151914+b0a8486541)"
   xmlns:inkscape="http://www.inkscape.org/namespaces/inkscape"
   xmlns:sodipodi="http://sodipodi.sourceforge.net/DTD/sodipodi-0.dtd"
   xmlns="http://www.w3.org/2000/svg"
   xmlns:svg="http://www.w3.org/2000/svg">
  <sodipodi:namedview
     id="namedview1210"
     pagecolor="#ffffff"
     bordercolor="#999999"
     borderopacity="1"
     inkscape:showpageshadow="0"
     inkscape:pageopacity="0"
     inkscape:pagecheckerboard="0"
     inkscape:deskcolor="#d1d1d1"
     showgrid="false"
     inkscape:zoom="0.82306641"
     inkscape:cx="405.19209"
     inkscape:cy="277.01288"
     inkscape:window-width="1877"
     inkscape:window-height="1037"
     inkscape:window-x="1963"
     inkscape:window-y="43"
     inkscape:window-maximized="1"
     inkscape:current-layer="svg1208" />
  <defs
     id="defs1108">
    <marker
       orient="auto"
       refY="0"
       refX="0"
       id="h"
       overflow="visible">
      <path
         d="M-1.2 0l-1 1 3.5-1-3.5-1 1 1z"
         fill-rule="evenodd"
         stroke="#000"
         stroke-width=".2pt"
         id="path1084" />
    </marker>
    <marker
       id="g"
       refX="0"
       refY="0"
       orient="auto"
       overflow="visible">
      <path
         d="M-1.2 0l-1 1 3.5-1-3.5-1 1 1z"
         fill-rule="evenodd"
         stroke="#000"
         stroke-width=".2pt"
         id="path1087" />
    </marker>
    <marker
       orient="auto"
       refY="0"
       refX="0"
       id="f"
       overflow="visible">
      <path
         d="M-1.2 0l-1 1 3.5-1-3.5-1 1 1z"
         fill-rule="evenodd"
         stroke="#000"
         stroke-width=".2pt"
         id="path1090" />
    </marker>
    <marker
       id="d"
       refX="0"
       refY="0"
       orient="auto"
       overflow="visible">
      <path
         d="M-1.2 0l-1 1 3.5-1-3.5-1 1 1z"
         fill="#7f7f7f"
         fill-rule="evenodd"
         stroke="#7f7f7f"
         stroke-width=".2pt"
         id="path1093" />
    </marker>
    <marker
       id="c"
       refX="0"
       refY="0"
       orient="auto"
       overflow="visible">
      <path
         d="M1.925576 1.21012L-1.352187.004805l3.277764-1.205316c-.52365.711618-.520633 1.685235 0 2.410633z"
         fill="#7f7f7f"
         fill-rule="evenodd"
         stroke="#7f7f7f"
         stroke-width=".1875"
         stroke-linejoin="round"
         id="path1096" />
    </marker>
    <marker
       orient="auto"
       refY="0"
       refX="0"
       id="b"
       overflow="visible">
      <path
         d="m -1.2,0 -1,1 3.5,-1 -3.5,-1 z"
         fill="#7f7f7f"
         fill-rule="evenodd"
         stroke="#7f7f7f"
         stroke-width="0.2pt"
         id="path1099" />
    </marker>
    <marker
       orient="auto"
       refY="0"
       refX="0"
       id="a"
       overflow="visible">
      <path
         d="M 1.925576,1.21012 -1.352187,0.004805 1.925577,-1.200511 c -0.52365,0.711618 -0.520633,1.685235 0,2.410633 z"
         fill="#7f7f7f"
         fill-rule="evenodd"
         stroke="#7f7f7f"
         stroke-width="0.1875"
         stroke-linejoin="round"
         id="path1102" />
    </marker>
    <marker
       id="e"
       refX="0"
       refY="0"
       orient="auto"
       overflow="visible">
      <path
         d="M-1.2 0l-1 1 3.5-1-3.5-1 1 1z"
         fill-rule="evenodd"
         stroke="#000"
         stroke-width=".2pt"
         id="path1105" />
    </marker>
  </defs>
  <path
     d="M731.10786 6.97099v559.52328c0 .26093-.21872.47099-.49041.47099H171.38746c-.27169 0-.49041-.21006-.49041-.47099V6.97099c0-.26093.21872-.47099.49041-.47099h559.22999c.27169 0 .49041.21006.49041.47099z"
     fill="none"
     stroke="#d62728"
     stroke-width="3"
     id="path1110"
     style="stroke:#c44e52" />
  <g
     transform="rotate(90 573.78213 459.80047)"
     id="g1118">
    <rect
       width="378.57144"
       height="71.428581"
       x="211.42857"
       y="656.64795"
       rx="1.087367"
       ry=".966942"
       fill="#1f77b4"
       id="rect1112"
       style="fill:#5f9e6e" />
    <g
       aria-label="CONCAT"
       id="text1116"
       style="font-size:40px;line-height:125%;letter-spacing:0;word-spacing:0;fill:#ffffff">
      <path
         d="m 339.69623,698.20697 q -0.59326,5.07568 -3.75733,7.84424 -3.14209,2.74658 -8.37158,2.74658 -5.66894,0 -9.09668,-4.06494 -3.40576,-4.06494 -3.40576,-10.87647 v -3.07617 q 0,-4.46045 1.58203,-7.84424 1.60401,-3.38378 4.52637,-5.18554 2.92236,-1.82373 6.76758,-1.82373 5.09765,0 8.17383,2.85644 3.07617,2.83447 3.58154,7.86621 h -4.24072 q -0.54932,-3.82324 -2.39502,-5.53711 -1.82373,-1.71386 -5.11963,-1.71386 -4.04297,0 -6.3501,2.98828 -2.28516,2.98828 -2.28516,8.50342 v 3.09814 q 0,5.20752 2.1753,8.28369 2.17529,3.07617 6.08642,3.07617 3.51563,0 5.3833,-1.58203 1.88965,-1.604 2.50489,-5.55908 z"
         style="font-size:45px;font-family:Roboto;-inkscape-font-specification:Roboto"
         id="path399" />
      <path
         d="m 370.06244,693.39496 q 0,4.70215 -1.58203,8.21777 -1.58203,3.49365 -4.48242,5.33936 -2.90039,1.8457 -6.76758,1.8457 -3.7793,0 -6.70166,-1.8457 -2.92237,-1.86768 -4.54834,-5.29541 -1.60401,-3.44971 -1.64795,-7.97608 v -2.30713 q 0,-4.61425 1.604,-8.15185 1.60401,-3.5376 4.52637,-5.40527 2.94434,-1.88965 6.72363,-1.88965 3.84522,0 6.76758,1.86767 2.94434,1.84571 4.52637,5.3833 1.58203,3.51563 1.58203,8.1958 z m -4.19678,-2.06543 q 0,-5.69092 -2.28515,-8.72315 -2.28516,-3.05419 -6.39405,-3.05419 -3.99902,0 -6.30615,3.05419 -2.28516,3.03223 -2.35107,8.4375 v 2.35108 q 0,5.51514 2.30712,8.6792 2.32911,3.14209 6.39405,3.14209 4.08691,0 6.32812,-2.96631 2.24121,-2.98828 2.30713,-8.54736 z"
         style="font-size:45px;font-family:Roboto;-inkscape-font-specification:Roboto"
         id="path401" />
      <path
         d="m 400.97797,708.35834 h -4.24073 l -16.10595,-24.65332 v 24.65332 h -4.24073 v -31.99219 h 4.24073 l 16.1499,24.76318 v -24.76318 h 4.19678 z"
         style="font-size:45px;font-family:Roboto;-inkscape-font-specification:Roboto"
         id="path403" />
      <path
         d="m 432.00336,698.20697 q -0.59326,5.07568 -3.75733,7.84424 -3.14209,2.74658 -8.37158,2.74658 -5.66894,0 -9.09668,-4.06494 -3.40576,-4.06494 -3.40576,-10.87647 v -3.07617 q 0,-4.46045 1.58203,-7.84424 1.604,-3.38378 4.52637,-5.18554 2.92236,-1.82373 6.76758,-1.82373 5.09765,0 8.17382,2.85644 3.07618,2.83447 3.58155,7.86621 h -4.24073 q -0.54931,-3.82324 -2.39502,-5.53711 -1.82373,-1.71386 -5.11962,-1.71386 -4.04297,0 -6.3501,2.98828 -2.28516,2.98828 -2.28516,8.50342 v 3.09814 q 0,5.20752 2.17529,8.28369 2.1753,3.07617 6.08643,3.07617 3.51563,0 5.3833,-1.58203 1.88965,-1.604 2.50488,-5.55908 z"
         style="font-size:45px;font-family:Roboto;-inkscape-font-specification:Roboto"
         id="path405" />
      <path
         d="m 455.42621,700.00873 h -13.40332 l -3.01026,8.34961 h -4.35058 l 12.2168,-31.99219 h 3.6914 l 12.23877,31.99219 h -4.32861 z m -12.12891,-3.47168 h 10.87647 l -5.44922,-14.96338 z"
         style="font-size:45px;font-family:Roboto;-inkscape-font-specification:Roboto"
         id="path407" />
      <path
         d="m 486.38568,679.83783 h -10.2832 v 28.52051 h -4.19678 v -28.52051 h -10.26123 v -3.47168 h 24.74121 z"
         style="font-size:45px;font-family:Roboto;-inkscape-font-specification:Roboto"
         id="path409" />
    </g>
  </g>
  <g
     transform="rotate(90 683.78215 569.80049)"
     id="g1126">
    <rect
       ry=".966942"
       rx="1.087367"
       y="656.64795"
       x="211.42857"
       height="71.428581"
       width="378.57144"
       fill="#2ca02c"
       id="rect1120"
       style="fill:#5875a4" />
    <g
       aria-label="1x1 CONV"
       id="text1124"
       style="font-size:40px;line-height:125%;letter-spacing:0;word-spacing:0;fill:#ffffff">
      <path
         d="m 312.6369,708.35834 h -4.08691 v -27.09229 l -8.1958,3.01026 v -3.69141 l 11.6455,-4.37256 h 0.63721 z"
         style="font-size:45px;font-family:Roboto;-inkscape-font-specification:Roboto"
         id="path412" />
      <path
         d="m 332.93964,693.26312 5.27343,-8.6792 h 4.7461 l -7.77832,11.75537 8.02002,12.01905 h -4.70215 l -5.49317,-8.89893 -5.49316,8.89893 h -4.72412 l 8.02002,-12.01905 -7.77832,-11.75537 h 4.70215 z"
         style="font-size:45px;font-family:Roboto;-inkscape-font-specification:Roboto"
         id="path414" />
      <path
         d="m 360.2077,708.35834 h -4.08691 v -27.09229 l -8.1958,3.01026 v -3.69141 l 11.64551,-4.37256 h 0.6372 z"
         style="font-size:45px;font-family:Roboto;-inkscape-font-specification:Roboto"
         id="path416" />
      <path
         d="m 407.84442,698.20697 q -0.59326,5.07568 -3.75732,7.84424 -3.14209,2.74658 -8.37158,2.74658 -5.66895,0 -9.09668,-4.06494 -3.40577,-4.06494 -3.40577,-10.87647 v -3.07617 q 0,-4.46045 1.58203,-7.84424 1.60401,-3.38378 4.52637,-5.18554 2.92237,-1.82373 6.76758,-1.82373 5.09766,0 8.17383,2.85644 3.07617,2.83447 3.58154,7.86621 h -4.24072 q -0.54932,-3.82324 -2.39502,-5.53711 -1.82373,-1.71386 -5.11963,-1.71386 -4.04297,0 -6.3501,2.98828 -2.28515,2.98828 -2.28515,8.50342 v 3.09814 q 0,5.20752 2.17529,8.28369 2.17529,3.07617 6.08643,3.07617 3.51562,0 5.3833,-1.58203 1.88964,-1.604 2.50488,-5.55908 z"
         style="font-size:45px;font-family:Roboto;-inkscape-font-specification:Roboto"
         id="path418" />
      <path
         d="m 438.21063,693.39496 q 0,4.70215 -1.58203,8.21777 -1.58203,3.49365 -4.48242,5.33936 -2.90039,1.8457 -6.76758,1.8457 -3.7793,0 -6.70166,-1.8457 -2.92236,-1.86768 -4.54834,-5.29541 -1.604,-3.44971 -1.64795,-7.97608 v -2.30713 q 0,-4.61425 1.60401,-8.15185 1.604,-3.5376 4.52636,-5.40527 2.94434,-1.88965 6.72364,-1.88965 3.84521,0 6.76757,1.86767 2.94434,1.84571 4.52637,5.3833 1.58203,3.51563 1.58203,8.1958 z m -4.19678,-2.06543 q 0,-5.69092 -2.28515,-8.72315 -2.28516,-3.05419 -6.39404,-3.05419 -3.99903,0 -6.30616,3.05419 -2.28515,3.03223 -2.35107,8.4375 v 2.35108 q 0,5.51514 2.30713,8.6792 2.3291,3.14209 6.39404,3.14209 4.08692,0 6.32813,-2.96631 2.24121,-2.98828 2.30712,-8.54736 z"
         style="font-size:45px;font-family:Roboto;-inkscape-font-specification:Roboto"
         id="path420" />
      <path
         d="m 469.12616,708.35834 h -4.24072 l -16.10596,-24.65332 v 24.65332 h -4.24072 v -31.99219 h 4.24072 l 16.1499,24.76318 v -24.76318 h 4.19678 z"
         style="font-size:45px;font-family:Roboto;-inkscape-font-specification:Roboto"
         id="path422" />
      <path
         d="m 487.20966,702.75531 9.14062,-26.38916 h 4.61426 l -11.86524,31.99219 h -3.73535 l -11.84326,-31.99219 h 4.59229 z"
         style="font-size:45px;font-family:Roboto;-inkscape-font-specification:Roboto"
         id="path424" />
    </g>
  </g>
  <g
     transform="translate(65.016695 -257.00675) scale(.55556)"
     fill="#fff"
     stroke="#7f7f7f"
     stroke-width="5.4"
     id="g1134">
    <rect
       ry=".882749"
       rx="1.08737"
       y="792.36218"
       x="302.85715"
       height="77.14286"
       width="77.14286"
       id="rect1128"
       style="stroke:#8c8c8c" />
    <rect
       width="77.14286"
       height="77.14286"
       x="282.85715"
       y="812.36218"
       rx="1.08737"
       ry=".882749"
       id="rect1130"
       style="stroke:#8c8c8c" />
    <rect
       ry=".882749"
       rx="1.08737"
       y="832.36218"
       x="262.85715"
       height="77.14286"
       width="77.14286"
       id="rect1132"
       style="stroke:#8c8c8c" />
  </g>
  <path
     d="M320.72343 865.98906l41.16372-41.16372"
     style="isolation:auto;mix-blend-mode:normal;solid-color:#000;solid-opacity:1;stroke:#8c8c8c"
     color="#000"
     overflow="visible"
     fill="none"
     stroke="#7f7f7f"
     stroke-width="3"
     marker-start="url(#a)"
     marker-end="url(#b)"
     transform="translate(-68.38358 -603.21721)"
     id="path1136" />
  <g
     aria-label="M"
     transform="translate(-68.38358 -603.21721)"
     id="text1140"
     style="font-size:40px;line-height:125%;letter-spacing:0;word-spacing:0;fill:#8c8c8c">
    <path
       d="m 347.03647,846.19696 4.64844,11.60156 4.64843,-11.60156 h 2.43164 v 14.21875 h -1.875 v -5.53711 l 0.17579,-5.97656 -4.66797,11.51367 h -1.43555 l -4.6582,-11.48437 0.18554,5.94726 v 5.53711 h -1.875 v -14.21875 z"
       style="font-size:20px;font-family:Roboto;-inkscape-font-specification:Roboto"
       id="path427" />
  </g>
  <g
     transform="translate(65.016695 -10.962444) scale(.55556)"
     fill="#fff"
     stroke="#7f7f7f"
     stroke-width="5.4"
     id="g1148">
    <rect
       width="77.14286"
       height="77.14286"
       x="302.85715"
       y="792.36218"
       rx="1.08737"
       ry=".882749"
       id="rect1142"
       style="stroke:#8c8c8c" />
    <rect
       ry=".882749"
       rx="1.08737"
       y="812.36218"
       x="282.85715"
       height="77.14286"
       width="77.14286"
       id="rect1144"
       style="stroke:#8c8c8c" />
    <rect
       width="77.14286"
       height="77.14286"
       x="262.85715"
       y="832.36218"
       rx="1.08737"
       ry=".882749"
       id="rect1146"
       style="stroke:#8c8c8c" />
  </g>
  <path
     style="isolation:auto;mix-blend-mode:normal;solid-color:#000;solid-opacity:1;stroke:#8c8c8c"
     d="M320.72343 865.98906l41.16372-41.16372"
     color="#000"
     overflow="visible"
     fill="none"
     stroke="#7f7f7f"
     stroke-width="3"
     marker-start="url(#c)"
     marker-end="url(#d)"
     transform="translate(-68.38358 -357.172904)"
     id="path1150" />
  <g
     aria-label="M"
     transform="translate(-68.38358 -357.172904)"
     id="text1154"
     style="font-size:40px;line-height:125%;letter-spacing:0;word-spacing:0;fill:#8c8c8c">
    <path
       d="m 347.03647,846.19696 4.64844,11.60156 4.64843,-11.60156 h 2.43164 v 14.21875 h -1.875 v -5.53711 l 0.17579,-5.97656 -4.66797,11.51367 h -1.43555 l -4.6582,-11.48437 0.18554,5.94726 v 5.53711 h -1.875 v -14.21875 z"
       style="font-size:20px;font-family:Roboto;-inkscape-font-specification:Roboto"
       id="path430" />
  </g>
  <path
     d="M-76.93464 415.05438H214.7964"
     style="isolation:auto;mix-blend-mode:normal;solid-color:#000;solid-opacity:1"
     color="#000"
     overflow="visible"
     fill="none"
     stroke="#000"
     stroke-width="5"
     marker-end="url(#e)"
     transform="translate(81.93464 -251.3439)"
     id="path1156" />
  <path
     style="isolation:auto;mix-blend-mode:normal;solid-color:#000;solid-opacity:1"
     d="M-76.93464 661.09869H214.7964"
     color="#000"
     overflow="visible"
     fill="none"
     stroke="#000"
     stroke-width="5"
     marker-end="url(#f)"
     transform="translate(81.93464 -251.3439)"
     id="path1158" />
  <g
     aria-label="Subnet 1"
     transform="translate(81.93464 -251.3439)"
     id="text1162"
     style="font-size:40px;line-height:125%;letter-spacing:0;word-spacing:0">
    <path
       d="m -69.979073,399.80765 q -3.31665,-0.95337 -4.833984,-2.33643 -1.503906,-1.39648 -1.503906,-3.4375 0,-2.30957 1.839599,-3.81347 1.853028,-1.51734 4.807129,-1.51734 2.01416,0 3.585205,0.77881 1.584473,0.77881 2.443848,2.14844 0.872803,1.36963 0.872803,2.99438 h -2.591553 q 0,-1.77246 -1.12793,-2.77954 -1.127929,-1.02051 -3.182373,-1.02051 -1.906738,0 -2.980957,0.84595 -1.060791,0.83252 -1.060791,2.323 0,1.19507 1.00708,2.02759 1.020508,0.81909 3.450928,1.5039 2.443848,0.68482 3.813477,1.51734 1.383056,0.81909 2.041015,1.92016 0.671387,1.10108 0.671387,2.59156 0,2.3767 -1.853027,3.81347 -1.853028,1.42334 -4.954834,1.42334 -2.01416,0 -3.759766,-0.76538 -1.745605,-0.77881 -2.698975,-2.12158 -0.939941,-1.34277 -0.939941,-3.0481 h 2.591553 q 0,1.77246 1.30249,2.8064 1.315918,1.02051 3.504639,1.02051 2.041015,0 3.128662,-0.83252 1.087646,-0.83252 1.087646,-2.26929 0,-1.43677 -1.00708,-2.21558 -1.00708,-0.79223 -3.652344,-1.55761 z"
       style="font-size:27.5px;font-family:Roboto;-inkscape-font-specification:Roboto"
       id="path433" />
    <path
       d="m -50.844551,407.08548 q -1.450195,1.70532 -4.256592,1.70532 -2.322998,0 -3.544922,-1.34277 -1.208496,-1.3562 -1.221924,-4.00147 v -9.45312 h 2.484131 v 9.38599 q 0,3.30322 2.685547,3.30322 2.84668,0 3.786621,-2.12158 v -10.56763 h 2.484131 v 14.52881 h -2.363281 z"
       style="font-size:27.5px;font-family:Roboto;-inkscape-font-specification:Roboto"
       id="path435" />
    <path
       d="m -32.354561,401.41898 q 0,3.33007 -1.530762,5.35766 -1.530761,2.01416 -4.108886,2.01416 -2.752686,0 -4.256592,-1.94702 l -0.12085,1.67847 h -2.282715 v -20.625 h 2.484131 v 7.69409 q 1.503907,-1.86646 4.14917,-1.86646 2.645264,0 4.14917,2.00074 1.517334,2.00073 1.517334,5.47851 z m -2.484131,-0.28199 q 0,-2.53784 -0.980224,-3.9209 -0.980225,-1.38305 -2.819825,-1.38305 -2.457275,0 -3.531494,2.28271 v 6.28418 q 1.141358,2.28272 3.55835,2.28272 1.785889,0 2.779541,-1.38306 0.993652,-1.38306 0.993652,-4.1626 z"
       style="font-size:27.5px;font-family:Roboto;-inkscape-font-specification:Roboto"
       id="path437" />
    <path
       d="m -26.876045,393.99344 0.08057,1.82617 q 1.665039,-2.09473 4.350586,-2.09473 4.605713,0 4.645996,5.19654 v 9.60083 h -2.484131 v -9.61426 q -0.01343,-1.57105 -0.725097,-2.323 -0.698242,-0.75195 -2.188721,-0.75195 -1.208496,0 -2.121582,0.64453 -0.913086,0.64453 -1.42334,1.69189 v 10.35279 h -2.484131 v -14.52881 z"
       style="font-size:27.5px;font-family:Roboto;-inkscape-font-specification:Roboto"
       id="path439" />
    <path
       d="m -8.0235062,408.7908 q -2.9541018,0 -4.8071288,-1.93359 -1.853027,-1.94702 -1.853027,-5.19653 v -0.45655 q 0,-2.16186 0.819091,-3.85376 0.83252,-1.70532 2.309571,-2.65869 1.490478,-0.9668 3.2226559,-0.9668 2.833252,0 4.4042969,1.86646 1.5710449,1.86645 1.5710449,5.34424 v 1.03393 h -9.8425297 q 0.05371,2.14844 1.24878,3.47779 1.2084958,1.31591 3.0615232,1.31591 1.3159179,0 2.2290039,-0.53711 0.9130859,-0.5371 1.5979004,-1.42334 l 1.517334,1.18165 q -1.8261719,2.80639 -5.4785157,2.80639 z m -0.3088379,-13.0249 q -1.5039062,0 -2.5244139,1.10107 -1.020508,1.08765 -1.262207,3.06153 h 7.2778319 v -0.18799 q -0.1074219,-1.89331 -1.0205078,-2.92725 -0.913086,-1.04736 -2.4707032,-1.04736 z"
       style="font-size:27.5px;font-family:Roboto;-inkscape-font-specification:Roboto"
       id="path441" />
    <path
       d="m 3.8868942,390.47537 v 3.51807 h 2.7124024 v 1.92016 H 3.8868942 v 9.01001 q 0,0.87281 0.3625489,1.31592 0.3625488,0.42969 1.2353515,0.42969 0.4296875,0 1.1816406,-0.16113 v 2.01416 q -0.9802246,0.26855 -1.9067382,0.26855 -1.6650391,0 -2.5109864,-1.00708 -0.8459472,-1.00708 -0.8459472,-2.86011 v -9.01001 h -2.6452637 v -1.92016 h 2.6452637 v -3.51807 z"
       style="font-size:27.5px;font-family:Roboto;-inkscape-font-specification:Roboto"
       id="path443" />
    <path
       d="m 24.216484,408.52225 h -2.497559 v -16.5564 l -5.008544,1.8396 v -2.25586 l 7.116699,-2.67212 h 0.389404 z"
       style="font-size:27.5px;font-family:Roboto;-inkscape-font-specification:Roboto"
       id="path445" />
  </g>
  <g
     aria-label="Subnet 2"
     transform="translate(81.93464 -251.3439)"
     id="text1166"
     style="font-size:40px;line-height:125%;letter-spacing:0;word-spacing:0">
    <path
       d="m -69.979073,645.85199 q -3.31665,-0.95337 -4.833984,-2.33643 -1.503906,-1.39648 -1.503906,-3.4375 0,-2.30957 1.839599,-3.81347 1.853028,-1.51734 4.807129,-1.51734 2.01416,0 3.585205,0.77881 1.584473,0.77881 2.443848,2.14844 0.872803,1.36963 0.872803,2.99438 h -2.591553 q 0,-1.77246 -1.12793,-2.77954 -1.127929,-1.0205 -3.182373,-1.0205 -1.906738,0 -2.980957,0.84594 -1.060791,0.83252 -1.060791,2.323 0,1.19507 1.00708,2.02759 1.020508,0.81909 3.450928,1.5039 2.443848,0.68482 3.813477,1.51734 1.383056,0.81909 2.041015,1.92016 0.671387,1.10108 0.671387,2.59156 0,2.37671 -1.853027,3.81347 -1.853028,1.42334 -4.954834,1.42334 -2.01416,0 -3.759766,-0.76538 -1.745605,-0.77881 -2.698975,-2.12158 -0.939941,-1.34277 -0.939941,-3.04809 h 2.591553 q 0,1.77246 1.30249,2.80639 1.315918,1.02051 3.504639,1.02051 2.041015,0 3.128662,-0.83252 1.087646,-0.83252 1.087646,-2.26929 0,-1.43676 -1.00708,-2.21557 -1.00708,-0.79224 -3.652344,-1.55762 z"
       style="font-size:27.5px;font-family:Roboto;-inkscape-font-specification:Roboto"
       id="path448" />
    <path
       d="m -50.844551,653.12982 q -1.450195,1.70532 -4.256592,1.70532 -2.322998,0 -3.544922,-1.34277 -1.208496,-1.3562 -1.221924,-4.00146 v -9.45313 h 2.484131 v 9.38599 q 0,3.30322 2.685547,3.30322 2.84668,0 3.786621,-2.12158 v -10.56763 h 2.484131 v 14.52881 h -2.363281 z"
       style="font-size:27.5px;font-family:Roboto;-inkscape-font-specification:Roboto"
       id="path450" />
    <path
       d="m -32.354561,647.46332 q 0,3.33008 -1.530762,5.35766 -1.530761,2.01416 -4.108886,2.01416 -2.752686,0 -4.256592,-1.94702 l -0.12085,1.67847 h -2.282715 v -20.625 h 2.484131 v 7.69409 q 1.503907,-1.86645 4.14917,-1.86645 2.645264,0 4.14917,2.00073 1.517334,2.00073 1.517334,5.47851 z m -2.484131,-0.28198 q 0,-2.53785 -0.980224,-3.9209 -0.980225,-1.38306 -2.819825,-1.38306 -2.457275,0 -3.531494,2.28272 v 6.28417 q 1.141358,2.28272 3.55835,2.28272 1.785889,0 2.779541,-1.38306 0.993652,-1.38305 0.993652,-4.16259 z"
       style="font-size:27.5px;font-family:Roboto;-inkscape-font-specification:Roboto"
       id="path452" />
    <path
       d="m -26.876045,640.03778 0.08057,1.82617 q 1.665039,-2.09472 4.350586,-2.09472 4.605713,0 4.645996,5.19653 v 9.60083 h -2.484131 v -9.61426 q -0.01343,-1.57104 -0.725097,-2.323 -0.698242,-0.75195 -2.188721,-0.75195 -1.208496,0 -2.121582,0.64453 -0.913086,0.64453 -1.42334,1.6919 v 10.35278 h -2.484131 v -14.52881 z"
       style="font-size:27.5px;font-family:Roboto;-inkscape-font-specification:Roboto"
       id="path454" />
    <path
       d="m -8.0235062,654.83514 q -2.9541018,0 -4.8071288,-1.93359 -1.853027,-1.94702 -1.853027,-5.19653 v -0.45655 q 0,-2.16186 0.819091,-3.85376 0.83252,-1.70532 2.309571,-2.65869 1.490478,-0.96679 3.2226559,-0.96679 2.833252,0 4.4042969,1.86645 1.5710449,1.86646 1.5710449,5.34424 v 1.03393 h -9.8425297 q 0.05371,2.14844 1.24878,3.47779 1.2084958,1.31592 3.0615232,1.31592 1.3159179,0 2.2290039,-0.53711 0.9130859,-0.53711 1.5979004,-1.42334 l 1.517334,1.18164 q -1.8261719,2.80639 -5.4785157,2.80639 z m -0.3088379,-13.0249 q -1.5039062,0 -2.5244139,1.10108 -1.020508,1.08764 -1.262207,3.06152 h 7.2778319 v -0.18799 q -0.1074219,-1.89331 -1.0205078,-2.92725 -0.913086,-1.04736 -2.4707032,-1.04736 z"
       style="font-size:27.5px;font-family:Roboto;-inkscape-font-specification:Roboto"
       id="path456" />
    <path
       d="m 3.8868942,636.51971 v 3.51807 h 2.7124024 v 1.92017 H 3.8868942 v 9.01001 q 0,0.8728 0.3625489,1.31591 0.3625488,0.42969 1.2353515,0.42969 0.4296875,0 1.1816406,-0.16113 v 2.01416 q -0.9802246,0.26855 -1.9067382,0.26855 -1.6650391,0 -2.5109864,-1.00708 -0.8459472,-1.00708 -0.8459472,-2.8601 v -9.01001 h -2.6452637 v -1.92017 h 2.6452637 v -3.51807 z"
       style="font-size:27.5px;font-family:Roboto;-inkscape-font-specification:Roboto"
       id="path458" />
    <path
       d="M 28.86248,654.56659 H 16.052422 V 652.7807 L 22.82,645.26117 q 1.503906,-1.70532 2.067871,-2.76611 0.577392,-1.07422 0.577392,-2.21558 0,-1.53076 -0.926513,-2.51099 -0.926514,-0.98022 -2.470703,-0.98022 -1.853028,0 -2.886963,1.06079 -1.020508,1.04736 -1.020508,2.92725 h -2.484131 q 0,-2.69898 1.732178,-4.36402 1.745605,-1.66504 4.659424,-1.66504 2.72583,0 4.310302,1.43677 1.584473,1.42334 1.584473,3.80005 0,2.88696 -3.679199,6.875 l -5.236817,5.67993 h 9.815674 z"
       style="font-size:27.5px;font-family:Roboto;-inkscape-font-specification:Roboto"
       id="path460" />
  </g>
  <path
     d="M295.00001 538.07653H434.7964"
     style="isolation:auto;mix-blend-mode:normal;solid-color:#000;solid-opacity:1"
     color="#000"
     overflow="visible"
     fill="none"
     stroke="#000"
     stroke-width="5"
     marker-end="url(#g)"
     transform="translate(81.93464 -251.3439)"
     id="path1168" />
  <g
     transform="translate(260.153967 -131.28899) scale(.55556)"
     fill="#fff"
     stroke="#7f7f7f"
     stroke-width="5.4"
     id="g1176">
    <rect
       width="77.14286"
       height="77.14286"
       x="302.85715"
       y="792.36218"
       rx="1.08737"
       ry=".882749"
       id="rect1170"
       style="stroke:#8c8c8c" />
    <rect
       ry=".882749"
       rx="1.08737"
       y="812.36218"
       x="282.85715"
       height="77.14286"
       width="77.14286"
       id="rect1172"
       style="stroke:#8c8c8c" />
    <rect
       width="77.14286"
       height="77.14286"
       x="262.85715"
       y="832.36218"
       rx="1.08737"
       ry=".882749"
       id="rect1174"
       style="stroke:#8c8c8c" />
  </g>
  <path
     style="isolation:auto;mix-blend-mode:normal;solid-color:#000;solid-opacity:1;stroke:#8c8c8c"
     d="M320.72343 865.98906l41.16372-41.16372"
     color="#000"
     overflow="visible"
     fill="none"
     stroke="#7f7f7f"
     stroke-width="3"
     marker-start="url(#a)"
     marker-end="url(#b)"
     transform="translate(126.753692 -477.49945)"
     id="path1178" />
  <g
     aria-label="2M"
     transform="translate(126.753692 -477.49945)"
     id="text1182"
     style="font-size:40px;line-height:125%;letter-spacing:0;word-spacing:0;fill:#8c8c8c">
    <path
       d="m 353.46225,860.41571 h -9.31641 v -1.29883 l 4.92188,-5.46875 q 1.09375,-1.24023 1.5039,-2.01172 0.41993,-0.78125 0.41993,-1.61132 0,-1.11329 -0.67383,-1.82618 -0.67383,-0.71289 -1.79688,-0.71289 -1.34765,0 -2.09961,0.77149 -0.74218,0.76172 -0.74218,2.1289 h -1.80664 q 0,-1.96289 1.25976,-3.17382 1.26953,-1.21094 3.38867,-1.21094 1.98243,0 3.13477,1.04492 1.15234,1.03516 1.15234,2.76367 0,2.09961 -2.67578,5 l -3.80859,4.13086 h 7.13867 z"
       style="font-size:20px;font-family:Roboto;-inkscape-font-specification:Roboto"
       id="path463" />
    <path
       d="m 358.26694,846.19696 4.64843,11.60156 4.64844,-11.60156 h 2.43164 v 14.21875 h -1.875 v -5.53711 l 0.17578,-5.97656 -4.66796,11.51367 h -1.43555 l -4.6582,-11.48437 0.18554,5.94726 v 5.53711 h -1.875 v -14.21875 z"
       style="font-size:20px;font-family:Roboto;-inkscape-font-specification:Roboto"
       id="path465" />
  </g>
  <g
     aria-label="Network"
     transform="translate(81.93464 -251.3439)"
     id="text1186"
     style="font-size:40px;line-height:125%;letter-spacing:0;word-spacing:0">
    <path
       d="m 700.10571,531.54443 h -2.59155 l -9.84253,-15.06591 v 15.06591 h -2.59155 v -19.55078 h 2.59155 l 9.86939,15.13306 v -15.13306 h 2.56469 z"
       style="font-size:27.5px;font-family:Roboto;-inkscape-font-specification:Roboto"
       id="path468" />
    <path
       d="m 710.32422,531.81299 q -2.9541,0 -4.80713,-1.9336 -1.85303,-1.94702 -1.85303,-5.19653 v -0.45654 q 0,-2.16187 0.81909,-3.85376 0.83252,-1.70532 2.30957,-2.65869 1.49048,-0.9668 3.22266,-0.9668 2.83325,0 4.4043,1.86646 1.57104,1.86645 1.57104,5.34423 v 1.03394 h -9.84253 q 0.0537,2.14844 1.24878,3.47778 1.2085,1.31592 3.06153,1.31592 1.31591,0 2.229,-0.53711 0.91309,-0.53711 1.5979,-1.42334 l 1.51733,1.18164 q -1.82617,2.8064 -5.47851,2.8064 z m -0.30884,-13.0249 q -1.50391,0 -2.52441,1.10107 -1.02051,1.08765 -1.26221,3.06152 h 7.27783 v -0.18798 q -0.10742,-1.89332 -1.02051,-2.92725 -0.91308,-1.04736 -2.4707,-1.04736 z"
       style="font-size:27.5px;font-family:Roboto;-inkscape-font-specification:Roboto"
       id="path470" />
    <path
       d="m 722.23462,513.49756 v 3.51806 h 2.7124 v 1.92017 h -2.7124 v 9.01001 q 0,0.8728 0.36255,1.31592 0.36255,0.42969 1.23535,0.42969 0.42969,0 1.18164,-0.16114 v 2.01416 q -0.98022,0.26856 -1.90674,0.26856 -1.66504,0 -2.51098,-1.00708 -0.84595,-1.00708 -0.84595,-2.86011 v -9.01001 h -2.64527 v -1.92017 h 2.64527 v -3.51806 z"
       style="font-size:27.5px;font-family:Roboto;-inkscape-font-specification:Roboto"
       id="path472" />
    <path
       d="m 740.71118,528.12036 2.79297,-11.10474 h 2.48413 l -4.22974,14.52881 h -2.01416 l -3.53149,-11.01074 -3.4375,11.01074 h -2.01416 l -4.21631,-14.52881 h 2.4707 l 2.86011,10.87647 3.38379,-10.87647 h 2.00073 z"
       style="font-size:27.5px;font-family:Roboto;-inkscape-font-specification:Roboto"
       id="path474" />
    <path
       d="m 747.85474,524.14575 q 0,-2.13501 0.83252,-3.84033 0.84594,-1.70532 2.33642,-2.63184 1.50391,-0.92651 3.42407,-0.92651 2.96753,0 4.79371,2.05444 1.83959,2.05445 1.83959,5.46509 v 0.17456 q 0,2.12158 -0.81909,3.81348 -0.80566,1.67847 -2.323,2.61841 -1.5039,0.93994 -3.46435,0.93994 -2.9541,0 -4.7937,-2.05445 -1.82617,-2.05444 -1.82617,-5.43823 z m 2.49755,0.29541 q 0,2.41699 1.11451,3.88062 1.12793,1.46362 3.00781,1.46362 1.89331,0 3.00781,-1.47705 1.1145,-1.49048 1.1145,-4.1626 0,-2.39013 -1.14135,-3.86719 -1.12793,-1.49047 -3.00782,-1.49047 -1.8396,0 -2.96753,1.46362 -1.12793,1.46362 -1.12793,4.18945 z"
       style="font-size:27.5px;font-family:Roboto;-inkscape-font-specification:Roboto"
       id="path476" />
    <path
       d="m 771.21899,519.24463 q -0.56396,-0.094 -1.22192,-0.094 -2.44385,0 -3.31665,2.0813 v 10.3125 h -2.48413 v -14.52881 h 2.41699 l 0.0403,1.67847 q 1.22193,-1.94702 3.46436,-1.94702 0.7251,0 1.10107,0.18799 z"
       style="font-size:27.5px;font-family:Roboto;-inkscape-font-specification:Roboto"
       id="path478" />
    <path
       d="m 777.55688,524.81714 -1.55761,1.62475 v 5.10254 h -2.48413 v -20.625 h 2.48413 v 12.47437 l 1.32934,-1.5979 4.52515,-4.78028 h 3.02124 l -5.65308,6.06934 6.31104,8.45947 h -2.91382 z"
       style="font-size:27.5px;font-family:Roboto;-inkscape-font-specification:Roboto"
       id="path480" />
  </g>
  <path
     style="isolation:auto;mix-blend-mode:normal;solid-color:#000;solid-opacity:1"
     d="M515.00001 538.07653h291.73104"
     color="#000"
     overflow="visible"
     fill="none"
     stroke="#000"
     stroke-width="5"
     marker-end="url(#h)"
     transform="translate(81.93464 -251.3439)"
     id="path1188" />
  <g
     fill="#fff"
     stroke="#7f7f7f"
     stroke-width="3"
     transform="translate(219.66494 6.59159)"
     id="g1196">
    <rect
       width="42.857147"
       height="42.857147"
       x="409.27151"
       y="299.62503"
       rx=".604095"
       ry=".490416"
       id="rect1190"
       style="stroke:#8c8c8c" />
    <rect
       ry=".490416"
       rx=".604095"
       y="310.73615"
       x="398.1604"
       height="42.857147"
       width="42.857147"
       id="rect1192"
       style="stroke:#8c8c8c" />
    <rect
       width="42.857147"
       height="42.857147"
       x="387.04929"
       y="321.84726"
       rx=".604095"
       ry=".490416"
       id="rect1194"
       style="stroke:#8c8c8c" />
  </g>
  <path
     style="isolation:auto;mix-blend-mode:normal;solid-color:#000;solid-opacity:1;stroke:#8c8c8c"
     d="M320.72343 865.98906l41.16372-41.16372"
     color="#000"
     overflow="visible"
     fill="none"
     stroke="#7f7f7f"
     stroke-width="3"
     marker-start="url(#a)"
     marker-end="url(#b)"
     transform="translate(327.2822 -480.19506)"
     id="path1198" />
  <g
     aria-label="M"
     transform="translate(327.2822 -480.19506)"
     id="text1202"
     style="font-size:40px;line-height:125%;letter-spacing:0;word-spacing:0;fill:#8c8c8c">
    <path
       d="m 347.03647,846.19696 4.64844,11.60156 4.64843,-11.60156 h 2.43164 v 14.21875 h -1.875 v -5.53711 l 0.17579,-5.97656 -4.66797,11.51367 h -1.43555 l -4.6582,-11.48437 0.18554,5.94726 v 5.53711 h -1.875 v -14.21875 z"
       style="font-size:20px;font-family:Roboto;-inkscape-font-specification:Roboto"
       id="path483" />
  </g>
  <g
     aria-label="Fuse layer"
     transform="translate(81.93464 -251.3439)"
     id="text1206"
     style="font-size:40px;line-height:125%;letter-spacing:0;word-spacing:0;fill:#c44e52">
    <path
       d="m 499.80164,281.60513 h -10.4419 v 10.98877 h -3.28125 v -24.88281 h 15.41504 v 2.7002 h -12.13379 v 8.51074 h 10.4419 z"
       style="font-size:35px;font-family:Roboto;-inkscape-font-specification:Roboto"
       id="path486" />
    <path
       d="m 515.96863,290.76529 q -1.84571,2.17041 -5.41748,2.17041 -2.95655,0 -4.51172,-1.70898 -1.53809,-1.72608 -1.55518,-5.09278 v -12.03125 h 3.16162 v 11.9458 q 0,4.2041 3.41797,4.2041 3.62305,0 4.81934,-2.70019 v -13.44971 h 3.16162 v 18.49121 h -3.00781 z"
       style="font-size:35px;font-family:Roboto;-inkscape-font-specification:Roboto"
       id="path488" />
    <path
       d="m 534.61365,287.68912 q 0,-1.28174 -0.97412,-1.98242 -0.95703,-0.71778 -3.3667,-1.23047 -2.39258,-0.5127 -3.81104,-1.23047 -1.40137,-0.71778 -2.08496,-1.70899 -0.6665,-0.99121 -0.6665,-2.35839 0,-2.27295 1.91406,-3.84522 1.93115,-1.57227 4.92187,-1.57227 3.14454,0 5.09278,1.62354 1.96533,1.62354 1.96533,4.15283 h -3.17871 q 0,-1.29883 -1.11084,-2.23877 -1.09375,-0.93994 -2.76856,-0.93994 -1.72607,0 -2.70019,0.75195 -0.97412,0.75196 -0.97412,1.96534 0,1.14502 0.90576,1.72607 0.90576,0.58106 3.26416,1.11084 2.37549,0.52979 3.84521,1.26465 1.46973,0.73486 2.17042,1.77734 0.71777,1.02539 0.71777,2.51221 0,2.47803 -1.98242,3.98193 -1.98243,1.48682 -5.14405,1.48682 -2.22168,0 -3.93066,-0.78613 -1.70898,-0.78614 -2.68311,-2.1875 -0.95703,-1.41846 -0.95703,-3.05909 h 3.16162 q 0.0855,1.58936 1.26465,2.5293 1.19629,0.92285 3.14453,0.92285 1.79444,0 2.8711,-0.71777 1.09375,-0.73486 1.09375,-1.94824 z"
       style="font-size:35px;font-family:Roboto;-inkscape-font-specification:Roboto"
       id="path490" />
    <path
       d="m 549.56726,292.9357 q -3.75976,0 -6.11816,-2.46094 -2.3584,-2.47803 -2.3584,-6.61377 v -0.58105 q 0,-2.75147 1.04248,-4.90479 1.05957,-2.17041 2.93945,-3.38379 1.89697,-1.23047 4.10156,-1.23047 3.60596,0 5.60547,2.37549 1.99951,2.37549 1.99951,6.80176 v 1.31592 h -12.52685 q 0.0684,2.73437 1.58935,4.42627 1.53809,1.6748 3.89649,1.6748 1.6748,0 2.83691,-0.68359 1.16211,-0.68359 2.03369,-1.81152 l 1.93116,1.5039 q -2.32422,3.57178 -6.97266,3.57178 z m -0.39307,-16.57715 q -1.91406,0 -3.21289,1.40137 -1.29882,1.38428 -1.60644,3.89648 h 9.26269 v -0.23926 q -0.13672,-2.40966 -1.29882,-3.72558 -1.16211,-1.33301 -3.14454,-1.33301 z"
       style="font-size:35px;font-family:Roboto;-inkscape-font-specification:Roboto"
       id="path492" />
    <path
       d="m 572.53601,292.5939 h -3.16162 v -26.25 h 3.16162 z"
       style="font-size:35px;font-family:Roboto;-inkscape-font-specification:Roboto"
       id="path494" />
    <path
       d="m 589.01062,292.5939 q -0.27344,-0.54687 -0.44434,-1.94824 -2.20459,2.29004 -5.26367,2.29004 -2.73437,0 -4.49463,-1.53809 -1.74316,-1.55517 -1.74316,-3.93066 0,-2.88818 2.1875,-4.47754 2.20459,-1.60644 6.18652,-1.60644 h 3.07617 v -1.45264 q 0,-1.65772 -0.99121,-2.63184 -0.99121,-0.99121 -2.92236,-0.99121 -1.69189,0 -2.83691,0.85449 -1.14502,0.8545 -1.14502,2.06787 h -3.17871 q 0,-1.38427 0.97412,-2.66601 0.99121,-1.29883 2.66601,-2.05078 1.6919,-0.75196 3.7085,-0.75196 3.1958,0 5.00732,1.60645 1.81153,1.58936 1.87989,4.39209 v 8.51074 q 0,2.54639 0.64941,4.0503 v 0.27343 z m -5.24658,-2.40967 q 1.48681,0 2.81982,-0.76904 1.33301,-0.76904 1.93115,-1.99951 v -3.79395 h -2.47802 q -5.81055,0 -5.81055,3.40088 0,1.48682 0.99121,2.32422 0.99121,0.8374 2.54639,0.8374 z"
       style="font-size:35px;font-family:Roboto;-inkscape-font-specification:Roboto"
       id="path496" />
    <path
       d="m 602.42615,287.96255 4.30664,-13.85986 h 3.38379 l -7.43408,21.34522 q -1.72608,4.61425 -5.48584,4.61425 l -0.59815,-0.0513 -1.1792,-0.22216 v -2.56348 l 0.85449,0.0684 q 1.60645,0 2.49512,-0.64941 0.90576,-0.64942 1.48682,-2.37549 l 0.70068,-1.87989 -6.59668,-18.28613 h 3.45215 z"
       style="font-size:35px;font-family:Roboto;-inkscape-font-specification:Roboto"
       id="path498" />
    <path
       d="m 620.38757,292.9357 q -3.75976,0 -6.11816,-2.46094 -2.3584,-2.47803 -2.3584,-6.61377 v -0.58105 q 0,-2.75147 1.04248,-4.90479 1.05957,-2.17041 2.93945,-3.38379 1.89698,-1.23047 4.10157,-1.23047 3.60595,0 5.60547,2.37549 1.99951,2.37549 1.99951,6.80176 v 1.31592 h -12.52686 q 0.0684,2.73437 1.58936,4.42627 1.53808,1.6748 3.89648,1.6748 1.67481,0 2.83692,-0.68359 1.16211,-0.68359 2.03369,-1.81152 l 1.93115,1.5039 q -2.32422,3.57178 -6.97266,3.57178 z m -0.39306,-16.57715 q -1.91407,0 -3.21289,1.40137 -1.29883,1.38428 -1.60645,3.89648 h 9.2627 v -0.23926 q -0.13672,-2.40966 -1.29883,-3.72558 -1.16211,-1.33301 -3.14453,-1.33301 z"
       style="font-size:35px;font-family:Roboto;-inkscape-font-specification:Roboto"
       id="path500" />
    <path
       d="m 640.1947,276.93961 q -0.71777,-0.11963 -1.55517,-0.11963 -3.11036,0 -4.2212,2.64892 v 13.125 h -3.16162 v -18.49121 h 3.07618 l 0.0513,2.13623 q 1.55517,-2.47803 4.40917,-2.47803 0.92286,0 1.40137,0.23926 z"
       style="font-size:35px;font-family:Roboto;-inkscape-font-specification:Roboto"
       id="path502" />
  </g>
</svg>
