<?xml version="1.0" encoding="UTF-8"?>
<svg
  version="1.1" viewBox="0 0 634.77 622.82" xmlns="http://www.w3.org/2000/svg" xmlns:xlink="http://www.w3.org/1999/xlink"
  data-length="2"
>

<style type="text/css">
  svg * {
    stroke-linejoin: round;
  }

  svg[data-animattr] .line {
    stroke-dasharray: 1;
    stroke-dashoffset: 1;
    transition: stroke-dashoffset 500ms ease-in, opacity 200ms ease;
  }

  svg[data-animattr~="0"] #l0 { stroke-dashoffset: 0; }
  svg[data-animattr~="1"] #l0 { opacity: 0.4; }
  svg[data-animattr~="1"] .line:not(#l0, #l6) { stroke-dashoffset: 0; opacity: 0.4; }
  svg[data-animattr~="1"] #l6 { stroke-dashoffset: 0; }

  <!-- FORWARD -->
  svg[data-animattr][data-animattr~="1"] #l0 { transition-delay:    0ms,    0ms; }
  svg[data-animattr][data-animattr~="1"] #l1 { transition-delay:    0ms,  600ms; }
  svg[data-animattr][data-animattr~="1"] #l2 { transition-delay:  600ms, 1200ms; }
  svg[data-animattr][data-animattr~="1"] #l3 { transition-delay: 1200ms, 1800ms; }
  svg[data-animattr][data-animattr~="1"] #l4 { transition-delay: 1800ms, 2400ms; }
  svg[data-animattr][data-animattr~="1"] #l5 { transition-delay: 2400ms, 3000ms; }
  svg[data-animattr][data-animattr~="1"] #l6 { transition-delay: 3000ms; }

  <!-- BACKWARD -->
  svg[data-animattr] #l6      { transition-delay:    0ms; }
  svg[data-animattr] #l5      { transition-delay:  600ms,  500ms; }
  svg[data-animattr] #l4      { transition-delay: 1200ms, 1100ms; }
  svg[data-animattr] #l3      { transition-delay: 1800ms, 1700ms; }
  svg[data-animattr] #l2      { transition-delay: 2400ms, 2300ms; }
  svg[data-animattr] #l1      { transition-delay: 3000ms, 2900ms; }
  svg[data-animattr~="0"] #l0 { transition-delay:    0ms, 3500ms; }
</style>

<defs>
	<path id="m34c554f739" d="m4.5 0-9-4.5v9z" stroke="#262626" />
	<path id="m8885d3ba3a" d="m0-4.5-4.5 9h9z" stroke="#262626" />
</defs>

<!-- LINES -->
<g transform="translate(-28.847 -70.782)" fill="none" stroke="#cc8963" stroke-linecap="round" stroke-width="2">
	<path class="line" id="l0" pathLength="1" d="m90 214.34v0h9.7552v45.692h2.4388v25.385h2.4388v59.231h21.949v2.0424h2.4388v35.188h2.4388v0.98263h31.705v21.017h4.8776v5.4555h2.4388v19.383h9.7552v6.2428h4.8776v5.3264h4.8776v4.1184h2.4388v29.081h2.4388v26.865h2.4388v73.631h2.4388v2.9621h2.4388v3.3672h4.8776v21.093h2.4388v2.3584h4.8776v36.363" />
	<path class="line" id="l1" pathLength="1" d="m92.439 107.72v0h2.4388v133.27h2.4388v26.654h9.7552v17.769h2.4388v18.704h39.021v14.355h4.8776v34.464h2.4388v5.1692h19.51v12.4h2.4388v39.293h7.3164v6.5466h2.4388v3.6842h2.4388v1.267h2.4388v6.2715h9.7552v28.135h9.7552v19.322h2.4388v7.3739h2.4388v63.591h2.4388v0.73658h2.4388v15.469h2.4388v24.816h2.4388v33.993h2.4388v19.378" />
	<path class="line" id="l2" pathLength="1" d="m92.439 107.72v0h17.072v48.462h4.8776v33.55h2.4388v17.94h4.8776v1.5865h9.7552v14.348h2.4388v8.4983h12.194v32.403h2.4388v8.2127h12.194v5.1309h7.3164v1.2152h14.633v9.0799h12.194v2.5705h2.4388v4.3007h9.7552v15.137h2.4388v8.3171h7.3164v1.2679h2.4388v1.2115h2.4388v7.9394h2.4388v0.94517h2.4388v0.90659h2.4388v1.7065h4.8776v5.1304h7.3164v6.0159h2.4388v8.0757h2.4388v0.37647h2.4388v5.0155h2.4388v7.0228h4.8776v10.173h4.8776v3.6512h4.8776v15.023h2.4388v35.779h2.4388v9.5151h4.8776v7.1077h2.4388v68.693h2.4388v1.4318h2.4388v10.077h2.4388v35.886h2.4388v3.0868h2.4388v73.62" />
	<path class="line" id="l3" pathLength="1" d="m91.499 107.72v20.503h35.969v17.574h1.4987v5.4396h28.476v8.746h1.4987v5.1458h17.985v4.3977h4.4961v7.1804h19.483v4.5414h1.4987v4.3373h1.4987v10.065h7.4936v8.0236h1.4987v7.5562h1.4987v1.2014h10.491v1.9038h2.9974v2.6217h7.4936v5.9075h1.4987v2.3842l11.99 0.0617v1.6994h7.4936v1.0823h13.488v6.2336h2.9974v10.654h2.9974v9.7964h2.9974v2.685h2.9974v1.2978h1.4987v3.3499h1.4987v3.2419h1.4987v0.31844h2.9974v5.0126h1.4987v3.9617h2.9974v0.99616h1.4987v6.3059h1.4987v2.6129h1.4987v20.064h1.4987v0.62175h1.4987v6.4358h1.4987v1.9497h1.4987v0.51599h1.4987v7.6791h2.9974v0.42629h1.4987v1.697h1.4987v12.525h1.4987v2.582h1.4987v5.8056h1.4987v0.21458h1.4987v9.5434h1.4987v14.344l2.9974 0.0348v1.7991h1.4987v4.2971h4.4961v1.64h1.4987v18.145h1.4987v1.2765h1.4987v5.2709h1.4987v1.8037h1.4987v4.2574h1.4987v5.2405h1.4987v22.945h1.4987v3.8726h1.4987v5.4037h1.4987v7.4423h1.4987v4.623h1.4987v15.854h1.4987v2.656h1.4987v6.4452h1.4987v4.8864h1.4987v11.138h1.4987v5.6596l2.9974 0.0224v2.3543h2.9974v0.38374h1.4987v11.261h1.4987v0.87487h1.4987v32.507h1.4987v1.4509h1.4987v0.54396h1.4987v27.658h1.4987v0.39825h1.4987v8.1013h1.4987v0.6913h1.4987v0.78966h1.4987v4.7991h1.4987v10.69h1.4987v1.5137h1.4987v3.3018h1.4987v2.783h1.4987v5.7823h1.4987v0.29265h2.9974v1.4032h1.4987v2.0502h1.4987v1.4644h1.4987v1.2309h1.4987v0.71271h1.4987v0.43111h4.4961v3.6364h1.4987v0.54468h1.4987v1.3967h1.4987v0.34773h1.4987v0.20566h1.4987v0.48995h1.4987v0.42394h1.4987v1.4301h1.4987v1.1039h1.4987v0.23167h1.4987v0.52067h1.4987v0.80567h1.4987v0.54287" />
	<path class="line" id="l4" pathLength="1" d="m90.928 107.72h26.92v16.659h0.92826v13.803h1.8565v2.8558h11.139v2.2212h10.211v4.8462h4.6413v2.2615h7.4261v1.2543h8.3544v4.0166h2.7848v9.5717h9.2827v2.8596h2.7848v3.2296h1.8565v5.3544h4.6413v2.7418h1.8565v0.47155h11.139v2.8799h0.92827v1.1282h3.7131v4.1728h3.7131v0.64705h9.2827v0.28801h4.6413v1.7323h1.8565v2.9861h13.924v1.9208h0.92827v0.48483h3.7131v0.89801h7.4261v1.2875h1.8565v1.2505h1.8565v3.7297h0.92827v0.25493h3.7131v1.5592h0.92826v1.0855h1.8565v1.5008h0.92827v3.3758h0.92826v1.4254h0.92827v0.98116h9.2827v3.057h0.92827v1.2773h0.92827v2.4936h1.8565v2.868h0.92827v1.1805h0.92827v0.74591h8.3544v2.1939h1.8565v2.5727h0.92826v0.59967h1.8565v0.1496h2.7848v3.4316h1.8565v4.2455h2.7848v2.2711h0.92826v0.44872h1.8565v0.43983h1.8565v2.1733h0.92827v0.84842h0.92827v1.6642h1.8565v0.8162h0.92827v4.5024h0.92827v0.76527h0.92826v1.9528h0.92827v1.7348h3.7131v1.8612h0.92827v1.3788h1.8565v2.0081h2.7848v6.0529h0.92827v3.7499h0.92827v1.6058h0.92826v4.1301h1.8565v5.8959h1.8565v0.50502h2.7848v0.4774h0.92827v3.2381h0.92827v1.3563h0.92827v1.3047h2.7848v1.7221h1.8565v1.2767h0.92827v1.2579h0.92827v0.33062h2.7848v7.7571h0.92827v5.0555h0.92826v0.31135h0.92827v3.3456h0.92827v1.779h0.92826v3.9256h0.92827v0.97279h0.92827v0.25087h0.92827v0.95416h0.92826v6.4252h0.92827v8.6914h0.92827v3.9131h0.92827v3.7879h0.92826v1.32h0.92827v0.71347h0.92827v2.441h0.92827v3.6993h2.7848v1.7434h0.92826v6.9945l1.8565 0.059v1.5942h0.92826v3.0627h0.92827v2.0379l2.7848 0.0329v0.51413l1.8565 0.0307v2.8843h1.8565v1.4055h0.92827v0.92785h0.92827v1.3649h0.92826v6.1254h0.92827v1.2582h0.92827v5.3348h0.92827v1.1674h0.92826v5.023h0.92827v4.0644h0.92827v1.3971h0.92826v3.4235h1.8565v6.7158h0.92827v0.23798h0.92826v9.0342h0.92827v1.3872h0.92827v1.068h0.92827v3.3493h0.92826v5.4083h0.92827v0.67138h0.92827v0.39815h0.92827v4.2731h0.92826v0.61629h0.92827v1.8481h0.92827v1.0779h0.92826v5.7457h0.92827v3.4363h0.92827v3.1364h1.8565v5.5905h0.92827v0.67838h2.7848v3.2916h0.92827v1.1379h0.92827v2.2082h0.92826v4.0569h0.92827v0.84799h0.92827v12.242h1.8565v0.9733l1.8565 0.10042v2.0741h0.92826v3.2192h0.92827v4.4668h0.92827v0.43476h0.92827v7.1457h0.92826v2.161h1.8565v4.7358h0.92826v8.0815h0.92827v5.9393h0.92827v17.584h0.92827v0.76192h0.92826v0.91132h1.8565v3.9352h0.92827v4.4027h0.92826v1.1551h0.92827v0.24884h0.92827v5.2931h0.92826v3.6233h0.92827v0.14097h0.92827v1.8226h0.92827v3.4486h0.92826v5.217h0.92827v5.3008h0.92827v4.51h0.92827v3.3474h0.92826v1.3222h0.92827v0.25827h0.92827v12.044h0.92826v3.5775h0.92827v0.81252h0.92827v4.651h0.92827v0.43411h0.92826v0.60111h0.92827v1.2515l2.7848 0.0422v1.3501h0.92827v4.204h0.92827v0.21184h1.8565v1.0876h0.92827v0.13203h0.92826v0.74968h0.92827v0.50163h0.92827v0.70744h0.92827v0.72549l2.7848 0.0898v0.68279h0.92827v1.7553h0.92826v1.4297h0.92827v2.6408h0.92827v1.1958h0.92826v2.3946h0.92827v1.2979h0.92827v0.47323h0.92827v0.34468h0.92826v1.896h0.92827v0.54041h0.92827v0.33746l1.8565 0.10175v0.76256h0.92827v0.12889h0.92827v1.4815h0.92826v1.7562h0.92827v0.28081h0.92827v1.2128h0.92827v1.227" />
	<path class="line" id="l5" pathLength="1" d="m92.439 107.72h7.3164v19.038h56.093v14.279h7.3164v13.719h2.4388v3.2541h41.46v3.9209h12.194v6.9616h2.4388v2.7965h29.266v5.2615h2.4388v6.0271h14.633v7.6652h7.3164v8.7891h2.4388v7.5865h14.633v3.2162h2.4388v2.1078h4.8776v2.9709h2.4388v0.90888h7.3164v2.7484h2.4388v2.6545h2.4388v0.64013h7.3164v4.8638h4.8776v9.8215h7.3164v24.686h2.4388v16.668h2.4388v0.13937h4.8776v1.2363h2.4388v7.9532h2.4388v9.5536h2.4388v4.9492h2.4388v2.7914h2.4388v18.905h2.4388v10.376h2.4388v0.81319h4.8776v10.771h2.4388v3.0806h2.4388v0.23948h2.4388v8.1836h2.4388v50.526h2.4388v12.71h2.4388v12.572h2.4388v9.2237h2.4388v11.047h2.4388v2.722h2.4388v16.074h2.4388v2.0398h2.4388v3.1615h2.4388v11.457h4.8776v13.604h2.4388v6.615h2.4388v1.4635h2.4388v53.045h2.4388v3.3102h2.4388v13.189h2.4388v7.2756h2.4388v12.782h2.4388v4.4398h2.4388v9.4834h2.4388v3.215h2.4388v3.628h2.4388v5.8521" />
	<path class="line" id="l6" pathLength="1" d="m90.595 107.72h20.842v13.002h2.382v1.4056h19.056v2.2512h12.505v4.8798h1.191v0.36881h26.797v2.0128h5.3594v2.0836h4.1684v2.0529h3.573v0.14844h10.123v1.6472h33.943v1.6286h1.7865v1.0734h4.1684v0.5198h6.5504v0.83184h4.7639v1.3848h1.7865v1.0967h2.9775v4.883h7.7414v1.0372h2.382v2.3913h2.9775v1.2276h1.191v2.8304h0.59549v1.1686h1.191v1.1476h1.191v3.6414h2.382v1.0725h1.191v0.8906l6.5504 0.0644v1.1688h0.59549v0.84224h6.5504v1.1112h0.5955v0.93762h1.191v1.0857h0.59549v0.90947h1.191v0.73028h1.7865v0.88045h1.191v2.2269h0.59549v1.0147h0.59549v1.0045h0.59549v0.2561h7.1459v0.62183h1.7865v0.94715h0.59549v2.0399h0.59549v0.74768h1.191v0.91166h0.59549v2.8633h1.191v3.469h2.382v2.8961h0.59549v0.82678h0.5955v2.4362h1.7865v5.2804h1.7865v0.35774h1.7865v0.75099h0.59549v0.28601h4.7639v4.3861h0.59549v0.70044h0.59549v0.49028l3.573 0.0785v1.3566h1.191v0.26436h1.7865v0.66367h0.5955v0.45571h1.191v0.65267h0.59549v0.64752h0.59549v0.64242h0.5955v0.6374h0.59549v0.42824h1.191v0.63899h2.9775v0.61626h0.5955v2.025h1.191v0.59815h0.59549v3.7568h0.5955v0.15471h1.7865v0.56826h0.59549v5.8923l2.382 0.10285v1.2703h0.5955v1.0766h7.1459v1.2142h0.59549v0.49612h0.5955v1.195h0.59549v0.96889h1.191v3.2267h0.59549v0.92455h1.191v1.1296h0.59549v1.564h1.191v3.4774h2.9775v2.7498h1.191v0.18802h1.191v2.2775h0.5955v4.0698h0.59549v0.37885h0.59549v2.1727h0.59549v3.3121h0.5955v2.0916h0.59549v5.4463h0.59549v0.87839h0.59549v0.8706h0.59549v2.4998h0.5955v12.347h0.59549v8.1567h0.59549v2.1435h0.59549v0.69546h0.5955v0.54688h5.3594v0.21323h0.59549v0.67123h0.59549v2.028h0.59549v4.2121h0.59549v0.18873h0.5955v0.18775h0.59549v2.9617h1.191v2.7189h0.59549v3.6459h1.191v1.9337h1.191v1.3523h0.5955v1.7304h0.59549v1.3157h0.59549v0.13697h0.59549v3.2105h0.59549v2.0137h0.5955v9.5586h0.59549v1.006h4.1684v2.2298h1.191v6.3753h0.59549v2.9528h0.59549v1.0093h0.5955v0.99862h0.59549v3.1355h0.59549v2.7598h0.59549v4.1506h0.59549v7.8895l1.7865 0.0373v1.6355h0.59549v0.82859l1.7865 0.0135v6.4637h0.59549v2.9846h0.59549v1.4597h0.5955v0.22707h1.191v0.23306h0.59549v3.7774h0.5955v4.1082h0.59549v4.6175h0.59549v0.40299h0.59549v0.40021h0.59549v1.0367h0.5955v0.39153h0.59549v0.38887h0.59549v0.80424h0.59549v7.4398h0.59549v1.7019h0.5955v0.71952h0.59549v1.0914h0.59549v12.127h0.59549v2.0489h1.191v0.42839h0.59549v5.0126h1.191v1.3297h0.5955v3.875h0.59549v1.6933h0.59549v2.8637h1.191v0.19974h0.5955v22.89h0.59549v3.824h0.59549v2.3137h1.191v0.51379h0.59549v1.5236h0.59549v1.5912h0.59549v2.8079h0.59549v0.74695h0.5955v2.4048h0.59549v0.25673h0.59549v4.7612h0.59549v0.14663h0.5955v4.6275h0.59549v2.1931h0.59549v1.3611h0.59549v3.3408h0.59549v2.8361h0.5955v2.7218h0.59549v1.2299h0.59549v2.5642h0.59549v3.0808h0.5955v0.67727h0.59549v4.0527h0.59549v1.1264h0.59549v1.541h0.59549v2.3448h0.5955v3.7027h0.59549v0.31585h1.191v4.7787h0.5955v0.60736h0.59549v1.9944h0.59549v0.78762h0.59549v1.4125h1.191v1.9579h0.59549v1.539h0.59549v2.2388h0.59549v2.533h0.59549v1.1152h0.5955v1.0547h0.59549v0.53245h0.59549v2.1794h0.59549v4.3528l1.191 0.10216v3.0506h0.59549v0.60304h0.59549v0.61986h0.59549v0.86946h0.5955v3.44h0.59549v1.2724h0.59549v0.6421h0.59549v0.17849h0.5955v4.6546h0.59549v0.23196h0.59549v2.7323h0.59549v3.57h0.59549v0.20277h0.5955v2.6642h0.59549v5.1437h0.59549v1.4605h0.59549v1.4931h0.5955v1.0657h0.59549v1.0623h0.59549v2.9232h0.59549v1.2365h0.59549v0.44405h0.5955v3.983l1.191 0.0935v0.14336h0.59549v0.90726h0.59549v3.0696h0.5955v0.62351h0.59549v0.44232h0.59549v0.29163l1.191 0.026v2.7194h0.59549v2.696h0.59549v0.32658l1.191 0.0742v1.0473h0.59549v4.9566h0.59549v0.15869h0.59549v1.3286h0.59549v1.7402h0.5955v2.1998h0.59549v2.7942h0.59549v0.48658h0.59549v0.60493h0.59549v1.0311h0.5955v0.21853h0.59549v2.8687h0.59549v2.1231h0.59549v0.29549h0.59549v0.58905h0.5955v4.6325h0.59549v1.5992h0.59549v0.38124h0.59549v5.9685h0.5955v0.30778h0.59549v1.8839h0.59549v0.26562h0.59549v0.24892h0.59549v0.98988h0.5955v0.27831h0.59549v1.0578h0.59549v0.37889h0.59549v0.70263l1.191 0.0895v0.14973l1.191 0.097v0.0585l1.191 0.089v0.0387h0.59549v0.15705" />
</g>

<!-- AXES -->
<g transform="translate(-28.847 -74.8)" fill="#262626">
	<g aria-label="0.2">
		<path d="m194.14 660.26q0 2.4814-0.9104 3.7705-0.9104 1.281-2.6829 1.281-1.7402 0-2.6668-1.2568-0.92651-1.2649-0.95068-3.6738v-2.1028q0-2.4734 0.91846-3.7463 0.91845-1.273 2.6829-1.273 1.7402 0 2.6587 1.2327 0.91846 1.2246 0.95068 3.6174zm-0.96679-2.1028q0-2.0142-0.66065-3.0454-0.65259-1.0312-1.9819-1.0312-1.3052 0-1.9658 1.0071-0.66065 1.0071-0.67676 2.9729v2.3042q0 2.0061 0.67676 3.0696 0.68481 1.0635 1.9819 1.0635 1.2891 0 1.9497-1.0393 0.6687-1.0393 0.67676-3.0454z" />
		<path d="m196.28 664.57q0-0.28198 0.17725-0.47534 0.1853-0.20142 0.50757-0.20142 0.32226 0 0.50757 0.20142 0.1853 0.19336 0.1853 0.47534t-0.1853 0.46728q-0.18531 0.17725-0.50757 0.17725-0.32227 0-0.50757-0.17725-0.17725-0.1853-0.17725-0.46728z" />
		<path d="m207.5 665.15h-7.3476v-0.74121l4.0203-4.5601q0.99902-1.1521 1.3857-1.9014t0.38672-1.4582q0-1.1118-0.65259-1.7564-0.65258-0.65259-1.7966-0.65259-1.1843 0-1.9175 0.75733-0.72509 0.75732-0.72509 1.9658h-0.95874q0-0.99097 0.44311-1.8047 0.45117-0.81372 1.273-1.273 0.82983-0.46728 1.8852-0.46728 1.6113 0 2.5137 0.84594 0.9104 0.84595 0.9104 2.3042 0 0.82178-0.51563 1.7966-0.50757 0.97486-1.7966 2.4331l-3.271 3.698h6.1633z" />
	</g>
	<g aria-label="0.4">
		<path d="m301.28 660.26q0 2.4814-0.9104 3.7705-0.9104 1.281-2.6829 1.281-1.7402 0-2.6667-1.2568-0.92652-1.2649-0.95069-3.6738v-2.1028q0-2.4734 0.91846-3.7463 0.91846-1.273 2.6829-1.273 1.7402 0 2.6587 1.2327 0.91846 1.2246 0.95069 3.6174zm-0.9668-2.1028q0-2.0142-0.66065-3.0454-0.65258-1.0312-1.9819-1.0312-1.3052 0-1.9658 1.0071-0.66064 1.0071-0.67676 2.9729v2.3042q0 2.0061 0.67676 3.0696 0.68482 1.0635 1.9819 1.0635 1.2891 0 1.9497-1.0393 0.6687-1.0393 0.67676-3.0454z" />
		<path d="m303.42 664.57q0-0.28198 0.17724-0.47534 0.1853-0.20142 0.50757-0.20142t0.50757 0.20142q0.1853 0.19336 0.1853 0.47534t-0.1853 0.46728q-0.1853 0.17725-0.50757 0.17725t-0.50757-0.17725q-0.17724-0.1853-0.17724-0.46728z" />
		<path d="m313.22 661.37h1.8289v0.81372h-1.8289v2.9648h-0.9668v-2.9648h-5.5188v-0.54785l5.4302-8.2178h1.0554zm-5.3013 0h4.3345v-6.7031l-0.427 0.74121z" />
	</g>
	<g aria-label="0.6">
		<path d="m408.88 660.26q0 2.4814-0.9104 3.7705-0.9104 1.281-2.6829 1.281-1.7402 0-2.6668-1.2568-0.92651-1.2649-0.95068-3.6738v-2.1028q0-2.4734 0.91846-3.7463 0.91845-1.273 2.6829-1.273 1.7402 0 2.6587 1.2327 0.91846 1.2246 0.95068 3.6174zm-0.96679-2.1028q0-2.0142-0.66065-3.0454-0.65259-1.0312-1.9819-1.0312-1.3052 0-1.9658 1.0071-0.66065 1.0071-0.67676 2.9729v2.3042q0 2.0061 0.67676 3.0696 0.68481 1.0635 1.9819 1.0635 1.2891 0 1.9497-1.0393 0.6687-1.0393 0.67676-3.0454z" />
		<path d="m411.02 664.57q0-0.28198 0.17725-0.47534 0.1853-0.20142 0.50757-0.20142 0.32226 0 0.50757 0.20142 0.1853 0.19336 0.1853 0.47534t-0.1853 0.46728q-0.18531 0.17725-0.50757 0.17725-0.32227 0-0.50757-0.17725-0.17725-0.1853-0.17725-0.46728z" />
		<path d="m420.58 653.33v0.84594h-0.1128q-2.1028 0-3.3113 1.2407-1.2085 1.2327-1.3374 3.4321 0.4834-0.6687 1.2327-1.0312 0.74926-0.3706 1.6758-0.3706 1.5469 0 2.4573 1.0715 0.91846 1.0635 0.91846 2.7876 0 1.144-0.427 2.0625t-1.2246 1.4341q-0.79761 0.50757-1.8208 0.50757-1.6838 0-2.7393-1.2166-1.0554-1.2246-1.0554-3.1582v-0.96679q0-3.1502 1.4341-4.8743 1.4341-1.7322 4.0686-1.7644zm-2.0061 4.9468q-0.91846 0-1.7161 0.54785-0.78955 0.5398-1.0554 1.3777v0.82178q0 1.5308 0.78149 2.4976 0.78955 0.96679 2.0464 0.96679 1.1279 0 1.8208-0.89428 0.70093-0.89429 0.70093-2.2559 0-1.3858-0.70093-2.2236-0.69287-0.83789-1.8772-0.83789z" />
	</g>
	<g aria-label="0.8">
		<path d="m516.2 660.26q0 2.4814-0.9104 3.7705-0.9104 1.281-2.6829 1.281-1.7402 0-2.6668-1.2568-0.92652-1.2649-0.95069-3.6738v-2.1028q0-2.4734 0.91846-3.7463 0.91846-1.273 2.6829-1.273 1.7402 0 2.6587 1.2327 0.91846 1.2246 0.95069 3.6174zm-0.9668-2.1028q0-2.0142-0.66064-3.0454-0.65259-1.0312-1.9819-1.0312-1.3052 0-1.9658 1.0071-0.66064 1.0071-0.67676 2.9729v2.3042q0 2.0061 0.67676 3.0696 0.68482 1.0635 1.9819 1.0635 1.2891 0 1.9497-1.0393 0.6687-1.0393 0.67676-3.0454z" />
		<path d="m518.34 664.57q0-0.28198 0.17724-0.47534 0.18531-0.20142 0.50757-0.20142 0.32227 0 0.50757 0.20142 0.1853 0.19336 0.1853 0.47534t-0.1853 0.46728q-0.1853 0.17725-0.50757 0.17725-0.32226 0-0.50757-0.17725-0.17724-0.1853-0.17724-0.46728z" />
		<path d="m529.12 656.44q0 0.9104-0.53174 1.6355-0.53174 0.71704-1.4019 1.0554 1.0151 0.34643 1.6274 1.1199 0.6123 0.77344 0.6123 1.7886 0 1.5066-1.0232 2.3928-1.0232 0.87817-2.707 0.87817-1.7 0-2.7232-0.87817-1.0151-0.87818-1.0151-2.3928 0-0.99902 0.58813-1.7805 0.58813-0.7815 1.6113-1.1279-0.87012-0.33838-1.3857-1.0554-0.51563-0.7251-0.51563-1.6355 0-1.4582 0.93457-2.3203 0.94263-0.86206 2.4895-0.86206 1.5469 0 2.4895 0.87011 0.95068 0.87012 0.95068 2.3123zm-0.66065 5.6074q0-1.0957-0.78149-1.7966-0.78149-0.70898-1.998-0.70898-1.2166 0-1.99 0.69287-0.77343 0.69287-0.77343 1.8127t0.74926 1.7886q0.74927 0.66064 2.0303 0.66064 1.2488 0 2.0061-0.66064 0.75732-0.66065 0.75732-1.7886zm-0.30615-5.6155q0-1.0071-0.70093-1.6758-0.69287-0.67676-1.7725-0.67676-1.0957 0-1.7805 0.65259-0.67676 0.64453-0.67676 1.7 0 1.0312 0.67676 1.6597 0.68481 0.62842 1.7886 0.62842 1.0876 0 1.7725-0.62842 0.69287-0.63647 0.69287-1.6597z" />
	</g>
	<g aria-label="1.0">
		<path d="m621.29 665.15h-0.96679v-10.57l-3.1904 1.1843v-0.90234l3.9961-1.4824h0.16113z" />
		<path d="m626.01 664.57q0-0.28198 0.17725-0.47534 0.1853-0.20142 0.50757-0.20142 0.32226 0 0.50757 0.20142 0.1853 0.19336 0.1853 0.47534t-0.1853 0.46728q-0.18531 0.17725-0.50757 0.17725-0.32227 0-0.50757-0.17725-0.17725-0.1853-0.17725-0.46728z" />
		<path d="m636.96 660.26q0 2.4814-0.9104 3.7705-0.9104 1.281-2.6829 1.281-1.7402 0-2.6668-1.2568-0.92651-1.2649-0.95068-3.6738v-2.1028q0-2.4734 0.91845-3.7463 0.91846-1.273 2.6829-1.273 1.7402 0 2.6587 1.2327 0.91846 1.2246 0.95069 3.6174zm-0.9668-2.1028q0-2.0142-0.66064-3.0454-0.65259-1.0312-1.9819-1.0312-1.3052 0-1.9658 1.0071-0.66064 1.0071-0.67675 2.9729v2.3042q0 2.0061 0.67675 3.0696 0.68482 1.0635 1.9819 1.0635 1.2891 0 1.9497-1.0393 0.6687-1.0393 0.67676-3.0454z" />
	</g>
</g>
<g fill="#262626" aria-label="Recall">
	<path d="m563.67 607.03h-3.2564v5.6082h-1.8376v-13.863h4.5894q2.3423 0 3.5991 1.0664 1.2664 1.0664 1.2664 3.104 0 1.2949-0.70459 2.2566-0.69507 0.96167-1.9424 1.4377l3.2564 5.8843v0.11426h-1.9614zm-3.2564-1.4949h2.8088q1.3616 0 2.1614-0.70459 0.80933-0.70459 0.80933-1.8852 0-1.2854-0.77124-1.971-0.76172-0.68555-2.209-0.69507h-2.7993z" />
	<path d="m574.59 612.82q-2.0947 0-3.4087-1.3711-1.314-1.3806-1.314-3.6848v-0.32373q0-1.533 0.58081-2.7327 0.59034-1.2092 1.6377-1.8852 1.0569-0.68555 2.2852-0.68555 2.009 0 3.123 1.3235 1.114 1.3235 1.114 3.7896v0.73316h-6.9792q0.0381 1.5234 0.8855 2.4661 0.85693 0.93311 2.1709 0.93311 0.93311 0 1.5806-0.38086t1.1331-1.0093l1.0759 0.83789q-1.2949 1.99-3.8848 1.99zm-0.21899-9.2358q-1.0664 0-1.79 0.78076-0.72364 0.77124-0.89502 2.1709h5.1606v-0.1333q-0.0762-1.3425-0.72363-2.0757-0.64746-0.74268-1.752-0.74268z" />
	<path d="m584.78 611.39q0.94262 0 1.6472-0.57129t0.78077-1.4282h1.6663q-0.0476 0.8855-0.60938 1.6853-0.56177 0.7998-1.5044 1.2759-0.93311 0.47607-1.9805 0.47607-2.1042 0-3.3516-1.3997-1.2378-1.4092-1.2378-3.8467v-0.29516q0-1.5044 0.55225-2.6755 0.55224-1.1711 1.5806-1.8186 1.0378-0.64746 2.447-0.64746 1.7329 0 2.8755 1.0378 1.1521 1.0378 1.2283 2.6946h-1.6663q-0.0762-0.99976-0.76172-1.6377-0.67603-0.64746-1.6758-0.64746-1.3425 0-2.0852 0.97119-0.73315 0.96167-0.73315 2.7898v0.33325q0 1.7805 0.73315 2.7422 0.73316 0.96167 2.0947 0.96167z" />
	<path d="m597.22 612.63q-0.15235-0.30469-0.24756-1.0854-1.2283 1.2759-2.9326 1.2759-1.5234 0-2.5042-0.85693-0.97119-0.86646-0.97119-2.19 0-1.6091 1.2188-2.4946 1.2283-0.89502 3.4468-0.89502h1.7139v-0.80933q0-0.92358-0.55224-1.4663-0.55225-0.55224-1.6282-0.55224-0.94262 0-1.5806 0.47607t-0.63794 1.1521h-1.771q0-0.77124 0.54273-1.4854 0.55224-0.72364 1.4854-1.1426 0.94262-0.41895 2.0662-0.41895 1.7805 0 2.7898 0.89502 1.0093 0.8855 1.0474 2.447v4.7417q0 1.4187 0.36181 2.2566v0.15234zm-2.9231-1.3425q0.82837 0 1.571-0.42847 0.74267-0.42846 1.0759-1.114v-2.1138h-1.3806q-3.2373 0-3.2373 1.8948 0 0.82836 0.55225 1.2949 0.55225 0.46655 1.4187 0.46655z" />
	<path d="m603.38 612.63h-1.7615v-14.625h1.7615z" />
	<path d="m608.11 612.63h-1.7615v-14.625h1.7615z" />
</g>
<g fill="#262626" aria-label="0.0">
	<path d="m39.293 585.46q0 2.4814-0.9104 3.7705-0.9104 1.281-2.6829 1.281-1.7402 0-2.6667-1.2568-0.92651-1.2649-0.95068-3.6738v-2.1028q0-2.4734 0.91846-3.7463 0.91846-1.2729 2.6829-1.2729 1.7402 0 2.6587 1.2327 0.91846 1.2246 0.95068 3.6174zm-0.9668-2.1028q0-2.0142-0.66064-3.0454-0.65259-1.0312-1.9819-1.0312-1.3052 0-1.9658 1.0071-0.66064 1.0071-0.67676 2.9729v2.3042q0 2.0061 0.67676 3.0696 0.68481 1.0635 1.9819 1.0635 1.2891 0 1.9497-1.0393 0.6687-1.0393 0.67676-3.0454z" />
	<path d="m41.428 589.77q0-0.28198 0.17725-0.47534 0.1853-0.20142 0.50757-0.20142t0.50757 0.20142q0.1853 0.19336 0.1853 0.47534t-0.1853 0.46728q-0.1853 0.17725-0.50757 0.17725t-0.50757-0.17725q-0.17725-0.1853-0.17725-0.46728z" />
	<path d="m52.377 585.46q0 2.4814-0.9104 3.7705-0.9104 1.281-2.6829 1.281-1.7402 0-2.6667-1.2568-0.92651-1.2649-0.95068-3.6738v-2.1028q0-2.4734 0.91846-3.7463 0.91846-1.2729 2.6829-1.2729 1.7402 0 2.6587 1.2327 0.91846 1.2246 0.95068 3.6174zm-0.9668-2.1028q0-2.0142-0.66064-3.0454-0.65259-1.0312-1.9819-1.0312-1.3052 0-1.9658 1.0071-0.66064 1.0071-0.67676 2.9729v2.3042q0 2.0061 0.67676 3.0696 0.68481 1.0635 1.9819 1.0635 1.2891 0 1.9497-1.0393 0.6687-1.0393 0.67676-3.0454z" />
</g>
<g transform="translate(-28.847 -70.782)">
	<g fill="#262626" aria-label="0.2">
		<path d="m68.003 535.24q0 2.4814-0.9104 3.7705-0.9104 1.281-2.6829 1.281-1.7402 0-2.6667-1.2568-0.92651-1.2649-0.95068-3.6738v-2.1028q0-2.4734 0.91846-3.7463 0.91846-1.273 2.6829-1.273 1.7402 0 2.6587 1.2327 0.91846 1.2246 0.95068 3.6174zm-0.9668-2.1028q0-2.0142-0.66064-3.0454-0.65259-1.0312-1.9819-1.0312-1.3052 0-1.9658 1.0071-0.66064 1.0071-0.67676 2.9729v2.3042q0 2.0061 0.67676 3.0696 0.68481 1.0635 1.9819 1.0635 1.2891 0 1.9497-1.0393 0.6687-1.0393 0.67676-3.0454z" />
		<path d="m70.138 539.55q0-0.28198 0.17725-0.47534 0.1853-0.20142 0.50757-0.20142t0.50757 0.20142q0.1853 0.19336 0.1853 0.47534t-0.1853 0.46728q-0.1853 0.17725-0.50757 0.17725t-0.50757-0.17725q-0.17725-0.1853-0.17725-0.46728z" />
		<path d="m81.361 540.13h-7.3477v-0.74121l4.0203-4.5601q0.99902-1.1521 1.3857-1.9014 0.38672-0.74927 0.38672-1.4582 0-1.1118-0.65259-1.7564-0.65259-0.65259-1.7966-0.65259-1.1843 0-1.9175 0.75733-0.7251 0.75732-0.7251 1.9658h-0.95874q0-0.99097 0.44312-1.8047 0.45117-0.81372 1.273-1.273 0.82983-0.46728 1.8853-0.46728 1.6113 0 2.5137 0.84594 0.9104 0.84595 0.9104 2.3042 0 0.82178-0.51562 1.7966-0.50757 0.97486-1.7966 2.4331l-3.271 3.698h6.1633z" />
	</g>
	<g fill="#262626" aria-label="0.4">
		<path d="m67.802 428.62q0 2.4814-0.9104 3.7705-0.9104 1.281-2.6829 1.281-1.7402 0-2.6667-1.2568-0.92651-1.2649-0.95068-3.6738v-2.1028q0-2.4734 0.91846-3.7463 0.91846-1.273 2.6829-1.273 1.7402 0 2.6587 1.2327 0.91846 1.2246 0.95068 3.6174zm-0.9668-2.1028q0-2.0142-0.66064-3.0454-0.65259-1.0312-1.9819-1.0312-1.3052 0-1.9658 1.0071-0.66064 1.0071-0.67676 2.9729v2.3042q0 2.0061 0.67676 3.0696 0.68482 1.0635 1.9819 1.0635 1.2891 0 1.9497-1.0393 0.6687-1.0393 0.67676-3.0454z" />
		<path d="m69.937 432.93q0-0.28198 0.17725-0.47534 0.1853-0.20141 0.50757-0.20141t0.50757 0.20141q0.1853 0.19336 0.1853 0.47534 0 0.28199-0.1853 0.46729-0.1853 0.17724-0.50757 0.17724t-0.50757-0.17724q-0.17725-0.1853-0.17725-0.46729z" />
		<path d="m79.734 429.73h1.8289v0.81372h-1.8289v2.9648h-0.9668v-2.9648h-5.5188v-0.54785l5.4302-8.2178h1.0554zm-5.3013 0h4.3345v-6.7031l-0.427 0.74121z" />
	</g>
	<g fill="#262626" aria-label="0.6">
		<path d="m68.072 322q0 2.4814-0.9104 3.7705-0.9104 1.281-2.6829 1.281-1.7402 0-2.6667-1.2568-0.92651-1.2649-0.95068-3.6738v-2.1028q0-2.4734 0.91846-3.7463t2.6829-1.273q1.7402 0 2.6587 1.2327 0.91846 1.2246 0.95068 3.6174zm-0.9668-2.1028q0-2.0142-0.66064-3.0454-0.65259-1.0312-1.9819-1.0312-1.3052 0-1.9658 1.0071-0.66064 1.0071-0.67676 2.9729v2.3042q0 2.0061 0.67676 3.0696 0.68481 1.0635 1.9819 1.0635 1.2891 0 1.9497-1.0393 0.6687-1.0393 0.67676-3.0454z" />
		<path d="m70.207 326.32q0-0.28199 0.17725-0.47535 0.1853-0.20141 0.50757-0.20141 0.32227 0 0.50757 0.20141 0.1853 0.19336 0.1853 0.47535 0 0.28198-0.1853 0.46728-0.1853 0.17725-0.50757 0.17725-0.32226 0-0.50757-0.17725-0.17725-0.1853-0.17725-0.46728z" />
		<path d="m79.77 315.08v0.84595h-0.11279q-2.1028 0-3.3113 1.2407-1.2085 1.2327-1.3374 3.4321 0.4834-0.6687 1.2327-1.0312 0.74927-0.3706 1.6758-0.3706 1.5469 0 2.4573 1.0715 0.91846 1.0635 0.91846 2.7876 0 1.144-0.427 2.0625-0.427 0.91845-1.2246 1.4341-0.79761 0.50757-1.8208 0.50757-1.6838 0-2.7393-1.2166-1.0554-1.2246-1.0554-3.1582v-0.9668q0-3.1501 1.4341-4.8743 1.4341-1.7322 4.0686-1.7644zm-2.0061 4.9468q-0.91846 0-1.7161 0.54785-0.78955 0.5398-1.0554 1.3777v0.82177q0 1.5308 0.78149 2.4976 0.78955 0.9668 2.0464 0.9668 1.1279 0 1.8208-0.89429 0.70093-0.89428 0.70093-2.2559 0-1.3857-0.70093-2.2236-0.69287-0.83789-1.8772-0.83789z" />
	</g>
	<g fill="#262626" aria-label="0.8">
		<path d="m68.068 215.39q0 2.4814-0.9104 3.7705-0.9104 1.281-2.6829 1.281-1.7402 0-2.6667-1.2568-0.92651-1.2649-0.95068-3.6738v-2.1028q0-2.4734 0.91846-3.7463 0.91846-1.2729 2.6829-1.2729 1.7402 0 2.6587 1.2327 0.91846 1.2246 0.95068 3.6174zm-0.9668-2.1028q0-2.0142-0.66064-3.0454-0.65259-1.0312-1.9819-1.0312-1.3052 0-1.9658 1.0071-0.66064 1.0071-0.67676 2.9729v2.3042q0 2.0061 0.67676 3.0696 0.68481 1.0635 1.9819 1.0635 1.2891 0 1.9497-1.0393 0.6687-1.0393 0.67676-3.0454z" />
		<path d="m70.203 219.7q0-0.28198 0.17725-0.47534 0.1853-0.20142 0.50757-0.20142 0.32227 0 0.50757 0.20142 0.1853 0.19336 0.1853 0.47534t-0.1853 0.46728q-0.1853 0.17725-0.50757 0.17725-0.32226 0-0.50757-0.17725-0.17725-0.1853-0.17725-0.46728z" />
		<path d="m80.99 211.57q0 0.9104-0.53174 1.6355-0.53174 0.71704-1.4019 1.0554 1.0151 0.34643 1.6274 1.1199t0.6123 1.7886q0 1.5066-1.0232 2.3928-1.0232 0.87817-2.707 0.87817-1.7 0-2.7231-0.87817-1.0151-0.87818-1.0151-2.3928 0-0.99902 0.58814-1.7805 0.58814-0.7815 1.6113-1.1279-0.87012-0.33838-1.3857-1.0554-0.51562-0.7251-0.51562-1.6355 0-1.4582 0.93457-2.3203 0.94263-0.86206 2.4895-0.86206t2.4895 0.87011q0.95068 0.87012 0.95068 2.3123zm-0.66064 5.6074q0-1.0957-0.78149-1.7966-0.78149-0.70898-1.998-0.70898t-1.99 0.69287q-0.77344 0.69287-0.77344 1.8127t0.74927 1.7886q0.74927 0.66065 2.0303 0.66065 1.2488 0 2.0061-0.66065 0.75732-0.66064 0.75732-1.7886zm-0.30615-5.6155q0-1.0071-0.70093-1.6758-0.69287-0.67676-1.7725-0.67676-1.0957 0-1.7805 0.65259-0.67676 0.64453-0.67676 1.7 0 1.0312 0.67676 1.6597 0.68482 0.62842 1.7886 0.62842 1.0876 0 1.7725-0.62842 0.69287-0.63647 0.69287-1.6597z" />
	</g>
	<g transform="translate(4.4573 .036251)" fill="#262626" aria-label="1.0">
		<path d="m60.863 113.63h-0.9668v-10.57l-3.1904 1.1843v-0.90235l3.9961-1.4824h0.16113z" />
		<path d="m65.584 113.05q0-0.28198 0.17725-0.47534 0.1853-0.20141 0.50757-0.20141t0.50757 0.20141q0.1853 0.19336 0.1853 0.47534 0 0.28199-0.1853 0.46729-0.1853 0.17725-0.50757 0.17725t-0.50757-0.17725q-0.17725-0.1853-0.17725-0.46729z" />
		<path d="m76.533 108.74q0 2.4814-0.9104 3.7705-0.9104 1.281-2.6829 1.281-1.7402 0-2.6667-1.2568-0.92651-1.2649-0.95068-3.6738v-2.1028q0-2.4734 0.91846-3.7463t2.6829-1.273q1.7402 0 2.6587 1.2327 0.91846 1.2246 0.95068 3.6174zm-0.9668-2.1028q0-2.0142-0.66064-3.0454-0.65259-1.0312-1.9819-1.0312-1.3052 0-1.9658 1.0071-0.66064 1.0071-0.67676 2.9729v2.3042q0 2.0061 0.67676 3.0696 0.68481 1.0635 1.9819 1.0635 1.2891 0 1.9497-1.0393 0.6687-1.0393 0.67676-3.0454z" />
	</g>
</g>
<g transform="rotate(-90)" fill="#262626" aria-label="Precision">
	<path d="m-107.07 18.626v5.4272h-1.8281v-13.863h5.113q2.2756 0 3.561 1.1616 1.2949 1.1616 1.2949 3.0754 0 2.0186-1.2664 3.1135-1.2568 1.0854-3.6086 1.0854zm0-1.4949h3.2849q1.4663 0 2.2471-0.68555 0.78076-0.69507 0.78076-1.9995 0-1.2378-0.78076-1.9805-0.78076-0.74268-2.1423-0.77124h-3.3896z" />
	<path d="m-91.89 15.332q-0.3999-0.06665-0.86646-0.06665-1.7329 0-2.3518 1.4758v7.3125h-1.7615v-10.302h1.7139l0.02856 1.1902q0.86646-1.3806 2.4565-1.3806 0.51416 0 0.78076 0.1333z" />
	<path d="m-85.997 24.244q-2.0947 0-3.4087-1.3711-1.314-1.3806-1.314-3.6848v-0.32373q0-1.533 0.58081-2.7327 0.59033-1.2092 1.6377-1.8853 1.0569-0.68555 2.2852-0.68555 2.009 0 3.123 1.3235 1.114 1.3235 1.114 3.7896v0.73316h-6.9792q0.03809 1.5234 0.8855 2.4661 0.85693 0.9331 2.1709 0.9331 0.93311 0 1.5806-0.38086t1.1331-1.0093l1.0759 0.83789q-1.2949 1.99-3.8848 1.99zm-0.219-9.2358q-1.0664 0-1.79 0.78076-0.72363 0.77124-0.89502 2.1709h5.1606v-0.1333q-0.07617-1.3425-0.72363-2.0757-0.64746-0.74268-1.752-0.74268z" />
	<path d="m-75.809 22.806q0.94263 0 1.6472-0.57129t0.78076-1.4282h1.6663q-0.04761 0.8855-0.60938 1.6853-0.56177 0.7998-1.5044 1.2759-0.93311 0.47608-1.9805 0.47608-2.1042 0-3.3516-1.3997-1.2378-1.4092-1.2378-3.8467v-0.29517q0-1.5044 0.55225-2.6755 0.55225-1.1711 1.5806-1.8186 1.0378-0.64746 2.447-0.64746 1.7329 0 2.8755 1.0378 1.1521 1.0378 1.2283 2.6946h-1.6663q-0.07617-0.99976-0.76172-1.6377-0.67603-0.64746-1.6758-0.64746-1.3425 0-2.0852 0.97119-0.73315 0.96167-0.73315 2.7898v0.33325q0 1.7805 0.73315 2.7422 0.73316 0.96167 2.0947 0.96167z" />
	<path d="m-67.82 24.054h-1.7615v-10.302h1.7615zm-1.9043-13.035q0-0.42847 0.25708-0.72363 0.2666-0.29517 0.78076-0.29517t0.78076 0.29517q0.2666 0.29517 0.2666 0.72363t-0.2666 0.71411q-0.2666 0.28564-0.78076 0.28564t-0.78076-0.28564q-0.25708-0.28564-0.25708-0.71411z" />
	<path d="m-59.003 21.321q0-0.71411-0.54272-1.1045-0.5332-0.3999-1.8757-0.68555-1.333-0.28564-2.1233-0.68555-0.78076-0.3999-1.1616-0.95215-0.37134-0.55225-0.37134-1.314 0-1.2664 1.0664-2.1423 1.0759-0.87598 2.7422-0.87598 1.752 0 2.8374 0.90454 1.095 0.90454 1.095 2.3137h-1.771q0-0.72363-0.6189-1.2473-0.60938-0.52368-1.5425-0.52368-0.96167 0-1.5044 0.41894t-0.54272 1.095q0 0.63794 0.50464 0.96167 0.50464 0.32373 1.8186 0.6189 1.3235 0.29517 2.1423 0.70459 0.81885 0.40942 1.2092 0.99023 0.3999 0.57129 0.3999 1.3997 0 1.3806-1.1045 2.2185-1.1045 0.82837-2.866 0.82837-1.2378 0-2.1899-0.43799-0.95215-0.43799-1.4949-1.2188-0.5332-0.79028-0.5332-1.7043h1.7615q0.04761 0.8855 0.70459 1.4092 0.6665 0.51416 1.752 0.51416 0.99976 0 1.5996-0.3999 0.60938-0.40942 0.60938-1.0854z" />
	<path d="m-53.033 24.054h-1.7615v-10.302h1.7615zm-1.9043-13.035q0-0.42847 0.25708-0.72363 0.2666-0.29517 0.78076-0.29517 0.51416 0 0.78076 0.29517 0.2666 0.29517 0.2666 0.72363t-0.2666 0.71411q-0.2666 0.28564-0.78076 0.28564-0.51416 0-0.78076-0.28564-0.25708-0.28564-0.25708-0.71411z" />
	<path d="m-50.681 18.807q0-1.5139 0.59033-2.7231 0.59985-1.2092 1.6567-1.8662 1.0664-0.65698 2.428-0.65698 2.1042 0 3.3992 1.4568 1.3044 1.4568 1.3044 3.8752v0.12378q0 1.5044-0.58081 2.7041-0.57129 1.1902-1.6472 1.8567-1.0664 0.6665-2.4565 0.6665-2.0947 0-3.3992-1.4568-1.2949-1.4568-1.2949-3.8562zm1.771 0.20947q0 1.7139 0.79028 2.7517 0.7998 1.0378 2.1328 1.0378 1.3425 0 2.1328-1.0474 0.79028-1.0569 0.79028-2.9517 0-1.6948-0.80933-2.7422-0.7998-1.0569-2.1328-1.0569-1.3044 0-2.1042 1.0378-0.7998 1.0378-0.7998 2.9707z" />
	<path d="m-37.427 13.751 0.05713 1.2949q1.1807-1.4854 3.085-1.4854 3.2659 0 3.2944 3.6848v6.8079h-1.7615v-6.8174q-0.0095-1.114-0.51416-1.6472-0.49512-0.5332-1.552-0.5332-0.85693 0-1.5044 0.45703-0.64746 0.45703-1.0093 1.1997v7.3411h-1.7615v-10.302z" />
</g>
<g transform="translate(-28.847 -70.782)">
	<use x="648" y="640.79999" width="100%" height="100%" fill="#262626" stroke="#262626" xlink:href="#m34c554f739" />
</g>
<g transform="translate(-28.847 -70.782)">
	<use x="90" y="86.400002" width="100%" height="100%" fill="#262626" stroke="#262626" xlink:href="#m8885d3ba3a" />
</g>
<path d="m61.153 570.02v-554.4" fill="none" stroke="#262626" stroke-linecap="square" stroke-width="1.875" />
<path d="m61.153 570.02h558" fill="none" stroke="#262626" stroke-linecap="square" stroke-width="1.875" />
</svg>
