<?xml version="1.0" encoding="UTF-8"?>
<svg
 width="978.1pt" height="485.64pt" version="1.1" viewBox="0 0 978.1 485.64" xmlns="http://www.w3.org/2000/svg"
 data-length="2"
>
 <style>
 svg[data-animattr] .bars path {
     transition: opacity 500ms ease;
 }
 svg[data-animattr="0"] .bars :where([fill="#5875a4"], [fill="#cc8963"], [fill="#b55d60"]) {
     opacity: 0.4;
 }
 svg[data-animattr="0 1"] .bars :where([fill="#5875a4"], [fill="#5f9e6e"], [fill="#b55d60"]) {
     opacity: 0.4;
 }
 </style>
 <style type="text/css">*{stroke-linejoin: round; stroke-linecap: butt}</style>
 <g transform="translate(-69.633 -61.556)" fill="#262626">
  <g aria-label="10%">
   <path d="m198.2 537.03h-0.96679v-10.57l-3.1904 1.1843v-0.90234l3.9961-1.4824h0.16113z"/>
   <path d="m209.93 532.14q0 2.4814-0.9104 3.7705-0.9104 1.281-2.6829 1.281-1.7402 0-2.6668-1.2568-0.92651-1.2649-0.95068-3.6738v-2.1028q0-2.4734 0.91846-3.7463 0.91845-1.273 2.6829-1.273 1.7402 0 2.6587 1.2327 0.91845 1.2246 0.95068 3.6174zm-0.9668-2.1028q0-2.0142-0.66064-3.0454-0.65259-1.0312-1.9819-1.0312-1.3052 0-1.9658 1.0071-0.66065 1.0071-0.67676 2.9729v2.3042q0 2.0061 0.67676 3.0696 0.68481 1.0635 1.9819 1.0635 1.2891 0 1.9497-1.0393 0.6687-1.0393 0.67675-3.0454z"/>
   <path d="m211.78 527.55q0-1.0474 0.64453-1.7322 0.65259-0.69287 1.6516-0.69287 0.99903 0 1.6436 0.69287 0.65259 0.68481 0.65259 1.7805v0.57202q0 1.0312-0.64453 1.7241-0.63648 0.68481-1.6355 0.68481-0.99097 0-1.6516-0.67675-0.66065-0.67676-0.66065-1.7886zm0.7815 0.62036q0 0.74927 0.41088 1.2327 0.41895 0.4834 1.1199 0.4834 0.68481 0 1.0876-0.4834 0.41089-0.49145 0.41089-1.2649v-0.58813q0-0.74927-0.41894-1.2327-0.41895-0.49145-1.0957-0.49145-0.6687 0-1.0957 0.48339-0.41894 0.4834-0.41894 1.2891zm5.124 5.978q0-1.0474 0.64453-1.7322 0.65259-0.68482 1.6436-0.68482 0.99096 0 1.6436 0.68482 0.66064 0.67676 0.66064 1.7886v0.57202q0 1.0474-0.65258 1.7322-0.64453 0.68482-1.6355 0.68482t-1.6516-0.67676q-0.65259-0.68482-0.65259-1.7805zm0.77344 0.62841q0 0.75733 0.41089 1.2407 0.41894 0.48339 1.1199 0.48339 0.69287 0 1.0957-0.48339 0.41089-0.49146 0.41089-1.281v-0.58813q0-0.77344-0.41894-1.2407-0.41089-0.47534-1.1038-0.47534-0.67676 0-1.0957 0.47534-0.41894 0.47534-0.41894 1.273zm-4.0606 1.273-0.60425-0.38672 5.7283-9.1684 0.60425 0.38672z"/>
  </g>
  <g id="text1347" aria-label="20%">
   <path id="path2846" d="m328.25 537.03h-7.3476v-0.74121l4.0203-4.5601q0.99903-1.1521 1.3857-1.9014 0.38672-0.74927 0.38672-1.4582 0-1.1118-0.65259-1.7564-0.65258-0.65259-1.7966-0.65259-1.1843 0-1.9175 0.75733-0.72509 0.75732-0.72509 1.9658h-0.95874q0-0.99097 0.44311-1.8047 0.45117-0.81372 1.273-1.273 0.82983-0.46729 1.8852-0.46729 1.6113 0 2.5137 0.84595 0.9104 0.84595 0.9104 2.3042 0 0.82178-0.51563 1.7966-0.50757 0.97486-1.7966 2.4331l-3.271 3.698h6.1633z"/>
   <path id="path2848" d="m337.12 532.14q0 2.4814-0.9104 3.7705-0.91041 1.281-2.6829 1.281-1.7402 0-2.6667-1.2568-0.92652-1.2649-0.95069-3.6738v-2.1028q0-2.4734 0.91846-3.7463t2.6829-1.273q1.7402 0 2.6587 1.2327 0.91846 1.2246 0.95069 3.6174zm-0.9668-2.1028q0-2.0142-0.66065-3.0454-0.65258-1.0312-1.9819-1.0312-1.3052 0-1.9658 1.0071t-0.67676 2.9729v2.3042q0 2.0061 0.67676 3.0696 0.68481 1.0635 1.9819 1.0635 1.2891 0 1.9497-1.0393 0.6687-1.0393 0.67676-3.0454z"/>
   <path id="path2850" d="m338.97 527.55q0-1.0474 0.64453-1.7322 0.65259-0.69287 1.6516-0.69287t1.6436 0.69287q0.65259 0.68481 0.65259 1.7805v0.57202q0 1.0312-0.64453 1.7241-0.63647 0.68481-1.6355 0.68481-0.99096 0-1.6516-0.67675-0.66064-0.67676-0.66064-1.7886zm0.78149 0.62036q0 0.74927 0.41089 1.2327 0.41894 0.4834 1.1199 0.4834 0.68482 0 1.0876-0.4834 0.41089-0.49145 0.41089-1.2649v-0.58813q0-0.74927-0.41895-1.2327-0.41894-0.49145-1.0957-0.49145-0.6687 0-1.0957 0.48339-0.41895 0.4834-0.41895 1.2891zm5.124 5.978q0-1.0474 0.64454-1.7322 0.65258-0.68482 1.6436-0.68482t1.6436 0.68482q0.66065 0.67676 0.66065 1.7886v0.57202q0 1.0474-0.65259 1.7322-0.64453 0.68482-1.6355 0.68482-0.99096 0-1.6516-0.67676-0.65259-0.68482-0.65259-1.7805zm0.77344 0.62841q0 0.75733 0.41089 1.2407 0.41895 0.48339 1.1199 0.48339 0.69287 0 1.0957-0.48339 0.41088-0.49146 0.41088-1.281v-0.58813q0-0.77344-0.41894-1.2407-0.41089-0.47534-1.1038-0.47534-0.67676 0-1.0957 0.47534-0.41895 0.47534-0.41895 1.273zm-4.0606 1.273-0.60424-0.38672 5.7283-9.1684 0.60425 0.38672z"/>
  </g>
  <g id="text1351" aria-label="30%">
   <path id="path2853" d="m450.72 530.64h0.99902q0.82984 0 1.4502-0.29004 0.62036-0.29809 0.94263-0.80566 0.33032-0.51563 0.33032-1.1843 0-1.1279-0.63648-1.7644-0.63647-0.63648-1.8288-0.63648-1.1279 0-1.853 0.6687-0.71704 0.66065-0.71704 1.7483h-0.9668q0-0.9104 0.45923-1.6597 0.45923-0.75733 1.273-1.1682t1.8047-0.41089q1.5952 0 2.5137 0.87012 0.91845 0.87012 0.91845 2.3848 0 0.84595-0.53979 1.563-0.53174 0.70898-1.4663 1.0635 1.0957 0.30615 1.6597 1.0554 0.56396 0.74121 0.56396 1.7725 0 1.5066-0.98291 2.425-0.98291 0.91846-2.6265 0.91846-1.0474 0-1.9255-0.41895-0.87012-0.41894-1.3535-1.1682-0.47535-0.75732-0.47535-1.7564h0.9668q0 1.1199 0.7815 1.8289 0.78149 0.70093 2.0061 0.70093 1.2488 0 1.9416-0.63648 0.70093-0.64453 0.70093-1.8611 0-1.1763-0.75733-1.7966-0.74926-0.62036-2.2156-0.62036h-0.9668z"/>
   <path id="path2855" d="m464.79 532.14q0 2.4814-0.9104 3.7705-0.9104 1.281-2.6829 1.281-1.7402 0-2.6668-1.2568-0.92651-1.2649-0.95068-3.6738v-2.1028q0-2.4734 0.91845-3.7463 0.91846-1.273 2.6829-1.273 1.7402 0 2.6587 1.2327 0.91845 1.2246 0.95068 3.6174zm-0.9668-2.1028q0-2.0142-0.66064-3.0454-0.65259-1.0312-1.9819-1.0312-1.3052 0-1.9658 1.0071-0.66065 1.0071-0.67676 2.9729v2.3042q0 2.0061 0.67676 3.0696 0.68481 1.0635 1.9819 1.0635 1.2891 0 1.9497-1.0393 0.6687-1.0393 0.67675-3.0454z"/>
   <path id="path2857" d="m466.64 527.55q0-1.0474 0.64453-1.7322 0.65259-0.69287 1.6516-0.69287 0.99903 0 1.6436 0.69287 0.65259 0.68481 0.65259 1.7805v0.57202q0 1.0312-0.64453 1.7241-0.63648 0.68481-1.6355 0.68481-0.99097 0-1.6516-0.67675-0.66065-0.67676-0.66065-1.7886zm0.7815 0.62036q0 0.74927 0.41088 1.2327 0.41895 0.4834 1.1199 0.4834 0.68481 0 1.0876-0.4834 0.41089-0.49145 0.41089-1.2649v-0.58813q0-0.74927-0.41894-1.2327-0.41895-0.49145-1.0957-0.49145-0.6687 0-1.0957 0.48339-0.41894 0.4834-0.41894 1.2891zm5.124 5.978q0-1.0474 0.64453-1.7322 0.65259-0.68482 1.6436-0.68482 0.99096 0 1.6436 0.68482 0.66064 0.67676 0.66064 1.7886v0.57202q0 1.0474-0.65258 1.7322-0.64453 0.68482-1.6355 0.68482t-1.6516-0.67676q-0.65259-0.68482-0.65259-1.7805zm0.77344 0.62841q0 0.75733 0.41089 1.2407 0.41894 0.48339 1.1199 0.48339 0.69287 0 1.0957-0.48339 0.41089-0.49146 0.41089-1.281v-0.58813q0-0.77344-0.41895-1.2407-0.41088-0.47534-1.1038-0.47534-0.67676 0-1.0957 0.47534-0.41894 0.47534-0.41894 1.273zm-4.0606 1.273-0.60425-0.38672 5.7283-9.1684 0.60425 0.38672z"/>
  </g>
  <g id="text1355" aria-label="40%">
   <path id="path2860" d="m581.92 533.25h1.8289v0.81372h-1.8289v2.9648h-0.9668v-2.9648h-5.5188v-0.54785l5.4302-8.2178h1.0554zm-5.3013 0h4.3345v-6.7031l-0.427 0.74121z"/>
   <path id="path2862" d="m592.22 532.14q0 2.4814-0.9104 3.7705-0.9104 1.281-2.6829 1.281-1.7402 0-2.6668-1.2568-0.92652-1.2649-0.95069-3.6738v-2.1028q0-2.4734 0.91846-3.7463t2.6829-1.273q1.7402 0 2.6587 1.2327 0.91846 1.2246 0.95069 3.6174zm-0.9668-2.1028q0-2.0142-0.66064-3.0454-0.65259-1.0312-1.9819-1.0312-1.3052 0-1.9658 1.0071-0.66064 1.0071-0.67676 2.9729v2.3042q0 2.0061 0.67676 3.0696 0.68482 1.0635 1.9819 1.0635 1.2891 0 1.9497-1.0393 0.6687-1.0393 0.67676-3.0454z"/>
   <path id="path2864" d="m594.06 527.55q0-1.0474 0.64453-1.7322 0.65259-0.69287 1.6516-0.69287t1.6436 0.69287q0.65259 0.68481 0.65259 1.7805v0.57202q0 1.0312-0.64453 1.7241-0.63647 0.68481-1.6355 0.68481-0.99096 0-1.6516-0.67675-0.66064-0.67676-0.66064-1.7886zm0.78149 0.62036q0 0.74927 0.41089 1.2327 0.41895 0.4834 1.1199 0.4834 0.68482 0 1.0876-0.4834 0.41089-0.49145 0.41089-1.2649v-0.58813q0-0.74927-0.41895-1.2327-0.41894-0.49145-1.0957-0.49145-0.6687 0-1.0957 0.48339-0.41895 0.4834-0.41895 1.2891zm5.124 5.978q0-1.0474 0.64453-1.7322 0.65258-0.68482 1.6436-0.68482t1.6436 0.68482q0.66064 0.67676 0.66064 1.7886v0.57202q0 1.0474-0.65259 1.7322-0.64453 0.68482-1.6355 0.68482-0.99096 0-1.6516-0.67676-0.65258-0.68482-0.65258-1.7805zm0.77343 0.62841q0 0.75733 0.41089 1.2407 0.41895 0.48339 1.1199 0.48339 0.69288 0 1.0957-0.48339 0.41089-0.49146 0.41089-1.281v-0.58813q0-0.77344-0.41895-1.2407-0.41089-0.47534-1.1038-0.47534-0.67676 0-1.0957 0.47534-0.41895 0.47534-0.41895 1.273zm-4.0605 1.273-0.60425-0.38672 5.7283-9.1684 0.60425 0.38672z"/>
  </g>
  <g id="text1359" aria-label="50%">
   <path id="path2867" d="m704.03 531.02 0.57203-5.7202h5.8652v0.89428h-5.0354l-0.41089 3.9639q0.94263-0.64453 2.2075-0.64453 1.5872 0 2.5298 1.0312 0.94262 1.0312 0.94262 2.7473 0 1.853-0.91845 2.8762-0.91846 1.0232-2.5862 1.0232-1.5308 0-2.4814-0.854-0.95068-0.85401-1.0876-2.3928h0.92652q0.13696 1.2004 0.81372 1.8208 0.67675 0.61231 1.8288 0.61231 1.2568 0 1.8933-0.79761 0.64454-0.79761 0.64454-2.272 0-1.2891-0.71705-2.1028-0.71704-0.81373-1.9578-0.81373-0.68481 0-1.1924 0.17725-0.50757 0.16919-1.0715 0.6687z"/>
   <path id="path2869" d="m719.59 532.14q0 2.4814-0.9104 3.7705-0.9104 1.281-2.6829 1.281-1.7402 0-2.6668-1.2568-0.92651-1.2649-0.95068-3.6738v-2.1028q0-2.4734 0.91846-3.7463 0.91845-1.273 2.6829-1.273 1.7402 0 2.6587 1.2327 0.91846 1.2246 0.95068 3.6174zm-0.96679-2.1028q0-2.0142-0.66065-3.0454-0.65259-1.0312-1.9819-1.0312-1.3052 0-1.9658 1.0071-0.66065 1.0071-0.67676 2.9729v2.3042q0 2.0061 0.67676 3.0696 0.68481 1.0635 1.9819 1.0635 1.2891 0 1.9497-1.0393 0.6687-1.0393 0.67676-3.0454z"/>
   <path id="path2871" d="m721.44 527.55q0-1.0474 0.64454-1.7322 0.65258-0.69287 1.6516-0.69287 0.99902 0 1.6436 0.69287 0.65259 0.68481 0.65259 1.7805v0.57202q0 1.0312-0.64453 1.7241-0.63648 0.68481-1.6355 0.68481-0.99097 0-1.6516-0.67675-0.66065-0.67676-0.66065-1.7886zm0.7815 0.62036q0 0.74927 0.41089 1.2327 0.41894 0.4834 1.1199 0.4834 0.68482 0 1.0876-0.4834 0.41089-0.49145 0.41089-1.2649v-0.58813q0-0.74927-0.41895-1.2327-0.41894-0.49145-1.0957-0.49145-0.6687 0-1.0957 0.48339-0.41894 0.4834-0.41894 1.2891zm5.124 5.978q0-1.0474 0.64453-1.7322 0.65259-0.68482 1.6436-0.68482t1.6436 0.68482q0.66065 0.67676 0.66065 1.7886v0.57202q0 1.0474-0.65259 1.7322-0.64453 0.68482-1.6355 0.68482t-1.6516-0.67676q-0.65259-0.68482-0.65259-1.7805zm0.77344 0.62841q0 0.75733 0.41089 1.2407 0.41894 0.48339 1.1199 0.48339 0.69287 0 1.0957-0.48339 0.41089-0.49146 0.41089-1.281v-0.58813q0-0.77344-0.41894-1.2407-0.41089-0.47534-1.1038-0.47534-0.67676 0-1.0957 0.47534-0.41895 0.47534-0.41895 1.273zm-4.0606 1.273-0.60425-0.38672 5.7283-9.1684 0.60424 0.38672z"/>
  </g>
  <g id="text1363" aria-label="60%">
   <path id="path2874" d="m836.72 525.21v0.84595h-0.11279q-2.1028 0-3.3113 1.2407-1.2085 1.2327-1.3374 3.4321 0.48339-0.6687 1.2327-1.0312 0.74927-0.3706 1.6758-0.3706 1.5469 0 2.4573 1.0715 0.91846 1.0635 0.91846 2.7876 0 1.144-0.42701 2.0625-0.427 0.91846-1.2246 1.4341-0.7976 0.50757-1.8208 0.50757-1.6838 0-2.7392-1.2166-1.0554-1.2246-1.0554-3.1582v-0.96679q0-3.1502 1.4341-4.8743 1.4341-1.7322 4.0686-1.7644zm-2.0061 4.9468q-0.91846 0-1.7161 0.54785-0.78955 0.5398-1.0554 1.3777v0.82178q0 1.5308 0.7815 2.4976 0.78955 0.96679 2.0464 0.96679 1.1279 0 1.8208-0.89429 0.70093-0.89428 0.70093-2.2558 0-1.3858-0.70093-2.2236-0.69287-0.83789-1.8772-0.83789z"/>
   <path id="path2876" d="m847.25 532.14q0 2.4814-0.9104 3.7705-0.9104 1.281-2.6829 1.281-1.7402 0-2.6668-1.2568-0.92651-1.2649-0.95068-3.6738v-2.1028q0-2.4734 0.91845-3.7463 0.91846-1.273 2.6829-1.273 1.7402 0 2.6587 1.2327 0.91845 1.2246 0.95068 3.6174zm-0.9668-2.1028q0-2.0142-0.66064-3.0454-0.65259-1.0312-1.9819-1.0312-1.3052 0-1.9658 1.0071-0.66065 1.0071-0.67676 2.9729v2.3042q0 2.0061 0.67676 3.0696 0.68481 1.0635 1.9819 1.0635 1.2891 0 1.9497-1.0393 0.6687-1.0393 0.67675-3.0454z"/>
   <path id="path2878" d="m849.1 527.55q0-1.0474 0.64453-1.7322 0.65259-0.69287 1.6516-0.69287 0.99903 0 1.6436 0.69287 0.65259 0.68481 0.65259 1.7805v0.57202q0 1.0312-0.64454 1.7241-0.63647 0.68481-1.6355 0.68481-0.99097 0-1.6516-0.67675-0.66065-0.67676-0.66065-1.7886zm0.7815 0.62036q0 0.74927 0.41088 1.2327 0.41895 0.4834 1.1199 0.4834 0.68481 0 1.0876-0.4834 0.41089-0.49145 0.41089-1.2649v-0.58813q0-0.74927-0.41894-1.2327-0.41895-0.49145-1.0957-0.49145-0.6687 0-1.0957 0.48339-0.41894 0.4834-0.41894 1.2891zm5.124 5.978q0-1.0474 0.64453-1.7322 0.65259-0.68482 1.6436-0.68482 0.99097 0 1.6436 0.68482 0.66064 0.67676 0.66064 1.7886v0.57202q0 1.0474-0.65258 1.7322-0.64454 0.68482-1.6355 0.68482-0.99097 0-1.6516-0.67676-0.65259-0.68482-0.65259-1.7805zm0.77344 0.62841q0 0.75733 0.41088 1.2407 0.41895 0.48339 1.1199 0.48339 0.69287 0 1.0957-0.48339 0.41089-0.49146 0.41089-1.281v-0.58813q0-0.77344-0.41895-1.2407-0.41088-0.47534-1.1038-0.47534-0.67675 0-1.0957 0.47534-0.41894 0.47534-0.41894 1.273zm-4.0606 1.273-0.60425-0.38672 5.7283-9.1684 0.60425 0.38672z"/>
  </g>
  <g id="text1367" aria-label="70%">
   <path id="path2881" d="m966.1 525.85-5.0112 11.175h-1.0071l4.979-10.909h-6.6709v-0.82178h7.7102z"/>
   <path id="path2883" d="m975.09 532.14q0 2.4814-0.9104 3.7705-0.9104 1.281-2.6829 1.281-1.7402 0-2.6668-1.2568-0.92651-1.2649-0.95068-3.6738v-2.1028q0-2.4734 0.91846-3.7463t2.6829-1.273q1.7402 0 2.6587 1.2327 0.91846 1.2246 0.95068 3.6174zm-0.96679-2.1028q0-2.0142-0.66065-3.0454-0.65258-1.0312-1.9819-1.0312-1.3052 0-1.9658 1.0071-0.66065 1.0071-0.67676 2.9729v2.3042q0 2.0061 0.67676 3.0696 0.68481 1.0635 1.9819 1.0635 1.2891 0 1.9497-1.0393 0.6687-1.0393 0.67676-3.0454z"/>
   <path id="path2885" d="m976.94 527.55q0-1.0474 0.64453-1.7322 0.65258-0.69287 1.6516-0.69287 0.99902 0 1.6436 0.69287 0.65259 0.68481 0.65259 1.7805v0.57202q0 1.0312-0.64453 1.7241-0.63648 0.68481-1.6355 0.68481-0.99097 0-1.6516-0.67675-0.66064-0.67676-0.66064-1.7886zm0.78149 0.62036q0 0.74927 0.41089 1.2327 0.41894 0.4834 1.1199 0.4834 0.68482 0 1.0876-0.4834 0.41089-0.49145 0.41089-1.2649v-0.58813q0-0.74927-0.41895-1.2327-0.41894-0.49145-1.0957-0.49145-0.6687 0-1.0957 0.48339-0.41894 0.4834-0.41894 1.2891zm5.124 5.978q0-1.0474 0.64453-1.7322 0.65259-0.68482 1.6436-0.68482t1.6436 0.68482q0.66065 0.67676 0.66065 1.7886v0.57202q0 1.0474-0.65259 1.7322-0.64453 0.68482-1.6355 0.68482-0.99096 0-1.6516-0.67676-0.65259-0.68482-0.65259-1.7805zm0.77344 0.62841q0 0.75733 0.41089 1.2407 0.41894 0.48339 1.1199 0.48339 0.69287 0 1.0957-0.48339 0.41088-0.49146 0.41088-1.281v-0.58813q0-0.77344-0.41894-1.2407-0.41089-0.47534-1.1038-0.47534-0.67676 0-1.0957 0.47534-0.41895 0.47534-0.41895 1.273zm-4.0606 1.273-0.60424-0.38672 5.7283-9.1684 0.60424 0.38672z"/>
  </g>
 </g>
 <path id="path1372" transform="translate(-69.633 -57.506)" d="m144 512.64h892.8" clip-path="url(#p81e9caa6e8)" fill="none" stroke="#ccc" stroke-linecap="round" stroke-opacity=".5" stroke-width="1.5"/>
 <path id="path1379" transform="translate(-69.633 -57.506)" d="m144 462.24h892.8" clip-path="url(#p81e9caa6e8)" fill="none" stroke="#ccc" stroke-linecap="round" stroke-opacity=".5" stroke-width="1.5"/>
 <path id="path1386" transform="translate(-69.633 -57.506)" d="m144 411.84h892.8" clip-path="url(#p81e9caa6e8)" fill="none" stroke="#ccc" stroke-linecap="round" stroke-opacity=".5" stroke-width="1.5"/>
 <path id="path1393" transform="translate(-69.633 -57.506)" d="m144 361.44h892.8" clip-path="url(#p81e9caa6e8)" fill="none" stroke="#ccc" stroke-linecap="round" stroke-opacity=".5" stroke-width="1.5"/>
 <path id="path1400" transform="translate(-69.633 -57.506)" d="m144 311.04h892.8" clip-path="url(#p81e9caa6e8)" fill="none" stroke="#ccc" stroke-linecap="round" stroke-opacity=".5" stroke-width="1.5"/>
 <path id="path1407" transform="translate(-69.633 -57.506)" d="m144 260.64h892.8" clip-path="url(#p81e9caa6e8)" fill="none" stroke="#ccc" stroke-linecap="round" stroke-opacity=".5" stroke-width="1.5"/>
 <path id="path1414" transform="translate(-69.633 -57.506)" d="m144 210.24h892.8" clip-path="url(#p81e9caa6e8)" fill="none" stroke="#ccc" stroke-linecap="round" stroke-opacity=".5" stroke-width="1.5"/>
 <path id="path1421" transform="translate(-69.633 -57.506)" d="m144 159.84h892.8" clip-path="url(#p81e9caa6e8)" fill="none" stroke="#ccc" stroke-linecap="round" stroke-opacity=".5" stroke-width="1.5"/>
 <path id="path1428" transform="translate(-69.633 -57.506)" d="m144 109.44h892.8" clip-path="url(#p81e9caa6e8)" fill="none" stroke="#ccc" stroke-linecap="round" stroke-opacity=".5" stroke-width="1.5"/>
 <g id="g2520" transform="translate(-59.939 -57.506)" fill="#262626">
  <g id="text1375" aria-label="0">
   <path id="path2888" d="m125.87 513.69q0 2.4814-0.9104 3.7705-0.9104 1.281-2.6829 1.281-1.7402 0-2.6667-1.2568-0.92652-1.2649-0.95069-3.6738v-2.1028q0-2.4734 0.91846-3.7463t2.6829-1.273q1.7402 0 2.6587 1.2327 0.91846 1.2246 0.95069 3.6174zm-0.9668-2.1028q0-2.0142-0.66065-3.0454-0.65258-1.0312-1.9819-1.0312-1.3052 0-1.9658 1.0071-0.66064 1.0071-0.67676 2.9729v2.3042q0 2.0061 0.67676 3.0696 0.68481 1.0635 1.9819 1.0635 1.2891 0 1.9497-1.0393 0.6687-1.0393 0.67676-3.0454z" fill="#262626"/>
  </g>
  <g id="text1382" aria-label="10">
   <path id="path2891" d="m114.14 468.18h-0.9668v-10.57l-3.1904 1.1843v-0.90234l3.9961-1.4824h0.16114z"/>
   <path id="path2893" d="m125.87 463.29q0 2.4814-0.9104 3.7705-0.9104 1.281-2.6829 1.281-1.7402 0-2.6667-1.2568-0.92652-1.2649-0.95069-3.6738v-2.1028q0-2.4734 0.91846-3.7463 0.91846-1.273 2.6829-1.273 1.7402 0 2.6587 1.2327 0.91846 1.2246 0.95069 3.6174zm-0.9668-2.1028q0-2.0142-0.66065-3.0454-0.65258-1.0312-1.9819-1.0312-1.3052 0-1.9658 1.0071-0.66064 1.0071-0.67676 2.9729v2.3042q0 2.0061 0.67676 3.0696 0.68481 1.0635 1.9819 1.0635 1.2891 0 1.9497-1.0393 0.6687-1.0393 0.67676-3.0454z"/>
  </g>
  <g id="text1389" aria-label="20">
   <path id="path2896" d="m117 417.78h-7.3476v-0.74121l4.0203-4.5601q0.99903-1.1521 1.3857-1.9014 0.38672-0.74927 0.38672-1.4583 0-1.1118-0.65259-1.7563-0.65258-0.65259-1.7966-0.65259-1.1843 0-1.9175 0.75732-0.72509 0.75733-0.72509 1.9658h-0.95874q0-0.99096 0.44311-1.8047 0.45117-0.81372 1.273-1.273 0.82983-0.46729 1.8852-0.46729 1.6113 0 2.5137 0.84595 0.9104 0.84595 0.9104 2.3042 0 0.82178-0.51563 1.7966-0.50757 0.97485-1.7966 2.4331l-3.271 3.698h6.1633z"/>
   <path id="path2898" d="m125.87 412.89q0 2.4814-0.9104 3.7705-0.9104 1.281-2.6829 1.281-1.7402 0-2.6667-1.2568-0.92652-1.2649-0.95069-3.6738v-2.1028q0-2.4734 0.91846-3.7463t2.6829-1.273q1.7402 0 2.6587 1.2327 0.91846 1.2246 0.95069 3.6174zm-0.9668-2.1028q0-2.0142-0.66065-3.0454-0.65258-1.0312-1.9819-1.0312-1.3052 0-1.9658 1.0071-0.66064 1.0071-0.67676 2.9729v2.3042q0 2.0061 0.67676 3.0696 0.68481 1.0635 1.9819 1.0635 1.2891 0 1.9497-1.0393 0.6687-1.0393 0.67676-3.0454z"/>
  </g>
  <g id="text1396" aria-label="30">
   <path id="path2901" d="m111.79 361h0.99903q0.82983 0 1.4502-0.29004 0.62036-0.29809 0.94263-0.80566 0.33032-0.51563 0.33032-1.1843 0-1.1279-0.63647-1.7644-0.63648-0.63648-1.8289-0.63648-1.1279 0-1.853 0.6687-0.71704 0.66065-0.71704 1.7483h-0.96679q0-0.9104 0.45922-1.6597 0.45923-0.75733 1.273-1.1682 0.81372-0.41088 1.8047-0.41088 1.5952 0 2.5137 0.87011 0.91846 0.87012 0.91846 2.3848 0 0.84595-0.5398 1.563-0.53173 0.70898-1.4663 1.0635 1.0957 0.30616 1.6597 1.0554 0.56397 0.74121 0.56397 1.7725 0 1.5066-0.98291 2.425-0.98291 0.91846-2.6265 0.91846-1.0474 0-1.9255-0.41894-0.87012-0.41895-1.3535-1.1682-0.47534-0.75732-0.47534-1.7564h0.9668q0 1.1199 0.78149 1.8289 0.78149 0.70093 2.0061 0.70093 1.2488 0 1.9416-0.63647 0.70093-0.64454 0.70093-1.8611 0-1.1763-0.75732-1.7966-0.74927-0.62036-2.2156-0.62036h-0.9668z"/>
   <path id="path2903" d="m125.87 362.5q0 2.4814-0.9104 3.7705-0.9104 1.281-2.6829 1.281-1.7402 0-2.6667-1.2568-0.92652-1.2649-0.95069-3.6738v-2.1028q0-2.4734 0.91846-3.7463 0.91846-1.273 2.6829-1.273 1.7402 0 2.6587 1.2327 0.91846 1.2246 0.95069 3.6174zm-0.9668-2.1028q0-2.0142-0.66065-3.0454-0.65258-1.0312-1.9819-1.0312-1.3052 0-1.9658 1.0071-0.66064 1.0071-0.67676 2.9729v2.3042q0 2.0061 0.67676 3.0696 0.68481 1.0635 1.9819 1.0635 1.2891 0 1.9497-1.0393 0.6687-1.0393 0.67676-3.0454z"/>
  </g>
  <g id="text1403" aria-label="40">
   <path id="path2906" d="m115.57 313.2h1.8289v0.81372h-1.8289v2.9648h-0.9668v-2.9648h-5.5188v-0.54785l5.4302-8.2178h1.0554zm-5.3013 0h4.3345v-6.7031l-0.427 0.74121z"/>
   <path id="path2908" d="m125.87 312.09q0 2.4814-0.9104 3.7705-0.9104 1.281-2.6829 1.281-1.7402 0-2.6667-1.2568-0.92652-1.2649-0.95069-3.6738v-2.1028q0-2.4734 0.91846-3.7463t2.6829-1.273q1.7402 0 2.6587 1.2327 0.91846 1.2246 0.95069 3.6174zm-0.9668-2.1028q0-2.0142-0.66065-3.0454-0.65258-1.0312-1.9819-1.0312-1.3052 0-1.9658 1.0071-0.66064 1.0071-0.67676 2.9729v2.3042q0 2.0061 0.67676 3.0696 0.68481 1.0635 1.9819 1.0635 1.2891 0 1.9497-1.0393 0.6687-1.0393 0.67676-3.0454z"/>
  </g>
  <g id="text1410" aria-label="50">
   <path id="path2911" d="m110.3 260.57 0.57202-5.7202h5.8652v0.89429h-5.0354l-0.41089 3.9639q0.94263-0.64453 2.2075-0.64453 1.5872 0 2.5298 1.0312 0.94262 1.0312 0.94262 2.7473 0 1.853-0.91845 2.8762-0.91846 1.0232-2.5862 1.0232-1.5308 0-2.4814-0.854t-1.0876-2.3928h0.92652q0.13696 1.2004 0.81372 1.8208 0.67676 0.6123 1.8289 0.6123 1.2568 0 1.8933-0.7976 0.64453-0.79761 0.64453-2.272 0-1.2891-0.71704-2.1028t-1.9578-0.81372q-0.68481 0-1.1924 0.17725-0.50757 0.16919-1.0715 0.6687z"/>
   <path id="path2913" d="m125.87 261.69q0 2.4814-0.9104 3.7705-0.9104 1.281-2.6829 1.281-1.7402 0-2.6667-1.2568-0.92652-1.2649-0.95069-3.6738v-2.1028q0-2.4734 0.91846-3.7463t2.6829-1.273q1.7402 0 2.6587 1.2327 0.91846 1.2246 0.95069 3.6174zm-0.9668-2.1028q0-2.0142-0.66065-3.0454-0.65258-1.0312-1.9819-1.0312-1.3052 0-1.9658 1.0071-0.66064 1.0071-0.67676 2.9729v2.3042q0 2.0061 0.67676 3.0696 0.68481 1.0635 1.9819 1.0635 1.2891 0 1.9497-1.0393 0.6687-1.0393 0.67676-3.0454z"/>
  </g>
  <g id="text1417" aria-label="60">
   <path id="path2916" d="m115.34 204.36v0.84595h-0.1128q-2.1028 0-3.3113 1.2407-1.2085 1.2327-1.3374 3.4321 0.4834-0.6687 1.2327-1.0312 0.74927-0.37061 1.6758-0.37061 1.5469 0 2.4573 1.0715 0.91846 1.0635 0.91846 2.7876 0 1.144-0.427 2.0625-0.427 0.91846-1.2246 1.4341-0.79761 0.50757-1.8208 0.50757-1.6838 0-2.7393-1.2166-1.0554-1.2246-1.0554-3.1582v-0.9668q0-3.1501 1.4341-4.8743 1.4341-1.7322 4.0686-1.7644zm-2.0061 4.9468q-0.91845 0-1.7161 0.54785-0.78955 0.53979-1.0554 1.3777v0.82178q0 1.5308 0.78149 2.4976 0.78955 0.9668 2.0464 0.9668 1.1279 0 1.8208-0.89429 0.70093-0.89429 0.70093-2.2559 0-1.3857-0.70093-2.2236-0.69287-0.83789-1.8772-0.83789z"/>
   <path id="path2918" d="m125.87 211.29q0 2.4814-0.9104 3.7705-0.9104 1.281-2.6829 1.281-1.7402 0-2.6667-1.2568-0.92652-1.2649-0.95069-3.6738v-2.1028q0-2.4734 0.91846-3.7463t2.6829-1.273q1.7402 0 2.6587 1.2327 0.91846 1.2246 0.95069 3.6174zm-0.9668-2.1028q0-2.0142-0.66065-3.0454-0.65258-1.0312-1.9819-1.0312-1.3052 0-1.9658 1.0071-0.66064 1.0071-0.67676 2.9729v2.3042q0 2.0061 0.67676 3.0696 0.68481 1.0635 1.9819 1.0635 1.2891 0 1.9497-1.0393 0.6687-1.0393 0.67676-3.0454z"/>
  </g>
  <g id="text1424" aria-label="70">
   <path id="path2921" d="m116.88 154.61-5.0112 11.175h-1.0071l4.979-10.909h-6.6709v-0.82178h7.7102z"/>
   <path id="path2923" d="m125.87 160.89q0 2.4814-0.9104 3.7705-0.9104 1.281-2.6829 1.281-1.7402 0-2.6667-1.2568-0.92652-1.2649-0.95069-3.6738v-2.1028q0-2.4734 0.91846-3.7463t2.6829-1.273q1.7402 0 2.6587 1.2327 0.91846 1.2246 0.95069 3.6174zm-0.9668-2.1028q0-2.0142-0.66065-3.0454-0.65258-1.0312-1.9819-1.0312-1.3052 0-1.9658 1.0071-0.66064 1.0071-0.67676 2.9729v2.3042q0 2.0061 0.67676 3.0696 0.68481 1.0635 1.9819 1.0635 1.2891 0 1.9497-1.0393 0.6687-1.0393 0.67676-3.0454z"/>
  </g>
  <g id="text1431" aria-label="80">
   <path id="path2926" d="m116.56 106.67q0 0.9104-0.53174 1.6355-0.53174 0.71704-1.4019 1.0554 1.0151 0.34643 1.6274 1.1199 0.61231 0.77344 0.61231 1.7886 0 1.5066-1.0232 2.3928-1.0232 0.87817-2.707 0.87817-1.7 0-2.7231-0.87817-1.0151-0.87818-1.0151-2.3928 0-0.99902 0.58814-1.7805 0.58813-0.7815 1.6113-1.1279-0.87012-0.33838-1.3858-1.0554-0.51562-0.7251-0.51562-1.6355 0-1.4582 0.93457-2.3203 0.94263-0.86206 2.4895-0.86206 1.5469 0 2.4895 0.87011 0.95069 0.87012 0.95069 2.3123zm-0.66065 5.6074q0-1.0957-0.78149-1.7966-0.7815-0.70899-1.998-0.70899t-1.99 0.69288q-0.77344 0.69287-0.77344 1.8127t0.74927 1.7886q0.74927 0.66065 2.0303 0.66065 1.2488 0 2.0061-0.66065 0.75732-0.66064 0.75732-1.7886zm-0.30615-5.6155q0-1.0071-0.70093-1.6758-0.69287-0.67676-1.7725-0.67676-1.0957 0-1.7805 0.65259-0.67676 0.64453-0.67676 1.7 0 1.0312 0.67676 1.6597 0.68482 0.62842 1.7886 0.62842 1.0876 0 1.7725-0.62842 0.69287-0.63647 0.69287-1.6597z"/>
   <path id="path2928" d="m125.87 110.49q0 2.4814-0.9104 3.7705-0.9104 1.281-2.6829 1.281-1.7402 0-2.6667-1.2568-0.92652-1.2649-0.95069-3.6738v-2.1028q0-2.4734 0.91846-3.7463 0.91846-1.2729 2.6829-1.2729 1.7402 0 2.6587 1.2327 0.91846 1.2246 0.95069 3.6174zm-0.9668-2.1028q0-2.0142-0.66065-3.0454-0.65258-1.0312-1.9819-1.0312-1.3052 0-1.9658 1.0071-0.66064 1.0071-0.67676 2.9729v2.3042q0 2.0061 0.67676 3.0696 0.68481 1.0635 1.9819 1.0635 1.2891 0 1.9497-1.0393 0.6687-1.0393 0.67676-3.0454z"/>
  </g>
 </g>
 <g id="text1435" fill="#262626" aria-label="AP (%)">
  <path id="path2931" d="m18.998 22.026h-5.8081l-1.3044 3.6182h-1.8853l5.2939-13.863h1.5996l5.3035 13.863h-1.8757zm-5.2559-1.5044h4.7131l-2.3613-6.4841z"/>
  <path id="path2933" d="m25.891 20.217v5.4272h-1.8281v-13.863h5.113q2.2756 0 3.561 1.1616 1.2949 1.1616 1.2949 3.0754 0 2.0186-1.2664 3.1135-1.2568 1.0854-3.6086 1.0854zm0-1.4949h3.2849q1.4663 0 2.2471-0.68555 0.78076-0.69507 0.78076-1.9995 0-1.2378-0.78076-1.9805-0.78076-0.74268-2.1423-0.77124h-3.3896z"/>
  <path id="path2935" d="m40.85 20.017q0-2.1519 0.57129-4.1323 0.58081-1.9805 1.7234-3.5991 1.1426-1.6187 2.3708-2.2852l0.36182 1.1616q-1.3901 1.0664-2.2852 3.2563-0.8855 2.1899-0.97119 4.9036l-0.0095 0.80933q0 3.6753 1.3425 6.3794 0.80933 1.6187 1.9233 2.5327l-0.36182 1.0759q-1.2664-0.70459-2.4185-2.3613-2.2471-3.2373-2.2471-7.741z"/>
  <path id="path2937" d="m47.248 14.447q0-1.2473 0.79028-2.0566 0.7998-0.80933 2.0471-0.80933 1.2664 0 2.0471 0.81885 0.79028 0.80933 0.79028 2.1042v0.67603q0 1.2568-0.7998 2.0566-0.79028 0.79028-2.0186 0.79028-1.2378 0-2.0471-0.79028-0.80933-0.7998-0.80933-2.1233zm1.314 0.73316q0 0.74268 0.41894 1.2283 0.41894 0.47607 1.1235 0.47607 0.67603 0 1.0854-0.46655 0.41895-0.46655 0.41895-1.2759v-0.69507q0-0.74268-0.40942-1.2283-0.40942-0.4856-1.114-0.4856t-1.114 0.4856q-0.40942 0.4856-0.40942 1.2664zm5.4368 7.0649q0-1.2473 0.79028-2.0471 0.7998-0.80933 2.0471-0.80933 1.2473 0 2.0471 0.7998 0.7998 0.7998 0.7998 2.1233v0.67603q0 1.2473-0.7998 2.0566-0.79028 0.7998-2.0281 0.7998t-2.0471-0.79028q-0.80933-0.7998-0.80933-2.1233zm1.314 0.74268q0 0.7522 0.41894 1.2378 0.41895 0.47607 1.1235 0.47607 0.68555 0 1.095-0.46655 0.40942-0.47607 0.40942-1.2854v-0.70459q0-0.7522-0.41894-1.2283-0.40942-0.47607-1.1045-0.47607-0.67603 0-1.1045 0.47607-0.41894 0.46655-0.41894 1.2664zm-4.8083 1.6091-0.99976-0.62842 6.7698-10.835 0.99976 0.62842z"/>
  <path id="path2939" d="m65.929 20.112q0 2.1233-0.56177 4.0752-0.55225 1.9424-1.7043 3.5896-1.1426 1.6472-2.3994 2.3423l-0.37134-1.0759q1.4663-1.1235 2.3518-3.4849 0.89502-2.3708 0.91406-5.2559v-0.30469q0-1.9995-0.41894-3.7134-0.41895-1.7234-1.1711-3.085-0.74268-1.3616-1.6758-2.1233l0.37134-1.0759q1.2568 0.69507 2.3899 2.3232 1.1426 1.6282 1.7043 3.5896 0.57129 1.9614 0.57129 4.199z"/>
 </g>
 <g class="bars">
  <path transform="translate(-69.633 -57.506)" d="m156.75 512.64h25.509v-335.6h-25.509z" clip-path="url(#p81e9caa6e8)" fill="#5875a4" stroke="#fff" stroke-width="1.5"/>
  <path transform="translate(-69.633 -57.506)" d="m284.3 512.64h25.509v-331.87h-25.509z" clip-path="url(#p81e9caa6e8)" fill="#5875a4" stroke="#fff" stroke-width="1.5"/>
  <path transform="translate(-69.633 -57.506)" d="m411.84 512.64h25.509v-322.56h-25.509z" clip-path="url(#p81e9caa6e8)" fill="#5875a4" stroke="#fff" stroke-width="1.5"/>
  <path transform="translate(-69.633 -57.506)" d="m539.38 512.64h25.509v-301.28h-25.509z" clip-path="url(#p81e9caa6e8)" fill="#5875a4" stroke="#fff" stroke-width="1.5"/>
  <path transform="translate(-69.633 -57.506)" d="m666.93 512.64h25.509v-254.3h-25.509z" clip-path="url(#p81e9caa6e8)" fill="#5875a4" stroke="#fff" stroke-width="1.5"/>
  <path transform="translate(-69.633 -57.506)" d="m794.47 512.64h25.509v-174.31h-25.509z" clip-path="url(#p81e9caa6e8)" fill="#5875a4" stroke="#fff" stroke-width="1.5"/>
  <path transform="translate(-69.633 -57.506)" d="m922.01 512.64h25.509v-69.138h-25.509z" clip-path="url(#p81e9caa6e8)" fill="#5875a4" stroke="#fff" stroke-width="1.5"/>
  <path transform="translate(-69.633 -57.506)" d="m182.26 512.64h25.509v-327.12h-25.509z" clip-path="url(#p81e9caa6e8)" fill="#cc8963" stroke="#fff" stroke-width="1.5"/>
  <path transform="translate(-69.633 -57.506)" d="m309.81 512.64h25.509v-324.84h-25.509z" clip-path="url(#p81e9caa6e8)" fill="#cc8963" stroke="#fff" stroke-width="1.5"/>
  <path transform="translate(-69.633 -57.506)" d="m437.35 512.64h25.509v-320.63h-25.509z" clip-path="url(#p81e9caa6e8)" fill="#cc8963" stroke="#fff" stroke-width="1.5"/>
  <path transform="translate(-69.633 -57.506)" d="m564.89 512.64h25.509v-306.38h-25.509z" clip-path="url(#p81e9caa6e8)" fill="#cc8963" stroke="#fff" stroke-width="1.5"/>
  <path transform="translate(-69.633 -57.506)" d="m692.43 512.64h25.509v-274.14h-25.509z" clip-path="url(#p81e9caa6e8)" fill="#cc8963" stroke="#fff" stroke-width="1.5"/>
  <path transform="translate(-69.633 -57.506)" d="m819.98 512.64h25.509v-222.24h-25.509z" clip-path="url(#p81e9caa6e8)" fill="#cc8963" stroke="#fff" stroke-width="1.5"/>
  <path transform="translate(-69.633 -57.506)" d="m947.52 512.64h25.509v-121.93h-25.509z" clip-path="url(#p81e9caa6e8)" fill="#cc8963" stroke="#fff" stroke-width="1.5"/>
  <path transform="translate(-69.633 -57.506)" d="m207.77 512.64h25.509v-278.99h-25.509z" clip-path="url(#p81e9caa6e8)" fill="#5f9e6e" stroke="#fff" stroke-width="1.5"/>
  <path transform="translate(-69.633 -57.506)" d="m335.31 512.64h25.509v-261.31h-25.509z" clip-path="url(#p81e9caa6e8)" fill="#5f9e6e" stroke="#fff" stroke-width="1.5"/>
  <path transform="translate(-69.633 -57.506)" d="m462.86 512.64h25.509v-232.98h-25.509z" clip-path="url(#p81e9caa6e8)" fill="#5f9e6e" stroke="#fff" stroke-width="1.5"/>
  <path transform="translate(-69.633 -57.506)" d="m590.4 512.64h25.509v-188.46h-25.509z" clip-path="url(#p81e9caa6e8)" fill="#5f9e6e" stroke="#fff" stroke-width="1.5"/>
  <path transform="translate(-69.633 -57.506)" d="m717.94 512.64h25.509v-111.53h-25.509z" clip-path="url(#p81e9caa6e8)" fill="#5f9e6e" stroke="#fff" stroke-width="1.5"/>
  <path transform="translate(-69.633 -57.506)" d="m845.49 512.64h25.509v-58.634h-25.509z" clip-path="url(#p81e9caa6e8)" fill="#5f9e6e" stroke="#fff" stroke-width="1.5"/>
  <path transform="translate(-69.633 -57.506)" d="m973.03 512.64h25.509v-17.204h-25.509z" clip-path="url(#p81e9caa6e8)" fill="#5f9e6e" stroke="#fff" stroke-width="1.5"/>
  <path transform="translate(-69.633 -57.506)" d="m233.28 512.64h25.509v-334.37h-25.509z" clip-path="url(#p81e9caa6e8)" fill="#b55d60" stroke="#fff" stroke-width="1.5"/>
  <path transform="translate(-69.633 -57.506)" d="m360.82 512.64h25.509v-331.68h-25.509z" clip-path="url(#p81e9caa6e8)" fill="#b55d60" stroke="#fff" stroke-width="1.5"/>
  <path transform="translate(-69.633 -57.506)" d="m488.37 512.64h25.509v-323.3h-25.509z" clip-path="url(#p81e9caa6e8)" fill="#b55d60" stroke="#fff" stroke-width="1.5"/>
  <path transform="translate(-69.633 -57.506)" d="m615.91 512.64h25.509v-307.92h-25.509z" clip-path="url(#p81e9caa6e8)" fill="#b55d60" stroke="#fff" stroke-width="1.5"/>
  <path transform="translate(-69.633 -57.506)" d="m743.45 512.64h25.509v-276.72h-25.509z" clip-path="url(#p81e9caa6e8)" fill="#b55d60" stroke="#fff" stroke-width="1.5"/>
  <path transform="translate(-69.633 -57.506)" d="m870.99 512.64h25.509v-202.09h-25.509z" clip-path="url(#p81e9caa6e8)" fill="#b55d60" stroke="#fff" stroke-width="1.5"/>
  <path transform="translate(-69.633 -57.506)" d="m998.54 512.64h25.509v-91.35h-25.509z" clip-path="url(#p81e9caa6e8)" fill="#b55d60" stroke="#fff" stroke-width="1.5"/>
  <path d="m74.367 455.13h892.8" fill="none" stroke="#262626" stroke-linecap="square" stroke-width="1.875"/>
 </g>
 <defs id="defs1615">
  <clipPath id="p81e9caa6e8">
   <rect id="rect1612" x="144" y="69.12" width="892.8" height="443.52"/>
  </clipPath>
 </defs>
 <g id="text1749" transform="translate(186.19 13.964)" fill="#262626" stop-color="#000000" aria-label="VEHICLES IMAGENET">
  <path id="path2942" d="m200.26 10.611 4.065-12.513h3.0542l-5.7568 15.996h-2.6916l-5.7349-15.996h3.0432z" stop-color="#000000"/>
  <path id="path2944" d="m218.53 6.9521h-6.5698v4.9219h7.6794v2.2192h-10.459v-15.996h10.382v2.2412h-7.6025v4.4165h6.5698z" stop-color="#000000"/>
  <path id="path2946" d="m234.6 14.093h-2.7686v-7.1082h-7.1521v7.1082h-2.7795v-15.996h2.7795v6.6577h7.1521v-6.6577h2.7686z" stop-color="#000000"/>
  <path id="path2948" d="m240.82 14.093h-2.7686v-15.996h2.7686z" stop-color="#000000"/>
  <path id="path2950" d="m256.44 8.8857q-0.2417 2.5598-1.8896 3.999-1.648 1.4282-4.3836 1.4282-1.9116 0-3.3728-0.90088-1.4502-0.91186-2.2412-2.5818-0.79102-1.6699-0.82398-3.8782v-1.4941q0-2.2632 0.80201-3.988 0.802-1.7249 2.2961-2.6587 1.5051-0.93384 3.4717-0.93384 2.6477 0 4.2627 1.4392 1.615 1.4392 1.8787 4.0649h-2.7686q-0.19775-1.7249-1.0107-2.4829-0.802-0.76904-2.3621-0.76904-1.8128 0-2.7905 1.3293-0.9668 1.3184-0.98877 3.8782v1.4172q0 2.5928 0.92285 3.9551 0.93384 1.3623 2.7246 1.3623 1.637 0 2.4609-0.73608t1.0437-2.45z" stop-color="#000000"/>
  <path id="path2952" d="m261.71 11.874h7.262v2.2192h-10.042v-15.996h2.7795z" stop-color="#000000"/>
  <path id="path2954" d="m280.45 6.9521h-6.5698v4.9219h7.6794v2.2192h-10.459v-15.996h10.382v2.2412h-7.6025v4.4165h6.5698z" stop-color="#000000"/>
  <path id="path2956" d="m292.18 9.9733q0-1.0547-0.74707-1.626-0.73608-0.57129-2.6697-1.1536-1.9336-0.58228-3.0762-1.2964-2.1863-1.3733-2.1863-3.5815 0-1.9336 1.571-3.186 1.582-1.2524 4.0979-1.2524 1.6699 0 2.9773 0.61523 1.3074 0.61523 2.0544 1.7578 0.74707 1.1316 0.74707 2.5159h-2.7686q0-1.2524-0.79101-1.9556-0.78003-0.71411-2.2412-0.71411-1.3623 0-2.1204 0.58228-0.74707 0.58228-0.74707 1.626 0 0.87891 0.81299 1.4722 0.81299 0.58228 2.6807 1.1426 1.8677 0.54932 2.9993 1.2634 1.1316 0.70312 1.6589 1.626 0.52734 0.91187 0.52734 2.1423 0 1.9995-1.5381 3.186-1.5271 1.1755-4.1528 1.1755-1.7358 0-3.197-0.63721-1.4502-0.64819-2.2632-1.7798-0.802-1.1316-0.802-2.6367h2.7795q0 1.3623 0.90088 2.1094 0.90088 0.74707 2.5818 0.74707 1.4502 0 2.1753-0.58228 0.73608-0.59326 0.73608-1.5601z" stop-color="#000000"/>
  <path id="path2958" d="m305.94 14.093h-2.7686v-15.996h2.7686z" stop-color="#000000"/>
  <path id="path2960" d="m312.96-1.9029 4.6143 12.261 4.6033-12.261h3.5925v15.996h-2.7686v-5.2734l0.27466-7.0532-4.7241 12.327h-1.9885l-4.7131-12.316 0.27466 7.0422v5.2734h-2.7686v-15.996z" stop-color="#000000"/>
  <path id="path2962" d="m338.01 10.369h-6.1963l-1.2964 3.7244h-2.8894l6.0425-15.996h2.4939l6.0535 15.996h-2.9004zm-5.4163-2.2412h4.6362l-2.3181-6.6357z" stop-color="#000000"/>
  <path id="path2964" d="m356.29 12.017q-0.86792 1.1316-2.406 1.7139-1.5381 0.58228-3.4936 0.58228-2.0105 0-3.5596-0.91186t-2.395-2.6038q-0.83496-1.7029-0.86792-3.9661v-1.2524q0-3.6255 1.7358-5.658 1.7358-2.0435 4.845-2.0435 2.6697 0 4.2407 1.3184 1.571 1.3184 1.8896 3.8013h-2.7246q-0.46143-2.8894-3.3508-2.8894-1.8677 0-2.8455 1.3513-0.9668 1.3403-0.99975 3.9441v1.2305q0 2.5928 1.0876 4.032 1.0986 1.4282 3.0432 1.4282 2.1314 0 3.0322-0.9668v-3.1311h-3.2959v-2.1094h6.0645z" stop-color="#000000"/>
  <path id="path2966" d="m368.69 6.9521h-6.5698v4.9219h7.6794v2.2192h-10.459v-15.996h10.382v2.2412h-7.6025v4.4165h6.5698z" stop-color="#000000"/>
  <path id="path2968" d="m384.75 14.093h-2.7795l-7.1301-11.349v11.349h-2.7795v-15.996h2.7795l7.1521 11.393v-11.393h2.7576z" stop-color="#000000"/>
  <path id="path2970" d="m397.39 6.9521h-6.5698v4.9219h7.6794v2.2192h-10.459v-15.996h10.382v2.2412h-7.6025v4.4165h6.5698z" stop-color="#000000"/>
  <path id="path2972" d="m412.54 0.33832h-4.9878v13.755h-2.7576v-13.755h-4.9438v-2.2412h12.689z" stop-color="#000000"/>
 </g>
</svg>
