<?xml version="1.0" encoding="UTF-8"?>
<svg width="200" height="200" version="1.1" viewBox="0 0 108 108" xmlns="http://www.w3.org/2000/svg" data-length="0">
 <style>
  @keyframes move-x {
      0% { --x-position: 0px; }
     20% { --x-position: 20px; }
     40% { --x-position: 40px; }
     60% { --x-position: 60px; }
     80% { --x-position: 80px; }
    100% { --x-position: 0px; }
  }

  @keyframes move-y {
      0% { --y-position: 0px; }
     16% { --y-position: 0px; }
     20% { --y-position: 20px; }
     36% { --y-position: 20px; }
     40% { --y-position: 40px; }
     56% { --y-position: 40px; }
     60% { --y-position: 60px; }
     76% { --y-position: 60px; }
     80% { --y-position: 80px; }
     96% { --y-position: 80px; }
    100% { --y-position: 0px; }
  }

  svg[data-animattr] .move {
    transform: translate(var(--x-position, 0), var(--y-position, 0));
    animation: 3s infinite move-x, 15s infinite move-y;
  }
 </style>
 <g fill="none" stroke-width="2">
  <g stroke="#8c8c8c" stroke-opacity=".3">
   <rect x="2"  y="2" width="25" height="25" />
   <rect x="22" y="2" width="25" height="25" />
   <rect x="42" y="2" width="25" height="25" />
   <rect x="62" y="2" width="25" height="25" />
   <rect x="82" y="2" width="25" height="25" />

   <rect x="2"  y="22" width="25" height="25" />
   <rect x="22" y="22" width="25" height="25" />
   <rect x="42" y="22" width="25" height="25" />
   <rect x="62" y="22" width="25" height="25" />
   <rect x="82" y="22" width="25" height="25" />

   <rect x="2"  y="42" width="25" height="25" />
   <rect x="22" y="42" width="25" height="25" />
   <rect x="42" y="42" width="25" height="25" />
   <rect x="62" y="42" width="25" height="25" />
   <rect x="82" y="42" width="25" height="25" />

   <rect x="2"  y="62" width="25" height="25" />
   <rect x="22" y="62" width="25" height="25" />
   <rect x="42" y="62" width="25" height="25" />
   <rect x="62" y="62" width="25" height="25" />
   <rect x="82" y="62" width="25" height="25" />

   <rect x="2"  y="82" width="25" height="25" />
   <rect x="22" y="82" width="25" height="25" />
   <rect x="42" y="82" width="25" height="25" />
   <rect x="62" y="82" width="25" height="25" />
   <rect x="82" y="82" width="25" height="25" />
  </g>
  <rect class="move" x="2" y="2" width="25" height="25" stroke="#cb8964" strok-opacity="1" />
 </g>
</svg>
